G04 #@! TF.FileFunction,Copper,L2,Bot,Signal*
%FSLAX46Y46*%
G04 Gerber Fmt 4.6, Leading zero omitted, Abs format (unit mm)*
G04 Created by KiCad (PCBNEW 4.0.6+dfsg1-1) date Wed Nov  1 12:46:00 2017*
%MOMM*%
%LPD*%
G01*
G04 APERTURE LIST*
%ADD10C,0.050000*%
%ADD11C,0.190500*%
%ADD12R,1.300000X1.300000*%
%ADD13C,1.300000*%
%ADD14R,1.727200X1.727200*%
%ADD15O,1.727200X1.727200*%
%ADD16R,1.700000X1.200000*%
%ADD17O,1.700000X1.200000*%
%ADD18R,2.540000X2.540000*%
%ADD19C,2.540000*%
%ADD20C,1.397000*%
%ADD21R,2.500000X0.600000*%
%ADD22C,4.064000*%
%ADD23C,1.000000*%
%ADD24C,0.700000*%
%ADD25C,0.300000*%
%ADD26C,0.254000*%
G04 APERTURE END LIST*
D10*
D11*
X188252620Y-124150476D02*
X188347858Y-124102857D01*
X188538334Y-124102857D01*
X188633572Y-124150476D01*
X188728810Y-124245714D01*
X188776429Y-124340952D01*
X188776429Y-124531429D01*
X188728810Y-124626667D01*
X188633572Y-124721905D01*
X188538334Y-124769524D01*
X188347858Y-124769524D01*
X188252620Y-124721905D01*
X188443096Y-123769524D02*
X188681191Y-123817143D01*
X188919287Y-123960000D01*
X189062144Y-124198095D01*
X189109763Y-124436190D01*
X189062144Y-124674286D01*
X188919287Y-124912381D01*
X188681191Y-125055238D01*
X188443096Y-125102857D01*
X188205001Y-125055238D01*
X187966906Y-124912381D01*
X187824049Y-124674286D01*
X187776429Y-124436190D01*
X187824049Y-124198095D01*
X187966906Y-123960000D01*
X188205001Y-123817143D01*
X188443096Y-123769524D01*
X186633572Y-124626667D02*
X186157381Y-124626667D01*
X186728810Y-124912381D02*
X186395477Y-123912381D01*
X186062143Y-124912381D01*
X185585953Y-124912381D02*
X185681191Y-124864762D01*
X185728810Y-124769524D01*
X185728810Y-123912381D01*
X184824047Y-124864762D02*
X184919285Y-124912381D01*
X185109762Y-124912381D01*
X185205000Y-124864762D01*
X185252619Y-124769524D01*
X185252619Y-124388571D01*
X185205000Y-124293333D01*
X185109762Y-124245714D01*
X184919285Y-124245714D01*
X184824047Y-124293333D01*
X184776428Y-124388571D01*
X184776428Y-124483810D01*
X185252619Y-124579048D01*
X184443095Y-124912381D02*
X183919285Y-124245714D01*
X184443095Y-124245714D02*
X183919285Y-124912381D01*
X183109761Y-124912381D02*
X183109761Y-124388571D01*
X183157380Y-124293333D01*
X183252618Y-124245714D01*
X183443095Y-124245714D01*
X183538333Y-124293333D01*
X183109761Y-124864762D02*
X183204999Y-124912381D01*
X183443095Y-124912381D01*
X183538333Y-124864762D01*
X183585952Y-124769524D01*
X183585952Y-124674286D01*
X183538333Y-124579048D01*
X183443095Y-124531429D01*
X183204999Y-124531429D01*
X183109761Y-124483810D01*
X182633571Y-124245714D02*
X182633571Y-124912381D01*
X182633571Y-124340952D02*
X182585952Y-124293333D01*
X182490714Y-124245714D01*
X182347856Y-124245714D01*
X182252618Y-124293333D01*
X182204999Y-124388571D01*
X182204999Y-124912381D01*
X181300237Y-124912381D02*
X181300237Y-123912381D01*
X181300237Y-124864762D02*
X181395475Y-124912381D01*
X181585952Y-124912381D01*
X181681190Y-124864762D01*
X181728809Y-124817143D01*
X181776428Y-124721905D01*
X181776428Y-124436190D01*
X181728809Y-124340952D01*
X181681190Y-124293333D01*
X181585952Y-124245714D01*
X181395475Y-124245714D01*
X181300237Y-124293333D01*
X180824047Y-124912381D02*
X180824047Y-124245714D01*
X180824047Y-124436190D02*
X180776428Y-124340952D01*
X180728809Y-124293333D01*
X180633571Y-124245714D01*
X180538332Y-124245714D01*
X180062142Y-124912381D02*
X180157380Y-124864762D01*
X180204999Y-124817143D01*
X180252618Y-124721905D01*
X180252618Y-124436190D01*
X180204999Y-124340952D01*
X180157380Y-124293333D01*
X180062142Y-124245714D01*
X179919284Y-124245714D01*
X179824046Y-124293333D01*
X179776427Y-124340952D01*
X179728808Y-124436190D01*
X179728808Y-124721905D01*
X179776427Y-124817143D01*
X179824046Y-124864762D01*
X179919284Y-124912381D01*
X180062142Y-124912381D01*
X179347856Y-124864762D02*
X179252618Y-124912381D01*
X179062142Y-124912381D01*
X178966903Y-124864762D01*
X178919284Y-124769524D01*
X178919284Y-124721905D01*
X178966903Y-124626667D01*
X179062142Y-124579048D01*
X179204999Y-124579048D01*
X179300237Y-124531429D01*
X179347856Y-124436190D01*
X179347856Y-124388571D01*
X179300237Y-124293333D01*
X179204999Y-124245714D01*
X179062142Y-124245714D01*
X178966903Y-124293333D01*
X177728808Y-124912381D02*
X177728808Y-123912381D01*
X177490713Y-123912381D01*
X177347855Y-123960000D01*
X177252617Y-124055238D01*
X177204998Y-124150476D01*
X177157379Y-124340952D01*
X177157379Y-124483810D01*
X177204998Y-124674286D01*
X177252617Y-124769524D01*
X177347855Y-124864762D01*
X177490713Y-124912381D01*
X177728808Y-124912381D01*
X176728808Y-124912381D02*
X176728808Y-124245714D01*
X176728808Y-124436190D02*
X176681189Y-124340952D01*
X176633570Y-124293333D01*
X176538332Y-124245714D01*
X176443093Y-124245714D01*
X176204998Y-124245714D02*
X175966903Y-124912381D01*
X175728807Y-124245714D02*
X175966903Y-124912381D01*
X176062141Y-125150476D01*
X176109760Y-125198095D01*
X176204998Y-125245714D01*
X175347855Y-124912381D02*
X175347855Y-124245714D01*
X175347855Y-124340952D02*
X175300236Y-124293333D01*
X175204998Y-124245714D01*
X175062140Y-124245714D01*
X174966902Y-124293333D01*
X174919283Y-124388571D01*
X174919283Y-124912381D01*
X174919283Y-124388571D02*
X174871664Y-124293333D01*
X174776426Y-124245714D01*
X174633569Y-124245714D01*
X174538331Y-124293333D01*
X174490712Y-124388571D01*
X174490712Y-124912381D01*
X173871665Y-124912381D02*
X173966903Y-124864762D01*
X174014522Y-124817143D01*
X174062141Y-124721905D01*
X174062141Y-124436190D01*
X174014522Y-124340952D01*
X173966903Y-124293333D01*
X173871665Y-124245714D01*
X173728807Y-124245714D01*
X173633569Y-124293333D01*
X173585950Y-124340952D01*
X173538331Y-124436190D01*
X173538331Y-124721905D01*
X173585950Y-124817143D01*
X173633569Y-124864762D01*
X173728807Y-124912381D01*
X173871665Y-124912381D01*
X173109760Y-124245714D02*
X173109760Y-124912381D01*
X173109760Y-124340952D02*
X173062141Y-124293333D01*
X172966903Y-124245714D01*
X172824045Y-124245714D01*
X172728807Y-124293333D01*
X172681188Y-124388571D01*
X172681188Y-124912381D01*
X172204998Y-124912381D02*
X172204998Y-124245714D01*
X172204998Y-123912381D02*
X172252617Y-123960000D01*
X172204998Y-124007619D01*
X172157379Y-123960000D01*
X172204998Y-123912381D01*
X172204998Y-124007619D01*
X171871665Y-124245714D02*
X171490713Y-124245714D01*
X171728808Y-123912381D02*
X171728808Y-124769524D01*
X171681189Y-124864762D01*
X171585951Y-124912381D01*
X171490713Y-124912381D01*
X171157379Y-124912381D02*
X171157379Y-124245714D01*
X171157379Y-123912381D02*
X171204998Y-123960000D01*
X171157379Y-124007619D01*
X171109760Y-123960000D01*
X171157379Y-123912381D01*
X171157379Y-124007619D01*
X170728808Y-124864762D02*
X170633570Y-124912381D01*
X170443094Y-124912381D01*
X170347855Y-124864762D01*
X170300236Y-124769524D01*
X170300236Y-124721905D01*
X170347855Y-124626667D01*
X170443094Y-124579048D01*
X170585951Y-124579048D01*
X170681189Y-124531429D01*
X170728808Y-124436190D01*
X170728808Y-124388571D01*
X170681189Y-124293333D01*
X170585951Y-124245714D01*
X170443094Y-124245714D01*
X170347855Y-124293333D01*
D12*
X138430000Y-97790000D03*
D13*
X138430000Y-100290000D03*
D14*
X146050000Y-121920000D03*
D15*
X146050000Y-124460000D03*
X143510000Y-121920000D03*
X143510000Y-124460000D03*
X140970000Y-121920000D03*
X140970000Y-124460000D03*
D16*
X191770000Y-88900000D03*
D17*
X191770000Y-90900000D03*
X191770000Y-92900000D03*
D16*
X185420000Y-88900000D03*
D17*
X185420000Y-90900000D03*
X185420000Y-92900000D03*
D16*
X179070000Y-88900000D03*
D17*
X179070000Y-90900000D03*
X179070000Y-92900000D03*
D16*
X172720000Y-88900000D03*
D17*
X172720000Y-90900000D03*
X172720000Y-92900000D03*
D16*
X166370000Y-88900000D03*
D17*
X166370000Y-90900000D03*
X166370000Y-92900000D03*
D16*
X160020000Y-88900000D03*
D17*
X160020000Y-90900000D03*
X160020000Y-92900000D03*
D16*
X153670000Y-88900000D03*
D17*
X153670000Y-90900000D03*
X153670000Y-92900000D03*
D16*
X147320000Y-88900000D03*
D17*
X147320000Y-90900000D03*
X147320000Y-92900000D03*
D16*
X140970000Y-88900000D03*
D17*
X140970000Y-90900000D03*
X140970000Y-92900000D03*
D16*
X134620000Y-88900000D03*
D17*
X134620000Y-90900000D03*
X134620000Y-92900000D03*
D16*
X128270000Y-88900000D03*
D17*
X128270000Y-90900000D03*
X128270000Y-92900000D03*
D16*
X121920000Y-88900000D03*
D17*
X121920000Y-90900000D03*
X121920000Y-92900000D03*
D18*
X146050000Y-76200000D03*
D19*
X140970000Y-76200000D03*
D16*
X115570000Y-88900000D03*
D17*
X115570000Y-90900000D03*
X115570000Y-92900000D03*
D16*
X109220000Y-88900000D03*
D17*
X109220000Y-90900000D03*
X109220000Y-92900000D03*
D16*
X102870000Y-88900000D03*
D17*
X102870000Y-90900000D03*
X102870000Y-92900000D03*
D16*
X96520000Y-88900000D03*
D17*
X96520000Y-90900000D03*
X96520000Y-92900000D03*
D20*
X132080000Y-114300000D03*
X124460000Y-114300000D03*
D21*
X148590000Y-102870000D03*
X148590000Y-104140000D03*
X148590000Y-105410000D03*
X148590000Y-106680000D03*
X148590000Y-107950000D03*
X148590000Y-109220000D03*
X148590000Y-110490000D03*
X148590000Y-111760000D03*
X148590000Y-113030000D03*
X148590000Y-114300000D03*
X148590000Y-115570000D03*
X148590000Y-116840000D03*
X138430000Y-116840000D03*
X138430000Y-115570000D03*
X138430000Y-114300000D03*
X138430000Y-113030000D03*
X138430000Y-111760000D03*
X138430000Y-110490000D03*
X138430000Y-109220000D03*
X138430000Y-107950000D03*
X138430000Y-106680000D03*
X138430000Y-105410000D03*
X138430000Y-104140000D03*
X138430000Y-102870000D03*
D22*
X95250000Y-124460000D03*
X95250000Y-74930000D03*
X193040000Y-124460000D03*
X193040000Y-74930000D03*
D23*
X92710000Y-100330000D03*
X135890000Y-100330000D03*
D24*
X193040000Y-124460000D02*
X194310000Y-124460000D01*
X194310000Y-124460000D02*
X195580000Y-123190000D01*
X195580000Y-123190000D02*
X195580000Y-90170000D01*
X95250000Y-74930000D02*
X97790000Y-72390000D01*
X146050000Y-72390000D02*
X146050000Y-76200000D01*
X97790000Y-72390000D02*
X146050000Y-72390000D01*
X191770000Y-90900000D02*
X194850000Y-90900000D01*
X195580000Y-77470000D02*
X193040000Y-74930000D01*
X195580000Y-90170000D02*
X195580000Y-77470000D01*
X194850000Y-90900000D02*
X195580000Y-90170000D01*
X146050000Y-76200000D02*
X191770000Y-76200000D01*
X191770000Y-76200000D02*
X193040000Y-74930000D01*
D25*
X148590000Y-116840000D02*
X151130000Y-116840000D01*
X151130000Y-116840000D02*
X151130000Y-127000000D01*
D24*
X143510000Y-124460000D02*
X143510000Y-127000000D01*
X138430000Y-97790000D02*
X138430000Y-91440000D01*
X137890000Y-90900000D02*
X134620000Y-90900000D01*
X138430000Y-91440000D02*
X137890000Y-90900000D01*
X193040000Y-124460000D02*
X190500000Y-127000000D01*
X124460000Y-127000000D02*
X124460000Y-124460000D01*
X190500000Y-127000000D02*
X151130000Y-127000000D01*
X151130000Y-127000000D02*
X143510000Y-127000000D01*
X143510000Y-127000000D02*
X124460000Y-127000000D01*
X95250000Y-124460000D02*
X124460000Y-124460000D01*
X124460000Y-124460000D02*
X124460000Y-114300000D01*
X185420000Y-90900000D02*
X191770000Y-90900000D01*
X179070000Y-90900000D02*
X185420000Y-90900000D01*
X172720000Y-90900000D02*
X179070000Y-90900000D01*
X166370000Y-90900000D02*
X172720000Y-90900000D01*
X160020000Y-90900000D02*
X166370000Y-90900000D01*
X153670000Y-90900000D02*
X160020000Y-90900000D01*
X147320000Y-90900000D02*
X153670000Y-90900000D01*
X140970000Y-90900000D02*
X147320000Y-90900000D01*
X134620000Y-90900000D02*
X140970000Y-90900000D01*
X128270000Y-90900000D02*
X134620000Y-90900000D01*
X121920000Y-90900000D02*
X128270000Y-90900000D01*
X115570000Y-90900000D02*
X121920000Y-90900000D01*
X109220000Y-90900000D02*
X115570000Y-90900000D01*
X102870000Y-90900000D02*
X109220000Y-90900000D01*
X96520000Y-90900000D02*
X102870000Y-90900000D01*
X96520000Y-76200000D02*
X95250000Y-74930000D01*
X138430000Y-100290000D02*
X135930000Y-100290000D01*
X92710000Y-100330000D02*
X92710000Y-88900000D01*
X135930000Y-100290000D02*
X135890000Y-100330000D01*
X140970000Y-76200000D02*
X99060000Y-76200000D01*
X92710000Y-82550000D02*
X92710000Y-88900000D01*
X99060000Y-76200000D02*
X92710000Y-82550000D01*
X92710000Y-88900000D02*
X96520000Y-88900000D01*
D25*
X138430000Y-100290000D02*
X138430000Y-102870000D01*
D24*
X102870000Y-88900000D02*
X96520000Y-88900000D01*
X109220000Y-88900000D02*
X102870000Y-88900000D01*
X115570000Y-88900000D02*
X109220000Y-88900000D01*
X121920000Y-88900000D02*
X115570000Y-88900000D01*
X128270000Y-88900000D02*
X121920000Y-88900000D01*
X134620000Y-88900000D02*
X128270000Y-88900000D01*
X140970000Y-88900000D02*
X134620000Y-88900000D01*
X147320000Y-88900000D02*
X140970000Y-88900000D01*
X153670000Y-88900000D02*
X147320000Y-88900000D01*
X160020000Y-88900000D02*
X153670000Y-88900000D01*
X166370000Y-88900000D02*
X160020000Y-88900000D01*
X172720000Y-88900000D02*
X166370000Y-88900000D01*
X179070000Y-88900000D02*
X172720000Y-88900000D01*
X185420000Y-88900000D02*
X179070000Y-88900000D01*
X191770000Y-88900000D02*
X185420000Y-88900000D01*
D25*
X146050000Y-121920000D02*
X146050000Y-120650000D01*
X146050000Y-114300000D02*
X148590000Y-114300000D01*
X144780000Y-115570000D02*
X146050000Y-114300000D01*
X144780000Y-119380000D02*
X144780000Y-115570000D01*
X146050000Y-120650000D02*
X144780000Y-119380000D01*
X146050000Y-124460000D02*
X147320000Y-124460000D01*
X147320000Y-115570000D02*
X148590000Y-115570000D01*
X146050000Y-116840000D02*
X147320000Y-115570000D01*
X146050000Y-118110000D02*
X146050000Y-116840000D01*
X148590000Y-120650000D02*
X146050000Y-118110000D01*
X148590000Y-123190000D02*
X148590000Y-120650000D01*
X147320000Y-124460000D02*
X148590000Y-123190000D01*
X148590000Y-102870000D02*
X146050000Y-102870000D01*
X143510000Y-105410000D02*
X143510000Y-121920000D01*
X146050000Y-102870000D02*
X143510000Y-105410000D01*
X140970000Y-121920000D02*
X139700000Y-121920000D01*
X138430000Y-120650000D02*
X138430000Y-116840000D01*
X139700000Y-121920000D02*
X138430000Y-120650000D01*
X140970000Y-124460000D02*
X137160000Y-124460000D01*
X135890000Y-115570000D02*
X138430000Y-115570000D01*
X134620000Y-116840000D02*
X135890000Y-115570000D01*
X134620000Y-121920000D02*
X134620000Y-116840000D01*
X137160000Y-124460000D02*
X134620000Y-121920000D01*
X148590000Y-113030000D02*
X185420000Y-113030000D01*
X191770000Y-106680000D02*
X191770000Y-92900000D01*
X185420000Y-113030000D02*
X191770000Y-106680000D01*
X148590000Y-111760000D02*
X179070000Y-111760000D01*
X185420000Y-105410000D02*
X185420000Y-92900000D01*
X179070000Y-111760000D02*
X185420000Y-105410000D01*
X148590000Y-110490000D02*
X172720000Y-110490000D01*
X179070000Y-104140000D02*
X179070000Y-92900000D01*
X172720000Y-110490000D02*
X179070000Y-104140000D01*
X148590000Y-109220000D02*
X166370000Y-109220000D01*
X172720000Y-102870000D02*
X172720000Y-92900000D01*
X166370000Y-109220000D02*
X172720000Y-102870000D01*
X148590000Y-107950000D02*
X161290000Y-107950000D01*
X166370000Y-102870000D02*
X166370000Y-92900000D01*
X161290000Y-107950000D02*
X166370000Y-102870000D01*
X148590000Y-106680000D02*
X157480000Y-106680000D01*
X160020000Y-104140000D02*
X160020000Y-92900000D01*
X157480000Y-106680000D02*
X160020000Y-104140000D01*
X148590000Y-105410000D02*
X152400000Y-105410000D01*
X153670000Y-104140000D02*
X153670000Y-92900000D01*
X152400000Y-105410000D02*
X153670000Y-104140000D01*
X148590000Y-104140000D02*
X149860000Y-104140000D01*
X147320000Y-96520000D02*
X147320000Y-92900000D01*
X148590000Y-97790000D02*
X147320000Y-96520000D01*
X149860000Y-97790000D02*
X148590000Y-97790000D01*
X151130000Y-99060000D02*
X149860000Y-97790000D01*
X151130000Y-102870000D02*
X151130000Y-99060000D01*
X149860000Y-104140000D02*
X151130000Y-102870000D01*
X140970000Y-92900000D02*
X140970000Y-102870000D01*
X139700000Y-104140000D02*
X138430000Y-104140000D01*
X140970000Y-102870000D02*
X139700000Y-104140000D01*
X138430000Y-105410000D02*
X137160000Y-105410000D01*
X134620000Y-102870000D02*
X134620000Y-92900000D01*
X137160000Y-105410000D02*
X134620000Y-102870000D01*
X138430000Y-106680000D02*
X130810000Y-106680000D01*
X128270000Y-104140000D02*
X128270000Y-92900000D01*
X130810000Y-106680000D02*
X128270000Y-104140000D01*
X138430000Y-107950000D02*
X127000000Y-107950000D01*
X121920000Y-102870000D02*
X121920000Y-92900000D01*
X127000000Y-107950000D02*
X121920000Y-102870000D01*
X138430000Y-109220000D02*
X121920000Y-109220000D01*
X115570000Y-102870000D02*
X115570000Y-92900000D01*
X121920000Y-109220000D02*
X115570000Y-102870000D01*
X138430000Y-110490000D02*
X116840000Y-110490000D01*
X109220000Y-102870000D02*
X109220000Y-92900000D01*
X116840000Y-110490000D02*
X109220000Y-102870000D01*
X138430000Y-111760000D02*
X110490000Y-111760000D01*
X102870000Y-104140000D02*
X102870000Y-92900000D01*
X110490000Y-111760000D02*
X102870000Y-104140000D01*
X138430000Y-113030000D02*
X105410000Y-113030000D01*
X96520000Y-104140000D02*
X96520000Y-92900000D01*
X105410000Y-113030000D02*
X96520000Y-104140000D01*
X132080000Y-114300000D02*
X138430000Y-114300000D01*
D26*
G36*
X196140000Y-127560000D02*
X92150000Y-127560000D01*
X92150000Y-126358121D01*
X93531484Y-126358121D01*
X93756154Y-126732168D01*
X94739388Y-127130880D01*
X95800357Y-127122975D01*
X96743846Y-126732168D01*
X96968516Y-126358121D01*
X191321484Y-126358121D01*
X191546154Y-126732168D01*
X192529388Y-127130880D01*
X193590357Y-127122975D01*
X194533846Y-126732168D01*
X194758516Y-126358121D01*
X193040000Y-124639605D01*
X191321484Y-126358121D01*
X96968516Y-126358121D01*
X95250000Y-124639605D01*
X93531484Y-126358121D01*
X92150000Y-126358121D01*
X92150000Y-123949388D01*
X92579120Y-123949388D01*
X92587025Y-125010357D01*
X92977832Y-125953846D01*
X93351879Y-126178516D01*
X95070395Y-124460000D01*
X95429605Y-124460000D01*
X97148121Y-126178516D01*
X97522168Y-125953846D01*
X97920880Y-124970612D01*
X97912975Y-123909643D01*
X97522168Y-122966154D01*
X97148121Y-122741484D01*
X95429605Y-124460000D01*
X95070395Y-124460000D01*
X93351879Y-122741484D01*
X92977832Y-122966154D01*
X92579120Y-123949388D01*
X92150000Y-123949388D01*
X92150000Y-122561879D01*
X93531484Y-122561879D01*
X95250000Y-124280395D01*
X96968516Y-122561879D01*
X96743846Y-122187832D01*
X95760612Y-121789120D01*
X94699643Y-121797025D01*
X93756154Y-122187832D01*
X93531484Y-122561879D01*
X92150000Y-122561879D01*
X92150000Y-115234188D01*
X123705417Y-115234188D01*
X123767071Y-115469800D01*
X124267480Y-115645927D01*
X124797199Y-115617148D01*
X125152929Y-115469800D01*
X125214583Y-115234188D01*
X124460000Y-114479605D01*
X123705417Y-115234188D01*
X92150000Y-115234188D01*
X92150000Y-101326427D01*
X92483244Y-101464803D01*
X92934775Y-101465197D01*
X93352086Y-101292767D01*
X93671645Y-100973765D01*
X93844803Y-100556756D01*
X93845197Y-100105225D01*
X93695000Y-99741722D01*
X93695000Y-92900000D01*
X95005907Y-92900000D01*
X95099916Y-93372614D01*
X95367630Y-93773277D01*
X95735000Y-94018745D01*
X95735000Y-104140000D01*
X95794755Y-104440407D01*
X95964921Y-104695079D01*
X104854921Y-113585079D01*
X105109594Y-113755245D01*
X105410000Y-113815001D01*
X105410005Y-113815000D01*
X123217016Y-113815000D01*
X123114073Y-114107480D01*
X123142852Y-114637199D01*
X123290200Y-114992929D01*
X123525812Y-115054583D01*
X124280395Y-114300000D01*
X124266253Y-114285858D01*
X124445858Y-114106253D01*
X124460000Y-114120395D01*
X124474143Y-114106253D01*
X124653748Y-114285858D01*
X124639605Y-114300000D01*
X125394188Y-115054583D01*
X125629800Y-114992929D01*
X125805927Y-114492520D01*
X125777148Y-113962801D01*
X125715927Y-113815000D01*
X130837497Y-113815000D01*
X130746732Y-114033587D01*
X130746269Y-114564086D01*
X130948854Y-115054380D01*
X131323647Y-115429827D01*
X131813587Y-115633268D01*
X132344086Y-115633731D01*
X132834380Y-115431146D01*
X133181130Y-115085000D01*
X135264842Y-115085000D01*
X134064921Y-116284921D01*
X133894755Y-116539593D01*
X133894755Y-116539594D01*
X133835000Y-116840000D01*
X133835000Y-121920000D01*
X133894755Y-122220407D01*
X134064921Y-122475079D01*
X136604921Y-125015079D01*
X136859594Y-125185245D01*
X137160000Y-125245000D01*
X139707184Y-125245000D01*
X139910330Y-125549029D01*
X140396511Y-125873885D01*
X140970000Y-125987959D01*
X141543489Y-125873885D01*
X142029670Y-125549029D01*
X142245664Y-125225772D01*
X142303179Y-125348490D01*
X142735053Y-125742688D01*
X143150974Y-125914958D01*
X143383000Y-125793817D01*
X143383000Y-124587000D01*
X143363000Y-124587000D01*
X143363000Y-124333000D01*
X143383000Y-124333000D01*
X143383000Y-124313000D01*
X143637000Y-124313000D01*
X143637000Y-124333000D01*
X143657000Y-124333000D01*
X143657000Y-124587000D01*
X143637000Y-124587000D01*
X143637000Y-125793817D01*
X143869026Y-125914958D01*
X144284947Y-125742688D01*
X144716821Y-125348490D01*
X144774336Y-125225772D01*
X144990330Y-125549029D01*
X145476511Y-125873885D01*
X146050000Y-125987959D01*
X146623489Y-125873885D01*
X147109670Y-125549029D01*
X147312816Y-125245000D01*
X147320000Y-125245000D01*
X147620407Y-125185245D01*
X147875079Y-125015079D01*
X149145079Y-123745079D01*
X149315245Y-123490407D01*
X149375000Y-123190000D01*
X149375000Y-123029750D01*
X169474761Y-123029750D01*
X169474761Y-125990250D01*
X189935240Y-125990250D01*
X189935240Y-123949388D01*
X190369120Y-123949388D01*
X190377025Y-125010357D01*
X190767832Y-125953846D01*
X191141879Y-126178516D01*
X192860395Y-124460000D01*
X193219605Y-124460000D01*
X194938121Y-126178516D01*
X195312168Y-125953846D01*
X195710880Y-124970612D01*
X195702975Y-123909643D01*
X195312168Y-122966154D01*
X194938121Y-122741484D01*
X193219605Y-124460000D01*
X192860395Y-124460000D01*
X191141879Y-122741484D01*
X190767832Y-122966154D01*
X190369120Y-123949388D01*
X189935240Y-123949388D01*
X189935240Y-123029750D01*
X169474761Y-123029750D01*
X149375000Y-123029750D01*
X149375000Y-122561879D01*
X191321484Y-122561879D01*
X193040000Y-124280395D01*
X194758516Y-122561879D01*
X194533846Y-122187832D01*
X193550612Y-121789120D01*
X192489643Y-121797025D01*
X191546154Y-122187832D01*
X191321484Y-122561879D01*
X149375000Y-122561879D01*
X149375000Y-120650000D01*
X149315245Y-120349594D01*
X149145079Y-120094921D01*
X146835000Y-117784842D01*
X146835000Y-117533026D01*
X146980302Y-117678327D01*
X147213691Y-117775000D01*
X148304250Y-117775000D01*
X148463000Y-117616250D01*
X148463000Y-116967000D01*
X148717000Y-116967000D01*
X148717000Y-117616250D01*
X148875750Y-117775000D01*
X149966309Y-117775000D01*
X150199698Y-117678327D01*
X150378327Y-117499699D01*
X150475000Y-117266310D01*
X150475000Y-117125750D01*
X150316250Y-116967000D01*
X148717000Y-116967000D01*
X148463000Y-116967000D01*
X148443000Y-116967000D01*
X148443000Y-116713000D01*
X148463000Y-116713000D01*
X148463000Y-116693000D01*
X148717000Y-116693000D01*
X148717000Y-116713000D01*
X150316250Y-116713000D01*
X150475000Y-116554250D01*
X150475000Y-116413690D01*
X150385194Y-116196878D01*
X150436431Y-116121890D01*
X150487440Y-115870000D01*
X150487440Y-115270000D01*
X150443162Y-115034683D01*
X150379322Y-114935472D01*
X150436431Y-114851890D01*
X150487440Y-114600000D01*
X150487440Y-114000000D01*
X150452630Y-113815000D01*
X185420000Y-113815000D01*
X185720407Y-113755245D01*
X185975079Y-113585079D01*
X192325079Y-107235079D01*
X192495245Y-106980407D01*
X192555000Y-106680000D01*
X192555000Y-94018745D01*
X192922370Y-93773277D01*
X193190084Y-93372614D01*
X193284093Y-92900000D01*
X193190084Y-92427386D01*
X192922370Y-92026723D01*
X192729109Y-91897590D01*
X192951933Y-91729125D01*
X193198286Y-91309376D01*
X193213462Y-91217609D01*
X193088731Y-91027000D01*
X191897000Y-91027000D01*
X191897000Y-91047000D01*
X191643000Y-91047000D01*
X191643000Y-91027000D01*
X190451269Y-91027000D01*
X190326538Y-91217609D01*
X190341714Y-91309376D01*
X190588067Y-91729125D01*
X190810891Y-91897590D01*
X190617630Y-92026723D01*
X190349916Y-92427386D01*
X190255907Y-92900000D01*
X190349916Y-93372614D01*
X190617630Y-93773277D01*
X190985000Y-94018745D01*
X190985000Y-106354842D01*
X185094842Y-112245000D01*
X179695158Y-112245000D01*
X185975079Y-105965079D01*
X186145245Y-105710407D01*
X186205000Y-105410000D01*
X186205000Y-94018745D01*
X186572370Y-93773277D01*
X186840084Y-93372614D01*
X186934093Y-92900000D01*
X186840084Y-92427386D01*
X186572370Y-92026723D01*
X186379109Y-91897590D01*
X186601933Y-91729125D01*
X186848286Y-91309376D01*
X186863462Y-91217609D01*
X186738731Y-91027000D01*
X185547000Y-91027000D01*
X185547000Y-91047000D01*
X185293000Y-91047000D01*
X185293000Y-91027000D01*
X184101269Y-91027000D01*
X183976538Y-91217609D01*
X183991714Y-91309376D01*
X184238067Y-91729125D01*
X184460891Y-91897590D01*
X184267630Y-92026723D01*
X183999916Y-92427386D01*
X183905907Y-92900000D01*
X183999916Y-93372614D01*
X184267630Y-93773277D01*
X184635000Y-94018745D01*
X184635000Y-105084842D01*
X178744842Y-110975000D01*
X173345158Y-110975000D01*
X179625079Y-104695079D01*
X179795245Y-104440407D01*
X179855000Y-104140000D01*
X179855000Y-94018745D01*
X180222370Y-93773277D01*
X180490084Y-93372614D01*
X180584093Y-92900000D01*
X180490084Y-92427386D01*
X180222370Y-92026723D01*
X180029109Y-91897590D01*
X180251933Y-91729125D01*
X180498286Y-91309376D01*
X180513462Y-91217609D01*
X180388731Y-91027000D01*
X179197000Y-91027000D01*
X179197000Y-91047000D01*
X178943000Y-91047000D01*
X178943000Y-91027000D01*
X177751269Y-91027000D01*
X177626538Y-91217609D01*
X177641714Y-91309376D01*
X177888067Y-91729125D01*
X178110891Y-91897590D01*
X177917630Y-92026723D01*
X177649916Y-92427386D01*
X177555907Y-92900000D01*
X177649916Y-93372614D01*
X177917630Y-93773277D01*
X178285000Y-94018745D01*
X178285000Y-103814842D01*
X172394842Y-109705000D01*
X166995158Y-109705000D01*
X173275079Y-103425079D01*
X173445245Y-103170407D01*
X173505000Y-102870000D01*
X173505000Y-94018745D01*
X173872370Y-93773277D01*
X174140084Y-93372614D01*
X174234093Y-92900000D01*
X174140084Y-92427386D01*
X173872370Y-92026723D01*
X173679109Y-91897590D01*
X173901933Y-91729125D01*
X174148286Y-91309376D01*
X174163462Y-91217609D01*
X174038731Y-91027000D01*
X172847000Y-91027000D01*
X172847000Y-91047000D01*
X172593000Y-91047000D01*
X172593000Y-91027000D01*
X171401269Y-91027000D01*
X171276538Y-91217609D01*
X171291714Y-91309376D01*
X171538067Y-91729125D01*
X171760891Y-91897590D01*
X171567630Y-92026723D01*
X171299916Y-92427386D01*
X171205907Y-92900000D01*
X171299916Y-93372614D01*
X171567630Y-93773277D01*
X171935000Y-94018745D01*
X171935000Y-102544842D01*
X166044842Y-108435000D01*
X161915158Y-108435000D01*
X166925079Y-103425079D01*
X167095245Y-103170406D01*
X167155000Y-102870000D01*
X167155000Y-94018745D01*
X167522370Y-93773277D01*
X167790084Y-93372614D01*
X167884093Y-92900000D01*
X167790084Y-92427386D01*
X167522370Y-92026723D01*
X167329109Y-91897590D01*
X167551933Y-91729125D01*
X167798286Y-91309376D01*
X167813462Y-91217609D01*
X167688731Y-91027000D01*
X166497000Y-91027000D01*
X166497000Y-91047000D01*
X166243000Y-91047000D01*
X166243000Y-91027000D01*
X165051269Y-91027000D01*
X164926538Y-91217609D01*
X164941714Y-91309376D01*
X165188067Y-91729125D01*
X165410891Y-91897590D01*
X165217630Y-92026723D01*
X164949916Y-92427386D01*
X164855907Y-92900000D01*
X164949916Y-93372614D01*
X165217630Y-93773277D01*
X165585000Y-94018745D01*
X165585000Y-102544842D01*
X160964842Y-107165000D01*
X158105158Y-107165000D01*
X160575079Y-104695079D01*
X160745244Y-104440407D01*
X160745245Y-104440406D01*
X160805000Y-104140000D01*
X160805000Y-94018745D01*
X161172370Y-93773277D01*
X161440084Y-93372614D01*
X161534093Y-92900000D01*
X161440084Y-92427386D01*
X161172370Y-92026723D01*
X160979109Y-91897590D01*
X161201933Y-91729125D01*
X161448286Y-91309376D01*
X161463462Y-91217609D01*
X161338731Y-91027000D01*
X160147000Y-91027000D01*
X160147000Y-91047000D01*
X159893000Y-91047000D01*
X159893000Y-91027000D01*
X158701269Y-91027000D01*
X158576538Y-91217609D01*
X158591714Y-91309376D01*
X158838067Y-91729125D01*
X159060891Y-91897590D01*
X158867630Y-92026723D01*
X158599916Y-92427386D01*
X158505907Y-92900000D01*
X158599916Y-93372614D01*
X158867630Y-93773277D01*
X159235000Y-94018745D01*
X159235000Y-103814842D01*
X157154842Y-105895000D01*
X153025158Y-105895000D01*
X154225079Y-104695079D01*
X154395245Y-104440407D01*
X154455000Y-104140000D01*
X154455000Y-94018745D01*
X154822370Y-93773277D01*
X155090084Y-93372614D01*
X155184093Y-92900000D01*
X155090084Y-92427386D01*
X154822370Y-92026723D01*
X154629109Y-91897590D01*
X154851933Y-91729125D01*
X155098286Y-91309376D01*
X155113462Y-91217609D01*
X154988731Y-91027000D01*
X153797000Y-91027000D01*
X153797000Y-91047000D01*
X153543000Y-91047000D01*
X153543000Y-91027000D01*
X152351269Y-91027000D01*
X152226538Y-91217609D01*
X152241714Y-91309376D01*
X152488067Y-91729125D01*
X152710891Y-91897590D01*
X152517630Y-92026723D01*
X152249916Y-92427386D01*
X152155907Y-92900000D01*
X152249916Y-93372614D01*
X152517630Y-93773277D01*
X152885000Y-94018745D01*
X152885000Y-103814842D01*
X152074842Y-104625000D01*
X150485158Y-104625000D01*
X151685079Y-103425079D01*
X151855245Y-103170407D01*
X151915000Y-102870000D01*
X151915000Y-99060000D01*
X151855245Y-98759594D01*
X151855245Y-98759593D01*
X151685079Y-98504921D01*
X150415079Y-97234921D01*
X150160407Y-97064755D01*
X149860000Y-97005000D01*
X148915158Y-97005000D01*
X148105000Y-96194842D01*
X148105000Y-94018745D01*
X148472370Y-93773277D01*
X148740084Y-93372614D01*
X148834093Y-92900000D01*
X148740084Y-92427386D01*
X148472370Y-92026723D01*
X148279109Y-91897590D01*
X148501933Y-91729125D01*
X148748286Y-91309376D01*
X148763462Y-91217609D01*
X148638731Y-91027000D01*
X147447000Y-91027000D01*
X147447000Y-91047000D01*
X147193000Y-91047000D01*
X147193000Y-91027000D01*
X146001269Y-91027000D01*
X145876538Y-91217609D01*
X145891714Y-91309376D01*
X146138067Y-91729125D01*
X146360891Y-91897590D01*
X146167630Y-92026723D01*
X145899916Y-92427386D01*
X145805907Y-92900000D01*
X145899916Y-93372614D01*
X146167630Y-93773277D01*
X146535000Y-94018745D01*
X146535000Y-96520000D01*
X146594755Y-96820407D01*
X146764921Y-97075079D01*
X148034921Y-98345079D01*
X148289593Y-98515245D01*
X148590000Y-98575000D01*
X149534842Y-98575000D01*
X150345000Y-99385158D01*
X150345000Y-102182135D01*
X150304090Y-102118559D01*
X150091890Y-101973569D01*
X149840000Y-101922560D01*
X147340000Y-101922560D01*
X147104683Y-101966838D01*
X146921054Y-102085000D01*
X146050000Y-102085000D01*
X145749594Y-102144755D01*
X145749592Y-102144756D01*
X145749593Y-102144756D01*
X145494921Y-102314921D01*
X142954921Y-104854921D01*
X142784755Y-105109593D01*
X142784755Y-105109594D01*
X142725000Y-105410000D01*
X142725000Y-120647442D01*
X142450330Y-120830971D01*
X142240000Y-121145752D01*
X142029670Y-120830971D01*
X141543489Y-120506115D01*
X140970000Y-120392041D01*
X140396511Y-120506115D01*
X139910330Y-120830971D01*
X139834547Y-120944389D01*
X139215000Y-120324842D01*
X139215000Y-117787440D01*
X139680000Y-117787440D01*
X139915317Y-117743162D01*
X140131441Y-117604090D01*
X140276431Y-117391890D01*
X140327440Y-117140000D01*
X140327440Y-116540000D01*
X140283162Y-116304683D01*
X140219322Y-116205472D01*
X140276431Y-116121890D01*
X140327440Y-115870000D01*
X140327440Y-115270000D01*
X140283162Y-115034683D01*
X140219322Y-114935472D01*
X140276431Y-114851890D01*
X140327440Y-114600000D01*
X140327440Y-114000000D01*
X140283162Y-113764683D01*
X140219322Y-113665472D01*
X140276431Y-113581890D01*
X140327440Y-113330000D01*
X140327440Y-112730000D01*
X140283162Y-112494683D01*
X140219322Y-112395472D01*
X140276431Y-112311890D01*
X140327440Y-112060000D01*
X140327440Y-111460000D01*
X140283162Y-111224683D01*
X140219322Y-111125472D01*
X140276431Y-111041890D01*
X140327440Y-110790000D01*
X140327440Y-110190000D01*
X140283162Y-109954683D01*
X140219322Y-109855472D01*
X140276431Y-109771890D01*
X140327440Y-109520000D01*
X140327440Y-108920000D01*
X140283162Y-108684683D01*
X140219322Y-108585472D01*
X140276431Y-108501890D01*
X140327440Y-108250000D01*
X140327440Y-107650000D01*
X140283162Y-107414683D01*
X140219322Y-107315472D01*
X140276431Y-107231890D01*
X140327440Y-106980000D01*
X140327440Y-106380000D01*
X140283162Y-106144683D01*
X140219322Y-106045472D01*
X140276431Y-105961890D01*
X140327440Y-105710000D01*
X140327440Y-105110000D01*
X140283162Y-104874683D01*
X140219322Y-104775472D01*
X140276431Y-104691890D01*
X140281043Y-104669115D01*
X141525079Y-103425079D01*
X141695245Y-103170407D01*
X141755000Y-102870000D01*
X141755000Y-94018745D01*
X142122370Y-93773277D01*
X142390084Y-93372614D01*
X142484093Y-92900000D01*
X142390084Y-92427386D01*
X142122370Y-92026723D01*
X141929109Y-91897590D01*
X142151933Y-91729125D01*
X142398286Y-91309376D01*
X142413462Y-91217609D01*
X142288731Y-91027000D01*
X141097000Y-91027000D01*
X141097000Y-91047000D01*
X140843000Y-91047000D01*
X140843000Y-91027000D01*
X139651269Y-91027000D01*
X139526538Y-91217609D01*
X139541714Y-91309376D01*
X139788067Y-91729125D01*
X140010891Y-91897590D01*
X139817630Y-92026723D01*
X139549916Y-92427386D01*
X139455907Y-92900000D01*
X139549916Y-93372614D01*
X139817630Y-93773277D01*
X140185000Y-94018745D01*
X140185000Y-102182135D01*
X140144090Y-102118559D01*
X139931890Y-101973569D01*
X139680000Y-101922560D01*
X139215000Y-101922560D01*
X139215000Y-101322049D01*
X139518735Y-101018845D01*
X139714777Y-100546724D01*
X139715223Y-100035519D01*
X139520005Y-99563057D01*
X139158845Y-99201265D01*
X138854765Y-99075000D01*
X139206310Y-99075000D01*
X139439699Y-98978327D01*
X139618327Y-98799698D01*
X139715000Y-98566309D01*
X139715000Y-98075750D01*
X139556250Y-97917000D01*
X138557000Y-97917000D01*
X138557000Y-97937000D01*
X138303000Y-97937000D01*
X138303000Y-97917000D01*
X137303750Y-97917000D01*
X137145000Y-98075750D01*
X137145000Y-98566309D01*
X137241673Y-98799698D01*
X137420301Y-98978327D01*
X137653690Y-99075000D01*
X138005567Y-99075000D01*
X137703057Y-99199995D01*
X137597868Y-99305000D01*
X136381190Y-99305000D01*
X136116756Y-99195197D01*
X135665225Y-99194803D01*
X135405000Y-99302326D01*
X135405000Y-97013691D01*
X137145000Y-97013691D01*
X137145000Y-97504250D01*
X137303750Y-97663000D01*
X138303000Y-97663000D01*
X138303000Y-96663750D01*
X138557000Y-96663750D01*
X138557000Y-97663000D01*
X139556250Y-97663000D01*
X139715000Y-97504250D01*
X139715000Y-97013691D01*
X139618327Y-96780302D01*
X139439699Y-96601673D01*
X139206310Y-96505000D01*
X138715750Y-96505000D01*
X138557000Y-96663750D01*
X138303000Y-96663750D01*
X138144250Y-96505000D01*
X137653690Y-96505000D01*
X137420301Y-96601673D01*
X137241673Y-96780302D01*
X137145000Y-97013691D01*
X135405000Y-97013691D01*
X135405000Y-94018745D01*
X135772370Y-93773277D01*
X136040084Y-93372614D01*
X136134093Y-92900000D01*
X136040084Y-92427386D01*
X135772370Y-92026723D01*
X135579109Y-91897590D01*
X135801933Y-91729125D01*
X136048286Y-91309376D01*
X136063462Y-91217609D01*
X135938731Y-91027000D01*
X134747000Y-91027000D01*
X134747000Y-91047000D01*
X134493000Y-91047000D01*
X134493000Y-91027000D01*
X133301269Y-91027000D01*
X133176538Y-91217609D01*
X133191714Y-91309376D01*
X133438067Y-91729125D01*
X133660891Y-91897590D01*
X133467630Y-92026723D01*
X133199916Y-92427386D01*
X133105907Y-92900000D01*
X133199916Y-93372614D01*
X133467630Y-93773277D01*
X133835000Y-94018745D01*
X133835000Y-102870000D01*
X133894755Y-103170407D01*
X134064921Y-103425079D01*
X136534842Y-105895000D01*
X131135158Y-105895000D01*
X129055000Y-103814842D01*
X129055000Y-94018745D01*
X129422370Y-93773277D01*
X129690084Y-93372614D01*
X129784093Y-92900000D01*
X129690084Y-92427386D01*
X129422370Y-92026723D01*
X129229109Y-91897590D01*
X129451933Y-91729125D01*
X129698286Y-91309376D01*
X129713462Y-91217609D01*
X129588731Y-91027000D01*
X128397000Y-91027000D01*
X128397000Y-91047000D01*
X128143000Y-91047000D01*
X128143000Y-91027000D01*
X126951269Y-91027000D01*
X126826538Y-91217609D01*
X126841714Y-91309376D01*
X127088067Y-91729125D01*
X127310891Y-91897590D01*
X127117630Y-92026723D01*
X126849916Y-92427386D01*
X126755907Y-92900000D01*
X126849916Y-93372614D01*
X127117630Y-93773277D01*
X127485000Y-94018745D01*
X127485000Y-104140000D01*
X127544755Y-104440407D01*
X127714921Y-104695079D01*
X130184842Y-107165000D01*
X127325158Y-107165000D01*
X122705000Y-102544842D01*
X122705000Y-94018745D01*
X123072370Y-93773277D01*
X123340084Y-93372614D01*
X123434093Y-92900000D01*
X123340084Y-92427386D01*
X123072370Y-92026723D01*
X122879109Y-91897590D01*
X123101933Y-91729125D01*
X123348286Y-91309376D01*
X123363462Y-91217609D01*
X123238731Y-91027000D01*
X122047000Y-91027000D01*
X122047000Y-91047000D01*
X121793000Y-91047000D01*
X121793000Y-91027000D01*
X120601269Y-91027000D01*
X120476538Y-91217609D01*
X120491714Y-91309376D01*
X120738067Y-91729125D01*
X120960891Y-91897590D01*
X120767630Y-92026723D01*
X120499916Y-92427386D01*
X120405907Y-92900000D01*
X120499916Y-93372614D01*
X120767630Y-93773277D01*
X121135000Y-94018745D01*
X121135000Y-102870000D01*
X121194755Y-103170407D01*
X121364921Y-103425079D01*
X126374842Y-108435000D01*
X122245158Y-108435000D01*
X116355000Y-102544842D01*
X116355000Y-94018745D01*
X116722370Y-93773277D01*
X116990084Y-93372614D01*
X117084093Y-92900000D01*
X116990084Y-92427386D01*
X116722370Y-92026723D01*
X116529109Y-91897590D01*
X116751933Y-91729125D01*
X116998286Y-91309376D01*
X117013462Y-91217609D01*
X116888731Y-91027000D01*
X115697000Y-91027000D01*
X115697000Y-91047000D01*
X115443000Y-91047000D01*
X115443000Y-91027000D01*
X114251269Y-91027000D01*
X114126538Y-91217609D01*
X114141714Y-91309376D01*
X114388067Y-91729125D01*
X114610891Y-91897590D01*
X114417630Y-92026723D01*
X114149916Y-92427386D01*
X114055907Y-92900000D01*
X114149916Y-93372614D01*
X114417630Y-93773277D01*
X114785000Y-94018745D01*
X114785000Y-102870000D01*
X114844755Y-103170407D01*
X115014921Y-103425079D01*
X121294842Y-109705000D01*
X117165158Y-109705000D01*
X110005000Y-102544842D01*
X110005000Y-94018745D01*
X110372370Y-93773277D01*
X110640084Y-93372614D01*
X110734093Y-92900000D01*
X110640084Y-92427386D01*
X110372370Y-92026723D01*
X110179109Y-91897590D01*
X110401933Y-91729125D01*
X110648286Y-91309376D01*
X110663462Y-91217609D01*
X110538731Y-91027000D01*
X109347000Y-91027000D01*
X109347000Y-91047000D01*
X109093000Y-91047000D01*
X109093000Y-91027000D01*
X107901269Y-91027000D01*
X107776538Y-91217609D01*
X107791714Y-91309376D01*
X108038067Y-91729125D01*
X108260891Y-91897590D01*
X108067630Y-92026723D01*
X107799916Y-92427386D01*
X107705907Y-92900000D01*
X107799916Y-93372614D01*
X108067630Y-93773277D01*
X108435000Y-94018745D01*
X108435000Y-102870000D01*
X108494755Y-103170407D01*
X108664921Y-103425079D01*
X116214842Y-110975000D01*
X110815158Y-110975000D01*
X103655000Y-103814842D01*
X103655000Y-94018745D01*
X104022370Y-93773277D01*
X104290084Y-93372614D01*
X104384093Y-92900000D01*
X104290084Y-92427386D01*
X104022370Y-92026723D01*
X103829109Y-91897590D01*
X104051933Y-91729125D01*
X104298286Y-91309376D01*
X104313462Y-91217609D01*
X104188731Y-91027000D01*
X102997000Y-91027000D01*
X102997000Y-91047000D01*
X102743000Y-91047000D01*
X102743000Y-91027000D01*
X101551269Y-91027000D01*
X101426538Y-91217609D01*
X101441714Y-91309376D01*
X101688067Y-91729125D01*
X101910891Y-91897590D01*
X101717630Y-92026723D01*
X101449916Y-92427386D01*
X101355907Y-92900000D01*
X101449916Y-93372614D01*
X101717630Y-93773277D01*
X102085000Y-94018745D01*
X102085000Y-104140000D01*
X102144755Y-104440407D01*
X102314921Y-104695079D01*
X109864842Y-112245000D01*
X105735158Y-112245000D01*
X97305000Y-103814842D01*
X97305000Y-94018745D01*
X97672370Y-93773277D01*
X97940084Y-93372614D01*
X98034093Y-92900000D01*
X97940084Y-92427386D01*
X97672370Y-92026723D01*
X97479109Y-91897590D01*
X97701933Y-91729125D01*
X97948286Y-91309376D01*
X97963462Y-91217609D01*
X97838731Y-91027000D01*
X96647000Y-91027000D01*
X96647000Y-91047000D01*
X96393000Y-91047000D01*
X96393000Y-91027000D01*
X95201269Y-91027000D01*
X95076538Y-91217609D01*
X95091714Y-91309376D01*
X95338067Y-91729125D01*
X95560891Y-91897590D01*
X95367630Y-92026723D01*
X95099916Y-92427386D01*
X95005907Y-92900000D01*
X93695000Y-92900000D01*
X93695000Y-89885000D01*
X95163156Y-89885000D01*
X95205910Y-89951441D01*
X95358309Y-90055571D01*
X95338067Y-90070875D01*
X95091714Y-90490624D01*
X95076538Y-90582391D01*
X95201269Y-90773000D01*
X96393000Y-90773000D01*
X96393000Y-90753000D01*
X96647000Y-90753000D01*
X96647000Y-90773000D01*
X97838731Y-90773000D01*
X97963462Y-90582391D01*
X97948286Y-90490624D01*
X97701933Y-90070875D01*
X97680580Y-90054731D01*
X97821441Y-89964090D01*
X97875481Y-89885000D01*
X101513156Y-89885000D01*
X101555910Y-89951441D01*
X101708309Y-90055571D01*
X101688067Y-90070875D01*
X101441714Y-90490624D01*
X101426538Y-90582391D01*
X101551269Y-90773000D01*
X102743000Y-90773000D01*
X102743000Y-90753000D01*
X102997000Y-90753000D01*
X102997000Y-90773000D01*
X104188731Y-90773000D01*
X104313462Y-90582391D01*
X104298286Y-90490624D01*
X104051933Y-90070875D01*
X104030580Y-90054731D01*
X104171441Y-89964090D01*
X104225481Y-89885000D01*
X107863156Y-89885000D01*
X107905910Y-89951441D01*
X108058309Y-90055571D01*
X108038067Y-90070875D01*
X107791714Y-90490624D01*
X107776538Y-90582391D01*
X107901269Y-90773000D01*
X109093000Y-90773000D01*
X109093000Y-90753000D01*
X109347000Y-90753000D01*
X109347000Y-90773000D01*
X110538731Y-90773000D01*
X110663462Y-90582391D01*
X110648286Y-90490624D01*
X110401933Y-90070875D01*
X110380580Y-90054731D01*
X110521441Y-89964090D01*
X110575481Y-89885000D01*
X114213156Y-89885000D01*
X114255910Y-89951441D01*
X114408309Y-90055571D01*
X114388067Y-90070875D01*
X114141714Y-90490624D01*
X114126538Y-90582391D01*
X114251269Y-90773000D01*
X115443000Y-90773000D01*
X115443000Y-90753000D01*
X115697000Y-90753000D01*
X115697000Y-90773000D01*
X116888731Y-90773000D01*
X117013462Y-90582391D01*
X116998286Y-90490624D01*
X116751933Y-90070875D01*
X116730580Y-90054731D01*
X116871441Y-89964090D01*
X116925481Y-89885000D01*
X120563156Y-89885000D01*
X120605910Y-89951441D01*
X120758309Y-90055571D01*
X120738067Y-90070875D01*
X120491714Y-90490624D01*
X120476538Y-90582391D01*
X120601269Y-90773000D01*
X121793000Y-90773000D01*
X121793000Y-90753000D01*
X122047000Y-90753000D01*
X122047000Y-90773000D01*
X123238731Y-90773000D01*
X123363462Y-90582391D01*
X123348286Y-90490624D01*
X123101933Y-90070875D01*
X123080580Y-90054731D01*
X123221441Y-89964090D01*
X123275481Y-89885000D01*
X126913156Y-89885000D01*
X126955910Y-89951441D01*
X127108309Y-90055571D01*
X127088067Y-90070875D01*
X126841714Y-90490624D01*
X126826538Y-90582391D01*
X126951269Y-90773000D01*
X128143000Y-90773000D01*
X128143000Y-90753000D01*
X128397000Y-90753000D01*
X128397000Y-90773000D01*
X129588731Y-90773000D01*
X129713462Y-90582391D01*
X129698286Y-90490624D01*
X129451933Y-90070875D01*
X129430580Y-90054731D01*
X129571441Y-89964090D01*
X129625481Y-89885000D01*
X133263156Y-89885000D01*
X133305910Y-89951441D01*
X133458309Y-90055571D01*
X133438067Y-90070875D01*
X133191714Y-90490624D01*
X133176538Y-90582391D01*
X133301269Y-90773000D01*
X134493000Y-90773000D01*
X134493000Y-90753000D01*
X134747000Y-90753000D01*
X134747000Y-90773000D01*
X135938731Y-90773000D01*
X136063462Y-90582391D01*
X136048286Y-90490624D01*
X135801933Y-90070875D01*
X135780580Y-90054731D01*
X135921441Y-89964090D01*
X135975481Y-89885000D01*
X139613156Y-89885000D01*
X139655910Y-89951441D01*
X139808309Y-90055571D01*
X139788067Y-90070875D01*
X139541714Y-90490624D01*
X139526538Y-90582391D01*
X139651269Y-90773000D01*
X140843000Y-90773000D01*
X140843000Y-90753000D01*
X141097000Y-90753000D01*
X141097000Y-90773000D01*
X142288731Y-90773000D01*
X142413462Y-90582391D01*
X142398286Y-90490624D01*
X142151933Y-90070875D01*
X142130580Y-90054731D01*
X142271441Y-89964090D01*
X142325481Y-89885000D01*
X145963156Y-89885000D01*
X146005910Y-89951441D01*
X146158309Y-90055571D01*
X146138067Y-90070875D01*
X145891714Y-90490624D01*
X145876538Y-90582391D01*
X146001269Y-90773000D01*
X147193000Y-90773000D01*
X147193000Y-90753000D01*
X147447000Y-90753000D01*
X147447000Y-90773000D01*
X148638731Y-90773000D01*
X148763462Y-90582391D01*
X148748286Y-90490624D01*
X148501933Y-90070875D01*
X148480580Y-90054731D01*
X148621441Y-89964090D01*
X148675481Y-89885000D01*
X152313156Y-89885000D01*
X152355910Y-89951441D01*
X152508309Y-90055571D01*
X152488067Y-90070875D01*
X152241714Y-90490624D01*
X152226538Y-90582391D01*
X152351269Y-90773000D01*
X153543000Y-90773000D01*
X153543000Y-90753000D01*
X153797000Y-90753000D01*
X153797000Y-90773000D01*
X154988731Y-90773000D01*
X155113462Y-90582391D01*
X155098286Y-90490624D01*
X154851933Y-90070875D01*
X154830580Y-90054731D01*
X154971441Y-89964090D01*
X155025481Y-89885000D01*
X158663156Y-89885000D01*
X158705910Y-89951441D01*
X158858309Y-90055571D01*
X158838067Y-90070875D01*
X158591714Y-90490624D01*
X158576538Y-90582391D01*
X158701269Y-90773000D01*
X159893000Y-90773000D01*
X159893000Y-90753000D01*
X160147000Y-90753000D01*
X160147000Y-90773000D01*
X161338731Y-90773000D01*
X161463462Y-90582391D01*
X161448286Y-90490624D01*
X161201933Y-90070875D01*
X161180580Y-90054731D01*
X161321441Y-89964090D01*
X161375481Y-89885000D01*
X165013156Y-89885000D01*
X165055910Y-89951441D01*
X165208309Y-90055571D01*
X165188067Y-90070875D01*
X164941714Y-90490624D01*
X164926538Y-90582391D01*
X165051269Y-90773000D01*
X166243000Y-90773000D01*
X166243000Y-90753000D01*
X166497000Y-90753000D01*
X166497000Y-90773000D01*
X167688731Y-90773000D01*
X167813462Y-90582391D01*
X167798286Y-90490624D01*
X167551933Y-90070875D01*
X167530580Y-90054731D01*
X167671441Y-89964090D01*
X167725481Y-89885000D01*
X171363156Y-89885000D01*
X171405910Y-89951441D01*
X171558309Y-90055571D01*
X171538067Y-90070875D01*
X171291714Y-90490624D01*
X171276538Y-90582391D01*
X171401269Y-90773000D01*
X172593000Y-90773000D01*
X172593000Y-90753000D01*
X172847000Y-90753000D01*
X172847000Y-90773000D01*
X174038731Y-90773000D01*
X174163462Y-90582391D01*
X174148286Y-90490624D01*
X173901933Y-90070875D01*
X173880580Y-90054731D01*
X174021441Y-89964090D01*
X174075481Y-89885000D01*
X177713156Y-89885000D01*
X177755910Y-89951441D01*
X177908309Y-90055571D01*
X177888067Y-90070875D01*
X177641714Y-90490624D01*
X177626538Y-90582391D01*
X177751269Y-90773000D01*
X178943000Y-90773000D01*
X178943000Y-90753000D01*
X179197000Y-90753000D01*
X179197000Y-90773000D01*
X180388731Y-90773000D01*
X180513462Y-90582391D01*
X180498286Y-90490624D01*
X180251933Y-90070875D01*
X180230580Y-90054731D01*
X180371441Y-89964090D01*
X180425481Y-89885000D01*
X184063156Y-89885000D01*
X184105910Y-89951441D01*
X184258309Y-90055571D01*
X184238067Y-90070875D01*
X183991714Y-90490624D01*
X183976538Y-90582391D01*
X184101269Y-90773000D01*
X185293000Y-90773000D01*
X185293000Y-90753000D01*
X185547000Y-90753000D01*
X185547000Y-90773000D01*
X186738731Y-90773000D01*
X186863462Y-90582391D01*
X186848286Y-90490624D01*
X186601933Y-90070875D01*
X186580580Y-90054731D01*
X186721441Y-89964090D01*
X186775481Y-89885000D01*
X190413156Y-89885000D01*
X190455910Y-89951441D01*
X190608309Y-90055571D01*
X190588067Y-90070875D01*
X190341714Y-90490624D01*
X190326538Y-90582391D01*
X190451269Y-90773000D01*
X191643000Y-90773000D01*
X191643000Y-90753000D01*
X191897000Y-90753000D01*
X191897000Y-90773000D01*
X193088731Y-90773000D01*
X193213462Y-90582391D01*
X193198286Y-90490624D01*
X192951933Y-90070875D01*
X192930580Y-90054731D01*
X193071441Y-89964090D01*
X193216431Y-89751890D01*
X193267440Y-89500000D01*
X193267440Y-88300000D01*
X193223162Y-88064683D01*
X193084090Y-87848559D01*
X192871890Y-87703569D01*
X192620000Y-87652560D01*
X190920000Y-87652560D01*
X190684683Y-87696838D01*
X190468559Y-87835910D01*
X190414519Y-87915000D01*
X186776844Y-87915000D01*
X186734090Y-87848559D01*
X186521890Y-87703569D01*
X186270000Y-87652560D01*
X184570000Y-87652560D01*
X184334683Y-87696838D01*
X184118559Y-87835910D01*
X184064519Y-87915000D01*
X180426844Y-87915000D01*
X180384090Y-87848559D01*
X180171890Y-87703569D01*
X179920000Y-87652560D01*
X178220000Y-87652560D01*
X177984683Y-87696838D01*
X177768559Y-87835910D01*
X177714519Y-87915000D01*
X174076844Y-87915000D01*
X174034090Y-87848559D01*
X173821890Y-87703569D01*
X173570000Y-87652560D01*
X171870000Y-87652560D01*
X171634683Y-87696838D01*
X171418559Y-87835910D01*
X171364519Y-87915000D01*
X167726844Y-87915000D01*
X167684090Y-87848559D01*
X167471890Y-87703569D01*
X167220000Y-87652560D01*
X165520000Y-87652560D01*
X165284683Y-87696838D01*
X165068559Y-87835910D01*
X165014519Y-87915000D01*
X161376844Y-87915000D01*
X161334090Y-87848559D01*
X161121890Y-87703569D01*
X160870000Y-87652560D01*
X159170000Y-87652560D01*
X158934683Y-87696838D01*
X158718559Y-87835910D01*
X158664519Y-87915000D01*
X155026844Y-87915000D01*
X154984090Y-87848559D01*
X154771890Y-87703569D01*
X154520000Y-87652560D01*
X152820000Y-87652560D01*
X152584683Y-87696838D01*
X152368559Y-87835910D01*
X152314519Y-87915000D01*
X148676844Y-87915000D01*
X148634090Y-87848559D01*
X148421890Y-87703569D01*
X148170000Y-87652560D01*
X146470000Y-87652560D01*
X146234683Y-87696838D01*
X146018559Y-87835910D01*
X145964519Y-87915000D01*
X142326844Y-87915000D01*
X142284090Y-87848559D01*
X142071890Y-87703569D01*
X141820000Y-87652560D01*
X140120000Y-87652560D01*
X139884683Y-87696838D01*
X139668559Y-87835910D01*
X139614519Y-87915000D01*
X135976844Y-87915000D01*
X135934090Y-87848559D01*
X135721890Y-87703569D01*
X135470000Y-87652560D01*
X133770000Y-87652560D01*
X133534683Y-87696838D01*
X133318559Y-87835910D01*
X133264519Y-87915000D01*
X129626844Y-87915000D01*
X129584090Y-87848559D01*
X129371890Y-87703569D01*
X129120000Y-87652560D01*
X127420000Y-87652560D01*
X127184683Y-87696838D01*
X126968559Y-87835910D01*
X126914519Y-87915000D01*
X123276844Y-87915000D01*
X123234090Y-87848559D01*
X123021890Y-87703569D01*
X122770000Y-87652560D01*
X121070000Y-87652560D01*
X120834683Y-87696838D01*
X120618559Y-87835910D01*
X120564519Y-87915000D01*
X116926844Y-87915000D01*
X116884090Y-87848559D01*
X116671890Y-87703569D01*
X116420000Y-87652560D01*
X114720000Y-87652560D01*
X114484683Y-87696838D01*
X114268559Y-87835910D01*
X114214519Y-87915000D01*
X110576844Y-87915000D01*
X110534090Y-87848559D01*
X110321890Y-87703569D01*
X110070000Y-87652560D01*
X108370000Y-87652560D01*
X108134683Y-87696838D01*
X107918559Y-87835910D01*
X107864519Y-87915000D01*
X104226844Y-87915000D01*
X104184090Y-87848559D01*
X103971890Y-87703569D01*
X103720000Y-87652560D01*
X102020000Y-87652560D01*
X101784683Y-87696838D01*
X101568559Y-87835910D01*
X101514519Y-87915000D01*
X97876844Y-87915000D01*
X97834090Y-87848559D01*
X97621890Y-87703569D01*
X97370000Y-87652560D01*
X95670000Y-87652560D01*
X95434683Y-87696838D01*
X95218559Y-87835910D01*
X95164519Y-87915000D01*
X93695000Y-87915000D01*
X93695000Y-82958000D01*
X99468000Y-77185000D01*
X139315781Y-77185000D01*
X139354078Y-77277686D01*
X139889495Y-77814039D01*
X140589410Y-78104668D01*
X141347265Y-78105330D01*
X142047686Y-77815922D01*
X142584039Y-77280505D01*
X142874668Y-76580590D01*
X142874750Y-76485750D01*
X144145000Y-76485750D01*
X144145000Y-77596310D01*
X144241673Y-77829699D01*
X144420302Y-78008327D01*
X144653691Y-78105000D01*
X145764250Y-78105000D01*
X145923000Y-77946250D01*
X145923000Y-76327000D01*
X146177000Y-76327000D01*
X146177000Y-77946250D01*
X146335750Y-78105000D01*
X147446309Y-78105000D01*
X147679698Y-78008327D01*
X147858327Y-77829699D01*
X147955000Y-77596310D01*
X147955000Y-76828121D01*
X191321484Y-76828121D01*
X191546154Y-77202168D01*
X192529388Y-77600880D01*
X193590357Y-77592975D01*
X194533846Y-77202168D01*
X194758516Y-76828121D01*
X193040000Y-75109605D01*
X191321484Y-76828121D01*
X147955000Y-76828121D01*
X147955000Y-76485750D01*
X147796250Y-76327000D01*
X146177000Y-76327000D01*
X145923000Y-76327000D01*
X144303750Y-76327000D01*
X144145000Y-76485750D01*
X142874750Y-76485750D01*
X142875330Y-75822735D01*
X142585922Y-75122314D01*
X142267855Y-74803690D01*
X144145000Y-74803690D01*
X144145000Y-75914250D01*
X144303750Y-76073000D01*
X145923000Y-76073000D01*
X145923000Y-74453750D01*
X146177000Y-74453750D01*
X146177000Y-76073000D01*
X147796250Y-76073000D01*
X147955000Y-75914250D01*
X147955000Y-74803690D01*
X147858327Y-74570301D01*
X147707414Y-74419388D01*
X190369120Y-74419388D01*
X190377025Y-75480357D01*
X190767832Y-76423846D01*
X191141879Y-76648516D01*
X192860395Y-74930000D01*
X193219605Y-74930000D01*
X194938121Y-76648516D01*
X195312168Y-76423846D01*
X195710880Y-75440612D01*
X195702975Y-74379643D01*
X195312168Y-73436154D01*
X194938121Y-73211484D01*
X193219605Y-74930000D01*
X192860395Y-74930000D01*
X191141879Y-73211484D01*
X190767832Y-73436154D01*
X190369120Y-74419388D01*
X147707414Y-74419388D01*
X147679698Y-74391673D01*
X147446309Y-74295000D01*
X146335750Y-74295000D01*
X146177000Y-74453750D01*
X145923000Y-74453750D01*
X145764250Y-74295000D01*
X144653691Y-74295000D01*
X144420302Y-74391673D01*
X144241673Y-74570301D01*
X144145000Y-74803690D01*
X142267855Y-74803690D01*
X142050505Y-74585961D01*
X141350590Y-74295332D01*
X140592735Y-74294670D01*
X139892314Y-74584078D01*
X139355961Y-75119495D01*
X139316304Y-75215000D01*
X99060000Y-75215000D01*
X98683057Y-75289979D01*
X98363500Y-75503500D01*
X97576065Y-76290935D01*
X97920880Y-75440612D01*
X97912975Y-74379643D01*
X97522168Y-73436154D01*
X97148121Y-73211484D01*
X95429605Y-74930000D01*
X95443748Y-74944143D01*
X95264143Y-75123748D01*
X95250000Y-75109605D01*
X93531484Y-76828121D01*
X93756154Y-77202168D01*
X94739388Y-77600880D01*
X95800357Y-77592975D01*
X96608960Y-77258040D01*
X92150000Y-81717000D01*
X92150000Y-74419388D01*
X92579120Y-74419388D01*
X92587025Y-75480357D01*
X92977832Y-76423846D01*
X93351879Y-76648516D01*
X95070395Y-74930000D01*
X93351879Y-73211484D01*
X92977832Y-73436154D01*
X92579120Y-74419388D01*
X92150000Y-74419388D01*
X92150000Y-73031879D01*
X93531484Y-73031879D01*
X95250000Y-74750395D01*
X96968516Y-73031879D01*
X191321484Y-73031879D01*
X193040000Y-74750395D01*
X194758516Y-73031879D01*
X194533846Y-72657832D01*
X193550612Y-72259120D01*
X192489643Y-72267025D01*
X191546154Y-72657832D01*
X191321484Y-73031879D01*
X96968516Y-73031879D01*
X96743846Y-72657832D01*
X95760612Y-72259120D01*
X94699643Y-72267025D01*
X93756154Y-72657832D01*
X93531484Y-73031879D01*
X92150000Y-73031879D01*
X92150000Y-71830000D01*
X196140000Y-71830000D01*
X196140000Y-127560000D01*
X196140000Y-127560000D01*
G37*
X196140000Y-127560000D02*
X92150000Y-127560000D01*
X92150000Y-126358121D01*
X93531484Y-126358121D01*
X93756154Y-126732168D01*
X94739388Y-127130880D01*
X95800357Y-127122975D01*
X96743846Y-126732168D01*
X96968516Y-126358121D01*
X191321484Y-126358121D01*
X191546154Y-126732168D01*
X192529388Y-127130880D01*
X193590357Y-127122975D01*
X194533846Y-126732168D01*
X194758516Y-126358121D01*
X193040000Y-124639605D01*
X191321484Y-126358121D01*
X96968516Y-126358121D01*
X95250000Y-124639605D01*
X93531484Y-126358121D01*
X92150000Y-126358121D01*
X92150000Y-123949388D01*
X92579120Y-123949388D01*
X92587025Y-125010357D01*
X92977832Y-125953846D01*
X93351879Y-126178516D01*
X95070395Y-124460000D01*
X95429605Y-124460000D01*
X97148121Y-126178516D01*
X97522168Y-125953846D01*
X97920880Y-124970612D01*
X97912975Y-123909643D01*
X97522168Y-122966154D01*
X97148121Y-122741484D01*
X95429605Y-124460000D01*
X95070395Y-124460000D01*
X93351879Y-122741484D01*
X92977832Y-122966154D01*
X92579120Y-123949388D01*
X92150000Y-123949388D01*
X92150000Y-122561879D01*
X93531484Y-122561879D01*
X95250000Y-124280395D01*
X96968516Y-122561879D01*
X96743846Y-122187832D01*
X95760612Y-121789120D01*
X94699643Y-121797025D01*
X93756154Y-122187832D01*
X93531484Y-122561879D01*
X92150000Y-122561879D01*
X92150000Y-115234188D01*
X123705417Y-115234188D01*
X123767071Y-115469800D01*
X124267480Y-115645927D01*
X124797199Y-115617148D01*
X125152929Y-115469800D01*
X125214583Y-115234188D01*
X124460000Y-114479605D01*
X123705417Y-115234188D01*
X92150000Y-115234188D01*
X92150000Y-101326427D01*
X92483244Y-101464803D01*
X92934775Y-101465197D01*
X93352086Y-101292767D01*
X93671645Y-100973765D01*
X93844803Y-100556756D01*
X93845197Y-100105225D01*
X93695000Y-99741722D01*
X93695000Y-92900000D01*
X95005907Y-92900000D01*
X95099916Y-93372614D01*
X95367630Y-93773277D01*
X95735000Y-94018745D01*
X95735000Y-104140000D01*
X95794755Y-104440407D01*
X95964921Y-104695079D01*
X104854921Y-113585079D01*
X105109594Y-113755245D01*
X105410000Y-113815001D01*
X105410005Y-113815000D01*
X123217016Y-113815000D01*
X123114073Y-114107480D01*
X123142852Y-114637199D01*
X123290200Y-114992929D01*
X123525812Y-115054583D01*
X124280395Y-114300000D01*
X124266253Y-114285858D01*
X124445858Y-114106253D01*
X124460000Y-114120395D01*
X124474143Y-114106253D01*
X124653748Y-114285858D01*
X124639605Y-114300000D01*
X125394188Y-115054583D01*
X125629800Y-114992929D01*
X125805927Y-114492520D01*
X125777148Y-113962801D01*
X125715927Y-113815000D01*
X130837497Y-113815000D01*
X130746732Y-114033587D01*
X130746269Y-114564086D01*
X130948854Y-115054380D01*
X131323647Y-115429827D01*
X131813587Y-115633268D01*
X132344086Y-115633731D01*
X132834380Y-115431146D01*
X133181130Y-115085000D01*
X135264842Y-115085000D01*
X134064921Y-116284921D01*
X133894755Y-116539593D01*
X133894755Y-116539594D01*
X133835000Y-116840000D01*
X133835000Y-121920000D01*
X133894755Y-122220407D01*
X134064921Y-122475079D01*
X136604921Y-125015079D01*
X136859594Y-125185245D01*
X137160000Y-125245000D01*
X139707184Y-125245000D01*
X139910330Y-125549029D01*
X140396511Y-125873885D01*
X140970000Y-125987959D01*
X141543489Y-125873885D01*
X142029670Y-125549029D01*
X142245664Y-125225772D01*
X142303179Y-125348490D01*
X142735053Y-125742688D01*
X143150974Y-125914958D01*
X143383000Y-125793817D01*
X143383000Y-124587000D01*
X143363000Y-124587000D01*
X143363000Y-124333000D01*
X143383000Y-124333000D01*
X143383000Y-124313000D01*
X143637000Y-124313000D01*
X143637000Y-124333000D01*
X143657000Y-124333000D01*
X143657000Y-124587000D01*
X143637000Y-124587000D01*
X143637000Y-125793817D01*
X143869026Y-125914958D01*
X144284947Y-125742688D01*
X144716821Y-125348490D01*
X144774336Y-125225772D01*
X144990330Y-125549029D01*
X145476511Y-125873885D01*
X146050000Y-125987959D01*
X146623489Y-125873885D01*
X147109670Y-125549029D01*
X147312816Y-125245000D01*
X147320000Y-125245000D01*
X147620407Y-125185245D01*
X147875079Y-125015079D01*
X149145079Y-123745079D01*
X149315245Y-123490407D01*
X149375000Y-123190000D01*
X149375000Y-123029750D01*
X169474761Y-123029750D01*
X169474761Y-125990250D01*
X189935240Y-125990250D01*
X189935240Y-123949388D01*
X190369120Y-123949388D01*
X190377025Y-125010357D01*
X190767832Y-125953846D01*
X191141879Y-126178516D01*
X192860395Y-124460000D01*
X193219605Y-124460000D01*
X194938121Y-126178516D01*
X195312168Y-125953846D01*
X195710880Y-124970612D01*
X195702975Y-123909643D01*
X195312168Y-122966154D01*
X194938121Y-122741484D01*
X193219605Y-124460000D01*
X192860395Y-124460000D01*
X191141879Y-122741484D01*
X190767832Y-122966154D01*
X190369120Y-123949388D01*
X189935240Y-123949388D01*
X189935240Y-123029750D01*
X169474761Y-123029750D01*
X149375000Y-123029750D01*
X149375000Y-122561879D01*
X191321484Y-122561879D01*
X193040000Y-124280395D01*
X194758516Y-122561879D01*
X194533846Y-122187832D01*
X193550612Y-121789120D01*
X192489643Y-121797025D01*
X191546154Y-122187832D01*
X191321484Y-122561879D01*
X149375000Y-122561879D01*
X149375000Y-120650000D01*
X149315245Y-120349594D01*
X149145079Y-120094921D01*
X146835000Y-117784842D01*
X146835000Y-117533026D01*
X146980302Y-117678327D01*
X147213691Y-117775000D01*
X148304250Y-117775000D01*
X148463000Y-117616250D01*
X148463000Y-116967000D01*
X148717000Y-116967000D01*
X148717000Y-117616250D01*
X148875750Y-117775000D01*
X149966309Y-117775000D01*
X150199698Y-117678327D01*
X150378327Y-117499699D01*
X150475000Y-117266310D01*
X150475000Y-117125750D01*
X150316250Y-116967000D01*
X148717000Y-116967000D01*
X148463000Y-116967000D01*
X148443000Y-116967000D01*
X148443000Y-116713000D01*
X148463000Y-116713000D01*
X148463000Y-116693000D01*
X148717000Y-116693000D01*
X148717000Y-116713000D01*
X150316250Y-116713000D01*
X150475000Y-116554250D01*
X150475000Y-116413690D01*
X150385194Y-116196878D01*
X150436431Y-116121890D01*
X150487440Y-115870000D01*
X150487440Y-115270000D01*
X150443162Y-115034683D01*
X150379322Y-114935472D01*
X150436431Y-114851890D01*
X150487440Y-114600000D01*
X150487440Y-114000000D01*
X150452630Y-113815000D01*
X185420000Y-113815000D01*
X185720407Y-113755245D01*
X185975079Y-113585079D01*
X192325079Y-107235079D01*
X192495245Y-106980407D01*
X192555000Y-106680000D01*
X192555000Y-94018745D01*
X192922370Y-93773277D01*
X193190084Y-93372614D01*
X193284093Y-92900000D01*
X193190084Y-92427386D01*
X192922370Y-92026723D01*
X192729109Y-91897590D01*
X192951933Y-91729125D01*
X193198286Y-91309376D01*
X193213462Y-91217609D01*
X193088731Y-91027000D01*
X191897000Y-91027000D01*
X191897000Y-91047000D01*
X191643000Y-91047000D01*
X191643000Y-91027000D01*
X190451269Y-91027000D01*
X190326538Y-91217609D01*
X190341714Y-91309376D01*
X190588067Y-91729125D01*
X190810891Y-91897590D01*
X190617630Y-92026723D01*
X190349916Y-92427386D01*
X190255907Y-92900000D01*
X190349916Y-93372614D01*
X190617630Y-93773277D01*
X190985000Y-94018745D01*
X190985000Y-106354842D01*
X185094842Y-112245000D01*
X179695158Y-112245000D01*
X185975079Y-105965079D01*
X186145245Y-105710407D01*
X186205000Y-105410000D01*
X186205000Y-94018745D01*
X186572370Y-93773277D01*
X186840084Y-93372614D01*
X186934093Y-92900000D01*
X186840084Y-92427386D01*
X186572370Y-92026723D01*
X186379109Y-91897590D01*
X186601933Y-91729125D01*
X186848286Y-91309376D01*
X186863462Y-91217609D01*
X186738731Y-91027000D01*
X185547000Y-91027000D01*
X185547000Y-91047000D01*
X185293000Y-91047000D01*
X185293000Y-91027000D01*
X184101269Y-91027000D01*
X183976538Y-91217609D01*
X183991714Y-91309376D01*
X184238067Y-91729125D01*
X184460891Y-91897590D01*
X184267630Y-92026723D01*
X183999916Y-92427386D01*
X183905907Y-92900000D01*
X183999916Y-93372614D01*
X184267630Y-93773277D01*
X184635000Y-94018745D01*
X184635000Y-105084842D01*
X178744842Y-110975000D01*
X173345158Y-110975000D01*
X179625079Y-104695079D01*
X179795245Y-104440407D01*
X179855000Y-104140000D01*
X179855000Y-94018745D01*
X180222370Y-93773277D01*
X180490084Y-93372614D01*
X180584093Y-92900000D01*
X180490084Y-92427386D01*
X180222370Y-92026723D01*
X180029109Y-91897590D01*
X180251933Y-91729125D01*
X180498286Y-91309376D01*
X180513462Y-91217609D01*
X180388731Y-91027000D01*
X179197000Y-91027000D01*
X179197000Y-91047000D01*
X178943000Y-91047000D01*
X178943000Y-91027000D01*
X177751269Y-91027000D01*
X177626538Y-91217609D01*
X177641714Y-91309376D01*
X177888067Y-91729125D01*
X178110891Y-91897590D01*
X177917630Y-92026723D01*
X177649916Y-92427386D01*
X177555907Y-92900000D01*
X177649916Y-93372614D01*
X177917630Y-93773277D01*
X178285000Y-94018745D01*
X178285000Y-103814842D01*
X172394842Y-109705000D01*
X166995158Y-109705000D01*
X173275079Y-103425079D01*
X173445245Y-103170407D01*
X173505000Y-102870000D01*
X173505000Y-94018745D01*
X173872370Y-93773277D01*
X174140084Y-93372614D01*
X174234093Y-92900000D01*
X174140084Y-92427386D01*
X173872370Y-92026723D01*
X173679109Y-91897590D01*
X173901933Y-91729125D01*
X174148286Y-91309376D01*
X174163462Y-91217609D01*
X174038731Y-91027000D01*
X172847000Y-91027000D01*
X172847000Y-91047000D01*
X172593000Y-91047000D01*
X172593000Y-91027000D01*
X171401269Y-91027000D01*
X171276538Y-91217609D01*
X171291714Y-91309376D01*
X171538067Y-91729125D01*
X171760891Y-91897590D01*
X171567630Y-92026723D01*
X171299916Y-92427386D01*
X171205907Y-92900000D01*
X171299916Y-93372614D01*
X171567630Y-93773277D01*
X171935000Y-94018745D01*
X171935000Y-102544842D01*
X166044842Y-108435000D01*
X161915158Y-108435000D01*
X166925079Y-103425079D01*
X167095245Y-103170406D01*
X167155000Y-102870000D01*
X167155000Y-94018745D01*
X167522370Y-93773277D01*
X167790084Y-93372614D01*
X167884093Y-92900000D01*
X167790084Y-92427386D01*
X167522370Y-92026723D01*
X167329109Y-91897590D01*
X167551933Y-91729125D01*
X167798286Y-91309376D01*
X167813462Y-91217609D01*
X167688731Y-91027000D01*
X166497000Y-91027000D01*
X166497000Y-91047000D01*
X166243000Y-91047000D01*
X166243000Y-91027000D01*
X165051269Y-91027000D01*
X164926538Y-91217609D01*
X164941714Y-91309376D01*
X165188067Y-91729125D01*
X165410891Y-91897590D01*
X165217630Y-92026723D01*
X164949916Y-92427386D01*
X164855907Y-92900000D01*
X164949916Y-93372614D01*
X165217630Y-93773277D01*
X165585000Y-94018745D01*
X165585000Y-102544842D01*
X160964842Y-107165000D01*
X158105158Y-107165000D01*
X160575079Y-104695079D01*
X160745244Y-104440407D01*
X160745245Y-104440406D01*
X160805000Y-104140000D01*
X160805000Y-94018745D01*
X161172370Y-93773277D01*
X161440084Y-93372614D01*
X161534093Y-92900000D01*
X161440084Y-92427386D01*
X161172370Y-92026723D01*
X160979109Y-91897590D01*
X161201933Y-91729125D01*
X161448286Y-91309376D01*
X161463462Y-91217609D01*
X161338731Y-91027000D01*
X160147000Y-91027000D01*
X160147000Y-91047000D01*
X159893000Y-91047000D01*
X159893000Y-91027000D01*
X158701269Y-91027000D01*
X158576538Y-91217609D01*
X158591714Y-91309376D01*
X158838067Y-91729125D01*
X159060891Y-91897590D01*
X158867630Y-92026723D01*
X158599916Y-92427386D01*
X158505907Y-92900000D01*
X158599916Y-93372614D01*
X158867630Y-93773277D01*
X159235000Y-94018745D01*
X159235000Y-103814842D01*
X157154842Y-105895000D01*
X153025158Y-105895000D01*
X154225079Y-104695079D01*
X154395245Y-104440407D01*
X154455000Y-104140000D01*
X154455000Y-94018745D01*
X154822370Y-93773277D01*
X155090084Y-93372614D01*
X155184093Y-92900000D01*
X155090084Y-92427386D01*
X154822370Y-92026723D01*
X154629109Y-91897590D01*
X154851933Y-91729125D01*
X155098286Y-91309376D01*
X155113462Y-91217609D01*
X154988731Y-91027000D01*
X153797000Y-91027000D01*
X153797000Y-91047000D01*
X153543000Y-91047000D01*
X153543000Y-91027000D01*
X152351269Y-91027000D01*
X152226538Y-91217609D01*
X152241714Y-91309376D01*
X152488067Y-91729125D01*
X152710891Y-91897590D01*
X152517630Y-92026723D01*
X152249916Y-92427386D01*
X152155907Y-92900000D01*
X152249916Y-93372614D01*
X152517630Y-93773277D01*
X152885000Y-94018745D01*
X152885000Y-103814842D01*
X152074842Y-104625000D01*
X150485158Y-104625000D01*
X151685079Y-103425079D01*
X151855245Y-103170407D01*
X151915000Y-102870000D01*
X151915000Y-99060000D01*
X151855245Y-98759594D01*
X151855245Y-98759593D01*
X151685079Y-98504921D01*
X150415079Y-97234921D01*
X150160407Y-97064755D01*
X149860000Y-97005000D01*
X148915158Y-97005000D01*
X148105000Y-96194842D01*
X148105000Y-94018745D01*
X148472370Y-93773277D01*
X148740084Y-93372614D01*
X148834093Y-92900000D01*
X148740084Y-92427386D01*
X148472370Y-92026723D01*
X148279109Y-91897590D01*
X148501933Y-91729125D01*
X148748286Y-91309376D01*
X148763462Y-91217609D01*
X148638731Y-91027000D01*
X147447000Y-91027000D01*
X147447000Y-91047000D01*
X147193000Y-91047000D01*
X147193000Y-91027000D01*
X146001269Y-91027000D01*
X145876538Y-91217609D01*
X145891714Y-91309376D01*
X146138067Y-91729125D01*
X146360891Y-91897590D01*
X146167630Y-92026723D01*
X145899916Y-92427386D01*
X145805907Y-92900000D01*
X145899916Y-93372614D01*
X146167630Y-93773277D01*
X146535000Y-94018745D01*
X146535000Y-96520000D01*
X146594755Y-96820407D01*
X146764921Y-97075079D01*
X148034921Y-98345079D01*
X148289593Y-98515245D01*
X148590000Y-98575000D01*
X149534842Y-98575000D01*
X150345000Y-99385158D01*
X150345000Y-102182135D01*
X150304090Y-102118559D01*
X150091890Y-101973569D01*
X149840000Y-101922560D01*
X147340000Y-101922560D01*
X147104683Y-101966838D01*
X146921054Y-102085000D01*
X146050000Y-102085000D01*
X145749594Y-102144755D01*
X145749592Y-102144756D01*
X145749593Y-102144756D01*
X145494921Y-102314921D01*
X142954921Y-104854921D01*
X142784755Y-105109593D01*
X142784755Y-105109594D01*
X142725000Y-105410000D01*
X142725000Y-120647442D01*
X142450330Y-120830971D01*
X142240000Y-121145752D01*
X142029670Y-120830971D01*
X141543489Y-120506115D01*
X140970000Y-120392041D01*
X140396511Y-120506115D01*
X139910330Y-120830971D01*
X139834547Y-120944389D01*
X139215000Y-120324842D01*
X139215000Y-117787440D01*
X139680000Y-117787440D01*
X139915317Y-117743162D01*
X140131441Y-117604090D01*
X140276431Y-117391890D01*
X140327440Y-117140000D01*
X140327440Y-116540000D01*
X140283162Y-116304683D01*
X140219322Y-116205472D01*
X140276431Y-116121890D01*
X140327440Y-115870000D01*
X140327440Y-115270000D01*
X140283162Y-115034683D01*
X140219322Y-114935472D01*
X140276431Y-114851890D01*
X140327440Y-114600000D01*
X140327440Y-114000000D01*
X140283162Y-113764683D01*
X140219322Y-113665472D01*
X140276431Y-113581890D01*
X140327440Y-113330000D01*
X140327440Y-112730000D01*
X140283162Y-112494683D01*
X140219322Y-112395472D01*
X140276431Y-112311890D01*
X140327440Y-112060000D01*
X140327440Y-111460000D01*
X140283162Y-111224683D01*
X140219322Y-111125472D01*
X140276431Y-111041890D01*
X140327440Y-110790000D01*
X140327440Y-110190000D01*
X140283162Y-109954683D01*
X140219322Y-109855472D01*
X140276431Y-109771890D01*
X140327440Y-109520000D01*
X140327440Y-108920000D01*
X140283162Y-108684683D01*
X140219322Y-108585472D01*
X140276431Y-108501890D01*
X140327440Y-108250000D01*
X140327440Y-107650000D01*
X140283162Y-107414683D01*
X140219322Y-107315472D01*
X140276431Y-107231890D01*
X140327440Y-106980000D01*
X140327440Y-106380000D01*
X140283162Y-106144683D01*
X140219322Y-106045472D01*
X140276431Y-105961890D01*
X140327440Y-105710000D01*
X140327440Y-105110000D01*
X140283162Y-104874683D01*
X140219322Y-104775472D01*
X140276431Y-104691890D01*
X140281043Y-104669115D01*
X141525079Y-103425079D01*
X141695245Y-103170407D01*
X141755000Y-102870000D01*
X141755000Y-94018745D01*
X142122370Y-93773277D01*
X142390084Y-93372614D01*
X142484093Y-92900000D01*
X142390084Y-92427386D01*
X142122370Y-92026723D01*
X141929109Y-91897590D01*
X142151933Y-91729125D01*
X142398286Y-91309376D01*
X142413462Y-91217609D01*
X142288731Y-91027000D01*
X141097000Y-91027000D01*
X141097000Y-91047000D01*
X140843000Y-91047000D01*
X140843000Y-91027000D01*
X139651269Y-91027000D01*
X139526538Y-91217609D01*
X139541714Y-91309376D01*
X139788067Y-91729125D01*
X140010891Y-91897590D01*
X139817630Y-92026723D01*
X139549916Y-92427386D01*
X139455907Y-92900000D01*
X139549916Y-93372614D01*
X139817630Y-93773277D01*
X140185000Y-94018745D01*
X140185000Y-102182135D01*
X140144090Y-102118559D01*
X139931890Y-101973569D01*
X139680000Y-101922560D01*
X139215000Y-101922560D01*
X139215000Y-101322049D01*
X139518735Y-101018845D01*
X139714777Y-100546724D01*
X139715223Y-100035519D01*
X139520005Y-99563057D01*
X139158845Y-99201265D01*
X138854765Y-99075000D01*
X139206310Y-99075000D01*
X139439699Y-98978327D01*
X139618327Y-98799698D01*
X139715000Y-98566309D01*
X139715000Y-98075750D01*
X139556250Y-97917000D01*
X138557000Y-97917000D01*
X138557000Y-97937000D01*
X138303000Y-97937000D01*
X138303000Y-97917000D01*
X137303750Y-97917000D01*
X137145000Y-98075750D01*
X137145000Y-98566309D01*
X137241673Y-98799698D01*
X137420301Y-98978327D01*
X137653690Y-99075000D01*
X138005567Y-99075000D01*
X137703057Y-99199995D01*
X137597868Y-99305000D01*
X136381190Y-99305000D01*
X136116756Y-99195197D01*
X135665225Y-99194803D01*
X135405000Y-99302326D01*
X135405000Y-97013691D01*
X137145000Y-97013691D01*
X137145000Y-97504250D01*
X137303750Y-97663000D01*
X138303000Y-97663000D01*
X138303000Y-96663750D01*
X138557000Y-96663750D01*
X138557000Y-97663000D01*
X139556250Y-97663000D01*
X139715000Y-97504250D01*
X139715000Y-97013691D01*
X139618327Y-96780302D01*
X139439699Y-96601673D01*
X139206310Y-96505000D01*
X138715750Y-96505000D01*
X138557000Y-96663750D01*
X138303000Y-96663750D01*
X138144250Y-96505000D01*
X137653690Y-96505000D01*
X137420301Y-96601673D01*
X137241673Y-96780302D01*
X137145000Y-97013691D01*
X135405000Y-97013691D01*
X135405000Y-94018745D01*
X135772370Y-93773277D01*
X136040084Y-93372614D01*
X136134093Y-92900000D01*
X136040084Y-92427386D01*
X135772370Y-92026723D01*
X135579109Y-91897590D01*
X135801933Y-91729125D01*
X136048286Y-91309376D01*
X136063462Y-91217609D01*
X135938731Y-91027000D01*
X134747000Y-91027000D01*
X134747000Y-91047000D01*
X134493000Y-91047000D01*
X134493000Y-91027000D01*
X133301269Y-91027000D01*
X133176538Y-91217609D01*
X133191714Y-91309376D01*
X133438067Y-91729125D01*
X133660891Y-91897590D01*
X133467630Y-92026723D01*
X133199916Y-92427386D01*
X133105907Y-92900000D01*
X133199916Y-93372614D01*
X133467630Y-93773277D01*
X133835000Y-94018745D01*
X133835000Y-102870000D01*
X133894755Y-103170407D01*
X134064921Y-103425079D01*
X136534842Y-105895000D01*
X131135158Y-105895000D01*
X129055000Y-103814842D01*
X129055000Y-94018745D01*
X129422370Y-93773277D01*
X129690084Y-93372614D01*
X129784093Y-92900000D01*
X129690084Y-92427386D01*
X129422370Y-92026723D01*
X129229109Y-91897590D01*
X129451933Y-91729125D01*
X129698286Y-91309376D01*
X129713462Y-91217609D01*
X129588731Y-91027000D01*
X128397000Y-91027000D01*
X128397000Y-91047000D01*
X128143000Y-91047000D01*
X128143000Y-91027000D01*
X126951269Y-91027000D01*
X126826538Y-91217609D01*
X126841714Y-91309376D01*
X127088067Y-91729125D01*
X127310891Y-91897590D01*
X127117630Y-92026723D01*
X126849916Y-92427386D01*
X126755907Y-92900000D01*
X126849916Y-93372614D01*
X127117630Y-93773277D01*
X127485000Y-94018745D01*
X127485000Y-104140000D01*
X127544755Y-104440407D01*
X127714921Y-104695079D01*
X130184842Y-107165000D01*
X127325158Y-107165000D01*
X122705000Y-102544842D01*
X122705000Y-94018745D01*
X123072370Y-93773277D01*
X123340084Y-93372614D01*
X123434093Y-92900000D01*
X123340084Y-92427386D01*
X123072370Y-92026723D01*
X122879109Y-91897590D01*
X123101933Y-91729125D01*
X123348286Y-91309376D01*
X123363462Y-91217609D01*
X123238731Y-91027000D01*
X122047000Y-91027000D01*
X122047000Y-91047000D01*
X121793000Y-91047000D01*
X121793000Y-91027000D01*
X120601269Y-91027000D01*
X120476538Y-91217609D01*
X120491714Y-91309376D01*
X120738067Y-91729125D01*
X120960891Y-91897590D01*
X120767630Y-92026723D01*
X120499916Y-92427386D01*
X120405907Y-92900000D01*
X120499916Y-93372614D01*
X120767630Y-93773277D01*
X121135000Y-94018745D01*
X121135000Y-102870000D01*
X121194755Y-103170407D01*
X121364921Y-103425079D01*
X126374842Y-108435000D01*
X122245158Y-108435000D01*
X116355000Y-102544842D01*
X116355000Y-94018745D01*
X116722370Y-93773277D01*
X116990084Y-93372614D01*
X117084093Y-92900000D01*
X116990084Y-92427386D01*
X116722370Y-92026723D01*
X116529109Y-91897590D01*
X116751933Y-91729125D01*
X116998286Y-91309376D01*
X117013462Y-91217609D01*
X116888731Y-91027000D01*
X115697000Y-91027000D01*
X115697000Y-91047000D01*
X115443000Y-91047000D01*
X115443000Y-91027000D01*
X114251269Y-91027000D01*
X114126538Y-91217609D01*
X114141714Y-91309376D01*
X114388067Y-91729125D01*
X114610891Y-91897590D01*
X114417630Y-92026723D01*
X114149916Y-92427386D01*
X114055907Y-92900000D01*
X114149916Y-93372614D01*
X114417630Y-93773277D01*
X114785000Y-94018745D01*
X114785000Y-102870000D01*
X114844755Y-103170407D01*
X115014921Y-103425079D01*
X121294842Y-109705000D01*
X117165158Y-109705000D01*
X110005000Y-102544842D01*
X110005000Y-94018745D01*
X110372370Y-93773277D01*
X110640084Y-93372614D01*
X110734093Y-92900000D01*
X110640084Y-92427386D01*
X110372370Y-92026723D01*
X110179109Y-91897590D01*
X110401933Y-91729125D01*
X110648286Y-91309376D01*
X110663462Y-91217609D01*
X110538731Y-91027000D01*
X109347000Y-91027000D01*
X109347000Y-91047000D01*
X109093000Y-91047000D01*
X109093000Y-91027000D01*
X107901269Y-91027000D01*
X107776538Y-91217609D01*
X107791714Y-91309376D01*
X108038067Y-91729125D01*
X108260891Y-91897590D01*
X108067630Y-92026723D01*
X107799916Y-92427386D01*
X107705907Y-92900000D01*
X107799916Y-93372614D01*
X108067630Y-93773277D01*
X108435000Y-94018745D01*
X108435000Y-102870000D01*
X108494755Y-103170407D01*
X108664921Y-103425079D01*
X116214842Y-110975000D01*
X110815158Y-110975000D01*
X103655000Y-103814842D01*
X103655000Y-94018745D01*
X104022370Y-93773277D01*
X104290084Y-93372614D01*
X104384093Y-92900000D01*
X104290084Y-92427386D01*
X104022370Y-92026723D01*
X103829109Y-91897590D01*
X104051933Y-91729125D01*
X104298286Y-91309376D01*
X104313462Y-91217609D01*
X104188731Y-91027000D01*
X102997000Y-91027000D01*
X102997000Y-91047000D01*
X102743000Y-91047000D01*
X102743000Y-91027000D01*
X101551269Y-91027000D01*
X101426538Y-91217609D01*
X101441714Y-91309376D01*
X101688067Y-91729125D01*
X101910891Y-91897590D01*
X101717630Y-92026723D01*
X101449916Y-92427386D01*
X101355907Y-92900000D01*
X101449916Y-93372614D01*
X101717630Y-93773277D01*
X102085000Y-94018745D01*
X102085000Y-104140000D01*
X102144755Y-104440407D01*
X102314921Y-104695079D01*
X109864842Y-112245000D01*
X105735158Y-112245000D01*
X97305000Y-103814842D01*
X97305000Y-94018745D01*
X97672370Y-93773277D01*
X97940084Y-93372614D01*
X98034093Y-92900000D01*
X97940084Y-92427386D01*
X97672370Y-92026723D01*
X97479109Y-91897590D01*
X97701933Y-91729125D01*
X97948286Y-91309376D01*
X97963462Y-91217609D01*
X97838731Y-91027000D01*
X96647000Y-91027000D01*
X96647000Y-91047000D01*
X96393000Y-91047000D01*
X96393000Y-91027000D01*
X95201269Y-91027000D01*
X95076538Y-91217609D01*
X95091714Y-91309376D01*
X95338067Y-91729125D01*
X95560891Y-91897590D01*
X95367630Y-92026723D01*
X95099916Y-92427386D01*
X95005907Y-92900000D01*
X93695000Y-92900000D01*
X93695000Y-89885000D01*
X95163156Y-89885000D01*
X95205910Y-89951441D01*
X95358309Y-90055571D01*
X95338067Y-90070875D01*
X95091714Y-90490624D01*
X95076538Y-90582391D01*
X95201269Y-90773000D01*
X96393000Y-90773000D01*
X96393000Y-90753000D01*
X96647000Y-90753000D01*
X96647000Y-90773000D01*
X97838731Y-90773000D01*
X97963462Y-90582391D01*
X97948286Y-90490624D01*
X97701933Y-90070875D01*
X97680580Y-90054731D01*
X97821441Y-89964090D01*
X97875481Y-89885000D01*
X101513156Y-89885000D01*
X101555910Y-89951441D01*
X101708309Y-90055571D01*
X101688067Y-90070875D01*
X101441714Y-90490624D01*
X101426538Y-90582391D01*
X101551269Y-90773000D01*
X102743000Y-90773000D01*
X102743000Y-90753000D01*
X102997000Y-90753000D01*
X102997000Y-90773000D01*
X104188731Y-90773000D01*
X104313462Y-90582391D01*
X104298286Y-90490624D01*
X104051933Y-90070875D01*
X104030580Y-90054731D01*
X104171441Y-89964090D01*
X104225481Y-89885000D01*
X107863156Y-89885000D01*
X107905910Y-89951441D01*
X108058309Y-90055571D01*
X108038067Y-90070875D01*
X107791714Y-90490624D01*
X107776538Y-90582391D01*
X107901269Y-90773000D01*
X109093000Y-90773000D01*
X109093000Y-90753000D01*
X109347000Y-90753000D01*
X109347000Y-90773000D01*
X110538731Y-90773000D01*
X110663462Y-90582391D01*
X110648286Y-90490624D01*
X110401933Y-90070875D01*
X110380580Y-90054731D01*
X110521441Y-89964090D01*
X110575481Y-89885000D01*
X114213156Y-89885000D01*
X114255910Y-89951441D01*
X114408309Y-90055571D01*
X114388067Y-90070875D01*
X114141714Y-90490624D01*
X114126538Y-90582391D01*
X114251269Y-90773000D01*
X115443000Y-90773000D01*
X115443000Y-90753000D01*
X115697000Y-90753000D01*
X115697000Y-90773000D01*
X116888731Y-90773000D01*
X117013462Y-90582391D01*
X116998286Y-90490624D01*
X116751933Y-90070875D01*
X116730580Y-90054731D01*
X116871441Y-89964090D01*
X116925481Y-89885000D01*
X120563156Y-89885000D01*
X120605910Y-89951441D01*
X120758309Y-90055571D01*
X120738067Y-90070875D01*
X120491714Y-90490624D01*
X120476538Y-90582391D01*
X120601269Y-90773000D01*
X121793000Y-90773000D01*
X121793000Y-90753000D01*
X122047000Y-90753000D01*
X122047000Y-90773000D01*
X123238731Y-90773000D01*
X123363462Y-90582391D01*
X123348286Y-90490624D01*
X123101933Y-90070875D01*
X123080580Y-90054731D01*
X123221441Y-89964090D01*
X123275481Y-89885000D01*
X126913156Y-89885000D01*
X126955910Y-89951441D01*
X127108309Y-90055571D01*
X127088067Y-90070875D01*
X126841714Y-90490624D01*
X126826538Y-90582391D01*
X126951269Y-90773000D01*
X128143000Y-90773000D01*
X128143000Y-90753000D01*
X128397000Y-90753000D01*
X128397000Y-90773000D01*
X129588731Y-90773000D01*
X129713462Y-90582391D01*
X129698286Y-90490624D01*
X129451933Y-90070875D01*
X129430580Y-90054731D01*
X129571441Y-89964090D01*
X129625481Y-89885000D01*
X133263156Y-89885000D01*
X133305910Y-89951441D01*
X133458309Y-90055571D01*
X133438067Y-90070875D01*
X133191714Y-90490624D01*
X133176538Y-90582391D01*
X133301269Y-90773000D01*
X134493000Y-90773000D01*
X134493000Y-90753000D01*
X134747000Y-90753000D01*
X134747000Y-90773000D01*
X135938731Y-90773000D01*
X136063462Y-90582391D01*
X136048286Y-90490624D01*
X135801933Y-90070875D01*
X135780580Y-90054731D01*
X135921441Y-89964090D01*
X135975481Y-89885000D01*
X139613156Y-89885000D01*
X139655910Y-89951441D01*
X139808309Y-90055571D01*
X139788067Y-90070875D01*
X139541714Y-90490624D01*
X139526538Y-90582391D01*
X139651269Y-90773000D01*
X140843000Y-90773000D01*
X140843000Y-90753000D01*
X141097000Y-90753000D01*
X141097000Y-90773000D01*
X142288731Y-90773000D01*
X142413462Y-90582391D01*
X142398286Y-90490624D01*
X142151933Y-90070875D01*
X142130580Y-90054731D01*
X142271441Y-89964090D01*
X142325481Y-89885000D01*
X145963156Y-89885000D01*
X146005910Y-89951441D01*
X146158309Y-90055571D01*
X146138067Y-90070875D01*
X145891714Y-90490624D01*
X145876538Y-90582391D01*
X146001269Y-90773000D01*
X147193000Y-90773000D01*
X147193000Y-90753000D01*
X147447000Y-90753000D01*
X147447000Y-90773000D01*
X148638731Y-90773000D01*
X148763462Y-90582391D01*
X148748286Y-90490624D01*
X148501933Y-90070875D01*
X148480580Y-90054731D01*
X148621441Y-89964090D01*
X148675481Y-89885000D01*
X152313156Y-89885000D01*
X152355910Y-89951441D01*
X152508309Y-90055571D01*
X152488067Y-90070875D01*
X152241714Y-90490624D01*
X152226538Y-90582391D01*
X152351269Y-90773000D01*
X153543000Y-90773000D01*
X153543000Y-90753000D01*
X153797000Y-90753000D01*
X153797000Y-90773000D01*
X154988731Y-90773000D01*
X155113462Y-90582391D01*
X155098286Y-90490624D01*
X154851933Y-90070875D01*
X154830580Y-90054731D01*
X154971441Y-89964090D01*
X155025481Y-89885000D01*
X158663156Y-89885000D01*
X158705910Y-89951441D01*
X158858309Y-90055571D01*
X158838067Y-90070875D01*
X158591714Y-90490624D01*
X158576538Y-90582391D01*
X158701269Y-90773000D01*
X159893000Y-90773000D01*
X159893000Y-90753000D01*
X160147000Y-90753000D01*
X160147000Y-90773000D01*
X161338731Y-90773000D01*
X161463462Y-90582391D01*
X161448286Y-90490624D01*
X161201933Y-90070875D01*
X161180580Y-90054731D01*
X161321441Y-89964090D01*
X161375481Y-89885000D01*
X165013156Y-89885000D01*
X165055910Y-89951441D01*
X165208309Y-90055571D01*
X165188067Y-90070875D01*
X164941714Y-90490624D01*
X164926538Y-90582391D01*
X165051269Y-90773000D01*
X166243000Y-90773000D01*
X166243000Y-90753000D01*
X166497000Y-90753000D01*
X166497000Y-90773000D01*
X167688731Y-90773000D01*
X167813462Y-90582391D01*
X167798286Y-90490624D01*
X167551933Y-90070875D01*
X167530580Y-90054731D01*
X167671441Y-89964090D01*
X167725481Y-89885000D01*
X171363156Y-89885000D01*
X171405910Y-89951441D01*
X171558309Y-90055571D01*
X171538067Y-90070875D01*
X171291714Y-90490624D01*
X171276538Y-90582391D01*
X171401269Y-90773000D01*
X172593000Y-90773000D01*
X172593000Y-90753000D01*
X172847000Y-90753000D01*
X172847000Y-90773000D01*
X174038731Y-90773000D01*
X174163462Y-90582391D01*
X174148286Y-90490624D01*
X173901933Y-90070875D01*
X173880580Y-90054731D01*
X174021441Y-89964090D01*
X174075481Y-89885000D01*
X177713156Y-89885000D01*
X177755910Y-89951441D01*
X177908309Y-90055571D01*
X177888067Y-90070875D01*
X177641714Y-90490624D01*
X177626538Y-90582391D01*
X177751269Y-90773000D01*
X178943000Y-90773000D01*
X178943000Y-90753000D01*
X179197000Y-90753000D01*
X179197000Y-90773000D01*
X180388731Y-90773000D01*
X180513462Y-90582391D01*
X180498286Y-90490624D01*
X180251933Y-90070875D01*
X180230580Y-90054731D01*
X180371441Y-89964090D01*
X180425481Y-89885000D01*
X184063156Y-89885000D01*
X184105910Y-89951441D01*
X184258309Y-90055571D01*
X184238067Y-90070875D01*
X183991714Y-90490624D01*
X183976538Y-90582391D01*
X184101269Y-90773000D01*
X185293000Y-90773000D01*
X185293000Y-90753000D01*
X185547000Y-90753000D01*
X185547000Y-90773000D01*
X186738731Y-90773000D01*
X186863462Y-90582391D01*
X186848286Y-90490624D01*
X186601933Y-90070875D01*
X186580580Y-90054731D01*
X186721441Y-89964090D01*
X186775481Y-89885000D01*
X190413156Y-89885000D01*
X190455910Y-89951441D01*
X190608309Y-90055571D01*
X190588067Y-90070875D01*
X190341714Y-90490624D01*
X190326538Y-90582391D01*
X190451269Y-90773000D01*
X191643000Y-90773000D01*
X191643000Y-90753000D01*
X191897000Y-90753000D01*
X191897000Y-90773000D01*
X193088731Y-90773000D01*
X193213462Y-90582391D01*
X193198286Y-90490624D01*
X192951933Y-90070875D01*
X192930580Y-90054731D01*
X193071441Y-89964090D01*
X193216431Y-89751890D01*
X193267440Y-89500000D01*
X193267440Y-88300000D01*
X193223162Y-88064683D01*
X193084090Y-87848559D01*
X192871890Y-87703569D01*
X192620000Y-87652560D01*
X190920000Y-87652560D01*
X190684683Y-87696838D01*
X190468559Y-87835910D01*
X190414519Y-87915000D01*
X186776844Y-87915000D01*
X186734090Y-87848559D01*
X186521890Y-87703569D01*
X186270000Y-87652560D01*
X184570000Y-87652560D01*
X184334683Y-87696838D01*
X184118559Y-87835910D01*
X184064519Y-87915000D01*
X180426844Y-87915000D01*
X180384090Y-87848559D01*
X180171890Y-87703569D01*
X179920000Y-87652560D01*
X178220000Y-87652560D01*
X177984683Y-87696838D01*
X177768559Y-87835910D01*
X177714519Y-87915000D01*
X174076844Y-87915000D01*
X174034090Y-87848559D01*
X173821890Y-87703569D01*
X173570000Y-87652560D01*
X171870000Y-87652560D01*
X171634683Y-87696838D01*
X171418559Y-87835910D01*
X171364519Y-87915000D01*
X167726844Y-87915000D01*
X167684090Y-87848559D01*
X167471890Y-87703569D01*
X167220000Y-87652560D01*
X165520000Y-87652560D01*
X165284683Y-87696838D01*
X165068559Y-87835910D01*
X165014519Y-87915000D01*
X161376844Y-87915000D01*
X161334090Y-87848559D01*
X161121890Y-87703569D01*
X160870000Y-87652560D01*
X159170000Y-87652560D01*
X158934683Y-87696838D01*
X158718559Y-87835910D01*
X158664519Y-87915000D01*
X155026844Y-87915000D01*
X154984090Y-87848559D01*
X154771890Y-87703569D01*
X154520000Y-87652560D01*
X152820000Y-87652560D01*
X152584683Y-87696838D01*
X152368559Y-87835910D01*
X152314519Y-87915000D01*
X148676844Y-87915000D01*
X148634090Y-87848559D01*
X148421890Y-87703569D01*
X148170000Y-87652560D01*
X146470000Y-87652560D01*
X146234683Y-87696838D01*
X146018559Y-87835910D01*
X145964519Y-87915000D01*
X142326844Y-87915000D01*
X142284090Y-87848559D01*
X142071890Y-87703569D01*
X141820000Y-87652560D01*
X140120000Y-87652560D01*
X139884683Y-87696838D01*
X139668559Y-87835910D01*
X139614519Y-87915000D01*
X135976844Y-87915000D01*
X135934090Y-87848559D01*
X135721890Y-87703569D01*
X135470000Y-87652560D01*
X133770000Y-87652560D01*
X133534683Y-87696838D01*
X133318559Y-87835910D01*
X133264519Y-87915000D01*
X129626844Y-87915000D01*
X129584090Y-87848559D01*
X129371890Y-87703569D01*
X129120000Y-87652560D01*
X127420000Y-87652560D01*
X127184683Y-87696838D01*
X126968559Y-87835910D01*
X126914519Y-87915000D01*
X123276844Y-87915000D01*
X123234090Y-87848559D01*
X123021890Y-87703569D01*
X122770000Y-87652560D01*
X121070000Y-87652560D01*
X120834683Y-87696838D01*
X120618559Y-87835910D01*
X120564519Y-87915000D01*
X116926844Y-87915000D01*
X116884090Y-87848559D01*
X116671890Y-87703569D01*
X116420000Y-87652560D01*
X114720000Y-87652560D01*
X114484683Y-87696838D01*
X114268559Y-87835910D01*
X114214519Y-87915000D01*
X110576844Y-87915000D01*
X110534090Y-87848559D01*
X110321890Y-87703569D01*
X110070000Y-87652560D01*
X108370000Y-87652560D01*
X108134683Y-87696838D01*
X107918559Y-87835910D01*
X107864519Y-87915000D01*
X104226844Y-87915000D01*
X104184090Y-87848559D01*
X103971890Y-87703569D01*
X103720000Y-87652560D01*
X102020000Y-87652560D01*
X101784683Y-87696838D01*
X101568559Y-87835910D01*
X101514519Y-87915000D01*
X97876844Y-87915000D01*
X97834090Y-87848559D01*
X97621890Y-87703569D01*
X97370000Y-87652560D01*
X95670000Y-87652560D01*
X95434683Y-87696838D01*
X95218559Y-87835910D01*
X95164519Y-87915000D01*
X93695000Y-87915000D01*
X93695000Y-82958000D01*
X99468000Y-77185000D01*
X139315781Y-77185000D01*
X139354078Y-77277686D01*
X139889495Y-77814039D01*
X140589410Y-78104668D01*
X141347265Y-78105330D01*
X142047686Y-77815922D01*
X142584039Y-77280505D01*
X142874668Y-76580590D01*
X142874750Y-76485750D01*
X144145000Y-76485750D01*
X144145000Y-77596310D01*
X144241673Y-77829699D01*
X144420302Y-78008327D01*
X144653691Y-78105000D01*
X145764250Y-78105000D01*
X145923000Y-77946250D01*
X145923000Y-76327000D01*
X146177000Y-76327000D01*
X146177000Y-77946250D01*
X146335750Y-78105000D01*
X147446309Y-78105000D01*
X147679698Y-78008327D01*
X147858327Y-77829699D01*
X147955000Y-77596310D01*
X147955000Y-76828121D01*
X191321484Y-76828121D01*
X191546154Y-77202168D01*
X192529388Y-77600880D01*
X193590357Y-77592975D01*
X194533846Y-77202168D01*
X194758516Y-76828121D01*
X193040000Y-75109605D01*
X191321484Y-76828121D01*
X147955000Y-76828121D01*
X147955000Y-76485750D01*
X147796250Y-76327000D01*
X146177000Y-76327000D01*
X145923000Y-76327000D01*
X144303750Y-76327000D01*
X144145000Y-76485750D01*
X142874750Y-76485750D01*
X142875330Y-75822735D01*
X142585922Y-75122314D01*
X142267855Y-74803690D01*
X144145000Y-74803690D01*
X144145000Y-75914250D01*
X144303750Y-76073000D01*
X145923000Y-76073000D01*
X145923000Y-74453750D01*
X146177000Y-74453750D01*
X146177000Y-76073000D01*
X147796250Y-76073000D01*
X147955000Y-75914250D01*
X147955000Y-74803690D01*
X147858327Y-74570301D01*
X147707414Y-74419388D01*
X190369120Y-74419388D01*
X190377025Y-75480357D01*
X190767832Y-76423846D01*
X191141879Y-76648516D01*
X192860395Y-74930000D01*
X193219605Y-74930000D01*
X194938121Y-76648516D01*
X195312168Y-76423846D01*
X195710880Y-75440612D01*
X195702975Y-74379643D01*
X195312168Y-73436154D01*
X194938121Y-73211484D01*
X193219605Y-74930000D01*
X192860395Y-74930000D01*
X191141879Y-73211484D01*
X190767832Y-73436154D01*
X190369120Y-74419388D01*
X147707414Y-74419388D01*
X147679698Y-74391673D01*
X147446309Y-74295000D01*
X146335750Y-74295000D01*
X146177000Y-74453750D01*
X145923000Y-74453750D01*
X145764250Y-74295000D01*
X144653691Y-74295000D01*
X144420302Y-74391673D01*
X144241673Y-74570301D01*
X144145000Y-74803690D01*
X142267855Y-74803690D01*
X142050505Y-74585961D01*
X141350590Y-74295332D01*
X140592735Y-74294670D01*
X139892314Y-74584078D01*
X139355961Y-75119495D01*
X139316304Y-75215000D01*
X99060000Y-75215000D01*
X98683057Y-75289979D01*
X98363500Y-75503500D01*
X97576065Y-76290935D01*
X97920880Y-75440612D01*
X97912975Y-74379643D01*
X97522168Y-73436154D01*
X97148121Y-73211484D01*
X95429605Y-74930000D01*
X95443748Y-74944143D01*
X95264143Y-75123748D01*
X95250000Y-75109605D01*
X93531484Y-76828121D01*
X93756154Y-77202168D01*
X94739388Y-77600880D01*
X95800357Y-77592975D01*
X96608960Y-77258040D01*
X92150000Y-81717000D01*
X92150000Y-74419388D01*
X92579120Y-74419388D01*
X92587025Y-75480357D01*
X92977832Y-76423846D01*
X93351879Y-76648516D01*
X95070395Y-74930000D01*
X93351879Y-73211484D01*
X92977832Y-73436154D01*
X92579120Y-74419388D01*
X92150000Y-74419388D01*
X92150000Y-73031879D01*
X93531484Y-73031879D01*
X95250000Y-74750395D01*
X96968516Y-73031879D01*
X191321484Y-73031879D01*
X193040000Y-74750395D01*
X194758516Y-73031879D01*
X194533846Y-72657832D01*
X193550612Y-72259120D01*
X192489643Y-72267025D01*
X191546154Y-72657832D01*
X191321484Y-73031879D01*
X96968516Y-73031879D01*
X96743846Y-72657832D01*
X95760612Y-72259120D01*
X94699643Y-72267025D01*
X93756154Y-72657832D01*
X93531484Y-73031879D01*
X92150000Y-73031879D01*
X92150000Y-71830000D01*
X196140000Y-71830000D01*
X196140000Y-127560000D01*
M02*
