M48
;DRILL file {KiCad 4.0.2+dfsg1-2~bpo8+1-stable} date Wed 12 Jul 2017 11:54:51 PM EEST
;FORMAT={-:-/ absolute / inch / decimal}
FMAT,2
INCH,TZ
T1C0.016
T2C0.028
T3C0.031
T4C0.032
T5C0.032
T6C0.040
T7C0.060
T8C0.120
%
G90
G05
M72
T1
X3.65Y-3.95
X5.35Y-3.95
T2
X3.8Y-3.5
X3.8Y-3.5787
X3.8Y-3.6575
X4.05Y-3.5
X4.05Y-3.5787
X4.05Y-3.6575
X4.3Y-3.5
X4.3Y-3.5787
X4.3Y-3.6575
X4.55Y-3.5
X4.55Y-3.5787
X4.55Y-3.6575
X4.8Y-3.5
X4.8Y-3.5787
X4.8Y-3.6575
X5.05Y-3.5
X5.05Y-3.5787
X5.05Y-3.6575
X5.3Y-3.5
X5.3Y-3.5787
X5.3Y-3.6575
X5.55Y-3.5
X5.55Y-3.5787
X5.55Y-3.6575
X5.8Y-3.5
X5.8Y-3.5787
X5.8Y-3.6575
X6.05Y-3.5
X6.05Y-3.5787
X6.05Y-3.6575
X6.3Y-3.5
X6.3Y-3.5787
X6.3Y-3.6575
X6.55Y-3.5
X6.55Y-3.5787
X6.55Y-3.6575
X6.8Y-3.5
X6.8Y-3.5787
X6.8Y-3.6575
X7.05Y-3.5
X7.05Y-3.5787
X7.05Y-3.6575
X7.3Y-3.5
X7.3Y-3.5787
X7.3Y-3.6575
X7.55Y-3.5
X7.55Y-3.5787
X7.55Y-3.6575
T3
X5.45Y-3.85
T4
X5.45Y-3.9484
T5
X4.9Y-4.5
X5.2Y-4.5
T6
X5.55Y-4.8
X5.55Y-4.9
X5.65Y-4.8
X5.65Y-4.9
X5.75Y-4.8
X5.75Y-4.9
T7
X5.55Y-3.
X5.75Y-3.
T8
X3.75Y-2.95
X3.75Y-4.9
X7.6Y-2.95
X7.6Y-4.9
T0
M30
