G04 #@! TF.FileFunction,Copper,L1,Top,Signal*
%FSLAX46Y46*%
G04 Gerber Fmt 4.6, Leading zero omitted, Abs format (unit mm)*
G04 Created by KiCad (PCBNEW 4.0.6+dfsg1-1) date Wed Nov  1 12:46:00 2017*
%MOMM*%
%LPD*%
G01*
G04 APERTURE LIST*
%ADD10C,0.050000*%
%ADD11R,1.300000X1.300000*%
%ADD12C,1.300000*%
%ADD13R,1.727200X1.727200*%
%ADD14O,1.727200X1.727200*%
%ADD15R,1.700000X1.200000*%
%ADD16O,1.700000X1.200000*%
%ADD17R,2.540000X2.540000*%
%ADD18C,2.540000*%
%ADD19C,1.397000*%
%ADD20C,4.064000*%
%ADD21C,1.000000*%
%ADD22C,0.700000*%
G04 APERTURE END LIST*
D10*
D11*
X138430000Y-97790000D03*
D12*
X138430000Y-100290000D03*
D13*
X146050000Y-121920000D03*
D14*
X146050000Y-124460000D03*
X143510000Y-121920000D03*
X143510000Y-124460000D03*
X140970000Y-121920000D03*
X140970000Y-124460000D03*
D15*
X191770000Y-88900000D03*
D16*
X191770000Y-90900000D03*
X191770000Y-92900000D03*
D15*
X185420000Y-88900000D03*
D16*
X185420000Y-90900000D03*
X185420000Y-92900000D03*
D15*
X179070000Y-88900000D03*
D16*
X179070000Y-90900000D03*
X179070000Y-92900000D03*
D15*
X172720000Y-88900000D03*
D16*
X172720000Y-90900000D03*
X172720000Y-92900000D03*
D15*
X166370000Y-88900000D03*
D16*
X166370000Y-90900000D03*
X166370000Y-92900000D03*
D15*
X160020000Y-88900000D03*
D16*
X160020000Y-90900000D03*
X160020000Y-92900000D03*
D15*
X153670000Y-88900000D03*
D16*
X153670000Y-90900000D03*
X153670000Y-92900000D03*
D15*
X147320000Y-88900000D03*
D16*
X147320000Y-90900000D03*
X147320000Y-92900000D03*
D15*
X140970000Y-88900000D03*
D16*
X140970000Y-90900000D03*
X140970000Y-92900000D03*
D15*
X134620000Y-88900000D03*
D16*
X134620000Y-90900000D03*
X134620000Y-92900000D03*
D15*
X128270000Y-88900000D03*
D16*
X128270000Y-90900000D03*
X128270000Y-92900000D03*
D15*
X121920000Y-88900000D03*
D16*
X121920000Y-90900000D03*
X121920000Y-92900000D03*
D17*
X146050000Y-76200000D03*
D18*
X140970000Y-76200000D03*
D15*
X115570000Y-88900000D03*
D16*
X115570000Y-90900000D03*
X115570000Y-92900000D03*
D15*
X109220000Y-88900000D03*
D16*
X109220000Y-90900000D03*
X109220000Y-92900000D03*
D15*
X102870000Y-88900000D03*
D16*
X102870000Y-90900000D03*
X102870000Y-92900000D03*
D15*
X96520000Y-88900000D03*
D16*
X96520000Y-90900000D03*
X96520000Y-92900000D03*
D19*
X132080000Y-114300000D03*
X124460000Y-114300000D03*
D20*
X95250000Y-124460000D03*
X95250000Y-74930000D03*
X193040000Y-124460000D03*
X193040000Y-74930000D03*
D21*
X92710000Y-100330000D03*
X135890000Y-100330000D03*
D22*
X135890000Y-100330000D02*
X92710000Y-100330000D01*
M02*
