G04 #@! TF.FileFunction,Legend,Top*
%FSLAX46Y46*%
G04 Gerber Fmt 4.6, Leading zero omitted, Abs format (unit mm)*
G04 Created by KiCad (PCBNEW 4.0.6+dfsg1-1) date Wed Nov  1 12:46:00 2017*
%MOMM*%
%LPD*%
G01*
G04 APERTURE LIST*
%ADD10C,0.050000*%
%ADD11C,0.150000*%
G04 APERTURE END LIST*
D10*
D11*
X139680000Y-97540000D02*
X139680000Y-100540000D01*
X137180000Y-100540000D02*
X137180000Y-97540000D01*
X144780000Y-120650000D02*
X139700000Y-120650000D01*
X147600000Y-120370000D02*
X147600000Y-121920000D01*
X147320000Y-123190000D02*
X144780000Y-123190000D01*
X144780000Y-123190000D02*
X144780000Y-120650000D01*
X139700000Y-120650000D02*
X139700000Y-125730000D01*
X139700000Y-125730000D02*
X144780000Y-125730000D01*
X147600000Y-120370000D02*
X146050000Y-120370000D01*
X147320000Y-125730000D02*
X147320000Y-123190000D01*
X144780000Y-125730000D02*
X147320000Y-125730000D01*
X188970000Y-86950000D02*
X193470000Y-86950000D01*
X193470000Y-86950000D02*
X193470000Y-94850000D01*
X193470000Y-94850000D02*
X188970000Y-94850000D01*
X188970000Y-94850000D02*
X188970000Y-86950000D01*
X193470000Y-89400000D02*
X192970000Y-89400000D01*
X192970000Y-89400000D02*
X192970000Y-87450000D01*
X192970000Y-87450000D02*
X189470000Y-87450000D01*
X189470000Y-87450000D02*
X189470000Y-94350000D01*
X189470000Y-94350000D02*
X192970000Y-94350000D01*
X192970000Y-94350000D02*
X192970000Y-92400000D01*
X192970000Y-92400000D02*
X193470000Y-92400000D01*
X192270000Y-86950000D02*
X192270000Y-87450000D01*
X190970000Y-86950000D02*
X190970000Y-87450000D01*
X192270000Y-94350000D02*
X192270000Y-94850000D01*
X190970000Y-94350000D02*
X190970000Y-94850000D01*
X193470000Y-88600000D02*
X193670000Y-88600000D01*
X193670000Y-88600000D02*
X193670000Y-88300000D01*
X193670000Y-88300000D02*
X193470000Y-88300000D01*
X193570000Y-88600000D02*
X193570000Y-88300000D01*
X189470000Y-89800000D02*
X189970000Y-89800000D01*
X189970000Y-89800000D02*
X189970000Y-90000000D01*
X189970000Y-90000000D02*
X189470000Y-90000000D01*
X189470000Y-89900000D02*
X189970000Y-89900000D01*
X189470000Y-91800000D02*
X189970000Y-91800000D01*
X189970000Y-91800000D02*
X189970000Y-92000000D01*
X189970000Y-92000000D02*
X189470000Y-92000000D01*
X189470000Y-91900000D02*
X189970000Y-91900000D01*
X182620000Y-86950000D02*
X187120000Y-86950000D01*
X187120000Y-86950000D02*
X187120000Y-94850000D01*
X187120000Y-94850000D02*
X182620000Y-94850000D01*
X182620000Y-94850000D02*
X182620000Y-86950000D01*
X187120000Y-89400000D02*
X186620000Y-89400000D01*
X186620000Y-89400000D02*
X186620000Y-87450000D01*
X186620000Y-87450000D02*
X183120000Y-87450000D01*
X183120000Y-87450000D02*
X183120000Y-94350000D01*
X183120000Y-94350000D02*
X186620000Y-94350000D01*
X186620000Y-94350000D02*
X186620000Y-92400000D01*
X186620000Y-92400000D02*
X187120000Y-92400000D01*
X185920000Y-86950000D02*
X185920000Y-87450000D01*
X184620000Y-86950000D02*
X184620000Y-87450000D01*
X185920000Y-94350000D02*
X185920000Y-94850000D01*
X184620000Y-94350000D02*
X184620000Y-94850000D01*
X187120000Y-88600000D02*
X187320000Y-88600000D01*
X187320000Y-88600000D02*
X187320000Y-88300000D01*
X187320000Y-88300000D02*
X187120000Y-88300000D01*
X187220000Y-88600000D02*
X187220000Y-88300000D01*
X183120000Y-89800000D02*
X183620000Y-89800000D01*
X183620000Y-89800000D02*
X183620000Y-90000000D01*
X183620000Y-90000000D02*
X183120000Y-90000000D01*
X183120000Y-89900000D02*
X183620000Y-89900000D01*
X183120000Y-91800000D02*
X183620000Y-91800000D01*
X183620000Y-91800000D02*
X183620000Y-92000000D01*
X183620000Y-92000000D02*
X183120000Y-92000000D01*
X183120000Y-91900000D02*
X183620000Y-91900000D01*
X176270000Y-86950000D02*
X180770000Y-86950000D01*
X180770000Y-86950000D02*
X180770000Y-94850000D01*
X180770000Y-94850000D02*
X176270000Y-94850000D01*
X176270000Y-94850000D02*
X176270000Y-86950000D01*
X180770000Y-89400000D02*
X180270000Y-89400000D01*
X180270000Y-89400000D02*
X180270000Y-87450000D01*
X180270000Y-87450000D02*
X176770000Y-87450000D01*
X176770000Y-87450000D02*
X176770000Y-94350000D01*
X176770000Y-94350000D02*
X180270000Y-94350000D01*
X180270000Y-94350000D02*
X180270000Y-92400000D01*
X180270000Y-92400000D02*
X180770000Y-92400000D01*
X179570000Y-86950000D02*
X179570000Y-87450000D01*
X178270000Y-86950000D02*
X178270000Y-87450000D01*
X179570000Y-94350000D02*
X179570000Y-94850000D01*
X178270000Y-94350000D02*
X178270000Y-94850000D01*
X180770000Y-88600000D02*
X180970000Y-88600000D01*
X180970000Y-88600000D02*
X180970000Y-88300000D01*
X180970000Y-88300000D02*
X180770000Y-88300000D01*
X180870000Y-88600000D02*
X180870000Y-88300000D01*
X176770000Y-89800000D02*
X177270000Y-89800000D01*
X177270000Y-89800000D02*
X177270000Y-90000000D01*
X177270000Y-90000000D02*
X176770000Y-90000000D01*
X176770000Y-89900000D02*
X177270000Y-89900000D01*
X176770000Y-91800000D02*
X177270000Y-91800000D01*
X177270000Y-91800000D02*
X177270000Y-92000000D01*
X177270000Y-92000000D02*
X176770000Y-92000000D01*
X176770000Y-91900000D02*
X177270000Y-91900000D01*
X169920000Y-86950000D02*
X174420000Y-86950000D01*
X174420000Y-86950000D02*
X174420000Y-94850000D01*
X174420000Y-94850000D02*
X169920000Y-94850000D01*
X169920000Y-94850000D02*
X169920000Y-86950000D01*
X174420000Y-89400000D02*
X173920000Y-89400000D01*
X173920000Y-89400000D02*
X173920000Y-87450000D01*
X173920000Y-87450000D02*
X170420000Y-87450000D01*
X170420000Y-87450000D02*
X170420000Y-94350000D01*
X170420000Y-94350000D02*
X173920000Y-94350000D01*
X173920000Y-94350000D02*
X173920000Y-92400000D01*
X173920000Y-92400000D02*
X174420000Y-92400000D01*
X173220000Y-86950000D02*
X173220000Y-87450000D01*
X171920000Y-86950000D02*
X171920000Y-87450000D01*
X173220000Y-94350000D02*
X173220000Y-94850000D01*
X171920000Y-94350000D02*
X171920000Y-94850000D01*
X174420000Y-88600000D02*
X174620000Y-88600000D01*
X174620000Y-88600000D02*
X174620000Y-88300000D01*
X174620000Y-88300000D02*
X174420000Y-88300000D01*
X174520000Y-88600000D02*
X174520000Y-88300000D01*
X170420000Y-89800000D02*
X170920000Y-89800000D01*
X170920000Y-89800000D02*
X170920000Y-90000000D01*
X170920000Y-90000000D02*
X170420000Y-90000000D01*
X170420000Y-89900000D02*
X170920000Y-89900000D01*
X170420000Y-91800000D02*
X170920000Y-91800000D01*
X170920000Y-91800000D02*
X170920000Y-92000000D01*
X170920000Y-92000000D02*
X170420000Y-92000000D01*
X170420000Y-91900000D02*
X170920000Y-91900000D01*
X163570000Y-86950000D02*
X168070000Y-86950000D01*
X168070000Y-86950000D02*
X168070000Y-94850000D01*
X168070000Y-94850000D02*
X163570000Y-94850000D01*
X163570000Y-94850000D02*
X163570000Y-86950000D01*
X168070000Y-89400000D02*
X167570000Y-89400000D01*
X167570000Y-89400000D02*
X167570000Y-87450000D01*
X167570000Y-87450000D02*
X164070000Y-87450000D01*
X164070000Y-87450000D02*
X164070000Y-94350000D01*
X164070000Y-94350000D02*
X167570000Y-94350000D01*
X167570000Y-94350000D02*
X167570000Y-92400000D01*
X167570000Y-92400000D02*
X168070000Y-92400000D01*
X166870000Y-86950000D02*
X166870000Y-87450000D01*
X165570000Y-86950000D02*
X165570000Y-87450000D01*
X166870000Y-94350000D02*
X166870000Y-94850000D01*
X165570000Y-94350000D02*
X165570000Y-94850000D01*
X168070000Y-88600000D02*
X168270000Y-88600000D01*
X168270000Y-88600000D02*
X168270000Y-88300000D01*
X168270000Y-88300000D02*
X168070000Y-88300000D01*
X168170000Y-88600000D02*
X168170000Y-88300000D01*
X164070000Y-89800000D02*
X164570000Y-89800000D01*
X164570000Y-89800000D02*
X164570000Y-90000000D01*
X164570000Y-90000000D02*
X164070000Y-90000000D01*
X164070000Y-89900000D02*
X164570000Y-89900000D01*
X164070000Y-91800000D02*
X164570000Y-91800000D01*
X164570000Y-91800000D02*
X164570000Y-92000000D01*
X164570000Y-92000000D02*
X164070000Y-92000000D01*
X164070000Y-91900000D02*
X164570000Y-91900000D01*
X157220000Y-86950000D02*
X161720000Y-86950000D01*
X161720000Y-86950000D02*
X161720000Y-94850000D01*
X161720000Y-94850000D02*
X157220000Y-94850000D01*
X157220000Y-94850000D02*
X157220000Y-86950000D01*
X161720000Y-89400000D02*
X161220000Y-89400000D01*
X161220000Y-89400000D02*
X161220000Y-87450000D01*
X161220000Y-87450000D02*
X157720000Y-87450000D01*
X157720000Y-87450000D02*
X157720000Y-94350000D01*
X157720000Y-94350000D02*
X161220000Y-94350000D01*
X161220000Y-94350000D02*
X161220000Y-92400000D01*
X161220000Y-92400000D02*
X161720000Y-92400000D01*
X160520000Y-86950000D02*
X160520000Y-87450000D01*
X159220000Y-86950000D02*
X159220000Y-87450000D01*
X160520000Y-94350000D02*
X160520000Y-94850000D01*
X159220000Y-94350000D02*
X159220000Y-94850000D01*
X161720000Y-88600000D02*
X161920000Y-88600000D01*
X161920000Y-88600000D02*
X161920000Y-88300000D01*
X161920000Y-88300000D02*
X161720000Y-88300000D01*
X161820000Y-88600000D02*
X161820000Y-88300000D01*
X157720000Y-89800000D02*
X158220000Y-89800000D01*
X158220000Y-89800000D02*
X158220000Y-90000000D01*
X158220000Y-90000000D02*
X157720000Y-90000000D01*
X157720000Y-89900000D02*
X158220000Y-89900000D01*
X157720000Y-91800000D02*
X158220000Y-91800000D01*
X158220000Y-91800000D02*
X158220000Y-92000000D01*
X158220000Y-92000000D02*
X157720000Y-92000000D01*
X157720000Y-91900000D02*
X158220000Y-91900000D01*
X150870000Y-86950000D02*
X155370000Y-86950000D01*
X155370000Y-86950000D02*
X155370000Y-94850000D01*
X155370000Y-94850000D02*
X150870000Y-94850000D01*
X150870000Y-94850000D02*
X150870000Y-86950000D01*
X155370000Y-89400000D02*
X154870000Y-89400000D01*
X154870000Y-89400000D02*
X154870000Y-87450000D01*
X154870000Y-87450000D02*
X151370000Y-87450000D01*
X151370000Y-87450000D02*
X151370000Y-94350000D01*
X151370000Y-94350000D02*
X154870000Y-94350000D01*
X154870000Y-94350000D02*
X154870000Y-92400000D01*
X154870000Y-92400000D02*
X155370000Y-92400000D01*
X154170000Y-86950000D02*
X154170000Y-87450000D01*
X152870000Y-86950000D02*
X152870000Y-87450000D01*
X154170000Y-94350000D02*
X154170000Y-94850000D01*
X152870000Y-94350000D02*
X152870000Y-94850000D01*
X155370000Y-88600000D02*
X155570000Y-88600000D01*
X155570000Y-88600000D02*
X155570000Y-88300000D01*
X155570000Y-88300000D02*
X155370000Y-88300000D01*
X155470000Y-88600000D02*
X155470000Y-88300000D01*
X151370000Y-89800000D02*
X151870000Y-89800000D01*
X151870000Y-89800000D02*
X151870000Y-90000000D01*
X151870000Y-90000000D02*
X151370000Y-90000000D01*
X151370000Y-89900000D02*
X151870000Y-89900000D01*
X151370000Y-91800000D02*
X151870000Y-91800000D01*
X151870000Y-91800000D02*
X151870000Y-92000000D01*
X151870000Y-92000000D02*
X151370000Y-92000000D01*
X151370000Y-91900000D02*
X151870000Y-91900000D01*
X144520000Y-86950000D02*
X149020000Y-86950000D01*
X149020000Y-86950000D02*
X149020000Y-94850000D01*
X149020000Y-94850000D02*
X144520000Y-94850000D01*
X144520000Y-94850000D02*
X144520000Y-86950000D01*
X149020000Y-89400000D02*
X148520000Y-89400000D01*
X148520000Y-89400000D02*
X148520000Y-87450000D01*
X148520000Y-87450000D02*
X145020000Y-87450000D01*
X145020000Y-87450000D02*
X145020000Y-94350000D01*
X145020000Y-94350000D02*
X148520000Y-94350000D01*
X148520000Y-94350000D02*
X148520000Y-92400000D01*
X148520000Y-92400000D02*
X149020000Y-92400000D01*
X147820000Y-86950000D02*
X147820000Y-87450000D01*
X146520000Y-86950000D02*
X146520000Y-87450000D01*
X147820000Y-94350000D02*
X147820000Y-94850000D01*
X146520000Y-94350000D02*
X146520000Y-94850000D01*
X149020000Y-88600000D02*
X149220000Y-88600000D01*
X149220000Y-88600000D02*
X149220000Y-88300000D01*
X149220000Y-88300000D02*
X149020000Y-88300000D01*
X149120000Y-88600000D02*
X149120000Y-88300000D01*
X145020000Y-89800000D02*
X145520000Y-89800000D01*
X145520000Y-89800000D02*
X145520000Y-90000000D01*
X145520000Y-90000000D02*
X145020000Y-90000000D01*
X145020000Y-89900000D02*
X145520000Y-89900000D01*
X145020000Y-91800000D02*
X145520000Y-91800000D01*
X145520000Y-91800000D02*
X145520000Y-92000000D01*
X145520000Y-92000000D02*
X145020000Y-92000000D01*
X145020000Y-91900000D02*
X145520000Y-91900000D01*
X138170000Y-86950000D02*
X142670000Y-86950000D01*
X142670000Y-86950000D02*
X142670000Y-94850000D01*
X142670000Y-94850000D02*
X138170000Y-94850000D01*
X138170000Y-94850000D02*
X138170000Y-86950000D01*
X142670000Y-89400000D02*
X142170000Y-89400000D01*
X142170000Y-89400000D02*
X142170000Y-87450000D01*
X142170000Y-87450000D02*
X138670000Y-87450000D01*
X138670000Y-87450000D02*
X138670000Y-94350000D01*
X138670000Y-94350000D02*
X142170000Y-94350000D01*
X142170000Y-94350000D02*
X142170000Y-92400000D01*
X142170000Y-92400000D02*
X142670000Y-92400000D01*
X141470000Y-86950000D02*
X141470000Y-87450000D01*
X140170000Y-86950000D02*
X140170000Y-87450000D01*
X141470000Y-94350000D02*
X141470000Y-94850000D01*
X140170000Y-94350000D02*
X140170000Y-94850000D01*
X142670000Y-88600000D02*
X142870000Y-88600000D01*
X142870000Y-88600000D02*
X142870000Y-88300000D01*
X142870000Y-88300000D02*
X142670000Y-88300000D01*
X142770000Y-88600000D02*
X142770000Y-88300000D01*
X138670000Y-89800000D02*
X139170000Y-89800000D01*
X139170000Y-89800000D02*
X139170000Y-90000000D01*
X139170000Y-90000000D02*
X138670000Y-90000000D01*
X138670000Y-89900000D02*
X139170000Y-89900000D01*
X138670000Y-91800000D02*
X139170000Y-91800000D01*
X139170000Y-91800000D02*
X139170000Y-92000000D01*
X139170000Y-92000000D02*
X138670000Y-92000000D01*
X138670000Y-91900000D02*
X139170000Y-91900000D01*
X131820000Y-86950000D02*
X136320000Y-86950000D01*
X136320000Y-86950000D02*
X136320000Y-94850000D01*
X136320000Y-94850000D02*
X131820000Y-94850000D01*
X131820000Y-94850000D02*
X131820000Y-86950000D01*
X136320000Y-89400000D02*
X135820000Y-89400000D01*
X135820000Y-89400000D02*
X135820000Y-87450000D01*
X135820000Y-87450000D02*
X132320000Y-87450000D01*
X132320000Y-87450000D02*
X132320000Y-94350000D01*
X132320000Y-94350000D02*
X135820000Y-94350000D01*
X135820000Y-94350000D02*
X135820000Y-92400000D01*
X135820000Y-92400000D02*
X136320000Y-92400000D01*
X135120000Y-86950000D02*
X135120000Y-87450000D01*
X133820000Y-86950000D02*
X133820000Y-87450000D01*
X135120000Y-94350000D02*
X135120000Y-94850000D01*
X133820000Y-94350000D02*
X133820000Y-94850000D01*
X136320000Y-88600000D02*
X136520000Y-88600000D01*
X136520000Y-88600000D02*
X136520000Y-88300000D01*
X136520000Y-88300000D02*
X136320000Y-88300000D01*
X136420000Y-88600000D02*
X136420000Y-88300000D01*
X132320000Y-89800000D02*
X132820000Y-89800000D01*
X132820000Y-89800000D02*
X132820000Y-90000000D01*
X132820000Y-90000000D02*
X132320000Y-90000000D01*
X132320000Y-89900000D02*
X132820000Y-89900000D01*
X132320000Y-91800000D02*
X132820000Y-91800000D01*
X132820000Y-91800000D02*
X132820000Y-92000000D01*
X132820000Y-92000000D02*
X132320000Y-92000000D01*
X132320000Y-91900000D02*
X132820000Y-91900000D01*
X125470000Y-86950000D02*
X129970000Y-86950000D01*
X129970000Y-86950000D02*
X129970000Y-94850000D01*
X129970000Y-94850000D02*
X125470000Y-94850000D01*
X125470000Y-94850000D02*
X125470000Y-86950000D01*
X129970000Y-89400000D02*
X129470000Y-89400000D01*
X129470000Y-89400000D02*
X129470000Y-87450000D01*
X129470000Y-87450000D02*
X125970000Y-87450000D01*
X125970000Y-87450000D02*
X125970000Y-94350000D01*
X125970000Y-94350000D02*
X129470000Y-94350000D01*
X129470000Y-94350000D02*
X129470000Y-92400000D01*
X129470000Y-92400000D02*
X129970000Y-92400000D01*
X128770000Y-86950000D02*
X128770000Y-87450000D01*
X127470000Y-86950000D02*
X127470000Y-87450000D01*
X128770000Y-94350000D02*
X128770000Y-94850000D01*
X127470000Y-94350000D02*
X127470000Y-94850000D01*
X129970000Y-88600000D02*
X130170000Y-88600000D01*
X130170000Y-88600000D02*
X130170000Y-88300000D01*
X130170000Y-88300000D02*
X129970000Y-88300000D01*
X130070000Y-88600000D02*
X130070000Y-88300000D01*
X125970000Y-89800000D02*
X126470000Y-89800000D01*
X126470000Y-89800000D02*
X126470000Y-90000000D01*
X126470000Y-90000000D02*
X125970000Y-90000000D01*
X125970000Y-89900000D02*
X126470000Y-89900000D01*
X125970000Y-91800000D02*
X126470000Y-91800000D01*
X126470000Y-91800000D02*
X126470000Y-92000000D01*
X126470000Y-92000000D02*
X125970000Y-92000000D01*
X125970000Y-91900000D02*
X126470000Y-91900000D01*
X119120000Y-86950000D02*
X123620000Y-86950000D01*
X123620000Y-86950000D02*
X123620000Y-94850000D01*
X123620000Y-94850000D02*
X119120000Y-94850000D01*
X119120000Y-94850000D02*
X119120000Y-86950000D01*
X123620000Y-89400000D02*
X123120000Y-89400000D01*
X123120000Y-89400000D02*
X123120000Y-87450000D01*
X123120000Y-87450000D02*
X119620000Y-87450000D01*
X119620000Y-87450000D02*
X119620000Y-94350000D01*
X119620000Y-94350000D02*
X123120000Y-94350000D01*
X123120000Y-94350000D02*
X123120000Y-92400000D01*
X123120000Y-92400000D02*
X123620000Y-92400000D01*
X122420000Y-86950000D02*
X122420000Y-87450000D01*
X121120000Y-86950000D02*
X121120000Y-87450000D01*
X122420000Y-94350000D02*
X122420000Y-94850000D01*
X121120000Y-94350000D02*
X121120000Y-94850000D01*
X123620000Y-88600000D02*
X123820000Y-88600000D01*
X123820000Y-88600000D02*
X123820000Y-88300000D01*
X123820000Y-88300000D02*
X123620000Y-88300000D01*
X123720000Y-88600000D02*
X123720000Y-88300000D01*
X119620000Y-89800000D02*
X120120000Y-89800000D01*
X120120000Y-89800000D02*
X120120000Y-90000000D01*
X120120000Y-90000000D02*
X119620000Y-90000000D01*
X119620000Y-89900000D02*
X120120000Y-89900000D01*
X119620000Y-91800000D02*
X120120000Y-91800000D01*
X120120000Y-91800000D02*
X120120000Y-92000000D01*
X120120000Y-92000000D02*
X119620000Y-92000000D01*
X119620000Y-91900000D02*
X120120000Y-91900000D01*
X138430000Y-73660000D02*
X148590000Y-73660000D01*
X138430000Y-72390000D02*
X138430000Y-80010000D01*
X138430000Y-80010000D02*
X148590000Y-80010000D01*
X148590000Y-80010000D02*
X148590000Y-72390000D01*
X148590000Y-72390000D02*
X138430000Y-72390000D01*
X112770000Y-86950000D02*
X117270000Y-86950000D01*
X117270000Y-86950000D02*
X117270000Y-94850000D01*
X117270000Y-94850000D02*
X112770000Y-94850000D01*
X112770000Y-94850000D02*
X112770000Y-86950000D01*
X117270000Y-89400000D02*
X116770000Y-89400000D01*
X116770000Y-89400000D02*
X116770000Y-87450000D01*
X116770000Y-87450000D02*
X113270000Y-87450000D01*
X113270000Y-87450000D02*
X113270000Y-94350000D01*
X113270000Y-94350000D02*
X116770000Y-94350000D01*
X116770000Y-94350000D02*
X116770000Y-92400000D01*
X116770000Y-92400000D02*
X117270000Y-92400000D01*
X116070000Y-86950000D02*
X116070000Y-87450000D01*
X114770000Y-86950000D02*
X114770000Y-87450000D01*
X116070000Y-94350000D02*
X116070000Y-94850000D01*
X114770000Y-94350000D02*
X114770000Y-94850000D01*
X117270000Y-88600000D02*
X117470000Y-88600000D01*
X117470000Y-88600000D02*
X117470000Y-88300000D01*
X117470000Y-88300000D02*
X117270000Y-88300000D01*
X117370000Y-88600000D02*
X117370000Y-88300000D01*
X113270000Y-89800000D02*
X113770000Y-89800000D01*
X113770000Y-89800000D02*
X113770000Y-90000000D01*
X113770000Y-90000000D02*
X113270000Y-90000000D01*
X113270000Y-89900000D02*
X113770000Y-89900000D01*
X113270000Y-91800000D02*
X113770000Y-91800000D01*
X113770000Y-91800000D02*
X113770000Y-92000000D01*
X113770000Y-92000000D02*
X113270000Y-92000000D01*
X113270000Y-91900000D02*
X113770000Y-91900000D01*
X106420000Y-86950000D02*
X110920000Y-86950000D01*
X110920000Y-86950000D02*
X110920000Y-94850000D01*
X110920000Y-94850000D02*
X106420000Y-94850000D01*
X106420000Y-94850000D02*
X106420000Y-86950000D01*
X110920000Y-89400000D02*
X110420000Y-89400000D01*
X110420000Y-89400000D02*
X110420000Y-87450000D01*
X110420000Y-87450000D02*
X106920000Y-87450000D01*
X106920000Y-87450000D02*
X106920000Y-94350000D01*
X106920000Y-94350000D02*
X110420000Y-94350000D01*
X110420000Y-94350000D02*
X110420000Y-92400000D01*
X110420000Y-92400000D02*
X110920000Y-92400000D01*
X109720000Y-86950000D02*
X109720000Y-87450000D01*
X108420000Y-86950000D02*
X108420000Y-87450000D01*
X109720000Y-94350000D02*
X109720000Y-94850000D01*
X108420000Y-94350000D02*
X108420000Y-94850000D01*
X110920000Y-88600000D02*
X111120000Y-88600000D01*
X111120000Y-88600000D02*
X111120000Y-88300000D01*
X111120000Y-88300000D02*
X110920000Y-88300000D01*
X111020000Y-88600000D02*
X111020000Y-88300000D01*
X106920000Y-89800000D02*
X107420000Y-89800000D01*
X107420000Y-89800000D02*
X107420000Y-90000000D01*
X107420000Y-90000000D02*
X106920000Y-90000000D01*
X106920000Y-89900000D02*
X107420000Y-89900000D01*
X106920000Y-91800000D02*
X107420000Y-91800000D01*
X107420000Y-91800000D02*
X107420000Y-92000000D01*
X107420000Y-92000000D02*
X106920000Y-92000000D01*
X106920000Y-91900000D02*
X107420000Y-91900000D01*
X100070000Y-86950000D02*
X104570000Y-86950000D01*
X104570000Y-86950000D02*
X104570000Y-94850000D01*
X104570000Y-94850000D02*
X100070000Y-94850000D01*
X100070000Y-94850000D02*
X100070000Y-86950000D01*
X104570000Y-89400000D02*
X104070000Y-89400000D01*
X104070000Y-89400000D02*
X104070000Y-87450000D01*
X104070000Y-87450000D02*
X100570000Y-87450000D01*
X100570000Y-87450000D02*
X100570000Y-94350000D01*
X100570000Y-94350000D02*
X104070000Y-94350000D01*
X104070000Y-94350000D02*
X104070000Y-92400000D01*
X104070000Y-92400000D02*
X104570000Y-92400000D01*
X103370000Y-86950000D02*
X103370000Y-87450000D01*
X102070000Y-86950000D02*
X102070000Y-87450000D01*
X103370000Y-94350000D02*
X103370000Y-94850000D01*
X102070000Y-94350000D02*
X102070000Y-94850000D01*
X104570000Y-88600000D02*
X104770000Y-88600000D01*
X104770000Y-88600000D02*
X104770000Y-88300000D01*
X104770000Y-88300000D02*
X104570000Y-88300000D01*
X104670000Y-88600000D02*
X104670000Y-88300000D01*
X100570000Y-89800000D02*
X101070000Y-89800000D01*
X101070000Y-89800000D02*
X101070000Y-90000000D01*
X101070000Y-90000000D02*
X100570000Y-90000000D01*
X100570000Y-89900000D02*
X101070000Y-89900000D01*
X100570000Y-91800000D02*
X101070000Y-91800000D01*
X101070000Y-91800000D02*
X101070000Y-92000000D01*
X101070000Y-92000000D02*
X100570000Y-92000000D01*
X100570000Y-91900000D02*
X101070000Y-91900000D01*
X93720000Y-86950000D02*
X98220000Y-86950000D01*
X98220000Y-86950000D02*
X98220000Y-94850000D01*
X98220000Y-94850000D02*
X93720000Y-94850000D01*
X93720000Y-94850000D02*
X93720000Y-86950000D01*
X98220000Y-89400000D02*
X97720000Y-89400000D01*
X97720000Y-89400000D02*
X97720000Y-87450000D01*
X97720000Y-87450000D02*
X94220000Y-87450000D01*
X94220000Y-87450000D02*
X94220000Y-94350000D01*
X94220000Y-94350000D02*
X97720000Y-94350000D01*
X97720000Y-94350000D02*
X97720000Y-92400000D01*
X97720000Y-92400000D02*
X98220000Y-92400000D01*
X97020000Y-86950000D02*
X97020000Y-87450000D01*
X95720000Y-86950000D02*
X95720000Y-87450000D01*
X97020000Y-94350000D02*
X97020000Y-94850000D01*
X95720000Y-94350000D02*
X95720000Y-94850000D01*
X98220000Y-88600000D02*
X98420000Y-88600000D01*
X98420000Y-88600000D02*
X98420000Y-88300000D01*
X98420000Y-88300000D02*
X98220000Y-88300000D01*
X98320000Y-88600000D02*
X98320000Y-88300000D01*
X94220000Y-89800000D02*
X94720000Y-89800000D01*
X94720000Y-89800000D02*
X94720000Y-90000000D01*
X94720000Y-90000000D02*
X94220000Y-90000000D01*
X94220000Y-89900000D02*
X94720000Y-89900000D01*
X94220000Y-91800000D02*
X94720000Y-91800000D01*
X94720000Y-91800000D02*
X94720000Y-92000000D01*
X94720000Y-92000000D02*
X94220000Y-92000000D01*
X94220000Y-91900000D02*
X94720000Y-91900000D01*
X132080000Y-114300000D02*
X131572000Y-114300000D01*
X124460000Y-114300000D02*
X124968000Y-114300000D01*
X124968000Y-114300000D02*
X124968000Y-115316000D01*
X124968000Y-115316000D02*
X131572000Y-115316000D01*
X131572000Y-115316000D02*
X131572000Y-113284000D01*
X131572000Y-113284000D02*
X124968000Y-113284000D01*
X124968000Y-113284000D02*
X124968000Y-114300000D01*
X131572000Y-114808000D02*
X131064000Y-115316000D01*
X97536000Y-124460000D02*
G75*
G03X97536000Y-124460000I-2286000J0D01*
G01*
X97536000Y-74930000D02*
G75*
G03X97536000Y-74930000I-2286000J0D01*
G01*
X195326000Y-124460000D02*
G75*
G03X195326000Y-124460000I-2286000J0D01*
G01*
X195326000Y-74930000D02*
G75*
G03X195326000Y-74930000I-2286000J0D01*
G01*
X141287143Y-99206666D02*
X141334762Y-99254285D01*
X141382381Y-99397142D01*
X141382381Y-99492380D01*
X141334762Y-99635238D01*
X141239524Y-99730476D01*
X141144286Y-99778095D01*
X140953810Y-99825714D01*
X140810952Y-99825714D01*
X140620476Y-99778095D01*
X140525238Y-99730476D01*
X140430000Y-99635238D01*
X140382381Y-99492380D01*
X140382381Y-99397142D01*
X140430000Y-99254285D01*
X140477619Y-99206666D01*
X140477619Y-98825714D02*
X140430000Y-98778095D01*
X140382381Y-98682857D01*
X140382381Y-98444761D01*
X140430000Y-98349523D01*
X140477619Y-98301904D01*
X140572857Y-98254285D01*
X140668095Y-98254285D01*
X140810952Y-98301904D01*
X141382381Y-98873333D01*
X141382381Y-98254285D01*
X151602381Y-122658095D02*
X150602381Y-122658095D01*
X150602381Y-122277142D01*
X150650000Y-122181904D01*
X150697619Y-122134285D01*
X150792857Y-122086666D01*
X150935714Y-122086666D01*
X151030952Y-122134285D01*
X151078571Y-122181904D01*
X151126190Y-122277142D01*
X151126190Y-122658095D01*
X151602381Y-121134285D02*
X151602381Y-121705714D01*
X151602381Y-121420000D02*
X150602381Y-121420000D01*
X150745238Y-121515238D01*
X150840476Y-121610476D01*
X150888095Y-121705714D01*
X195222381Y-89638095D02*
X194222381Y-89638095D01*
X194222381Y-89257142D01*
X194270000Y-89161904D01*
X194317619Y-89114285D01*
X194412857Y-89066666D01*
X194555714Y-89066666D01*
X194650952Y-89114285D01*
X194698571Y-89161904D01*
X194746190Y-89257142D01*
X194746190Y-89638095D01*
X194317619Y-88685714D02*
X194270000Y-88638095D01*
X194222381Y-88542857D01*
X194222381Y-88304761D01*
X194270000Y-88209523D01*
X194317619Y-88161904D01*
X194412857Y-88114285D01*
X194508095Y-88114285D01*
X194650952Y-88161904D01*
X195222381Y-88733333D01*
X195222381Y-88114285D01*
X188872381Y-89638095D02*
X187872381Y-89638095D01*
X187872381Y-89257142D01*
X187920000Y-89161904D01*
X187967619Y-89114285D01*
X188062857Y-89066666D01*
X188205714Y-89066666D01*
X188300952Y-89114285D01*
X188348571Y-89161904D01*
X188396190Y-89257142D01*
X188396190Y-89638095D01*
X187872381Y-88733333D02*
X187872381Y-88114285D01*
X188253333Y-88447619D01*
X188253333Y-88304761D01*
X188300952Y-88209523D01*
X188348571Y-88161904D01*
X188443810Y-88114285D01*
X188681905Y-88114285D01*
X188777143Y-88161904D01*
X188824762Y-88209523D01*
X188872381Y-88304761D01*
X188872381Y-88590476D01*
X188824762Y-88685714D01*
X188777143Y-88733333D01*
X182522381Y-89638095D02*
X181522381Y-89638095D01*
X181522381Y-89257142D01*
X181570000Y-89161904D01*
X181617619Y-89114285D01*
X181712857Y-89066666D01*
X181855714Y-89066666D01*
X181950952Y-89114285D01*
X181998571Y-89161904D01*
X182046190Y-89257142D01*
X182046190Y-89638095D01*
X181855714Y-88209523D02*
X182522381Y-88209523D01*
X181474762Y-88447619D02*
X182189048Y-88685714D01*
X182189048Y-88066666D01*
X176172381Y-89638095D02*
X175172381Y-89638095D01*
X175172381Y-89257142D01*
X175220000Y-89161904D01*
X175267619Y-89114285D01*
X175362857Y-89066666D01*
X175505714Y-89066666D01*
X175600952Y-89114285D01*
X175648571Y-89161904D01*
X175696190Y-89257142D01*
X175696190Y-89638095D01*
X175172381Y-88161904D02*
X175172381Y-88638095D01*
X175648571Y-88685714D01*
X175600952Y-88638095D01*
X175553333Y-88542857D01*
X175553333Y-88304761D01*
X175600952Y-88209523D01*
X175648571Y-88161904D01*
X175743810Y-88114285D01*
X175981905Y-88114285D01*
X176077143Y-88161904D01*
X176124762Y-88209523D01*
X176172381Y-88304761D01*
X176172381Y-88542857D01*
X176124762Y-88638095D01*
X176077143Y-88685714D01*
X169822381Y-90114286D02*
X168822381Y-90114286D01*
X168822381Y-89733333D01*
X168870000Y-89638095D01*
X168917619Y-89590476D01*
X169012857Y-89542857D01*
X169155714Y-89542857D01*
X169250952Y-89590476D01*
X169298571Y-89638095D01*
X169346190Y-89733333D01*
X169346190Y-90114286D01*
X169822381Y-88590476D02*
X169822381Y-89161905D01*
X169822381Y-88876191D02*
X168822381Y-88876191D01*
X168965238Y-88971429D01*
X169060476Y-89066667D01*
X169108095Y-89161905D01*
X168822381Y-87971429D02*
X168822381Y-87876190D01*
X168870000Y-87780952D01*
X168917619Y-87733333D01*
X169012857Y-87685714D01*
X169203333Y-87638095D01*
X169441429Y-87638095D01*
X169631905Y-87685714D01*
X169727143Y-87733333D01*
X169774762Y-87780952D01*
X169822381Y-87876190D01*
X169822381Y-87971429D01*
X169774762Y-88066667D01*
X169727143Y-88114286D01*
X169631905Y-88161905D01*
X169441429Y-88209524D01*
X169203333Y-88209524D01*
X169012857Y-88161905D01*
X168917619Y-88114286D01*
X168870000Y-88066667D01*
X168822381Y-87971429D01*
X163472381Y-90114286D02*
X162472381Y-90114286D01*
X162472381Y-89733333D01*
X162520000Y-89638095D01*
X162567619Y-89590476D01*
X162662857Y-89542857D01*
X162805714Y-89542857D01*
X162900952Y-89590476D01*
X162948571Y-89638095D01*
X162996190Y-89733333D01*
X162996190Y-90114286D01*
X163472381Y-88590476D02*
X163472381Y-89161905D01*
X163472381Y-88876191D02*
X162472381Y-88876191D01*
X162615238Y-88971429D01*
X162710476Y-89066667D01*
X162758095Y-89161905D01*
X163472381Y-87638095D02*
X163472381Y-88209524D01*
X163472381Y-87923810D02*
X162472381Y-87923810D01*
X162615238Y-88019048D01*
X162710476Y-88114286D01*
X162758095Y-88209524D01*
X157122381Y-90114286D02*
X156122381Y-90114286D01*
X156122381Y-89733333D01*
X156170000Y-89638095D01*
X156217619Y-89590476D01*
X156312857Y-89542857D01*
X156455714Y-89542857D01*
X156550952Y-89590476D01*
X156598571Y-89638095D01*
X156646190Y-89733333D01*
X156646190Y-90114286D01*
X157122381Y-88590476D02*
X157122381Y-89161905D01*
X157122381Y-88876191D02*
X156122381Y-88876191D01*
X156265238Y-88971429D01*
X156360476Y-89066667D01*
X156408095Y-89161905D01*
X156217619Y-88209524D02*
X156170000Y-88161905D01*
X156122381Y-88066667D01*
X156122381Y-87828571D01*
X156170000Y-87733333D01*
X156217619Y-87685714D01*
X156312857Y-87638095D01*
X156408095Y-87638095D01*
X156550952Y-87685714D01*
X157122381Y-88257143D01*
X157122381Y-87638095D01*
X150772381Y-90114286D02*
X149772381Y-90114286D01*
X149772381Y-89733333D01*
X149820000Y-89638095D01*
X149867619Y-89590476D01*
X149962857Y-89542857D01*
X150105714Y-89542857D01*
X150200952Y-89590476D01*
X150248571Y-89638095D01*
X150296190Y-89733333D01*
X150296190Y-90114286D01*
X150772381Y-88590476D02*
X150772381Y-89161905D01*
X150772381Y-88876191D02*
X149772381Y-88876191D01*
X149915238Y-88971429D01*
X150010476Y-89066667D01*
X150058095Y-89161905D01*
X149772381Y-88257143D02*
X149772381Y-87638095D01*
X150153333Y-87971429D01*
X150153333Y-87828571D01*
X150200952Y-87733333D01*
X150248571Y-87685714D01*
X150343810Y-87638095D01*
X150581905Y-87638095D01*
X150677143Y-87685714D01*
X150724762Y-87733333D01*
X150772381Y-87828571D01*
X150772381Y-88114286D01*
X150724762Y-88209524D01*
X150677143Y-88257143D01*
X144422381Y-90114286D02*
X143422381Y-90114286D01*
X143422381Y-89733333D01*
X143470000Y-89638095D01*
X143517619Y-89590476D01*
X143612857Y-89542857D01*
X143755714Y-89542857D01*
X143850952Y-89590476D01*
X143898571Y-89638095D01*
X143946190Y-89733333D01*
X143946190Y-90114286D01*
X144422381Y-88590476D02*
X144422381Y-89161905D01*
X144422381Y-88876191D02*
X143422381Y-88876191D01*
X143565238Y-88971429D01*
X143660476Y-89066667D01*
X143708095Y-89161905D01*
X143755714Y-87733333D02*
X144422381Y-87733333D01*
X143374762Y-87971429D02*
X144089048Y-88209524D01*
X144089048Y-87590476D01*
X138072381Y-90114286D02*
X137072381Y-90114286D01*
X137072381Y-89733333D01*
X137120000Y-89638095D01*
X137167619Y-89590476D01*
X137262857Y-89542857D01*
X137405714Y-89542857D01*
X137500952Y-89590476D01*
X137548571Y-89638095D01*
X137596190Y-89733333D01*
X137596190Y-90114286D01*
X138072381Y-88590476D02*
X138072381Y-89161905D01*
X138072381Y-88876191D02*
X137072381Y-88876191D01*
X137215238Y-88971429D01*
X137310476Y-89066667D01*
X137358095Y-89161905D01*
X137072381Y-87685714D02*
X137072381Y-88161905D01*
X137548571Y-88209524D01*
X137500952Y-88161905D01*
X137453333Y-88066667D01*
X137453333Y-87828571D01*
X137500952Y-87733333D01*
X137548571Y-87685714D01*
X137643810Y-87638095D01*
X137881905Y-87638095D01*
X137977143Y-87685714D01*
X138024762Y-87733333D01*
X138072381Y-87828571D01*
X138072381Y-88066667D01*
X138024762Y-88161905D01*
X137977143Y-88209524D01*
X131722381Y-90114286D02*
X130722381Y-90114286D01*
X130722381Y-89733333D01*
X130770000Y-89638095D01*
X130817619Y-89590476D01*
X130912857Y-89542857D01*
X131055714Y-89542857D01*
X131150952Y-89590476D01*
X131198571Y-89638095D01*
X131246190Y-89733333D01*
X131246190Y-90114286D01*
X131722381Y-88590476D02*
X131722381Y-89161905D01*
X131722381Y-88876191D02*
X130722381Y-88876191D01*
X130865238Y-88971429D01*
X130960476Y-89066667D01*
X131008095Y-89161905D01*
X130722381Y-87733333D02*
X130722381Y-87923810D01*
X130770000Y-88019048D01*
X130817619Y-88066667D01*
X130960476Y-88161905D01*
X131150952Y-88209524D01*
X131531905Y-88209524D01*
X131627143Y-88161905D01*
X131674762Y-88114286D01*
X131722381Y-88019048D01*
X131722381Y-87828571D01*
X131674762Y-87733333D01*
X131627143Y-87685714D01*
X131531905Y-87638095D01*
X131293810Y-87638095D01*
X131198571Y-87685714D01*
X131150952Y-87733333D01*
X131103333Y-87828571D01*
X131103333Y-88019048D01*
X131150952Y-88114286D01*
X131198571Y-88161905D01*
X131293810Y-88209524D01*
X125372381Y-90114286D02*
X124372381Y-90114286D01*
X124372381Y-89733333D01*
X124420000Y-89638095D01*
X124467619Y-89590476D01*
X124562857Y-89542857D01*
X124705714Y-89542857D01*
X124800952Y-89590476D01*
X124848571Y-89638095D01*
X124896190Y-89733333D01*
X124896190Y-90114286D01*
X125372381Y-88590476D02*
X125372381Y-89161905D01*
X125372381Y-88876191D02*
X124372381Y-88876191D01*
X124515238Y-88971429D01*
X124610476Y-89066667D01*
X124658095Y-89161905D01*
X124372381Y-88257143D02*
X124372381Y-87590476D01*
X125372381Y-88019048D01*
X142295714Y-81732381D02*
X142295714Y-80732381D01*
X142676667Y-80732381D01*
X142771905Y-80780000D01*
X142819524Y-80827619D01*
X142867143Y-80922857D01*
X142867143Y-81065714D01*
X142819524Y-81160952D01*
X142771905Y-81208571D01*
X142676667Y-81256190D01*
X142295714Y-81256190D01*
X143819524Y-81732381D02*
X143248095Y-81732381D01*
X143533809Y-81732381D02*
X143533809Y-80732381D01*
X143438571Y-80875238D01*
X143343333Y-80970476D01*
X143248095Y-81018095D01*
X144390952Y-81160952D02*
X144295714Y-81113333D01*
X144248095Y-81065714D01*
X144200476Y-80970476D01*
X144200476Y-80922857D01*
X144248095Y-80827619D01*
X144295714Y-80780000D01*
X144390952Y-80732381D01*
X144581429Y-80732381D01*
X144676667Y-80780000D01*
X144724286Y-80827619D01*
X144771905Y-80922857D01*
X144771905Y-80970476D01*
X144724286Y-81065714D01*
X144676667Y-81113333D01*
X144581429Y-81160952D01*
X144390952Y-81160952D01*
X144295714Y-81208571D01*
X144248095Y-81256190D01*
X144200476Y-81351429D01*
X144200476Y-81541905D01*
X144248095Y-81637143D01*
X144295714Y-81684762D01*
X144390952Y-81732381D01*
X144581429Y-81732381D01*
X144676667Y-81684762D01*
X144724286Y-81637143D01*
X144771905Y-81541905D01*
X144771905Y-81351429D01*
X144724286Y-81256190D01*
X144676667Y-81208571D01*
X144581429Y-81160952D01*
X119022381Y-90114286D02*
X118022381Y-90114286D01*
X118022381Y-89733333D01*
X118070000Y-89638095D01*
X118117619Y-89590476D01*
X118212857Y-89542857D01*
X118355714Y-89542857D01*
X118450952Y-89590476D01*
X118498571Y-89638095D01*
X118546190Y-89733333D01*
X118546190Y-90114286D01*
X119022381Y-88590476D02*
X119022381Y-89161905D01*
X119022381Y-88876191D02*
X118022381Y-88876191D01*
X118165238Y-88971429D01*
X118260476Y-89066667D01*
X118308095Y-89161905D01*
X119022381Y-88114286D02*
X119022381Y-87923810D01*
X118974762Y-87828571D01*
X118927143Y-87780952D01*
X118784286Y-87685714D01*
X118593810Y-87638095D01*
X118212857Y-87638095D01*
X118117619Y-87685714D01*
X118070000Y-87733333D01*
X118022381Y-87828571D01*
X118022381Y-88019048D01*
X118070000Y-88114286D01*
X118117619Y-88161905D01*
X118212857Y-88209524D01*
X118450952Y-88209524D01*
X118546190Y-88161905D01*
X118593810Y-88114286D01*
X118641429Y-88019048D01*
X118641429Y-87828571D01*
X118593810Y-87733333D01*
X118546190Y-87685714D01*
X118450952Y-87638095D01*
X112672381Y-90114286D02*
X111672381Y-90114286D01*
X111672381Y-89733333D01*
X111720000Y-89638095D01*
X111767619Y-89590476D01*
X111862857Y-89542857D01*
X112005714Y-89542857D01*
X112100952Y-89590476D01*
X112148571Y-89638095D01*
X112196190Y-89733333D01*
X112196190Y-90114286D01*
X111767619Y-89161905D02*
X111720000Y-89114286D01*
X111672381Y-89019048D01*
X111672381Y-88780952D01*
X111720000Y-88685714D01*
X111767619Y-88638095D01*
X111862857Y-88590476D01*
X111958095Y-88590476D01*
X112100952Y-88638095D01*
X112672381Y-89209524D01*
X112672381Y-88590476D01*
X111672381Y-87971429D02*
X111672381Y-87876190D01*
X111720000Y-87780952D01*
X111767619Y-87733333D01*
X111862857Y-87685714D01*
X112053333Y-87638095D01*
X112291429Y-87638095D01*
X112481905Y-87685714D01*
X112577143Y-87733333D01*
X112624762Y-87780952D01*
X112672381Y-87876190D01*
X112672381Y-87971429D01*
X112624762Y-88066667D01*
X112577143Y-88114286D01*
X112481905Y-88161905D01*
X112291429Y-88209524D01*
X112053333Y-88209524D01*
X111862857Y-88161905D01*
X111767619Y-88114286D01*
X111720000Y-88066667D01*
X111672381Y-87971429D01*
X106322381Y-90114286D02*
X105322381Y-90114286D01*
X105322381Y-89733333D01*
X105370000Y-89638095D01*
X105417619Y-89590476D01*
X105512857Y-89542857D01*
X105655714Y-89542857D01*
X105750952Y-89590476D01*
X105798571Y-89638095D01*
X105846190Y-89733333D01*
X105846190Y-90114286D01*
X105417619Y-89161905D02*
X105370000Y-89114286D01*
X105322381Y-89019048D01*
X105322381Y-88780952D01*
X105370000Y-88685714D01*
X105417619Y-88638095D01*
X105512857Y-88590476D01*
X105608095Y-88590476D01*
X105750952Y-88638095D01*
X106322381Y-89209524D01*
X106322381Y-88590476D01*
X106322381Y-87638095D02*
X106322381Y-88209524D01*
X106322381Y-87923810D02*
X105322381Y-87923810D01*
X105465238Y-88019048D01*
X105560476Y-88114286D01*
X105608095Y-88209524D01*
X99972381Y-90114286D02*
X98972381Y-90114286D01*
X98972381Y-89733333D01*
X99020000Y-89638095D01*
X99067619Y-89590476D01*
X99162857Y-89542857D01*
X99305714Y-89542857D01*
X99400952Y-89590476D01*
X99448571Y-89638095D01*
X99496190Y-89733333D01*
X99496190Y-90114286D01*
X99067619Y-89161905D02*
X99020000Y-89114286D01*
X98972381Y-89019048D01*
X98972381Y-88780952D01*
X99020000Y-88685714D01*
X99067619Y-88638095D01*
X99162857Y-88590476D01*
X99258095Y-88590476D01*
X99400952Y-88638095D01*
X99972381Y-89209524D01*
X99972381Y-88590476D01*
X99067619Y-88209524D02*
X99020000Y-88161905D01*
X98972381Y-88066667D01*
X98972381Y-87828571D01*
X99020000Y-87733333D01*
X99067619Y-87685714D01*
X99162857Y-87638095D01*
X99258095Y-87638095D01*
X99400952Y-87685714D01*
X99972381Y-88257143D01*
X99972381Y-87638095D01*
X128103334Y-114625381D02*
X127770000Y-114149190D01*
X127531905Y-114625381D02*
X127531905Y-113625381D01*
X127912858Y-113625381D01*
X128008096Y-113673000D01*
X128055715Y-113720619D01*
X128103334Y-113815857D01*
X128103334Y-113958714D01*
X128055715Y-114053952D01*
X128008096Y-114101571D01*
X127912858Y-114149190D01*
X127531905Y-114149190D01*
X129055715Y-114625381D02*
X128484286Y-114625381D01*
X128770000Y-114625381D02*
X128770000Y-113625381D01*
X128674762Y-113768238D01*
X128579524Y-113863476D01*
X128484286Y-113911095D01*
M02*
