G04 #@! TF.FileFunction,Soldermask,Top*
%FSLAX46Y46*%
G04 Gerber Fmt 4.6, Leading zero omitted, Abs format (unit mm)*
G04 Created by KiCad (PCBNEW 4.0.2+dfsg1-2~bpo8+1-stable) date Sun 16 Jul 2017 04:41:11 PM EEST*
%MOMM*%
G01*
G04 APERTURE LIST*
%ADD10C,0.050000*%
%ADD11R,2.432000X2.127200*%
%ADD12O,2.432000X2.127200*%
%ADD13R,2.127200X2.432000*%
%ADD14O,2.127200X2.432000*%
%ADD15R,2.432000X2.432000*%
%ADD16O,2.432000X2.432000*%
%ADD17C,1.924000*%
%ADD18C,2.200000*%
%ADD19C,4.464000*%
G04 APERTURE END LIST*
D10*
D11*
X147320000Y-99060000D03*
D12*
X147320000Y-101600000D03*
X147320000Y-104140000D03*
X147320000Y-106680000D03*
X147320000Y-109220000D03*
X147320000Y-111760000D03*
X147320000Y-114300000D03*
X147320000Y-116840000D03*
D13*
X129540000Y-138430000D03*
D14*
X132080000Y-138430000D03*
X134620000Y-138430000D03*
X137160000Y-138430000D03*
X139700000Y-138430000D03*
X142240000Y-138430000D03*
X144780000Y-138430000D03*
X147320000Y-138430000D03*
D13*
X127000000Y-71120000D03*
D14*
X129540000Y-71120000D03*
X132080000Y-71120000D03*
X134620000Y-71120000D03*
X137160000Y-71120000D03*
X139700000Y-71120000D03*
X142240000Y-71120000D03*
X144780000Y-71120000D03*
D11*
X144780000Y-99060000D03*
D12*
X144780000Y-101600000D03*
X144780000Y-104140000D03*
X144780000Y-106680000D03*
X144780000Y-109220000D03*
X144780000Y-111760000D03*
X144780000Y-114300000D03*
X144780000Y-116840000D03*
D13*
X127000000Y-133350000D03*
D14*
X129540000Y-133350000D03*
X132080000Y-133350000D03*
X134620000Y-133350000D03*
X137160000Y-133350000D03*
X139700000Y-133350000D03*
X142240000Y-133350000D03*
X144780000Y-133350000D03*
D15*
X144780000Y-90170000D03*
D16*
X144780000Y-92710000D03*
D11*
X147320000Y-71120000D03*
D12*
X147320000Y-73660000D03*
X147320000Y-76200000D03*
X147320000Y-78740000D03*
D15*
X147320000Y-90170000D03*
D16*
X147320000Y-92710000D03*
D17*
X135890000Y-62230000D03*
X133350000Y-62230000D03*
X138430000Y-62230000D03*
D18*
X140970000Y-54610000D03*
X130810000Y-54610000D03*
D17*
X135890000Y-85090000D03*
X133350000Y-85090000D03*
X138430000Y-85090000D03*
D18*
X140970000Y-77470000D03*
X130810000Y-77470000D03*
D17*
X135890000Y-107950000D03*
X133350000Y-107950000D03*
X138430000Y-107950000D03*
D18*
X140970000Y-100330000D03*
X130810000Y-100330000D03*
D17*
X135890000Y-130810000D03*
X133350000Y-130810000D03*
X138430000Y-130810000D03*
D18*
X140970000Y-123190000D03*
X130810000Y-123190000D03*
D19*
X144780000Y-66040000D03*
X125730000Y-138430000D03*
M02*
