G04 #@! TF.FileFunction,Legend,Top*
%FSLAX46Y46*%
G04 Gerber Fmt 4.6, Leading zero omitted, Abs format (unit mm)*
G04 Created by KiCad (PCBNEW 4.0.2+dfsg1-2~bpo8+1-stable) date Sun 16 Jul 2017 04:41:11 PM EEST*
%MOMM*%
G01*
G04 APERTURE LIST*
%ADD10C,0.050000*%
%ADD11C,0.150000*%
G04 APERTURE END LIST*
D10*
D11*
X148590000Y-100330000D02*
X148590000Y-118110000D01*
X148590000Y-118110000D02*
X146050000Y-118110000D01*
X146050000Y-118110000D02*
X146050000Y-100330000D01*
X148870000Y-97510000D02*
X148870000Y-99060000D01*
X148590000Y-100330000D02*
X146050000Y-100330000D01*
X145770000Y-99060000D02*
X145770000Y-97510000D01*
X145770000Y-97510000D02*
X148870000Y-97510000D01*
X130810000Y-137160000D02*
X148590000Y-137160000D01*
X148590000Y-137160000D02*
X148590000Y-139700000D01*
X148590000Y-139700000D02*
X130810000Y-139700000D01*
X127990000Y-136880000D02*
X129540000Y-136880000D01*
X130810000Y-137160000D02*
X130810000Y-139700000D01*
X129540000Y-139980000D02*
X127990000Y-139980000D01*
X127990000Y-139980000D02*
X127990000Y-136880000D01*
X128270000Y-69850000D02*
X146050000Y-69850000D01*
X146050000Y-69850000D02*
X146050000Y-72390000D01*
X146050000Y-72390000D02*
X128270000Y-72390000D01*
X125450000Y-69570000D02*
X127000000Y-69570000D01*
X128270000Y-69850000D02*
X128270000Y-72390000D01*
X127000000Y-72670000D02*
X125450000Y-72670000D01*
X125450000Y-72670000D02*
X125450000Y-69570000D01*
X146050000Y-100330000D02*
X146050000Y-118110000D01*
X146050000Y-118110000D02*
X143510000Y-118110000D01*
X143510000Y-118110000D02*
X143510000Y-100330000D01*
X146330000Y-97510000D02*
X146330000Y-99060000D01*
X146050000Y-100330000D02*
X143510000Y-100330000D01*
X143230000Y-99060000D02*
X143230000Y-97510000D01*
X143230000Y-97510000D02*
X146330000Y-97510000D01*
X128270000Y-132080000D02*
X146050000Y-132080000D01*
X146050000Y-132080000D02*
X146050000Y-134620000D01*
X146050000Y-134620000D02*
X128270000Y-134620000D01*
X125450000Y-131800000D02*
X127000000Y-131800000D01*
X128270000Y-132080000D02*
X128270000Y-134620000D01*
X127000000Y-134900000D02*
X125450000Y-134900000D01*
X125450000Y-134900000D02*
X125450000Y-131800000D01*
X146050000Y-91440000D02*
X146050000Y-93980000D01*
X146330000Y-88620000D02*
X146330000Y-90170000D01*
X146050000Y-91440000D02*
X143510000Y-91440000D01*
X143230000Y-90170000D02*
X143230000Y-88620000D01*
X143230000Y-88620000D02*
X146330000Y-88620000D01*
X143510000Y-91440000D02*
X143510000Y-93980000D01*
X143510000Y-93980000D02*
X146050000Y-93980000D01*
X146050000Y-72390000D02*
X146050000Y-80010000D01*
X148590000Y-72390000D02*
X148590000Y-80010000D01*
X148870000Y-69570000D02*
X148870000Y-71120000D01*
X146050000Y-80010000D02*
X148590000Y-80010000D01*
X148590000Y-72390000D02*
X146050000Y-72390000D01*
X145770000Y-71120000D02*
X145770000Y-69570000D01*
X145770000Y-69570000D02*
X148870000Y-69570000D01*
X148590000Y-91440000D02*
X148590000Y-93980000D01*
X148870000Y-88620000D02*
X148870000Y-90170000D01*
X148590000Y-91440000D02*
X146050000Y-91440000D01*
X145770000Y-90170000D02*
X145770000Y-88620000D01*
X145770000Y-88620000D02*
X148870000Y-88620000D01*
X146050000Y-91440000D02*
X146050000Y-93980000D01*
X146050000Y-93980000D02*
X148590000Y-93980000D01*
X138729806Y-54610000D02*
G75*
G03X138729806Y-54610000I-2839806J0D01*
G01*
X140970000Y-50800000D02*
X140970000Y-62230000D01*
X140970000Y-62230000D02*
X130810000Y-62230000D01*
X130810000Y-62230000D02*
X130810000Y-50800000D01*
X130810000Y-50800000D02*
X140970000Y-50800000D01*
X138729806Y-77470000D02*
G75*
G03X138729806Y-77470000I-2839806J0D01*
G01*
X140970000Y-73660000D02*
X140970000Y-85090000D01*
X140970000Y-85090000D02*
X130810000Y-85090000D01*
X130810000Y-85090000D02*
X130810000Y-73660000D01*
X130810000Y-73660000D02*
X140970000Y-73660000D01*
X138729806Y-100330000D02*
G75*
G03X138729806Y-100330000I-2839806J0D01*
G01*
X140970000Y-96520000D02*
X140970000Y-107950000D01*
X140970000Y-107950000D02*
X130810000Y-107950000D01*
X130810000Y-107950000D02*
X130810000Y-96520000D01*
X130810000Y-96520000D02*
X140970000Y-96520000D01*
X138729806Y-123190000D02*
G75*
G03X138729806Y-123190000I-2839806J0D01*
G01*
X140970000Y-119380000D02*
X140970000Y-130810000D01*
X140970000Y-130810000D02*
X130810000Y-130810000D01*
X130810000Y-130810000D02*
X130810000Y-119380000D01*
X130810000Y-119380000D02*
X140970000Y-119380000D01*
X147066000Y-66040000D02*
G75*
G03X147066000Y-66040000I-2286000J0D01*
G01*
X128016000Y-138430000D02*
G75*
G03X128016000Y-138430000I-2286000J0D01*
G01*
X146581905Y-94412381D02*
X146581905Y-93412381D01*
X146962858Y-93412381D01*
X147058096Y-93460000D01*
X147105715Y-93507619D01*
X147153334Y-93602857D01*
X147153334Y-93745714D01*
X147105715Y-93840952D01*
X147058096Y-93888571D01*
X146962858Y-93936190D01*
X146581905Y-93936190D01*
X148105715Y-94412381D02*
X147534286Y-94412381D01*
X147820000Y-94412381D02*
X147820000Y-93412381D01*
X147724762Y-93555238D01*
X147629524Y-93650476D01*
X147534286Y-93698095D01*
X124892381Y-139168095D02*
X123892381Y-139168095D01*
X123892381Y-138787142D01*
X123940000Y-138691904D01*
X123987619Y-138644285D01*
X124082857Y-138596666D01*
X124225714Y-138596666D01*
X124320952Y-138644285D01*
X124368571Y-138691904D01*
X124416190Y-138787142D01*
X124416190Y-139168095D01*
X123987619Y-138215714D02*
X123940000Y-138168095D01*
X123892381Y-138072857D01*
X123892381Y-137834761D01*
X123940000Y-137739523D01*
X123987619Y-137691904D01*
X124082857Y-137644285D01*
X124178095Y-137644285D01*
X124320952Y-137691904D01*
X124892381Y-138263333D01*
X124892381Y-137644285D01*
X122352381Y-71858095D02*
X121352381Y-71858095D01*
X121352381Y-71477142D01*
X121400000Y-71381904D01*
X121447619Y-71334285D01*
X121542857Y-71286666D01*
X121685714Y-71286666D01*
X121780952Y-71334285D01*
X121828571Y-71381904D01*
X121876190Y-71477142D01*
X121876190Y-71858095D01*
X121352381Y-70953333D02*
X121352381Y-70334285D01*
X121733333Y-70667619D01*
X121733333Y-70524761D01*
X121780952Y-70429523D01*
X121828571Y-70381904D01*
X121923810Y-70334285D01*
X122161905Y-70334285D01*
X122257143Y-70381904D01*
X122304762Y-70429523D01*
X122352381Y-70524761D01*
X122352381Y-70810476D01*
X122304762Y-70905714D01*
X122257143Y-70953333D01*
X144041905Y-94412381D02*
X144041905Y-93412381D01*
X144422858Y-93412381D01*
X144518096Y-93460000D01*
X144565715Y-93507619D01*
X144613334Y-93602857D01*
X144613334Y-93745714D01*
X144565715Y-93840952D01*
X144518096Y-93888571D01*
X144422858Y-93936190D01*
X144041905Y-93936190D01*
X145470477Y-93745714D02*
X145470477Y-94412381D01*
X145232381Y-93364762D02*
X144994286Y-94079048D01*
X145613334Y-94079048D01*
X122352381Y-134088095D02*
X121352381Y-134088095D01*
X121352381Y-133707142D01*
X121400000Y-133611904D01*
X121447619Y-133564285D01*
X121542857Y-133516666D01*
X121685714Y-133516666D01*
X121780952Y-133564285D01*
X121828571Y-133611904D01*
X121876190Y-133707142D01*
X121876190Y-134088095D01*
X121352381Y-132611904D02*
X121352381Y-133088095D01*
X121828571Y-133135714D01*
X121780952Y-133088095D01*
X121733333Y-132992857D01*
X121733333Y-132754761D01*
X121780952Y-132659523D01*
X121828571Y-132611904D01*
X121923810Y-132564285D01*
X122161905Y-132564285D01*
X122257143Y-132611904D01*
X122304762Y-132659523D01*
X122352381Y-132754761D01*
X122352381Y-132992857D01*
X122304762Y-133088095D01*
X122257143Y-133135714D01*
X144041905Y-85522381D02*
X144041905Y-84522381D01*
X144422858Y-84522381D01*
X144518096Y-84570000D01*
X144565715Y-84617619D01*
X144613334Y-84712857D01*
X144613334Y-84855714D01*
X144565715Y-84950952D01*
X144518096Y-84998571D01*
X144422858Y-85046190D01*
X144041905Y-85046190D01*
X145470477Y-84522381D02*
X145280000Y-84522381D01*
X145184762Y-84570000D01*
X145137143Y-84617619D01*
X145041905Y-84760476D01*
X144994286Y-84950952D01*
X144994286Y-85331905D01*
X145041905Y-85427143D01*
X145089524Y-85474762D01*
X145184762Y-85522381D01*
X145375239Y-85522381D01*
X145470477Y-85474762D01*
X145518096Y-85427143D01*
X145565715Y-85331905D01*
X145565715Y-85093810D01*
X145518096Y-84998571D01*
X145470477Y-84950952D01*
X145375239Y-84903333D01*
X145184762Y-84903333D01*
X145089524Y-84950952D01*
X145041905Y-84998571D01*
X144994286Y-85093810D01*
X146581905Y-66472381D02*
X146581905Y-65472381D01*
X146962858Y-65472381D01*
X147058096Y-65520000D01*
X147105715Y-65567619D01*
X147153334Y-65662857D01*
X147153334Y-65805714D01*
X147105715Y-65900952D01*
X147058096Y-65948571D01*
X146962858Y-65996190D01*
X146581905Y-65996190D01*
X147486667Y-65472381D02*
X148153334Y-65472381D01*
X147724762Y-66472381D01*
X146581905Y-85522381D02*
X146581905Y-84522381D01*
X146962858Y-84522381D01*
X147058096Y-84570000D01*
X147105715Y-84617619D01*
X147153334Y-84712857D01*
X147153334Y-84855714D01*
X147105715Y-84950952D01*
X147058096Y-84998571D01*
X146962858Y-85046190D01*
X146581905Y-85046190D01*
X147724762Y-84950952D02*
X147629524Y-84903333D01*
X147581905Y-84855714D01*
X147534286Y-84760476D01*
X147534286Y-84712857D01*
X147581905Y-84617619D01*
X147629524Y-84570000D01*
X147724762Y-84522381D01*
X147915239Y-84522381D01*
X148010477Y-84570000D01*
X148058096Y-84617619D01*
X148105715Y-84712857D01*
X148105715Y-84760476D01*
X148058096Y-84855714D01*
X148010477Y-84903333D01*
X147915239Y-84950952D01*
X147724762Y-84950952D01*
X147629524Y-84998571D01*
X147581905Y-85046190D01*
X147534286Y-85141429D01*
X147534286Y-85331905D01*
X147581905Y-85427143D01*
X147629524Y-85474762D01*
X147724762Y-85522381D01*
X147915239Y-85522381D01*
X148010477Y-85474762D01*
X148058096Y-85427143D01*
X148105715Y-85331905D01*
X148105715Y-85141429D01*
X148058096Y-85046190D01*
X148010477Y-84998571D01*
X147915239Y-84950952D01*
M02*
