G04 #@! TF.FileFunction,Copper,L2,Bot,Signal*
%FSLAX46Y46*%
G04 Gerber Fmt 4.6, Leading zero omitted, Abs format (unit mm)*
G04 Created by KiCad (PCBNEW 4.0.2+dfsg1-2~bpo8+1-stable) date Mon 04 Sep 2017 01:59:48 PM EEST*
%MOMM*%
G01*
G04 APERTURE LIST*
%ADD10C,0.050000*%
%ADD11R,2.032000X1.727200*%
%ADD12O,2.032000X1.727200*%
%ADD13R,1.727200X2.032000*%
%ADD14O,1.727200X2.032000*%
%ADD15R,2.032000X2.032000*%
%ADD16O,2.032000X2.032000*%
%ADD17C,1.524000*%
%ADD18C,1.800000*%
%ADD19C,4.064000*%
%ADD20C,1.397000*%
%ADD21C,0.600000*%
%ADD22C,0.300000*%
%ADD23C,0.254000*%
G04 APERTURE END LIST*
D10*
D11*
X147320000Y-99060000D03*
D12*
X147320000Y-101600000D03*
X147320000Y-104140000D03*
X147320000Y-106680000D03*
X147320000Y-109220000D03*
X147320000Y-111760000D03*
X147320000Y-114300000D03*
X147320000Y-116840000D03*
D13*
X129540000Y-138430000D03*
D14*
X132080000Y-138430000D03*
X134620000Y-138430000D03*
X137160000Y-138430000D03*
X139700000Y-138430000D03*
X142240000Y-138430000D03*
X144780000Y-138430000D03*
X147320000Y-138430000D03*
D13*
X127000000Y-71120000D03*
D14*
X129540000Y-71120000D03*
X132080000Y-71120000D03*
X134620000Y-71120000D03*
X137160000Y-71120000D03*
X139700000Y-71120000D03*
X142240000Y-71120000D03*
X144780000Y-71120000D03*
D11*
X144780000Y-99060000D03*
D12*
X144780000Y-101600000D03*
X144780000Y-104140000D03*
X144780000Y-106680000D03*
X144780000Y-109220000D03*
X144780000Y-111760000D03*
X144780000Y-114300000D03*
X144780000Y-116840000D03*
D13*
X127000000Y-133350000D03*
D14*
X129540000Y-133350000D03*
X132080000Y-133350000D03*
X134620000Y-133350000D03*
X137160000Y-133350000D03*
X139700000Y-133350000D03*
X142240000Y-133350000D03*
X144780000Y-133350000D03*
D15*
X144780000Y-90170000D03*
D16*
X144780000Y-92710000D03*
D11*
X147320000Y-71120000D03*
D12*
X147320000Y-73660000D03*
X147320000Y-76200000D03*
X147320000Y-78740000D03*
D15*
X147320000Y-90170000D03*
D16*
X147320000Y-92710000D03*
D17*
X135890000Y-62230000D03*
X133350000Y-62230000D03*
X138430000Y-62230000D03*
D18*
X140970000Y-54610000D03*
X130810000Y-54610000D03*
D17*
X135890000Y-85090000D03*
X133350000Y-85090000D03*
X138430000Y-85090000D03*
D18*
X140970000Y-77470000D03*
X130810000Y-77470000D03*
D17*
X135890000Y-107950000D03*
X133350000Y-107950000D03*
X138430000Y-107950000D03*
D18*
X140970000Y-100330000D03*
X130810000Y-100330000D03*
D17*
X135890000Y-130810000D03*
X133350000Y-130810000D03*
X138430000Y-130810000D03*
D18*
X140970000Y-123190000D03*
X130810000Y-123190000D03*
D19*
X144780000Y-66040000D03*
X125730000Y-138430000D03*
D20*
X144780000Y-73660000D03*
X144780000Y-76200000D03*
X142240000Y-73660000D03*
X142240000Y-76200000D03*
X139700000Y-68580000D03*
X139700000Y-66040000D03*
X137160000Y-68580000D03*
X137160000Y-66040000D03*
D21*
X127000000Y-66040000D03*
X140970000Y-87630000D03*
X138430000Y-92710000D03*
X130810000Y-82550000D03*
X129540000Y-90805000D03*
X133985000Y-115570000D03*
X140970000Y-67310000D03*
D22*
X135890000Y-62230000D02*
X135890000Y-63500000D01*
X128270000Y-64770000D02*
X127000000Y-66040000D01*
X134620000Y-64770000D02*
X128270000Y-64770000D01*
X135890000Y-63500000D02*
X134620000Y-64770000D01*
X140970000Y-77470000D02*
X142240000Y-76200000D01*
X137160000Y-66040000D02*
X135890000Y-66040000D01*
X124460000Y-68580000D02*
X124460000Y-62230000D01*
X133350000Y-68580000D02*
X124460000Y-68580000D01*
X135890000Y-66040000D02*
X133350000Y-68580000D01*
X139700000Y-66040000D02*
X144780000Y-66040000D01*
X137160000Y-66040000D02*
X139700000Y-66040000D01*
X130810000Y-54610000D02*
X140970000Y-54610000D01*
X130810000Y-54610000D02*
X130810000Y-62230000D01*
X133350000Y-62230000D02*
X130810000Y-62230000D01*
X130810000Y-62230000D02*
X124460000Y-62230000D01*
X144780000Y-66675000D02*
X144780000Y-66040000D01*
X124460000Y-79375000D02*
X127635000Y-79375000D01*
X124460000Y-62230000D02*
X124460000Y-79375000D01*
X140970000Y-100330000D02*
X140970000Y-123190000D01*
X125730000Y-138430000D02*
X125730000Y-137795000D01*
X125730000Y-137795000D02*
X124460000Y-136525000D01*
X124460000Y-130810000D02*
X127635000Y-130810000D01*
X124460000Y-136525000D02*
X124460000Y-130810000D01*
X140970000Y-123190000D02*
X147320000Y-123190000D01*
X147320000Y-123190000D02*
X147320000Y-135890000D01*
X147320000Y-135890000D02*
X127635000Y-135890000D01*
X127635000Y-135890000D02*
X125730000Y-137795000D01*
X133350000Y-130810000D02*
X127635000Y-130810000D01*
X127635000Y-130810000D02*
X127635000Y-123190000D01*
X130810000Y-123190000D02*
X127635000Y-123190000D01*
X127635000Y-123190000D02*
X127635000Y-107950000D01*
X133350000Y-107950000D02*
X127635000Y-107950000D01*
X127635000Y-107950000D02*
X127635000Y-100330000D01*
X130810000Y-100330000D02*
X127635000Y-100330000D01*
X127635000Y-100330000D02*
X127635000Y-85090000D01*
X130810000Y-77470000D02*
X128905000Y-77470000D01*
X127635000Y-85090000D02*
X133350000Y-85090000D01*
X127635000Y-78740000D02*
X127635000Y-79375000D01*
X127635000Y-79375000D02*
X127635000Y-85090000D01*
X128905000Y-77470000D02*
X127635000Y-78740000D01*
X140970000Y-77470000D02*
X130810000Y-77470000D01*
X140970000Y-87630000D02*
X140970000Y-77470000D01*
X138430000Y-62230000D02*
X147955000Y-62230000D01*
X147955000Y-62230000D02*
X149225000Y-63500000D01*
X149225000Y-63500000D02*
X149225000Y-85725000D01*
X149225000Y-85725000D02*
X146685000Y-88265000D01*
X146685000Y-88265000D02*
X142240000Y-88265000D01*
X142240000Y-88265000D02*
X140970000Y-89535000D01*
X140970000Y-89535000D02*
X138430000Y-89535000D01*
X138430000Y-130810000D02*
X138430000Y-107950000D01*
X138430000Y-107950000D02*
X138430000Y-89535000D01*
X138430000Y-89535000D02*
X138430000Y-85090000D01*
X138430000Y-92710000D02*
X138430000Y-85090000D01*
X135890000Y-85090000D02*
X135890000Y-83820000D01*
X134620000Y-82550000D02*
X130810000Y-82550000D01*
X135890000Y-83820000D02*
X134620000Y-82550000D01*
X135890000Y-85090000D02*
X135890000Y-85090000D01*
X135890000Y-107950000D02*
X135890000Y-97155000D01*
X135890000Y-97155000D02*
X129540000Y-90805000D01*
X135890000Y-130810000D02*
X135890000Y-117475000D01*
X135890000Y-117475000D02*
X133985000Y-115570000D01*
X140970000Y-67310000D02*
X143510000Y-69850000D01*
X143510000Y-69850000D02*
X143510000Y-77470000D01*
X143510000Y-77470000D02*
X144780000Y-78740000D01*
X144780000Y-78740000D02*
X147320000Y-78740000D01*
D23*
G36*
X149150000Y-62314842D02*
X148510079Y-61674921D01*
X148255407Y-61504755D01*
X147955000Y-61445000D01*
X139617201Y-61445000D01*
X139615010Y-61439697D01*
X139222370Y-61046371D01*
X138709100Y-60833243D01*
X138153339Y-60832758D01*
X137639697Y-61044990D01*
X137246371Y-61437630D01*
X137160051Y-61645512D01*
X137075010Y-61439697D01*
X136682370Y-61046371D01*
X136169100Y-60833243D01*
X135613339Y-60832758D01*
X135099697Y-61044990D01*
X134706371Y-61437630D01*
X134626605Y-61629727D01*
X134572397Y-61498857D01*
X134330213Y-61429392D01*
X133529605Y-62230000D01*
X134330213Y-63030608D01*
X134572397Y-62961143D01*
X134622509Y-62820682D01*
X134704990Y-63020303D01*
X134982022Y-63297820D01*
X134294842Y-63985000D01*
X128270000Y-63985000D01*
X127969593Y-64044755D01*
X127714921Y-64214921D01*
X126824995Y-65104847D01*
X126814833Y-65104838D01*
X126471057Y-65246883D01*
X126207808Y-65509673D01*
X126065162Y-65853201D01*
X126064838Y-66225167D01*
X126206883Y-66568943D01*
X126469673Y-66832192D01*
X126813201Y-66974838D01*
X127185167Y-66975162D01*
X127528943Y-66833117D01*
X127792192Y-66570327D01*
X127934838Y-66226799D01*
X127934848Y-66215310D01*
X128302678Y-65847480D01*
X135814073Y-65847480D01*
X135842852Y-66377199D01*
X135990200Y-66732929D01*
X136225812Y-66794583D01*
X136980395Y-66040000D01*
X137339605Y-66040000D01*
X138094188Y-66794583D01*
X138329800Y-66732929D01*
X138421859Y-66471371D01*
X138530200Y-66732929D01*
X138765812Y-66794583D01*
X139520395Y-66040000D01*
X138765812Y-65285417D01*
X138530200Y-65347071D01*
X138438141Y-65608629D01*
X138329800Y-65347071D01*
X138094188Y-65285417D01*
X137339605Y-66040000D01*
X136980395Y-66040000D01*
X136225812Y-65285417D01*
X135990200Y-65347071D01*
X135814073Y-65847480D01*
X128302678Y-65847480D01*
X128595158Y-65555000D01*
X134620000Y-65555000D01*
X134920407Y-65495245D01*
X135175079Y-65325079D01*
X135394346Y-65105812D01*
X136405417Y-65105812D01*
X137160000Y-65860395D01*
X137914583Y-65105812D01*
X138945417Y-65105812D01*
X139700000Y-65860395D01*
X140454583Y-65105812D01*
X140392929Y-64870200D01*
X139892520Y-64694073D01*
X139362801Y-64722852D01*
X139007071Y-64870200D01*
X138945417Y-65105812D01*
X137914583Y-65105812D01*
X137852929Y-64870200D01*
X137352520Y-64694073D01*
X136822801Y-64722852D01*
X136467071Y-64870200D01*
X136405417Y-65105812D01*
X135394346Y-65105812D01*
X136358279Y-64141879D01*
X143061484Y-64141879D01*
X144780000Y-65860395D01*
X146498516Y-64141879D01*
X146273846Y-63767832D01*
X145290612Y-63369120D01*
X144229643Y-63377025D01*
X143286154Y-63767832D01*
X143061484Y-64141879D01*
X136358279Y-64141879D01*
X136445079Y-64055079D01*
X136615245Y-63800407D01*
X136675000Y-63500000D01*
X136675000Y-63417201D01*
X136680303Y-63415010D01*
X137073629Y-63022370D01*
X137159949Y-62814488D01*
X137244990Y-63020303D01*
X137637630Y-63413629D01*
X138150900Y-63626757D01*
X138706661Y-63627242D01*
X139220303Y-63415010D01*
X139613629Y-63022370D01*
X139616689Y-63015000D01*
X147629842Y-63015000D01*
X148440000Y-63825158D01*
X148440000Y-69630021D01*
X148336000Y-69608960D01*
X146304000Y-69608960D01*
X146068683Y-69653238D01*
X145852559Y-69792310D01*
X145809454Y-69855396D01*
X145353489Y-69550729D01*
X144780000Y-69436655D01*
X144232543Y-69545551D01*
X144065079Y-69294921D01*
X142708279Y-67938121D01*
X143061484Y-67938121D01*
X143286154Y-68312168D01*
X144269388Y-68710880D01*
X145330357Y-68702975D01*
X146273846Y-68312168D01*
X146498516Y-67938121D01*
X144780000Y-66219605D01*
X143061484Y-67938121D01*
X142708279Y-67938121D01*
X141905153Y-67134995D01*
X141905162Y-67124833D01*
X141763117Y-66781057D01*
X141500327Y-66517808D01*
X141156799Y-66375162D01*
X140995771Y-66375022D01*
X141045927Y-66232520D01*
X141017148Y-65702801D01*
X140945319Y-65529388D01*
X142109120Y-65529388D01*
X142117025Y-66590357D01*
X142507832Y-67533846D01*
X142881879Y-67758516D01*
X144600395Y-66040000D01*
X144959605Y-66040000D01*
X146678121Y-67758516D01*
X147052168Y-67533846D01*
X147450880Y-66550612D01*
X147442975Y-65489643D01*
X147052168Y-64546154D01*
X146678121Y-64321484D01*
X144959605Y-66040000D01*
X144600395Y-66040000D01*
X142881879Y-64321484D01*
X142507832Y-64546154D01*
X142109120Y-65529388D01*
X140945319Y-65529388D01*
X140869800Y-65347071D01*
X140634188Y-65285417D01*
X139879605Y-66040000D01*
X139893748Y-66054143D01*
X139714143Y-66233748D01*
X139700000Y-66219605D01*
X138945417Y-66974188D01*
X139007071Y-67209800D01*
X139286312Y-67308083D01*
X138945620Y-67448854D01*
X138570173Y-67823647D01*
X138429906Y-68161446D01*
X138291146Y-67825620D01*
X137916353Y-67450173D01*
X137594882Y-67316686D01*
X137852929Y-67209800D01*
X137914583Y-66974188D01*
X137160000Y-66219605D01*
X136405417Y-66974188D01*
X136467071Y-67209800D01*
X136746312Y-67308083D01*
X136405620Y-67448854D01*
X136030173Y-67823647D01*
X135826732Y-68313587D01*
X135826269Y-68844086D01*
X136028854Y-69334380D01*
X136381543Y-69687684D01*
X136100330Y-69875585D01*
X135890000Y-70190366D01*
X135679670Y-69875585D01*
X135193489Y-69550729D01*
X134620000Y-69436655D01*
X134046511Y-69550729D01*
X133560330Y-69875585D01*
X133350000Y-70190366D01*
X133139670Y-69875585D01*
X132653489Y-69550729D01*
X132080000Y-69436655D01*
X131506511Y-69550729D01*
X131020330Y-69875585D01*
X130810000Y-70190366D01*
X130599670Y-69875585D01*
X130113489Y-69550729D01*
X129540000Y-69436655D01*
X128966511Y-69550729D01*
X128480330Y-69875585D01*
X128470757Y-69889913D01*
X128466762Y-69868683D01*
X128327690Y-69652559D01*
X128115490Y-69507569D01*
X127863600Y-69456560D01*
X126136400Y-69456560D01*
X125901083Y-69500838D01*
X125684959Y-69639910D01*
X125539969Y-69852110D01*
X125488960Y-70104000D01*
X125488960Y-72136000D01*
X125533238Y-72371317D01*
X125672310Y-72587441D01*
X125884510Y-72732431D01*
X126136400Y-72783440D01*
X127863600Y-72783440D01*
X128098917Y-72739162D01*
X128315041Y-72600090D01*
X128460031Y-72387890D01*
X128468400Y-72346561D01*
X128480330Y-72364415D01*
X128966511Y-72689271D01*
X129540000Y-72803345D01*
X130113489Y-72689271D01*
X130599670Y-72364415D01*
X130810000Y-72049634D01*
X131020330Y-72364415D01*
X131506511Y-72689271D01*
X132080000Y-72803345D01*
X132653489Y-72689271D01*
X133139670Y-72364415D01*
X133350000Y-72049634D01*
X133560330Y-72364415D01*
X134046511Y-72689271D01*
X134620000Y-72803345D01*
X135193489Y-72689271D01*
X135679670Y-72364415D01*
X135890000Y-72049634D01*
X136100330Y-72364415D01*
X136586511Y-72689271D01*
X137160000Y-72803345D01*
X137733489Y-72689271D01*
X138219670Y-72364415D01*
X138430000Y-72049634D01*
X138640330Y-72364415D01*
X139126511Y-72689271D01*
X139700000Y-72803345D01*
X140273489Y-72689271D01*
X140759670Y-72364415D01*
X140970000Y-72049634D01*
X141180330Y-72364415D01*
X141461887Y-72552546D01*
X141110173Y-72903647D01*
X140906732Y-73393587D01*
X140906269Y-73924086D01*
X141108854Y-74414380D01*
X141483647Y-74789827D01*
X141805118Y-74923314D01*
X141547071Y-75030200D01*
X141485417Y-75265812D01*
X142240000Y-76020395D01*
X142254143Y-76006253D01*
X142433748Y-76185858D01*
X142419605Y-76200000D01*
X142433748Y-76214143D01*
X142254143Y-76393748D01*
X142240000Y-76379605D01*
X141149605Y-77470000D01*
X142050159Y-78370554D01*
X142306643Y-78284148D01*
X142516458Y-77710664D01*
X142508489Y-77520881D01*
X142577199Y-77517148D01*
X142725000Y-77455927D01*
X142725000Y-77470000D01*
X142784755Y-77770407D01*
X142954921Y-78025079D01*
X144224921Y-79295079D01*
X144479593Y-79465245D01*
X144780000Y-79525000D01*
X145892056Y-79525000D01*
X146075585Y-79799670D01*
X146561766Y-80124526D01*
X147135255Y-80238600D01*
X147504745Y-80238600D01*
X148078234Y-80124526D01*
X148440000Y-79882802D01*
X148440000Y-85399842D01*
X146359842Y-87480000D01*
X142240000Y-87480000D01*
X141939593Y-87539755D01*
X141684921Y-87709921D01*
X140644842Y-88750000D01*
X139215000Y-88750000D01*
X139215000Y-86277201D01*
X139220303Y-86275010D01*
X139613629Y-85882370D01*
X139826757Y-85369100D01*
X139827242Y-84813339D01*
X139615010Y-84299697D01*
X139222370Y-83906371D01*
X138709100Y-83693243D01*
X138153339Y-83692758D01*
X137639697Y-83904990D01*
X137246371Y-84297630D01*
X137160051Y-84505512D01*
X137075010Y-84299697D01*
X136682370Y-83906371D01*
X136675000Y-83903311D01*
X136675000Y-83820000D01*
X136615245Y-83519594D01*
X136615245Y-83519593D01*
X136445079Y-83264921D01*
X135175079Y-81994921D01*
X134920407Y-81824755D01*
X134620000Y-81765000D01*
X131347506Y-81765000D01*
X131340327Y-81757808D01*
X130996799Y-81615162D01*
X130624833Y-81614838D01*
X130281057Y-81756883D01*
X130017808Y-82019673D01*
X129875162Y-82363201D01*
X129874838Y-82735167D01*
X130016883Y-83078943D01*
X130279673Y-83342192D01*
X130623201Y-83484838D01*
X130995167Y-83485162D01*
X131338943Y-83343117D01*
X131347074Y-83335000D01*
X134294842Y-83335000D01*
X134982162Y-84022320D01*
X134706371Y-84297630D01*
X134626605Y-84489727D01*
X134572397Y-84358857D01*
X134330213Y-84289392D01*
X133529605Y-85090000D01*
X134330213Y-85890608D01*
X134572397Y-85821143D01*
X134622509Y-85680682D01*
X134704990Y-85880303D01*
X135097630Y-86273629D01*
X135610900Y-86486757D01*
X136166661Y-86487242D01*
X136680303Y-86275010D01*
X137073629Y-85882370D01*
X137159949Y-85674488D01*
X137244990Y-85880303D01*
X137637630Y-86273629D01*
X137645000Y-86276689D01*
X137645000Y-92172494D01*
X137637808Y-92179673D01*
X137495162Y-92523201D01*
X137494838Y-92895167D01*
X137636883Y-93238943D01*
X137645000Y-93247074D01*
X137645000Y-106762799D01*
X137639697Y-106764990D01*
X137246371Y-107157630D01*
X137160051Y-107365512D01*
X137075010Y-107159697D01*
X136682370Y-106766371D01*
X136675000Y-106763311D01*
X136675000Y-97155000D01*
X136615245Y-96854594D01*
X136615245Y-96854593D01*
X136445079Y-96599921D01*
X130475153Y-90629995D01*
X130475162Y-90619833D01*
X130333117Y-90276057D01*
X130070327Y-90012808D01*
X129726799Y-89870162D01*
X129354833Y-89869838D01*
X129011057Y-90011883D01*
X128747808Y-90274673D01*
X128605162Y-90618201D01*
X128604838Y-90990167D01*
X128746883Y-91333943D01*
X129009673Y-91597192D01*
X129353201Y-91739838D01*
X129364690Y-91739848D01*
X135105000Y-97480158D01*
X135105000Y-106762799D01*
X135099697Y-106764990D01*
X134706371Y-107157630D01*
X134626605Y-107349727D01*
X134572397Y-107218857D01*
X134330213Y-107149392D01*
X133529605Y-107950000D01*
X134330213Y-108750608D01*
X134572397Y-108681143D01*
X134622509Y-108540682D01*
X134704990Y-108740303D01*
X135097630Y-109133629D01*
X135610900Y-109346757D01*
X136166661Y-109347242D01*
X136680303Y-109135010D01*
X137073629Y-108742370D01*
X137159949Y-108534488D01*
X137244990Y-108740303D01*
X137637630Y-109133629D01*
X137645000Y-109136689D01*
X137645000Y-129622799D01*
X137639697Y-129624990D01*
X137246371Y-130017630D01*
X137160051Y-130225512D01*
X137075010Y-130019697D01*
X136682370Y-129626371D01*
X136675000Y-129623311D01*
X136675000Y-117475000D01*
X136615245Y-117174594D01*
X136445079Y-116919921D01*
X134920153Y-115394995D01*
X134920162Y-115384833D01*
X134778117Y-115041057D01*
X134515327Y-114777808D01*
X134171799Y-114635162D01*
X133799833Y-114634838D01*
X133456057Y-114776883D01*
X133192808Y-115039673D01*
X133050162Y-115383201D01*
X133049838Y-115755167D01*
X133191883Y-116098943D01*
X133454673Y-116362192D01*
X133798201Y-116504838D01*
X133809690Y-116504848D01*
X135105000Y-117800158D01*
X135105000Y-129622799D01*
X135099697Y-129624990D01*
X134706371Y-130017630D01*
X134626605Y-130209727D01*
X134572397Y-130078857D01*
X134330213Y-130009392D01*
X133529605Y-130810000D01*
X133543748Y-130824143D01*
X133364143Y-131003748D01*
X133350000Y-130989605D01*
X133335858Y-131003748D01*
X133156253Y-130824143D01*
X133170395Y-130810000D01*
X132369787Y-130009392D01*
X132127603Y-130078857D01*
X131940856Y-130602302D01*
X131968638Y-131157368D01*
X132127603Y-131541143D01*
X132369785Y-131610607D01*
X132274957Y-131705435D01*
X132080000Y-131666655D01*
X131506511Y-131780729D01*
X131020330Y-132105585D01*
X130810000Y-132420366D01*
X130599670Y-132105585D01*
X130113489Y-131780729D01*
X129540000Y-131666655D01*
X128966511Y-131780729D01*
X128480330Y-132105585D01*
X128470757Y-132119913D01*
X128466762Y-132098683D01*
X128327690Y-131882559D01*
X128115490Y-131737569D01*
X127863600Y-131686560D01*
X126136400Y-131686560D01*
X125901083Y-131730838D01*
X125684959Y-131869910D01*
X125539969Y-132082110D01*
X125488960Y-132334000D01*
X125488960Y-134366000D01*
X125533238Y-134601317D01*
X125672310Y-134817441D01*
X125884510Y-134962431D01*
X126136400Y-135013440D01*
X127863600Y-135013440D01*
X128098917Y-134969162D01*
X128315041Y-134830090D01*
X128460031Y-134617890D01*
X128468400Y-134576561D01*
X128480330Y-134594415D01*
X128966511Y-134919271D01*
X129540000Y-135033345D01*
X130113489Y-134919271D01*
X130599670Y-134594415D01*
X130810000Y-134279634D01*
X131020330Y-134594415D01*
X131506511Y-134919271D01*
X132080000Y-135033345D01*
X132653489Y-134919271D01*
X133139670Y-134594415D01*
X133350000Y-134279634D01*
X133560330Y-134594415D01*
X134046511Y-134919271D01*
X134620000Y-135033345D01*
X135193489Y-134919271D01*
X135679670Y-134594415D01*
X135890000Y-134279634D01*
X136100330Y-134594415D01*
X136586511Y-134919271D01*
X137160000Y-135033345D01*
X137733489Y-134919271D01*
X138219670Y-134594415D01*
X138430000Y-134279634D01*
X138640330Y-134594415D01*
X139126511Y-134919271D01*
X139700000Y-135033345D01*
X140273489Y-134919271D01*
X140759670Y-134594415D01*
X140970000Y-134279634D01*
X141180330Y-134594415D01*
X141666511Y-134919271D01*
X142240000Y-135033345D01*
X142813489Y-134919271D01*
X143299670Y-134594415D01*
X143510000Y-134279634D01*
X143720330Y-134594415D01*
X144206511Y-134919271D01*
X144780000Y-135033345D01*
X145353489Y-134919271D01*
X145839670Y-134594415D01*
X146164526Y-134108234D01*
X146278600Y-133534745D01*
X146278600Y-133165255D01*
X146164526Y-132591766D01*
X145839670Y-132105585D01*
X145353489Y-131780729D01*
X144780000Y-131666655D01*
X144206511Y-131780729D01*
X143720330Y-132105585D01*
X143510000Y-132420366D01*
X143299670Y-132105585D01*
X142813489Y-131780729D01*
X142240000Y-131666655D01*
X141666511Y-131780729D01*
X141180330Y-132105585D01*
X140970000Y-132420366D01*
X140759670Y-132105585D01*
X140273489Y-131780729D01*
X139700000Y-131666655D01*
X139511714Y-131704107D01*
X139613629Y-131602370D01*
X139826757Y-131089100D01*
X139827242Y-130533339D01*
X139615010Y-130019697D01*
X139222370Y-129626371D01*
X139215000Y-129623311D01*
X139215000Y-124270159D01*
X140069446Y-124270159D01*
X140155852Y-124526643D01*
X140729336Y-124736458D01*
X141339460Y-124710839D01*
X141784148Y-124526643D01*
X141870554Y-124270159D01*
X140970000Y-123369605D01*
X140069446Y-124270159D01*
X139215000Y-124270159D01*
X139215000Y-122949336D01*
X139423542Y-122949336D01*
X139449161Y-123559460D01*
X139633357Y-124004148D01*
X139889841Y-124090554D01*
X140790395Y-123190000D01*
X141149605Y-123190000D01*
X142050159Y-124090554D01*
X142306643Y-124004148D01*
X142516458Y-123430664D01*
X142490839Y-122820540D01*
X142306643Y-122375852D01*
X142050159Y-122289446D01*
X141149605Y-123190000D01*
X140790395Y-123190000D01*
X139889841Y-122289446D01*
X139633357Y-122375852D01*
X139423542Y-122949336D01*
X139215000Y-122949336D01*
X139215000Y-122109841D01*
X140069446Y-122109841D01*
X140970000Y-123010395D01*
X141870554Y-122109841D01*
X141784148Y-121853357D01*
X141210664Y-121643542D01*
X140600540Y-121669161D01*
X140155852Y-121853357D01*
X140069446Y-122109841D01*
X139215000Y-122109841D01*
X139215000Y-109137201D01*
X139220303Y-109135010D01*
X139613629Y-108742370D01*
X139826757Y-108229100D01*
X139827242Y-107673339D01*
X139615010Y-107159697D01*
X139222370Y-106766371D01*
X139215000Y-106763311D01*
X139215000Y-101410159D01*
X140069446Y-101410159D01*
X140155852Y-101666643D01*
X140729336Y-101876458D01*
X141339460Y-101850839D01*
X141784148Y-101666643D01*
X141806599Y-101600000D01*
X143096655Y-101600000D01*
X143210729Y-102173489D01*
X143535585Y-102659670D01*
X143850366Y-102870000D01*
X143535585Y-103080330D01*
X143210729Y-103566511D01*
X143096655Y-104140000D01*
X143210729Y-104713489D01*
X143535585Y-105199670D01*
X143850366Y-105410000D01*
X143535585Y-105620330D01*
X143210729Y-106106511D01*
X143096655Y-106680000D01*
X143210729Y-107253489D01*
X143535585Y-107739670D01*
X143850366Y-107950000D01*
X143535585Y-108160330D01*
X143210729Y-108646511D01*
X143096655Y-109220000D01*
X143210729Y-109793489D01*
X143535585Y-110279670D01*
X143850366Y-110490000D01*
X143535585Y-110700330D01*
X143210729Y-111186511D01*
X143096655Y-111760000D01*
X143210729Y-112333489D01*
X143535585Y-112819670D01*
X143850366Y-113030000D01*
X143535585Y-113240330D01*
X143210729Y-113726511D01*
X143096655Y-114300000D01*
X143210729Y-114873489D01*
X143535585Y-115359670D01*
X143850366Y-115570000D01*
X143535585Y-115780330D01*
X143210729Y-116266511D01*
X143096655Y-116840000D01*
X143210729Y-117413489D01*
X143535585Y-117899670D01*
X144021766Y-118224526D01*
X144595255Y-118338600D01*
X144964745Y-118338600D01*
X145538234Y-118224526D01*
X146024415Y-117899670D01*
X146050000Y-117861379D01*
X146075585Y-117899670D01*
X146561766Y-118224526D01*
X147135255Y-118338600D01*
X147504745Y-118338600D01*
X148078234Y-118224526D01*
X148564415Y-117899670D01*
X148889271Y-117413489D01*
X149003345Y-116840000D01*
X148889271Y-116266511D01*
X148564415Y-115780330D01*
X148249634Y-115570000D01*
X148564415Y-115359670D01*
X148889271Y-114873489D01*
X149003345Y-114300000D01*
X148889271Y-113726511D01*
X148564415Y-113240330D01*
X148249634Y-113030000D01*
X148564415Y-112819670D01*
X148889271Y-112333489D01*
X149003345Y-111760000D01*
X148889271Y-111186511D01*
X148564415Y-110700330D01*
X148249634Y-110490000D01*
X148564415Y-110279670D01*
X148889271Y-109793489D01*
X149003345Y-109220000D01*
X148889271Y-108646511D01*
X148564415Y-108160330D01*
X148249634Y-107950000D01*
X148564415Y-107739670D01*
X148889271Y-107253489D01*
X149003345Y-106680000D01*
X148889271Y-106106511D01*
X148564415Y-105620330D01*
X148249634Y-105410000D01*
X148564415Y-105199670D01*
X148889271Y-104713489D01*
X149003345Y-104140000D01*
X148889271Y-103566511D01*
X148564415Y-103080330D01*
X148249634Y-102870000D01*
X148564415Y-102659670D01*
X148889271Y-102173489D01*
X149003345Y-101600000D01*
X148889271Y-101026511D01*
X148564415Y-100540330D01*
X148550087Y-100530757D01*
X148571317Y-100526762D01*
X148787441Y-100387690D01*
X148932431Y-100175490D01*
X148983440Y-99923600D01*
X148983440Y-98196400D01*
X148939162Y-97961083D01*
X148800090Y-97744959D01*
X148587890Y-97599969D01*
X148336000Y-97548960D01*
X146304000Y-97548960D01*
X146068683Y-97593238D01*
X146052901Y-97603393D01*
X146047890Y-97599969D01*
X145796000Y-97548960D01*
X143764000Y-97548960D01*
X143528683Y-97593238D01*
X143312559Y-97732310D01*
X143167569Y-97944510D01*
X143116560Y-98196400D01*
X143116560Y-99923600D01*
X143160838Y-100158917D01*
X143299910Y-100375041D01*
X143512110Y-100520031D01*
X143553439Y-100528400D01*
X143535585Y-100540330D01*
X143210729Y-101026511D01*
X143096655Y-101600000D01*
X141806599Y-101600000D01*
X141870554Y-101410159D01*
X140970000Y-100509605D01*
X140069446Y-101410159D01*
X139215000Y-101410159D01*
X139215000Y-100089336D01*
X139423542Y-100089336D01*
X139449161Y-100699460D01*
X139633357Y-101144148D01*
X139889841Y-101230554D01*
X140790395Y-100330000D01*
X141149605Y-100330000D01*
X142050159Y-101230554D01*
X142306643Y-101144148D01*
X142516458Y-100570664D01*
X142490839Y-99960540D01*
X142306643Y-99515852D01*
X142050159Y-99429446D01*
X141149605Y-100330000D01*
X140790395Y-100330000D01*
X139889841Y-99429446D01*
X139633357Y-99515852D01*
X139423542Y-100089336D01*
X139215000Y-100089336D01*
X139215000Y-99249841D01*
X140069446Y-99249841D01*
X140970000Y-100150395D01*
X141870554Y-99249841D01*
X141784148Y-98993357D01*
X141210664Y-98783542D01*
X140600540Y-98809161D01*
X140155852Y-98993357D01*
X140069446Y-99249841D01*
X139215000Y-99249841D01*
X139215000Y-93247506D01*
X139222192Y-93240327D01*
X139364838Y-92896799D01*
X139365000Y-92710000D01*
X143096655Y-92710000D01*
X143222330Y-93341810D01*
X143580222Y-93877433D01*
X144115845Y-94235325D01*
X144747655Y-94361000D01*
X144812345Y-94361000D01*
X145444155Y-94235325D01*
X145979778Y-93877433D01*
X146050000Y-93772338D01*
X146120222Y-93877433D01*
X146655845Y-94235325D01*
X147287655Y-94361000D01*
X147352345Y-94361000D01*
X147984155Y-94235325D01*
X148519778Y-93877433D01*
X148877670Y-93341810D01*
X149003345Y-92710000D01*
X148877670Y-92078190D01*
X148653034Y-91741999D01*
X148695698Y-91724327D01*
X148874327Y-91545699D01*
X148971000Y-91312310D01*
X148971000Y-90455750D01*
X148812250Y-90297000D01*
X147447000Y-90297000D01*
X147447000Y-90317000D01*
X147193000Y-90317000D01*
X147193000Y-90297000D01*
X144907000Y-90297000D01*
X144907000Y-90317000D01*
X144653000Y-90317000D01*
X144653000Y-90297000D01*
X143287750Y-90297000D01*
X143129000Y-90455750D01*
X143129000Y-91312310D01*
X143225673Y-91545699D01*
X143404302Y-91724327D01*
X143446966Y-91741999D01*
X143222330Y-92078190D01*
X143096655Y-92710000D01*
X139365000Y-92710000D01*
X139365162Y-92524833D01*
X139223117Y-92181057D01*
X139215000Y-92172926D01*
X139215000Y-90320000D01*
X140970000Y-90320000D01*
X141270407Y-90260245D01*
X141525079Y-90090079D01*
X142565158Y-89050000D01*
X143129000Y-89050000D01*
X143129000Y-89884250D01*
X143287750Y-90043000D01*
X144653000Y-90043000D01*
X144653000Y-90023000D01*
X144907000Y-90023000D01*
X144907000Y-90043000D01*
X147193000Y-90043000D01*
X147193000Y-90023000D01*
X147447000Y-90023000D01*
X147447000Y-90043000D01*
X148812250Y-90043000D01*
X148971000Y-89884250D01*
X148971000Y-89027690D01*
X148874327Y-88794301D01*
X148695698Y-88615673D01*
X148462309Y-88519000D01*
X147605750Y-88519000D01*
X147447002Y-88677748D01*
X147447002Y-88613156D01*
X149150000Y-86910158D01*
X149150000Y-140260000D01*
X127739608Y-140260000D01*
X127628123Y-140148515D01*
X128002168Y-139923846D01*
X128089971Y-139707321D01*
X128212310Y-139897441D01*
X128424510Y-140042431D01*
X128676400Y-140093440D01*
X130403600Y-140093440D01*
X130638917Y-140049162D01*
X130855041Y-139910090D01*
X131000031Y-139697890D01*
X131008400Y-139656561D01*
X131020330Y-139674415D01*
X131506511Y-139999271D01*
X132080000Y-140113345D01*
X132653489Y-139999271D01*
X133139670Y-139674415D01*
X133350000Y-139359634D01*
X133560330Y-139674415D01*
X134046511Y-139999271D01*
X134620000Y-140113345D01*
X135193489Y-139999271D01*
X135679670Y-139674415D01*
X135890000Y-139359634D01*
X136100330Y-139674415D01*
X136586511Y-139999271D01*
X137160000Y-140113345D01*
X137733489Y-139999271D01*
X138219670Y-139674415D01*
X138430000Y-139359634D01*
X138640330Y-139674415D01*
X139126511Y-139999271D01*
X139700000Y-140113345D01*
X140273489Y-139999271D01*
X140759670Y-139674415D01*
X140970000Y-139359634D01*
X141180330Y-139674415D01*
X141666511Y-139999271D01*
X142240000Y-140113345D01*
X142813489Y-139999271D01*
X143299670Y-139674415D01*
X143510000Y-139359634D01*
X143720330Y-139674415D01*
X144206511Y-139999271D01*
X144780000Y-140113345D01*
X145353489Y-139999271D01*
X145839670Y-139674415D01*
X146050000Y-139359634D01*
X146260330Y-139674415D01*
X146746511Y-139999271D01*
X147320000Y-140113345D01*
X147893489Y-139999271D01*
X148379670Y-139674415D01*
X148704526Y-139188234D01*
X148818600Y-138614745D01*
X148818600Y-138245255D01*
X148704526Y-137671766D01*
X148379670Y-137185585D01*
X147893489Y-136860729D01*
X147320000Y-136746655D01*
X146746511Y-136860729D01*
X146260330Y-137185585D01*
X146050000Y-137500366D01*
X145839670Y-137185585D01*
X145353489Y-136860729D01*
X144780000Y-136746655D01*
X144206511Y-136860729D01*
X143720330Y-137185585D01*
X143510000Y-137500366D01*
X143299670Y-137185585D01*
X142813489Y-136860729D01*
X142240000Y-136746655D01*
X141666511Y-136860729D01*
X141180330Y-137185585D01*
X140970000Y-137500366D01*
X140759670Y-137185585D01*
X140273489Y-136860729D01*
X139700000Y-136746655D01*
X139126511Y-136860729D01*
X138640330Y-137185585D01*
X138430000Y-137500366D01*
X138219670Y-137185585D01*
X137733489Y-136860729D01*
X137160000Y-136746655D01*
X136586511Y-136860729D01*
X136100330Y-137185585D01*
X135890000Y-137500366D01*
X135679670Y-137185585D01*
X135193489Y-136860729D01*
X134620000Y-136746655D01*
X134046511Y-136860729D01*
X133560330Y-137185585D01*
X133350000Y-137500366D01*
X133139670Y-137185585D01*
X132653489Y-136860729D01*
X132080000Y-136746655D01*
X131506511Y-136860729D01*
X131020330Y-137185585D01*
X131010757Y-137199913D01*
X131006762Y-137178683D01*
X130867690Y-136962559D01*
X130655490Y-136817569D01*
X130403600Y-136766560D01*
X128676400Y-136766560D01*
X128441083Y-136810838D01*
X128224959Y-136949910D01*
X128089802Y-137147720D01*
X128002168Y-136936154D01*
X127628121Y-136711484D01*
X125909605Y-138430000D01*
X125923748Y-138444143D01*
X125744143Y-138623748D01*
X125730000Y-138609605D01*
X125715858Y-138623748D01*
X125536253Y-138444143D01*
X125550395Y-138430000D01*
X125536253Y-138415858D01*
X125715858Y-138236253D01*
X125730000Y-138250395D01*
X127448516Y-136531879D01*
X127223846Y-136157832D01*
X126240612Y-135759120D01*
X125179643Y-135767025D01*
X124236154Y-136157832D01*
X124011485Y-136531877D01*
X123900000Y-136420392D01*
X123900000Y-129829787D01*
X132549392Y-129829787D01*
X133350000Y-130630395D01*
X134150608Y-129829787D01*
X134081143Y-129587603D01*
X133557698Y-129400856D01*
X133002632Y-129428638D01*
X132618857Y-129587603D01*
X132549392Y-129829787D01*
X123900000Y-129829787D01*
X123900000Y-124270159D01*
X129909446Y-124270159D01*
X129995852Y-124526643D01*
X130569336Y-124736458D01*
X131179460Y-124710839D01*
X131624148Y-124526643D01*
X131710554Y-124270159D01*
X130810000Y-123369605D01*
X129909446Y-124270159D01*
X123900000Y-124270159D01*
X123900000Y-122949336D01*
X129263542Y-122949336D01*
X129289161Y-123559460D01*
X129473357Y-124004148D01*
X129729841Y-124090554D01*
X130630395Y-123190000D01*
X130989605Y-123190000D01*
X131890159Y-124090554D01*
X132146643Y-124004148D01*
X132356458Y-123430664D01*
X132330839Y-122820540D01*
X132146643Y-122375852D01*
X131890159Y-122289446D01*
X130989605Y-123190000D01*
X130630395Y-123190000D01*
X129729841Y-122289446D01*
X129473357Y-122375852D01*
X129263542Y-122949336D01*
X123900000Y-122949336D01*
X123900000Y-122109841D01*
X129909446Y-122109841D01*
X130810000Y-123010395D01*
X131710554Y-122109841D01*
X131624148Y-121853357D01*
X131050664Y-121643542D01*
X130440540Y-121669161D01*
X129995852Y-121853357D01*
X129909446Y-122109841D01*
X123900000Y-122109841D01*
X123900000Y-108930213D01*
X132549392Y-108930213D01*
X132618857Y-109172397D01*
X133142302Y-109359144D01*
X133697368Y-109331362D01*
X134081143Y-109172397D01*
X134150608Y-108930213D01*
X133350000Y-108129605D01*
X132549392Y-108930213D01*
X123900000Y-108930213D01*
X123900000Y-107742302D01*
X131940856Y-107742302D01*
X131968638Y-108297368D01*
X132127603Y-108681143D01*
X132369787Y-108750608D01*
X133170395Y-107950000D01*
X132369787Y-107149392D01*
X132127603Y-107218857D01*
X131940856Y-107742302D01*
X123900000Y-107742302D01*
X123900000Y-106969787D01*
X132549392Y-106969787D01*
X133350000Y-107770395D01*
X134150608Y-106969787D01*
X134081143Y-106727603D01*
X133557698Y-106540856D01*
X133002632Y-106568638D01*
X132618857Y-106727603D01*
X132549392Y-106969787D01*
X123900000Y-106969787D01*
X123900000Y-101410159D01*
X129909446Y-101410159D01*
X129995852Y-101666643D01*
X130569336Y-101876458D01*
X131179460Y-101850839D01*
X131624148Y-101666643D01*
X131710554Y-101410159D01*
X130810000Y-100509605D01*
X129909446Y-101410159D01*
X123900000Y-101410159D01*
X123900000Y-100089336D01*
X129263542Y-100089336D01*
X129289161Y-100699460D01*
X129473357Y-101144148D01*
X129729841Y-101230554D01*
X130630395Y-100330000D01*
X130989605Y-100330000D01*
X131890159Y-101230554D01*
X132146643Y-101144148D01*
X132356458Y-100570664D01*
X132330839Y-99960540D01*
X132146643Y-99515852D01*
X131890159Y-99429446D01*
X130989605Y-100330000D01*
X130630395Y-100330000D01*
X129729841Y-99429446D01*
X129473357Y-99515852D01*
X129263542Y-100089336D01*
X123900000Y-100089336D01*
X123900000Y-99249841D01*
X129909446Y-99249841D01*
X130810000Y-100150395D01*
X131710554Y-99249841D01*
X131624148Y-98993357D01*
X131050664Y-98783542D01*
X130440540Y-98809161D01*
X129995852Y-98993357D01*
X129909446Y-99249841D01*
X123900000Y-99249841D01*
X123900000Y-86070213D01*
X132549392Y-86070213D01*
X132618857Y-86312397D01*
X133142302Y-86499144D01*
X133697368Y-86471362D01*
X134081143Y-86312397D01*
X134150608Y-86070213D01*
X133350000Y-85269605D01*
X132549392Y-86070213D01*
X123900000Y-86070213D01*
X123900000Y-84882302D01*
X131940856Y-84882302D01*
X131968638Y-85437368D01*
X132127603Y-85821143D01*
X132369787Y-85890608D01*
X133170395Y-85090000D01*
X132369787Y-84289392D01*
X132127603Y-84358857D01*
X131940856Y-84882302D01*
X123900000Y-84882302D01*
X123900000Y-84109787D01*
X132549392Y-84109787D01*
X133350000Y-84910395D01*
X134150608Y-84109787D01*
X134081143Y-83867603D01*
X133557698Y-83680856D01*
X133002632Y-83708638D01*
X132618857Y-83867603D01*
X132549392Y-84109787D01*
X123900000Y-84109787D01*
X123900000Y-78550159D01*
X129909446Y-78550159D01*
X129995852Y-78806643D01*
X130569336Y-79016458D01*
X131179460Y-78990839D01*
X131624148Y-78806643D01*
X131710554Y-78550159D01*
X140069446Y-78550159D01*
X140155852Y-78806643D01*
X140729336Y-79016458D01*
X141339460Y-78990839D01*
X141784148Y-78806643D01*
X141870554Y-78550159D01*
X140970000Y-77649605D01*
X140069446Y-78550159D01*
X131710554Y-78550159D01*
X130810000Y-77649605D01*
X129909446Y-78550159D01*
X123900000Y-78550159D01*
X123900000Y-77229336D01*
X129263542Y-77229336D01*
X129289161Y-77839460D01*
X129473357Y-78284148D01*
X129729841Y-78370554D01*
X130630395Y-77470000D01*
X130989605Y-77470000D01*
X131890159Y-78370554D01*
X132146643Y-78284148D01*
X132356458Y-77710664D01*
X132336248Y-77229336D01*
X139423542Y-77229336D01*
X139449161Y-77839460D01*
X139633357Y-78284148D01*
X139889841Y-78370554D01*
X140790395Y-77470000D01*
X139889841Y-76569446D01*
X139633357Y-76655852D01*
X139423542Y-77229336D01*
X132336248Y-77229336D01*
X132330839Y-77100540D01*
X132146643Y-76655852D01*
X131890159Y-76569446D01*
X130989605Y-77470000D01*
X130630395Y-77470000D01*
X129729841Y-76569446D01*
X129473357Y-76655852D01*
X129263542Y-77229336D01*
X123900000Y-77229336D01*
X123900000Y-76389841D01*
X129909446Y-76389841D01*
X130810000Y-77290395D01*
X131710554Y-76389841D01*
X140069446Y-76389841D01*
X140970000Y-77290395D01*
X142060395Y-76200000D01*
X141305812Y-75445417D01*
X141070200Y-75507071D01*
X140919310Y-75935776D01*
X140600540Y-75949161D01*
X140155852Y-76133357D01*
X140069446Y-76389841D01*
X131710554Y-76389841D01*
X131624148Y-76133357D01*
X131050664Y-75923542D01*
X130440540Y-75949161D01*
X129995852Y-76133357D01*
X129909446Y-76389841D01*
X123900000Y-76389841D01*
X123900000Y-63210213D01*
X132549392Y-63210213D01*
X132618857Y-63452397D01*
X133142302Y-63639144D01*
X133697368Y-63611362D01*
X134081143Y-63452397D01*
X134150608Y-63210213D01*
X133350000Y-62409605D01*
X132549392Y-63210213D01*
X123900000Y-63210213D01*
X123900000Y-62022302D01*
X131940856Y-62022302D01*
X131968638Y-62577368D01*
X132127603Y-62961143D01*
X132369787Y-63030608D01*
X133170395Y-62230000D01*
X132369787Y-61429392D01*
X132127603Y-61498857D01*
X131940856Y-62022302D01*
X123900000Y-62022302D01*
X123900000Y-61249787D01*
X132549392Y-61249787D01*
X133350000Y-62050395D01*
X134150608Y-61249787D01*
X134081143Y-61007603D01*
X133557698Y-60820856D01*
X133002632Y-60848638D01*
X132618857Y-61007603D01*
X132549392Y-61249787D01*
X123900000Y-61249787D01*
X123900000Y-55690159D01*
X129909446Y-55690159D01*
X129995852Y-55946643D01*
X130569336Y-56156458D01*
X131179460Y-56130839D01*
X131624148Y-55946643D01*
X131710554Y-55690159D01*
X140069446Y-55690159D01*
X140155852Y-55946643D01*
X140729336Y-56156458D01*
X141339460Y-56130839D01*
X141784148Y-55946643D01*
X141870554Y-55690159D01*
X140970000Y-54789605D01*
X140069446Y-55690159D01*
X131710554Y-55690159D01*
X130810000Y-54789605D01*
X129909446Y-55690159D01*
X123900000Y-55690159D01*
X123900000Y-54369336D01*
X129263542Y-54369336D01*
X129289161Y-54979460D01*
X129473357Y-55424148D01*
X129729841Y-55510554D01*
X130630395Y-54610000D01*
X130989605Y-54610000D01*
X131890159Y-55510554D01*
X132146643Y-55424148D01*
X132356458Y-54850664D01*
X132336248Y-54369336D01*
X139423542Y-54369336D01*
X139449161Y-54979460D01*
X139633357Y-55424148D01*
X139889841Y-55510554D01*
X140790395Y-54610000D01*
X141149605Y-54610000D01*
X142050159Y-55510554D01*
X142306643Y-55424148D01*
X142516458Y-54850664D01*
X142490839Y-54240540D01*
X142306643Y-53795852D01*
X142050159Y-53709446D01*
X141149605Y-54610000D01*
X140790395Y-54610000D01*
X139889841Y-53709446D01*
X139633357Y-53795852D01*
X139423542Y-54369336D01*
X132336248Y-54369336D01*
X132330839Y-54240540D01*
X132146643Y-53795852D01*
X131890159Y-53709446D01*
X130989605Y-54610000D01*
X130630395Y-54610000D01*
X129729841Y-53709446D01*
X129473357Y-53795852D01*
X129263542Y-54369336D01*
X123900000Y-54369336D01*
X123900000Y-53529841D01*
X129909446Y-53529841D01*
X130810000Y-54430395D01*
X131710554Y-53529841D01*
X140069446Y-53529841D01*
X140970000Y-54430395D01*
X141870554Y-53529841D01*
X141784148Y-53273357D01*
X141210664Y-53063542D01*
X140600540Y-53089161D01*
X140155852Y-53273357D01*
X140069446Y-53529841D01*
X131710554Y-53529841D01*
X131624148Y-53273357D01*
X131050664Y-53063542D01*
X130440540Y-53089161D01*
X129995852Y-53273357D01*
X129909446Y-53529841D01*
X123900000Y-53529841D01*
X123900000Y-50240000D01*
X149150000Y-50240000D01*
X149150000Y-62314842D01*
X149150000Y-62314842D01*
G37*
X149150000Y-62314842D02*
X148510079Y-61674921D01*
X148255407Y-61504755D01*
X147955000Y-61445000D01*
X139617201Y-61445000D01*
X139615010Y-61439697D01*
X139222370Y-61046371D01*
X138709100Y-60833243D01*
X138153339Y-60832758D01*
X137639697Y-61044990D01*
X137246371Y-61437630D01*
X137160051Y-61645512D01*
X137075010Y-61439697D01*
X136682370Y-61046371D01*
X136169100Y-60833243D01*
X135613339Y-60832758D01*
X135099697Y-61044990D01*
X134706371Y-61437630D01*
X134626605Y-61629727D01*
X134572397Y-61498857D01*
X134330213Y-61429392D01*
X133529605Y-62230000D01*
X134330213Y-63030608D01*
X134572397Y-62961143D01*
X134622509Y-62820682D01*
X134704990Y-63020303D01*
X134982022Y-63297820D01*
X134294842Y-63985000D01*
X128270000Y-63985000D01*
X127969593Y-64044755D01*
X127714921Y-64214921D01*
X126824995Y-65104847D01*
X126814833Y-65104838D01*
X126471057Y-65246883D01*
X126207808Y-65509673D01*
X126065162Y-65853201D01*
X126064838Y-66225167D01*
X126206883Y-66568943D01*
X126469673Y-66832192D01*
X126813201Y-66974838D01*
X127185167Y-66975162D01*
X127528943Y-66833117D01*
X127792192Y-66570327D01*
X127934838Y-66226799D01*
X127934848Y-66215310D01*
X128302678Y-65847480D01*
X135814073Y-65847480D01*
X135842852Y-66377199D01*
X135990200Y-66732929D01*
X136225812Y-66794583D01*
X136980395Y-66040000D01*
X137339605Y-66040000D01*
X138094188Y-66794583D01*
X138329800Y-66732929D01*
X138421859Y-66471371D01*
X138530200Y-66732929D01*
X138765812Y-66794583D01*
X139520395Y-66040000D01*
X138765812Y-65285417D01*
X138530200Y-65347071D01*
X138438141Y-65608629D01*
X138329800Y-65347071D01*
X138094188Y-65285417D01*
X137339605Y-66040000D01*
X136980395Y-66040000D01*
X136225812Y-65285417D01*
X135990200Y-65347071D01*
X135814073Y-65847480D01*
X128302678Y-65847480D01*
X128595158Y-65555000D01*
X134620000Y-65555000D01*
X134920407Y-65495245D01*
X135175079Y-65325079D01*
X135394346Y-65105812D01*
X136405417Y-65105812D01*
X137160000Y-65860395D01*
X137914583Y-65105812D01*
X138945417Y-65105812D01*
X139700000Y-65860395D01*
X140454583Y-65105812D01*
X140392929Y-64870200D01*
X139892520Y-64694073D01*
X139362801Y-64722852D01*
X139007071Y-64870200D01*
X138945417Y-65105812D01*
X137914583Y-65105812D01*
X137852929Y-64870200D01*
X137352520Y-64694073D01*
X136822801Y-64722852D01*
X136467071Y-64870200D01*
X136405417Y-65105812D01*
X135394346Y-65105812D01*
X136358279Y-64141879D01*
X143061484Y-64141879D01*
X144780000Y-65860395D01*
X146498516Y-64141879D01*
X146273846Y-63767832D01*
X145290612Y-63369120D01*
X144229643Y-63377025D01*
X143286154Y-63767832D01*
X143061484Y-64141879D01*
X136358279Y-64141879D01*
X136445079Y-64055079D01*
X136615245Y-63800407D01*
X136675000Y-63500000D01*
X136675000Y-63417201D01*
X136680303Y-63415010D01*
X137073629Y-63022370D01*
X137159949Y-62814488D01*
X137244990Y-63020303D01*
X137637630Y-63413629D01*
X138150900Y-63626757D01*
X138706661Y-63627242D01*
X139220303Y-63415010D01*
X139613629Y-63022370D01*
X139616689Y-63015000D01*
X147629842Y-63015000D01*
X148440000Y-63825158D01*
X148440000Y-69630021D01*
X148336000Y-69608960D01*
X146304000Y-69608960D01*
X146068683Y-69653238D01*
X145852559Y-69792310D01*
X145809454Y-69855396D01*
X145353489Y-69550729D01*
X144780000Y-69436655D01*
X144232543Y-69545551D01*
X144065079Y-69294921D01*
X142708279Y-67938121D01*
X143061484Y-67938121D01*
X143286154Y-68312168D01*
X144269388Y-68710880D01*
X145330357Y-68702975D01*
X146273846Y-68312168D01*
X146498516Y-67938121D01*
X144780000Y-66219605D01*
X143061484Y-67938121D01*
X142708279Y-67938121D01*
X141905153Y-67134995D01*
X141905162Y-67124833D01*
X141763117Y-66781057D01*
X141500327Y-66517808D01*
X141156799Y-66375162D01*
X140995771Y-66375022D01*
X141045927Y-66232520D01*
X141017148Y-65702801D01*
X140945319Y-65529388D01*
X142109120Y-65529388D01*
X142117025Y-66590357D01*
X142507832Y-67533846D01*
X142881879Y-67758516D01*
X144600395Y-66040000D01*
X144959605Y-66040000D01*
X146678121Y-67758516D01*
X147052168Y-67533846D01*
X147450880Y-66550612D01*
X147442975Y-65489643D01*
X147052168Y-64546154D01*
X146678121Y-64321484D01*
X144959605Y-66040000D01*
X144600395Y-66040000D01*
X142881879Y-64321484D01*
X142507832Y-64546154D01*
X142109120Y-65529388D01*
X140945319Y-65529388D01*
X140869800Y-65347071D01*
X140634188Y-65285417D01*
X139879605Y-66040000D01*
X139893748Y-66054143D01*
X139714143Y-66233748D01*
X139700000Y-66219605D01*
X138945417Y-66974188D01*
X139007071Y-67209800D01*
X139286312Y-67308083D01*
X138945620Y-67448854D01*
X138570173Y-67823647D01*
X138429906Y-68161446D01*
X138291146Y-67825620D01*
X137916353Y-67450173D01*
X137594882Y-67316686D01*
X137852929Y-67209800D01*
X137914583Y-66974188D01*
X137160000Y-66219605D01*
X136405417Y-66974188D01*
X136467071Y-67209800D01*
X136746312Y-67308083D01*
X136405620Y-67448854D01*
X136030173Y-67823647D01*
X135826732Y-68313587D01*
X135826269Y-68844086D01*
X136028854Y-69334380D01*
X136381543Y-69687684D01*
X136100330Y-69875585D01*
X135890000Y-70190366D01*
X135679670Y-69875585D01*
X135193489Y-69550729D01*
X134620000Y-69436655D01*
X134046511Y-69550729D01*
X133560330Y-69875585D01*
X133350000Y-70190366D01*
X133139670Y-69875585D01*
X132653489Y-69550729D01*
X132080000Y-69436655D01*
X131506511Y-69550729D01*
X131020330Y-69875585D01*
X130810000Y-70190366D01*
X130599670Y-69875585D01*
X130113489Y-69550729D01*
X129540000Y-69436655D01*
X128966511Y-69550729D01*
X128480330Y-69875585D01*
X128470757Y-69889913D01*
X128466762Y-69868683D01*
X128327690Y-69652559D01*
X128115490Y-69507569D01*
X127863600Y-69456560D01*
X126136400Y-69456560D01*
X125901083Y-69500838D01*
X125684959Y-69639910D01*
X125539969Y-69852110D01*
X125488960Y-70104000D01*
X125488960Y-72136000D01*
X125533238Y-72371317D01*
X125672310Y-72587441D01*
X125884510Y-72732431D01*
X126136400Y-72783440D01*
X127863600Y-72783440D01*
X128098917Y-72739162D01*
X128315041Y-72600090D01*
X128460031Y-72387890D01*
X128468400Y-72346561D01*
X128480330Y-72364415D01*
X128966511Y-72689271D01*
X129540000Y-72803345D01*
X130113489Y-72689271D01*
X130599670Y-72364415D01*
X130810000Y-72049634D01*
X131020330Y-72364415D01*
X131506511Y-72689271D01*
X132080000Y-72803345D01*
X132653489Y-72689271D01*
X133139670Y-72364415D01*
X133350000Y-72049634D01*
X133560330Y-72364415D01*
X134046511Y-72689271D01*
X134620000Y-72803345D01*
X135193489Y-72689271D01*
X135679670Y-72364415D01*
X135890000Y-72049634D01*
X136100330Y-72364415D01*
X136586511Y-72689271D01*
X137160000Y-72803345D01*
X137733489Y-72689271D01*
X138219670Y-72364415D01*
X138430000Y-72049634D01*
X138640330Y-72364415D01*
X139126511Y-72689271D01*
X139700000Y-72803345D01*
X140273489Y-72689271D01*
X140759670Y-72364415D01*
X140970000Y-72049634D01*
X141180330Y-72364415D01*
X141461887Y-72552546D01*
X141110173Y-72903647D01*
X140906732Y-73393587D01*
X140906269Y-73924086D01*
X141108854Y-74414380D01*
X141483647Y-74789827D01*
X141805118Y-74923314D01*
X141547071Y-75030200D01*
X141485417Y-75265812D01*
X142240000Y-76020395D01*
X142254143Y-76006253D01*
X142433748Y-76185858D01*
X142419605Y-76200000D01*
X142433748Y-76214143D01*
X142254143Y-76393748D01*
X142240000Y-76379605D01*
X141149605Y-77470000D01*
X142050159Y-78370554D01*
X142306643Y-78284148D01*
X142516458Y-77710664D01*
X142508489Y-77520881D01*
X142577199Y-77517148D01*
X142725000Y-77455927D01*
X142725000Y-77470000D01*
X142784755Y-77770407D01*
X142954921Y-78025079D01*
X144224921Y-79295079D01*
X144479593Y-79465245D01*
X144780000Y-79525000D01*
X145892056Y-79525000D01*
X146075585Y-79799670D01*
X146561766Y-80124526D01*
X147135255Y-80238600D01*
X147504745Y-80238600D01*
X148078234Y-80124526D01*
X148440000Y-79882802D01*
X148440000Y-85399842D01*
X146359842Y-87480000D01*
X142240000Y-87480000D01*
X141939593Y-87539755D01*
X141684921Y-87709921D01*
X140644842Y-88750000D01*
X139215000Y-88750000D01*
X139215000Y-86277201D01*
X139220303Y-86275010D01*
X139613629Y-85882370D01*
X139826757Y-85369100D01*
X139827242Y-84813339D01*
X139615010Y-84299697D01*
X139222370Y-83906371D01*
X138709100Y-83693243D01*
X138153339Y-83692758D01*
X137639697Y-83904990D01*
X137246371Y-84297630D01*
X137160051Y-84505512D01*
X137075010Y-84299697D01*
X136682370Y-83906371D01*
X136675000Y-83903311D01*
X136675000Y-83820000D01*
X136615245Y-83519594D01*
X136615245Y-83519593D01*
X136445079Y-83264921D01*
X135175079Y-81994921D01*
X134920407Y-81824755D01*
X134620000Y-81765000D01*
X131347506Y-81765000D01*
X131340327Y-81757808D01*
X130996799Y-81615162D01*
X130624833Y-81614838D01*
X130281057Y-81756883D01*
X130017808Y-82019673D01*
X129875162Y-82363201D01*
X129874838Y-82735167D01*
X130016883Y-83078943D01*
X130279673Y-83342192D01*
X130623201Y-83484838D01*
X130995167Y-83485162D01*
X131338943Y-83343117D01*
X131347074Y-83335000D01*
X134294842Y-83335000D01*
X134982162Y-84022320D01*
X134706371Y-84297630D01*
X134626605Y-84489727D01*
X134572397Y-84358857D01*
X134330213Y-84289392D01*
X133529605Y-85090000D01*
X134330213Y-85890608D01*
X134572397Y-85821143D01*
X134622509Y-85680682D01*
X134704990Y-85880303D01*
X135097630Y-86273629D01*
X135610900Y-86486757D01*
X136166661Y-86487242D01*
X136680303Y-86275010D01*
X137073629Y-85882370D01*
X137159949Y-85674488D01*
X137244990Y-85880303D01*
X137637630Y-86273629D01*
X137645000Y-86276689D01*
X137645000Y-92172494D01*
X137637808Y-92179673D01*
X137495162Y-92523201D01*
X137494838Y-92895167D01*
X137636883Y-93238943D01*
X137645000Y-93247074D01*
X137645000Y-106762799D01*
X137639697Y-106764990D01*
X137246371Y-107157630D01*
X137160051Y-107365512D01*
X137075010Y-107159697D01*
X136682370Y-106766371D01*
X136675000Y-106763311D01*
X136675000Y-97155000D01*
X136615245Y-96854594D01*
X136615245Y-96854593D01*
X136445079Y-96599921D01*
X130475153Y-90629995D01*
X130475162Y-90619833D01*
X130333117Y-90276057D01*
X130070327Y-90012808D01*
X129726799Y-89870162D01*
X129354833Y-89869838D01*
X129011057Y-90011883D01*
X128747808Y-90274673D01*
X128605162Y-90618201D01*
X128604838Y-90990167D01*
X128746883Y-91333943D01*
X129009673Y-91597192D01*
X129353201Y-91739838D01*
X129364690Y-91739848D01*
X135105000Y-97480158D01*
X135105000Y-106762799D01*
X135099697Y-106764990D01*
X134706371Y-107157630D01*
X134626605Y-107349727D01*
X134572397Y-107218857D01*
X134330213Y-107149392D01*
X133529605Y-107950000D01*
X134330213Y-108750608D01*
X134572397Y-108681143D01*
X134622509Y-108540682D01*
X134704990Y-108740303D01*
X135097630Y-109133629D01*
X135610900Y-109346757D01*
X136166661Y-109347242D01*
X136680303Y-109135010D01*
X137073629Y-108742370D01*
X137159949Y-108534488D01*
X137244990Y-108740303D01*
X137637630Y-109133629D01*
X137645000Y-109136689D01*
X137645000Y-129622799D01*
X137639697Y-129624990D01*
X137246371Y-130017630D01*
X137160051Y-130225512D01*
X137075010Y-130019697D01*
X136682370Y-129626371D01*
X136675000Y-129623311D01*
X136675000Y-117475000D01*
X136615245Y-117174594D01*
X136445079Y-116919921D01*
X134920153Y-115394995D01*
X134920162Y-115384833D01*
X134778117Y-115041057D01*
X134515327Y-114777808D01*
X134171799Y-114635162D01*
X133799833Y-114634838D01*
X133456057Y-114776883D01*
X133192808Y-115039673D01*
X133050162Y-115383201D01*
X133049838Y-115755167D01*
X133191883Y-116098943D01*
X133454673Y-116362192D01*
X133798201Y-116504838D01*
X133809690Y-116504848D01*
X135105000Y-117800158D01*
X135105000Y-129622799D01*
X135099697Y-129624990D01*
X134706371Y-130017630D01*
X134626605Y-130209727D01*
X134572397Y-130078857D01*
X134330213Y-130009392D01*
X133529605Y-130810000D01*
X133543748Y-130824143D01*
X133364143Y-131003748D01*
X133350000Y-130989605D01*
X133335858Y-131003748D01*
X133156253Y-130824143D01*
X133170395Y-130810000D01*
X132369787Y-130009392D01*
X132127603Y-130078857D01*
X131940856Y-130602302D01*
X131968638Y-131157368D01*
X132127603Y-131541143D01*
X132369785Y-131610607D01*
X132274957Y-131705435D01*
X132080000Y-131666655D01*
X131506511Y-131780729D01*
X131020330Y-132105585D01*
X130810000Y-132420366D01*
X130599670Y-132105585D01*
X130113489Y-131780729D01*
X129540000Y-131666655D01*
X128966511Y-131780729D01*
X128480330Y-132105585D01*
X128470757Y-132119913D01*
X128466762Y-132098683D01*
X128327690Y-131882559D01*
X128115490Y-131737569D01*
X127863600Y-131686560D01*
X126136400Y-131686560D01*
X125901083Y-131730838D01*
X125684959Y-131869910D01*
X125539969Y-132082110D01*
X125488960Y-132334000D01*
X125488960Y-134366000D01*
X125533238Y-134601317D01*
X125672310Y-134817441D01*
X125884510Y-134962431D01*
X126136400Y-135013440D01*
X127863600Y-135013440D01*
X128098917Y-134969162D01*
X128315041Y-134830090D01*
X128460031Y-134617890D01*
X128468400Y-134576561D01*
X128480330Y-134594415D01*
X128966511Y-134919271D01*
X129540000Y-135033345D01*
X130113489Y-134919271D01*
X130599670Y-134594415D01*
X130810000Y-134279634D01*
X131020330Y-134594415D01*
X131506511Y-134919271D01*
X132080000Y-135033345D01*
X132653489Y-134919271D01*
X133139670Y-134594415D01*
X133350000Y-134279634D01*
X133560330Y-134594415D01*
X134046511Y-134919271D01*
X134620000Y-135033345D01*
X135193489Y-134919271D01*
X135679670Y-134594415D01*
X135890000Y-134279634D01*
X136100330Y-134594415D01*
X136586511Y-134919271D01*
X137160000Y-135033345D01*
X137733489Y-134919271D01*
X138219670Y-134594415D01*
X138430000Y-134279634D01*
X138640330Y-134594415D01*
X139126511Y-134919271D01*
X139700000Y-135033345D01*
X140273489Y-134919271D01*
X140759670Y-134594415D01*
X140970000Y-134279634D01*
X141180330Y-134594415D01*
X141666511Y-134919271D01*
X142240000Y-135033345D01*
X142813489Y-134919271D01*
X143299670Y-134594415D01*
X143510000Y-134279634D01*
X143720330Y-134594415D01*
X144206511Y-134919271D01*
X144780000Y-135033345D01*
X145353489Y-134919271D01*
X145839670Y-134594415D01*
X146164526Y-134108234D01*
X146278600Y-133534745D01*
X146278600Y-133165255D01*
X146164526Y-132591766D01*
X145839670Y-132105585D01*
X145353489Y-131780729D01*
X144780000Y-131666655D01*
X144206511Y-131780729D01*
X143720330Y-132105585D01*
X143510000Y-132420366D01*
X143299670Y-132105585D01*
X142813489Y-131780729D01*
X142240000Y-131666655D01*
X141666511Y-131780729D01*
X141180330Y-132105585D01*
X140970000Y-132420366D01*
X140759670Y-132105585D01*
X140273489Y-131780729D01*
X139700000Y-131666655D01*
X139511714Y-131704107D01*
X139613629Y-131602370D01*
X139826757Y-131089100D01*
X139827242Y-130533339D01*
X139615010Y-130019697D01*
X139222370Y-129626371D01*
X139215000Y-129623311D01*
X139215000Y-124270159D01*
X140069446Y-124270159D01*
X140155852Y-124526643D01*
X140729336Y-124736458D01*
X141339460Y-124710839D01*
X141784148Y-124526643D01*
X141870554Y-124270159D01*
X140970000Y-123369605D01*
X140069446Y-124270159D01*
X139215000Y-124270159D01*
X139215000Y-122949336D01*
X139423542Y-122949336D01*
X139449161Y-123559460D01*
X139633357Y-124004148D01*
X139889841Y-124090554D01*
X140790395Y-123190000D01*
X141149605Y-123190000D01*
X142050159Y-124090554D01*
X142306643Y-124004148D01*
X142516458Y-123430664D01*
X142490839Y-122820540D01*
X142306643Y-122375852D01*
X142050159Y-122289446D01*
X141149605Y-123190000D01*
X140790395Y-123190000D01*
X139889841Y-122289446D01*
X139633357Y-122375852D01*
X139423542Y-122949336D01*
X139215000Y-122949336D01*
X139215000Y-122109841D01*
X140069446Y-122109841D01*
X140970000Y-123010395D01*
X141870554Y-122109841D01*
X141784148Y-121853357D01*
X141210664Y-121643542D01*
X140600540Y-121669161D01*
X140155852Y-121853357D01*
X140069446Y-122109841D01*
X139215000Y-122109841D01*
X139215000Y-109137201D01*
X139220303Y-109135010D01*
X139613629Y-108742370D01*
X139826757Y-108229100D01*
X139827242Y-107673339D01*
X139615010Y-107159697D01*
X139222370Y-106766371D01*
X139215000Y-106763311D01*
X139215000Y-101410159D01*
X140069446Y-101410159D01*
X140155852Y-101666643D01*
X140729336Y-101876458D01*
X141339460Y-101850839D01*
X141784148Y-101666643D01*
X141806599Y-101600000D01*
X143096655Y-101600000D01*
X143210729Y-102173489D01*
X143535585Y-102659670D01*
X143850366Y-102870000D01*
X143535585Y-103080330D01*
X143210729Y-103566511D01*
X143096655Y-104140000D01*
X143210729Y-104713489D01*
X143535585Y-105199670D01*
X143850366Y-105410000D01*
X143535585Y-105620330D01*
X143210729Y-106106511D01*
X143096655Y-106680000D01*
X143210729Y-107253489D01*
X143535585Y-107739670D01*
X143850366Y-107950000D01*
X143535585Y-108160330D01*
X143210729Y-108646511D01*
X143096655Y-109220000D01*
X143210729Y-109793489D01*
X143535585Y-110279670D01*
X143850366Y-110490000D01*
X143535585Y-110700330D01*
X143210729Y-111186511D01*
X143096655Y-111760000D01*
X143210729Y-112333489D01*
X143535585Y-112819670D01*
X143850366Y-113030000D01*
X143535585Y-113240330D01*
X143210729Y-113726511D01*
X143096655Y-114300000D01*
X143210729Y-114873489D01*
X143535585Y-115359670D01*
X143850366Y-115570000D01*
X143535585Y-115780330D01*
X143210729Y-116266511D01*
X143096655Y-116840000D01*
X143210729Y-117413489D01*
X143535585Y-117899670D01*
X144021766Y-118224526D01*
X144595255Y-118338600D01*
X144964745Y-118338600D01*
X145538234Y-118224526D01*
X146024415Y-117899670D01*
X146050000Y-117861379D01*
X146075585Y-117899670D01*
X146561766Y-118224526D01*
X147135255Y-118338600D01*
X147504745Y-118338600D01*
X148078234Y-118224526D01*
X148564415Y-117899670D01*
X148889271Y-117413489D01*
X149003345Y-116840000D01*
X148889271Y-116266511D01*
X148564415Y-115780330D01*
X148249634Y-115570000D01*
X148564415Y-115359670D01*
X148889271Y-114873489D01*
X149003345Y-114300000D01*
X148889271Y-113726511D01*
X148564415Y-113240330D01*
X148249634Y-113030000D01*
X148564415Y-112819670D01*
X148889271Y-112333489D01*
X149003345Y-111760000D01*
X148889271Y-111186511D01*
X148564415Y-110700330D01*
X148249634Y-110490000D01*
X148564415Y-110279670D01*
X148889271Y-109793489D01*
X149003345Y-109220000D01*
X148889271Y-108646511D01*
X148564415Y-108160330D01*
X148249634Y-107950000D01*
X148564415Y-107739670D01*
X148889271Y-107253489D01*
X149003345Y-106680000D01*
X148889271Y-106106511D01*
X148564415Y-105620330D01*
X148249634Y-105410000D01*
X148564415Y-105199670D01*
X148889271Y-104713489D01*
X149003345Y-104140000D01*
X148889271Y-103566511D01*
X148564415Y-103080330D01*
X148249634Y-102870000D01*
X148564415Y-102659670D01*
X148889271Y-102173489D01*
X149003345Y-101600000D01*
X148889271Y-101026511D01*
X148564415Y-100540330D01*
X148550087Y-100530757D01*
X148571317Y-100526762D01*
X148787441Y-100387690D01*
X148932431Y-100175490D01*
X148983440Y-99923600D01*
X148983440Y-98196400D01*
X148939162Y-97961083D01*
X148800090Y-97744959D01*
X148587890Y-97599969D01*
X148336000Y-97548960D01*
X146304000Y-97548960D01*
X146068683Y-97593238D01*
X146052901Y-97603393D01*
X146047890Y-97599969D01*
X145796000Y-97548960D01*
X143764000Y-97548960D01*
X143528683Y-97593238D01*
X143312559Y-97732310D01*
X143167569Y-97944510D01*
X143116560Y-98196400D01*
X143116560Y-99923600D01*
X143160838Y-100158917D01*
X143299910Y-100375041D01*
X143512110Y-100520031D01*
X143553439Y-100528400D01*
X143535585Y-100540330D01*
X143210729Y-101026511D01*
X143096655Y-101600000D01*
X141806599Y-101600000D01*
X141870554Y-101410159D01*
X140970000Y-100509605D01*
X140069446Y-101410159D01*
X139215000Y-101410159D01*
X139215000Y-100089336D01*
X139423542Y-100089336D01*
X139449161Y-100699460D01*
X139633357Y-101144148D01*
X139889841Y-101230554D01*
X140790395Y-100330000D01*
X141149605Y-100330000D01*
X142050159Y-101230554D01*
X142306643Y-101144148D01*
X142516458Y-100570664D01*
X142490839Y-99960540D01*
X142306643Y-99515852D01*
X142050159Y-99429446D01*
X141149605Y-100330000D01*
X140790395Y-100330000D01*
X139889841Y-99429446D01*
X139633357Y-99515852D01*
X139423542Y-100089336D01*
X139215000Y-100089336D01*
X139215000Y-99249841D01*
X140069446Y-99249841D01*
X140970000Y-100150395D01*
X141870554Y-99249841D01*
X141784148Y-98993357D01*
X141210664Y-98783542D01*
X140600540Y-98809161D01*
X140155852Y-98993357D01*
X140069446Y-99249841D01*
X139215000Y-99249841D01*
X139215000Y-93247506D01*
X139222192Y-93240327D01*
X139364838Y-92896799D01*
X139365000Y-92710000D01*
X143096655Y-92710000D01*
X143222330Y-93341810D01*
X143580222Y-93877433D01*
X144115845Y-94235325D01*
X144747655Y-94361000D01*
X144812345Y-94361000D01*
X145444155Y-94235325D01*
X145979778Y-93877433D01*
X146050000Y-93772338D01*
X146120222Y-93877433D01*
X146655845Y-94235325D01*
X147287655Y-94361000D01*
X147352345Y-94361000D01*
X147984155Y-94235325D01*
X148519778Y-93877433D01*
X148877670Y-93341810D01*
X149003345Y-92710000D01*
X148877670Y-92078190D01*
X148653034Y-91741999D01*
X148695698Y-91724327D01*
X148874327Y-91545699D01*
X148971000Y-91312310D01*
X148971000Y-90455750D01*
X148812250Y-90297000D01*
X147447000Y-90297000D01*
X147447000Y-90317000D01*
X147193000Y-90317000D01*
X147193000Y-90297000D01*
X144907000Y-90297000D01*
X144907000Y-90317000D01*
X144653000Y-90317000D01*
X144653000Y-90297000D01*
X143287750Y-90297000D01*
X143129000Y-90455750D01*
X143129000Y-91312310D01*
X143225673Y-91545699D01*
X143404302Y-91724327D01*
X143446966Y-91741999D01*
X143222330Y-92078190D01*
X143096655Y-92710000D01*
X139365000Y-92710000D01*
X139365162Y-92524833D01*
X139223117Y-92181057D01*
X139215000Y-92172926D01*
X139215000Y-90320000D01*
X140970000Y-90320000D01*
X141270407Y-90260245D01*
X141525079Y-90090079D01*
X142565158Y-89050000D01*
X143129000Y-89050000D01*
X143129000Y-89884250D01*
X143287750Y-90043000D01*
X144653000Y-90043000D01*
X144653000Y-90023000D01*
X144907000Y-90023000D01*
X144907000Y-90043000D01*
X147193000Y-90043000D01*
X147193000Y-90023000D01*
X147447000Y-90023000D01*
X147447000Y-90043000D01*
X148812250Y-90043000D01*
X148971000Y-89884250D01*
X148971000Y-89027690D01*
X148874327Y-88794301D01*
X148695698Y-88615673D01*
X148462309Y-88519000D01*
X147605750Y-88519000D01*
X147447002Y-88677748D01*
X147447002Y-88613156D01*
X149150000Y-86910158D01*
X149150000Y-140260000D01*
X127739608Y-140260000D01*
X127628123Y-140148515D01*
X128002168Y-139923846D01*
X128089971Y-139707321D01*
X128212310Y-139897441D01*
X128424510Y-140042431D01*
X128676400Y-140093440D01*
X130403600Y-140093440D01*
X130638917Y-140049162D01*
X130855041Y-139910090D01*
X131000031Y-139697890D01*
X131008400Y-139656561D01*
X131020330Y-139674415D01*
X131506511Y-139999271D01*
X132080000Y-140113345D01*
X132653489Y-139999271D01*
X133139670Y-139674415D01*
X133350000Y-139359634D01*
X133560330Y-139674415D01*
X134046511Y-139999271D01*
X134620000Y-140113345D01*
X135193489Y-139999271D01*
X135679670Y-139674415D01*
X135890000Y-139359634D01*
X136100330Y-139674415D01*
X136586511Y-139999271D01*
X137160000Y-140113345D01*
X137733489Y-139999271D01*
X138219670Y-139674415D01*
X138430000Y-139359634D01*
X138640330Y-139674415D01*
X139126511Y-139999271D01*
X139700000Y-140113345D01*
X140273489Y-139999271D01*
X140759670Y-139674415D01*
X140970000Y-139359634D01*
X141180330Y-139674415D01*
X141666511Y-139999271D01*
X142240000Y-140113345D01*
X142813489Y-139999271D01*
X143299670Y-139674415D01*
X143510000Y-139359634D01*
X143720330Y-139674415D01*
X144206511Y-139999271D01*
X144780000Y-140113345D01*
X145353489Y-139999271D01*
X145839670Y-139674415D01*
X146050000Y-139359634D01*
X146260330Y-139674415D01*
X146746511Y-139999271D01*
X147320000Y-140113345D01*
X147893489Y-139999271D01*
X148379670Y-139674415D01*
X148704526Y-139188234D01*
X148818600Y-138614745D01*
X148818600Y-138245255D01*
X148704526Y-137671766D01*
X148379670Y-137185585D01*
X147893489Y-136860729D01*
X147320000Y-136746655D01*
X146746511Y-136860729D01*
X146260330Y-137185585D01*
X146050000Y-137500366D01*
X145839670Y-137185585D01*
X145353489Y-136860729D01*
X144780000Y-136746655D01*
X144206511Y-136860729D01*
X143720330Y-137185585D01*
X143510000Y-137500366D01*
X143299670Y-137185585D01*
X142813489Y-136860729D01*
X142240000Y-136746655D01*
X141666511Y-136860729D01*
X141180330Y-137185585D01*
X140970000Y-137500366D01*
X140759670Y-137185585D01*
X140273489Y-136860729D01*
X139700000Y-136746655D01*
X139126511Y-136860729D01*
X138640330Y-137185585D01*
X138430000Y-137500366D01*
X138219670Y-137185585D01*
X137733489Y-136860729D01*
X137160000Y-136746655D01*
X136586511Y-136860729D01*
X136100330Y-137185585D01*
X135890000Y-137500366D01*
X135679670Y-137185585D01*
X135193489Y-136860729D01*
X134620000Y-136746655D01*
X134046511Y-136860729D01*
X133560330Y-137185585D01*
X133350000Y-137500366D01*
X133139670Y-137185585D01*
X132653489Y-136860729D01*
X132080000Y-136746655D01*
X131506511Y-136860729D01*
X131020330Y-137185585D01*
X131010757Y-137199913D01*
X131006762Y-137178683D01*
X130867690Y-136962559D01*
X130655490Y-136817569D01*
X130403600Y-136766560D01*
X128676400Y-136766560D01*
X128441083Y-136810838D01*
X128224959Y-136949910D01*
X128089802Y-137147720D01*
X128002168Y-136936154D01*
X127628121Y-136711484D01*
X125909605Y-138430000D01*
X125923748Y-138444143D01*
X125744143Y-138623748D01*
X125730000Y-138609605D01*
X125715858Y-138623748D01*
X125536253Y-138444143D01*
X125550395Y-138430000D01*
X125536253Y-138415858D01*
X125715858Y-138236253D01*
X125730000Y-138250395D01*
X127448516Y-136531879D01*
X127223846Y-136157832D01*
X126240612Y-135759120D01*
X125179643Y-135767025D01*
X124236154Y-136157832D01*
X124011485Y-136531877D01*
X123900000Y-136420392D01*
X123900000Y-129829787D01*
X132549392Y-129829787D01*
X133350000Y-130630395D01*
X134150608Y-129829787D01*
X134081143Y-129587603D01*
X133557698Y-129400856D01*
X133002632Y-129428638D01*
X132618857Y-129587603D01*
X132549392Y-129829787D01*
X123900000Y-129829787D01*
X123900000Y-124270159D01*
X129909446Y-124270159D01*
X129995852Y-124526643D01*
X130569336Y-124736458D01*
X131179460Y-124710839D01*
X131624148Y-124526643D01*
X131710554Y-124270159D01*
X130810000Y-123369605D01*
X129909446Y-124270159D01*
X123900000Y-124270159D01*
X123900000Y-122949336D01*
X129263542Y-122949336D01*
X129289161Y-123559460D01*
X129473357Y-124004148D01*
X129729841Y-124090554D01*
X130630395Y-123190000D01*
X130989605Y-123190000D01*
X131890159Y-124090554D01*
X132146643Y-124004148D01*
X132356458Y-123430664D01*
X132330839Y-122820540D01*
X132146643Y-122375852D01*
X131890159Y-122289446D01*
X130989605Y-123190000D01*
X130630395Y-123190000D01*
X129729841Y-122289446D01*
X129473357Y-122375852D01*
X129263542Y-122949336D01*
X123900000Y-122949336D01*
X123900000Y-122109841D01*
X129909446Y-122109841D01*
X130810000Y-123010395D01*
X131710554Y-122109841D01*
X131624148Y-121853357D01*
X131050664Y-121643542D01*
X130440540Y-121669161D01*
X129995852Y-121853357D01*
X129909446Y-122109841D01*
X123900000Y-122109841D01*
X123900000Y-108930213D01*
X132549392Y-108930213D01*
X132618857Y-109172397D01*
X133142302Y-109359144D01*
X133697368Y-109331362D01*
X134081143Y-109172397D01*
X134150608Y-108930213D01*
X133350000Y-108129605D01*
X132549392Y-108930213D01*
X123900000Y-108930213D01*
X123900000Y-107742302D01*
X131940856Y-107742302D01*
X131968638Y-108297368D01*
X132127603Y-108681143D01*
X132369787Y-108750608D01*
X133170395Y-107950000D01*
X132369787Y-107149392D01*
X132127603Y-107218857D01*
X131940856Y-107742302D01*
X123900000Y-107742302D01*
X123900000Y-106969787D01*
X132549392Y-106969787D01*
X133350000Y-107770395D01*
X134150608Y-106969787D01*
X134081143Y-106727603D01*
X133557698Y-106540856D01*
X133002632Y-106568638D01*
X132618857Y-106727603D01*
X132549392Y-106969787D01*
X123900000Y-106969787D01*
X123900000Y-101410159D01*
X129909446Y-101410159D01*
X129995852Y-101666643D01*
X130569336Y-101876458D01*
X131179460Y-101850839D01*
X131624148Y-101666643D01*
X131710554Y-101410159D01*
X130810000Y-100509605D01*
X129909446Y-101410159D01*
X123900000Y-101410159D01*
X123900000Y-100089336D01*
X129263542Y-100089336D01*
X129289161Y-100699460D01*
X129473357Y-101144148D01*
X129729841Y-101230554D01*
X130630395Y-100330000D01*
X130989605Y-100330000D01*
X131890159Y-101230554D01*
X132146643Y-101144148D01*
X132356458Y-100570664D01*
X132330839Y-99960540D01*
X132146643Y-99515852D01*
X131890159Y-99429446D01*
X130989605Y-100330000D01*
X130630395Y-100330000D01*
X129729841Y-99429446D01*
X129473357Y-99515852D01*
X129263542Y-100089336D01*
X123900000Y-100089336D01*
X123900000Y-99249841D01*
X129909446Y-99249841D01*
X130810000Y-100150395D01*
X131710554Y-99249841D01*
X131624148Y-98993357D01*
X131050664Y-98783542D01*
X130440540Y-98809161D01*
X129995852Y-98993357D01*
X129909446Y-99249841D01*
X123900000Y-99249841D01*
X123900000Y-86070213D01*
X132549392Y-86070213D01*
X132618857Y-86312397D01*
X133142302Y-86499144D01*
X133697368Y-86471362D01*
X134081143Y-86312397D01*
X134150608Y-86070213D01*
X133350000Y-85269605D01*
X132549392Y-86070213D01*
X123900000Y-86070213D01*
X123900000Y-84882302D01*
X131940856Y-84882302D01*
X131968638Y-85437368D01*
X132127603Y-85821143D01*
X132369787Y-85890608D01*
X133170395Y-85090000D01*
X132369787Y-84289392D01*
X132127603Y-84358857D01*
X131940856Y-84882302D01*
X123900000Y-84882302D01*
X123900000Y-84109787D01*
X132549392Y-84109787D01*
X133350000Y-84910395D01*
X134150608Y-84109787D01*
X134081143Y-83867603D01*
X133557698Y-83680856D01*
X133002632Y-83708638D01*
X132618857Y-83867603D01*
X132549392Y-84109787D01*
X123900000Y-84109787D01*
X123900000Y-78550159D01*
X129909446Y-78550159D01*
X129995852Y-78806643D01*
X130569336Y-79016458D01*
X131179460Y-78990839D01*
X131624148Y-78806643D01*
X131710554Y-78550159D01*
X140069446Y-78550159D01*
X140155852Y-78806643D01*
X140729336Y-79016458D01*
X141339460Y-78990839D01*
X141784148Y-78806643D01*
X141870554Y-78550159D01*
X140970000Y-77649605D01*
X140069446Y-78550159D01*
X131710554Y-78550159D01*
X130810000Y-77649605D01*
X129909446Y-78550159D01*
X123900000Y-78550159D01*
X123900000Y-77229336D01*
X129263542Y-77229336D01*
X129289161Y-77839460D01*
X129473357Y-78284148D01*
X129729841Y-78370554D01*
X130630395Y-77470000D01*
X130989605Y-77470000D01*
X131890159Y-78370554D01*
X132146643Y-78284148D01*
X132356458Y-77710664D01*
X132336248Y-77229336D01*
X139423542Y-77229336D01*
X139449161Y-77839460D01*
X139633357Y-78284148D01*
X139889841Y-78370554D01*
X140790395Y-77470000D01*
X139889841Y-76569446D01*
X139633357Y-76655852D01*
X139423542Y-77229336D01*
X132336248Y-77229336D01*
X132330839Y-77100540D01*
X132146643Y-76655852D01*
X131890159Y-76569446D01*
X130989605Y-77470000D01*
X130630395Y-77470000D01*
X129729841Y-76569446D01*
X129473357Y-76655852D01*
X129263542Y-77229336D01*
X123900000Y-77229336D01*
X123900000Y-76389841D01*
X129909446Y-76389841D01*
X130810000Y-77290395D01*
X131710554Y-76389841D01*
X140069446Y-76389841D01*
X140970000Y-77290395D01*
X142060395Y-76200000D01*
X141305812Y-75445417D01*
X141070200Y-75507071D01*
X140919310Y-75935776D01*
X140600540Y-75949161D01*
X140155852Y-76133357D01*
X140069446Y-76389841D01*
X131710554Y-76389841D01*
X131624148Y-76133357D01*
X131050664Y-75923542D01*
X130440540Y-75949161D01*
X129995852Y-76133357D01*
X129909446Y-76389841D01*
X123900000Y-76389841D01*
X123900000Y-63210213D01*
X132549392Y-63210213D01*
X132618857Y-63452397D01*
X133142302Y-63639144D01*
X133697368Y-63611362D01*
X134081143Y-63452397D01*
X134150608Y-63210213D01*
X133350000Y-62409605D01*
X132549392Y-63210213D01*
X123900000Y-63210213D01*
X123900000Y-62022302D01*
X131940856Y-62022302D01*
X131968638Y-62577368D01*
X132127603Y-62961143D01*
X132369787Y-63030608D01*
X133170395Y-62230000D01*
X132369787Y-61429392D01*
X132127603Y-61498857D01*
X131940856Y-62022302D01*
X123900000Y-62022302D01*
X123900000Y-61249787D01*
X132549392Y-61249787D01*
X133350000Y-62050395D01*
X134150608Y-61249787D01*
X134081143Y-61007603D01*
X133557698Y-60820856D01*
X133002632Y-60848638D01*
X132618857Y-61007603D01*
X132549392Y-61249787D01*
X123900000Y-61249787D01*
X123900000Y-55690159D01*
X129909446Y-55690159D01*
X129995852Y-55946643D01*
X130569336Y-56156458D01*
X131179460Y-56130839D01*
X131624148Y-55946643D01*
X131710554Y-55690159D01*
X140069446Y-55690159D01*
X140155852Y-55946643D01*
X140729336Y-56156458D01*
X141339460Y-56130839D01*
X141784148Y-55946643D01*
X141870554Y-55690159D01*
X140970000Y-54789605D01*
X140069446Y-55690159D01*
X131710554Y-55690159D01*
X130810000Y-54789605D01*
X129909446Y-55690159D01*
X123900000Y-55690159D01*
X123900000Y-54369336D01*
X129263542Y-54369336D01*
X129289161Y-54979460D01*
X129473357Y-55424148D01*
X129729841Y-55510554D01*
X130630395Y-54610000D01*
X130989605Y-54610000D01*
X131890159Y-55510554D01*
X132146643Y-55424148D01*
X132356458Y-54850664D01*
X132336248Y-54369336D01*
X139423542Y-54369336D01*
X139449161Y-54979460D01*
X139633357Y-55424148D01*
X139889841Y-55510554D01*
X140790395Y-54610000D01*
X141149605Y-54610000D01*
X142050159Y-55510554D01*
X142306643Y-55424148D01*
X142516458Y-54850664D01*
X142490839Y-54240540D01*
X142306643Y-53795852D01*
X142050159Y-53709446D01*
X141149605Y-54610000D01*
X140790395Y-54610000D01*
X139889841Y-53709446D01*
X139633357Y-53795852D01*
X139423542Y-54369336D01*
X132336248Y-54369336D01*
X132330839Y-54240540D01*
X132146643Y-53795852D01*
X131890159Y-53709446D01*
X130989605Y-54610000D01*
X130630395Y-54610000D01*
X129729841Y-53709446D01*
X129473357Y-53795852D01*
X129263542Y-54369336D01*
X123900000Y-54369336D01*
X123900000Y-53529841D01*
X129909446Y-53529841D01*
X130810000Y-54430395D01*
X131710554Y-53529841D01*
X140069446Y-53529841D01*
X140970000Y-54430395D01*
X141870554Y-53529841D01*
X141784148Y-53273357D01*
X141210664Y-53063542D01*
X140600540Y-53089161D01*
X140155852Y-53273357D01*
X140069446Y-53529841D01*
X131710554Y-53529841D01*
X131624148Y-53273357D01*
X131050664Y-53063542D01*
X130440540Y-53089161D01*
X129995852Y-53273357D01*
X129909446Y-53529841D01*
X123900000Y-53529841D01*
X123900000Y-50240000D01*
X149150000Y-50240000D01*
X149150000Y-62314842D01*
G36*
X146075585Y-74719670D02*
X146390366Y-74930000D01*
X146075585Y-75140330D01*
X145848286Y-75480507D01*
X145714188Y-75445417D01*
X144959605Y-76200000D01*
X145714188Y-76954583D01*
X145848286Y-76919493D01*
X146075585Y-77259670D01*
X146390366Y-77470000D01*
X146075585Y-77680330D01*
X145892056Y-77955000D01*
X145105158Y-77955000D01*
X144690489Y-77540331D01*
X145117199Y-77517148D01*
X145472929Y-77369800D01*
X145534583Y-77134188D01*
X144780000Y-76379605D01*
X144765858Y-76393748D01*
X144586253Y-76214143D01*
X144600395Y-76200000D01*
X144586253Y-76185858D01*
X144765858Y-76006253D01*
X144780000Y-76020395D01*
X145534583Y-75265812D01*
X145472929Y-75030200D01*
X145193688Y-74931917D01*
X145534380Y-74791146D01*
X145887684Y-74438457D01*
X146075585Y-74719670D01*
X146075585Y-74719670D01*
G37*
X146075585Y-74719670D02*
X146390366Y-74930000D01*
X146075585Y-75140330D01*
X145848286Y-75480507D01*
X145714188Y-75445417D01*
X144959605Y-76200000D01*
X145714188Y-76954583D01*
X145848286Y-76919493D01*
X146075585Y-77259670D01*
X146390366Y-77470000D01*
X146075585Y-77680330D01*
X145892056Y-77955000D01*
X145105158Y-77955000D01*
X144690489Y-77540331D01*
X145117199Y-77517148D01*
X145472929Y-77369800D01*
X145534583Y-77134188D01*
X144780000Y-76379605D01*
X144765858Y-76393748D01*
X144586253Y-76214143D01*
X144600395Y-76200000D01*
X144586253Y-76185858D01*
X144765858Y-76006253D01*
X144780000Y-76020395D01*
X145534583Y-75265812D01*
X145472929Y-75030200D01*
X145193688Y-74931917D01*
X145534380Y-74791146D01*
X145887684Y-74438457D01*
X146075585Y-74719670D01*
M02*
