G04 #@! TF.FileFunction,Copper,L1,Top,Signal*
%FSLAX46Y46*%
G04 Gerber Fmt 4.6, Leading zero omitted, Abs format (unit mm)*
G04 Created by KiCad (PCBNEW 4.0.2+dfsg1-2~bpo8+1-stable) date Mon 04 Sep 2017 01:59:48 PM EEST*
%MOMM*%
G01*
G04 APERTURE LIST*
%ADD10C,0.050000*%
%ADD11C,0.190500*%
%ADD12R,2.032000X1.727200*%
%ADD13O,2.032000X1.727200*%
%ADD14R,1.727200X2.032000*%
%ADD15O,1.727200X2.032000*%
%ADD16R,2.032000X2.032000*%
%ADD17O,2.032000X2.032000*%
%ADD18C,1.524000*%
%ADD19C,1.800000*%
%ADD20C,4.064000*%
%ADD21C,1.397000*%
%ADD22C,0.600000*%
%ADD23C,0.300000*%
%ADD24C,0.254000*%
G04 APERTURE END LIST*
D10*
D11*
X148825857Y-120486714D02*
X148862143Y-120414142D01*
X148862143Y-120268999D01*
X148825857Y-120196428D01*
X148753286Y-120123857D01*
X148680714Y-120087571D01*
X148535571Y-120087571D01*
X148463000Y-120123857D01*
X148390429Y-120196428D01*
X148354143Y-120268999D01*
X148354143Y-120414142D01*
X148390429Y-120486714D01*
X149116143Y-120341571D02*
X149079857Y-120160142D01*
X148971000Y-119978714D01*
X148789571Y-119869857D01*
X148608143Y-119833571D01*
X148426714Y-119869857D01*
X148245286Y-119978714D01*
X148136429Y-120160142D01*
X148100143Y-120341571D01*
X148136429Y-120522999D01*
X148245286Y-120704428D01*
X148426714Y-120813285D01*
X148608143Y-120849571D01*
X148789571Y-120813285D01*
X148971000Y-120704428D01*
X149079857Y-120522999D01*
X149116143Y-120341571D01*
X148463000Y-121720428D02*
X148463000Y-122083285D01*
X148245286Y-121647856D02*
X149007286Y-121901856D01*
X148245286Y-122155856D01*
X148245286Y-122518714D02*
X148281571Y-122446142D01*
X148354143Y-122409857D01*
X149007286Y-122409857D01*
X148281571Y-123099285D02*
X148245286Y-123026714D01*
X148245286Y-122881571D01*
X148281571Y-122809000D01*
X148354143Y-122772714D01*
X148644429Y-122772714D01*
X148717000Y-122809000D01*
X148753286Y-122881571D01*
X148753286Y-123026714D01*
X148717000Y-123099285D01*
X148644429Y-123135571D01*
X148571857Y-123135571D01*
X148499286Y-122772714D01*
X148245286Y-123389571D02*
X148753286Y-123788714D01*
X148753286Y-123389571D02*
X148245286Y-123788714D01*
X148245286Y-124405571D02*
X148644429Y-124405571D01*
X148717000Y-124369285D01*
X148753286Y-124296714D01*
X148753286Y-124151571D01*
X148717000Y-124079000D01*
X148281571Y-124405571D02*
X148245286Y-124333000D01*
X148245286Y-124151571D01*
X148281571Y-124079000D01*
X148354143Y-124042714D01*
X148426714Y-124042714D01*
X148499286Y-124079000D01*
X148535571Y-124151571D01*
X148535571Y-124333000D01*
X148571857Y-124405571D01*
X148753286Y-124768429D02*
X148245286Y-124768429D01*
X148680714Y-124768429D02*
X148717000Y-124804714D01*
X148753286Y-124877286D01*
X148753286Y-124986143D01*
X148717000Y-125058714D01*
X148644429Y-125095000D01*
X148245286Y-125095000D01*
X148245286Y-125784429D02*
X149007286Y-125784429D01*
X148281571Y-125784429D02*
X148245286Y-125711858D01*
X148245286Y-125566715D01*
X148281571Y-125494143D01*
X148317857Y-125457858D01*
X148390429Y-125421572D01*
X148608143Y-125421572D01*
X148680714Y-125457858D01*
X148717000Y-125494143D01*
X148753286Y-125566715D01*
X148753286Y-125711858D01*
X148717000Y-125784429D01*
X148245286Y-126147287D02*
X148753286Y-126147287D01*
X148608143Y-126147287D02*
X148680714Y-126183572D01*
X148717000Y-126219858D01*
X148753286Y-126292429D01*
X148753286Y-126365001D01*
X148245286Y-126727858D02*
X148281571Y-126655286D01*
X148317857Y-126619001D01*
X148390429Y-126582715D01*
X148608143Y-126582715D01*
X148680714Y-126619001D01*
X148717000Y-126655286D01*
X148753286Y-126727858D01*
X148753286Y-126836715D01*
X148717000Y-126909286D01*
X148680714Y-126945572D01*
X148608143Y-126981858D01*
X148390429Y-126981858D01*
X148317857Y-126945572D01*
X148281571Y-126909286D01*
X148245286Y-126836715D01*
X148245286Y-126727858D01*
X148281571Y-127272144D02*
X148245286Y-127344715D01*
X148245286Y-127489858D01*
X148281571Y-127562430D01*
X148354143Y-127598715D01*
X148390429Y-127598715D01*
X148463000Y-127562430D01*
X148499286Y-127489858D01*
X148499286Y-127381001D01*
X148535571Y-127308430D01*
X148608143Y-127272144D01*
X148644429Y-127272144D01*
X148717000Y-127308430D01*
X148753286Y-127381001D01*
X148753286Y-127489858D01*
X148717000Y-127562430D01*
X148245286Y-128505858D02*
X149007286Y-128505858D01*
X149007286Y-128687286D01*
X148971000Y-128796143D01*
X148898429Y-128868715D01*
X148825857Y-128905000D01*
X148680714Y-128941286D01*
X148571857Y-128941286D01*
X148426714Y-128905000D01*
X148354143Y-128868715D01*
X148281571Y-128796143D01*
X148245286Y-128687286D01*
X148245286Y-128505858D01*
X148245286Y-129267858D02*
X148753286Y-129267858D01*
X148608143Y-129267858D02*
X148680714Y-129304143D01*
X148717000Y-129340429D01*
X148753286Y-129413000D01*
X148753286Y-129485572D01*
X148753286Y-129667000D02*
X148245286Y-129848429D01*
X148753286Y-130029857D02*
X148245286Y-129848429D01*
X148063857Y-129775857D01*
X148027571Y-129739572D01*
X147991286Y-129667000D01*
X148245286Y-130320143D02*
X148753286Y-130320143D01*
X148680714Y-130320143D02*
X148717000Y-130356428D01*
X148753286Y-130429000D01*
X148753286Y-130537857D01*
X148717000Y-130610428D01*
X148644429Y-130646714D01*
X148245286Y-130646714D01*
X148644429Y-130646714D02*
X148717000Y-130683000D01*
X148753286Y-130755571D01*
X148753286Y-130864428D01*
X148717000Y-130937000D01*
X148644429Y-130973285D01*
X148245286Y-130973285D01*
X148245286Y-131445000D02*
X148281571Y-131372428D01*
X148317857Y-131336143D01*
X148390429Y-131299857D01*
X148608143Y-131299857D01*
X148680714Y-131336143D01*
X148717000Y-131372428D01*
X148753286Y-131445000D01*
X148753286Y-131553857D01*
X148717000Y-131626428D01*
X148680714Y-131662714D01*
X148608143Y-131699000D01*
X148390429Y-131699000D01*
X148317857Y-131662714D01*
X148281571Y-131626428D01*
X148245286Y-131553857D01*
X148245286Y-131445000D01*
X148753286Y-132025572D02*
X148245286Y-132025572D01*
X148680714Y-132025572D02*
X148717000Y-132061857D01*
X148753286Y-132134429D01*
X148753286Y-132243286D01*
X148717000Y-132315857D01*
X148644429Y-132352143D01*
X148245286Y-132352143D01*
X148245286Y-132715001D02*
X148753286Y-132715001D01*
X149007286Y-132715001D02*
X148971000Y-132678715D01*
X148934714Y-132715001D01*
X148971000Y-132751286D01*
X149007286Y-132715001D01*
X148934714Y-132715001D01*
X148753286Y-132969000D02*
X148753286Y-133259286D01*
X149007286Y-133077858D02*
X148354143Y-133077858D01*
X148281571Y-133114143D01*
X148245286Y-133186715D01*
X148245286Y-133259286D01*
X148245286Y-133513287D02*
X148753286Y-133513287D01*
X149007286Y-133513287D02*
X148971000Y-133477001D01*
X148934714Y-133513287D01*
X148971000Y-133549572D01*
X149007286Y-133513287D01*
X148934714Y-133513287D01*
X148281571Y-133839858D02*
X148245286Y-133912429D01*
X148245286Y-134057572D01*
X148281571Y-134130144D01*
X148354143Y-134166429D01*
X148390429Y-134166429D01*
X148463000Y-134130144D01*
X148499286Y-134057572D01*
X148499286Y-133948715D01*
X148535571Y-133876144D01*
X148608143Y-133839858D01*
X148644429Y-133839858D01*
X148717000Y-133876144D01*
X148753286Y-133948715D01*
X148753286Y-134057572D01*
X148717000Y-134130144D01*
D12*
X147320000Y-99060000D03*
D13*
X147320000Y-101600000D03*
X147320000Y-104140000D03*
X147320000Y-106680000D03*
X147320000Y-109220000D03*
X147320000Y-111760000D03*
X147320000Y-114300000D03*
X147320000Y-116840000D03*
D14*
X129540000Y-138430000D03*
D15*
X132080000Y-138430000D03*
X134620000Y-138430000D03*
X137160000Y-138430000D03*
X139700000Y-138430000D03*
X142240000Y-138430000D03*
X144780000Y-138430000D03*
X147320000Y-138430000D03*
D14*
X127000000Y-71120000D03*
D15*
X129540000Y-71120000D03*
X132080000Y-71120000D03*
X134620000Y-71120000D03*
X137160000Y-71120000D03*
X139700000Y-71120000D03*
X142240000Y-71120000D03*
X144780000Y-71120000D03*
D12*
X144780000Y-99060000D03*
D13*
X144780000Y-101600000D03*
X144780000Y-104140000D03*
X144780000Y-106680000D03*
X144780000Y-109220000D03*
X144780000Y-111760000D03*
X144780000Y-114300000D03*
X144780000Y-116840000D03*
D14*
X127000000Y-133350000D03*
D15*
X129540000Y-133350000D03*
X132080000Y-133350000D03*
X134620000Y-133350000D03*
X137160000Y-133350000D03*
X139700000Y-133350000D03*
X142240000Y-133350000D03*
X144780000Y-133350000D03*
D16*
X144780000Y-90170000D03*
D17*
X144780000Y-92710000D03*
D12*
X147320000Y-71120000D03*
D13*
X147320000Y-73660000D03*
X147320000Y-76200000D03*
X147320000Y-78740000D03*
D16*
X147320000Y-90170000D03*
D17*
X147320000Y-92710000D03*
D18*
X135890000Y-62230000D03*
X133350000Y-62230000D03*
X138430000Y-62230000D03*
D19*
X140970000Y-54610000D03*
X130810000Y-54610000D03*
D18*
X135890000Y-85090000D03*
X133350000Y-85090000D03*
X138430000Y-85090000D03*
D19*
X140970000Y-77470000D03*
X130810000Y-77470000D03*
D18*
X135890000Y-107950000D03*
X133350000Y-107950000D03*
X138430000Y-107950000D03*
D19*
X140970000Y-100330000D03*
X130810000Y-100330000D03*
D18*
X135890000Y-130810000D03*
X133350000Y-130810000D03*
X138430000Y-130810000D03*
D19*
X140970000Y-123190000D03*
X130810000Y-123190000D03*
D20*
X144780000Y-66040000D03*
X125730000Y-138430000D03*
D21*
X144780000Y-73660000D03*
X144780000Y-76200000D03*
X142240000Y-73660000D03*
X142240000Y-76200000D03*
X139700000Y-68580000D03*
X139700000Y-66040000D03*
X137160000Y-68580000D03*
X137160000Y-66040000D03*
D22*
X127000000Y-66040000D03*
X140970000Y-87630000D03*
X138430000Y-92710000D03*
X130810000Y-82550000D03*
X129540000Y-90805000D03*
X133985000Y-115570000D03*
X140970000Y-67310000D03*
D23*
X127000000Y-66040000D02*
X127000000Y-71120000D01*
X142240000Y-76200000D02*
X144780000Y-76200000D01*
X144780000Y-90170000D02*
X143510000Y-90170000D01*
X143510000Y-90170000D02*
X140970000Y-87630000D01*
X144780000Y-90170000D02*
X147320000Y-90170000D01*
X144780000Y-92710000D02*
X138430000Y-92710000D01*
X144780000Y-92710000D02*
X147320000Y-92710000D01*
X129540000Y-73660000D02*
X129540000Y-71120000D01*
X128270000Y-74930000D02*
X129540000Y-73660000D01*
X128270000Y-80010000D02*
X128270000Y-74930000D01*
X129540000Y-81280000D02*
X128270000Y-80010000D01*
X130810000Y-82550000D02*
X129540000Y-81280000D01*
X132080000Y-66040000D02*
X132080000Y-71120000D01*
X130810000Y-64770000D02*
X132080000Y-66040000D01*
X127000000Y-64770000D02*
X130810000Y-64770000D01*
X125095000Y-66675000D02*
X127000000Y-64770000D01*
X125095000Y-89535000D02*
X125095000Y-66675000D01*
X126365000Y-90805000D02*
X125095000Y-89535000D01*
X129540000Y-90805000D02*
X126365000Y-90805000D01*
X134620000Y-66675000D02*
X134620000Y-71120000D01*
X131445000Y-63500000D02*
X134620000Y-66675000D01*
X126365000Y-63500000D02*
X131445000Y-63500000D01*
X123825000Y-66040000D02*
X126365000Y-63500000D01*
X123825000Y-112395000D02*
X123825000Y-66040000D01*
X125730000Y-114300000D02*
X123825000Y-112395000D01*
X132715000Y-114300000D02*
X125730000Y-114300000D01*
X133985000Y-115570000D02*
X132715000Y-114300000D01*
X144780000Y-99060000D02*
X147320000Y-99060000D01*
X144780000Y-101600000D02*
X147320000Y-101600000D01*
X144780000Y-104140000D02*
X147320000Y-104140000D01*
X144780000Y-106680000D02*
X147320000Y-106680000D01*
X144780000Y-109220000D02*
X147320000Y-109220000D01*
X144780000Y-111760000D02*
X147320000Y-111760000D01*
X144780000Y-114300000D02*
X147320000Y-114300000D01*
X144780000Y-116840000D02*
X147320000Y-116840000D01*
X127000000Y-133350000D02*
X129540000Y-135890000D01*
X129540000Y-135890000D02*
X129540000Y-138430000D01*
X129540000Y-133350000D02*
X132080000Y-135890000D01*
X132080000Y-135890000D02*
X132080000Y-138430000D01*
X132080000Y-133350000D02*
X134620000Y-135890000D01*
X134620000Y-135890000D02*
X134620000Y-138430000D01*
X134620000Y-133350000D02*
X137160000Y-135890000D01*
X137160000Y-135890000D02*
X137160000Y-138430000D01*
X137160000Y-133350000D02*
X139700000Y-135890000D01*
X139700000Y-135890000D02*
X139700000Y-138430000D01*
X139700000Y-133350000D02*
X142240000Y-135890000D01*
X142240000Y-135890000D02*
X142240000Y-138430000D01*
X142240000Y-133350000D02*
X144780000Y-135890000D01*
X144780000Y-135890000D02*
X144780000Y-138430000D01*
X144780000Y-133350000D02*
X147320000Y-135890000D01*
X147320000Y-135890000D02*
X147320000Y-138430000D01*
X137160000Y-68580000D02*
X137795000Y-67945000D01*
X137795000Y-67945000D02*
X138430000Y-67310000D01*
X138430000Y-67310000D02*
X140970000Y-67310000D01*
X137160000Y-71120000D02*
X137160000Y-68580000D01*
X147320000Y-76200000D02*
X147955000Y-76200000D01*
X147955000Y-76200000D02*
X149225000Y-74930000D01*
X149225000Y-74930000D02*
X149225000Y-69850000D01*
X149225000Y-69850000D02*
X147955000Y-68580000D01*
X147955000Y-68580000D02*
X139700000Y-68580000D01*
X139700000Y-71120000D02*
X139700000Y-68580000D01*
X142240000Y-73660000D02*
X142240000Y-74295000D01*
X142240000Y-74295000D02*
X142875000Y-74930000D01*
X146050000Y-74930000D02*
X147320000Y-73660000D01*
X142875000Y-74930000D02*
X146050000Y-74930000D01*
X142240000Y-71120000D02*
X142240000Y-73660000D01*
X147320000Y-71120000D02*
X146050000Y-72390000D01*
X146050000Y-73025000D02*
X145415000Y-73660000D01*
X146050000Y-72390000D02*
X146050000Y-73025000D01*
X145415000Y-73660000D02*
X144780000Y-73660000D01*
X144780000Y-71120000D02*
X144780000Y-73660000D01*
D24*
G36*
X141180330Y-72364415D02*
X141455000Y-72547944D01*
X141455000Y-72559421D01*
X141110173Y-72903647D01*
X140906732Y-73393587D01*
X140906269Y-73924086D01*
X141108854Y-74414380D01*
X141483647Y-74789827D01*
X141724808Y-74889966D01*
X141771911Y-74937069D01*
X141547071Y-75030200D01*
X141485417Y-75265812D01*
X142240000Y-76020395D01*
X142254143Y-76006253D01*
X142433748Y-76185858D01*
X142419605Y-76200000D01*
X143174188Y-76954583D01*
X143409800Y-76892929D01*
X143501859Y-76631371D01*
X143610200Y-76892929D01*
X143845812Y-76954583D01*
X144600395Y-76200000D01*
X144586253Y-76185858D01*
X144765858Y-76006253D01*
X144780000Y-76020395D01*
X144794143Y-76006253D01*
X144973748Y-76185858D01*
X144959605Y-76200000D01*
X145714188Y-76954583D01*
X145848286Y-76919493D01*
X146075585Y-77259670D01*
X146390366Y-77470000D01*
X146075585Y-77680330D01*
X145750729Y-78166511D01*
X145636655Y-78740000D01*
X145750729Y-79313489D01*
X146075585Y-79799670D01*
X146561766Y-80124526D01*
X147135255Y-80238600D01*
X147504745Y-80238600D01*
X148078234Y-80124526D01*
X148564415Y-79799670D01*
X148889271Y-79313489D01*
X149003345Y-78740000D01*
X148889271Y-78166511D01*
X148564415Y-77680330D01*
X148249634Y-77470000D01*
X148564415Y-77259670D01*
X148889271Y-76773489D01*
X148987997Y-76277161D01*
X149150000Y-76115158D01*
X149150000Y-118958178D01*
X147326350Y-118958178D01*
X147326350Y-134786192D01*
X146244805Y-133704647D01*
X146278600Y-133534745D01*
X146278600Y-133165255D01*
X146164526Y-132591766D01*
X145839670Y-132105585D01*
X145353489Y-131780729D01*
X144780000Y-131666655D01*
X144206511Y-131780729D01*
X143720330Y-132105585D01*
X143510000Y-132420366D01*
X143299670Y-132105585D01*
X142813489Y-131780729D01*
X142240000Y-131666655D01*
X141666511Y-131780729D01*
X141180330Y-132105585D01*
X140970000Y-132420366D01*
X140759670Y-132105585D01*
X140273489Y-131780729D01*
X139700000Y-131666655D01*
X139511714Y-131704107D01*
X139613629Y-131602370D01*
X139826757Y-131089100D01*
X139827242Y-130533339D01*
X139615010Y-130019697D01*
X139222370Y-129626371D01*
X138709100Y-129413243D01*
X138153339Y-129412758D01*
X137639697Y-129624990D01*
X137246371Y-130017630D01*
X137160051Y-130225512D01*
X137075010Y-130019697D01*
X136682370Y-129626371D01*
X136169100Y-129413243D01*
X135613339Y-129412758D01*
X135099697Y-129624990D01*
X134706371Y-130017630D01*
X134626605Y-130209727D01*
X134572397Y-130078857D01*
X134330213Y-130009392D01*
X133529605Y-130810000D01*
X133543748Y-130824143D01*
X133364143Y-131003748D01*
X133350000Y-130989605D01*
X133335858Y-131003748D01*
X133156253Y-130824143D01*
X133170395Y-130810000D01*
X132369787Y-130009392D01*
X132127603Y-130078857D01*
X131940856Y-130602302D01*
X131968638Y-131157368D01*
X132127603Y-131541143D01*
X132369785Y-131610607D01*
X132274957Y-131705435D01*
X132080000Y-131666655D01*
X131506511Y-131780729D01*
X131020330Y-132105585D01*
X130810000Y-132420366D01*
X130599670Y-132105585D01*
X130113489Y-131780729D01*
X129540000Y-131666655D01*
X128966511Y-131780729D01*
X128480330Y-132105585D01*
X128470757Y-132119913D01*
X128466762Y-132098683D01*
X128327690Y-131882559D01*
X128115490Y-131737569D01*
X127863600Y-131686560D01*
X126136400Y-131686560D01*
X125901083Y-131730838D01*
X125684959Y-131869910D01*
X125539969Y-132082110D01*
X125488960Y-132334000D01*
X125488960Y-134366000D01*
X125533238Y-134601317D01*
X125672310Y-134817441D01*
X125884510Y-134962431D01*
X126136400Y-135013440D01*
X127553282Y-135013440D01*
X128755000Y-136215158D01*
X128755000Y-136766560D01*
X128676400Y-136766560D01*
X128441083Y-136810838D01*
X128224959Y-136949910D01*
X128089802Y-137147720D01*
X128002168Y-136936154D01*
X127628121Y-136711484D01*
X125909605Y-138430000D01*
X125923748Y-138444143D01*
X125744143Y-138623748D01*
X125730000Y-138609605D01*
X125715858Y-138623748D01*
X125536253Y-138444143D01*
X125550395Y-138430000D01*
X125536253Y-138415858D01*
X125715858Y-138236253D01*
X125730000Y-138250395D01*
X127448516Y-136531879D01*
X127223846Y-136157832D01*
X126240612Y-135759120D01*
X125179643Y-135767025D01*
X124236154Y-136157832D01*
X124011485Y-136531877D01*
X123900000Y-136420392D01*
X123900000Y-129829787D01*
X132549392Y-129829787D01*
X133350000Y-130630395D01*
X134150608Y-129829787D01*
X134081143Y-129587603D01*
X133557698Y-129400856D01*
X133002632Y-129428638D01*
X132618857Y-129587603D01*
X132549392Y-129829787D01*
X123900000Y-129829787D01*
X123900000Y-124270159D01*
X129909446Y-124270159D01*
X129995852Y-124526643D01*
X130569336Y-124736458D01*
X131179460Y-124710839D01*
X131624148Y-124526643D01*
X131710554Y-124270159D01*
X140069446Y-124270159D01*
X140155852Y-124526643D01*
X140729336Y-124736458D01*
X141339460Y-124710839D01*
X141784148Y-124526643D01*
X141870554Y-124270159D01*
X140970000Y-123369605D01*
X140069446Y-124270159D01*
X131710554Y-124270159D01*
X130810000Y-123369605D01*
X129909446Y-124270159D01*
X123900000Y-124270159D01*
X123900000Y-122949336D01*
X129263542Y-122949336D01*
X129289161Y-123559460D01*
X129473357Y-124004148D01*
X129729841Y-124090554D01*
X130630395Y-123190000D01*
X130989605Y-123190000D01*
X131890159Y-124090554D01*
X132146643Y-124004148D01*
X132356458Y-123430664D01*
X132336248Y-122949336D01*
X139423542Y-122949336D01*
X139449161Y-123559460D01*
X139633357Y-124004148D01*
X139889841Y-124090554D01*
X140790395Y-123190000D01*
X141149605Y-123190000D01*
X142050159Y-124090554D01*
X142306643Y-124004148D01*
X142516458Y-123430664D01*
X142490839Y-122820540D01*
X142306643Y-122375852D01*
X142050159Y-122289446D01*
X141149605Y-123190000D01*
X140790395Y-123190000D01*
X139889841Y-122289446D01*
X139633357Y-122375852D01*
X139423542Y-122949336D01*
X132336248Y-122949336D01*
X132330839Y-122820540D01*
X132146643Y-122375852D01*
X131890159Y-122289446D01*
X130989605Y-123190000D01*
X130630395Y-123190000D01*
X129729841Y-122289446D01*
X129473357Y-122375852D01*
X129263542Y-122949336D01*
X123900000Y-122949336D01*
X123900000Y-122109841D01*
X129909446Y-122109841D01*
X130810000Y-123010395D01*
X131710554Y-122109841D01*
X140069446Y-122109841D01*
X140970000Y-123010395D01*
X141870554Y-122109841D01*
X141784148Y-121853357D01*
X141210664Y-121643542D01*
X140600540Y-121669161D01*
X140155852Y-121853357D01*
X140069446Y-122109841D01*
X131710554Y-122109841D01*
X131624148Y-121853357D01*
X131050664Y-121643542D01*
X130440540Y-121669161D01*
X129995852Y-121853357D01*
X129909446Y-122109841D01*
X123900000Y-122109841D01*
X123900000Y-113580158D01*
X125174921Y-114855079D01*
X125429594Y-115025245D01*
X125730000Y-115085000D01*
X132389842Y-115085000D01*
X133049847Y-115745005D01*
X133049838Y-115755167D01*
X133191883Y-116098943D01*
X133454673Y-116362192D01*
X133798201Y-116504838D01*
X134170167Y-116505162D01*
X134513943Y-116363117D01*
X134777192Y-116100327D01*
X134919838Y-115756799D01*
X134920162Y-115384833D01*
X134778117Y-115041057D01*
X134515327Y-114777808D01*
X134171799Y-114635162D01*
X134160310Y-114635152D01*
X133270079Y-113744921D01*
X133015407Y-113574755D01*
X132715000Y-113515000D01*
X126055158Y-113515000D01*
X124610000Y-112069842D01*
X124610000Y-108930213D01*
X132549392Y-108930213D01*
X132618857Y-109172397D01*
X133142302Y-109359144D01*
X133697368Y-109331362D01*
X134081143Y-109172397D01*
X134150608Y-108930213D01*
X133350000Y-108129605D01*
X132549392Y-108930213D01*
X124610000Y-108930213D01*
X124610000Y-107742302D01*
X131940856Y-107742302D01*
X131968638Y-108297368D01*
X132127603Y-108681143D01*
X132369787Y-108750608D01*
X133170395Y-107950000D01*
X133529605Y-107950000D01*
X134330213Y-108750608D01*
X134572397Y-108681143D01*
X134622509Y-108540682D01*
X134704990Y-108740303D01*
X135097630Y-109133629D01*
X135610900Y-109346757D01*
X136166661Y-109347242D01*
X136680303Y-109135010D01*
X137073629Y-108742370D01*
X137159949Y-108534488D01*
X137244990Y-108740303D01*
X137637630Y-109133629D01*
X138150900Y-109346757D01*
X138706661Y-109347242D01*
X139220303Y-109135010D01*
X139613629Y-108742370D01*
X139826757Y-108229100D01*
X139827242Y-107673339D01*
X139615010Y-107159697D01*
X139222370Y-106766371D01*
X138709100Y-106553243D01*
X138153339Y-106552758D01*
X137639697Y-106764990D01*
X137246371Y-107157630D01*
X137160051Y-107365512D01*
X137075010Y-107159697D01*
X136682370Y-106766371D01*
X136169100Y-106553243D01*
X135613339Y-106552758D01*
X135099697Y-106764990D01*
X134706371Y-107157630D01*
X134626605Y-107349727D01*
X134572397Y-107218857D01*
X134330213Y-107149392D01*
X133529605Y-107950000D01*
X133170395Y-107950000D01*
X132369787Y-107149392D01*
X132127603Y-107218857D01*
X131940856Y-107742302D01*
X124610000Y-107742302D01*
X124610000Y-106969787D01*
X132549392Y-106969787D01*
X133350000Y-107770395D01*
X134150608Y-106969787D01*
X134081143Y-106727603D01*
X133557698Y-106540856D01*
X133002632Y-106568638D01*
X132618857Y-106727603D01*
X132549392Y-106969787D01*
X124610000Y-106969787D01*
X124610000Y-101410159D01*
X129909446Y-101410159D01*
X129995852Y-101666643D01*
X130569336Y-101876458D01*
X131179460Y-101850839D01*
X131624148Y-101666643D01*
X131710554Y-101410159D01*
X140069446Y-101410159D01*
X140155852Y-101666643D01*
X140729336Y-101876458D01*
X141339460Y-101850839D01*
X141784148Y-101666643D01*
X141806599Y-101600000D01*
X143096655Y-101600000D01*
X143210729Y-102173489D01*
X143535585Y-102659670D01*
X143850366Y-102870000D01*
X143535585Y-103080330D01*
X143210729Y-103566511D01*
X143096655Y-104140000D01*
X143210729Y-104713489D01*
X143535585Y-105199670D01*
X143850366Y-105410000D01*
X143535585Y-105620330D01*
X143210729Y-106106511D01*
X143096655Y-106680000D01*
X143210729Y-107253489D01*
X143535585Y-107739670D01*
X143850366Y-107950000D01*
X143535585Y-108160330D01*
X143210729Y-108646511D01*
X143096655Y-109220000D01*
X143210729Y-109793489D01*
X143535585Y-110279670D01*
X143850366Y-110490000D01*
X143535585Y-110700330D01*
X143210729Y-111186511D01*
X143096655Y-111760000D01*
X143210729Y-112333489D01*
X143535585Y-112819670D01*
X143850366Y-113030000D01*
X143535585Y-113240330D01*
X143210729Y-113726511D01*
X143096655Y-114300000D01*
X143210729Y-114873489D01*
X143535585Y-115359670D01*
X143850366Y-115570000D01*
X143535585Y-115780330D01*
X143210729Y-116266511D01*
X143096655Y-116840000D01*
X143210729Y-117413489D01*
X143535585Y-117899670D01*
X144021766Y-118224526D01*
X144595255Y-118338600D01*
X144964745Y-118338600D01*
X145538234Y-118224526D01*
X146024415Y-117899670D01*
X146050000Y-117861379D01*
X146075585Y-117899670D01*
X146561766Y-118224526D01*
X147135255Y-118338600D01*
X147504745Y-118338600D01*
X148078234Y-118224526D01*
X148564415Y-117899670D01*
X148889271Y-117413489D01*
X149003345Y-116840000D01*
X148889271Y-116266511D01*
X148564415Y-115780330D01*
X148249634Y-115570000D01*
X148564415Y-115359670D01*
X148889271Y-114873489D01*
X149003345Y-114300000D01*
X148889271Y-113726511D01*
X148564415Y-113240330D01*
X148249634Y-113030000D01*
X148564415Y-112819670D01*
X148889271Y-112333489D01*
X149003345Y-111760000D01*
X148889271Y-111186511D01*
X148564415Y-110700330D01*
X148249634Y-110490000D01*
X148564415Y-110279670D01*
X148889271Y-109793489D01*
X149003345Y-109220000D01*
X148889271Y-108646511D01*
X148564415Y-108160330D01*
X148249634Y-107950000D01*
X148564415Y-107739670D01*
X148889271Y-107253489D01*
X149003345Y-106680000D01*
X148889271Y-106106511D01*
X148564415Y-105620330D01*
X148249634Y-105410000D01*
X148564415Y-105199670D01*
X148889271Y-104713489D01*
X149003345Y-104140000D01*
X148889271Y-103566511D01*
X148564415Y-103080330D01*
X148249634Y-102870000D01*
X148564415Y-102659670D01*
X148889271Y-102173489D01*
X149003345Y-101600000D01*
X148889271Y-101026511D01*
X148564415Y-100540330D01*
X148550087Y-100530757D01*
X148571317Y-100526762D01*
X148787441Y-100387690D01*
X148932431Y-100175490D01*
X148983440Y-99923600D01*
X148983440Y-98196400D01*
X148939162Y-97961083D01*
X148800090Y-97744959D01*
X148587890Y-97599969D01*
X148336000Y-97548960D01*
X146304000Y-97548960D01*
X146068683Y-97593238D01*
X146052901Y-97603393D01*
X146047890Y-97599969D01*
X145796000Y-97548960D01*
X143764000Y-97548960D01*
X143528683Y-97593238D01*
X143312559Y-97732310D01*
X143167569Y-97944510D01*
X143116560Y-98196400D01*
X143116560Y-99923600D01*
X143160838Y-100158917D01*
X143299910Y-100375041D01*
X143512110Y-100520031D01*
X143553439Y-100528400D01*
X143535585Y-100540330D01*
X143210729Y-101026511D01*
X143096655Y-101600000D01*
X141806599Y-101600000D01*
X141870554Y-101410159D01*
X140970000Y-100509605D01*
X140069446Y-101410159D01*
X131710554Y-101410159D01*
X130810000Y-100509605D01*
X129909446Y-101410159D01*
X124610000Y-101410159D01*
X124610000Y-100089336D01*
X129263542Y-100089336D01*
X129289161Y-100699460D01*
X129473357Y-101144148D01*
X129729841Y-101230554D01*
X130630395Y-100330000D01*
X130989605Y-100330000D01*
X131890159Y-101230554D01*
X132146643Y-101144148D01*
X132356458Y-100570664D01*
X132336248Y-100089336D01*
X139423542Y-100089336D01*
X139449161Y-100699460D01*
X139633357Y-101144148D01*
X139889841Y-101230554D01*
X140790395Y-100330000D01*
X141149605Y-100330000D01*
X142050159Y-101230554D01*
X142306643Y-101144148D01*
X142516458Y-100570664D01*
X142490839Y-99960540D01*
X142306643Y-99515852D01*
X142050159Y-99429446D01*
X141149605Y-100330000D01*
X140790395Y-100330000D01*
X139889841Y-99429446D01*
X139633357Y-99515852D01*
X139423542Y-100089336D01*
X132336248Y-100089336D01*
X132330839Y-99960540D01*
X132146643Y-99515852D01*
X131890159Y-99429446D01*
X130989605Y-100330000D01*
X130630395Y-100330000D01*
X129729841Y-99429446D01*
X129473357Y-99515852D01*
X129263542Y-100089336D01*
X124610000Y-100089336D01*
X124610000Y-99249841D01*
X129909446Y-99249841D01*
X130810000Y-100150395D01*
X131710554Y-99249841D01*
X140069446Y-99249841D01*
X140970000Y-100150395D01*
X141870554Y-99249841D01*
X141784148Y-98993357D01*
X141210664Y-98783542D01*
X140600540Y-98809161D01*
X140155852Y-98993357D01*
X140069446Y-99249841D01*
X131710554Y-99249841D01*
X131624148Y-98993357D01*
X131050664Y-98783542D01*
X130440540Y-98809161D01*
X129995852Y-98993357D01*
X129909446Y-99249841D01*
X124610000Y-99249841D01*
X124610000Y-92895167D01*
X137494838Y-92895167D01*
X137636883Y-93238943D01*
X137899673Y-93502192D01*
X138243201Y-93644838D01*
X138615167Y-93645162D01*
X138958943Y-93503117D01*
X138967074Y-93495000D01*
X143324688Y-93495000D01*
X143580222Y-93877433D01*
X144115845Y-94235325D01*
X144747655Y-94361000D01*
X144812345Y-94361000D01*
X145444155Y-94235325D01*
X145979778Y-93877433D01*
X146050000Y-93772338D01*
X146120222Y-93877433D01*
X146655845Y-94235325D01*
X147287655Y-94361000D01*
X147352345Y-94361000D01*
X147984155Y-94235325D01*
X148519778Y-93877433D01*
X148877670Y-93341810D01*
X149003345Y-92710000D01*
X148877670Y-92078190D01*
X148653034Y-91741999D01*
X148695698Y-91724327D01*
X148874327Y-91545699D01*
X148971000Y-91312310D01*
X148971000Y-90455750D01*
X148812250Y-90297000D01*
X147447000Y-90297000D01*
X147447000Y-90317000D01*
X147193000Y-90317000D01*
X147193000Y-90297000D01*
X144907000Y-90297000D01*
X144907000Y-90317000D01*
X144653000Y-90317000D01*
X144653000Y-90297000D01*
X143287750Y-90297000D01*
X143129000Y-90455750D01*
X143129000Y-91312310D01*
X143225673Y-91545699D01*
X143404302Y-91724327D01*
X143446966Y-91741999D01*
X143324688Y-91925000D01*
X138967506Y-91925000D01*
X138960327Y-91917808D01*
X138616799Y-91775162D01*
X138244833Y-91774838D01*
X137901057Y-91916883D01*
X137637808Y-92179673D01*
X137495162Y-92523201D01*
X137494838Y-92895167D01*
X124610000Y-92895167D01*
X124610000Y-90160158D01*
X125809921Y-91360079D01*
X126064593Y-91530245D01*
X126365000Y-91590000D01*
X129002494Y-91590000D01*
X129009673Y-91597192D01*
X129353201Y-91739838D01*
X129725167Y-91740162D01*
X130068943Y-91598117D01*
X130332192Y-91335327D01*
X130474838Y-90991799D01*
X130475162Y-90619833D01*
X130333117Y-90276057D01*
X130070327Y-90012808D01*
X129726799Y-89870162D01*
X129354833Y-89869838D01*
X129011057Y-90011883D01*
X129002926Y-90020000D01*
X126690158Y-90020000D01*
X125880000Y-89209842D01*
X125880000Y-89027690D01*
X143129000Y-89027690D01*
X143129000Y-89884250D01*
X143287750Y-90043000D01*
X144653000Y-90043000D01*
X144653000Y-88677750D01*
X144907000Y-88677750D01*
X144907000Y-90043000D01*
X147193000Y-90043000D01*
X147193000Y-88677750D01*
X147447000Y-88677750D01*
X147447000Y-90043000D01*
X148812250Y-90043000D01*
X148971000Y-89884250D01*
X148971000Y-89027690D01*
X148874327Y-88794301D01*
X148695698Y-88615673D01*
X148462309Y-88519000D01*
X147605750Y-88519000D01*
X147447000Y-88677750D01*
X147193000Y-88677750D01*
X147034250Y-88519000D01*
X146177691Y-88519000D01*
X146050000Y-88571891D01*
X145922309Y-88519000D01*
X145065750Y-88519000D01*
X144907000Y-88677750D01*
X144653000Y-88677750D01*
X144494250Y-88519000D01*
X143637691Y-88519000D01*
X143404302Y-88615673D01*
X143225673Y-88794301D01*
X143129000Y-89027690D01*
X125880000Y-89027690D01*
X125880000Y-86070213D01*
X132549392Y-86070213D01*
X132618857Y-86312397D01*
X133142302Y-86499144D01*
X133697368Y-86471362D01*
X134081143Y-86312397D01*
X134150608Y-86070213D01*
X133350000Y-85269605D01*
X132549392Y-86070213D01*
X125880000Y-86070213D01*
X125880000Y-84882302D01*
X131940856Y-84882302D01*
X131968638Y-85437368D01*
X132127603Y-85821143D01*
X132369787Y-85890608D01*
X133170395Y-85090000D01*
X133529605Y-85090000D01*
X134330213Y-85890608D01*
X134572397Y-85821143D01*
X134622509Y-85680682D01*
X134704990Y-85880303D01*
X135097630Y-86273629D01*
X135610900Y-86486757D01*
X136166661Y-86487242D01*
X136680303Y-86275010D01*
X137073629Y-85882370D01*
X137159949Y-85674488D01*
X137244990Y-85880303D01*
X137637630Y-86273629D01*
X138150900Y-86486757D01*
X138706661Y-86487242D01*
X139220303Y-86275010D01*
X139613629Y-85882370D01*
X139826757Y-85369100D01*
X139827242Y-84813339D01*
X139615010Y-84299697D01*
X139222370Y-83906371D01*
X138709100Y-83693243D01*
X138153339Y-83692758D01*
X137639697Y-83904990D01*
X137246371Y-84297630D01*
X137160051Y-84505512D01*
X137075010Y-84299697D01*
X136682370Y-83906371D01*
X136169100Y-83693243D01*
X135613339Y-83692758D01*
X135099697Y-83904990D01*
X134706371Y-84297630D01*
X134626605Y-84489727D01*
X134572397Y-84358857D01*
X134330213Y-84289392D01*
X133529605Y-85090000D01*
X133170395Y-85090000D01*
X132369787Y-84289392D01*
X132127603Y-84358857D01*
X131940856Y-84882302D01*
X125880000Y-84882302D01*
X125880000Y-84109787D01*
X132549392Y-84109787D01*
X133350000Y-84910395D01*
X134150608Y-84109787D01*
X134081143Y-83867603D01*
X133557698Y-83680856D01*
X133002632Y-83708638D01*
X132618857Y-83867603D01*
X132549392Y-84109787D01*
X125880000Y-84109787D01*
X125880000Y-72729349D01*
X125884510Y-72732431D01*
X126136400Y-72783440D01*
X127863600Y-72783440D01*
X128098917Y-72739162D01*
X128315041Y-72600090D01*
X128460031Y-72387890D01*
X128468400Y-72346561D01*
X128480330Y-72364415D01*
X128755000Y-72547944D01*
X128755000Y-73334842D01*
X127714921Y-74374921D01*
X127544755Y-74629593D01*
X127512882Y-74789827D01*
X127485000Y-74930000D01*
X127485000Y-80010000D01*
X127544755Y-80310407D01*
X127714921Y-80565079D01*
X129874847Y-82725005D01*
X129874838Y-82735167D01*
X130016883Y-83078943D01*
X130279673Y-83342192D01*
X130623201Y-83484838D01*
X130995167Y-83485162D01*
X131338943Y-83343117D01*
X131602192Y-83080327D01*
X131744838Y-82736799D01*
X131745162Y-82364833D01*
X131603117Y-82021057D01*
X131340327Y-81757808D01*
X130996799Y-81615162D01*
X130985310Y-81615152D01*
X129055000Y-79684842D01*
X129055000Y-78550159D01*
X129909446Y-78550159D01*
X129995852Y-78806643D01*
X130569336Y-79016458D01*
X131179460Y-78990839D01*
X131624148Y-78806643D01*
X131710554Y-78550159D01*
X140069446Y-78550159D01*
X140155852Y-78806643D01*
X140729336Y-79016458D01*
X141339460Y-78990839D01*
X141784148Y-78806643D01*
X141870554Y-78550159D01*
X140970000Y-77649605D01*
X140069446Y-78550159D01*
X131710554Y-78550159D01*
X130810000Y-77649605D01*
X129909446Y-78550159D01*
X129055000Y-78550159D01*
X129055000Y-77229336D01*
X129263542Y-77229336D01*
X129289161Y-77839460D01*
X129473357Y-78284148D01*
X129729841Y-78370554D01*
X130630395Y-77470000D01*
X130989605Y-77470000D01*
X131890159Y-78370554D01*
X132146643Y-78284148D01*
X132356458Y-77710664D01*
X132336248Y-77229336D01*
X139423542Y-77229336D01*
X139449161Y-77839460D01*
X139633357Y-78284148D01*
X139889841Y-78370554D01*
X140790395Y-77470000D01*
X141149605Y-77470000D01*
X142050159Y-78370554D01*
X142306643Y-78284148D01*
X142516458Y-77710664D01*
X142508489Y-77520881D01*
X142577199Y-77517148D01*
X142932929Y-77369800D01*
X142994583Y-77134188D01*
X144025417Y-77134188D01*
X144087071Y-77369800D01*
X144587480Y-77545927D01*
X145117199Y-77517148D01*
X145472929Y-77369800D01*
X145534583Y-77134188D01*
X144780000Y-76379605D01*
X144025417Y-77134188D01*
X142994583Y-77134188D01*
X142240000Y-76379605D01*
X141149605Y-77470000D01*
X140790395Y-77470000D01*
X139889841Y-76569446D01*
X139633357Y-76655852D01*
X139423542Y-77229336D01*
X132336248Y-77229336D01*
X132330839Y-77100540D01*
X132146643Y-76655852D01*
X131890159Y-76569446D01*
X130989605Y-77470000D01*
X130630395Y-77470000D01*
X129729841Y-76569446D01*
X129473357Y-76655852D01*
X129263542Y-77229336D01*
X129055000Y-77229336D01*
X129055000Y-76389841D01*
X129909446Y-76389841D01*
X130810000Y-77290395D01*
X131710554Y-76389841D01*
X140069446Y-76389841D01*
X140970000Y-77290395D01*
X142060395Y-76200000D01*
X141305812Y-75445417D01*
X141070200Y-75507071D01*
X140919310Y-75935776D01*
X140600540Y-75949161D01*
X140155852Y-76133357D01*
X140069446Y-76389841D01*
X131710554Y-76389841D01*
X131624148Y-76133357D01*
X131050664Y-75923542D01*
X130440540Y-75949161D01*
X129995852Y-76133357D01*
X129909446Y-76389841D01*
X129055000Y-76389841D01*
X129055000Y-75255158D01*
X130095079Y-74215079D01*
X130265245Y-73960407D01*
X130325000Y-73660000D01*
X130325000Y-72547944D01*
X130599670Y-72364415D01*
X130810000Y-72049634D01*
X131020330Y-72364415D01*
X131506511Y-72689271D01*
X132080000Y-72803345D01*
X132653489Y-72689271D01*
X133139670Y-72364415D01*
X133350000Y-72049634D01*
X133560330Y-72364415D01*
X134046511Y-72689271D01*
X134620000Y-72803345D01*
X135193489Y-72689271D01*
X135679670Y-72364415D01*
X135890000Y-72049634D01*
X136100330Y-72364415D01*
X136586511Y-72689271D01*
X137160000Y-72803345D01*
X137733489Y-72689271D01*
X138219670Y-72364415D01*
X138430000Y-72049634D01*
X138640330Y-72364415D01*
X139126511Y-72689271D01*
X139700000Y-72803345D01*
X140273489Y-72689271D01*
X140759670Y-72364415D01*
X140970000Y-72049634D01*
X141180330Y-72364415D01*
X141180330Y-72364415D01*
G37*
X141180330Y-72364415D02*
X141455000Y-72547944D01*
X141455000Y-72559421D01*
X141110173Y-72903647D01*
X140906732Y-73393587D01*
X140906269Y-73924086D01*
X141108854Y-74414380D01*
X141483647Y-74789827D01*
X141724808Y-74889966D01*
X141771911Y-74937069D01*
X141547071Y-75030200D01*
X141485417Y-75265812D01*
X142240000Y-76020395D01*
X142254143Y-76006253D01*
X142433748Y-76185858D01*
X142419605Y-76200000D01*
X143174188Y-76954583D01*
X143409800Y-76892929D01*
X143501859Y-76631371D01*
X143610200Y-76892929D01*
X143845812Y-76954583D01*
X144600395Y-76200000D01*
X144586253Y-76185858D01*
X144765858Y-76006253D01*
X144780000Y-76020395D01*
X144794143Y-76006253D01*
X144973748Y-76185858D01*
X144959605Y-76200000D01*
X145714188Y-76954583D01*
X145848286Y-76919493D01*
X146075585Y-77259670D01*
X146390366Y-77470000D01*
X146075585Y-77680330D01*
X145750729Y-78166511D01*
X145636655Y-78740000D01*
X145750729Y-79313489D01*
X146075585Y-79799670D01*
X146561766Y-80124526D01*
X147135255Y-80238600D01*
X147504745Y-80238600D01*
X148078234Y-80124526D01*
X148564415Y-79799670D01*
X148889271Y-79313489D01*
X149003345Y-78740000D01*
X148889271Y-78166511D01*
X148564415Y-77680330D01*
X148249634Y-77470000D01*
X148564415Y-77259670D01*
X148889271Y-76773489D01*
X148987997Y-76277161D01*
X149150000Y-76115158D01*
X149150000Y-118958178D01*
X147326350Y-118958178D01*
X147326350Y-134786192D01*
X146244805Y-133704647D01*
X146278600Y-133534745D01*
X146278600Y-133165255D01*
X146164526Y-132591766D01*
X145839670Y-132105585D01*
X145353489Y-131780729D01*
X144780000Y-131666655D01*
X144206511Y-131780729D01*
X143720330Y-132105585D01*
X143510000Y-132420366D01*
X143299670Y-132105585D01*
X142813489Y-131780729D01*
X142240000Y-131666655D01*
X141666511Y-131780729D01*
X141180330Y-132105585D01*
X140970000Y-132420366D01*
X140759670Y-132105585D01*
X140273489Y-131780729D01*
X139700000Y-131666655D01*
X139511714Y-131704107D01*
X139613629Y-131602370D01*
X139826757Y-131089100D01*
X139827242Y-130533339D01*
X139615010Y-130019697D01*
X139222370Y-129626371D01*
X138709100Y-129413243D01*
X138153339Y-129412758D01*
X137639697Y-129624990D01*
X137246371Y-130017630D01*
X137160051Y-130225512D01*
X137075010Y-130019697D01*
X136682370Y-129626371D01*
X136169100Y-129413243D01*
X135613339Y-129412758D01*
X135099697Y-129624990D01*
X134706371Y-130017630D01*
X134626605Y-130209727D01*
X134572397Y-130078857D01*
X134330213Y-130009392D01*
X133529605Y-130810000D01*
X133543748Y-130824143D01*
X133364143Y-131003748D01*
X133350000Y-130989605D01*
X133335858Y-131003748D01*
X133156253Y-130824143D01*
X133170395Y-130810000D01*
X132369787Y-130009392D01*
X132127603Y-130078857D01*
X131940856Y-130602302D01*
X131968638Y-131157368D01*
X132127603Y-131541143D01*
X132369785Y-131610607D01*
X132274957Y-131705435D01*
X132080000Y-131666655D01*
X131506511Y-131780729D01*
X131020330Y-132105585D01*
X130810000Y-132420366D01*
X130599670Y-132105585D01*
X130113489Y-131780729D01*
X129540000Y-131666655D01*
X128966511Y-131780729D01*
X128480330Y-132105585D01*
X128470757Y-132119913D01*
X128466762Y-132098683D01*
X128327690Y-131882559D01*
X128115490Y-131737569D01*
X127863600Y-131686560D01*
X126136400Y-131686560D01*
X125901083Y-131730838D01*
X125684959Y-131869910D01*
X125539969Y-132082110D01*
X125488960Y-132334000D01*
X125488960Y-134366000D01*
X125533238Y-134601317D01*
X125672310Y-134817441D01*
X125884510Y-134962431D01*
X126136400Y-135013440D01*
X127553282Y-135013440D01*
X128755000Y-136215158D01*
X128755000Y-136766560D01*
X128676400Y-136766560D01*
X128441083Y-136810838D01*
X128224959Y-136949910D01*
X128089802Y-137147720D01*
X128002168Y-136936154D01*
X127628121Y-136711484D01*
X125909605Y-138430000D01*
X125923748Y-138444143D01*
X125744143Y-138623748D01*
X125730000Y-138609605D01*
X125715858Y-138623748D01*
X125536253Y-138444143D01*
X125550395Y-138430000D01*
X125536253Y-138415858D01*
X125715858Y-138236253D01*
X125730000Y-138250395D01*
X127448516Y-136531879D01*
X127223846Y-136157832D01*
X126240612Y-135759120D01*
X125179643Y-135767025D01*
X124236154Y-136157832D01*
X124011485Y-136531877D01*
X123900000Y-136420392D01*
X123900000Y-129829787D01*
X132549392Y-129829787D01*
X133350000Y-130630395D01*
X134150608Y-129829787D01*
X134081143Y-129587603D01*
X133557698Y-129400856D01*
X133002632Y-129428638D01*
X132618857Y-129587603D01*
X132549392Y-129829787D01*
X123900000Y-129829787D01*
X123900000Y-124270159D01*
X129909446Y-124270159D01*
X129995852Y-124526643D01*
X130569336Y-124736458D01*
X131179460Y-124710839D01*
X131624148Y-124526643D01*
X131710554Y-124270159D01*
X140069446Y-124270159D01*
X140155852Y-124526643D01*
X140729336Y-124736458D01*
X141339460Y-124710839D01*
X141784148Y-124526643D01*
X141870554Y-124270159D01*
X140970000Y-123369605D01*
X140069446Y-124270159D01*
X131710554Y-124270159D01*
X130810000Y-123369605D01*
X129909446Y-124270159D01*
X123900000Y-124270159D01*
X123900000Y-122949336D01*
X129263542Y-122949336D01*
X129289161Y-123559460D01*
X129473357Y-124004148D01*
X129729841Y-124090554D01*
X130630395Y-123190000D01*
X130989605Y-123190000D01*
X131890159Y-124090554D01*
X132146643Y-124004148D01*
X132356458Y-123430664D01*
X132336248Y-122949336D01*
X139423542Y-122949336D01*
X139449161Y-123559460D01*
X139633357Y-124004148D01*
X139889841Y-124090554D01*
X140790395Y-123190000D01*
X141149605Y-123190000D01*
X142050159Y-124090554D01*
X142306643Y-124004148D01*
X142516458Y-123430664D01*
X142490839Y-122820540D01*
X142306643Y-122375852D01*
X142050159Y-122289446D01*
X141149605Y-123190000D01*
X140790395Y-123190000D01*
X139889841Y-122289446D01*
X139633357Y-122375852D01*
X139423542Y-122949336D01*
X132336248Y-122949336D01*
X132330839Y-122820540D01*
X132146643Y-122375852D01*
X131890159Y-122289446D01*
X130989605Y-123190000D01*
X130630395Y-123190000D01*
X129729841Y-122289446D01*
X129473357Y-122375852D01*
X129263542Y-122949336D01*
X123900000Y-122949336D01*
X123900000Y-122109841D01*
X129909446Y-122109841D01*
X130810000Y-123010395D01*
X131710554Y-122109841D01*
X140069446Y-122109841D01*
X140970000Y-123010395D01*
X141870554Y-122109841D01*
X141784148Y-121853357D01*
X141210664Y-121643542D01*
X140600540Y-121669161D01*
X140155852Y-121853357D01*
X140069446Y-122109841D01*
X131710554Y-122109841D01*
X131624148Y-121853357D01*
X131050664Y-121643542D01*
X130440540Y-121669161D01*
X129995852Y-121853357D01*
X129909446Y-122109841D01*
X123900000Y-122109841D01*
X123900000Y-113580158D01*
X125174921Y-114855079D01*
X125429594Y-115025245D01*
X125730000Y-115085000D01*
X132389842Y-115085000D01*
X133049847Y-115745005D01*
X133049838Y-115755167D01*
X133191883Y-116098943D01*
X133454673Y-116362192D01*
X133798201Y-116504838D01*
X134170167Y-116505162D01*
X134513943Y-116363117D01*
X134777192Y-116100327D01*
X134919838Y-115756799D01*
X134920162Y-115384833D01*
X134778117Y-115041057D01*
X134515327Y-114777808D01*
X134171799Y-114635162D01*
X134160310Y-114635152D01*
X133270079Y-113744921D01*
X133015407Y-113574755D01*
X132715000Y-113515000D01*
X126055158Y-113515000D01*
X124610000Y-112069842D01*
X124610000Y-108930213D01*
X132549392Y-108930213D01*
X132618857Y-109172397D01*
X133142302Y-109359144D01*
X133697368Y-109331362D01*
X134081143Y-109172397D01*
X134150608Y-108930213D01*
X133350000Y-108129605D01*
X132549392Y-108930213D01*
X124610000Y-108930213D01*
X124610000Y-107742302D01*
X131940856Y-107742302D01*
X131968638Y-108297368D01*
X132127603Y-108681143D01*
X132369787Y-108750608D01*
X133170395Y-107950000D01*
X133529605Y-107950000D01*
X134330213Y-108750608D01*
X134572397Y-108681143D01*
X134622509Y-108540682D01*
X134704990Y-108740303D01*
X135097630Y-109133629D01*
X135610900Y-109346757D01*
X136166661Y-109347242D01*
X136680303Y-109135010D01*
X137073629Y-108742370D01*
X137159949Y-108534488D01*
X137244990Y-108740303D01*
X137637630Y-109133629D01*
X138150900Y-109346757D01*
X138706661Y-109347242D01*
X139220303Y-109135010D01*
X139613629Y-108742370D01*
X139826757Y-108229100D01*
X139827242Y-107673339D01*
X139615010Y-107159697D01*
X139222370Y-106766371D01*
X138709100Y-106553243D01*
X138153339Y-106552758D01*
X137639697Y-106764990D01*
X137246371Y-107157630D01*
X137160051Y-107365512D01*
X137075010Y-107159697D01*
X136682370Y-106766371D01*
X136169100Y-106553243D01*
X135613339Y-106552758D01*
X135099697Y-106764990D01*
X134706371Y-107157630D01*
X134626605Y-107349727D01*
X134572397Y-107218857D01*
X134330213Y-107149392D01*
X133529605Y-107950000D01*
X133170395Y-107950000D01*
X132369787Y-107149392D01*
X132127603Y-107218857D01*
X131940856Y-107742302D01*
X124610000Y-107742302D01*
X124610000Y-106969787D01*
X132549392Y-106969787D01*
X133350000Y-107770395D01*
X134150608Y-106969787D01*
X134081143Y-106727603D01*
X133557698Y-106540856D01*
X133002632Y-106568638D01*
X132618857Y-106727603D01*
X132549392Y-106969787D01*
X124610000Y-106969787D01*
X124610000Y-101410159D01*
X129909446Y-101410159D01*
X129995852Y-101666643D01*
X130569336Y-101876458D01*
X131179460Y-101850839D01*
X131624148Y-101666643D01*
X131710554Y-101410159D01*
X140069446Y-101410159D01*
X140155852Y-101666643D01*
X140729336Y-101876458D01*
X141339460Y-101850839D01*
X141784148Y-101666643D01*
X141806599Y-101600000D01*
X143096655Y-101600000D01*
X143210729Y-102173489D01*
X143535585Y-102659670D01*
X143850366Y-102870000D01*
X143535585Y-103080330D01*
X143210729Y-103566511D01*
X143096655Y-104140000D01*
X143210729Y-104713489D01*
X143535585Y-105199670D01*
X143850366Y-105410000D01*
X143535585Y-105620330D01*
X143210729Y-106106511D01*
X143096655Y-106680000D01*
X143210729Y-107253489D01*
X143535585Y-107739670D01*
X143850366Y-107950000D01*
X143535585Y-108160330D01*
X143210729Y-108646511D01*
X143096655Y-109220000D01*
X143210729Y-109793489D01*
X143535585Y-110279670D01*
X143850366Y-110490000D01*
X143535585Y-110700330D01*
X143210729Y-111186511D01*
X143096655Y-111760000D01*
X143210729Y-112333489D01*
X143535585Y-112819670D01*
X143850366Y-113030000D01*
X143535585Y-113240330D01*
X143210729Y-113726511D01*
X143096655Y-114300000D01*
X143210729Y-114873489D01*
X143535585Y-115359670D01*
X143850366Y-115570000D01*
X143535585Y-115780330D01*
X143210729Y-116266511D01*
X143096655Y-116840000D01*
X143210729Y-117413489D01*
X143535585Y-117899670D01*
X144021766Y-118224526D01*
X144595255Y-118338600D01*
X144964745Y-118338600D01*
X145538234Y-118224526D01*
X146024415Y-117899670D01*
X146050000Y-117861379D01*
X146075585Y-117899670D01*
X146561766Y-118224526D01*
X147135255Y-118338600D01*
X147504745Y-118338600D01*
X148078234Y-118224526D01*
X148564415Y-117899670D01*
X148889271Y-117413489D01*
X149003345Y-116840000D01*
X148889271Y-116266511D01*
X148564415Y-115780330D01*
X148249634Y-115570000D01*
X148564415Y-115359670D01*
X148889271Y-114873489D01*
X149003345Y-114300000D01*
X148889271Y-113726511D01*
X148564415Y-113240330D01*
X148249634Y-113030000D01*
X148564415Y-112819670D01*
X148889271Y-112333489D01*
X149003345Y-111760000D01*
X148889271Y-111186511D01*
X148564415Y-110700330D01*
X148249634Y-110490000D01*
X148564415Y-110279670D01*
X148889271Y-109793489D01*
X149003345Y-109220000D01*
X148889271Y-108646511D01*
X148564415Y-108160330D01*
X148249634Y-107950000D01*
X148564415Y-107739670D01*
X148889271Y-107253489D01*
X149003345Y-106680000D01*
X148889271Y-106106511D01*
X148564415Y-105620330D01*
X148249634Y-105410000D01*
X148564415Y-105199670D01*
X148889271Y-104713489D01*
X149003345Y-104140000D01*
X148889271Y-103566511D01*
X148564415Y-103080330D01*
X148249634Y-102870000D01*
X148564415Y-102659670D01*
X148889271Y-102173489D01*
X149003345Y-101600000D01*
X148889271Y-101026511D01*
X148564415Y-100540330D01*
X148550087Y-100530757D01*
X148571317Y-100526762D01*
X148787441Y-100387690D01*
X148932431Y-100175490D01*
X148983440Y-99923600D01*
X148983440Y-98196400D01*
X148939162Y-97961083D01*
X148800090Y-97744959D01*
X148587890Y-97599969D01*
X148336000Y-97548960D01*
X146304000Y-97548960D01*
X146068683Y-97593238D01*
X146052901Y-97603393D01*
X146047890Y-97599969D01*
X145796000Y-97548960D01*
X143764000Y-97548960D01*
X143528683Y-97593238D01*
X143312559Y-97732310D01*
X143167569Y-97944510D01*
X143116560Y-98196400D01*
X143116560Y-99923600D01*
X143160838Y-100158917D01*
X143299910Y-100375041D01*
X143512110Y-100520031D01*
X143553439Y-100528400D01*
X143535585Y-100540330D01*
X143210729Y-101026511D01*
X143096655Y-101600000D01*
X141806599Y-101600000D01*
X141870554Y-101410159D01*
X140970000Y-100509605D01*
X140069446Y-101410159D01*
X131710554Y-101410159D01*
X130810000Y-100509605D01*
X129909446Y-101410159D01*
X124610000Y-101410159D01*
X124610000Y-100089336D01*
X129263542Y-100089336D01*
X129289161Y-100699460D01*
X129473357Y-101144148D01*
X129729841Y-101230554D01*
X130630395Y-100330000D01*
X130989605Y-100330000D01*
X131890159Y-101230554D01*
X132146643Y-101144148D01*
X132356458Y-100570664D01*
X132336248Y-100089336D01*
X139423542Y-100089336D01*
X139449161Y-100699460D01*
X139633357Y-101144148D01*
X139889841Y-101230554D01*
X140790395Y-100330000D01*
X141149605Y-100330000D01*
X142050159Y-101230554D01*
X142306643Y-101144148D01*
X142516458Y-100570664D01*
X142490839Y-99960540D01*
X142306643Y-99515852D01*
X142050159Y-99429446D01*
X141149605Y-100330000D01*
X140790395Y-100330000D01*
X139889841Y-99429446D01*
X139633357Y-99515852D01*
X139423542Y-100089336D01*
X132336248Y-100089336D01*
X132330839Y-99960540D01*
X132146643Y-99515852D01*
X131890159Y-99429446D01*
X130989605Y-100330000D01*
X130630395Y-100330000D01*
X129729841Y-99429446D01*
X129473357Y-99515852D01*
X129263542Y-100089336D01*
X124610000Y-100089336D01*
X124610000Y-99249841D01*
X129909446Y-99249841D01*
X130810000Y-100150395D01*
X131710554Y-99249841D01*
X140069446Y-99249841D01*
X140970000Y-100150395D01*
X141870554Y-99249841D01*
X141784148Y-98993357D01*
X141210664Y-98783542D01*
X140600540Y-98809161D01*
X140155852Y-98993357D01*
X140069446Y-99249841D01*
X131710554Y-99249841D01*
X131624148Y-98993357D01*
X131050664Y-98783542D01*
X130440540Y-98809161D01*
X129995852Y-98993357D01*
X129909446Y-99249841D01*
X124610000Y-99249841D01*
X124610000Y-92895167D01*
X137494838Y-92895167D01*
X137636883Y-93238943D01*
X137899673Y-93502192D01*
X138243201Y-93644838D01*
X138615167Y-93645162D01*
X138958943Y-93503117D01*
X138967074Y-93495000D01*
X143324688Y-93495000D01*
X143580222Y-93877433D01*
X144115845Y-94235325D01*
X144747655Y-94361000D01*
X144812345Y-94361000D01*
X145444155Y-94235325D01*
X145979778Y-93877433D01*
X146050000Y-93772338D01*
X146120222Y-93877433D01*
X146655845Y-94235325D01*
X147287655Y-94361000D01*
X147352345Y-94361000D01*
X147984155Y-94235325D01*
X148519778Y-93877433D01*
X148877670Y-93341810D01*
X149003345Y-92710000D01*
X148877670Y-92078190D01*
X148653034Y-91741999D01*
X148695698Y-91724327D01*
X148874327Y-91545699D01*
X148971000Y-91312310D01*
X148971000Y-90455750D01*
X148812250Y-90297000D01*
X147447000Y-90297000D01*
X147447000Y-90317000D01*
X147193000Y-90317000D01*
X147193000Y-90297000D01*
X144907000Y-90297000D01*
X144907000Y-90317000D01*
X144653000Y-90317000D01*
X144653000Y-90297000D01*
X143287750Y-90297000D01*
X143129000Y-90455750D01*
X143129000Y-91312310D01*
X143225673Y-91545699D01*
X143404302Y-91724327D01*
X143446966Y-91741999D01*
X143324688Y-91925000D01*
X138967506Y-91925000D01*
X138960327Y-91917808D01*
X138616799Y-91775162D01*
X138244833Y-91774838D01*
X137901057Y-91916883D01*
X137637808Y-92179673D01*
X137495162Y-92523201D01*
X137494838Y-92895167D01*
X124610000Y-92895167D01*
X124610000Y-90160158D01*
X125809921Y-91360079D01*
X126064593Y-91530245D01*
X126365000Y-91590000D01*
X129002494Y-91590000D01*
X129009673Y-91597192D01*
X129353201Y-91739838D01*
X129725167Y-91740162D01*
X130068943Y-91598117D01*
X130332192Y-91335327D01*
X130474838Y-90991799D01*
X130475162Y-90619833D01*
X130333117Y-90276057D01*
X130070327Y-90012808D01*
X129726799Y-89870162D01*
X129354833Y-89869838D01*
X129011057Y-90011883D01*
X129002926Y-90020000D01*
X126690158Y-90020000D01*
X125880000Y-89209842D01*
X125880000Y-89027690D01*
X143129000Y-89027690D01*
X143129000Y-89884250D01*
X143287750Y-90043000D01*
X144653000Y-90043000D01*
X144653000Y-88677750D01*
X144907000Y-88677750D01*
X144907000Y-90043000D01*
X147193000Y-90043000D01*
X147193000Y-88677750D01*
X147447000Y-88677750D01*
X147447000Y-90043000D01*
X148812250Y-90043000D01*
X148971000Y-89884250D01*
X148971000Y-89027690D01*
X148874327Y-88794301D01*
X148695698Y-88615673D01*
X148462309Y-88519000D01*
X147605750Y-88519000D01*
X147447000Y-88677750D01*
X147193000Y-88677750D01*
X147034250Y-88519000D01*
X146177691Y-88519000D01*
X146050000Y-88571891D01*
X145922309Y-88519000D01*
X145065750Y-88519000D01*
X144907000Y-88677750D01*
X144653000Y-88677750D01*
X144494250Y-88519000D01*
X143637691Y-88519000D01*
X143404302Y-88615673D01*
X143225673Y-88794301D01*
X143129000Y-89027690D01*
X125880000Y-89027690D01*
X125880000Y-86070213D01*
X132549392Y-86070213D01*
X132618857Y-86312397D01*
X133142302Y-86499144D01*
X133697368Y-86471362D01*
X134081143Y-86312397D01*
X134150608Y-86070213D01*
X133350000Y-85269605D01*
X132549392Y-86070213D01*
X125880000Y-86070213D01*
X125880000Y-84882302D01*
X131940856Y-84882302D01*
X131968638Y-85437368D01*
X132127603Y-85821143D01*
X132369787Y-85890608D01*
X133170395Y-85090000D01*
X133529605Y-85090000D01*
X134330213Y-85890608D01*
X134572397Y-85821143D01*
X134622509Y-85680682D01*
X134704990Y-85880303D01*
X135097630Y-86273629D01*
X135610900Y-86486757D01*
X136166661Y-86487242D01*
X136680303Y-86275010D01*
X137073629Y-85882370D01*
X137159949Y-85674488D01*
X137244990Y-85880303D01*
X137637630Y-86273629D01*
X138150900Y-86486757D01*
X138706661Y-86487242D01*
X139220303Y-86275010D01*
X139613629Y-85882370D01*
X139826757Y-85369100D01*
X139827242Y-84813339D01*
X139615010Y-84299697D01*
X139222370Y-83906371D01*
X138709100Y-83693243D01*
X138153339Y-83692758D01*
X137639697Y-83904990D01*
X137246371Y-84297630D01*
X137160051Y-84505512D01*
X137075010Y-84299697D01*
X136682370Y-83906371D01*
X136169100Y-83693243D01*
X135613339Y-83692758D01*
X135099697Y-83904990D01*
X134706371Y-84297630D01*
X134626605Y-84489727D01*
X134572397Y-84358857D01*
X134330213Y-84289392D01*
X133529605Y-85090000D01*
X133170395Y-85090000D01*
X132369787Y-84289392D01*
X132127603Y-84358857D01*
X131940856Y-84882302D01*
X125880000Y-84882302D01*
X125880000Y-84109787D01*
X132549392Y-84109787D01*
X133350000Y-84910395D01*
X134150608Y-84109787D01*
X134081143Y-83867603D01*
X133557698Y-83680856D01*
X133002632Y-83708638D01*
X132618857Y-83867603D01*
X132549392Y-84109787D01*
X125880000Y-84109787D01*
X125880000Y-72729349D01*
X125884510Y-72732431D01*
X126136400Y-72783440D01*
X127863600Y-72783440D01*
X128098917Y-72739162D01*
X128315041Y-72600090D01*
X128460031Y-72387890D01*
X128468400Y-72346561D01*
X128480330Y-72364415D01*
X128755000Y-72547944D01*
X128755000Y-73334842D01*
X127714921Y-74374921D01*
X127544755Y-74629593D01*
X127512882Y-74789827D01*
X127485000Y-74930000D01*
X127485000Y-80010000D01*
X127544755Y-80310407D01*
X127714921Y-80565079D01*
X129874847Y-82725005D01*
X129874838Y-82735167D01*
X130016883Y-83078943D01*
X130279673Y-83342192D01*
X130623201Y-83484838D01*
X130995167Y-83485162D01*
X131338943Y-83343117D01*
X131602192Y-83080327D01*
X131744838Y-82736799D01*
X131745162Y-82364833D01*
X131603117Y-82021057D01*
X131340327Y-81757808D01*
X130996799Y-81615162D01*
X130985310Y-81615152D01*
X129055000Y-79684842D01*
X129055000Y-78550159D01*
X129909446Y-78550159D01*
X129995852Y-78806643D01*
X130569336Y-79016458D01*
X131179460Y-78990839D01*
X131624148Y-78806643D01*
X131710554Y-78550159D01*
X140069446Y-78550159D01*
X140155852Y-78806643D01*
X140729336Y-79016458D01*
X141339460Y-78990839D01*
X141784148Y-78806643D01*
X141870554Y-78550159D01*
X140970000Y-77649605D01*
X140069446Y-78550159D01*
X131710554Y-78550159D01*
X130810000Y-77649605D01*
X129909446Y-78550159D01*
X129055000Y-78550159D01*
X129055000Y-77229336D01*
X129263542Y-77229336D01*
X129289161Y-77839460D01*
X129473357Y-78284148D01*
X129729841Y-78370554D01*
X130630395Y-77470000D01*
X130989605Y-77470000D01*
X131890159Y-78370554D01*
X132146643Y-78284148D01*
X132356458Y-77710664D01*
X132336248Y-77229336D01*
X139423542Y-77229336D01*
X139449161Y-77839460D01*
X139633357Y-78284148D01*
X139889841Y-78370554D01*
X140790395Y-77470000D01*
X141149605Y-77470000D01*
X142050159Y-78370554D01*
X142306643Y-78284148D01*
X142516458Y-77710664D01*
X142508489Y-77520881D01*
X142577199Y-77517148D01*
X142932929Y-77369800D01*
X142994583Y-77134188D01*
X144025417Y-77134188D01*
X144087071Y-77369800D01*
X144587480Y-77545927D01*
X145117199Y-77517148D01*
X145472929Y-77369800D01*
X145534583Y-77134188D01*
X144780000Y-76379605D01*
X144025417Y-77134188D01*
X142994583Y-77134188D01*
X142240000Y-76379605D01*
X141149605Y-77470000D01*
X140790395Y-77470000D01*
X139889841Y-76569446D01*
X139633357Y-76655852D01*
X139423542Y-77229336D01*
X132336248Y-77229336D01*
X132330839Y-77100540D01*
X132146643Y-76655852D01*
X131890159Y-76569446D01*
X130989605Y-77470000D01*
X130630395Y-77470000D01*
X129729841Y-76569446D01*
X129473357Y-76655852D01*
X129263542Y-77229336D01*
X129055000Y-77229336D01*
X129055000Y-76389841D01*
X129909446Y-76389841D01*
X130810000Y-77290395D01*
X131710554Y-76389841D01*
X140069446Y-76389841D01*
X140970000Y-77290395D01*
X142060395Y-76200000D01*
X141305812Y-75445417D01*
X141070200Y-75507071D01*
X140919310Y-75935776D01*
X140600540Y-75949161D01*
X140155852Y-76133357D01*
X140069446Y-76389841D01*
X131710554Y-76389841D01*
X131624148Y-76133357D01*
X131050664Y-75923542D01*
X130440540Y-75949161D01*
X129995852Y-76133357D01*
X129909446Y-76389841D01*
X129055000Y-76389841D01*
X129055000Y-75255158D01*
X130095079Y-74215079D01*
X130265245Y-73960407D01*
X130325000Y-73660000D01*
X130325000Y-72547944D01*
X130599670Y-72364415D01*
X130810000Y-72049634D01*
X131020330Y-72364415D01*
X131506511Y-72689271D01*
X132080000Y-72803345D01*
X132653489Y-72689271D01*
X133139670Y-72364415D01*
X133350000Y-72049634D01*
X133560330Y-72364415D01*
X134046511Y-72689271D01*
X134620000Y-72803345D01*
X135193489Y-72689271D01*
X135679670Y-72364415D01*
X135890000Y-72049634D01*
X136100330Y-72364415D01*
X136586511Y-72689271D01*
X137160000Y-72803345D01*
X137733489Y-72689271D01*
X138219670Y-72364415D01*
X138430000Y-72049634D01*
X138640330Y-72364415D01*
X139126511Y-72689271D01*
X139700000Y-72803345D01*
X140273489Y-72689271D01*
X140759670Y-72364415D01*
X140970000Y-72049634D01*
X141180330Y-72364415D01*
G36*
X149150000Y-68664842D02*
X148510079Y-68024921D01*
X148255407Y-67854755D01*
X147955000Y-67795000D01*
X146714608Y-67795000D01*
X146678123Y-67758515D01*
X147052168Y-67533846D01*
X147450880Y-66550612D01*
X147442975Y-65489643D01*
X147052168Y-64546154D01*
X146678121Y-64321484D01*
X144959605Y-66040000D01*
X144973748Y-66054143D01*
X144794143Y-66233748D01*
X144780000Y-66219605D01*
X144765858Y-66233748D01*
X144586253Y-66054143D01*
X144600395Y-66040000D01*
X142881879Y-64321484D01*
X142507832Y-64546154D01*
X142109120Y-65529388D01*
X142117025Y-66590357D01*
X142507832Y-67533846D01*
X142881877Y-67758515D01*
X142845392Y-67795000D01*
X141781014Y-67795000D01*
X141904838Y-67496799D01*
X141905162Y-67124833D01*
X141763117Y-66781057D01*
X141500327Y-66517808D01*
X141156799Y-66375162D01*
X140995771Y-66375022D01*
X141045927Y-66232520D01*
X141017148Y-65702801D01*
X140869800Y-65347071D01*
X140634188Y-65285417D01*
X139879605Y-66040000D01*
X139893748Y-66054143D01*
X139714143Y-66233748D01*
X139700000Y-66219605D01*
X139685858Y-66233748D01*
X139506253Y-66054143D01*
X139520395Y-66040000D01*
X138765812Y-65285417D01*
X138530200Y-65347071D01*
X138438141Y-65608629D01*
X138329800Y-65347071D01*
X138094188Y-65285417D01*
X137339605Y-66040000D01*
X137353748Y-66054143D01*
X137174143Y-66233748D01*
X137160000Y-66219605D01*
X136405417Y-66974188D01*
X136467071Y-67209800D01*
X136746312Y-67308083D01*
X136405620Y-67448854D01*
X136030173Y-67823647D01*
X135826732Y-68313587D01*
X135826269Y-68844086D01*
X136028854Y-69334380D01*
X136375000Y-69681130D01*
X136375000Y-69692056D01*
X136100330Y-69875585D01*
X135890000Y-70190366D01*
X135679670Y-69875585D01*
X135405000Y-69692056D01*
X135405000Y-66675000D01*
X135383904Y-66568943D01*
X135345245Y-66374593D01*
X135175079Y-66119921D01*
X134902638Y-65847480D01*
X135814073Y-65847480D01*
X135842852Y-66377199D01*
X135990200Y-66732929D01*
X136225812Y-66794583D01*
X136980395Y-66040000D01*
X136225812Y-65285417D01*
X135990200Y-65347071D01*
X135814073Y-65847480D01*
X134902638Y-65847480D01*
X134160970Y-65105812D01*
X136405417Y-65105812D01*
X137160000Y-65860395D01*
X137914583Y-65105812D01*
X138945417Y-65105812D01*
X139700000Y-65860395D01*
X140454583Y-65105812D01*
X140392929Y-64870200D01*
X139892520Y-64694073D01*
X139362801Y-64722852D01*
X139007071Y-64870200D01*
X138945417Y-65105812D01*
X137914583Y-65105812D01*
X137852929Y-64870200D01*
X137352520Y-64694073D01*
X136822801Y-64722852D01*
X136467071Y-64870200D01*
X136405417Y-65105812D01*
X134160970Y-65105812D01*
X133197037Y-64141879D01*
X143061484Y-64141879D01*
X144780000Y-65860395D01*
X146498516Y-64141879D01*
X146273846Y-63767832D01*
X145290612Y-63369120D01*
X144229643Y-63377025D01*
X143286154Y-63767832D01*
X143061484Y-64141879D01*
X133197037Y-64141879D01*
X132265371Y-63210213D01*
X132549392Y-63210213D01*
X132618857Y-63452397D01*
X133142302Y-63639144D01*
X133697368Y-63611362D01*
X134081143Y-63452397D01*
X134150608Y-63210213D01*
X133350000Y-62409605D01*
X132549392Y-63210213D01*
X132265371Y-63210213D01*
X132000079Y-62944921D01*
X131745407Y-62774755D01*
X131445000Y-62715000D01*
X126365000Y-62715000D01*
X126064594Y-62774755D01*
X126064592Y-62774756D01*
X126064593Y-62774756D01*
X125809921Y-62944921D01*
X123900000Y-64854842D01*
X123900000Y-62022302D01*
X131940856Y-62022302D01*
X131968638Y-62577368D01*
X132127603Y-62961143D01*
X132369787Y-63030608D01*
X133170395Y-62230000D01*
X133529605Y-62230000D01*
X134330213Y-63030608D01*
X134572397Y-62961143D01*
X134622509Y-62820682D01*
X134704990Y-63020303D01*
X135097630Y-63413629D01*
X135610900Y-63626757D01*
X136166661Y-63627242D01*
X136680303Y-63415010D01*
X137073629Y-63022370D01*
X137159949Y-62814488D01*
X137244990Y-63020303D01*
X137637630Y-63413629D01*
X138150900Y-63626757D01*
X138706661Y-63627242D01*
X139220303Y-63415010D01*
X139613629Y-63022370D01*
X139826757Y-62509100D01*
X139827242Y-61953339D01*
X139615010Y-61439697D01*
X139222370Y-61046371D01*
X138709100Y-60833243D01*
X138153339Y-60832758D01*
X137639697Y-61044990D01*
X137246371Y-61437630D01*
X137160051Y-61645512D01*
X137075010Y-61439697D01*
X136682370Y-61046371D01*
X136169100Y-60833243D01*
X135613339Y-60832758D01*
X135099697Y-61044990D01*
X134706371Y-61437630D01*
X134626605Y-61629727D01*
X134572397Y-61498857D01*
X134330213Y-61429392D01*
X133529605Y-62230000D01*
X133170395Y-62230000D01*
X132369787Y-61429392D01*
X132127603Y-61498857D01*
X131940856Y-62022302D01*
X123900000Y-62022302D01*
X123900000Y-61249787D01*
X132549392Y-61249787D01*
X133350000Y-62050395D01*
X134150608Y-61249787D01*
X134081143Y-61007603D01*
X133557698Y-60820856D01*
X133002632Y-60848638D01*
X132618857Y-61007603D01*
X132549392Y-61249787D01*
X123900000Y-61249787D01*
X123900000Y-55690159D01*
X129909446Y-55690159D01*
X129995852Y-55946643D01*
X130569336Y-56156458D01*
X131179460Y-56130839D01*
X131624148Y-55946643D01*
X131710554Y-55690159D01*
X140069446Y-55690159D01*
X140155852Y-55946643D01*
X140729336Y-56156458D01*
X141339460Y-56130839D01*
X141784148Y-55946643D01*
X141870554Y-55690159D01*
X140970000Y-54789605D01*
X140069446Y-55690159D01*
X131710554Y-55690159D01*
X130810000Y-54789605D01*
X129909446Y-55690159D01*
X123900000Y-55690159D01*
X123900000Y-54369336D01*
X129263542Y-54369336D01*
X129289161Y-54979460D01*
X129473357Y-55424148D01*
X129729841Y-55510554D01*
X130630395Y-54610000D01*
X130989605Y-54610000D01*
X131890159Y-55510554D01*
X132146643Y-55424148D01*
X132356458Y-54850664D01*
X132336248Y-54369336D01*
X139423542Y-54369336D01*
X139449161Y-54979460D01*
X139633357Y-55424148D01*
X139889841Y-55510554D01*
X140790395Y-54610000D01*
X141149605Y-54610000D01*
X142050159Y-55510554D01*
X142306643Y-55424148D01*
X142516458Y-54850664D01*
X142490839Y-54240540D01*
X142306643Y-53795852D01*
X142050159Y-53709446D01*
X141149605Y-54610000D01*
X140790395Y-54610000D01*
X139889841Y-53709446D01*
X139633357Y-53795852D01*
X139423542Y-54369336D01*
X132336248Y-54369336D01*
X132330839Y-54240540D01*
X132146643Y-53795852D01*
X131890159Y-53709446D01*
X130989605Y-54610000D01*
X130630395Y-54610000D01*
X129729841Y-53709446D01*
X129473357Y-53795852D01*
X129263542Y-54369336D01*
X123900000Y-54369336D01*
X123900000Y-53529841D01*
X129909446Y-53529841D01*
X130810000Y-54430395D01*
X131710554Y-53529841D01*
X140069446Y-53529841D01*
X140970000Y-54430395D01*
X141870554Y-53529841D01*
X141784148Y-53273357D01*
X141210664Y-53063542D01*
X140600540Y-53089161D01*
X140155852Y-53273357D01*
X140069446Y-53529841D01*
X131710554Y-53529841D01*
X131624148Y-53273357D01*
X131050664Y-53063542D01*
X130440540Y-53089161D01*
X129995852Y-53273357D01*
X129909446Y-53529841D01*
X123900000Y-53529841D01*
X123900000Y-50240000D01*
X149150000Y-50240000D01*
X149150000Y-68664842D01*
X149150000Y-68664842D01*
G37*
X149150000Y-68664842D02*
X148510079Y-68024921D01*
X148255407Y-67854755D01*
X147955000Y-67795000D01*
X146714608Y-67795000D01*
X146678123Y-67758515D01*
X147052168Y-67533846D01*
X147450880Y-66550612D01*
X147442975Y-65489643D01*
X147052168Y-64546154D01*
X146678121Y-64321484D01*
X144959605Y-66040000D01*
X144973748Y-66054143D01*
X144794143Y-66233748D01*
X144780000Y-66219605D01*
X144765858Y-66233748D01*
X144586253Y-66054143D01*
X144600395Y-66040000D01*
X142881879Y-64321484D01*
X142507832Y-64546154D01*
X142109120Y-65529388D01*
X142117025Y-66590357D01*
X142507832Y-67533846D01*
X142881877Y-67758515D01*
X142845392Y-67795000D01*
X141781014Y-67795000D01*
X141904838Y-67496799D01*
X141905162Y-67124833D01*
X141763117Y-66781057D01*
X141500327Y-66517808D01*
X141156799Y-66375162D01*
X140995771Y-66375022D01*
X141045927Y-66232520D01*
X141017148Y-65702801D01*
X140869800Y-65347071D01*
X140634188Y-65285417D01*
X139879605Y-66040000D01*
X139893748Y-66054143D01*
X139714143Y-66233748D01*
X139700000Y-66219605D01*
X139685858Y-66233748D01*
X139506253Y-66054143D01*
X139520395Y-66040000D01*
X138765812Y-65285417D01*
X138530200Y-65347071D01*
X138438141Y-65608629D01*
X138329800Y-65347071D01*
X138094188Y-65285417D01*
X137339605Y-66040000D01*
X137353748Y-66054143D01*
X137174143Y-66233748D01*
X137160000Y-66219605D01*
X136405417Y-66974188D01*
X136467071Y-67209800D01*
X136746312Y-67308083D01*
X136405620Y-67448854D01*
X136030173Y-67823647D01*
X135826732Y-68313587D01*
X135826269Y-68844086D01*
X136028854Y-69334380D01*
X136375000Y-69681130D01*
X136375000Y-69692056D01*
X136100330Y-69875585D01*
X135890000Y-70190366D01*
X135679670Y-69875585D01*
X135405000Y-69692056D01*
X135405000Y-66675000D01*
X135383904Y-66568943D01*
X135345245Y-66374593D01*
X135175079Y-66119921D01*
X134902638Y-65847480D01*
X135814073Y-65847480D01*
X135842852Y-66377199D01*
X135990200Y-66732929D01*
X136225812Y-66794583D01*
X136980395Y-66040000D01*
X136225812Y-65285417D01*
X135990200Y-65347071D01*
X135814073Y-65847480D01*
X134902638Y-65847480D01*
X134160970Y-65105812D01*
X136405417Y-65105812D01*
X137160000Y-65860395D01*
X137914583Y-65105812D01*
X138945417Y-65105812D01*
X139700000Y-65860395D01*
X140454583Y-65105812D01*
X140392929Y-64870200D01*
X139892520Y-64694073D01*
X139362801Y-64722852D01*
X139007071Y-64870200D01*
X138945417Y-65105812D01*
X137914583Y-65105812D01*
X137852929Y-64870200D01*
X137352520Y-64694073D01*
X136822801Y-64722852D01*
X136467071Y-64870200D01*
X136405417Y-65105812D01*
X134160970Y-65105812D01*
X133197037Y-64141879D01*
X143061484Y-64141879D01*
X144780000Y-65860395D01*
X146498516Y-64141879D01*
X146273846Y-63767832D01*
X145290612Y-63369120D01*
X144229643Y-63377025D01*
X143286154Y-63767832D01*
X143061484Y-64141879D01*
X133197037Y-64141879D01*
X132265371Y-63210213D01*
X132549392Y-63210213D01*
X132618857Y-63452397D01*
X133142302Y-63639144D01*
X133697368Y-63611362D01*
X134081143Y-63452397D01*
X134150608Y-63210213D01*
X133350000Y-62409605D01*
X132549392Y-63210213D01*
X132265371Y-63210213D01*
X132000079Y-62944921D01*
X131745407Y-62774755D01*
X131445000Y-62715000D01*
X126365000Y-62715000D01*
X126064594Y-62774755D01*
X126064592Y-62774756D01*
X126064593Y-62774756D01*
X125809921Y-62944921D01*
X123900000Y-64854842D01*
X123900000Y-62022302D01*
X131940856Y-62022302D01*
X131968638Y-62577368D01*
X132127603Y-62961143D01*
X132369787Y-63030608D01*
X133170395Y-62230000D01*
X133529605Y-62230000D01*
X134330213Y-63030608D01*
X134572397Y-62961143D01*
X134622509Y-62820682D01*
X134704990Y-63020303D01*
X135097630Y-63413629D01*
X135610900Y-63626757D01*
X136166661Y-63627242D01*
X136680303Y-63415010D01*
X137073629Y-63022370D01*
X137159949Y-62814488D01*
X137244990Y-63020303D01*
X137637630Y-63413629D01*
X138150900Y-63626757D01*
X138706661Y-63627242D01*
X139220303Y-63415010D01*
X139613629Y-63022370D01*
X139826757Y-62509100D01*
X139827242Y-61953339D01*
X139615010Y-61439697D01*
X139222370Y-61046371D01*
X138709100Y-60833243D01*
X138153339Y-60832758D01*
X137639697Y-61044990D01*
X137246371Y-61437630D01*
X137160051Y-61645512D01*
X137075010Y-61439697D01*
X136682370Y-61046371D01*
X136169100Y-60833243D01*
X135613339Y-60832758D01*
X135099697Y-61044990D01*
X134706371Y-61437630D01*
X134626605Y-61629727D01*
X134572397Y-61498857D01*
X134330213Y-61429392D01*
X133529605Y-62230000D01*
X133170395Y-62230000D01*
X132369787Y-61429392D01*
X132127603Y-61498857D01*
X131940856Y-62022302D01*
X123900000Y-62022302D01*
X123900000Y-61249787D01*
X132549392Y-61249787D01*
X133350000Y-62050395D01*
X134150608Y-61249787D01*
X134081143Y-61007603D01*
X133557698Y-60820856D01*
X133002632Y-60848638D01*
X132618857Y-61007603D01*
X132549392Y-61249787D01*
X123900000Y-61249787D01*
X123900000Y-55690159D01*
X129909446Y-55690159D01*
X129995852Y-55946643D01*
X130569336Y-56156458D01*
X131179460Y-56130839D01*
X131624148Y-55946643D01*
X131710554Y-55690159D01*
X140069446Y-55690159D01*
X140155852Y-55946643D01*
X140729336Y-56156458D01*
X141339460Y-56130839D01*
X141784148Y-55946643D01*
X141870554Y-55690159D01*
X140970000Y-54789605D01*
X140069446Y-55690159D01*
X131710554Y-55690159D01*
X130810000Y-54789605D01*
X129909446Y-55690159D01*
X123900000Y-55690159D01*
X123900000Y-54369336D01*
X129263542Y-54369336D01*
X129289161Y-54979460D01*
X129473357Y-55424148D01*
X129729841Y-55510554D01*
X130630395Y-54610000D01*
X130989605Y-54610000D01*
X131890159Y-55510554D01*
X132146643Y-55424148D01*
X132356458Y-54850664D01*
X132336248Y-54369336D01*
X139423542Y-54369336D01*
X139449161Y-54979460D01*
X139633357Y-55424148D01*
X139889841Y-55510554D01*
X140790395Y-54610000D01*
X141149605Y-54610000D01*
X142050159Y-55510554D01*
X142306643Y-55424148D01*
X142516458Y-54850664D01*
X142490839Y-54240540D01*
X142306643Y-53795852D01*
X142050159Y-53709446D01*
X141149605Y-54610000D01*
X140790395Y-54610000D01*
X139889841Y-53709446D01*
X139633357Y-53795852D01*
X139423542Y-54369336D01*
X132336248Y-54369336D01*
X132330839Y-54240540D01*
X132146643Y-53795852D01*
X131890159Y-53709446D01*
X130989605Y-54610000D01*
X130630395Y-54610000D01*
X129729841Y-53709446D01*
X129473357Y-53795852D01*
X129263542Y-54369336D01*
X123900000Y-54369336D01*
X123900000Y-53529841D01*
X129909446Y-53529841D01*
X130810000Y-54430395D01*
X131710554Y-53529841D01*
X140069446Y-53529841D01*
X140970000Y-54430395D01*
X141870554Y-53529841D01*
X141784148Y-53273357D01*
X141210664Y-53063542D01*
X140600540Y-53089161D01*
X140155852Y-53273357D01*
X140069446Y-53529841D01*
X131710554Y-53529841D01*
X131624148Y-53273357D01*
X131050664Y-53063542D01*
X130440540Y-53089161D01*
X129995852Y-53273357D01*
X129909446Y-53529841D01*
X123900000Y-53529841D01*
X123900000Y-50240000D01*
X149150000Y-50240000D01*
X149150000Y-68664842D01*
M02*
