M48
;DRILL file {KiCad 4.0.2+dfsg1-2~bpo8+1-stable} date Mon 04 Sep 2017 02:00:05 PM EEST
;FORMAT={-:-/ absolute / inch / decimal}
FMAT,2
INCH,TZ
T1C0.016
T2C0.030
T3C0.032
T4C0.040
T5C0.047
T6C0.120
%
G90
G05
M72
T1
X5.Y-2.6
X5.1Y-3.575
X5.15Y-3.25
X5.275Y-4.55
X5.45Y-3.65
X5.55Y-2.65
X5.55Y-3.45
T2
X5.25Y-2.45
X5.25Y-3.35
X5.25Y-4.25
X5.25Y-5.15
X5.35Y-2.45
X5.35Y-3.35
X5.35Y-4.25
X5.35Y-5.15
X5.45Y-2.45
X5.45Y-3.35
X5.45Y-4.25
X5.45Y-5.15
T3
X5.4Y-2.6
X5.4Y-2.7
X5.5Y-2.6
X5.5Y-2.7
X5.6Y-2.9
X5.6Y-3.
X5.7Y-2.9
X5.7Y-3.
T4
X5.Y-2.8
X5.Y-5.25
X5.1Y-2.8
X5.1Y-5.25
X5.1Y-5.45
X5.2Y-2.8
X5.2Y-5.25
X5.2Y-5.45
X5.3Y-2.8
X5.3Y-5.25
X5.3Y-5.45
X5.4Y-2.8
X5.4Y-5.25
X5.4Y-5.45
X5.5Y-2.8
X5.5Y-5.25
X5.5Y-5.45
X5.6Y-2.8
X5.6Y-5.25
X5.6Y-5.45
X5.7Y-2.8
X5.7Y-3.55
X5.7Y-3.65
X5.7Y-3.9
X5.7Y-4.
X5.7Y-4.1
X5.7Y-4.2
X5.7Y-4.3
X5.7Y-4.4
X5.7Y-4.5
X5.7Y-4.6
X5.7Y-5.25
X5.7Y-5.45
X5.8Y-2.8
X5.8Y-2.9
X5.8Y-3.
X5.8Y-3.1
X5.8Y-3.55
X5.8Y-3.65
X5.8Y-3.9
X5.8Y-4.
X5.8Y-4.1
X5.8Y-4.2
X5.8Y-4.3
X5.8Y-4.4
X5.8Y-4.5
X5.8Y-4.6
X5.8Y-5.45
T5
X5.15Y-2.15
X5.15Y-3.05
X5.15Y-3.95
X5.15Y-4.85
X5.55Y-2.15
X5.55Y-3.05
X5.55Y-3.95
X5.55Y-4.85
T6
X4.95Y-5.45
X5.7Y-2.6
T0
M30
