G04 #@! TF.FileFunction,Copper,L2,Bot,Signal*
%FSLAX46Y46*%
G04 Gerber Fmt 4.6, Leading zero omitted, Abs format (unit mm)*
G04 Created by KiCad (PCBNEW 4.0.6+dfsg1-1) date Wed Nov  1 12:52:48 2017*
%MOMM*%
%LPD*%
G01*
G04 APERTURE LIST*
%ADD10C,0.050000*%
%ADD11C,0.190500*%
%ADD12R,1.200000X1.200000*%
%ADD13C,1.200000*%
%ADD14R,1.300000X1.300000*%
%ADD15C,1.300000*%
%ADD16R,2.540000X2.540000*%
%ADD17C,2.540000*%
%ADD18O,1.699260X3.500120*%
%ADD19C,4.064000*%
%ADD20C,0.700000*%
G04 APERTURE END LIST*
D10*
D11*
X178727620Y-120340476D02*
X178822858Y-120292857D01*
X179013334Y-120292857D01*
X179108572Y-120340476D01*
X179203810Y-120435714D01*
X179251429Y-120530952D01*
X179251429Y-120721429D01*
X179203810Y-120816667D01*
X179108572Y-120911905D01*
X179013334Y-120959524D01*
X178822858Y-120959524D01*
X178727620Y-120911905D01*
X178918096Y-119959524D02*
X179156191Y-120007143D01*
X179394287Y-120150000D01*
X179537144Y-120388095D01*
X179584763Y-120626190D01*
X179537144Y-120864286D01*
X179394287Y-121102381D01*
X179156191Y-121245238D01*
X178918096Y-121292857D01*
X178680001Y-121245238D01*
X178441906Y-121102381D01*
X178299049Y-120864286D01*
X178251429Y-120626190D01*
X178299049Y-120388095D01*
X178441906Y-120150000D01*
X178680001Y-120007143D01*
X178918096Y-119959524D01*
X177108572Y-120816667D02*
X176632381Y-120816667D01*
X177203810Y-121102381D02*
X176870477Y-120102381D01*
X176537143Y-121102381D01*
X176060953Y-121102381D02*
X176156191Y-121054762D01*
X176203810Y-120959524D01*
X176203810Y-120102381D01*
X175299047Y-121054762D02*
X175394285Y-121102381D01*
X175584762Y-121102381D01*
X175680000Y-121054762D01*
X175727619Y-120959524D01*
X175727619Y-120578571D01*
X175680000Y-120483333D01*
X175584762Y-120435714D01*
X175394285Y-120435714D01*
X175299047Y-120483333D01*
X175251428Y-120578571D01*
X175251428Y-120673810D01*
X175727619Y-120769048D01*
X174918095Y-121102381D02*
X174394285Y-120435714D01*
X174918095Y-120435714D02*
X174394285Y-121102381D01*
X173584761Y-121102381D02*
X173584761Y-120578571D01*
X173632380Y-120483333D01*
X173727618Y-120435714D01*
X173918095Y-120435714D01*
X174013333Y-120483333D01*
X173584761Y-121054762D02*
X173679999Y-121102381D01*
X173918095Y-121102381D01*
X174013333Y-121054762D01*
X174060952Y-120959524D01*
X174060952Y-120864286D01*
X174013333Y-120769048D01*
X173918095Y-120721429D01*
X173679999Y-120721429D01*
X173584761Y-120673810D01*
X173108571Y-120435714D02*
X173108571Y-121102381D01*
X173108571Y-120530952D02*
X173060952Y-120483333D01*
X172965714Y-120435714D01*
X172822856Y-120435714D01*
X172727618Y-120483333D01*
X172679999Y-120578571D01*
X172679999Y-121102381D01*
X171775237Y-121102381D02*
X171775237Y-120102381D01*
X171775237Y-121054762D02*
X171870475Y-121102381D01*
X172060952Y-121102381D01*
X172156190Y-121054762D01*
X172203809Y-121007143D01*
X172251428Y-120911905D01*
X172251428Y-120626190D01*
X172203809Y-120530952D01*
X172156190Y-120483333D01*
X172060952Y-120435714D01*
X171870475Y-120435714D01*
X171775237Y-120483333D01*
X171299047Y-121102381D02*
X171299047Y-120435714D01*
X171299047Y-120626190D02*
X171251428Y-120530952D01*
X171203809Y-120483333D01*
X171108571Y-120435714D01*
X171013332Y-120435714D01*
X170537142Y-121102381D02*
X170632380Y-121054762D01*
X170679999Y-121007143D01*
X170727618Y-120911905D01*
X170727618Y-120626190D01*
X170679999Y-120530952D01*
X170632380Y-120483333D01*
X170537142Y-120435714D01*
X170394284Y-120435714D01*
X170299046Y-120483333D01*
X170251427Y-120530952D01*
X170203808Y-120626190D01*
X170203808Y-120911905D01*
X170251427Y-121007143D01*
X170299046Y-121054762D01*
X170394284Y-121102381D01*
X170537142Y-121102381D01*
X169822856Y-121054762D02*
X169727618Y-121102381D01*
X169537142Y-121102381D01*
X169441903Y-121054762D01*
X169394284Y-120959524D01*
X169394284Y-120911905D01*
X169441903Y-120816667D01*
X169537142Y-120769048D01*
X169679999Y-120769048D01*
X169775237Y-120721429D01*
X169822856Y-120626190D01*
X169822856Y-120578571D01*
X169775237Y-120483333D01*
X169679999Y-120435714D01*
X169537142Y-120435714D01*
X169441903Y-120483333D01*
X168203808Y-121102381D02*
X168203808Y-120102381D01*
X167965713Y-120102381D01*
X167822855Y-120150000D01*
X167727617Y-120245238D01*
X167679998Y-120340476D01*
X167632379Y-120530952D01*
X167632379Y-120673810D01*
X167679998Y-120864286D01*
X167727617Y-120959524D01*
X167822855Y-121054762D01*
X167965713Y-121102381D01*
X168203808Y-121102381D01*
X167203808Y-121102381D02*
X167203808Y-120435714D01*
X167203808Y-120626190D02*
X167156189Y-120530952D01*
X167108570Y-120483333D01*
X167013332Y-120435714D01*
X166918093Y-120435714D01*
X166679998Y-120435714D02*
X166441903Y-121102381D01*
X166203807Y-120435714D02*
X166441903Y-121102381D01*
X166537141Y-121340476D01*
X166584760Y-121388095D01*
X166679998Y-121435714D01*
X165822855Y-121102381D02*
X165822855Y-120435714D01*
X165822855Y-120530952D02*
X165775236Y-120483333D01*
X165679998Y-120435714D01*
X165537140Y-120435714D01*
X165441902Y-120483333D01*
X165394283Y-120578571D01*
X165394283Y-121102381D01*
X165394283Y-120578571D02*
X165346664Y-120483333D01*
X165251426Y-120435714D01*
X165108569Y-120435714D01*
X165013331Y-120483333D01*
X164965712Y-120578571D01*
X164965712Y-121102381D01*
X164346665Y-121102381D02*
X164441903Y-121054762D01*
X164489522Y-121007143D01*
X164537141Y-120911905D01*
X164537141Y-120626190D01*
X164489522Y-120530952D01*
X164441903Y-120483333D01*
X164346665Y-120435714D01*
X164203807Y-120435714D01*
X164108569Y-120483333D01*
X164060950Y-120530952D01*
X164013331Y-120626190D01*
X164013331Y-120911905D01*
X164060950Y-121007143D01*
X164108569Y-121054762D01*
X164203807Y-121102381D01*
X164346665Y-121102381D01*
X163584760Y-120435714D02*
X163584760Y-121102381D01*
X163584760Y-120530952D02*
X163537141Y-120483333D01*
X163441903Y-120435714D01*
X163299045Y-120435714D01*
X163203807Y-120483333D01*
X163156188Y-120578571D01*
X163156188Y-121102381D01*
X162679998Y-121102381D02*
X162679998Y-120435714D01*
X162679998Y-120102381D02*
X162727617Y-120150000D01*
X162679998Y-120197619D01*
X162632379Y-120150000D01*
X162679998Y-120102381D01*
X162679998Y-120197619D01*
X162346665Y-120435714D02*
X161965713Y-120435714D01*
X162203808Y-120102381D02*
X162203808Y-120959524D01*
X162156189Y-121054762D01*
X162060951Y-121102381D01*
X161965713Y-121102381D01*
X161632379Y-121102381D02*
X161632379Y-120435714D01*
X161632379Y-120102381D02*
X161679998Y-120150000D01*
X161632379Y-120197619D01*
X161584760Y-120150000D01*
X161632379Y-120102381D01*
X161632379Y-120197619D01*
X161203808Y-121054762D02*
X161108570Y-121102381D01*
X160918094Y-121102381D01*
X160822855Y-121054762D01*
X160775236Y-120959524D01*
X160775236Y-120911905D01*
X160822855Y-120816667D01*
X160918094Y-120769048D01*
X161060951Y-120769048D01*
X161156189Y-120721429D01*
X161203808Y-120626190D01*
X161203808Y-120578571D01*
X161156189Y-120483333D01*
X161060951Y-120435714D01*
X160918094Y-120435714D01*
X160822855Y-120483333D01*
D12*
X125730000Y-118110000D03*
D13*
X128230000Y-118110000D03*
D14*
X128270000Y-101600000D03*
D15*
X130770000Y-101600000D03*
D16*
X147320000Y-110490000D03*
D17*
X152400000Y-110490000D03*
D16*
X146050000Y-90170000D03*
D17*
X140970000Y-90170000D03*
D16*
X133350000Y-90170000D03*
D17*
X128270000Y-90170000D03*
D16*
X173990000Y-90170000D03*
D17*
X168910000Y-90170000D03*
D16*
X160020000Y-90170000D03*
D17*
X154940000Y-90170000D03*
D18*
X128270000Y-110490000D03*
X130810000Y-110490000D03*
X125730000Y-110490000D03*
D19*
X184150000Y-90170000D03*
X118110000Y-90170000D03*
X118110000Y-120650000D03*
X184150000Y-120650000D03*
D20*
X168910000Y-90170000D02*
X168910000Y-96520000D01*
X167640000Y-97790000D02*
X154940000Y-97790000D01*
X168910000Y-96520000D02*
X167640000Y-97790000D01*
X125730000Y-118110000D02*
X125730000Y-110490000D01*
X152400000Y-110490000D02*
X152400000Y-118110000D01*
X125730000Y-121920000D02*
X125730000Y-118110000D01*
X148590000Y-121920000D02*
X125730000Y-121920000D01*
X152400000Y-118110000D02*
X148590000Y-121920000D01*
X152400000Y-110490000D02*
X154940000Y-107950000D01*
X154940000Y-107950000D02*
X154940000Y-97790000D01*
X154940000Y-97790000D02*
X154940000Y-90170000D01*
X118110000Y-120650000D02*
X118110000Y-90170000D01*
X118110000Y-90170000D02*
X118110000Y-87630000D01*
X118110000Y-87630000D02*
X133350000Y-87630000D01*
X184150000Y-90170000D02*
X184150000Y-120650000D01*
X184150000Y-90170000D02*
X173990000Y-90170000D01*
X173990000Y-90170000D02*
X173990000Y-87630000D01*
X173990000Y-87630000D02*
X160020000Y-87630000D01*
X160020000Y-90170000D02*
X160020000Y-87630000D01*
X160020000Y-87630000D02*
X146050000Y-87630000D01*
X133350000Y-90170000D02*
X133350000Y-87630000D01*
X146050000Y-87630000D02*
X146050000Y-90170000D01*
X133350000Y-87630000D02*
X146050000Y-87630000D01*
X130770000Y-101600000D02*
X143510000Y-101600000D01*
X146050000Y-99060000D02*
X146050000Y-90170000D01*
X143510000Y-101600000D02*
X146050000Y-99060000D01*
X130810000Y-110490000D02*
X130810000Y-101640000D01*
X130810000Y-101640000D02*
X130770000Y-101600000D01*
X128230000Y-118110000D02*
X134620000Y-118110000D01*
X135890000Y-116840000D02*
X135890000Y-110490000D01*
X134620000Y-118110000D02*
X135890000Y-116840000D01*
X147320000Y-110490000D02*
X135890000Y-110490000D01*
X135890000Y-110490000D02*
X130810000Y-110490000D01*
X140970000Y-90170000D02*
X140970000Y-95250000D01*
X139700000Y-96520000D02*
X128270000Y-96520000D01*
X140970000Y-95250000D02*
X139700000Y-96520000D01*
X128270000Y-101600000D02*
X128270000Y-96520000D01*
X128270000Y-96520000D02*
X128270000Y-90170000D01*
X128270000Y-110490000D02*
X128270000Y-101600000D01*
M02*
