M48
;DRILL file {KiCad 4.0.6+dfsg1-1} date Wed Nov  1 12:52:51 2017
;FORMAT={-:-/ absolute / inch / decimal}
FMAT,2
INCH,TZ
T1C0.028
T2C0.031
T3C0.039
T4C0.060
T5C0.120
%
G90
G05
M72
T1
X4.95Y-4.65
X5.0484Y-4.65
T2
X5.05Y-4.
X5.1484Y-4.
T3
X4.95Y-4.35
X5.05Y-4.35
X5.15Y-4.35
T4
X5.05Y-3.55
X5.25Y-3.55
X5.55Y-3.55
X5.75Y-3.55
X5.8Y-4.35
X6.Y-4.35
X6.1Y-3.55
X6.3Y-3.55
X6.65Y-3.55
X6.85Y-3.55
T5
X4.65Y-3.55
X4.65Y-4.75
X7.25Y-3.55
X7.25Y-4.75
T0
M30
