G04 #@! TF.FileFunction,Copper,L2,Bot,Signal*
%FSLAX46Y46*%
G04 Gerber Fmt 4.6, Leading zero omitted, Abs format (unit mm)*
G04 Created by KiCad (PCBNEW 4.0.2+dfsg1-2~bpo8+1-stable) date Wed 12 Jul 2017 11:55:26 PM EEST*
%MOMM*%
G01*
G04 APERTURE LIST*
%ADD10C,0.050000*%
%ADD11C,0.190500*%
%ADD12R,1.200000X1.200000*%
%ADD13C,1.200000*%
%ADD14R,1.300000X1.300000*%
%ADD15C,1.300000*%
%ADD16R,2.540000X2.540000*%
%ADD17C,2.540000*%
%ADD18O,1.699260X3.500120*%
%ADD19C,4.064000*%
%ADD20C,0.700000*%
%ADD21C,0.254000*%
G04 APERTURE END LIST*
D10*
D11*
X177963286Y-120414143D02*
X178035858Y-120377857D01*
X178181001Y-120377857D01*
X178253572Y-120414143D01*
X178326143Y-120486714D01*
X178362429Y-120559286D01*
X178362429Y-120704429D01*
X178326143Y-120777000D01*
X178253572Y-120849571D01*
X178181001Y-120885857D01*
X178035858Y-120885857D01*
X177963286Y-120849571D01*
X178108429Y-120123857D02*
X178289858Y-120160143D01*
X178471286Y-120269000D01*
X178580143Y-120450429D01*
X178616429Y-120631857D01*
X178580143Y-120813286D01*
X178471286Y-120994714D01*
X178289858Y-121103571D01*
X178108429Y-121139857D01*
X177927001Y-121103571D01*
X177745572Y-120994714D01*
X177636715Y-120813286D01*
X177600429Y-120631857D01*
X177636715Y-120450429D01*
X177745572Y-120269000D01*
X177927001Y-120160143D01*
X178108429Y-120123857D01*
X176729572Y-120777000D02*
X176366715Y-120777000D01*
X176802144Y-120994714D02*
X176548144Y-120232714D01*
X176294144Y-120994714D01*
X175931286Y-120994714D02*
X176003858Y-120958429D01*
X176040143Y-120885857D01*
X176040143Y-120232714D01*
X175350715Y-120958429D02*
X175423286Y-120994714D01*
X175568429Y-120994714D01*
X175641000Y-120958429D01*
X175677286Y-120885857D01*
X175677286Y-120595571D01*
X175641000Y-120523000D01*
X175568429Y-120486714D01*
X175423286Y-120486714D01*
X175350715Y-120523000D01*
X175314429Y-120595571D01*
X175314429Y-120668143D01*
X175677286Y-120740714D01*
X175060429Y-120994714D02*
X174661286Y-120486714D01*
X175060429Y-120486714D02*
X174661286Y-120994714D01*
X174044429Y-120994714D02*
X174044429Y-120595571D01*
X174080715Y-120523000D01*
X174153286Y-120486714D01*
X174298429Y-120486714D01*
X174371000Y-120523000D01*
X174044429Y-120958429D02*
X174117000Y-120994714D01*
X174298429Y-120994714D01*
X174371000Y-120958429D01*
X174407286Y-120885857D01*
X174407286Y-120813286D01*
X174371000Y-120740714D01*
X174298429Y-120704429D01*
X174117000Y-120704429D01*
X174044429Y-120668143D01*
X173681571Y-120486714D02*
X173681571Y-120994714D01*
X173681571Y-120559286D02*
X173645286Y-120523000D01*
X173572714Y-120486714D01*
X173463857Y-120486714D01*
X173391286Y-120523000D01*
X173355000Y-120595571D01*
X173355000Y-120994714D01*
X172665571Y-120994714D02*
X172665571Y-120232714D01*
X172665571Y-120958429D02*
X172738142Y-120994714D01*
X172883285Y-120994714D01*
X172955857Y-120958429D01*
X172992142Y-120922143D01*
X173028428Y-120849571D01*
X173028428Y-120631857D01*
X172992142Y-120559286D01*
X172955857Y-120523000D01*
X172883285Y-120486714D01*
X172738142Y-120486714D01*
X172665571Y-120523000D01*
X172302713Y-120994714D02*
X172302713Y-120486714D01*
X172302713Y-120631857D02*
X172266428Y-120559286D01*
X172230142Y-120523000D01*
X172157571Y-120486714D01*
X172084999Y-120486714D01*
X171722142Y-120994714D02*
X171794714Y-120958429D01*
X171830999Y-120922143D01*
X171867285Y-120849571D01*
X171867285Y-120631857D01*
X171830999Y-120559286D01*
X171794714Y-120523000D01*
X171722142Y-120486714D01*
X171613285Y-120486714D01*
X171540714Y-120523000D01*
X171504428Y-120559286D01*
X171468142Y-120631857D01*
X171468142Y-120849571D01*
X171504428Y-120922143D01*
X171540714Y-120958429D01*
X171613285Y-120994714D01*
X171722142Y-120994714D01*
X171177856Y-120958429D02*
X171105285Y-120994714D01*
X170960142Y-120994714D01*
X170887570Y-120958429D01*
X170851285Y-120885857D01*
X170851285Y-120849571D01*
X170887570Y-120777000D01*
X170960142Y-120740714D01*
X171068999Y-120740714D01*
X171141570Y-120704429D01*
X171177856Y-120631857D01*
X171177856Y-120595571D01*
X171141570Y-120523000D01*
X171068999Y-120486714D01*
X170960142Y-120486714D01*
X170887570Y-120523000D01*
X169944142Y-120994714D02*
X169944142Y-120232714D01*
X169762714Y-120232714D01*
X169653857Y-120269000D01*
X169581285Y-120341571D01*
X169545000Y-120414143D01*
X169508714Y-120559286D01*
X169508714Y-120668143D01*
X169545000Y-120813286D01*
X169581285Y-120885857D01*
X169653857Y-120958429D01*
X169762714Y-120994714D01*
X169944142Y-120994714D01*
X169182142Y-120994714D02*
X169182142Y-120486714D01*
X169182142Y-120631857D02*
X169145857Y-120559286D01*
X169109571Y-120523000D01*
X169037000Y-120486714D01*
X168964428Y-120486714D01*
X168783000Y-120486714D02*
X168601571Y-120994714D01*
X168420143Y-120486714D02*
X168601571Y-120994714D01*
X168674143Y-121176143D01*
X168710428Y-121212429D01*
X168783000Y-121248714D01*
X168129857Y-120994714D02*
X168129857Y-120486714D01*
X168129857Y-120559286D02*
X168093572Y-120523000D01*
X168021000Y-120486714D01*
X167912143Y-120486714D01*
X167839572Y-120523000D01*
X167803286Y-120595571D01*
X167803286Y-120994714D01*
X167803286Y-120595571D02*
X167767000Y-120523000D01*
X167694429Y-120486714D01*
X167585572Y-120486714D01*
X167513000Y-120523000D01*
X167476715Y-120595571D01*
X167476715Y-120994714D01*
X167005000Y-120994714D02*
X167077572Y-120958429D01*
X167113857Y-120922143D01*
X167150143Y-120849571D01*
X167150143Y-120631857D01*
X167113857Y-120559286D01*
X167077572Y-120523000D01*
X167005000Y-120486714D01*
X166896143Y-120486714D01*
X166823572Y-120523000D01*
X166787286Y-120559286D01*
X166751000Y-120631857D01*
X166751000Y-120849571D01*
X166787286Y-120922143D01*
X166823572Y-120958429D01*
X166896143Y-120994714D01*
X167005000Y-120994714D01*
X166424428Y-120486714D02*
X166424428Y-120994714D01*
X166424428Y-120559286D02*
X166388143Y-120523000D01*
X166315571Y-120486714D01*
X166206714Y-120486714D01*
X166134143Y-120523000D01*
X166097857Y-120595571D01*
X166097857Y-120994714D01*
X165734999Y-120994714D02*
X165734999Y-120486714D01*
X165734999Y-120232714D02*
X165771285Y-120269000D01*
X165734999Y-120305286D01*
X165698714Y-120269000D01*
X165734999Y-120232714D01*
X165734999Y-120305286D01*
X165481000Y-120486714D02*
X165190714Y-120486714D01*
X165372142Y-120232714D02*
X165372142Y-120885857D01*
X165335857Y-120958429D01*
X165263285Y-120994714D01*
X165190714Y-120994714D01*
X164936713Y-120994714D02*
X164936713Y-120486714D01*
X164936713Y-120232714D02*
X164972999Y-120269000D01*
X164936713Y-120305286D01*
X164900428Y-120269000D01*
X164936713Y-120232714D01*
X164936713Y-120305286D01*
X164610142Y-120958429D02*
X164537571Y-120994714D01*
X164392428Y-120994714D01*
X164319856Y-120958429D01*
X164283571Y-120885857D01*
X164283571Y-120849571D01*
X164319856Y-120777000D01*
X164392428Y-120740714D01*
X164501285Y-120740714D01*
X164573856Y-120704429D01*
X164610142Y-120631857D01*
X164610142Y-120595571D01*
X164573856Y-120523000D01*
X164501285Y-120486714D01*
X164392428Y-120486714D01*
X164319856Y-120523000D01*
D12*
X125730000Y-118110000D03*
D13*
X128230000Y-118110000D03*
D14*
X128270000Y-101600000D03*
D15*
X130770000Y-101600000D03*
D16*
X147320000Y-110490000D03*
D17*
X152400000Y-110490000D03*
D16*
X146050000Y-90170000D03*
D17*
X140970000Y-90170000D03*
D16*
X133350000Y-90170000D03*
D17*
X128270000Y-90170000D03*
D16*
X173990000Y-90170000D03*
D17*
X168910000Y-90170000D03*
D16*
X160020000Y-90170000D03*
D17*
X154940000Y-90170000D03*
D18*
X128270000Y-110490000D03*
X130810000Y-110490000D03*
X125730000Y-110490000D03*
D19*
X184150000Y-90170000D03*
X118110000Y-90170000D03*
X118110000Y-120650000D03*
X184150000Y-120650000D03*
D20*
X168910000Y-90170000D02*
X168910000Y-96520000D01*
X167640000Y-97790000D02*
X154940000Y-97790000D01*
X168910000Y-96520000D02*
X167640000Y-97790000D01*
X125730000Y-118110000D02*
X125730000Y-110490000D01*
X152400000Y-110490000D02*
X152400000Y-118110000D01*
X125730000Y-121920000D02*
X125730000Y-118110000D01*
X148590000Y-121920000D02*
X125730000Y-121920000D01*
X152400000Y-118110000D02*
X148590000Y-121920000D01*
X152400000Y-110490000D02*
X154940000Y-107950000D01*
X154940000Y-107950000D02*
X154940000Y-97790000D01*
X154940000Y-97790000D02*
X154940000Y-90170000D01*
X118110000Y-120650000D02*
X118110000Y-90170000D01*
X118110000Y-90170000D02*
X118110000Y-87630000D01*
X118110000Y-87630000D02*
X133350000Y-87630000D01*
X184150000Y-90170000D02*
X184150000Y-120650000D01*
X184150000Y-90170000D02*
X173990000Y-90170000D01*
X173990000Y-90170000D02*
X173990000Y-87630000D01*
X173990000Y-87630000D02*
X160020000Y-87630000D01*
X160020000Y-90170000D02*
X160020000Y-87630000D01*
X160020000Y-87630000D02*
X146050000Y-87630000D01*
X133350000Y-90170000D02*
X133350000Y-87630000D01*
X146050000Y-87630000D02*
X146050000Y-90170000D01*
X133350000Y-87630000D02*
X146050000Y-87630000D01*
X130770000Y-101600000D02*
X143510000Y-101600000D01*
X146050000Y-99060000D02*
X146050000Y-90170000D01*
X143510000Y-101600000D02*
X146050000Y-99060000D01*
X130810000Y-110490000D02*
X130810000Y-101640000D01*
X130810000Y-101640000D02*
X130770000Y-101600000D01*
X128230000Y-118110000D02*
X134620000Y-118110000D01*
X135890000Y-116840000D02*
X135890000Y-110490000D01*
X134620000Y-118110000D02*
X135890000Y-116840000D01*
X147320000Y-110490000D02*
X135890000Y-110490000D01*
X135890000Y-110490000D02*
X130810000Y-110490000D01*
X140970000Y-90170000D02*
X140970000Y-95250000D01*
X139700000Y-96520000D02*
X128270000Y-96520000D01*
X140970000Y-95250000D02*
X139700000Y-96520000D01*
X128270000Y-101600000D02*
X128270000Y-96520000D01*
X128270000Y-96520000D02*
X128270000Y-90170000D01*
X128270000Y-110490000D02*
X128270000Y-101600000D01*
D21*
G36*
X187250000Y-123750000D02*
X115010000Y-123750000D01*
X115010000Y-122548121D01*
X116391484Y-122548121D01*
X116616154Y-122922168D01*
X117599388Y-123320880D01*
X118660357Y-123312975D01*
X119603846Y-122922168D01*
X119828516Y-122548121D01*
X118110000Y-120829605D01*
X116391484Y-122548121D01*
X115010000Y-122548121D01*
X115010000Y-120139388D01*
X115439120Y-120139388D01*
X115447025Y-121200357D01*
X115837832Y-122143846D01*
X116211879Y-122368516D01*
X117930395Y-120650000D01*
X118289605Y-120650000D01*
X120008121Y-122368516D01*
X120382168Y-122143846D01*
X120780880Y-121160612D01*
X120772975Y-120099643D01*
X120382168Y-119156154D01*
X120008121Y-118931484D01*
X118289605Y-120650000D01*
X117930395Y-120650000D01*
X116211879Y-118931484D01*
X115837832Y-119156154D01*
X115439120Y-120139388D01*
X115010000Y-120139388D01*
X115010000Y-118751879D01*
X116391484Y-118751879D01*
X118110000Y-120470395D01*
X119828516Y-118751879D01*
X119603846Y-118377832D01*
X118620612Y-117979120D01*
X117559643Y-117987025D01*
X116616154Y-118377832D01*
X116391484Y-118751879D01*
X115010000Y-118751879D01*
X115010000Y-109542844D01*
X124245370Y-109542844D01*
X124245370Y-111437156D01*
X124358381Y-112005299D01*
X124680208Y-112486948D01*
X124745000Y-112530241D01*
X124745000Y-117003156D01*
X124678559Y-117045910D01*
X124533569Y-117258110D01*
X124482560Y-117510000D01*
X124482560Y-118710000D01*
X124526838Y-118945317D01*
X124665910Y-119161441D01*
X124745000Y-119215481D01*
X124745000Y-121920000D01*
X124819979Y-122296943D01*
X125033500Y-122616500D01*
X125353057Y-122830021D01*
X125730000Y-122905000D01*
X148590000Y-122905000D01*
X148966943Y-122830021D01*
X149286500Y-122616500D01*
X149354879Y-122548121D01*
X182431484Y-122548121D01*
X182656154Y-122922168D01*
X183639388Y-123320880D01*
X184700357Y-123312975D01*
X185643846Y-122922168D01*
X185868516Y-122548121D01*
X184150000Y-120829605D01*
X182431484Y-122548121D01*
X149354879Y-122548121D01*
X152707150Y-119195850D01*
X163408178Y-119195850D01*
X163408178Y-121913650D01*
X179491822Y-121913650D01*
X179491822Y-120139388D01*
X181479120Y-120139388D01*
X181487025Y-121200357D01*
X181877832Y-122143846D01*
X182251879Y-122368516D01*
X183970395Y-120650000D01*
X184329605Y-120650000D01*
X186048121Y-122368516D01*
X186422168Y-122143846D01*
X186820880Y-121160612D01*
X186812975Y-120099643D01*
X186422168Y-119156154D01*
X186048121Y-118931484D01*
X184329605Y-120650000D01*
X183970395Y-120650000D01*
X182251879Y-118931484D01*
X181877832Y-119156154D01*
X181479120Y-120139388D01*
X179491822Y-120139388D01*
X179491822Y-119195850D01*
X163408178Y-119195850D01*
X152707150Y-119195850D01*
X153096500Y-118806500D01*
X153132996Y-118751879D01*
X182431484Y-118751879D01*
X184150000Y-120470395D01*
X185868516Y-118751879D01*
X185643846Y-118377832D01*
X184660612Y-117979120D01*
X183599643Y-117987025D01*
X182656154Y-118377832D01*
X182431484Y-118751879D01*
X153132996Y-118751879D01*
X153310021Y-118486943D01*
X153385000Y-118110000D01*
X153385000Y-112144219D01*
X153477686Y-112105922D01*
X154014039Y-111570505D01*
X154304668Y-110870590D01*
X154305330Y-110112735D01*
X154265839Y-110017161D01*
X155636500Y-108646500D01*
X155850021Y-108326943D01*
X155881368Y-108169351D01*
X155925000Y-107950000D01*
X155925000Y-98775000D01*
X167640000Y-98775000D01*
X168016943Y-98700021D01*
X168336500Y-98486500D01*
X169606500Y-97216500D01*
X169820021Y-96896943D01*
X169895000Y-96520000D01*
X169895000Y-91824219D01*
X169987686Y-91785922D01*
X170524039Y-91250505D01*
X170814668Y-90550590D01*
X170814750Y-90455750D01*
X172085000Y-90455750D01*
X172085000Y-91566310D01*
X172181673Y-91799699D01*
X172360302Y-91978327D01*
X172593691Y-92075000D01*
X173704250Y-92075000D01*
X173863000Y-91916250D01*
X173863000Y-90297000D01*
X174117000Y-90297000D01*
X174117000Y-91916250D01*
X174275750Y-92075000D01*
X175386309Y-92075000D01*
X175402916Y-92068121D01*
X182431484Y-92068121D01*
X182656154Y-92442168D01*
X183639388Y-92840880D01*
X184700357Y-92832975D01*
X185643846Y-92442168D01*
X185868516Y-92068121D01*
X184150000Y-90349605D01*
X182431484Y-92068121D01*
X175402916Y-92068121D01*
X175619698Y-91978327D01*
X175798327Y-91799699D01*
X175895000Y-91566310D01*
X175895000Y-90455750D01*
X175736250Y-90297000D01*
X174117000Y-90297000D01*
X173863000Y-90297000D01*
X172243750Y-90297000D01*
X172085000Y-90455750D01*
X170814750Y-90455750D01*
X170815330Y-89792735D01*
X170525922Y-89092314D01*
X170207855Y-88773690D01*
X172085000Y-88773690D01*
X172085000Y-89884250D01*
X172243750Y-90043000D01*
X173863000Y-90043000D01*
X173863000Y-88423750D01*
X174117000Y-88423750D01*
X174117000Y-90043000D01*
X175736250Y-90043000D01*
X175895000Y-89884250D01*
X175895000Y-89659388D01*
X181479120Y-89659388D01*
X181487025Y-90720357D01*
X181877832Y-91663846D01*
X182251879Y-91888516D01*
X183970395Y-90170000D01*
X184329605Y-90170000D01*
X186048121Y-91888516D01*
X186422168Y-91663846D01*
X186820880Y-90680612D01*
X186812975Y-89619643D01*
X186422168Y-88676154D01*
X186048121Y-88451484D01*
X184329605Y-90170000D01*
X183970395Y-90170000D01*
X182251879Y-88451484D01*
X181877832Y-88676154D01*
X181479120Y-89659388D01*
X175895000Y-89659388D01*
X175895000Y-88773690D01*
X175798327Y-88540301D01*
X175619698Y-88361673D01*
X175402917Y-88271879D01*
X182431484Y-88271879D01*
X184150000Y-89990395D01*
X185868516Y-88271879D01*
X185643846Y-87897832D01*
X184660612Y-87499120D01*
X183599643Y-87507025D01*
X182656154Y-87897832D01*
X182431484Y-88271879D01*
X175402917Y-88271879D01*
X175386309Y-88265000D01*
X174275750Y-88265000D01*
X174117000Y-88423750D01*
X173863000Y-88423750D01*
X173704250Y-88265000D01*
X172593691Y-88265000D01*
X172360302Y-88361673D01*
X172181673Y-88540301D01*
X172085000Y-88773690D01*
X170207855Y-88773690D01*
X169990505Y-88555961D01*
X169290590Y-88265332D01*
X168532735Y-88264670D01*
X167832314Y-88554078D01*
X167295961Y-89089495D01*
X167005332Y-89789410D01*
X167004670Y-90547265D01*
X167294078Y-91247686D01*
X167829495Y-91784039D01*
X167925000Y-91823696D01*
X167925000Y-96112000D01*
X167232000Y-96805000D01*
X155925000Y-96805000D01*
X155925000Y-91824219D01*
X156017686Y-91785922D01*
X156554039Y-91250505D01*
X156844668Y-90550590D01*
X156844750Y-90455750D01*
X158115000Y-90455750D01*
X158115000Y-91566310D01*
X158211673Y-91799699D01*
X158390302Y-91978327D01*
X158623691Y-92075000D01*
X159734250Y-92075000D01*
X159893000Y-91916250D01*
X159893000Y-90297000D01*
X160147000Y-90297000D01*
X160147000Y-91916250D01*
X160305750Y-92075000D01*
X161416309Y-92075000D01*
X161649698Y-91978327D01*
X161828327Y-91799699D01*
X161925000Y-91566310D01*
X161925000Y-90455750D01*
X161766250Y-90297000D01*
X160147000Y-90297000D01*
X159893000Y-90297000D01*
X158273750Y-90297000D01*
X158115000Y-90455750D01*
X156844750Y-90455750D01*
X156845330Y-89792735D01*
X156555922Y-89092314D01*
X156237855Y-88773690D01*
X158115000Y-88773690D01*
X158115000Y-89884250D01*
X158273750Y-90043000D01*
X159893000Y-90043000D01*
X159893000Y-88423750D01*
X160147000Y-88423750D01*
X160147000Y-90043000D01*
X161766250Y-90043000D01*
X161925000Y-89884250D01*
X161925000Y-88773690D01*
X161828327Y-88540301D01*
X161649698Y-88361673D01*
X161416309Y-88265000D01*
X160305750Y-88265000D01*
X160147000Y-88423750D01*
X159893000Y-88423750D01*
X159734250Y-88265000D01*
X158623691Y-88265000D01*
X158390302Y-88361673D01*
X158211673Y-88540301D01*
X158115000Y-88773690D01*
X156237855Y-88773690D01*
X156020505Y-88555961D01*
X155320590Y-88265332D01*
X154562735Y-88264670D01*
X153862314Y-88554078D01*
X153325961Y-89089495D01*
X153035332Y-89789410D01*
X153034670Y-90547265D01*
X153324078Y-91247686D01*
X153859495Y-91784039D01*
X153955000Y-91823696D01*
X153955000Y-107542000D01*
X152873209Y-108623791D01*
X152780590Y-108585332D01*
X152022735Y-108584670D01*
X151322314Y-108874078D01*
X150785961Y-109409495D01*
X150495332Y-110109410D01*
X150494670Y-110867265D01*
X150784078Y-111567686D01*
X151319495Y-112104039D01*
X151415000Y-112143696D01*
X151415000Y-117702000D01*
X148182000Y-120935000D01*
X126715000Y-120935000D01*
X126715000Y-119216844D01*
X126781441Y-119174090D01*
X126919020Y-118972735D01*
X127546870Y-118972735D01*
X127596383Y-119198164D01*
X128061036Y-119357807D01*
X128551413Y-119327482D01*
X128863617Y-119198164D01*
X128913130Y-118972735D01*
X128230000Y-118289605D01*
X127546870Y-118972735D01*
X126919020Y-118972735D01*
X126926431Y-118961890D01*
X126977440Y-118710000D01*
X126977440Y-117941036D01*
X126982193Y-117941036D01*
X127012518Y-118431413D01*
X127141836Y-118743617D01*
X127367265Y-118793130D01*
X128050395Y-118110000D01*
X128409605Y-118110000D01*
X129092735Y-118793130D01*
X129318164Y-118743617D01*
X129477807Y-118278964D01*
X129447482Y-117788587D01*
X129318164Y-117476383D01*
X129092735Y-117426870D01*
X128409605Y-118110000D01*
X128050395Y-118110000D01*
X127367265Y-117426870D01*
X127141836Y-117476383D01*
X126982193Y-117941036D01*
X126977440Y-117941036D01*
X126977440Y-117510000D01*
X126933162Y-117274683D01*
X126915519Y-117247265D01*
X127546870Y-117247265D01*
X128230000Y-117930395D01*
X128913130Y-117247265D01*
X128863617Y-117021836D01*
X128398964Y-116862193D01*
X127908587Y-116892518D01*
X127596383Y-117021836D01*
X127546870Y-117247265D01*
X126915519Y-117247265D01*
X126794090Y-117058559D01*
X126715000Y-117004519D01*
X126715000Y-112530241D01*
X126779792Y-112486948D01*
X127000000Y-112157383D01*
X127220208Y-112486948D01*
X127701857Y-112808775D01*
X128270000Y-112921786D01*
X128838143Y-112808775D01*
X129319792Y-112486948D01*
X129545516Y-112149127D01*
X129850011Y-112530024D01*
X130359190Y-112810649D01*
X130453168Y-112831540D01*
X130683000Y-112710214D01*
X130683000Y-110617000D01*
X130937000Y-110617000D01*
X130937000Y-112710214D01*
X131166832Y-112831540D01*
X131260810Y-112810649D01*
X131769989Y-112530024D01*
X132133018Y-112075906D01*
X132294630Y-111517430D01*
X132294630Y-110775750D01*
X145415000Y-110775750D01*
X145415000Y-111886310D01*
X145511673Y-112119699D01*
X145690302Y-112298327D01*
X145923691Y-112395000D01*
X147034250Y-112395000D01*
X147193000Y-112236250D01*
X147193000Y-110617000D01*
X147447000Y-110617000D01*
X147447000Y-112236250D01*
X147605750Y-112395000D01*
X148716309Y-112395000D01*
X148949698Y-112298327D01*
X149128327Y-112119699D01*
X149225000Y-111886310D01*
X149225000Y-110775750D01*
X149066250Y-110617000D01*
X147447000Y-110617000D01*
X147193000Y-110617000D01*
X145573750Y-110617000D01*
X145415000Y-110775750D01*
X132294630Y-110775750D01*
X132294630Y-110617000D01*
X130937000Y-110617000D01*
X130683000Y-110617000D01*
X130663000Y-110617000D01*
X130663000Y-110363000D01*
X130683000Y-110363000D01*
X130683000Y-108269786D01*
X130937000Y-108269786D01*
X130937000Y-110363000D01*
X132294630Y-110363000D01*
X132294630Y-109462570D01*
X132187884Y-109093690D01*
X145415000Y-109093690D01*
X145415000Y-110204250D01*
X145573750Y-110363000D01*
X147193000Y-110363000D01*
X147193000Y-108743750D01*
X147447000Y-108743750D01*
X147447000Y-110363000D01*
X149066250Y-110363000D01*
X149225000Y-110204250D01*
X149225000Y-109093690D01*
X149128327Y-108860301D01*
X148949698Y-108681673D01*
X148716309Y-108585000D01*
X147605750Y-108585000D01*
X147447000Y-108743750D01*
X147193000Y-108743750D01*
X147034250Y-108585000D01*
X145923691Y-108585000D01*
X145690302Y-108681673D01*
X145511673Y-108860301D01*
X145415000Y-109093690D01*
X132187884Y-109093690D01*
X132133018Y-108904094D01*
X131769989Y-108449976D01*
X131260810Y-108169351D01*
X131166832Y-108148460D01*
X130937000Y-108269786D01*
X130683000Y-108269786D01*
X130453168Y-108148460D01*
X130359190Y-108169351D01*
X129850011Y-108449976D01*
X129545516Y-108830873D01*
X129319792Y-108493052D01*
X129255000Y-108449759D01*
X129255000Y-102789018D01*
X129371441Y-102714090D01*
X129516431Y-102501890D01*
X129517012Y-102499016D01*
X130050590Y-102499016D01*
X130106271Y-102729611D01*
X130589078Y-102897622D01*
X131099428Y-102868083D01*
X131433729Y-102729611D01*
X131489410Y-102499016D01*
X130770000Y-101779605D01*
X130050590Y-102499016D01*
X129517012Y-102499016D01*
X129567440Y-102250000D01*
X129567440Y-102087615D01*
X129640389Y-102263729D01*
X129870984Y-102319410D01*
X130590395Y-101600000D01*
X130949605Y-101600000D01*
X131669016Y-102319410D01*
X131899611Y-102263729D01*
X132067622Y-101780922D01*
X132038083Y-101270572D01*
X131899611Y-100936271D01*
X131669016Y-100880590D01*
X130949605Y-101600000D01*
X130590395Y-101600000D01*
X129870984Y-100880590D01*
X129640389Y-100936271D01*
X129567440Y-101145902D01*
X129567440Y-100950000D01*
X129523162Y-100714683D01*
X129514347Y-100700984D01*
X130050590Y-100700984D01*
X130770000Y-101420395D01*
X131489410Y-100700984D01*
X131433729Y-100470389D01*
X130950922Y-100302378D01*
X130440572Y-100331917D01*
X130106271Y-100470389D01*
X130050590Y-100700984D01*
X129514347Y-100700984D01*
X129384090Y-100498559D01*
X129255000Y-100410356D01*
X129255000Y-97505000D01*
X139700000Y-97505000D01*
X140076943Y-97430021D01*
X140396500Y-97216500D01*
X141666500Y-95946500D01*
X141880021Y-95626943D01*
X141955000Y-95250000D01*
X141955000Y-91824219D01*
X142047686Y-91785922D01*
X142584039Y-91250505D01*
X142874668Y-90550590D01*
X142874750Y-90455750D01*
X144145000Y-90455750D01*
X144145000Y-91566310D01*
X144241673Y-91799699D01*
X144420302Y-91978327D01*
X144653691Y-92075000D01*
X145764250Y-92075000D01*
X145923000Y-91916250D01*
X145923000Y-90297000D01*
X146177000Y-90297000D01*
X146177000Y-91916250D01*
X146335750Y-92075000D01*
X147446309Y-92075000D01*
X147679698Y-91978327D01*
X147858327Y-91799699D01*
X147955000Y-91566310D01*
X147955000Y-90455750D01*
X147796250Y-90297000D01*
X146177000Y-90297000D01*
X145923000Y-90297000D01*
X144303750Y-90297000D01*
X144145000Y-90455750D01*
X142874750Y-90455750D01*
X142875330Y-89792735D01*
X142585922Y-89092314D01*
X142267855Y-88773690D01*
X144145000Y-88773690D01*
X144145000Y-89884250D01*
X144303750Y-90043000D01*
X145923000Y-90043000D01*
X145923000Y-88423750D01*
X146177000Y-88423750D01*
X146177000Y-90043000D01*
X147796250Y-90043000D01*
X147955000Y-89884250D01*
X147955000Y-88773690D01*
X147858327Y-88540301D01*
X147679698Y-88361673D01*
X147446309Y-88265000D01*
X146335750Y-88265000D01*
X146177000Y-88423750D01*
X145923000Y-88423750D01*
X145764250Y-88265000D01*
X144653691Y-88265000D01*
X144420302Y-88361673D01*
X144241673Y-88540301D01*
X144145000Y-88773690D01*
X142267855Y-88773690D01*
X142050505Y-88555961D01*
X141350590Y-88265332D01*
X140592735Y-88264670D01*
X139892314Y-88554078D01*
X139355961Y-89089495D01*
X139065332Y-89789410D01*
X139064670Y-90547265D01*
X139354078Y-91247686D01*
X139889495Y-91784039D01*
X139985000Y-91823696D01*
X139985000Y-94842000D01*
X139292000Y-95535000D01*
X129255000Y-95535000D01*
X129255000Y-91824219D01*
X129347686Y-91785922D01*
X129884039Y-91250505D01*
X130174668Y-90550590D01*
X130174750Y-90455750D01*
X131445000Y-90455750D01*
X131445000Y-91566310D01*
X131541673Y-91799699D01*
X131720302Y-91978327D01*
X131953691Y-92075000D01*
X133064250Y-92075000D01*
X133223000Y-91916250D01*
X133223000Y-90297000D01*
X133477000Y-90297000D01*
X133477000Y-91916250D01*
X133635750Y-92075000D01*
X134746309Y-92075000D01*
X134979698Y-91978327D01*
X135158327Y-91799699D01*
X135255000Y-91566310D01*
X135255000Y-90455750D01*
X135096250Y-90297000D01*
X133477000Y-90297000D01*
X133223000Y-90297000D01*
X131603750Y-90297000D01*
X131445000Y-90455750D01*
X130174750Y-90455750D01*
X130175330Y-89792735D01*
X129885922Y-89092314D01*
X129567855Y-88773690D01*
X131445000Y-88773690D01*
X131445000Y-89884250D01*
X131603750Y-90043000D01*
X133223000Y-90043000D01*
X133223000Y-88423750D01*
X133477000Y-88423750D01*
X133477000Y-90043000D01*
X135096250Y-90043000D01*
X135255000Y-89884250D01*
X135255000Y-88773690D01*
X135158327Y-88540301D01*
X134979698Y-88361673D01*
X134746309Y-88265000D01*
X133635750Y-88265000D01*
X133477000Y-88423750D01*
X133223000Y-88423750D01*
X133064250Y-88265000D01*
X131953691Y-88265000D01*
X131720302Y-88361673D01*
X131541673Y-88540301D01*
X131445000Y-88773690D01*
X129567855Y-88773690D01*
X129350505Y-88555961D01*
X128650590Y-88265332D01*
X127892735Y-88264670D01*
X127192314Y-88554078D01*
X126655961Y-89089495D01*
X126365332Y-89789410D01*
X126364670Y-90547265D01*
X126654078Y-91247686D01*
X127189495Y-91784039D01*
X127285000Y-91823696D01*
X127285000Y-100410982D01*
X127168559Y-100485910D01*
X127023569Y-100698110D01*
X126972560Y-100950000D01*
X126972560Y-102250000D01*
X127016838Y-102485317D01*
X127155910Y-102701441D01*
X127285000Y-102789644D01*
X127285000Y-108449759D01*
X127220208Y-108493052D01*
X127000000Y-108822617D01*
X126779792Y-108493052D01*
X126298143Y-108171225D01*
X125730000Y-108058214D01*
X125161857Y-108171225D01*
X124680208Y-108493052D01*
X124358381Y-108974701D01*
X124245370Y-109542844D01*
X115010000Y-109542844D01*
X115010000Y-92068121D01*
X116391484Y-92068121D01*
X116616154Y-92442168D01*
X117599388Y-92840880D01*
X118660357Y-92832975D01*
X119603846Y-92442168D01*
X119828516Y-92068121D01*
X118110000Y-90349605D01*
X116391484Y-92068121D01*
X115010000Y-92068121D01*
X115010000Y-89659388D01*
X115439120Y-89659388D01*
X115447025Y-90720357D01*
X115837832Y-91663846D01*
X116211879Y-91888516D01*
X117930395Y-90170000D01*
X118289605Y-90170000D01*
X120008121Y-91888516D01*
X120382168Y-91663846D01*
X120780880Y-90680612D01*
X120772975Y-89619643D01*
X120382168Y-88676154D01*
X120008121Y-88451484D01*
X118289605Y-90170000D01*
X117930395Y-90170000D01*
X116211879Y-88451484D01*
X115837832Y-88676154D01*
X115439120Y-89659388D01*
X115010000Y-89659388D01*
X115010000Y-88271879D01*
X116391484Y-88271879D01*
X118110000Y-89990395D01*
X119828516Y-88271879D01*
X119603846Y-87897832D01*
X118620612Y-87499120D01*
X117559643Y-87507025D01*
X116616154Y-87897832D01*
X116391484Y-88271879D01*
X115010000Y-88271879D01*
X115010000Y-85800000D01*
X187250000Y-85800000D01*
X187250000Y-123750000D01*
X187250000Y-123750000D01*
G37*
X187250000Y-123750000D02*
X115010000Y-123750000D01*
X115010000Y-122548121D01*
X116391484Y-122548121D01*
X116616154Y-122922168D01*
X117599388Y-123320880D01*
X118660357Y-123312975D01*
X119603846Y-122922168D01*
X119828516Y-122548121D01*
X118110000Y-120829605D01*
X116391484Y-122548121D01*
X115010000Y-122548121D01*
X115010000Y-120139388D01*
X115439120Y-120139388D01*
X115447025Y-121200357D01*
X115837832Y-122143846D01*
X116211879Y-122368516D01*
X117930395Y-120650000D01*
X118289605Y-120650000D01*
X120008121Y-122368516D01*
X120382168Y-122143846D01*
X120780880Y-121160612D01*
X120772975Y-120099643D01*
X120382168Y-119156154D01*
X120008121Y-118931484D01*
X118289605Y-120650000D01*
X117930395Y-120650000D01*
X116211879Y-118931484D01*
X115837832Y-119156154D01*
X115439120Y-120139388D01*
X115010000Y-120139388D01*
X115010000Y-118751879D01*
X116391484Y-118751879D01*
X118110000Y-120470395D01*
X119828516Y-118751879D01*
X119603846Y-118377832D01*
X118620612Y-117979120D01*
X117559643Y-117987025D01*
X116616154Y-118377832D01*
X116391484Y-118751879D01*
X115010000Y-118751879D01*
X115010000Y-109542844D01*
X124245370Y-109542844D01*
X124245370Y-111437156D01*
X124358381Y-112005299D01*
X124680208Y-112486948D01*
X124745000Y-112530241D01*
X124745000Y-117003156D01*
X124678559Y-117045910D01*
X124533569Y-117258110D01*
X124482560Y-117510000D01*
X124482560Y-118710000D01*
X124526838Y-118945317D01*
X124665910Y-119161441D01*
X124745000Y-119215481D01*
X124745000Y-121920000D01*
X124819979Y-122296943D01*
X125033500Y-122616500D01*
X125353057Y-122830021D01*
X125730000Y-122905000D01*
X148590000Y-122905000D01*
X148966943Y-122830021D01*
X149286500Y-122616500D01*
X149354879Y-122548121D01*
X182431484Y-122548121D01*
X182656154Y-122922168D01*
X183639388Y-123320880D01*
X184700357Y-123312975D01*
X185643846Y-122922168D01*
X185868516Y-122548121D01*
X184150000Y-120829605D01*
X182431484Y-122548121D01*
X149354879Y-122548121D01*
X152707150Y-119195850D01*
X163408178Y-119195850D01*
X163408178Y-121913650D01*
X179491822Y-121913650D01*
X179491822Y-120139388D01*
X181479120Y-120139388D01*
X181487025Y-121200357D01*
X181877832Y-122143846D01*
X182251879Y-122368516D01*
X183970395Y-120650000D01*
X184329605Y-120650000D01*
X186048121Y-122368516D01*
X186422168Y-122143846D01*
X186820880Y-121160612D01*
X186812975Y-120099643D01*
X186422168Y-119156154D01*
X186048121Y-118931484D01*
X184329605Y-120650000D01*
X183970395Y-120650000D01*
X182251879Y-118931484D01*
X181877832Y-119156154D01*
X181479120Y-120139388D01*
X179491822Y-120139388D01*
X179491822Y-119195850D01*
X163408178Y-119195850D01*
X152707150Y-119195850D01*
X153096500Y-118806500D01*
X153132996Y-118751879D01*
X182431484Y-118751879D01*
X184150000Y-120470395D01*
X185868516Y-118751879D01*
X185643846Y-118377832D01*
X184660612Y-117979120D01*
X183599643Y-117987025D01*
X182656154Y-118377832D01*
X182431484Y-118751879D01*
X153132996Y-118751879D01*
X153310021Y-118486943D01*
X153385000Y-118110000D01*
X153385000Y-112144219D01*
X153477686Y-112105922D01*
X154014039Y-111570505D01*
X154304668Y-110870590D01*
X154305330Y-110112735D01*
X154265839Y-110017161D01*
X155636500Y-108646500D01*
X155850021Y-108326943D01*
X155881368Y-108169351D01*
X155925000Y-107950000D01*
X155925000Y-98775000D01*
X167640000Y-98775000D01*
X168016943Y-98700021D01*
X168336500Y-98486500D01*
X169606500Y-97216500D01*
X169820021Y-96896943D01*
X169895000Y-96520000D01*
X169895000Y-91824219D01*
X169987686Y-91785922D01*
X170524039Y-91250505D01*
X170814668Y-90550590D01*
X170814750Y-90455750D01*
X172085000Y-90455750D01*
X172085000Y-91566310D01*
X172181673Y-91799699D01*
X172360302Y-91978327D01*
X172593691Y-92075000D01*
X173704250Y-92075000D01*
X173863000Y-91916250D01*
X173863000Y-90297000D01*
X174117000Y-90297000D01*
X174117000Y-91916250D01*
X174275750Y-92075000D01*
X175386309Y-92075000D01*
X175402916Y-92068121D01*
X182431484Y-92068121D01*
X182656154Y-92442168D01*
X183639388Y-92840880D01*
X184700357Y-92832975D01*
X185643846Y-92442168D01*
X185868516Y-92068121D01*
X184150000Y-90349605D01*
X182431484Y-92068121D01*
X175402916Y-92068121D01*
X175619698Y-91978327D01*
X175798327Y-91799699D01*
X175895000Y-91566310D01*
X175895000Y-90455750D01*
X175736250Y-90297000D01*
X174117000Y-90297000D01*
X173863000Y-90297000D01*
X172243750Y-90297000D01*
X172085000Y-90455750D01*
X170814750Y-90455750D01*
X170815330Y-89792735D01*
X170525922Y-89092314D01*
X170207855Y-88773690D01*
X172085000Y-88773690D01*
X172085000Y-89884250D01*
X172243750Y-90043000D01*
X173863000Y-90043000D01*
X173863000Y-88423750D01*
X174117000Y-88423750D01*
X174117000Y-90043000D01*
X175736250Y-90043000D01*
X175895000Y-89884250D01*
X175895000Y-89659388D01*
X181479120Y-89659388D01*
X181487025Y-90720357D01*
X181877832Y-91663846D01*
X182251879Y-91888516D01*
X183970395Y-90170000D01*
X184329605Y-90170000D01*
X186048121Y-91888516D01*
X186422168Y-91663846D01*
X186820880Y-90680612D01*
X186812975Y-89619643D01*
X186422168Y-88676154D01*
X186048121Y-88451484D01*
X184329605Y-90170000D01*
X183970395Y-90170000D01*
X182251879Y-88451484D01*
X181877832Y-88676154D01*
X181479120Y-89659388D01*
X175895000Y-89659388D01*
X175895000Y-88773690D01*
X175798327Y-88540301D01*
X175619698Y-88361673D01*
X175402917Y-88271879D01*
X182431484Y-88271879D01*
X184150000Y-89990395D01*
X185868516Y-88271879D01*
X185643846Y-87897832D01*
X184660612Y-87499120D01*
X183599643Y-87507025D01*
X182656154Y-87897832D01*
X182431484Y-88271879D01*
X175402917Y-88271879D01*
X175386309Y-88265000D01*
X174275750Y-88265000D01*
X174117000Y-88423750D01*
X173863000Y-88423750D01*
X173704250Y-88265000D01*
X172593691Y-88265000D01*
X172360302Y-88361673D01*
X172181673Y-88540301D01*
X172085000Y-88773690D01*
X170207855Y-88773690D01*
X169990505Y-88555961D01*
X169290590Y-88265332D01*
X168532735Y-88264670D01*
X167832314Y-88554078D01*
X167295961Y-89089495D01*
X167005332Y-89789410D01*
X167004670Y-90547265D01*
X167294078Y-91247686D01*
X167829495Y-91784039D01*
X167925000Y-91823696D01*
X167925000Y-96112000D01*
X167232000Y-96805000D01*
X155925000Y-96805000D01*
X155925000Y-91824219D01*
X156017686Y-91785922D01*
X156554039Y-91250505D01*
X156844668Y-90550590D01*
X156844750Y-90455750D01*
X158115000Y-90455750D01*
X158115000Y-91566310D01*
X158211673Y-91799699D01*
X158390302Y-91978327D01*
X158623691Y-92075000D01*
X159734250Y-92075000D01*
X159893000Y-91916250D01*
X159893000Y-90297000D01*
X160147000Y-90297000D01*
X160147000Y-91916250D01*
X160305750Y-92075000D01*
X161416309Y-92075000D01*
X161649698Y-91978327D01*
X161828327Y-91799699D01*
X161925000Y-91566310D01*
X161925000Y-90455750D01*
X161766250Y-90297000D01*
X160147000Y-90297000D01*
X159893000Y-90297000D01*
X158273750Y-90297000D01*
X158115000Y-90455750D01*
X156844750Y-90455750D01*
X156845330Y-89792735D01*
X156555922Y-89092314D01*
X156237855Y-88773690D01*
X158115000Y-88773690D01*
X158115000Y-89884250D01*
X158273750Y-90043000D01*
X159893000Y-90043000D01*
X159893000Y-88423750D01*
X160147000Y-88423750D01*
X160147000Y-90043000D01*
X161766250Y-90043000D01*
X161925000Y-89884250D01*
X161925000Y-88773690D01*
X161828327Y-88540301D01*
X161649698Y-88361673D01*
X161416309Y-88265000D01*
X160305750Y-88265000D01*
X160147000Y-88423750D01*
X159893000Y-88423750D01*
X159734250Y-88265000D01*
X158623691Y-88265000D01*
X158390302Y-88361673D01*
X158211673Y-88540301D01*
X158115000Y-88773690D01*
X156237855Y-88773690D01*
X156020505Y-88555961D01*
X155320590Y-88265332D01*
X154562735Y-88264670D01*
X153862314Y-88554078D01*
X153325961Y-89089495D01*
X153035332Y-89789410D01*
X153034670Y-90547265D01*
X153324078Y-91247686D01*
X153859495Y-91784039D01*
X153955000Y-91823696D01*
X153955000Y-107542000D01*
X152873209Y-108623791D01*
X152780590Y-108585332D01*
X152022735Y-108584670D01*
X151322314Y-108874078D01*
X150785961Y-109409495D01*
X150495332Y-110109410D01*
X150494670Y-110867265D01*
X150784078Y-111567686D01*
X151319495Y-112104039D01*
X151415000Y-112143696D01*
X151415000Y-117702000D01*
X148182000Y-120935000D01*
X126715000Y-120935000D01*
X126715000Y-119216844D01*
X126781441Y-119174090D01*
X126919020Y-118972735D01*
X127546870Y-118972735D01*
X127596383Y-119198164D01*
X128061036Y-119357807D01*
X128551413Y-119327482D01*
X128863617Y-119198164D01*
X128913130Y-118972735D01*
X128230000Y-118289605D01*
X127546870Y-118972735D01*
X126919020Y-118972735D01*
X126926431Y-118961890D01*
X126977440Y-118710000D01*
X126977440Y-117941036D01*
X126982193Y-117941036D01*
X127012518Y-118431413D01*
X127141836Y-118743617D01*
X127367265Y-118793130D01*
X128050395Y-118110000D01*
X128409605Y-118110000D01*
X129092735Y-118793130D01*
X129318164Y-118743617D01*
X129477807Y-118278964D01*
X129447482Y-117788587D01*
X129318164Y-117476383D01*
X129092735Y-117426870D01*
X128409605Y-118110000D01*
X128050395Y-118110000D01*
X127367265Y-117426870D01*
X127141836Y-117476383D01*
X126982193Y-117941036D01*
X126977440Y-117941036D01*
X126977440Y-117510000D01*
X126933162Y-117274683D01*
X126915519Y-117247265D01*
X127546870Y-117247265D01*
X128230000Y-117930395D01*
X128913130Y-117247265D01*
X128863617Y-117021836D01*
X128398964Y-116862193D01*
X127908587Y-116892518D01*
X127596383Y-117021836D01*
X127546870Y-117247265D01*
X126915519Y-117247265D01*
X126794090Y-117058559D01*
X126715000Y-117004519D01*
X126715000Y-112530241D01*
X126779792Y-112486948D01*
X127000000Y-112157383D01*
X127220208Y-112486948D01*
X127701857Y-112808775D01*
X128270000Y-112921786D01*
X128838143Y-112808775D01*
X129319792Y-112486948D01*
X129545516Y-112149127D01*
X129850011Y-112530024D01*
X130359190Y-112810649D01*
X130453168Y-112831540D01*
X130683000Y-112710214D01*
X130683000Y-110617000D01*
X130937000Y-110617000D01*
X130937000Y-112710214D01*
X131166832Y-112831540D01*
X131260810Y-112810649D01*
X131769989Y-112530024D01*
X132133018Y-112075906D01*
X132294630Y-111517430D01*
X132294630Y-110775750D01*
X145415000Y-110775750D01*
X145415000Y-111886310D01*
X145511673Y-112119699D01*
X145690302Y-112298327D01*
X145923691Y-112395000D01*
X147034250Y-112395000D01*
X147193000Y-112236250D01*
X147193000Y-110617000D01*
X147447000Y-110617000D01*
X147447000Y-112236250D01*
X147605750Y-112395000D01*
X148716309Y-112395000D01*
X148949698Y-112298327D01*
X149128327Y-112119699D01*
X149225000Y-111886310D01*
X149225000Y-110775750D01*
X149066250Y-110617000D01*
X147447000Y-110617000D01*
X147193000Y-110617000D01*
X145573750Y-110617000D01*
X145415000Y-110775750D01*
X132294630Y-110775750D01*
X132294630Y-110617000D01*
X130937000Y-110617000D01*
X130683000Y-110617000D01*
X130663000Y-110617000D01*
X130663000Y-110363000D01*
X130683000Y-110363000D01*
X130683000Y-108269786D01*
X130937000Y-108269786D01*
X130937000Y-110363000D01*
X132294630Y-110363000D01*
X132294630Y-109462570D01*
X132187884Y-109093690D01*
X145415000Y-109093690D01*
X145415000Y-110204250D01*
X145573750Y-110363000D01*
X147193000Y-110363000D01*
X147193000Y-108743750D01*
X147447000Y-108743750D01*
X147447000Y-110363000D01*
X149066250Y-110363000D01*
X149225000Y-110204250D01*
X149225000Y-109093690D01*
X149128327Y-108860301D01*
X148949698Y-108681673D01*
X148716309Y-108585000D01*
X147605750Y-108585000D01*
X147447000Y-108743750D01*
X147193000Y-108743750D01*
X147034250Y-108585000D01*
X145923691Y-108585000D01*
X145690302Y-108681673D01*
X145511673Y-108860301D01*
X145415000Y-109093690D01*
X132187884Y-109093690D01*
X132133018Y-108904094D01*
X131769989Y-108449976D01*
X131260810Y-108169351D01*
X131166832Y-108148460D01*
X130937000Y-108269786D01*
X130683000Y-108269786D01*
X130453168Y-108148460D01*
X130359190Y-108169351D01*
X129850011Y-108449976D01*
X129545516Y-108830873D01*
X129319792Y-108493052D01*
X129255000Y-108449759D01*
X129255000Y-102789018D01*
X129371441Y-102714090D01*
X129516431Y-102501890D01*
X129517012Y-102499016D01*
X130050590Y-102499016D01*
X130106271Y-102729611D01*
X130589078Y-102897622D01*
X131099428Y-102868083D01*
X131433729Y-102729611D01*
X131489410Y-102499016D01*
X130770000Y-101779605D01*
X130050590Y-102499016D01*
X129517012Y-102499016D01*
X129567440Y-102250000D01*
X129567440Y-102087615D01*
X129640389Y-102263729D01*
X129870984Y-102319410D01*
X130590395Y-101600000D01*
X130949605Y-101600000D01*
X131669016Y-102319410D01*
X131899611Y-102263729D01*
X132067622Y-101780922D01*
X132038083Y-101270572D01*
X131899611Y-100936271D01*
X131669016Y-100880590D01*
X130949605Y-101600000D01*
X130590395Y-101600000D01*
X129870984Y-100880590D01*
X129640389Y-100936271D01*
X129567440Y-101145902D01*
X129567440Y-100950000D01*
X129523162Y-100714683D01*
X129514347Y-100700984D01*
X130050590Y-100700984D01*
X130770000Y-101420395D01*
X131489410Y-100700984D01*
X131433729Y-100470389D01*
X130950922Y-100302378D01*
X130440572Y-100331917D01*
X130106271Y-100470389D01*
X130050590Y-100700984D01*
X129514347Y-100700984D01*
X129384090Y-100498559D01*
X129255000Y-100410356D01*
X129255000Y-97505000D01*
X139700000Y-97505000D01*
X140076943Y-97430021D01*
X140396500Y-97216500D01*
X141666500Y-95946500D01*
X141880021Y-95626943D01*
X141955000Y-95250000D01*
X141955000Y-91824219D01*
X142047686Y-91785922D01*
X142584039Y-91250505D01*
X142874668Y-90550590D01*
X142874750Y-90455750D01*
X144145000Y-90455750D01*
X144145000Y-91566310D01*
X144241673Y-91799699D01*
X144420302Y-91978327D01*
X144653691Y-92075000D01*
X145764250Y-92075000D01*
X145923000Y-91916250D01*
X145923000Y-90297000D01*
X146177000Y-90297000D01*
X146177000Y-91916250D01*
X146335750Y-92075000D01*
X147446309Y-92075000D01*
X147679698Y-91978327D01*
X147858327Y-91799699D01*
X147955000Y-91566310D01*
X147955000Y-90455750D01*
X147796250Y-90297000D01*
X146177000Y-90297000D01*
X145923000Y-90297000D01*
X144303750Y-90297000D01*
X144145000Y-90455750D01*
X142874750Y-90455750D01*
X142875330Y-89792735D01*
X142585922Y-89092314D01*
X142267855Y-88773690D01*
X144145000Y-88773690D01*
X144145000Y-89884250D01*
X144303750Y-90043000D01*
X145923000Y-90043000D01*
X145923000Y-88423750D01*
X146177000Y-88423750D01*
X146177000Y-90043000D01*
X147796250Y-90043000D01*
X147955000Y-89884250D01*
X147955000Y-88773690D01*
X147858327Y-88540301D01*
X147679698Y-88361673D01*
X147446309Y-88265000D01*
X146335750Y-88265000D01*
X146177000Y-88423750D01*
X145923000Y-88423750D01*
X145764250Y-88265000D01*
X144653691Y-88265000D01*
X144420302Y-88361673D01*
X144241673Y-88540301D01*
X144145000Y-88773690D01*
X142267855Y-88773690D01*
X142050505Y-88555961D01*
X141350590Y-88265332D01*
X140592735Y-88264670D01*
X139892314Y-88554078D01*
X139355961Y-89089495D01*
X139065332Y-89789410D01*
X139064670Y-90547265D01*
X139354078Y-91247686D01*
X139889495Y-91784039D01*
X139985000Y-91823696D01*
X139985000Y-94842000D01*
X139292000Y-95535000D01*
X129255000Y-95535000D01*
X129255000Y-91824219D01*
X129347686Y-91785922D01*
X129884039Y-91250505D01*
X130174668Y-90550590D01*
X130174750Y-90455750D01*
X131445000Y-90455750D01*
X131445000Y-91566310D01*
X131541673Y-91799699D01*
X131720302Y-91978327D01*
X131953691Y-92075000D01*
X133064250Y-92075000D01*
X133223000Y-91916250D01*
X133223000Y-90297000D01*
X133477000Y-90297000D01*
X133477000Y-91916250D01*
X133635750Y-92075000D01*
X134746309Y-92075000D01*
X134979698Y-91978327D01*
X135158327Y-91799699D01*
X135255000Y-91566310D01*
X135255000Y-90455750D01*
X135096250Y-90297000D01*
X133477000Y-90297000D01*
X133223000Y-90297000D01*
X131603750Y-90297000D01*
X131445000Y-90455750D01*
X130174750Y-90455750D01*
X130175330Y-89792735D01*
X129885922Y-89092314D01*
X129567855Y-88773690D01*
X131445000Y-88773690D01*
X131445000Y-89884250D01*
X131603750Y-90043000D01*
X133223000Y-90043000D01*
X133223000Y-88423750D01*
X133477000Y-88423750D01*
X133477000Y-90043000D01*
X135096250Y-90043000D01*
X135255000Y-89884250D01*
X135255000Y-88773690D01*
X135158327Y-88540301D01*
X134979698Y-88361673D01*
X134746309Y-88265000D01*
X133635750Y-88265000D01*
X133477000Y-88423750D01*
X133223000Y-88423750D01*
X133064250Y-88265000D01*
X131953691Y-88265000D01*
X131720302Y-88361673D01*
X131541673Y-88540301D01*
X131445000Y-88773690D01*
X129567855Y-88773690D01*
X129350505Y-88555961D01*
X128650590Y-88265332D01*
X127892735Y-88264670D01*
X127192314Y-88554078D01*
X126655961Y-89089495D01*
X126365332Y-89789410D01*
X126364670Y-90547265D01*
X126654078Y-91247686D01*
X127189495Y-91784039D01*
X127285000Y-91823696D01*
X127285000Y-100410982D01*
X127168559Y-100485910D01*
X127023569Y-100698110D01*
X126972560Y-100950000D01*
X126972560Y-102250000D01*
X127016838Y-102485317D01*
X127155910Y-102701441D01*
X127285000Y-102789644D01*
X127285000Y-108449759D01*
X127220208Y-108493052D01*
X127000000Y-108822617D01*
X126779792Y-108493052D01*
X126298143Y-108171225D01*
X125730000Y-108058214D01*
X125161857Y-108171225D01*
X124680208Y-108493052D01*
X124358381Y-108974701D01*
X124245370Y-109542844D01*
X115010000Y-109542844D01*
X115010000Y-92068121D01*
X116391484Y-92068121D01*
X116616154Y-92442168D01*
X117599388Y-92840880D01*
X118660357Y-92832975D01*
X119603846Y-92442168D01*
X119828516Y-92068121D01*
X118110000Y-90349605D01*
X116391484Y-92068121D01*
X115010000Y-92068121D01*
X115010000Y-89659388D01*
X115439120Y-89659388D01*
X115447025Y-90720357D01*
X115837832Y-91663846D01*
X116211879Y-91888516D01*
X117930395Y-90170000D01*
X118289605Y-90170000D01*
X120008121Y-91888516D01*
X120382168Y-91663846D01*
X120780880Y-90680612D01*
X120772975Y-89619643D01*
X120382168Y-88676154D01*
X120008121Y-88451484D01*
X118289605Y-90170000D01*
X117930395Y-90170000D01*
X116211879Y-88451484D01*
X115837832Y-88676154D01*
X115439120Y-89659388D01*
X115010000Y-89659388D01*
X115010000Y-88271879D01*
X116391484Y-88271879D01*
X118110000Y-89990395D01*
X119828516Y-88271879D01*
X119603846Y-87897832D01*
X118620612Y-87499120D01*
X117559643Y-87507025D01*
X116616154Y-87897832D01*
X116391484Y-88271879D01*
X115010000Y-88271879D01*
X115010000Y-85800000D01*
X187250000Y-85800000D01*
X187250000Y-123750000D01*
M02*
