G04 #@! TF.FileFunction,Copper,L1,Top,Signal*
%FSLAX46Y46*%
G04 Gerber Fmt 4.6, Leading zero omitted, Abs format (unit mm)*
G04 Created by KiCad (PCBNEW 4.0.6+dfsg1-1) date Tue Oct 24 13:55:29 2017*
%MOMM*%
%LPD*%
G01*
G04 APERTURE LIST*
%ADD10C,0.050000*%
%ADD11C,0.190500*%
%ADD12R,1.727200X2.032000*%
%ADD13O,1.727200X2.032000*%
%ADD14C,1.800000*%
%ADD15C,4.000000*%
%ADD16R,2.032000X1.727200*%
%ADD17O,2.032000X1.727200*%
%ADD18R,2.032000X2.032000*%
%ADD19O,2.032000X2.032000*%
%ADD20C,4.064000*%
%ADD21C,1.397000*%
%ADD22C,0.600000*%
%ADD23C,0.300000*%
%ADD24C,0.254000*%
G04 APERTURE END LIST*
D10*
D11*
X148868571Y-119942143D02*
X148911429Y-119856429D01*
X148911429Y-119685000D01*
X148868571Y-119599286D01*
X148782857Y-119513572D01*
X148697143Y-119470715D01*
X148525714Y-119470715D01*
X148440000Y-119513572D01*
X148354286Y-119599286D01*
X148311429Y-119685000D01*
X148311429Y-119856429D01*
X148354286Y-119942143D01*
X149211429Y-119770715D02*
X149168571Y-119556429D01*
X149040000Y-119342143D01*
X148825714Y-119213572D01*
X148611429Y-119170715D01*
X148397143Y-119213572D01*
X148182857Y-119342143D01*
X148054286Y-119556429D01*
X148011429Y-119770715D01*
X148054286Y-119985000D01*
X148182857Y-120199286D01*
X148397143Y-120327857D01*
X148611429Y-120370715D01*
X148825714Y-120327857D01*
X149040000Y-120199286D01*
X149168571Y-119985000D01*
X149211429Y-119770715D01*
X148440000Y-121399286D02*
X148440000Y-121827857D01*
X148182857Y-121313571D02*
X149082857Y-121613571D01*
X148182857Y-121913571D01*
X148182857Y-122342143D02*
X148225714Y-122256429D01*
X148311429Y-122213572D01*
X149082857Y-122213572D01*
X148225714Y-123027858D02*
X148182857Y-122942144D01*
X148182857Y-122770715D01*
X148225714Y-122685001D01*
X148311429Y-122642144D01*
X148654286Y-122642144D01*
X148740000Y-122685001D01*
X148782857Y-122770715D01*
X148782857Y-122942144D01*
X148740000Y-123027858D01*
X148654286Y-123070715D01*
X148568571Y-123070715D01*
X148482857Y-122642144D01*
X148182857Y-123370715D02*
X148782857Y-123842144D01*
X148782857Y-123370715D02*
X148182857Y-123842144D01*
X148182857Y-124570715D02*
X148654286Y-124570715D01*
X148740000Y-124527858D01*
X148782857Y-124442144D01*
X148782857Y-124270715D01*
X148740000Y-124185001D01*
X148225714Y-124570715D02*
X148182857Y-124485001D01*
X148182857Y-124270715D01*
X148225714Y-124185001D01*
X148311429Y-124142144D01*
X148397143Y-124142144D01*
X148482857Y-124185001D01*
X148525714Y-124270715D01*
X148525714Y-124485001D01*
X148568571Y-124570715D01*
X148782857Y-124999287D02*
X148182857Y-124999287D01*
X148697143Y-124999287D02*
X148740000Y-125042144D01*
X148782857Y-125127858D01*
X148782857Y-125256430D01*
X148740000Y-125342144D01*
X148654286Y-125385001D01*
X148182857Y-125385001D01*
X148182857Y-126199287D02*
X149082857Y-126199287D01*
X148225714Y-126199287D02*
X148182857Y-126113573D01*
X148182857Y-125942144D01*
X148225714Y-125856430D01*
X148268571Y-125813573D01*
X148354286Y-125770716D01*
X148611429Y-125770716D01*
X148697143Y-125813573D01*
X148740000Y-125856430D01*
X148782857Y-125942144D01*
X148782857Y-126113573D01*
X148740000Y-126199287D01*
X148182857Y-126627859D02*
X148782857Y-126627859D01*
X148611429Y-126627859D02*
X148697143Y-126670716D01*
X148740000Y-126713573D01*
X148782857Y-126799287D01*
X148782857Y-126885002D01*
X148182857Y-127313573D02*
X148225714Y-127227859D01*
X148268571Y-127185002D01*
X148354286Y-127142145D01*
X148611429Y-127142145D01*
X148697143Y-127185002D01*
X148740000Y-127227859D01*
X148782857Y-127313573D01*
X148782857Y-127442145D01*
X148740000Y-127527859D01*
X148697143Y-127570716D01*
X148611429Y-127613573D01*
X148354286Y-127613573D01*
X148268571Y-127570716D01*
X148225714Y-127527859D01*
X148182857Y-127442145D01*
X148182857Y-127313573D01*
X148225714Y-127956431D02*
X148182857Y-128042145D01*
X148182857Y-128213573D01*
X148225714Y-128299288D01*
X148311429Y-128342145D01*
X148354286Y-128342145D01*
X148440000Y-128299288D01*
X148482857Y-128213573D01*
X148482857Y-128085002D01*
X148525714Y-127999288D01*
X148611429Y-127956431D01*
X148654286Y-127956431D01*
X148740000Y-127999288D01*
X148782857Y-128085002D01*
X148782857Y-128213573D01*
X148740000Y-128299288D01*
X148182857Y-129413573D02*
X149082857Y-129413573D01*
X149082857Y-129627858D01*
X149040000Y-129756430D01*
X148954286Y-129842144D01*
X148868571Y-129885001D01*
X148697143Y-129927858D01*
X148568571Y-129927858D01*
X148397143Y-129885001D01*
X148311429Y-129842144D01*
X148225714Y-129756430D01*
X148182857Y-129627858D01*
X148182857Y-129413573D01*
X148182857Y-130313573D02*
X148782857Y-130313573D01*
X148611429Y-130313573D02*
X148697143Y-130356430D01*
X148740000Y-130399287D01*
X148782857Y-130485001D01*
X148782857Y-130570716D01*
X148782857Y-130785001D02*
X148182857Y-130999287D01*
X148782857Y-131213573D02*
X148182857Y-130999287D01*
X147968571Y-130913573D01*
X147925714Y-130870716D01*
X147882857Y-130785001D01*
X148182857Y-131556430D02*
X148782857Y-131556430D01*
X148697143Y-131556430D02*
X148740000Y-131599287D01*
X148782857Y-131685001D01*
X148782857Y-131813573D01*
X148740000Y-131899287D01*
X148654286Y-131942144D01*
X148182857Y-131942144D01*
X148654286Y-131942144D02*
X148740000Y-131985001D01*
X148782857Y-132070715D01*
X148782857Y-132199287D01*
X148740000Y-132285001D01*
X148654286Y-132327858D01*
X148182857Y-132327858D01*
X148182857Y-132885001D02*
X148225714Y-132799287D01*
X148268571Y-132756430D01*
X148354286Y-132713573D01*
X148611429Y-132713573D01*
X148697143Y-132756430D01*
X148740000Y-132799287D01*
X148782857Y-132885001D01*
X148782857Y-133013573D01*
X148740000Y-133099287D01*
X148697143Y-133142144D01*
X148611429Y-133185001D01*
X148354286Y-133185001D01*
X148268571Y-133142144D01*
X148225714Y-133099287D01*
X148182857Y-133013573D01*
X148182857Y-132885001D01*
X148782857Y-133570716D02*
X148182857Y-133570716D01*
X148697143Y-133570716D02*
X148740000Y-133613573D01*
X148782857Y-133699287D01*
X148782857Y-133827859D01*
X148740000Y-133913573D01*
X148654286Y-133956430D01*
X148182857Y-133956430D01*
X148182857Y-134385002D02*
X148782857Y-134385002D01*
X149082857Y-134385002D02*
X149040000Y-134342145D01*
X148997143Y-134385002D01*
X149040000Y-134427859D01*
X149082857Y-134385002D01*
X148997143Y-134385002D01*
X148782857Y-134685001D02*
X148782857Y-135027858D01*
X149082857Y-134813573D02*
X148311429Y-134813573D01*
X148225714Y-134856430D01*
X148182857Y-134942144D01*
X148182857Y-135027858D01*
X148182857Y-135327859D02*
X148782857Y-135327859D01*
X149082857Y-135327859D02*
X149040000Y-135285002D01*
X148997143Y-135327859D01*
X149040000Y-135370716D01*
X149082857Y-135327859D01*
X148997143Y-135327859D01*
X148225714Y-135713573D02*
X148182857Y-135799287D01*
X148182857Y-135970715D01*
X148225714Y-136056430D01*
X148311429Y-136099287D01*
X148354286Y-136099287D01*
X148440000Y-136056430D01*
X148482857Y-135970715D01*
X148482857Y-135842144D01*
X148525714Y-135756430D01*
X148611429Y-135713573D01*
X148654286Y-135713573D01*
X148740000Y-135756430D01*
X148782857Y-135842144D01*
X148782857Y-135970715D01*
X148740000Y-136056430D01*
D12*
X127000000Y-71120000D03*
D13*
X129540000Y-71120000D03*
X132080000Y-71120000D03*
X134620000Y-71120000D03*
X137160000Y-71120000D03*
X139700000Y-71120000D03*
X142240000Y-71120000D03*
X144780000Y-71120000D03*
D14*
X138350000Y-51435000D03*
X135850000Y-51435000D03*
X133350000Y-51435000D03*
D15*
X140250000Y-58435000D03*
X131450000Y-58435000D03*
D16*
X147320000Y-99060000D03*
D17*
X147320000Y-101600000D03*
X147320000Y-104140000D03*
X147320000Y-106680000D03*
X147320000Y-109220000D03*
X147320000Y-111760000D03*
X147320000Y-114300000D03*
X147320000Y-116840000D03*
D12*
X129540000Y-138430000D03*
D13*
X132080000Y-138430000D03*
X134620000Y-138430000D03*
X137160000Y-138430000D03*
X139700000Y-138430000D03*
X142240000Y-138430000D03*
X144780000Y-138430000D03*
X147320000Y-138430000D03*
D16*
X144780000Y-99060000D03*
D17*
X144780000Y-101600000D03*
X144780000Y-104140000D03*
X144780000Y-106680000D03*
X144780000Y-109220000D03*
X144780000Y-111760000D03*
X144780000Y-114300000D03*
X144780000Y-116840000D03*
D12*
X127000000Y-133350000D03*
D13*
X129540000Y-133350000D03*
X132080000Y-133350000D03*
X134620000Y-133350000D03*
X137160000Y-133350000D03*
X139700000Y-133350000D03*
X142240000Y-133350000D03*
X144780000Y-133350000D03*
D18*
X144780000Y-90170000D03*
D19*
X144780000Y-92710000D03*
D16*
X147955000Y-78740000D03*
D17*
X147955000Y-76200000D03*
X147955000Y-73660000D03*
X147955000Y-71120000D03*
D18*
X147320000Y-90170000D03*
D19*
X147320000Y-92710000D03*
D20*
X144780000Y-66040000D03*
X125730000Y-138430000D03*
D21*
X145415000Y-84455000D03*
X147955000Y-84455000D03*
X145415000Y-81915000D03*
X147955000Y-81915000D03*
X144780000Y-74295000D03*
X144780000Y-76835000D03*
X137160000Y-67945000D03*
X139700000Y-67945000D03*
D14*
X138350000Y-73660000D03*
X135850000Y-73660000D03*
X133350000Y-73660000D03*
D15*
X140250000Y-80660000D03*
X131450000Y-80660000D03*
D14*
X138350000Y-95885000D03*
X135850000Y-95885000D03*
X133350000Y-95885000D03*
D15*
X140250000Y-102885000D03*
X131450000Y-102885000D03*
D14*
X138350000Y-118110000D03*
X135850000Y-118110000D03*
X133350000Y-118110000D03*
D15*
X140250000Y-125110000D03*
X131450000Y-125110000D03*
D22*
X128270000Y-53975000D03*
X133350000Y-92710000D03*
X143510000Y-78105000D03*
D23*
X128270000Y-53975000D02*
X127000000Y-55245000D01*
X127000000Y-55245000D02*
X127000000Y-71120000D01*
X131450000Y-58435000D02*
X140250000Y-58435000D01*
X131450000Y-80660000D02*
X140250000Y-80660000D01*
X131450000Y-102885000D02*
X140250000Y-102885000D01*
X131450000Y-125110000D02*
X140250000Y-125110000D01*
X144780000Y-90170000D02*
X147320000Y-90170000D01*
X144780000Y-92710000D02*
X133350000Y-92710000D01*
X133350000Y-92710000D02*
X133350000Y-95885000D01*
X144780000Y-92710000D02*
X147320000Y-92710000D01*
X135850000Y-73660000D02*
X135850000Y-69890000D01*
X129700000Y-69850000D02*
X129700000Y-70960000D01*
X130890000Y-68660000D02*
X129700000Y-69850000D01*
X134620000Y-68660000D02*
X130890000Y-68660000D01*
X135850000Y-69890000D02*
X134620000Y-68660000D01*
X129700000Y-70960000D02*
X129540000Y-71120000D01*
X134620000Y-71120000D02*
X133985000Y-71120000D01*
X133985000Y-71120000D02*
X132080000Y-73025000D01*
X132080000Y-73025000D02*
X128270000Y-73025000D01*
X128270000Y-73025000D02*
X127000000Y-74295000D01*
X127000000Y-74295000D02*
X127000000Y-110490000D01*
X127000000Y-110490000D02*
X128905000Y-112395000D01*
X128905000Y-112395000D02*
X134620000Y-112395000D01*
X134620000Y-112395000D02*
X135850000Y-113625000D01*
X135850000Y-113625000D02*
X135850000Y-118110000D01*
X144780000Y-99060000D02*
X147320000Y-99060000D01*
X144780000Y-101600000D02*
X147320000Y-101600000D01*
X144780000Y-104140000D02*
X147320000Y-104140000D01*
X144780000Y-106680000D02*
X147320000Y-106680000D01*
X144780000Y-109220000D02*
X147320000Y-109220000D01*
X144780000Y-111760000D02*
X147320000Y-111760000D01*
X144780000Y-114300000D02*
X147320000Y-114300000D01*
X144780000Y-116840000D02*
X147320000Y-116840000D01*
X127000000Y-133350000D02*
X129540000Y-135890000D01*
X129540000Y-135890000D02*
X129540000Y-138430000D01*
X129540000Y-133350000D02*
X132080000Y-135890000D01*
X132080000Y-135890000D02*
X132080000Y-138430000D01*
X132080000Y-133350000D02*
X134620000Y-135890000D01*
X134620000Y-135890000D02*
X134620000Y-138430000D01*
X134620000Y-133350000D02*
X137160000Y-135890000D01*
X137160000Y-135890000D02*
X137160000Y-138430000D01*
X137160000Y-133350000D02*
X139700000Y-135890000D01*
X139700000Y-135890000D02*
X139700000Y-138430000D01*
X139700000Y-133350000D02*
X142240000Y-135890000D01*
X142240000Y-135890000D02*
X142240000Y-138430000D01*
X142240000Y-133350000D02*
X144780000Y-135890000D01*
X144780000Y-135890000D02*
X144780000Y-138430000D01*
X144780000Y-133350000D02*
X147320000Y-135890000D01*
X147320000Y-135890000D02*
X147320000Y-138430000D01*
X147955000Y-71120000D02*
X146050000Y-69215000D01*
X137160000Y-66675000D02*
X137160000Y-67945000D01*
X137795000Y-66040000D02*
X137160000Y-66675000D01*
X140970000Y-66040000D02*
X137795000Y-66040000D01*
X144145000Y-69215000D02*
X140970000Y-66040000D01*
X146050000Y-69215000D02*
X144145000Y-69215000D01*
X147955000Y-71120000D02*
X147955000Y-70485000D01*
X137160000Y-67945000D02*
X137160000Y-71120000D01*
X144780000Y-74295000D02*
X147320000Y-74295000D01*
X147320000Y-74295000D02*
X147955000Y-73660000D01*
X139700000Y-71120000D02*
X141605000Y-73025000D01*
X143510000Y-73025000D02*
X144780000Y-74295000D01*
X141605000Y-73025000D02*
X143510000Y-73025000D01*
X144145000Y-81915000D02*
X145415000Y-81915000D01*
X143510000Y-81280000D02*
X144145000Y-81915000D01*
X143510000Y-78105000D02*
X143510000Y-81280000D01*
X145415000Y-81915000D02*
X145415000Y-78105000D01*
X145415000Y-78105000D02*
X147320000Y-76200000D01*
X147320000Y-76200000D02*
X147955000Y-76200000D01*
X145415000Y-84455000D02*
X146685000Y-83185000D01*
X146685000Y-80010000D02*
X147955000Y-78740000D01*
X146685000Y-83185000D02*
X146685000Y-80010000D01*
D24*
G36*
X131815267Y-51128330D02*
X131814735Y-51738991D01*
X132047932Y-52303371D01*
X132479357Y-52735551D01*
X133043330Y-52969733D01*
X133653991Y-52970265D01*
X134218371Y-52737068D01*
X134600288Y-52355818D01*
X134979357Y-52735551D01*
X135543330Y-52969733D01*
X136153991Y-52970265D01*
X136718371Y-52737068D01*
X136940668Y-52515159D01*
X137449446Y-52515159D01*
X137535852Y-52771643D01*
X138109336Y-52981458D01*
X138719460Y-52955839D01*
X139164148Y-52771643D01*
X139250554Y-52515159D01*
X138350000Y-51614605D01*
X137449446Y-52515159D01*
X136940668Y-52515159D01*
X137150551Y-52305643D01*
X137154294Y-52296628D01*
X137269841Y-52335554D01*
X138170395Y-51435000D01*
X138156253Y-51420858D01*
X138335858Y-51241253D01*
X138350000Y-51255395D01*
X138364143Y-51241253D01*
X138543748Y-51420858D01*
X138529605Y-51435000D01*
X139430159Y-52335554D01*
X139686643Y-52249148D01*
X139896458Y-51675664D01*
X139870839Y-51065540D01*
X139791915Y-50875000D01*
X149150000Y-50875000D01*
X149150000Y-70027312D01*
X148713234Y-69735474D01*
X148139745Y-69621400D01*
X147770255Y-69621400D01*
X147600353Y-69655195D01*
X146605079Y-68659921D01*
X146350407Y-68489755D01*
X146050000Y-68430000D01*
X145989375Y-68430000D01*
X146273846Y-68312168D01*
X146498516Y-67938121D01*
X144780000Y-66219605D01*
X144765858Y-66233748D01*
X144586253Y-66054143D01*
X144600395Y-66040000D01*
X144959605Y-66040000D01*
X146678121Y-67758516D01*
X147052168Y-67533846D01*
X147450880Y-66550612D01*
X147442975Y-65489643D01*
X147052168Y-64546154D01*
X146678121Y-64321484D01*
X144959605Y-66040000D01*
X144600395Y-66040000D01*
X142881879Y-64321484D01*
X142507832Y-64546154D01*
X142109120Y-65529388D01*
X142113170Y-66073012D01*
X141525079Y-65484921D01*
X141270407Y-65314755D01*
X140970000Y-65255000D01*
X137795005Y-65255000D01*
X137795000Y-65254999D01*
X137494594Y-65314755D01*
X137239921Y-65484921D01*
X136604921Y-66119921D01*
X136434755Y-66374593D01*
X136391837Y-66590357D01*
X136375000Y-66675000D01*
X136375000Y-66844421D01*
X136030173Y-67188647D01*
X135826732Y-67678587D01*
X135826269Y-68209086D01*
X136028854Y-68699380D01*
X136375000Y-69046130D01*
X136375000Y-69304842D01*
X135175079Y-68104921D01*
X134920407Y-67934755D01*
X134620000Y-67875000D01*
X130890000Y-67875000D01*
X130589593Y-67934755D01*
X130334921Y-68104921D01*
X129144921Y-69294921D01*
X128975143Y-69549012D01*
X128966511Y-69550729D01*
X128480330Y-69875585D01*
X128470757Y-69889913D01*
X128466762Y-69868683D01*
X128327690Y-69652559D01*
X128115490Y-69507569D01*
X127863600Y-69456560D01*
X127785000Y-69456560D01*
X127785000Y-64141879D01*
X143061484Y-64141879D01*
X144780000Y-65860395D01*
X146498516Y-64141879D01*
X146273846Y-63767832D01*
X145290612Y-63369120D01*
X144229643Y-63377025D01*
X143286154Y-63767832D01*
X143061484Y-64141879D01*
X127785000Y-64141879D01*
X127785000Y-60310022D01*
X129754584Y-60310022D01*
X129975353Y-60680743D01*
X130947012Y-61074119D01*
X131995247Y-61065713D01*
X132924647Y-60680743D01*
X133145416Y-60310022D01*
X138554584Y-60310022D01*
X138775353Y-60680743D01*
X139747012Y-61074119D01*
X140795247Y-61065713D01*
X141724647Y-60680743D01*
X141945416Y-60310022D01*
X140250000Y-58614605D01*
X138554584Y-60310022D01*
X133145416Y-60310022D01*
X131450000Y-58614605D01*
X129754584Y-60310022D01*
X127785000Y-60310022D01*
X127785000Y-57932012D01*
X128810881Y-57932012D01*
X128819287Y-58980247D01*
X129204257Y-59909647D01*
X129574978Y-60130416D01*
X131270395Y-58435000D01*
X131629605Y-58435000D01*
X133325022Y-60130416D01*
X133695743Y-59909647D01*
X134089119Y-58937988D01*
X134081052Y-57932012D01*
X137610881Y-57932012D01*
X137619287Y-58980247D01*
X138004257Y-59909647D01*
X138374978Y-60130416D01*
X140070395Y-58435000D01*
X140429605Y-58435000D01*
X142125022Y-60130416D01*
X142495743Y-59909647D01*
X142889119Y-58937988D01*
X142880713Y-57889753D01*
X142495743Y-56960353D01*
X142125022Y-56739584D01*
X140429605Y-58435000D01*
X140070395Y-58435000D01*
X138374978Y-56739584D01*
X138004257Y-56960353D01*
X137610881Y-57932012D01*
X134081052Y-57932012D01*
X134080713Y-57889753D01*
X133695743Y-56960353D01*
X133325022Y-56739584D01*
X131629605Y-58435000D01*
X131270395Y-58435000D01*
X129574978Y-56739584D01*
X129204257Y-56960353D01*
X128810881Y-57932012D01*
X127785000Y-57932012D01*
X127785000Y-56559978D01*
X129754584Y-56559978D01*
X131450000Y-58255395D01*
X133145416Y-56559978D01*
X138554584Y-56559978D01*
X140250000Y-58255395D01*
X141945416Y-56559978D01*
X141724647Y-56189257D01*
X140752988Y-55795881D01*
X139704753Y-55804287D01*
X138775353Y-56189257D01*
X138554584Y-56559978D01*
X133145416Y-56559978D01*
X132924647Y-56189257D01*
X131952988Y-55795881D01*
X130904753Y-55804287D01*
X129975353Y-56189257D01*
X129754584Y-56559978D01*
X127785000Y-56559978D01*
X127785000Y-55570158D01*
X128445005Y-54910153D01*
X128455167Y-54910162D01*
X128798943Y-54768117D01*
X129062192Y-54505327D01*
X129204838Y-54161799D01*
X129205162Y-53789833D01*
X129063117Y-53446057D01*
X128800327Y-53182808D01*
X128456799Y-53040162D01*
X128084833Y-53039838D01*
X127741057Y-53181883D01*
X127477808Y-53444673D01*
X127335162Y-53788201D01*
X127335152Y-53799690D01*
X126444921Y-54689921D01*
X126274755Y-54944593D01*
X126274755Y-54944594D01*
X126215000Y-55245000D01*
X126215000Y-69456560D01*
X126136400Y-69456560D01*
X125901083Y-69500838D01*
X125684959Y-69639910D01*
X125539969Y-69852110D01*
X125488960Y-70104000D01*
X125488960Y-72136000D01*
X125533238Y-72371317D01*
X125672310Y-72587441D01*
X125884510Y-72732431D01*
X126136400Y-72783440D01*
X127401402Y-72783440D01*
X126444921Y-73739921D01*
X126274755Y-73994593D01*
X126267530Y-74030914D01*
X126215000Y-74295000D01*
X126215000Y-110490000D01*
X126274755Y-110790407D01*
X126444921Y-111045079D01*
X128349921Y-112950079D01*
X128604594Y-113120245D01*
X128905000Y-113180000D01*
X134294842Y-113180000D01*
X135065000Y-113950158D01*
X135065000Y-116773484D01*
X134981629Y-116807932D01*
X134599712Y-117189182D01*
X134220643Y-116809449D01*
X133656670Y-116575267D01*
X133046009Y-116574735D01*
X132481629Y-116807932D01*
X132049449Y-117239357D01*
X131815267Y-117803330D01*
X131814735Y-118413991D01*
X132047932Y-118978371D01*
X132479357Y-119410551D01*
X133043330Y-119644733D01*
X133653991Y-119645265D01*
X134218371Y-119412068D01*
X134600288Y-119030818D01*
X134979357Y-119410551D01*
X135543330Y-119644733D01*
X136153991Y-119645265D01*
X136718371Y-119412068D01*
X136940668Y-119190159D01*
X137449446Y-119190159D01*
X137535852Y-119446643D01*
X138109336Y-119656458D01*
X138719460Y-119630839D01*
X139164148Y-119446643D01*
X139250554Y-119190159D01*
X138350000Y-118289605D01*
X137449446Y-119190159D01*
X136940668Y-119190159D01*
X137150551Y-118980643D01*
X137154294Y-118971628D01*
X137269841Y-119010554D01*
X138170395Y-118110000D01*
X138529605Y-118110000D01*
X139430159Y-119010554D01*
X139686643Y-118924148D01*
X139896458Y-118350664D01*
X139870839Y-117740540D01*
X139686643Y-117295852D01*
X139430159Y-117209446D01*
X138529605Y-118110000D01*
X138170395Y-118110000D01*
X137269841Y-117209446D01*
X137154786Y-117248207D01*
X137152068Y-117241629D01*
X136940650Y-117029841D01*
X137449446Y-117029841D01*
X138350000Y-117930395D01*
X139250554Y-117029841D01*
X139164148Y-116773357D01*
X138590664Y-116563542D01*
X137980540Y-116589161D01*
X137535852Y-116773357D01*
X137449446Y-117029841D01*
X136940650Y-117029841D01*
X136720643Y-116809449D01*
X136635000Y-116773887D01*
X136635000Y-113625000D01*
X136575245Y-113324594D01*
X136405079Y-113069921D01*
X135175079Y-111839921D01*
X134920407Y-111669755D01*
X134620000Y-111610000D01*
X129230158Y-111610000D01*
X127785000Y-110164842D01*
X127785000Y-104760022D01*
X129754584Y-104760022D01*
X129975353Y-105130743D01*
X130947012Y-105524119D01*
X131995247Y-105515713D01*
X132924647Y-105130743D01*
X133145416Y-104760022D01*
X138554584Y-104760022D01*
X138775353Y-105130743D01*
X139747012Y-105524119D01*
X140795247Y-105515713D01*
X141724647Y-105130743D01*
X141945416Y-104760022D01*
X140250000Y-103064605D01*
X138554584Y-104760022D01*
X133145416Y-104760022D01*
X131450000Y-103064605D01*
X129754584Y-104760022D01*
X127785000Y-104760022D01*
X127785000Y-102382012D01*
X128810881Y-102382012D01*
X128819287Y-103430247D01*
X129204257Y-104359647D01*
X129574978Y-104580416D01*
X131270395Y-102885000D01*
X131629605Y-102885000D01*
X133325022Y-104580416D01*
X133695743Y-104359647D01*
X134089119Y-103387988D01*
X134081052Y-102382012D01*
X137610881Y-102382012D01*
X137619287Y-103430247D01*
X138004257Y-104359647D01*
X138374978Y-104580416D01*
X140070395Y-102885000D01*
X140429605Y-102885000D01*
X142125022Y-104580416D01*
X142495743Y-104359647D01*
X142889119Y-103387988D01*
X142880713Y-102339753D01*
X142574298Y-101600000D01*
X143096655Y-101600000D01*
X143210729Y-102173489D01*
X143535585Y-102659670D01*
X143850366Y-102870000D01*
X143535585Y-103080330D01*
X143210729Y-103566511D01*
X143096655Y-104140000D01*
X143210729Y-104713489D01*
X143535585Y-105199670D01*
X143850366Y-105410000D01*
X143535585Y-105620330D01*
X143210729Y-106106511D01*
X143096655Y-106680000D01*
X143210729Y-107253489D01*
X143535585Y-107739670D01*
X143850366Y-107950000D01*
X143535585Y-108160330D01*
X143210729Y-108646511D01*
X143096655Y-109220000D01*
X143210729Y-109793489D01*
X143535585Y-110279670D01*
X143850366Y-110490000D01*
X143535585Y-110700330D01*
X143210729Y-111186511D01*
X143096655Y-111760000D01*
X143210729Y-112333489D01*
X143535585Y-112819670D01*
X143850366Y-113030000D01*
X143535585Y-113240330D01*
X143210729Y-113726511D01*
X143096655Y-114300000D01*
X143210729Y-114873489D01*
X143535585Y-115359670D01*
X143850366Y-115570000D01*
X143535585Y-115780330D01*
X143210729Y-116266511D01*
X143096655Y-116840000D01*
X143210729Y-117413489D01*
X143535585Y-117899670D01*
X144021766Y-118224526D01*
X144595255Y-118338600D01*
X144964745Y-118338600D01*
X145538234Y-118224526D01*
X146024415Y-117899670D01*
X146050000Y-117861379D01*
X146075585Y-117899670D01*
X146561766Y-118224526D01*
X147135255Y-118338600D01*
X147504745Y-118338600D01*
X148078234Y-118224526D01*
X148564415Y-117899670D01*
X148889271Y-117413489D01*
X149003345Y-116840000D01*
X148889271Y-116266511D01*
X148564415Y-115780330D01*
X148249634Y-115570000D01*
X148564415Y-115359670D01*
X148889271Y-114873489D01*
X149003345Y-114300000D01*
X148889271Y-113726511D01*
X148564415Y-113240330D01*
X148249634Y-113030000D01*
X148564415Y-112819670D01*
X148889271Y-112333489D01*
X149003345Y-111760000D01*
X148889271Y-111186511D01*
X148564415Y-110700330D01*
X148249634Y-110490000D01*
X148564415Y-110279670D01*
X148889271Y-109793489D01*
X149003345Y-109220000D01*
X148889271Y-108646511D01*
X148564415Y-108160330D01*
X148249634Y-107950000D01*
X148564415Y-107739670D01*
X148889271Y-107253489D01*
X149003345Y-106680000D01*
X148889271Y-106106511D01*
X148564415Y-105620330D01*
X148249634Y-105410000D01*
X148564415Y-105199670D01*
X148889271Y-104713489D01*
X149003345Y-104140000D01*
X148889271Y-103566511D01*
X148564415Y-103080330D01*
X148249634Y-102870000D01*
X148564415Y-102659670D01*
X148889271Y-102173489D01*
X149003345Y-101600000D01*
X148889271Y-101026511D01*
X148564415Y-100540330D01*
X148550087Y-100530757D01*
X148571317Y-100526762D01*
X148787441Y-100387690D01*
X148932431Y-100175490D01*
X148983440Y-99923600D01*
X148983440Y-98196400D01*
X148939162Y-97961083D01*
X148800090Y-97744959D01*
X148587890Y-97599969D01*
X148336000Y-97548960D01*
X146304000Y-97548960D01*
X146068683Y-97593238D01*
X146052901Y-97603393D01*
X146047890Y-97599969D01*
X145796000Y-97548960D01*
X143764000Y-97548960D01*
X143528683Y-97593238D01*
X143312559Y-97732310D01*
X143167569Y-97944510D01*
X143116560Y-98196400D01*
X143116560Y-99923600D01*
X143160838Y-100158917D01*
X143299910Y-100375041D01*
X143512110Y-100520031D01*
X143553439Y-100528400D01*
X143535585Y-100540330D01*
X143210729Y-101026511D01*
X143096655Y-101600000D01*
X142574298Y-101600000D01*
X142495743Y-101410353D01*
X142125022Y-101189584D01*
X140429605Y-102885000D01*
X140070395Y-102885000D01*
X138374978Y-101189584D01*
X138004257Y-101410353D01*
X137610881Y-102382012D01*
X134081052Y-102382012D01*
X134080713Y-102339753D01*
X133695743Y-101410353D01*
X133325022Y-101189584D01*
X131629605Y-102885000D01*
X131270395Y-102885000D01*
X129574978Y-101189584D01*
X129204257Y-101410353D01*
X128810881Y-102382012D01*
X127785000Y-102382012D01*
X127785000Y-101009978D01*
X129754584Y-101009978D01*
X131450000Y-102705395D01*
X133145416Y-101009978D01*
X138554584Y-101009978D01*
X140250000Y-102705395D01*
X141945416Y-101009978D01*
X141724647Y-100639257D01*
X140752988Y-100245881D01*
X139704753Y-100254287D01*
X138775353Y-100639257D01*
X138554584Y-101009978D01*
X133145416Y-101009978D01*
X132924647Y-100639257D01*
X131952988Y-100245881D01*
X130904753Y-100254287D01*
X129975353Y-100639257D01*
X129754584Y-101009978D01*
X127785000Y-101009978D01*
X127785000Y-96188991D01*
X131814735Y-96188991D01*
X132047932Y-96753371D01*
X132479357Y-97185551D01*
X133043330Y-97419733D01*
X133653991Y-97420265D01*
X134218371Y-97187068D01*
X134600288Y-96805818D01*
X134979357Y-97185551D01*
X135543330Y-97419733D01*
X136153991Y-97420265D01*
X136718371Y-97187068D01*
X136940668Y-96965159D01*
X137449446Y-96965159D01*
X137535852Y-97221643D01*
X138109336Y-97431458D01*
X138719460Y-97405839D01*
X139164148Y-97221643D01*
X139250554Y-96965159D01*
X138350000Y-96064605D01*
X137449446Y-96965159D01*
X136940668Y-96965159D01*
X137150551Y-96755643D01*
X137154294Y-96746628D01*
X137269841Y-96785554D01*
X138170395Y-95885000D01*
X138529605Y-95885000D01*
X139430159Y-96785554D01*
X139686643Y-96699148D01*
X139896458Y-96125664D01*
X139870839Y-95515540D01*
X139686643Y-95070852D01*
X139430159Y-94984446D01*
X138529605Y-95885000D01*
X138170395Y-95885000D01*
X137269841Y-94984446D01*
X137154786Y-95023207D01*
X137152068Y-95016629D01*
X136940650Y-94804841D01*
X137449446Y-94804841D01*
X138350000Y-95705395D01*
X139250554Y-94804841D01*
X139164148Y-94548357D01*
X138590664Y-94338542D01*
X137980540Y-94364161D01*
X137535852Y-94548357D01*
X137449446Y-94804841D01*
X136940650Y-94804841D01*
X136720643Y-94584449D01*
X136156670Y-94350267D01*
X135546009Y-94349735D01*
X134981629Y-94582932D01*
X134599712Y-94964182D01*
X134220643Y-94584449D01*
X134135000Y-94548887D01*
X134135000Y-93495000D01*
X143324688Y-93495000D01*
X143580222Y-93877433D01*
X144115845Y-94235325D01*
X144747655Y-94361000D01*
X144812345Y-94361000D01*
X145444155Y-94235325D01*
X145979778Y-93877433D01*
X146050000Y-93772338D01*
X146120222Y-93877433D01*
X146655845Y-94235325D01*
X147287655Y-94361000D01*
X147352345Y-94361000D01*
X147984155Y-94235325D01*
X148519778Y-93877433D01*
X148877670Y-93341810D01*
X149003345Y-92710000D01*
X148877670Y-92078190D01*
X148653034Y-91741999D01*
X148695698Y-91724327D01*
X148874327Y-91545699D01*
X148971000Y-91312310D01*
X148971000Y-90455750D01*
X148812250Y-90297000D01*
X147447000Y-90297000D01*
X147447000Y-90317000D01*
X147193000Y-90317000D01*
X147193000Y-90297000D01*
X144907000Y-90297000D01*
X144907000Y-90317000D01*
X144653000Y-90317000D01*
X144653000Y-90297000D01*
X143287750Y-90297000D01*
X143129000Y-90455750D01*
X143129000Y-91312310D01*
X143225673Y-91545699D01*
X143404302Y-91724327D01*
X143446966Y-91741999D01*
X143324688Y-91925000D01*
X133887506Y-91925000D01*
X133880327Y-91917808D01*
X133536799Y-91775162D01*
X133164833Y-91774838D01*
X132821057Y-91916883D01*
X132557808Y-92179673D01*
X132415162Y-92523201D01*
X132414838Y-92895167D01*
X132556883Y-93238943D01*
X132565000Y-93247074D01*
X132565000Y-94548484D01*
X132481629Y-94582932D01*
X132049449Y-95014357D01*
X131815267Y-95578330D01*
X131814735Y-96188991D01*
X127785000Y-96188991D01*
X127785000Y-89027690D01*
X143129000Y-89027690D01*
X143129000Y-89884250D01*
X143287750Y-90043000D01*
X144653000Y-90043000D01*
X144653000Y-88677750D01*
X144907000Y-88677750D01*
X144907000Y-90043000D01*
X147193000Y-90043000D01*
X147193000Y-88677750D01*
X147447000Y-88677750D01*
X147447000Y-90043000D01*
X148812250Y-90043000D01*
X148971000Y-89884250D01*
X148971000Y-89027690D01*
X148874327Y-88794301D01*
X148695698Y-88615673D01*
X148462309Y-88519000D01*
X147605750Y-88519000D01*
X147447000Y-88677750D01*
X147193000Y-88677750D01*
X147034250Y-88519000D01*
X146177691Y-88519000D01*
X146050000Y-88571891D01*
X145922309Y-88519000D01*
X145065750Y-88519000D01*
X144907000Y-88677750D01*
X144653000Y-88677750D01*
X144494250Y-88519000D01*
X143637691Y-88519000D01*
X143404302Y-88615673D01*
X143225673Y-88794301D01*
X143129000Y-89027690D01*
X127785000Y-89027690D01*
X127785000Y-82535022D01*
X129754584Y-82535022D01*
X129975353Y-82905743D01*
X130947012Y-83299119D01*
X131995247Y-83290713D01*
X132924647Y-82905743D01*
X133145416Y-82535022D01*
X138554584Y-82535022D01*
X138775353Y-82905743D01*
X139747012Y-83299119D01*
X140795247Y-83290713D01*
X141724647Y-82905743D01*
X141945416Y-82535022D01*
X140250000Y-80839605D01*
X138554584Y-82535022D01*
X133145416Y-82535022D01*
X131450000Y-80839605D01*
X129754584Y-82535022D01*
X127785000Y-82535022D01*
X127785000Y-80157012D01*
X128810881Y-80157012D01*
X128819287Y-81205247D01*
X129204257Y-82134647D01*
X129574978Y-82355416D01*
X131270395Y-80660000D01*
X131629605Y-80660000D01*
X133325022Y-82355416D01*
X133695743Y-82134647D01*
X134089119Y-81162988D01*
X134081052Y-80157012D01*
X137610881Y-80157012D01*
X137619287Y-81205247D01*
X138004257Y-82134647D01*
X138374978Y-82355416D01*
X140070395Y-80660000D01*
X138374978Y-78964584D01*
X138004257Y-79185353D01*
X137610881Y-80157012D01*
X134081052Y-80157012D01*
X134080713Y-80114753D01*
X133695743Y-79185353D01*
X133325022Y-78964584D01*
X131629605Y-80660000D01*
X131270395Y-80660000D01*
X129574978Y-78964584D01*
X129204257Y-79185353D01*
X128810881Y-80157012D01*
X127785000Y-80157012D01*
X127785000Y-78784978D01*
X129754584Y-78784978D01*
X131450000Y-80480395D01*
X133145416Y-78784978D01*
X138554584Y-78784978D01*
X140250000Y-80480395D01*
X141945416Y-78784978D01*
X141724647Y-78414257D01*
X140752988Y-78020881D01*
X139704753Y-78029287D01*
X138775353Y-78414257D01*
X138554584Y-78784978D01*
X133145416Y-78784978D01*
X132924647Y-78414257D01*
X131952988Y-78020881D01*
X130904753Y-78029287D01*
X129975353Y-78414257D01*
X129754584Y-78784978D01*
X127785000Y-78784978D01*
X127785000Y-74620158D01*
X128595158Y-73810000D01*
X131814869Y-73810000D01*
X131814735Y-73963991D01*
X132047932Y-74528371D01*
X132479357Y-74960551D01*
X133043330Y-75194733D01*
X133653991Y-75195265D01*
X134218371Y-74962068D01*
X134600288Y-74580818D01*
X134979357Y-74960551D01*
X135543330Y-75194733D01*
X136153991Y-75195265D01*
X136718371Y-74962068D01*
X136940668Y-74740159D01*
X137449446Y-74740159D01*
X137535852Y-74996643D01*
X138109336Y-75206458D01*
X138719460Y-75180839D01*
X139164148Y-74996643D01*
X139250554Y-74740159D01*
X138350000Y-73839605D01*
X137449446Y-74740159D01*
X136940668Y-74740159D01*
X137150551Y-74530643D01*
X137154294Y-74521628D01*
X137269841Y-74560554D01*
X138170395Y-73660000D01*
X138156253Y-73645858D01*
X138335858Y-73466253D01*
X138350000Y-73480395D01*
X138364143Y-73466253D01*
X138543748Y-73645858D01*
X138529605Y-73660000D01*
X139430159Y-74560554D01*
X139686643Y-74474148D01*
X139896458Y-73900664D01*
X139870839Y-73290540D01*
X139686643Y-72845852D01*
X139430161Y-72759447D01*
X139438316Y-72751292D01*
X139700000Y-72803345D01*
X140178089Y-72708247D01*
X141049921Y-73580079D01*
X141304594Y-73750245D01*
X141605000Y-73810000D01*
X143184842Y-73810000D01*
X143446694Y-74071852D01*
X143446269Y-74559086D01*
X143648854Y-75049380D01*
X144023647Y-75424827D01*
X144345118Y-75558314D01*
X144087071Y-75665200D01*
X144025417Y-75900812D01*
X144780000Y-76655395D01*
X145534583Y-75900812D01*
X145472929Y-75665200D01*
X145193688Y-75566917D01*
X145534380Y-75426146D01*
X145881130Y-75080000D01*
X146800875Y-75080000D01*
X146710585Y-75140330D01*
X146385729Y-75626511D01*
X146287003Y-76122839D01*
X146042931Y-76366911D01*
X145949800Y-76142071D01*
X145714188Y-76080417D01*
X144959605Y-76835000D01*
X144973748Y-76849143D01*
X144794143Y-77028748D01*
X144780000Y-77014605D01*
X144765858Y-77028748D01*
X144586253Y-76849143D01*
X144600395Y-76835000D01*
X143845812Y-76080417D01*
X143610200Y-76142071D01*
X143434073Y-76642480D01*
X143462730Y-77169958D01*
X143324833Y-77169838D01*
X142981057Y-77311883D01*
X142717808Y-77574673D01*
X142575162Y-77918201D01*
X142574838Y-78290167D01*
X142716883Y-78633943D01*
X142725000Y-78642074D01*
X142725000Y-79738828D01*
X142495743Y-79185353D01*
X142125022Y-78964584D01*
X140429605Y-80660000D01*
X142125022Y-82355416D01*
X142495743Y-82134647D01*
X142763463Y-81473365D01*
X142784755Y-81580407D01*
X142954921Y-81835079D01*
X143589921Y-82470079D01*
X143844594Y-82640245D01*
X144145000Y-82700001D01*
X144145005Y-82700000D01*
X144314421Y-82700000D01*
X144658647Y-83044827D01*
X144996446Y-83185094D01*
X144660620Y-83323854D01*
X144285173Y-83698647D01*
X144081732Y-84188587D01*
X144081269Y-84719086D01*
X144283854Y-85209380D01*
X144658647Y-85584827D01*
X145148587Y-85788268D01*
X145679086Y-85788731D01*
X146169380Y-85586146D01*
X146366681Y-85389188D01*
X147200417Y-85389188D01*
X147262071Y-85624800D01*
X147762480Y-85800927D01*
X148292199Y-85772148D01*
X148647929Y-85624800D01*
X148709583Y-85389188D01*
X147955000Y-84634605D01*
X147200417Y-85389188D01*
X146366681Y-85389188D01*
X146544827Y-85211353D01*
X146678314Y-84889882D01*
X146785200Y-85147929D01*
X147020812Y-85209583D01*
X147775395Y-84455000D01*
X147761253Y-84440858D01*
X147940858Y-84261253D01*
X147955000Y-84275395D01*
X148709583Y-83520812D01*
X148647929Y-83285200D01*
X148386371Y-83193141D01*
X148647929Y-83084800D01*
X148709583Y-82849188D01*
X147955000Y-82094605D01*
X147940858Y-82108748D01*
X147761253Y-81929143D01*
X147775395Y-81915000D01*
X147761253Y-81900858D01*
X147940858Y-81721253D01*
X147955000Y-81735395D01*
X148709583Y-80980812D01*
X148647929Y-80745200D01*
X148147520Y-80569073D01*
X147617801Y-80597852D01*
X147470000Y-80659073D01*
X147470000Y-80335158D01*
X147554118Y-80251040D01*
X148971000Y-80251040D01*
X149150000Y-80217359D01*
X149150000Y-81282909D01*
X149124800Y-81222071D01*
X148889188Y-81160417D01*
X148134605Y-81915000D01*
X148889188Y-82669583D01*
X149124800Y-82607929D01*
X149150000Y-82536331D01*
X149150000Y-83822909D01*
X149124800Y-83762071D01*
X148889188Y-83700417D01*
X148134605Y-84455000D01*
X148889188Y-85209583D01*
X149124800Y-85147929D01*
X149150000Y-85076331D01*
X149150000Y-118364286D01*
X147139750Y-118364286D01*
X147139750Y-134599592D01*
X146244805Y-133704647D01*
X146278600Y-133534745D01*
X146278600Y-133165255D01*
X146164526Y-132591766D01*
X145839670Y-132105585D01*
X145353489Y-131780729D01*
X144780000Y-131666655D01*
X144206511Y-131780729D01*
X143720330Y-132105585D01*
X143510000Y-132420366D01*
X143299670Y-132105585D01*
X142813489Y-131780729D01*
X142240000Y-131666655D01*
X141666511Y-131780729D01*
X141180330Y-132105585D01*
X140970000Y-132420366D01*
X140759670Y-132105585D01*
X140273489Y-131780729D01*
X139700000Y-131666655D01*
X139126511Y-131780729D01*
X138640330Y-132105585D01*
X138430000Y-132420366D01*
X138219670Y-132105585D01*
X137733489Y-131780729D01*
X137160000Y-131666655D01*
X136586511Y-131780729D01*
X136100330Y-132105585D01*
X135890000Y-132420366D01*
X135679670Y-132105585D01*
X135193489Y-131780729D01*
X134620000Y-131666655D01*
X134046511Y-131780729D01*
X133560330Y-132105585D01*
X133350000Y-132420366D01*
X133139670Y-132105585D01*
X132653489Y-131780729D01*
X132080000Y-131666655D01*
X131506511Y-131780729D01*
X131020330Y-132105585D01*
X130810000Y-132420366D01*
X130599670Y-132105585D01*
X130113489Y-131780729D01*
X129540000Y-131666655D01*
X128966511Y-131780729D01*
X128480330Y-132105585D01*
X128470757Y-132119913D01*
X128466762Y-132098683D01*
X128327690Y-131882559D01*
X128115490Y-131737569D01*
X127863600Y-131686560D01*
X126136400Y-131686560D01*
X125901083Y-131730838D01*
X125684959Y-131869910D01*
X125539969Y-132082110D01*
X125488960Y-132334000D01*
X125488960Y-134366000D01*
X125533238Y-134601317D01*
X125672310Y-134817441D01*
X125884510Y-134962431D01*
X126136400Y-135013440D01*
X127553282Y-135013440D01*
X128755000Y-136215158D01*
X128755000Y-136766560D01*
X128676400Y-136766560D01*
X128441083Y-136810838D01*
X128224959Y-136949910D01*
X128089802Y-137147720D01*
X128002168Y-136936154D01*
X127628121Y-136711484D01*
X125909605Y-138430000D01*
X125923748Y-138444143D01*
X125744143Y-138623748D01*
X125730000Y-138609605D01*
X125715858Y-138623748D01*
X125536253Y-138444143D01*
X125550395Y-138430000D01*
X125536253Y-138415858D01*
X125715858Y-138236253D01*
X125730000Y-138250395D01*
X127448516Y-136531879D01*
X127223846Y-136157832D01*
X126240612Y-135759120D01*
X125179643Y-135767025D01*
X124236154Y-136157832D01*
X124011485Y-136531877D01*
X123900000Y-136420392D01*
X123900000Y-126985022D01*
X129754584Y-126985022D01*
X129975353Y-127355743D01*
X130947012Y-127749119D01*
X131995247Y-127740713D01*
X132924647Y-127355743D01*
X133145416Y-126985022D01*
X138554584Y-126985022D01*
X138775353Y-127355743D01*
X139747012Y-127749119D01*
X140795247Y-127740713D01*
X141724647Y-127355743D01*
X141945416Y-126985022D01*
X140250000Y-125289605D01*
X138554584Y-126985022D01*
X133145416Y-126985022D01*
X131450000Y-125289605D01*
X129754584Y-126985022D01*
X123900000Y-126985022D01*
X123900000Y-124607012D01*
X128810881Y-124607012D01*
X128819287Y-125655247D01*
X129204257Y-126584647D01*
X129574978Y-126805416D01*
X131270395Y-125110000D01*
X131629605Y-125110000D01*
X133325022Y-126805416D01*
X133695743Y-126584647D01*
X134089119Y-125612988D01*
X134081052Y-124607012D01*
X137610881Y-124607012D01*
X137619287Y-125655247D01*
X138004257Y-126584647D01*
X138374978Y-126805416D01*
X140070395Y-125110000D01*
X140429605Y-125110000D01*
X142125022Y-126805416D01*
X142495743Y-126584647D01*
X142889119Y-125612988D01*
X142880713Y-124564753D01*
X142495743Y-123635353D01*
X142125022Y-123414584D01*
X140429605Y-125110000D01*
X140070395Y-125110000D01*
X138374978Y-123414584D01*
X138004257Y-123635353D01*
X137610881Y-124607012D01*
X134081052Y-124607012D01*
X134080713Y-124564753D01*
X133695743Y-123635353D01*
X133325022Y-123414584D01*
X131629605Y-125110000D01*
X131270395Y-125110000D01*
X129574978Y-123414584D01*
X129204257Y-123635353D01*
X128810881Y-124607012D01*
X123900000Y-124607012D01*
X123900000Y-123234978D01*
X129754584Y-123234978D01*
X131450000Y-124930395D01*
X133145416Y-123234978D01*
X138554584Y-123234978D01*
X140250000Y-124930395D01*
X141945416Y-123234978D01*
X141724647Y-122864257D01*
X140752988Y-122470881D01*
X139704753Y-122479287D01*
X138775353Y-122864257D01*
X138554584Y-123234978D01*
X133145416Y-123234978D01*
X132924647Y-122864257D01*
X131952988Y-122470881D01*
X130904753Y-122479287D01*
X129975353Y-122864257D01*
X129754584Y-123234978D01*
X123900000Y-123234978D01*
X123900000Y-50875000D01*
X131920459Y-50875000D01*
X131815267Y-51128330D01*
X131815267Y-51128330D01*
G37*
X131815267Y-51128330D02*
X131814735Y-51738991D01*
X132047932Y-52303371D01*
X132479357Y-52735551D01*
X133043330Y-52969733D01*
X133653991Y-52970265D01*
X134218371Y-52737068D01*
X134600288Y-52355818D01*
X134979357Y-52735551D01*
X135543330Y-52969733D01*
X136153991Y-52970265D01*
X136718371Y-52737068D01*
X136940668Y-52515159D01*
X137449446Y-52515159D01*
X137535852Y-52771643D01*
X138109336Y-52981458D01*
X138719460Y-52955839D01*
X139164148Y-52771643D01*
X139250554Y-52515159D01*
X138350000Y-51614605D01*
X137449446Y-52515159D01*
X136940668Y-52515159D01*
X137150551Y-52305643D01*
X137154294Y-52296628D01*
X137269841Y-52335554D01*
X138170395Y-51435000D01*
X138156253Y-51420858D01*
X138335858Y-51241253D01*
X138350000Y-51255395D01*
X138364143Y-51241253D01*
X138543748Y-51420858D01*
X138529605Y-51435000D01*
X139430159Y-52335554D01*
X139686643Y-52249148D01*
X139896458Y-51675664D01*
X139870839Y-51065540D01*
X139791915Y-50875000D01*
X149150000Y-50875000D01*
X149150000Y-70027312D01*
X148713234Y-69735474D01*
X148139745Y-69621400D01*
X147770255Y-69621400D01*
X147600353Y-69655195D01*
X146605079Y-68659921D01*
X146350407Y-68489755D01*
X146050000Y-68430000D01*
X145989375Y-68430000D01*
X146273846Y-68312168D01*
X146498516Y-67938121D01*
X144780000Y-66219605D01*
X144765858Y-66233748D01*
X144586253Y-66054143D01*
X144600395Y-66040000D01*
X144959605Y-66040000D01*
X146678121Y-67758516D01*
X147052168Y-67533846D01*
X147450880Y-66550612D01*
X147442975Y-65489643D01*
X147052168Y-64546154D01*
X146678121Y-64321484D01*
X144959605Y-66040000D01*
X144600395Y-66040000D01*
X142881879Y-64321484D01*
X142507832Y-64546154D01*
X142109120Y-65529388D01*
X142113170Y-66073012D01*
X141525079Y-65484921D01*
X141270407Y-65314755D01*
X140970000Y-65255000D01*
X137795005Y-65255000D01*
X137795000Y-65254999D01*
X137494594Y-65314755D01*
X137239921Y-65484921D01*
X136604921Y-66119921D01*
X136434755Y-66374593D01*
X136391837Y-66590357D01*
X136375000Y-66675000D01*
X136375000Y-66844421D01*
X136030173Y-67188647D01*
X135826732Y-67678587D01*
X135826269Y-68209086D01*
X136028854Y-68699380D01*
X136375000Y-69046130D01*
X136375000Y-69304842D01*
X135175079Y-68104921D01*
X134920407Y-67934755D01*
X134620000Y-67875000D01*
X130890000Y-67875000D01*
X130589593Y-67934755D01*
X130334921Y-68104921D01*
X129144921Y-69294921D01*
X128975143Y-69549012D01*
X128966511Y-69550729D01*
X128480330Y-69875585D01*
X128470757Y-69889913D01*
X128466762Y-69868683D01*
X128327690Y-69652559D01*
X128115490Y-69507569D01*
X127863600Y-69456560D01*
X127785000Y-69456560D01*
X127785000Y-64141879D01*
X143061484Y-64141879D01*
X144780000Y-65860395D01*
X146498516Y-64141879D01*
X146273846Y-63767832D01*
X145290612Y-63369120D01*
X144229643Y-63377025D01*
X143286154Y-63767832D01*
X143061484Y-64141879D01*
X127785000Y-64141879D01*
X127785000Y-60310022D01*
X129754584Y-60310022D01*
X129975353Y-60680743D01*
X130947012Y-61074119D01*
X131995247Y-61065713D01*
X132924647Y-60680743D01*
X133145416Y-60310022D01*
X138554584Y-60310022D01*
X138775353Y-60680743D01*
X139747012Y-61074119D01*
X140795247Y-61065713D01*
X141724647Y-60680743D01*
X141945416Y-60310022D01*
X140250000Y-58614605D01*
X138554584Y-60310022D01*
X133145416Y-60310022D01*
X131450000Y-58614605D01*
X129754584Y-60310022D01*
X127785000Y-60310022D01*
X127785000Y-57932012D01*
X128810881Y-57932012D01*
X128819287Y-58980247D01*
X129204257Y-59909647D01*
X129574978Y-60130416D01*
X131270395Y-58435000D01*
X131629605Y-58435000D01*
X133325022Y-60130416D01*
X133695743Y-59909647D01*
X134089119Y-58937988D01*
X134081052Y-57932012D01*
X137610881Y-57932012D01*
X137619287Y-58980247D01*
X138004257Y-59909647D01*
X138374978Y-60130416D01*
X140070395Y-58435000D01*
X140429605Y-58435000D01*
X142125022Y-60130416D01*
X142495743Y-59909647D01*
X142889119Y-58937988D01*
X142880713Y-57889753D01*
X142495743Y-56960353D01*
X142125022Y-56739584D01*
X140429605Y-58435000D01*
X140070395Y-58435000D01*
X138374978Y-56739584D01*
X138004257Y-56960353D01*
X137610881Y-57932012D01*
X134081052Y-57932012D01*
X134080713Y-57889753D01*
X133695743Y-56960353D01*
X133325022Y-56739584D01*
X131629605Y-58435000D01*
X131270395Y-58435000D01*
X129574978Y-56739584D01*
X129204257Y-56960353D01*
X128810881Y-57932012D01*
X127785000Y-57932012D01*
X127785000Y-56559978D01*
X129754584Y-56559978D01*
X131450000Y-58255395D01*
X133145416Y-56559978D01*
X138554584Y-56559978D01*
X140250000Y-58255395D01*
X141945416Y-56559978D01*
X141724647Y-56189257D01*
X140752988Y-55795881D01*
X139704753Y-55804287D01*
X138775353Y-56189257D01*
X138554584Y-56559978D01*
X133145416Y-56559978D01*
X132924647Y-56189257D01*
X131952988Y-55795881D01*
X130904753Y-55804287D01*
X129975353Y-56189257D01*
X129754584Y-56559978D01*
X127785000Y-56559978D01*
X127785000Y-55570158D01*
X128445005Y-54910153D01*
X128455167Y-54910162D01*
X128798943Y-54768117D01*
X129062192Y-54505327D01*
X129204838Y-54161799D01*
X129205162Y-53789833D01*
X129063117Y-53446057D01*
X128800327Y-53182808D01*
X128456799Y-53040162D01*
X128084833Y-53039838D01*
X127741057Y-53181883D01*
X127477808Y-53444673D01*
X127335162Y-53788201D01*
X127335152Y-53799690D01*
X126444921Y-54689921D01*
X126274755Y-54944593D01*
X126274755Y-54944594D01*
X126215000Y-55245000D01*
X126215000Y-69456560D01*
X126136400Y-69456560D01*
X125901083Y-69500838D01*
X125684959Y-69639910D01*
X125539969Y-69852110D01*
X125488960Y-70104000D01*
X125488960Y-72136000D01*
X125533238Y-72371317D01*
X125672310Y-72587441D01*
X125884510Y-72732431D01*
X126136400Y-72783440D01*
X127401402Y-72783440D01*
X126444921Y-73739921D01*
X126274755Y-73994593D01*
X126267530Y-74030914D01*
X126215000Y-74295000D01*
X126215000Y-110490000D01*
X126274755Y-110790407D01*
X126444921Y-111045079D01*
X128349921Y-112950079D01*
X128604594Y-113120245D01*
X128905000Y-113180000D01*
X134294842Y-113180000D01*
X135065000Y-113950158D01*
X135065000Y-116773484D01*
X134981629Y-116807932D01*
X134599712Y-117189182D01*
X134220643Y-116809449D01*
X133656670Y-116575267D01*
X133046009Y-116574735D01*
X132481629Y-116807932D01*
X132049449Y-117239357D01*
X131815267Y-117803330D01*
X131814735Y-118413991D01*
X132047932Y-118978371D01*
X132479357Y-119410551D01*
X133043330Y-119644733D01*
X133653991Y-119645265D01*
X134218371Y-119412068D01*
X134600288Y-119030818D01*
X134979357Y-119410551D01*
X135543330Y-119644733D01*
X136153991Y-119645265D01*
X136718371Y-119412068D01*
X136940668Y-119190159D01*
X137449446Y-119190159D01*
X137535852Y-119446643D01*
X138109336Y-119656458D01*
X138719460Y-119630839D01*
X139164148Y-119446643D01*
X139250554Y-119190159D01*
X138350000Y-118289605D01*
X137449446Y-119190159D01*
X136940668Y-119190159D01*
X137150551Y-118980643D01*
X137154294Y-118971628D01*
X137269841Y-119010554D01*
X138170395Y-118110000D01*
X138529605Y-118110000D01*
X139430159Y-119010554D01*
X139686643Y-118924148D01*
X139896458Y-118350664D01*
X139870839Y-117740540D01*
X139686643Y-117295852D01*
X139430159Y-117209446D01*
X138529605Y-118110000D01*
X138170395Y-118110000D01*
X137269841Y-117209446D01*
X137154786Y-117248207D01*
X137152068Y-117241629D01*
X136940650Y-117029841D01*
X137449446Y-117029841D01*
X138350000Y-117930395D01*
X139250554Y-117029841D01*
X139164148Y-116773357D01*
X138590664Y-116563542D01*
X137980540Y-116589161D01*
X137535852Y-116773357D01*
X137449446Y-117029841D01*
X136940650Y-117029841D01*
X136720643Y-116809449D01*
X136635000Y-116773887D01*
X136635000Y-113625000D01*
X136575245Y-113324594D01*
X136405079Y-113069921D01*
X135175079Y-111839921D01*
X134920407Y-111669755D01*
X134620000Y-111610000D01*
X129230158Y-111610000D01*
X127785000Y-110164842D01*
X127785000Y-104760022D01*
X129754584Y-104760022D01*
X129975353Y-105130743D01*
X130947012Y-105524119D01*
X131995247Y-105515713D01*
X132924647Y-105130743D01*
X133145416Y-104760022D01*
X138554584Y-104760022D01*
X138775353Y-105130743D01*
X139747012Y-105524119D01*
X140795247Y-105515713D01*
X141724647Y-105130743D01*
X141945416Y-104760022D01*
X140250000Y-103064605D01*
X138554584Y-104760022D01*
X133145416Y-104760022D01*
X131450000Y-103064605D01*
X129754584Y-104760022D01*
X127785000Y-104760022D01*
X127785000Y-102382012D01*
X128810881Y-102382012D01*
X128819287Y-103430247D01*
X129204257Y-104359647D01*
X129574978Y-104580416D01*
X131270395Y-102885000D01*
X131629605Y-102885000D01*
X133325022Y-104580416D01*
X133695743Y-104359647D01*
X134089119Y-103387988D01*
X134081052Y-102382012D01*
X137610881Y-102382012D01*
X137619287Y-103430247D01*
X138004257Y-104359647D01*
X138374978Y-104580416D01*
X140070395Y-102885000D01*
X140429605Y-102885000D01*
X142125022Y-104580416D01*
X142495743Y-104359647D01*
X142889119Y-103387988D01*
X142880713Y-102339753D01*
X142574298Y-101600000D01*
X143096655Y-101600000D01*
X143210729Y-102173489D01*
X143535585Y-102659670D01*
X143850366Y-102870000D01*
X143535585Y-103080330D01*
X143210729Y-103566511D01*
X143096655Y-104140000D01*
X143210729Y-104713489D01*
X143535585Y-105199670D01*
X143850366Y-105410000D01*
X143535585Y-105620330D01*
X143210729Y-106106511D01*
X143096655Y-106680000D01*
X143210729Y-107253489D01*
X143535585Y-107739670D01*
X143850366Y-107950000D01*
X143535585Y-108160330D01*
X143210729Y-108646511D01*
X143096655Y-109220000D01*
X143210729Y-109793489D01*
X143535585Y-110279670D01*
X143850366Y-110490000D01*
X143535585Y-110700330D01*
X143210729Y-111186511D01*
X143096655Y-111760000D01*
X143210729Y-112333489D01*
X143535585Y-112819670D01*
X143850366Y-113030000D01*
X143535585Y-113240330D01*
X143210729Y-113726511D01*
X143096655Y-114300000D01*
X143210729Y-114873489D01*
X143535585Y-115359670D01*
X143850366Y-115570000D01*
X143535585Y-115780330D01*
X143210729Y-116266511D01*
X143096655Y-116840000D01*
X143210729Y-117413489D01*
X143535585Y-117899670D01*
X144021766Y-118224526D01*
X144595255Y-118338600D01*
X144964745Y-118338600D01*
X145538234Y-118224526D01*
X146024415Y-117899670D01*
X146050000Y-117861379D01*
X146075585Y-117899670D01*
X146561766Y-118224526D01*
X147135255Y-118338600D01*
X147504745Y-118338600D01*
X148078234Y-118224526D01*
X148564415Y-117899670D01*
X148889271Y-117413489D01*
X149003345Y-116840000D01*
X148889271Y-116266511D01*
X148564415Y-115780330D01*
X148249634Y-115570000D01*
X148564415Y-115359670D01*
X148889271Y-114873489D01*
X149003345Y-114300000D01*
X148889271Y-113726511D01*
X148564415Y-113240330D01*
X148249634Y-113030000D01*
X148564415Y-112819670D01*
X148889271Y-112333489D01*
X149003345Y-111760000D01*
X148889271Y-111186511D01*
X148564415Y-110700330D01*
X148249634Y-110490000D01*
X148564415Y-110279670D01*
X148889271Y-109793489D01*
X149003345Y-109220000D01*
X148889271Y-108646511D01*
X148564415Y-108160330D01*
X148249634Y-107950000D01*
X148564415Y-107739670D01*
X148889271Y-107253489D01*
X149003345Y-106680000D01*
X148889271Y-106106511D01*
X148564415Y-105620330D01*
X148249634Y-105410000D01*
X148564415Y-105199670D01*
X148889271Y-104713489D01*
X149003345Y-104140000D01*
X148889271Y-103566511D01*
X148564415Y-103080330D01*
X148249634Y-102870000D01*
X148564415Y-102659670D01*
X148889271Y-102173489D01*
X149003345Y-101600000D01*
X148889271Y-101026511D01*
X148564415Y-100540330D01*
X148550087Y-100530757D01*
X148571317Y-100526762D01*
X148787441Y-100387690D01*
X148932431Y-100175490D01*
X148983440Y-99923600D01*
X148983440Y-98196400D01*
X148939162Y-97961083D01*
X148800090Y-97744959D01*
X148587890Y-97599969D01*
X148336000Y-97548960D01*
X146304000Y-97548960D01*
X146068683Y-97593238D01*
X146052901Y-97603393D01*
X146047890Y-97599969D01*
X145796000Y-97548960D01*
X143764000Y-97548960D01*
X143528683Y-97593238D01*
X143312559Y-97732310D01*
X143167569Y-97944510D01*
X143116560Y-98196400D01*
X143116560Y-99923600D01*
X143160838Y-100158917D01*
X143299910Y-100375041D01*
X143512110Y-100520031D01*
X143553439Y-100528400D01*
X143535585Y-100540330D01*
X143210729Y-101026511D01*
X143096655Y-101600000D01*
X142574298Y-101600000D01*
X142495743Y-101410353D01*
X142125022Y-101189584D01*
X140429605Y-102885000D01*
X140070395Y-102885000D01*
X138374978Y-101189584D01*
X138004257Y-101410353D01*
X137610881Y-102382012D01*
X134081052Y-102382012D01*
X134080713Y-102339753D01*
X133695743Y-101410353D01*
X133325022Y-101189584D01*
X131629605Y-102885000D01*
X131270395Y-102885000D01*
X129574978Y-101189584D01*
X129204257Y-101410353D01*
X128810881Y-102382012D01*
X127785000Y-102382012D01*
X127785000Y-101009978D01*
X129754584Y-101009978D01*
X131450000Y-102705395D01*
X133145416Y-101009978D01*
X138554584Y-101009978D01*
X140250000Y-102705395D01*
X141945416Y-101009978D01*
X141724647Y-100639257D01*
X140752988Y-100245881D01*
X139704753Y-100254287D01*
X138775353Y-100639257D01*
X138554584Y-101009978D01*
X133145416Y-101009978D01*
X132924647Y-100639257D01*
X131952988Y-100245881D01*
X130904753Y-100254287D01*
X129975353Y-100639257D01*
X129754584Y-101009978D01*
X127785000Y-101009978D01*
X127785000Y-96188991D01*
X131814735Y-96188991D01*
X132047932Y-96753371D01*
X132479357Y-97185551D01*
X133043330Y-97419733D01*
X133653991Y-97420265D01*
X134218371Y-97187068D01*
X134600288Y-96805818D01*
X134979357Y-97185551D01*
X135543330Y-97419733D01*
X136153991Y-97420265D01*
X136718371Y-97187068D01*
X136940668Y-96965159D01*
X137449446Y-96965159D01*
X137535852Y-97221643D01*
X138109336Y-97431458D01*
X138719460Y-97405839D01*
X139164148Y-97221643D01*
X139250554Y-96965159D01*
X138350000Y-96064605D01*
X137449446Y-96965159D01*
X136940668Y-96965159D01*
X137150551Y-96755643D01*
X137154294Y-96746628D01*
X137269841Y-96785554D01*
X138170395Y-95885000D01*
X138529605Y-95885000D01*
X139430159Y-96785554D01*
X139686643Y-96699148D01*
X139896458Y-96125664D01*
X139870839Y-95515540D01*
X139686643Y-95070852D01*
X139430159Y-94984446D01*
X138529605Y-95885000D01*
X138170395Y-95885000D01*
X137269841Y-94984446D01*
X137154786Y-95023207D01*
X137152068Y-95016629D01*
X136940650Y-94804841D01*
X137449446Y-94804841D01*
X138350000Y-95705395D01*
X139250554Y-94804841D01*
X139164148Y-94548357D01*
X138590664Y-94338542D01*
X137980540Y-94364161D01*
X137535852Y-94548357D01*
X137449446Y-94804841D01*
X136940650Y-94804841D01*
X136720643Y-94584449D01*
X136156670Y-94350267D01*
X135546009Y-94349735D01*
X134981629Y-94582932D01*
X134599712Y-94964182D01*
X134220643Y-94584449D01*
X134135000Y-94548887D01*
X134135000Y-93495000D01*
X143324688Y-93495000D01*
X143580222Y-93877433D01*
X144115845Y-94235325D01*
X144747655Y-94361000D01*
X144812345Y-94361000D01*
X145444155Y-94235325D01*
X145979778Y-93877433D01*
X146050000Y-93772338D01*
X146120222Y-93877433D01*
X146655845Y-94235325D01*
X147287655Y-94361000D01*
X147352345Y-94361000D01*
X147984155Y-94235325D01*
X148519778Y-93877433D01*
X148877670Y-93341810D01*
X149003345Y-92710000D01*
X148877670Y-92078190D01*
X148653034Y-91741999D01*
X148695698Y-91724327D01*
X148874327Y-91545699D01*
X148971000Y-91312310D01*
X148971000Y-90455750D01*
X148812250Y-90297000D01*
X147447000Y-90297000D01*
X147447000Y-90317000D01*
X147193000Y-90317000D01*
X147193000Y-90297000D01*
X144907000Y-90297000D01*
X144907000Y-90317000D01*
X144653000Y-90317000D01*
X144653000Y-90297000D01*
X143287750Y-90297000D01*
X143129000Y-90455750D01*
X143129000Y-91312310D01*
X143225673Y-91545699D01*
X143404302Y-91724327D01*
X143446966Y-91741999D01*
X143324688Y-91925000D01*
X133887506Y-91925000D01*
X133880327Y-91917808D01*
X133536799Y-91775162D01*
X133164833Y-91774838D01*
X132821057Y-91916883D01*
X132557808Y-92179673D01*
X132415162Y-92523201D01*
X132414838Y-92895167D01*
X132556883Y-93238943D01*
X132565000Y-93247074D01*
X132565000Y-94548484D01*
X132481629Y-94582932D01*
X132049449Y-95014357D01*
X131815267Y-95578330D01*
X131814735Y-96188991D01*
X127785000Y-96188991D01*
X127785000Y-89027690D01*
X143129000Y-89027690D01*
X143129000Y-89884250D01*
X143287750Y-90043000D01*
X144653000Y-90043000D01*
X144653000Y-88677750D01*
X144907000Y-88677750D01*
X144907000Y-90043000D01*
X147193000Y-90043000D01*
X147193000Y-88677750D01*
X147447000Y-88677750D01*
X147447000Y-90043000D01*
X148812250Y-90043000D01*
X148971000Y-89884250D01*
X148971000Y-89027690D01*
X148874327Y-88794301D01*
X148695698Y-88615673D01*
X148462309Y-88519000D01*
X147605750Y-88519000D01*
X147447000Y-88677750D01*
X147193000Y-88677750D01*
X147034250Y-88519000D01*
X146177691Y-88519000D01*
X146050000Y-88571891D01*
X145922309Y-88519000D01*
X145065750Y-88519000D01*
X144907000Y-88677750D01*
X144653000Y-88677750D01*
X144494250Y-88519000D01*
X143637691Y-88519000D01*
X143404302Y-88615673D01*
X143225673Y-88794301D01*
X143129000Y-89027690D01*
X127785000Y-89027690D01*
X127785000Y-82535022D01*
X129754584Y-82535022D01*
X129975353Y-82905743D01*
X130947012Y-83299119D01*
X131995247Y-83290713D01*
X132924647Y-82905743D01*
X133145416Y-82535022D01*
X138554584Y-82535022D01*
X138775353Y-82905743D01*
X139747012Y-83299119D01*
X140795247Y-83290713D01*
X141724647Y-82905743D01*
X141945416Y-82535022D01*
X140250000Y-80839605D01*
X138554584Y-82535022D01*
X133145416Y-82535022D01*
X131450000Y-80839605D01*
X129754584Y-82535022D01*
X127785000Y-82535022D01*
X127785000Y-80157012D01*
X128810881Y-80157012D01*
X128819287Y-81205247D01*
X129204257Y-82134647D01*
X129574978Y-82355416D01*
X131270395Y-80660000D01*
X131629605Y-80660000D01*
X133325022Y-82355416D01*
X133695743Y-82134647D01*
X134089119Y-81162988D01*
X134081052Y-80157012D01*
X137610881Y-80157012D01*
X137619287Y-81205247D01*
X138004257Y-82134647D01*
X138374978Y-82355416D01*
X140070395Y-80660000D01*
X138374978Y-78964584D01*
X138004257Y-79185353D01*
X137610881Y-80157012D01*
X134081052Y-80157012D01*
X134080713Y-80114753D01*
X133695743Y-79185353D01*
X133325022Y-78964584D01*
X131629605Y-80660000D01*
X131270395Y-80660000D01*
X129574978Y-78964584D01*
X129204257Y-79185353D01*
X128810881Y-80157012D01*
X127785000Y-80157012D01*
X127785000Y-78784978D01*
X129754584Y-78784978D01*
X131450000Y-80480395D01*
X133145416Y-78784978D01*
X138554584Y-78784978D01*
X140250000Y-80480395D01*
X141945416Y-78784978D01*
X141724647Y-78414257D01*
X140752988Y-78020881D01*
X139704753Y-78029287D01*
X138775353Y-78414257D01*
X138554584Y-78784978D01*
X133145416Y-78784978D01*
X132924647Y-78414257D01*
X131952988Y-78020881D01*
X130904753Y-78029287D01*
X129975353Y-78414257D01*
X129754584Y-78784978D01*
X127785000Y-78784978D01*
X127785000Y-74620158D01*
X128595158Y-73810000D01*
X131814869Y-73810000D01*
X131814735Y-73963991D01*
X132047932Y-74528371D01*
X132479357Y-74960551D01*
X133043330Y-75194733D01*
X133653991Y-75195265D01*
X134218371Y-74962068D01*
X134600288Y-74580818D01*
X134979357Y-74960551D01*
X135543330Y-75194733D01*
X136153991Y-75195265D01*
X136718371Y-74962068D01*
X136940668Y-74740159D01*
X137449446Y-74740159D01*
X137535852Y-74996643D01*
X138109336Y-75206458D01*
X138719460Y-75180839D01*
X139164148Y-74996643D01*
X139250554Y-74740159D01*
X138350000Y-73839605D01*
X137449446Y-74740159D01*
X136940668Y-74740159D01*
X137150551Y-74530643D01*
X137154294Y-74521628D01*
X137269841Y-74560554D01*
X138170395Y-73660000D01*
X138156253Y-73645858D01*
X138335858Y-73466253D01*
X138350000Y-73480395D01*
X138364143Y-73466253D01*
X138543748Y-73645858D01*
X138529605Y-73660000D01*
X139430159Y-74560554D01*
X139686643Y-74474148D01*
X139896458Y-73900664D01*
X139870839Y-73290540D01*
X139686643Y-72845852D01*
X139430161Y-72759447D01*
X139438316Y-72751292D01*
X139700000Y-72803345D01*
X140178089Y-72708247D01*
X141049921Y-73580079D01*
X141304594Y-73750245D01*
X141605000Y-73810000D01*
X143184842Y-73810000D01*
X143446694Y-74071852D01*
X143446269Y-74559086D01*
X143648854Y-75049380D01*
X144023647Y-75424827D01*
X144345118Y-75558314D01*
X144087071Y-75665200D01*
X144025417Y-75900812D01*
X144780000Y-76655395D01*
X145534583Y-75900812D01*
X145472929Y-75665200D01*
X145193688Y-75566917D01*
X145534380Y-75426146D01*
X145881130Y-75080000D01*
X146800875Y-75080000D01*
X146710585Y-75140330D01*
X146385729Y-75626511D01*
X146287003Y-76122839D01*
X146042931Y-76366911D01*
X145949800Y-76142071D01*
X145714188Y-76080417D01*
X144959605Y-76835000D01*
X144973748Y-76849143D01*
X144794143Y-77028748D01*
X144780000Y-77014605D01*
X144765858Y-77028748D01*
X144586253Y-76849143D01*
X144600395Y-76835000D01*
X143845812Y-76080417D01*
X143610200Y-76142071D01*
X143434073Y-76642480D01*
X143462730Y-77169958D01*
X143324833Y-77169838D01*
X142981057Y-77311883D01*
X142717808Y-77574673D01*
X142575162Y-77918201D01*
X142574838Y-78290167D01*
X142716883Y-78633943D01*
X142725000Y-78642074D01*
X142725000Y-79738828D01*
X142495743Y-79185353D01*
X142125022Y-78964584D01*
X140429605Y-80660000D01*
X142125022Y-82355416D01*
X142495743Y-82134647D01*
X142763463Y-81473365D01*
X142784755Y-81580407D01*
X142954921Y-81835079D01*
X143589921Y-82470079D01*
X143844594Y-82640245D01*
X144145000Y-82700001D01*
X144145005Y-82700000D01*
X144314421Y-82700000D01*
X144658647Y-83044827D01*
X144996446Y-83185094D01*
X144660620Y-83323854D01*
X144285173Y-83698647D01*
X144081732Y-84188587D01*
X144081269Y-84719086D01*
X144283854Y-85209380D01*
X144658647Y-85584827D01*
X145148587Y-85788268D01*
X145679086Y-85788731D01*
X146169380Y-85586146D01*
X146366681Y-85389188D01*
X147200417Y-85389188D01*
X147262071Y-85624800D01*
X147762480Y-85800927D01*
X148292199Y-85772148D01*
X148647929Y-85624800D01*
X148709583Y-85389188D01*
X147955000Y-84634605D01*
X147200417Y-85389188D01*
X146366681Y-85389188D01*
X146544827Y-85211353D01*
X146678314Y-84889882D01*
X146785200Y-85147929D01*
X147020812Y-85209583D01*
X147775395Y-84455000D01*
X147761253Y-84440858D01*
X147940858Y-84261253D01*
X147955000Y-84275395D01*
X148709583Y-83520812D01*
X148647929Y-83285200D01*
X148386371Y-83193141D01*
X148647929Y-83084800D01*
X148709583Y-82849188D01*
X147955000Y-82094605D01*
X147940858Y-82108748D01*
X147761253Y-81929143D01*
X147775395Y-81915000D01*
X147761253Y-81900858D01*
X147940858Y-81721253D01*
X147955000Y-81735395D01*
X148709583Y-80980812D01*
X148647929Y-80745200D01*
X148147520Y-80569073D01*
X147617801Y-80597852D01*
X147470000Y-80659073D01*
X147470000Y-80335158D01*
X147554118Y-80251040D01*
X148971000Y-80251040D01*
X149150000Y-80217359D01*
X149150000Y-81282909D01*
X149124800Y-81222071D01*
X148889188Y-81160417D01*
X148134605Y-81915000D01*
X148889188Y-82669583D01*
X149124800Y-82607929D01*
X149150000Y-82536331D01*
X149150000Y-83822909D01*
X149124800Y-83762071D01*
X148889188Y-83700417D01*
X148134605Y-84455000D01*
X148889188Y-85209583D01*
X149124800Y-85147929D01*
X149150000Y-85076331D01*
X149150000Y-118364286D01*
X147139750Y-118364286D01*
X147139750Y-134599592D01*
X146244805Y-133704647D01*
X146278600Y-133534745D01*
X146278600Y-133165255D01*
X146164526Y-132591766D01*
X145839670Y-132105585D01*
X145353489Y-131780729D01*
X144780000Y-131666655D01*
X144206511Y-131780729D01*
X143720330Y-132105585D01*
X143510000Y-132420366D01*
X143299670Y-132105585D01*
X142813489Y-131780729D01*
X142240000Y-131666655D01*
X141666511Y-131780729D01*
X141180330Y-132105585D01*
X140970000Y-132420366D01*
X140759670Y-132105585D01*
X140273489Y-131780729D01*
X139700000Y-131666655D01*
X139126511Y-131780729D01*
X138640330Y-132105585D01*
X138430000Y-132420366D01*
X138219670Y-132105585D01*
X137733489Y-131780729D01*
X137160000Y-131666655D01*
X136586511Y-131780729D01*
X136100330Y-132105585D01*
X135890000Y-132420366D01*
X135679670Y-132105585D01*
X135193489Y-131780729D01*
X134620000Y-131666655D01*
X134046511Y-131780729D01*
X133560330Y-132105585D01*
X133350000Y-132420366D01*
X133139670Y-132105585D01*
X132653489Y-131780729D01*
X132080000Y-131666655D01*
X131506511Y-131780729D01*
X131020330Y-132105585D01*
X130810000Y-132420366D01*
X130599670Y-132105585D01*
X130113489Y-131780729D01*
X129540000Y-131666655D01*
X128966511Y-131780729D01*
X128480330Y-132105585D01*
X128470757Y-132119913D01*
X128466762Y-132098683D01*
X128327690Y-131882559D01*
X128115490Y-131737569D01*
X127863600Y-131686560D01*
X126136400Y-131686560D01*
X125901083Y-131730838D01*
X125684959Y-131869910D01*
X125539969Y-132082110D01*
X125488960Y-132334000D01*
X125488960Y-134366000D01*
X125533238Y-134601317D01*
X125672310Y-134817441D01*
X125884510Y-134962431D01*
X126136400Y-135013440D01*
X127553282Y-135013440D01*
X128755000Y-136215158D01*
X128755000Y-136766560D01*
X128676400Y-136766560D01*
X128441083Y-136810838D01*
X128224959Y-136949910D01*
X128089802Y-137147720D01*
X128002168Y-136936154D01*
X127628121Y-136711484D01*
X125909605Y-138430000D01*
X125923748Y-138444143D01*
X125744143Y-138623748D01*
X125730000Y-138609605D01*
X125715858Y-138623748D01*
X125536253Y-138444143D01*
X125550395Y-138430000D01*
X125536253Y-138415858D01*
X125715858Y-138236253D01*
X125730000Y-138250395D01*
X127448516Y-136531879D01*
X127223846Y-136157832D01*
X126240612Y-135759120D01*
X125179643Y-135767025D01*
X124236154Y-136157832D01*
X124011485Y-136531877D01*
X123900000Y-136420392D01*
X123900000Y-126985022D01*
X129754584Y-126985022D01*
X129975353Y-127355743D01*
X130947012Y-127749119D01*
X131995247Y-127740713D01*
X132924647Y-127355743D01*
X133145416Y-126985022D01*
X138554584Y-126985022D01*
X138775353Y-127355743D01*
X139747012Y-127749119D01*
X140795247Y-127740713D01*
X141724647Y-127355743D01*
X141945416Y-126985022D01*
X140250000Y-125289605D01*
X138554584Y-126985022D01*
X133145416Y-126985022D01*
X131450000Y-125289605D01*
X129754584Y-126985022D01*
X123900000Y-126985022D01*
X123900000Y-124607012D01*
X128810881Y-124607012D01*
X128819287Y-125655247D01*
X129204257Y-126584647D01*
X129574978Y-126805416D01*
X131270395Y-125110000D01*
X131629605Y-125110000D01*
X133325022Y-126805416D01*
X133695743Y-126584647D01*
X134089119Y-125612988D01*
X134081052Y-124607012D01*
X137610881Y-124607012D01*
X137619287Y-125655247D01*
X138004257Y-126584647D01*
X138374978Y-126805416D01*
X140070395Y-125110000D01*
X140429605Y-125110000D01*
X142125022Y-126805416D01*
X142495743Y-126584647D01*
X142889119Y-125612988D01*
X142880713Y-124564753D01*
X142495743Y-123635353D01*
X142125022Y-123414584D01*
X140429605Y-125110000D01*
X140070395Y-125110000D01*
X138374978Y-123414584D01*
X138004257Y-123635353D01*
X137610881Y-124607012D01*
X134081052Y-124607012D01*
X134080713Y-124564753D01*
X133695743Y-123635353D01*
X133325022Y-123414584D01*
X131629605Y-125110000D01*
X131270395Y-125110000D01*
X129574978Y-123414584D01*
X129204257Y-123635353D01*
X128810881Y-124607012D01*
X123900000Y-124607012D01*
X123900000Y-123234978D01*
X129754584Y-123234978D01*
X131450000Y-124930395D01*
X133145416Y-123234978D01*
X138554584Y-123234978D01*
X140250000Y-124930395D01*
X141945416Y-123234978D01*
X141724647Y-122864257D01*
X140752988Y-122470881D01*
X139704753Y-122479287D01*
X138775353Y-122864257D01*
X138554584Y-123234978D01*
X133145416Y-123234978D01*
X132924647Y-122864257D01*
X131952988Y-122470881D01*
X130904753Y-122479287D01*
X129975353Y-122864257D01*
X129754584Y-123234978D01*
X123900000Y-123234978D01*
X123900000Y-50875000D01*
X131920459Y-50875000D01*
X131815267Y-51128330D01*
G36*
X138945417Y-67010812D02*
X139700000Y-67765395D01*
X140454583Y-67010812D01*
X140405960Y-66825000D01*
X140644842Y-66825000D01*
X143589921Y-69770079D01*
X143734076Y-69866400D01*
X143720330Y-69875585D01*
X143510000Y-70190366D01*
X143299670Y-69875585D01*
X142813489Y-69550729D01*
X142240000Y-69436655D01*
X141666511Y-69550729D01*
X141180330Y-69875585D01*
X140970000Y-70190366D01*
X140759670Y-69875585D01*
X140273489Y-69550729D01*
X139700000Y-69436655D01*
X139126511Y-69550729D01*
X138640330Y-69875585D01*
X138430000Y-70190366D01*
X138219670Y-69875585D01*
X137945000Y-69692056D01*
X137945000Y-69045579D01*
X138111681Y-68879188D01*
X138945417Y-68879188D01*
X139007071Y-69114800D01*
X139507480Y-69290927D01*
X140037199Y-69262148D01*
X140392929Y-69114800D01*
X140454583Y-68879188D01*
X139700000Y-68124605D01*
X138945417Y-68879188D01*
X138111681Y-68879188D01*
X138289827Y-68701353D01*
X138423314Y-68379882D01*
X138530200Y-68637929D01*
X138765812Y-68699583D01*
X139520395Y-67945000D01*
X139879605Y-67945000D01*
X140634188Y-68699583D01*
X140869800Y-68637929D01*
X141045927Y-68137520D01*
X141017148Y-67607801D01*
X140869800Y-67252071D01*
X140634188Y-67190417D01*
X139879605Y-67945000D01*
X139520395Y-67945000D01*
X138765812Y-67190417D01*
X138530200Y-67252071D01*
X138431917Y-67531312D01*
X138291146Y-67190620D01*
X138023076Y-66922082D01*
X138120158Y-66825000D01*
X138994040Y-66825000D01*
X138945417Y-67010812D01*
X138945417Y-67010812D01*
G37*
X138945417Y-67010812D02*
X139700000Y-67765395D01*
X140454583Y-67010812D01*
X140405960Y-66825000D01*
X140644842Y-66825000D01*
X143589921Y-69770079D01*
X143734076Y-69866400D01*
X143720330Y-69875585D01*
X143510000Y-70190366D01*
X143299670Y-69875585D01*
X142813489Y-69550729D01*
X142240000Y-69436655D01*
X141666511Y-69550729D01*
X141180330Y-69875585D01*
X140970000Y-70190366D01*
X140759670Y-69875585D01*
X140273489Y-69550729D01*
X139700000Y-69436655D01*
X139126511Y-69550729D01*
X138640330Y-69875585D01*
X138430000Y-70190366D01*
X138219670Y-69875585D01*
X137945000Y-69692056D01*
X137945000Y-69045579D01*
X138111681Y-68879188D01*
X138945417Y-68879188D01*
X139007071Y-69114800D01*
X139507480Y-69290927D01*
X140037199Y-69262148D01*
X140392929Y-69114800D01*
X140454583Y-68879188D01*
X139700000Y-68124605D01*
X138945417Y-68879188D01*
X138111681Y-68879188D01*
X138289827Y-68701353D01*
X138423314Y-68379882D01*
X138530200Y-68637929D01*
X138765812Y-68699583D01*
X139520395Y-67945000D01*
X139879605Y-67945000D01*
X140634188Y-68699583D01*
X140869800Y-68637929D01*
X141045927Y-68137520D01*
X141017148Y-67607801D01*
X140869800Y-67252071D01*
X140634188Y-67190417D01*
X139879605Y-67945000D01*
X139520395Y-67945000D01*
X138765812Y-67190417D01*
X138530200Y-67252071D01*
X138431917Y-67531312D01*
X138291146Y-67190620D01*
X138023076Y-66922082D01*
X138120158Y-66825000D01*
X138994040Y-66825000D01*
X138945417Y-67010812D01*
M02*
