G04 #@! TF.FileFunction,Copper,L2,Bot,Signal*
%FSLAX46Y46*%
G04 Gerber Fmt 4.6, Leading zero omitted, Abs format (unit mm)*
G04 Created by KiCad (PCBNEW 4.0.6+dfsg1-1) date Tue Oct 24 13:55:29 2017*
%MOMM*%
%LPD*%
G01*
G04 APERTURE LIST*
%ADD10C,0.050000*%
%ADD11R,1.727200X2.032000*%
%ADD12O,1.727200X2.032000*%
%ADD13C,1.800000*%
%ADD14C,4.000000*%
%ADD15R,2.032000X1.727200*%
%ADD16O,2.032000X1.727200*%
%ADD17R,2.032000X2.032000*%
%ADD18O,2.032000X2.032000*%
%ADD19C,4.064000*%
%ADD20C,1.397000*%
%ADD21C,0.600000*%
%ADD22C,0.300000*%
%ADD23C,0.254000*%
G04 APERTURE END LIST*
D10*
D11*
X127000000Y-71120000D03*
D12*
X129540000Y-71120000D03*
X132080000Y-71120000D03*
X134620000Y-71120000D03*
X137160000Y-71120000D03*
X139700000Y-71120000D03*
X142240000Y-71120000D03*
X144780000Y-71120000D03*
D13*
X138350000Y-51435000D03*
X135850000Y-51435000D03*
X133350000Y-51435000D03*
D14*
X140250000Y-58435000D03*
X131450000Y-58435000D03*
D15*
X147320000Y-99060000D03*
D16*
X147320000Y-101600000D03*
X147320000Y-104140000D03*
X147320000Y-106680000D03*
X147320000Y-109220000D03*
X147320000Y-111760000D03*
X147320000Y-114300000D03*
X147320000Y-116840000D03*
D11*
X129540000Y-138430000D03*
D12*
X132080000Y-138430000D03*
X134620000Y-138430000D03*
X137160000Y-138430000D03*
X139700000Y-138430000D03*
X142240000Y-138430000D03*
X144780000Y-138430000D03*
X147320000Y-138430000D03*
D15*
X144780000Y-99060000D03*
D16*
X144780000Y-101600000D03*
X144780000Y-104140000D03*
X144780000Y-106680000D03*
X144780000Y-109220000D03*
X144780000Y-111760000D03*
X144780000Y-114300000D03*
X144780000Y-116840000D03*
D11*
X127000000Y-133350000D03*
D12*
X129540000Y-133350000D03*
X132080000Y-133350000D03*
X134620000Y-133350000D03*
X137160000Y-133350000D03*
X139700000Y-133350000D03*
X142240000Y-133350000D03*
X144780000Y-133350000D03*
D17*
X144780000Y-90170000D03*
D18*
X144780000Y-92710000D03*
D15*
X147955000Y-78740000D03*
D16*
X147955000Y-76200000D03*
X147955000Y-73660000D03*
X147955000Y-71120000D03*
D17*
X147320000Y-90170000D03*
D18*
X147320000Y-92710000D03*
D19*
X144780000Y-66040000D03*
X125730000Y-138430000D03*
D20*
X145415000Y-84455000D03*
X147955000Y-84455000D03*
X145415000Y-81915000D03*
X147955000Y-81915000D03*
X144780000Y-74295000D03*
X144780000Y-76835000D03*
X137160000Y-67945000D03*
X139700000Y-67945000D03*
D13*
X138350000Y-73660000D03*
X135850000Y-73660000D03*
X133350000Y-73660000D03*
D14*
X140250000Y-80660000D03*
X131450000Y-80660000D03*
D13*
X138350000Y-95885000D03*
X135850000Y-95885000D03*
X133350000Y-95885000D03*
D14*
X140250000Y-102885000D03*
X131450000Y-102885000D03*
D13*
X138350000Y-118110000D03*
X135850000Y-118110000D03*
X133350000Y-118110000D03*
D14*
X140250000Y-125110000D03*
X131450000Y-125110000D03*
D21*
X128270000Y-53975000D03*
X133350000Y-92710000D03*
X143510000Y-78105000D03*
D22*
X135850000Y-51435000D02*
X135850000Y-52110000D01*
X135850000Y-52110000D02*
X133985000Y-53975000D01*
X133985000Y-53975000D02*
X128270000Y-53975000D01*
X147320000Y-90170000D02*
X147320000Y-86995000D01*
X147955000Y-86360000D02*
X147955000Y-84455000D01*
X147320000Y-86995000D02*
X147955000Y-86360000D01*
X124460000Y-137160000D02*
X124460000Y-136525000D01*
X126350000Y-125110000D02*
X124460000Y-127000000D01*
X124460000Y-127000000D02*
X124460000Y-136525000D01*
X126350000Y-125110000D02*
X131450000Y-125110000D01*
X124460000Y-137160000D02*
X125730000Y-138430000D01*
X138350000Y-118110000D02*
X140250000Y-118110000D01*
X140250000Y-118110000D02*
X140335000Y-118110000D01*
X140335000Y-118110000D02*
X140250000Y-118110000D01*
X140250000Y-102885000D02*
X140250000Y-118110000D01*
X140250000Y-118110000D02*
X140250000Y-125110000D01*
X138350000Y-95885000D02*
X138430000Y-95885000D01*
X138430000Y-95885000D02*
X140250000Y-97705000D01*
X140250000Y-97705000D02*
X140250000Y-102885000D01*
X138350000Y-51435000D02*
X138430000Y-51435000D01*
X138430000Y-51435000D02*
X140250000Y-53255000D01*
X140250000Y-53255000D02*
X140250000Y-58435000D01*
X140250000Y-58435000D02*
X140250000Y-67945000D01*
X140250000Y-67945000D02*
X140335000Y-67945000D01*
X140335000Y-67945000D02*
X139700000Y-67945000D01*
X138350000Y-73660000D02*
X140335000Y-73660000D01*
X140970000Y-73025000D02*
X140970000Y-67945000D01*
X140335000Y-73660000D02*
X140970000Y-73025000D01*
X138350000Y-73660000D02*
X138430000Y-73660000D01*
X138430000Y-73660000D02*
X140250000Y-75480000D01*
X140250000Y-75480000D02*
X140250000Y-80660000D01*
X140250000Y-80660000D02*
X140250000Y-90170000D01*
X140250000Y-90170000D02*
X140335000Y-90170000D01*
X144780000Y-90170000D02*
X140335000Y-90170000D01*
X140335000Y-90170000D02*
X138430000Y-90170000D01*
X138350000Y-90250000D02*
X138350000Y-95885000D01*
X138430000Y-90170000D02*
X138350000Y-90250000D01*
X124460000Y-137160000D02*
X125730000Y-138430000D01*
X147955000Y-81915000D02*
X147955000Y-84455000D01*
X147955000Y-81915000D02*
X145415000Y-79375000D01*
X144780000Y-79375000D02*
X144765000Y-79360000D01*
X145415000Y-79375000D02*
X144780000Y-79375000D01*
X144780000Y-79345000D02*
X144780000Y-76835000D01*
X144765000Y-79360000D02*
X144780000Y-79345000D01*
X139700000Y-67945000D02*
X140970000Y-67945000D01*
X140970000Y-67945000D02*
X142875000Y-67945000D01*
X142875000Y-67945000D02*
X144780000Y-66040000D01*
X144780000Y-66675000D02*
X144780000Y-66040000D01*
X125730000Y-138430000D02*
X125730000Y-137795000D01*
X133350000Y-73660000D02*
X133350000Y-67945000D01*
X128270000Y-51435000D02*
X133350000Y-51435000D01*
X127000000Y-52705000D02*
X128270000Y-51435000D01*
X127000000Y-64135000D02*
X127000000Y-52705000D01*
X128905000Y-66040000D02*
X127000000Y-64135000D01*
X131445000Y-66040000D02*
X128905000Y-66040000D01*
X133350000Y-67945000D02*
X131445000Y-66040000D01*
X133350000Y-118110000D02*
X133350000Y-106680000D01*
X133350000Y-98425000D02*
X133350000Y-95885000D01*
X134620000Y-99695000D02*
X133350000Y-98425000D01*
X134620000Y-105410000D02*
X134620000Y-99695000D01*
X133350000Y-106680000D02*
X134620000Y-105410000D01*
X133350000Y-73660000D02*
X133350000Y-76200000D01*
X133350000Y-87630000D02*
X133350000Y-92710000D01*
X134620000Y-86360000D02*
X133350000Y-87630000D01*
X134620000Y-77470000D02*
X134620000Y-86360000D01*
X133350000Y-76200000D02*
X134620000Y-77470000D01*
X135850000Y-95885000D02*
X135850000Y-95210000D01*
X135850000Y-95210000D02*
X134620000Y-93980000D01*
X134620000Y-93980000D02*
X130175000Y-93980000D01*
X130175000Y-93980000D02*
X128270000Y-92075000D01*
X128270000Y-92075000D02*
X128270000Y-74930000D01*
X128270000Y-74930000D02*
X132080000Y-71120000D01*
X142240000Y-71120000D02*
X142240000Y-72390000D01*
X143510000Y-73660000D02*
X143510000Y-78105000D01*
X142240000Y-72390000D02*
X143510000Y-73660000D01*
X144780000Y-71120000D02*
X146050000Y-72390000D01*
X146050000Y-76835000D02*
X147955000Y-78740000D01*
X146050000Y-72390000D02*
X146050000Y-76835000D01*
D23*
G36*
X127714921Y-50879921D02*
X126444921Y-52149921D01*
X126274755Y-52404593D01*
X126274755Y-52404594D01*
X126215000Y-52705000D01*
X126215000Y-64135000D01*
X126274755Y-64435407D01*
X126444921Y-64690079D01*
X128349921Y-66595079D01*
X128604594Y-66765245D01*
X128905000Y-66825000D01*
X131119842Y-66825000D01*
X132565000Y-68270158D01*
X132565000Y-69533127D01*
X132080000Y-69436655D01*
X131506511Y-69550729D01*
X131020330Y-69875585D01*
X130810000Y-70190366D01*
X130599670Y-69875585D01*
X130113489Y-69550729D01*
X129540000Y-69436655D01*
X128966511Y-69550729D01*
X128480330Y-69875585D01*
X128470757Y-69889913D01*
X128466762Y-69868683D01*
X128327690Y-69652559D01*
X128115490Y-69507569D01*
X127863600Y-69456560D01*
X126136400Y-69456560D01*
X125901083Y-69500838D01*
X125684959Y-69639910D01*
X125539969Y-69852110D01*
X125488960Y-70104000D01*
X125488960Y-72136000D01*
X125533238Y-72371317D01*
X125672310Y-72587441D01*
X125884510Y-72732431D01*
X126136400Y-72783440D01*
X127863600Y-72783440D01*
X128098917Y-72739162D01*
X128315041Y-72600090D01*
X128460031Y-72387890D01*
X128468400Y-72346561D01*
X128480330Y-72364415D01*
X128966511Y-72689271D01*
X129328556Y-72761286D01*
X127714921Y-74374921D01*
X127544755Y-74629593D01*
X127522762Y-74740159D01*
X127485000Y-74930000D01*
X127485000Y-92075000D01*
X127544755Y-92375407D01*
X127714921Y-92630079D01*
X129619921Y-94535079D01*
X129874594Y-94705245D01*
X130175000Y-94765000D01*
X132299242Y-94765000D01*
X132049449Y-95014357D01*
X131815267Y-95578330D01*
X131814735Y-96188991D01*
X132047932Y-96753371D01*
X132479357Y-97185551D01*
X132565000Y-97221113D01*
X132565000Y-98425000D01*
X132624755Y-98725407D01*
X132794921Y-98980079D01*
X133835000Y-100020158D01*
X133835000Y-101746549D01*
X133695743Y-101410353D01*
X133325022Y-101189584D01*
X131629605Y-102885000D01*
X133325022Y-104580416D01*
X133695743Y-104359647D01*
X133835000Y-104015675D01*
X133835000Y-105084842D01*
X132794921Y-106124921D01*
X132624755Y-106379593D01*
X132624755Y-106379594D01*
X132565000Y-106680000D01*
X132565000Y-116773484D01*
X132481629Y-116807932D01*
X132049449Y-117239357D01*
X131815267Y-117803330D01*
X131814735Y-118413991D01*
X132047932Y-118978371D01*
X132479357Y-119410551D01*
X133043330Y-119644733D01*
X133653991Y-119645265D01*
X134218371Y-119412068D01*
X134600288Y-119030818D01*
X134979357Y-119410551D01*
X135543330Y-119644733D01*
X136153991Y-119645265D01*
X136718371Y-119412068D01*
X136940668Y-119190159D01*
X137449446Y-119190159D01*
X137535852Y-119446643D01*
X138109336Y-119656458D01*
X138719460Y-119630839D01*
X139164148Y-119446643D01*
X139250554Y-119190159D01*
X138350000Y-118289605D01*
X137449446Y-119190159D01*
X136940668Y-119190159D01*
X137150551Y-118980643D01*
X137154294Y-118971628D01*
X137269841Y-119010554D01*
X138170395Y-118110000D01*
X138529605Y-118110000D01*
X139430159Y-119010554D01*
X139686643Y-118924148D01*
X139896458Y-118350664D01*
X139870839Y-117740540D01*
X139686643Y-117295852D01*
X139430159Y-117209446D01*
X138529605Y-118110000D01*
X138170395Y-118110000D01*
X137269841Y-117209446D01*
X137154786Y-117248207D01*
X137152068Y-117241629D01*
X136940650Y-117029841D01*
X137449446Y-117029841D01*
X138350000Y-117930395D01*
X139250554Y-117029841D01*
X139164148Y-116773357D01*
X138590664Y-116563542D01*
X137980540Y-116589161D01*
X137535852Y-116773357D01*
X137449446Y-117029841D01*
X136940650Y-117029841D01*
X136720643Y-116809449D01*
X136156670Y-116575267D01*
X135546009Y-116574735D01*
X134981629Y-116807932D01*
X134599712Y-117189182D01*
X134220643Y-116809449D01*
X134135000Y-116773887D01*
X134135000Y-107005158D01*
X135175079Y-105965079D01*
X135345245Y-105710407D01*
X135405000Y-105410000D01*
X135405000Y-104760022D01*
X138554584Y-104760022D01*
X138775353Y-105130743D01*
X139747012Y-105524119D01*
X140795247Y-105515713D01*
X141724647Y-105130743D01*
X141945416Y-104760022D01*
X140250000Y-103064605D01*
X138554584Y-104760022D01*
X135405000Y-104760022D01*
X135405000Y-102382012D01*
X137610881Y-102382012D01*
X137619287Y-103430247D01*
X138004257Y-104359647D01*
X138374978Y-104580416D01*
X140070395Y-102885000D01*
X140429605Y-102885000D01*
X142125022Y-104580416D01*
X142495743Y-104359647D01*
X142889119Y-103387988D01*
X142880713Y-102339753D01*
X142574298Y-101600000D01*
X143096655Y-101600000D01*
X143210729Y-102173489D01*
X143535585Y-102659670D01*
X143850366Y-102870000D01*
X143535585Y-103080330D01*
X143210729Y-103566511D01*
X143096655Y-104140000D01*
X143210729Y-104713489D01*
X143535585Y-105199670D01*
X143850366Y-105410000D01*
X143535585Y-105620330D01*
X143210729Y-106106511D01*
X143096655Y-106680000D01*
X143210729Y-107253489D01*
X143535585Y-107739670D01*
X143850366Y-107950000D01*
X143535585Y-108160330D01*
X143210729Y-108646511D01*
X143096655Y-109220000D01*
X143210729Y-109793489D01*
X143535585Y-110279670D01*
X143850366Y-110490000D01*
X143535585Y-110700330D01*
X143210729Y-111186511D01*
X143096655Y-111760000D01*
X143210729Y-112333489D01*
X143535585Y-112819670D01*
X143850366Y-113030000D01*
X143535585Y-113240330D01*
X143210729Y-113726511D01*
X143096655Y-114300000D01*
X143210729Y-114873489D01*
X143535585Y-115359670D01*
X143850366Y-115570000D01*
X143535585Y-115780330D01*
X143210729Y-116266511D01*
X143096655Y-116840000D01*
X143210729Y-117413489D01*
X143535585Y-117899670D01*
X144021766Y-118224526D01*
X144595255Y-118338600D01*
X144964745Y-118338600D01*
X145538234Y-118224526D01*
X146024415Y-117899670D01*
X146050000Y-117861379D01*
X146075585Y-117899670D01*
X146561766Y-118224526D01*
X147135255Y-118338600D01*
X147504745Y-118338600D01*
X148078234Y-118224526D01*
X148564415Y-117899670D01*
X148889271Y-117413489D01*
X149003345Y-116840000D01*
X148889271Y-116266511D01*
X148564415Y-115780330D01*
X148249634Y-115570000D01*
X148564415Y-115359670D01*
X148889271Y-114873489D01*
X149003345Y-114300000D01*
X148889271Y-113726511D01*
X148564415Y-113240330D01*
X148249634Y-113030000D01*
X148564415Y-112819670D01*
X148889271Y-112333489D01*
X149003345Y-111760000D01*
X148889271Y-111186511D01*
X148564415Y-110700330D01*
X148249634Y-110490000D01*
X148564415Y-110279670D01*
X148889271Y-109793489D01*
X149003345Y-109220000D01*
X148889271Y-108646511D01*
X148564415Y-108160330D01*
X148249634Y-107950000D01*
X148564415Y-107739670D01*
X148889271Y-107253489D01*
X149003345Y-106680000D01*
X148889271Y-106106511D01*
X148564415Y-105620330D01*
X148249634Y-105410000D01*
X148564415Y-105199670D01*
X148889271Y-104713489D01*
X149003345Y-104140000D01*
X148889271Y-103566511D01*
X148564415Y-103080330D01*
X148249634Y-102870000D01*
X148564415Y-102659670D01*
X148889271Y-102173489D01*
X149003345Y-101600000D01*
X148889271Y-101026511D01*
X148564415Y-100540330D01*
X148550087Y-100530757D01*
X148571317Y-100526762D01*
X148787441Y-100387690D01*
X148932431Y-100175490D01*
X148983440Y-99923600D01*
X148983440Y-98196400D01*
X148939162Y-97961083D01*
X148800090Y-97744959D01*
X148587890Y-97599969D01*
X148336000Y-97548960D01*
X146304000Y-97548960D01*
X146068683Y-97593238D01*
X146052901Y-97603393D01*
X146047890Y-97599969D01*
X145796000Y-97548960D01*
X143764000Y-97548960D01*
X143528683Y-97593238D01*
X143312559Y-97732310D01*
X143167569Y-97944510D01*
X143116560Y-98196400D01*
X143116560Y-99923600D01*
X143160838Y-100158917D01*
X143299910Y-100375041D01*
X143512110Y-100520031D01*
X143553439Y-100528400D01*
X143535585Y-100540330D01*
X143210729Y-101026511D01*
X143096655Y-101600000D01*
X142574298Y-101600000D01*
X142495743Y-101410353D01*
X142125022Y-101189584D01*
X140429605Y-102885000D01*
X140070395Y-102885000D01*
X138374978Y-101189584D01*
X138004257Y-101410353D01*
X137610881Y-102382012D01*
X135405000Y-102382012D01*
X135405000Y-101009978D01*
X138554584Y-101009978D01*
X140250000Y-102705395D01*
X141945416Y-101009978D01*
X141724647Y-100639257D01*
X140752988Y-100245881D01*
X139704753Y-100254287D01*
X138775353Y-100639257D01*
X138554584Y-101009978D01*
X135405000Y-101009978D01*
X135405000Y-99695000D01*
X135345245Y-99394594D01*
X135345245Y-99394593D01*
X135175079Y-99139921D01*
X134135000Y-98099842D01*
X134135000Y-97221516D01*
X134218371Y-97187068D01*
X134600288Y-96805818D01*
X134979357Y-97185551D01*
X135543330Y-97419733D01*
X136153991Y-97420265D01*
X136718371Y-97187068D01*
X136940668Y-96965159D01*
X137449446Y-96965159D01*
X137535852Y-97221643D01*
X138109336Y-97431458D01*
X138719460Y-97405839D01*
X139164148Y-97221643D01*
X139250554Y-96965159D01*
X138350000Y-96064605D01*
X137449446Y-96965159D01*
X136940668Y-96965159D01*
X137150551Y-96755643D01*
X137154294Y-96746628D01*
X137269841Y-96785554D01*
X138170395Y-95885000D01*
X138529605Y-95885000D01*
X139430159Y-96785554D01*
X139686643Y-96699148D01*
X139896458Y-96125664D01*
X139870839Y-95515540D01*
X139686643Y-95070852D01*
X139430159Y-94984446D01*
X138529605Y-95885000D01*
X138170395Y-95885000D01*
X137269841Y-94984446D01*
X137154786Y-95023207D01*
X137152068Y-95016629D01*
X136940650Y-94804841D01*
X137449446Y-94804841D01*
X138350000Y-95705395D01*
X139250554Y-94804841D01*
X139164148Y-94548357D01*
X138590664Y-94338542D01*
X137980540Y-94364161D01*
X137535852Y-94548357D01*
X137449446Y-94804841D01*
X136940650Y-94804841D01*
X136720643Y-94584449D01*
X136156670Y-94350267D01*
X136100376Y-94350218D01*
X135175079Y-93424921D01*
X134920407Y-93254755D01*
X134620000Y-93195000D01*
X134161014Y-93195000D01*
X134284838Y-92896799D01*
X134285000Y-92710000D01*
X143096655Y-92710000D01*
X143222330Y-93341810D01*
X143580222Y-93877433D01*
X144115845Y-94235325D01*
X144747655Y-94361000D01*
X144812345Y-94361000D01*
X145444155Y-94235325D01*
X145979778Y-93877433D01*
X146050000Y-93772338D01*
X146120222Y-93877433D01*
X146655845Y-94235325D01*
X147287655Y-94361000D01*
X147352345Y-94361000D01*
X147984155Y-94235325D01*
X148519778Y-93877433D01*
X148877670Y-93341810D01*
X149003345Y-92710000D01*
X148877670Y-92078190D01*
X148653034Y-91741999D01*
X148695698Y-91724327D01*
X148874327Y-91545699D01*
X148971000Y-91312310D01*
X148971000Y-90455750D01*
X148812250Y-90297000D01*
X147447000Y-90297000D01*
X147447000Y-90317000D01*
X147193000Y-90317000D01*
X147193000Y-90297000D01*
X144907000Y-90297000D01*
X144907000Y-90317000D01*
X144653000Y-90317000D01*
X144653000Y-90297000D01*
X143287750Y-90297000D01*
X143129000Y-90455750D01*
X143129000Y-91312310D01*
X143225673Y-91545699D01*
X143404302Y-91724327D01*
X143446966Y-91741999D01*
X143222330Y-92078190D01*
X143096655Y-92710000D01*
X134285000Y-92710000D01*
X134285162Y-92524833D01*
X134143117Y-92181057D01*
X134135000Y-92172926D01*
X134135000Y-89027690D01*
X143129000Y-89027690D01*
X143129000Y-89884250D01*
X143287750Y-90043000D01*
X144653000Y-90043000D01*
X144653000Y-88677750D01*
X144907000Y-88677750D01*
X144907000Y-90043000D01*
X147193000Y-90043000D01*
X147193000Y-88677750D01*
X147447000Y-88677750D01*
X147447000Y-90043000D01*
X148812250Y-90043000D01*
X148971000Y-89884250D01*
X148971000Y-89027690D01*
X148874327Y-88794301D01*
X148695698Y-88615673D01*
X148462309Y-88519000D01*
X147605750Y-88519000D01*
X147447000Y-88677750D01*
X147193000Y-88677750D01*
X147034250Y-88519000D01*
X146177691Y-88519000D01*
X146050000Y-88571891D01*
X145922309Y-88519000D01*
X145065750Y-88519000D01*
X144907000Y-88677750D01*
X144653000Y-88677750D01*
X144494250Y-88519000D01*
X143637691Y-88519000D01*
X143404302Y-88615673D01*
X143225673Y-88794301D01*
X143129000Y-89027690D01*
X134135000Y-89027690D01*
X134135000Y-87955158D01*
X135175079Y-86915079D01*
X135345245Y-86660407D01*
X135405000Y-86360000D01*
X135405000Y-82535022D01*
X138554584Y-82535022D01*
X138775353Y-82905743D01*
X139747012Y-83299119D01*
X140795247Y-83290713D01*
X141724647Y-82905743D01*
X141945416Y-82535022D01*
X140250000Y-80839605D01*
X138554584Y-82535022D01*
X135405000Y-82535022D01*
X135405000Y-80157012D01*
X137610881Y-80157012D01*
X137619287Y-81205247D01*
X138004257Y-82134647D01*
X138374978Y-82355416D01*
X140070395Y-80660000D01*
X140429605Y-80660000D01*
X142125022Y-82355416D01*
X142421119Y-82179086D01*
X144081269Y-82179086D01*
X144283854Y-82669380D01*
X144658647Y-83044827D01*
X144996446Y-83185094D01*
X144660620Y-83323854D01*
X144285173Y-83698647D01*
X144081732Y-84188587D01*
X144081269Y-84719086D01*
X144283854Y-85209380D01*
X144658647Y-85584827D01*
X145148587Y-85788268D01*
X145679086Y-85788731D01*
X146169380Y-85586146D01*
X146366681Y-85389188D01*
X147200417Y-85389188D01*
X147262071Y-85624800D01*
X147762480Y-85800927D01*
X148292199Y-85772148D01*
X148647929Y-85624800D01*
X148709583Y-85389188D01*
X147955000Y-84634605D01*
X147200417Y-85389188D01*
X146366681Y-85389188D01*
X146544827Y-85211353D01*
X146678314Y-84889882D01*
X146785200Y-85147929D01*
X147020812Y-85209583D01*
X147775395Y-84455000D01*
X147020812Y-83700417D01*
X146785200Y-83762071D01*
X146686917Y-84041312D01*
X146546146Y-83700620D01*
X146171353Y-83325173D01*
X145833554Y-83184906D01*
X146169380Y-83046146D01*
X146366681Y-82849188D01*
X147200417Y-82849188D01*
X147262071Y-83084800D01*
X147523629Y-83176859D01*
X147262071Y-83285200D01*
X147200417Y-83520812D01*
X147955000Y-84275395D01*
X148709583Y-83520812D01*
X148647929Y-83285200D01*
X148386371Y-83193141D01*
X148647929Y-83084800D01*
X148709583Y-82849188D01*
X147955000Y-82094605D01*
X147200417Y-82849188D01*
X146366681Y-82849188D01*
X146544827Y-82671353D01*
X146678314Y-82349882D01*
X146785200Y-82607929D01*
X147020812Y-82669583D01*
X147775395Y-81915000D01*
X147020812Y-81160417D01*
X146785200Y-81222071D01*
X146686917Y-81501312D01*
X146546146Y-81160620D01*
X146366652Y-80980812D01*
X147200417Y-80980812D01*
X147955000Y-81735395D01*
X148709583Y-80980812D01*
X148647929Y-80745200D01*
X148147520Y-80569073D01*
X147617801Y-80597852D01*
X147262071Y-80745200D01*
X147200417Y-80980812D01*
X146366652Y-80980812D01*
X146171353Y-80785173D01*
X145681413Y-80581732D01*
X145150914Y-80581269D01*
X144660620Y-80783854D01*
X144285173Y-81158647D01*
X144081732Y-81648587D01*
X144081269Y-82179086D01*
X142421119Y-82179086D01*
X142495743Y-82134647D01*
X142889119Y-81162988D01*
X142880713Y-80114753D01*
X142495743Y-79185353D01*
X142125022Y-78964584D01*
X140429605Y-80660000D01*
X140070395Y-80660000D01*
X138374978Y-78964584D01*
X138004257Y-79185353D01*
X137610881Y-80157012D01*
X135405000Y-80157012D01*
X135405000Y-78784978D01*
X138554584Y-78784978D01*
X140250000Y-80480395D01*
X141945416Y-78784978D01*
X141724647Y-78414257D01*
X140752988Y-78020881D01*
X139704753Y-78029287D01*
X138775353Y-78414257D01*
X138554584Y-78784978D01*
X135405000Y-78784978D01*
X135405000Y-77470000D01*
X135365861Y-77273238D01*
X135345245Y-77169593D01*
X135175079Y-76914921D01*
X134135000Y-75874842D01*
X134135000Y-74996516D01*
X134218371Y-74962068D01*
X134600288Y-74580818D01*
X134979357Y-74960551D01*
X135543330Y-75194733D01*
X136153991Y-75195265D01*
X136718371Y-74962068D01*
X136940668Y-74740159D01*
X137449446Y-74740159D01*
X137535852Y-74996643D01*
X138109336Y-75206458D01*
X138719460Y-75180839D01*
X139164148Y-74996643D01*
X139250554Y-74740159D01*
X138350000Y-73839605D01*
X137449446Y-74740159D01*
X136940668Y-74740159D01*
X137150551Y-74530643D01*
X137154294Y-74521628D01*
X137269841Y-74560554D01*
X138170395Y-73660000D01*
X138156253Y-73645858D01*
X138335858Y-73466253D01*
X138350000Y-73480395D01*
X138364143Y-73466253D01*
X138543748Y-73645858D01*
X138529605Y-73660000D01*
X139430159Y-74560554D01*
X139686643Y-74474148D01*
X139896458Y-73900664D01*
X139870839Y-73290540D01*
X139686643Y-72845852D01*
X139430161Y-72759447D01*
X139438316Y-72751292D01*
X139700000Y-72803345D01*
X140273489Y-72689271D01*
X140759670Y-72364415D01*
X140970000Y-72049634D01*
X141180330Y-72364415D01*
X141491233Y-72572154D01*
X141514755Y-72690407D01*
X141684921Y-72945079D01*
X142725000Y-73985158D01*
X142725000Y-77567494D01*
X142717808Y-77574673D01*
X142575162Y-77918201D01*
X142574838Y-78290167D01*
X142716883Y-78633943D01*
X142979673Y-78897192D01*
X143323201Y-79039838D01*
X143695167Y-79040162D01*
X144038943Y-78898117D01*
X144302192Y-78635327D01*
X144444838Y-78291799D01*
X144444978Y-78130771D01*
X144587480Y-78180927D01*
X145117199Y-78152148D01*
X145472929Y-78004800D01*
X145534583Y-77769188D01*
X144780000Y-77014605D01*
X144765858Y-77028748D01*
X144586253Y-76849143D01*
X144600395Y-76835000D01*
X144586253Y-76820858D01*
X144765858Y-76641253D01*
X144780000Y-76655395D01*
X144794143Y-76641253D01*
X144973748Y-76820858D01*
X144959605Y-76835000D01*
X145455125Y-77330520D01*
X145494921Y-77390079D01*
X146291560Y-78186718D01*
X146291560Y-79603600D01*
X146335838Y-79838917D01*
X146474910Y-80055041D01*
X146687110Y-80200031D01*
X146939000Y-80251040D01*
X148971000Y-80251040D01*
X149150000Y-80217359D01*
X149150000Y-81282909D01*
X149124800Y-81222071D01*
X148889188Y-81160417D01*
X148134605Y-81915000D01*
X148889188Y-82669583D01*
X149124800Y-82607929D01*
X149150000Y-82536331D01*
X149150000Y-83822909D01*
X149124800Y-83762071D01*
X148889188Y-83700417D01*
X148134605Y-84455000D01*
X148889188Y-85209583D01*
X149124800Y-85147929D01*
X149150000Y-85076331D01*
X149150000Y-140260000D01*
X127739608Y-140260000D01*
X127628123Y-140148515D01*
X128002168Y-139923846D01*
X128089971Y-139707321D01*
X128212310Y-139897441D01*
X128424510Y-140042431D01*
X128676400Y-140093440D01*
X130403600Y-140093440D01*
X130638917Y-140049162D01*
X130855041Y-139910090D01*
X131000031Y-139697890D01*
X131008400Y-139656561D01*
X131020330Y-139674415D01*
X131506511Y-139999271D01*
X132080000Y-140113345D01*
X132653489Y-139999271D01*
X133139670Y-139674415D01*
X133350000Y-139359634D01*
X133560330Y-139674415D01*
X134046511Y-139999271D01*
X134620000Y-140113345D01*
X135193489Y-139999271D01*
X135679670Y-139674415D01*
X135890000Y-139359634D01*
X136100330Y-139674415D01*
X136586511Y-139999271D01*
X137160000Y-140113345D01*
X137733489Y-139999271D01*
X138219670Y-139674415D01*
X138430000Y-139359634D01*
X138640330Y-139674415D01*
X139126511Y-139999271D01*
X139700000Y-140113345D01*
X140273489Y-139999271D01*
X140759670Y-139674415D01*
X140970000Y-139359634D01*
X141180330Y-139674415D01*
X141666511Y-139999271D01*
X142240000Y-140113345D01*
X142813489Y-139999271D01*
X143299670Y-139674415D01*
X143510000Y-139359634D01*
X143720330Y-139674415D01*
X144206511Y-139999271D01*
X144780000Y-140113345D01*
X145353489Y-139999271D01*
X145839670Y-139674415D01*
X146050000Y-139359634D01*
X146260330Y-139674415D01*
X146746511Y-139999271D01*
X147320000Y-140113345D01*
X147893489Y-139999271D01*
X148379670Y-139674415D01*
X148704526Y-139188234D01*
X148818600Y-138614745D01*
X148818600Y-138245255D01*
X148704526Y-137671766D01*
X148379670Y-137185585D01*
X147893489Y-136860729D01*
X147320000Y-136746655D01*
X146746511Y-136860729D01*
X146260330Y-137185585D01*
X146050000Y-137500366D01*
X145839670Y-137185585D01*
X145353489Y-136860729D01*
X144780000Y-136746655D01*
X144206511Y-136860729D01*
X143720330Y-137185585D01*
X143510000Y-137500366D01*
X143299670Y-137185585D01*
X142813489Y-136860729D01*
X142240000Y-136746655D01*
X141666511Y-136860729D01*
X141180330Y-137185585D01*
X140970000Y-137500366D01*
X140759670Y-137185585D01*
X140273489Y-136860729D01*
X139700000Y-136746655D01*
X139126511Y-136860729D01*
X138640330Y-137185585D01*
X138430000Y-137500366D01*
X138219670Y-137185585D01*
X137733489Y-136860729D01*
X137160000Y-136746655D01*
X136586511Y-136860729D01*
X136100330Y-137185585D01*
X135890000Y-137500366D01*
X135679670Y-137185585D01*
X135193489Y-136860729D01*
X134620000Y-136746655D01*
X134046511Y-136860729D01*
X133560330Y-137185585D01*
X133350000Y-137500366D01*
X133139670Y-137185585D01*
X132653489Y-136860729D01*
X132080000Y-136746655D01*
X131506511Y-136860729D01*
X131020330Y-137185585D01*
X131010757Y-137199913D01*
X131006762Y-137178683D01*
X130867690Y-136962559D01*
X130655490Y-136817569D01*
X130403600Y-136766560D01*
X128676400Y-136766560D01*
X128441083Y-136810838D01*
X128224959Y-136949910D01*
X128089802Y-137147720D01*
X128002168Y-136936154D01*
X127628121Y-136711484D01*
X125909605Y-138430000D01*
X125923748Y-138444143D01*
X125744143Y-138623748D01*
X125730000Y-138609605D01*
X125715858Y-138623748D01*
X125536253Y-138444143D01*
X125550395Y-138430000D01*
X125536253Y-138415858D01*
X125715858Y-138236253D01*
X125730000Y-138250395D01*
X127448516Y-136531879D01*
X127223846Y-136157832D01*
X126240612Y-135759120D01*
X125179643Y-135767025D01*
X124236154Y-136157832D01*
X124011485Y-136531877D01*
X123900000Y-136420392D01*
X123900000Y-132334000D01*
X125488960Y-132334000D01*
X125488960Y-134366000D01*
X125533238Y-134601317D01*
X125672310Y-134817441D01*
X125884510Y-134962431D01*
X126136400Y-135013440D01*
X127863600Y-135013440D01*
X128098917Y-134969162D01*
X128315041Y-134830090D01*
X128460031Y-134617890D01*
X128468400Y-134576561D01*
X128480330Y-134594415D01*
X128966511Y-134919271D01*
X129540000Y-135033345D01*
X130113489Y-134919271D01*
X130599670Y-134594415D01*
X130810000Y-134279634D01*
X131020330Y-134594415D01*
X131506511Y-134919271D01*
X132080000Y-135033345D01*
X132653489Y-134919271D01*
X133139670Y-134594415D01*
X133350000Y-134279634D01*
X133560330Y-134594415D01*
X134046511Y-134919271D01*
X134620000Y-135033345D01*
X135193489Y-134919271D01*
X135679670Y-134594415D01*
X135890000Y-134279634D01*
X136100330Y-134594415D01*
X136586511Y-134919271D01*
X137160000Y-135033345D01*
X137733489Y-134919271D01*
X138219670Y-134594415D01*
X138430000Y-134279634D01*
X138640330Y-134594415D01*
X139126511Y-134919271D01*
X139700000Y-135033345D01*
X140273489Y-134919271D01*
X140759670Y-134594415D01*
X140970000Y-134279634D01*
X141180330Y-134594415D01*
X141666511Y-134919271D01*
X142240000Y-135033345D01*
X142813489Y-134919271D01*
X143299670Y-134594415D01*
X143510000Y-134279634D01*
X143720330Y-134594415D01*
X144206511Y-134919271D01*
X144780000Y-135033345D01*
X145353489Y-134919271D01*
X145839670Y-134594415D01*
X146164526Y-134108234D01*
X146278600Y-133534745D01*
X146278600Y-133165255D01*
X146164526Y-132591766D01*
X145839670Y-132105585D01*
X145353489Y-131780729D01*
X144780000Y-131666655D01*
X144206511Y-131780729D01*
X143720330Y-132105585D01*
X143510000Y-132420366D01*
X143299670Y-132105585D01*
X142813489Y-131780729D01*
X142240000Y-131666655D01*
X141666511Y-131780729D01*
X141180330Y-132105585D01*
X140970000Y-132420366D01*
X140759670Y-132105585D01*
X140273489Y-131780729D01*
X139700000Y-131666655D01*
X139126511Y-131780729D01*
X138640330Y-132105585D01*
X138430000Y-132420366D01*
X138219670Y-132105585D01*
X137733489Y-131780729D01*
X137160000Y-131666655D01*
X136586511Y-131780729D01*
X136100330Y-132105585D01*
X135890000Y-132420366D01*
X135679670Y-132105585D01*
X135193489Y-131780729D01*
X134620000Y-131666655D01*
X134046511Y-131780729D01*
X133560330Y-132105585D01*
X133350000Y-132420366D01*
X133139670Y-132105585D01*
X132653489Y-131780729D01*
X132080000Y-131666655D01*
X131506511Y-131780729D01*
X131020330Y-132105585D01*
X130810000Y-132420366D01*
X130599670Y-132105585D01*
X130113489Y-131780729D01*
X129540000Y-131666655D01*
X128966511Y-131780729D01*
X128480330Y-132105585D01*
X128470757Y-132119913D01*
X128466762Y-132098683D01*
X128327690Y-131882559D01*
X128115490Y-131737569D01*
X127863600Y-131686560D01*
X126136400Y-131686560D01*
X125901083Y-131730838D01*
X125684959Y-131869910D01*
X125539969Y-132082110D01*
X125488960Y-132334000D01*
X123900000Y-132334000D01*
X123900000Y-126985022D01*
X129754584Y-126985022D01*
X129975353Y-127355743D01*
X130947012Y-127749119D01*
X131995247Y-127740713D01*
X132924647Y-127355743D01*
X133145416Y-126985022D01*
X138554584Y-126985022D01*
X138775353Y-127355743D01*
X139747012Y-127749119D01*
X140795247Y-127740713D01*
X141724647Y-127355743D01*
X141945416Y-126985022D01*
X140250000Y-125289605D01*
X138554584Y-126985022D01*
X133145416Y-126985022D01*
X131450000Y-125289605D01*
X129754584Y-126985022D01*
X123900000Y-126985022D01*
X123900000Y-124607012D01*
X128810881Y-124607012D01*
X128819287Y-125655247D01*
X129204257Y-126584647D01*
X129574978Y-126805416D01*
X131270395Y-125110000D01*
X131629605Y-125110000D01*
X133325022Y-126805416D01*
X133695743Y-126584647D01*
X134089119Y-125612988D01*
X134081052Y-124607012D01*
X137610881Y-124607012D01*
X137619287Y-125655247D01*
X138004257Y-126584647D01*
X138374978Y-126805416D01*
X140070395Y-125110000D01*
X140429605Y-125110000D01*
X142125022Y-126805416D01*
X142495743Y-126584647D01*
X142889119Y-125612988D01*
X142880713Y-124564753D01*
X142495743Y-123635353D01*
X142125022Y-123414584D01*
X140429605Y-125110000D01*
X140070395Y-125110000D01*
X138374978Y-123414584D01*
X138004257Y-123635353D01*
X137610881Y-124607012D01*
X134081052Y-124607012D01*
X134080713Y-124564753D01*
X133695743Y-123635353D01*
X133325022Y-123414584D01*
X131629605Y-125110000D01*
X131270395Y-125110000D01*
X129574978Y-123414584D01*
X129204257Y-123635353D01*
X128810881Y-124607012D01*
X123900000Y-124607012D01*
X123900000Y-123234978D01*
X129754584Y-123234978D01*
X131450000Y-124930395D01*
X133145416Y-123234978D01*
X138554584Y-123234978D01*
X140250000Y-124930395D01*
X141945416Y-123234978D01*
X141724647Y-122864257D01*
X140752988Y-122470881D01*
X139704753Y-122479287D01*
X138775353Y-122864257D01*
X138554584Y-123234978D01*
X133145416Y-123234978D01*
X132924647Y-122864257D01*
X131952988Y-122470881D01*
X130904753Y-122479287D01*
X129975353Y-122864257D01*
X129754584Y-123234978D01*
X123900000Y-123234978D01*
X123900000Y-104760022D01*
X129754584Y-104760022D01*
X129975353Y-105130743D01*
X130947012Y-105524119D01*
X131995247Y-105515713D01*
X132924647Y-105130743D01*
X133145416Y-104760022D01*
X131450000Y-103064605D01*
X129754584Y-104760022D01*
X123900000Y-104760022D01*
X123900000Y-102382012D01*
X128810881Y-102382012D01*
X128819287Y-103430247D01*
X129204257Y-104359647D01*
X129574978Y-104580416D01*
X131270395Y-102885000D01*
X129574978Y-101189584D01*
X129204257Y-101410353D01*
X128810881Y-102382012D01*
X123900000Y-102382012D01*
X123900000Y-101009978D01*
X129754584Y-101009978D01*
X131450000Y-102705395D01*
X133145416Y-101009978D01*
X132924647Y-100639257D01*
X131952988Y-100245881D01*
X130904753Y-100254287D01*
X129975353Y-100639257D01*
X129754584Y-101009978D01*
X123900000Y-101009978D01*
X123900000Y-50875000D01*
X127722286Y-50875000D01*
X127714921Y-50879921D01*
X127714921Y-50879921D01*
G37*
X127714921Y-50879921D02*
X126444921Y-52149921D01*
X126274755Y-52404593D01*
X126274755Y-52404594D01*
X126215000Y-52705000D01*
X126215000Y-64135000D01*
X126274755Y-64435407D01*
X126444921Y-64690079D01*
X128349921Y-66595079D01*
X128604594Y-66765245D01*
X128905000Y-66825000D01*
X131119842Y-66825000D01*
X132565000Y-68270158D01*
X132565000Y-69533127D01*
X132080000Y-69436655D01*
X131506511Y-69550729D01*
X131020330Y-69875585D01*
X130810000Y-70190366D01*
X130599670Y-69875585D01*
X130113489Y-69550729D01*
X129540000Y-69436655D01*
X128966511Y-69550729D01*
X128480330Y-69875585D01*
X128470757Y-69889913D01*
X128466762Y-69868683D01*
X128327690Y-69652559D01*
X128115490Y-69507569D01*
X127863600Y-69456560D01*
X126136400Y-69456560D01*
X125901083Y-69500838D01*
X125684959Y-69639910D01*
X125539969Y-69852110D01*
X125488960Y-70104000D01*
X125488960Y-72136000D01*
X125533238Y-72371317D01*
X125672310Y-72587441D01*
X125884510Y-72732431D01*
X126136400Y-72783440D01*
X127863600Y-72783440D01*
X128098917Y-72739162D01*
X128315041Y-72600090D01*
X128460031Y-72387890D01*
X128468400Y-72346561D01*
X128480330Y-72364415D01*
X128966511Y-72689271D01*
X129328556Y-72761286D01*
X127714921Y-74374921D01*
X127544755Y-74629593D01*
X127522762Y-74740159D01*
X127485000Y-74930000D01*
X127485000Y-92075000D01*
X127544755Y-92375407D01*
X127714921Y-92630079D01*
X129619921Y-94535079D01*
X129874594Y-94705245D01*
X130175000Y-94765000D01*
X132299242Y-94765000D01*
X132049449Y-95014357D01*
X131815267Y-95578330D01*
X131814735Y-96188991D01*
X132047932Y-96753371D01*
X132479357Y-97185551D01*
X132565000Y-97221113D01*
X132565000Y-98425000D01*
X132624755Y-98725407D01*
X132794921Y-98980079D01*
X133835000Y-100020158D01*
X133835000Y-101746549D01*
X133695743Y-101410353D01*
X133325022Y-101189584D01*
X131629605Y-102885000D01*
X133325022Y-104580416D01*
X133695743Y-104359647D01*
X133835000Y-104015675D01*
X133835000Y-105084842D01*
X132794921Y-106124921D01*
X132624755Y-106379593D01*
X132624755Y-106379594D01*
X132565000Y-106680000D01*
X132565000Y-116773484D01*
X132481629Y-116807932D01*
X132049449Y-117239357D01*
X131815267Y-117803330D01*
X131814735Y-118413991D01*
X132047932Y-118978371D01*
X132479357Y-119410551D01*
X133043330Y-119644733D01*
X133653991Y-119645265D01*
X134218371Y-119412068D01*
X134600288Y-119030818D01*
X134979357Y-119410551D01*
X135543330Y-119644733D01*
X136153991Y-119645265D01*
X136718371Y-119412068D01*
X136940668Y-119190159D01*
X137449446Y-119190159D01*
X137535852Y-119446643D01*
X138109336Y-119656458D01*
X138719460Y-119630839D01*
X139164148Y-119446643D01*
X139250554Y-119190159D01*
X138350000Y-118289605D01*
X137449446Y-119190159D01*
X136940668Y-119190159D01*
X137150551Y-118980643D01*
X137154294Y-118971628D01*
X137269841Y-119010554D01*
X138170395Y-118110000D01*
X138529605Y-118110000D01*
X139430159Y-119010554D01*
X139686643Y-118924148D01*
X139896458Y-118350664D01*
X139870839Y-117740540D01*
X139686643Y-117295852D01*
X139430159Y-117209446D01*
X138529605Y-118110000D01*
X138170395Y-118110000D01*
X137269841Y-117209446D01*
X137154786Y-117248207D01*
X137152068Y-117241629D01*
X136940650Y-117029841D01*
X137449446Y-117029841D01*
X138350000Y-117930395D01*
X139250554Y-117029841D01*
X139164148Y-116773357D01*
X138590664Y-116563542D01*
X137980540Y-116589161D01*
X137535852Y-116773357D01*
X137449446Y-117029841D01*
X136940650Y-117029841D01*
X136720643Y-116809449D01*
X136156670Y-116575267D01*
X135546009Y-116574735D01*
X134981629Y-116807932D01*
X134599712Y-117189182D01*
X134220643Y-116809449D01*
X134135000Y-116773887D01*
X134135000Y-107005158D01*
X135175079Y-105965079D01*
X135345245Y-105710407D01*
X135405000Y-105410000D01*
X135405000Y-104760022D01*
X138554584Y-104760022D01*
X138775353Y-105130743D01*
X139747012Y-105524119D01*
X140795247Y-105515713D01*
X141724647Y-105130743D01*
X141945416Y-104760022D01*
X140250000Y-103064605D01*
X138554584Y-104760022D01*
X135405000Y-104760022D01*
X135405000Y-102382012D01*
X137610881Y-102382012D01*
X137619287Y-103430247D01*
X138004257Y-104359647D01*
X138374978Y-104580416D01*
X140070395Y-102885000D01*
X140429605Y-102885000D01*
X142125022Y-104580416D01*
X142495743Y-104359647D01*
X142889119Y-103387988D01*
X142880713Y-102339753D01*
X142574298Y-101600000D01*
X143096655Y-101600000D01*
X143210729Y-102173489D01*
X143535585Y-102659670D01*
X143850366Y-102870000D01*
X143535585Y-103080330D01*
X143210729Y-103566511D01*
X143096655Y-104140000D01*
X143210729Y-104713489D01*
X143535585Y-105199670D01*
X143850366Y-105410000D01*
X143535585Y-105620330D01*
X143210729Y-106106511D01*
X143096655Y-106680000D01*
X143210729Y-107253489D01*
X143535585Y-107739670D01*
X143850366Y-107950000D01*
X143535585Y-108160330D01*
X143210729Y-108646511D01*
X143096655Y-109220000D01*
X143210729Y-109793489D01*
X143535585Y-110279670D01*
X143850366Y-110490000D01*
X143535585Y-110700330D01*
X143210729Y-111186511D01*
X143096655Y-111760000D01*
X143210729Y-112333489D01*
X143535585Y-112819670D01*
X143850366Y-113030000D01*
X143535585Y-113240330D01*
X143210729Y-113726511D01*
X143096655Y-114300000D01*
X143210729Y-114873489D01*
X143535585Y-115359670D01*
X143850366Y-115570000D01*
X143535585Y-115780330D01*
X143210729Y-116266511D01*
X143096655Y-116840000D01*
X143210729Y-117413489D01*
X143535585Y-117899670D01*
X144021766Y-118224526D01*
X144595255Y-118338600D01*
X144964745Y-118338600D01*
X145538234Y-118224526D01*
X146024415Y-117899670D01*
X146050000Y-117861379D01*
X146075585Y-117899670D01*
X146561766Y-118224526D01*
X147135255Y-118338600D01*
X147504745Y-118338600D01*
X148078234Y-118224526D01*
X148564415Y-117899670D01*
X148889271Y-117413489D01*
X149003345Y-116840000D01*
X148889271Y-116266511D01*
X148564415Y-115780330D01*
X148249634Y-115570000D01*
X148564415Y-115359670D01*
X148889271Y-114873489D01*
X149003345Y-114300000D01*
X148889271Y-113726511D01*
X148564415Y-113240330D01*
X148249634Y-113030000D01*
X148564415Y-112819670D01*
X148889271Y-112333489D01*
X149003345Y-111760000D01*
X148889271Y-111186511D01*
X148564415Y-110700330D01*
X148249634Y-110490000D01*
X148564415Y-110279670D01*
X148889271Y-109793489D01*
X149003345Y-109220000D01*
X148889271Y-108646511D01*
X148564415Y-108160330D01*
X148249634Y-107950000D01*
X148564415Y-107739670D01*
X148889271Y-107253489D01*
X149003345Y-106680000D01*
X148889271Y-106106511D01*
X148564415Y-105620330D01*
X148249634Y-105410000D01*
X148564415Y-105199670D01*
X148889271Y-104713489D01*
X149003345Y-104140000D01*
X148889271Y-103566511D01*
X148564415Y-103080330D01*
X148249634Y-102870000D01*
X148564415Y-102659670D01*
X148889271Y-102173489D01*
X149003345Y-101600000D01*
X148889271Y-101026511D01*
X148564415Y-100540330D01*
X148550087Y-100530757D01*
X148571317Y-100526762D01*
X148787441Y-100387690D01*
X148932431Y-100175490D01*
X148983440Y-99923600D01*
X148983440Y-98196400D01*
X148939162Y-97961083D01*
X148800090Y-97744959D01*
X148587890Y-97599969D01*
X148336000Y-97548960D01*
X146304000Y-97548960D01*
X146068683Y-97593238D01*
X146052901Y-97603393D01*
X146047890Y-97599969D01*
X145796000Y-97548960D01*
X143764000Y-97548960D01*
X143528683Y-97593238D01*
X143312559Y-97732310D01*
X143167569Y-97944510D01*
X143116560Y-98196400D01*
X143116560Y-99923600D01*
X143160838Y-100158917D01*
X143299910Y-100375041D01*
X143512110Y-100520031D01*
X143553439Y-100528400D01*
X143535585Y-100540330D01*
X143210729Y-101026511D01*
X143096655Y-101600000D01*
X142574298Y-101600000D01*
X142495743Y-101410353D01*
X142125022Y-101189584D01*
X140429605Y-102885000D01*
X140070395Y-102885000D01*
X138374978Y-101189584D01*
X138004257Y-101410353D01*
X137610881Y-102382012D01*
X135405000Y-102382012D01*
X135405000Y-101009978D01*
X138554584Y-101009978D01*
X140250000Y-102705395D01*
X141945416Y-101009978D01*
X141724647Y-100639257D01*
X140752988Y-100245881D01*
X139704753Y-100254287D01*
X138775353Y-100639257D01*
X138554584Y-101009978D01*
X135405000Y-101009978D01*
X135405000Y-99695000D01*
X135345245Y-99394594D01*
X135345245Y-99394593D01*
X135175079Y-99139921D01*
X134135000Y-98099842D01*
X134135000Y-97221516D01*
X134218371Y-97187068D01*
X134600288Y-96805818D01*
X134979357Y-97185551D01*
X135543330Y-97419733D01*
X136153991Y-97420265D01*
X136718371Y-97187068D01*
X136940668Y-96965159D01*
X137449446Y-96965159D01*
X137535852Y-97221643D01*
X138109336Y-97431458D01*
X138719460Y-97405839D01*
X139164148Y-97221643D01*
X139250554Y-96965159D01*
X138350000Y-96064605D01*
X137449446Y-96965159D01*
X136940668Y-96965159D01*
X137150551Y-96755643D01*
X137154294Y-96746628D01*
X137269841Y-96785554D01*
X138170395Y-95885000D01*
X138529605Y-95885000D01*
X139430159Y-96785554D01*
X139686643Y-96699148D01*
X139896458Y-96125664D01*
X139870839Y-95515540D01*
X139686643Y-95070852D01*
X139430159Y-94984446D01*
X138529605Y-95885000D01*
X138170395Y-95885000D01*
X137269841Y-94984446D01*
X137154786Y-95023207D01*
X137152068Y-95016629D01*
X136940650Y-94804841D01*
X137449446Y-94804841D01*
X138350000Y-95705395D01*
X139250554Y-94804841D01*
X139164148Y-94548357D01*
X138590664Y-94338542D01*
X137980540Y-94364161D01*
X137535852Y-94548357D01*
X137449446Y-94804841D01*
X136940650Y-94804841D01*
X136720643Y-94584449D01*
X136156670Y-94350267D01*
X136100376Y-94350218D01*
X135175079Y-93424921D01*
X134920407Y-93254755D01*
X134620000Y-93195000D01*
X134161014Y-93195000D01*
X134284838Y-92896799D01*
X134285000Y-92710000D01*
X143096655Y-92710000D01*
X143222330Y-93341810D01*
X143580222Y-93877433D01*
X144115845Y-94235325D01*
X144747655Y-94361000D01*
X144812345Y-94361000D01*
X145444155Y-94235325D01*
X145979778Y-93877433D01*
X146050000Y-93772338D01*
X146120222Y-93877433D01*
X146655845Y-94235325D01*
X147287655Y-94361000D01*
X147352345Y-94361000D01*
X147984155Y-94235325D01*
X148519778Y-93877433D01*
X148877670Y-93341810D01*
X149003345Y-92710000D01*
X148877670Y-92078190D01*
X148653034Y-91741999D01*
X148695698Y-91724327D01*
X148874327Y-91545699D01*
X148971000Y-91312310D01*
X148971000Y-90455750D01*
X148812250Y-90297000D01*
X147447000Y-90297000D01*
X147447000Y-90317000D01*
X147193000Y-90317000D01*
X147193000Y-90297000D01*
X144907000Y-90297000D01*
X144907000Y-90317000D01*
X144653000Y-90317000D01*
X144653000Y-90297000D01*
X143287750Y-90297000D01*
X143129000Y-90455750D01*
X143129000Y-91312310D01*
X143225673Y-91545699D01*
X143404302Y-91724327D01*
X143446966Y-91741999D01*
X143222330Y-92078190D01*
X143096655Y-92710000D01*
X134285000Y-92710000D01*
X134285162Y-92524833D01*
X134143117Y-92181057D01*
X134135000Y-92172926D01*
X134135000Y-89027690D01*
X143129000Y-89027690D01*
X143129000Y-89884250D01*
X143287750Y-90043000D01*
X144653000Y-90043000D01*
X144653000Y-88677750D01*
X144907000Y-88677750D01*
X144907000Y-90043000D01*
X147193000Y-90043000D01*
X147193000Y-88677750D01*
X147447000Y-88677750D01*
X147447000Y-90043000D01*
X148812250Y-90043000D01*
X148971000Y-89884250D01*
X148971000Y-89027690D01*
X148874327Y-88794301D01*
X148695698Y-88615673D01*
X148462309Y-88519000D01*
X147605750Y-88519000D01*
X147447000Y-88677750D01*
X147193000Y-88677750D01*
X147034250Y-88519000D01*
X146177691Y-88519000D01*
X146050000Y-88571891D01*
X145922309Y-88519000D01*
X145065750Y-88519000D01*
X144907000Y-88677750D01*
X144653000Y-88677750D01*
X144494250Y-88519000D01*
X143637691Y-88519000D01*
X143404302Y-88615673D01*
X143225673Y-88794301D01*
X143129000Y-89027690D01*
X134135000Y-89027690D01*
X134135000Y-87955158D01*
X135175079Y-86915079D01*
X135345245Y-86660407D01*
X135405000Y-86360000D01*
X135405000Y-82535022D01*
X138554584Y-82535022D01*
X138775353Y-82905743D01*
X139747012Y-83299119D01*
X140795247Y-83290713D01*
X141724647Y-82905743D01*
X141945416Y-82535022D01*
X140250000Y-80839605D01*
X138554584Y-82535022D01*
X135405000Y-82535022D01*
X135405000Y-80157012D01*
X137610881Y-80157012D01*
X137619287Y-81205247D01*
X138004257Y-82134647D01*
X138374978Y-82355416D01*
X140070395Y-80660000D01*
X140429605Y-80660000D01*
X142125022Y-82355416D01*
X142421119Y-82179086D01*
X144081269Y-82179086D01*
X144283854Y-82669380D01*
X144658647Y-83044827D01*
X144996446Y-83185094D01*
X144660620Y-83323854D01*
X144285173Y-83698647D01*
X144081732Y-84188587D01*
X144081269Y-84719086D01*
X144283854Y-85209380D01*
X144658647Y-85584827D01*
X145148587Y-85788268D01*
X145679086Y-85788731D01*
X146169380Y-85586146D01*
X146366681Y-85389188D01*
X147200417Y-85389188D01*
X147262071Y-85624800D01*
X147762480Y-85800927D01*
X148292199Y-85772148D01*
X148647929Y-85624800D01*
X148709583Y-85389188D01*
X147955000Y-84634605D01*
X147200417Y-85389188D01*
X146366681Y-85389188D01*
X146544827Y-85211353D01*
X146678314Y-84889882D01*
X146785200Y-85147929D01*
X147020812Y-85209583D01*
X147775395Y-84455000D01*
X147020812Y-83700417D01*
X146785200Y-83762071D01*
X146686917Y-84041312D01*
X146546146Y-83700620D01*
X146171353Y-83325173D01*
X145833554Y-83184906D01*
X146169380Y-83046146D01*
X146366681Y-82849188D01*
X147200417Y-82849188D01*
X147262071Y-83084800D01*
X147523629Y-83176859D01*
X147262071Y-83285200D01*
X147200417Y-83520812D01*
X147955000Y-84275395D01*
X148709583Y-83520812D01*
X148647929Y-83285200D01*
X148386371Y-83193141D01*
X148647929Y-83084800D01*
X148709583Y-82849188D01*
X147955000Y-82094605D01*
X147200417Y-82849188D01*
X146366681Y-82849188D01*
X146544827Y-82671353D01*
X146678314Y-82349882D01*
X146785200Y-82607929D01*
X147020812Y-82669583D01*
X147775395Y-81915000D01*
X147020812Y-81160417D01*
X146785200Y-81222071D01*
X146686917Y-81501312D01*
X146546146Y-81160620D01*
X146366652Y-80980812D01*
X147200417Y-80980812D01*
X147955000Y-81735395D01*
X148709583Y-80980812D01*
X148647929Y-80745200D01*
X148147520Y-80569073D01*
X147617801Y-80597852D01*
X147262071Y-80745200D01*
X147200417Y-80980812D01*
X146366652Y-80980812D01*
X146171353Y-80785173D01*
X145681413Y-80581732D01*
X145150914Y-80581269D01*
X144660620Y-80783854D01*
X144285173Y-81158647D01*
X144081732Y-81648587D01*
X144081269Y-82179086D01*
X142421119Y-82179086D01*
X142495743Y-82134647D01*
X142889119Y-81162988D01*
X142880713Y-80114753D01*
X142495743Y-79185353D01*
X142125022Y-78964584D01*
X140429605Y-80660000D01*
X140070395Y-80660000D01*
X138374978Y-78964584D01*
X138004257Y-79185353D01*
X137610881Y-80157012D01*
X135405000Y-80157012D01*
X135405000Y-78784978D01*
X138554584Y-78784978D01*
X140250000Y-80480395D01*
X141945416Y-78784978D01*
X141724647Y-78414257D01*
X140752988Y-78020881D01*
X139704753Y-78029287D01*
X138775353Y-78414257D01*
X138554584Y-78784978D01*
X135405000Y-78784978D01*
X135405000Y-77470000D01*
X135365861Y-77273238D01*
X135345245Y-77169593D01*
X135175079Y-76914921D01*
X134135000Y-75874842D01*
X134135000Y-74996516D01*
X134218371Y-74962068D01*
X134600288Y-74580818D01*
X134979357Y-74960551D01*
X135543330Y-75194733D01*
X136153991Y-75195265D01*
X136718371Y-74962068D01*
X136940668Y-74740159D01*
X137449446Y-74740159D01*
X137535852Y-74996643D01*
X138109336Y-75206458D01*
X138719460Y-75180839D01*
X139164148Y-74996643D01*
X139250554Y-74740159D01*
X138350000Y-73839605D01*
X137449446Y-74740159D01*
X136940668Y-74740159D01*
X137150551Y-74530643D01*
X137154294Y-74521628D01*
X137269841Y-74560554D01*
X138170395Y-73660000D01*
X138156253Y-73645858D01*
X138335858Y-73466253D01*
X138350000Y-73480395D01*
X138364143Y-73466253D01*
X138543748Y-73645858D01*
X138529605Y-73660000D01*
X139430159Y-74560554D01*
X139686643Y-74474148D01*
X139896458Y-73900664D01*
X139870839Y-73290540D01*
X139686643Y-72845852D01*
X139430161Y-72759447D01*
X139438316Y-72751292D01*
X139700000Y-72803345D01*
X140273489Y-72689271D01*
X140759670Y-72364415D01*
X140970000Y-72049634D01*
X141180330Y-72364415D01*
X141491233Y-72572154D01*
X141514755Y-72690407D01*
X141684921Y-72945079D01*
X142725000Y-73985158D01*
X142725000Y-77567494D01*
X142717808Y-77574673D01*
X142575162Y-77918201D01*
X142574838Y-78290167D01*
X142716883Y-78633943D01*
X142979673Y-78897192D01*
X143323201Y-79039838D01*
X143695167Y-79040162D01*
X144038943Y-78898117D01*
X144302192Y-78635327D01*
X144444838Y-78291799D01*
X144444978Y-78130771D01*
X144587480Y-78180927D01*
X145117199Y-78152148D01*
X145472929Y-78004800D01*
X145534583Y-77769188D01*
X144780000Y-77014605D01*
X144765858Y-77028748D01*
X144586253Y-76849143D01*
X144600395Y-76835000D01*
X144586253Y-76820858D01*
X144765858Y-76641253D01*
X144780000Y-76655395D01*
X144794143Y-76641253D01*
X144973748Y-76820858D01*
X144959605Y-76835000D01*
X145455125Y-77330520D01*
X145494921Y-77390079D01*
X146291560Y-78186718D01*
X146291560Y-79603600D01*
X146335838Y-79838917D01*
X146474910Y-80055041D01*
X146687110Y-80200031D01*
X146939000Y-80251040D01*
X148971000Y-80251040D01*
X149150000Y-80217359D01*
X149150000Y-81282909D01*
X149124800Y-81222071D01*
X148889188Y-81160417D01*
X148134605Y-81915000D01*
X148889188Y-82669583D01*
X149124800Y-82607929D01*
X149150000Y-82536331D01*
X149150000Y-83822909D01*
X149124800Y-83762071D01*
X148889188Y-83700417D01*
X148134605Y-84455000D01*
X148889188Y-85209583D01*
X149124800Y-85147929D01*
X149150000Y-85076331D01*
X149150000Y-140260000D01*
X127739608Y-140260000D01*
X127628123Y-140148515D01*
X128002168Y-139923846D01*
X128089971Y-139707321D01*
X128212310Y-139897441D01*
X128424510Y-140042431D01*
X128676400Y-140093440D01*
X130403600Y-140093440D01*
X130638917Y-140049162D01*
X130855041Y-139910090D01*
X131000031Y-139697890D01*
X131008400Y-139656561D01*
X131020330Y-139674415D01*
X131506511Y-139999271D01*
X132080000Y-140113345D01*
X132653489Y-139999271D01*
X133139670Y-139674415D01*
X133350000Y-139359634D01*
X133560330Y-139674415D01*
X134046511Y-139999271D01*
X134620000Y-140113345D01*
X135193489Y-139999271D01*
X135679670Y-139674415D01*
X135890000Y-139359634D01*
X136100330Y-139674415D01*
X136586511Y-139999271D01*
X137160000Y-140113345D01*
X137733489Y-139999271D01*
X138219670Y-139674415D01*
X138430000Y-139359634D01*
X138640330Y-139674415D01*
X139126511Y-139999271D01*
X139700000Y-140113345D01*
X140273489Y-139999271D01*
X140759670Y-139674415D01*
X140970000Y-139359634D01*
X141180330Y-139674415D01*
X141666511Y-139999271D01*
X142240000Y-140113345D01*
X142813489Y-139999271D01*
X143299670Y-139674415D01*
X143510000Y-139359634D01*
X143720330Y-139674415D01*
X144206511Y-139999271D01*
X144780000Y-140113345D01*
X145353489Y-139999271D01*
X145839670Y-139674415D01*
X146050000Y-139359634D01*
X146260330Y-139674415D01*
X146746511Y-139999271D01*
X147320000Y-140113345D01*
X147893489Y-139999271D01*
X148379670Y-139674415D01*
X148704526Y-139188234D01*
X148818600Y-138614745D01*
X148818600Y-138245255D01*
X148704526Y-137671766D01*
X148379670Y-137185585D01*
X147893489Y-136860729D01*
X147320000Y-136746655D01*
X146746511Y-136860729D01*
X146260330Y-137185585D01*
X146050000Y-137500366D01*
X145839670Y-137185585D01*
X145353489Y-136860729D01*
X144780000Y-136746655D01*
X144206511Y-136860729D01*
X143720330Y-137185585D01*
X143510000Y-137500366D01*
X143299670Y-137185585D01*
X142813489Y-136860729D01*
X142240000Y-136746655D01*
X141666511Y-136860729D01*
X141180330Y-137185585D01*
X140970000Y-137500366D01*
X140759670Y-137185585D01*
X140273489Y-136860729D01*
X139700000Y-136746655D01*
X139126511Y-136860729D01*
X138640330Y-137185585D01*
X138430000Y-137500366D01*
X138219670Y-137185585D01*
X137733489Y-136860729D01*
X137160000Y-136746655D01*
X136586511Y-136860729D01*
X136100330Y-137185585D01*
X135890000Y-137500366D01*
X135679670Y-137185585D01*
X135193489Y-136860729D01*
X134620000Y-136746655D01*
X134046511Y-136860729D01*
X133560330Y-137185585D01*
X133350000Y-137500366D01*
X133139670Y-137185585D01*
X132653489Y-136860729D01*
X132080000Y-136746655D01*
X131506511Y-136860729D01*
X131020330Y-137185585D01*
X131010757Y-137199913D01*
X131006762Y-137178683D01*
X130867690Y-136962559D01*
X130655490Y-136817569D01*
X130403600Y-136766560D01*
X128676400Y-136766560D01*
X128441083Y-136810838D01*
X128224959Y-136949910D01*
X128089802Y-137147720D01*
X128002168Y-136936154D01*
X127628121Y-136711484D01*
X125909605Y-138430000D01*
X125923748Y-138444143D01*
X125744143Y-138623748D01*
X125730000Y-138609605D01*
X125715858Y-138623748D01*
X125536253Y-138444143D01*
X125550395Y-138430000D01*
X125536253Y-138415858D01*
X125715858Y-138236253D01*
X125730000Y-138250395D01*
X127448516Y-136531879D01*
X127223846Y-136157832D01*
X126240612Y-135759120D01*
X125179643Y-135767025D01*
X124236154Y-136157832D01*
X124011485Y-136531877D01*
X123900000Y-136420392D01*
X123900000Y-132334000D01*
X125488960Y-132334000D01*
X125488960Y-134366000D01*
X125533238Y-134601317D01*
X125672310Y-134817441D01*
X125884510Y-134962431D01*
X126136400Y-135013440D01*
X127863600Y-135013440D01*
X128098917Y-134969162D01*
X128315041Y-134830090D01*
X128460031Y-134617890D01*
X128468400Y-134576561D01*
X128480330Y-134594415D01*
X128966511Y-134919271D01*
X129540000Y-135033345D01*
X130113489Y-134919271D01*
X130599670Y-134594415D01*
X130810000Y-134279634D01*
X131020330Y-134594415D01*
X131506511Y-134919271D01*
X132080000Y-135033345D01*
X132653489Y-134919271D01*
X133139670Y-134594415D01*
X133350000Y-134279634D01*
X133560330Y-134594415D01*
X134046511Y-134919271D01*
X134620000Y-135033345D01*
X135193489Y-134919271D01*
X135679670Y-134594415D01*
X135890000Y-134279634D01*
X136100330Y-134594415D01*
X136586511Y-134919271D01*
X137160000Y-135033345D01*
X137733489Y-134919271D01*
X138219670Y-134594415D01*
X138430000Y-134279634D01*
X138640330Y-134594415D01*
X139126511Y-134919271D01*
X139700000Y-135033345D01*
X140273489Y-134919271D01*
X140759670Y-134594415D01*
X140970000Y-134279634D01*
X141180330Y-134594415D01*
X141666511Y-134919271D01*
X142240000Y-135033345D01*
X142813489Y-134919271D01*
X143299670Y-134594415D01*
X143510000Y-134279634D01*
X143720330Y-134594415D01*
X144206511Y-134919271D01*
X144780000Y-135033345D01*
X145353489Y-134919271D01*
X145839670Y-134594415D01*
X146164526Y-134108234D01*
X146278600Y-133534745D01*
X146278600Y-133165255D01*
X146164526Y-132591766D01*
X145839670Y-132105585D01*
X145353489Y-131780729D01*
X144780000Y-131666655D01*
X144206511Y-131780729D01*
X143720330Y-132105585D01*
X143510000Y-132420366D01*
X143299670Y-132105585D01*
X142813489Y-131780729D01*
X142240000Y-131666655D01*
X141666511Y-131780729D01*
X141180330Y-132105585D01*
X140970000Y-132420366D01*
X140759670Y-132105585D01*
X140273489Y-131780729D01*
X139700000Y-131666655D01*
X139126511Y-131780729D01*
X138640330Y-132105585D01*
X138430000Y-132420366D01*
X138219670Y-132105585D01*
X137733489Y-131780729D01*
X137160000Y-131666655D01*
X136586511Y-131780729D01*
X136100330Y-132105585D01*
X135890000Y-132420366D01*
X135679670Y-132105585D01*
X135193489Y-131780729D01*
X134620000Y-131666655D01*
X134046511Y-131780729D01*
X133560330Y-132105585D01*
X133350000Y-132420366D01*
X133139670Y-132105585D01*
X132653489Y-131780729D01*
X132080000Y-131666655D01*
X131506511Y-131780729D01*
X131020330Y-132105585D01*
X130810000Y-132420366D01*
X130599670Y-132105585D01*
X130113489Y-131780729D01*
X129540000Y-131666655D01*
X128966511Y-131780729D01*
X128480330Y-132105585D01*
X128470757Y-132119913D01*
X128466762Y-132098683D01*
X128327690Y-131882559D01*
X128115490Y-131737569D01*
X127863600Y-131686560D01*
X126136400Y-131686560D01*
X125901083Y-131730838D01*
X125684959Y-131869910D01*
X125539969Y-132082110D01*
X125488960Y-132334000D01*
X123900000Y-132334000D01*
X123900000Y-126985022D01*
X129754584Y-126985022D01*
X129975353Y-127355743D01*
X130947012Y-127749119D01*
X131995247Y-127740713D01*
X132924647Y-127355743D01*
X133145416Y-126985022D01*
X138554584Y-126985022D01*
X138775353Y-127355743D01*
X139747012Y-127749119D01*
X140795247Y-127740713D01*
X141724647Y-127355743D01*
X141945416Y-126985022D01*
X140250000Y-125289605D01*
X138554584Y-126985022D01*
X133145416Y-126985022D01*
X131450000Y-125289605D01*
X129754584Y-126985022D01*
X123900000Y-126985022D01*
X123900000Y-124607012D01*
X128810881Y-124607012D01*
X128819287Y-125655247D01*
X129204257Y-126584647D01*
X129574978Y-126805416D01*
X131270395Y-125110000D01*
X131629605Y-125110000D01*
X133325022Y-126805416D01*
X133695743Y-126584647D01*
X134089119Y-125612988D01*
X134081052Y-124607012D01*
X137610881Y-124607012D01*
X137619287Y-125655247D01*
X138004257Y-126584647D01*
X138374978Y-126805416D01*
X140070395Y-125110000D01*
X140429605Y-125110000D01*
X142125022Y-126805416D01*
X142495743Y-126584647D01*
X142889119Y-125612988D01*
X142880713Y-124564753D01*
X142495743Y-123635353D01*
X142125022Y-123414584D01*
X140429605Y-125110000D01*
X140070395Y-125110000D01*
X138374978Y-123414584D01*
X138004257Y-123635353D01*
X137610881Y-124607012D01*
X134081052Y-124607012D01*
X134080713Y-124564753D01*
X133695743Y-123635353D01*
X133325022Y-123414584D01*
X131629605Y-125110000D01*
X131270395Y-125110000D01*
X129574978Y-123414584D01*
X129204257Y-123635353D01*
X128810881Y-124607012D01*
X123900000Y-124607012D01*
X123900000Y-123234978D01*
X129754584Y-123234978D01*
X131450000Y-124930395D01*
X133145416Y-123234978D01*
X138554584Y-123234978D01*
X140250000Y-124930395D01*
X141945416Y-123234978D01*
X141724647Y-122864257D01*
X140752988Y-122470881D01*
X139704753Y-122479287D01*
X138775353Y-122864257D01*
X138554584Y-123234978D01*
X133145416Y-123234978D01*
X132924647Y-122864257D01*
X131952988Y-122470881D01*
X130904753Y-122479287D01*
X129975353Y-122864257D01*
X129754584Y-123234978D01*
X123900000Y-123234978D01*
X123900000Y-104760022D01*
X129754584Y-104760022D01*
X129975353Y-105130743D01*
X130947012Y-105524119D01*
X131995247Y-105515713D01*
X132924647Y-105130743D01*
X133145416Y-104760022D01*
X131450000Y-103064605D01*
X129754584Y-104760022D01*
X123900000Y-104760022D01*
X123900000Y-102382012D01*
X128810881Y-102382012D01*
X128819287Y-103430247D01*
X129204257Y-104359647D01*
X129574978Y-104580416D01*
X131270395Y-102885000D01*
X129574978Y-101189584D01*
X129204257Y-101410353D01*
X128810881Y-102382012D01*
X123900000Y-102382012D01*
X123900000Y-101009978D01*
X129754584Y-101009978D01*
X131450000Y-102705395D01*
X133145416Y-101009978D01*
X132924647Y-100639257D01*
X131952988Y-100245881D01*
X130904753Y-100254287D01*
X129975353Y-100639257D01*
X129754584Y-101009978D01*
X123900000Y-101009978D01*
X123900000Y-50875000D01*
X127722286Y-50875000D01*
X127714921Y-50879921D01*
G36*
X132046415Y-72796664D02*
X131815267Y-73353330D01*
X131814735Y-73963991D01*
X132047932Y-74528371D01*
X132479357Y-74960551D01*
X132565000Y-74996113D01*
X132565000Y-76200000D01*
X132624755Y-76500407D01*
X132794921Y-76755079D01*
X133835000Y-77795158D01*
X133835000Y-79521549D01*
X133695743Y-79185353D01*
X133325022Y-78964584D01*
X131629605Y-80660000D01*
X133325022Y-82355416D01*
X133695743Y-82134647D01*
X133835000Y-81790675D01*
X133835000Y-86034842D01*
X132794921Y-87074921D01*
X132624755Y-87329593D01*
X132624755Y-87329594D01*
X132565000Y-87630000D01*
X132565000Y-92172494D01*
X132557808Y-92179673D01*
X132415162Y-92523201D01*
X132414838Y-92895167D01*
X132538726Y-93195000D01*
X130500158Y-93195000D01*
X129055000Y-91749842D01*
X129055000Y-82535022D01*
X129754584Y-82535022D01*
X129975353Y-82905743D01*
X130947012Y-83299119D01*
X131995247Y-83290713D01*
X132924647Y-82905743D01*
X133145416Y-82535022D01*
X131450000Y-80839605D01*
X129754584Y-82535022D01*
X129055000Y-82535022D01*
X129055000Y-81774309D01*
X129204257Y-82134647D01*
X129574978Y-82355416D01*
X131270395Y-80660000D01*
X129574978Y-78964584D01*
X129204257Y-79185353D01*
X129055000Y-79554025D01*
X129055000Y-78784978D01*
X129754584Y-78784978D01*
X131450000Y-80480395D01*
X133145416Y-78784978D01*
X132924647Y-78414257D01*
X131952988Y-78020881D01*
X130904753Y-78029287D01*
X129975353Y-78414257D01*
X129754584Y-78784978D01*
X129055000Y-78784978D01*
X129055000Y-75255158D01*
X131601911Y-72708247D01*
X132046415Y-72796664D01*
X132046415Y-72796664D01*
G37*
X132046415Y-72796664D02*
X131815267Y-73353330D01*
X131814735Y-73963991D01*
X132047932Y-74528371D01*
X132479357Y-74960551D01*
X132565000Y-74996113D01*
X132565000Y-76200000D01*
X132624755Y-76500407D01*
X132794921Y-76755079D01*
X133835000Y-77795158D01*
X133835000Y-79521549D01*
X133695743Y-79185353D01*
X133325022Y-78964584D01*
X131629605Y-80660000D01*
X133325022Y-82355416D01*
X133695743Y-82134647D01*
X133835000Y-81790675D01*
X133835000Y-86034842D01*
X132794921Y-87074921D01*
X132624755Y-87329593D01*
X132624755Y-87329594D01*
X132565000Y-87630000D01*
X132565000Y-92172494D01*
X132557808Y-92179673D01*
X132415162Y-92523201D01*
X132414838Y-92895167D01*
X132538726Y-93195000D01*
X130500158Y-93195000D01*
X129055000Y-91749842D01*
X129055000Y-82535022D01*
X129754584Y-82535022D01*
X129975353Y-82905743D01*
X130947012Y-83299119D01*
X131995247Y-83290713D01*
X132924647Y-82905743D01*
X133145416Y-82535022D01*
X131450000Y-80839605D01*
X129754584Y-82535022D01*
X129055000Y-82535022D01*
X129055000Y-81774309D01*
X129204257Y-82134647D01*
X129574978Y-82355416D01*
X131270395Y-80660000D01*
X129574978Y-78964584D01*
X129204257Y-79185353D01*
X129055000Y-79554025D01*
X129055000Y-78784978D01*
X129754584Y-78784978D01*
X131450000Y-80480395D01*
X133145416Y-78784978D01*
X132924647Y-78414257D01*
X131952988Y-78020881D01*
X130904753Y-78029287D01*
X129975353Y-78414257D01*
X129754584Y-78784978D01*
X129055000Y-78784978D01*
X129055000Y-75255158D01*
X131601911Y-72708247D01*
X132046415Y-72796664D01*
G36*
X149150000Y-70027312D02*
X148713234Y-69735474D01*
X148139745Y-69621400D01*
X147770255Y-69621400D01*
X147196766Y-69735474D01*
X146710585Y-70060330D01*
X146385729Y-70546511D01*
X146278600Y-71085085D01*
X146278600Y-70935255D01*
X146164526Y-70361766D01*
X145839670Y-69875585D01*
X145353489Y-69550729D01*
X144780000Y-69436655D01*
X144206511Y-69550729D01*
X143720330Y-69875585D01*
X143510000Y-70190366D01*
X143299670Y-69875585D01*
X142813489Y-69550729D01*
X142240000Y-69436655D01*
X141666511Y-69550729D01*
X141180330Y-69875585D01*
X140970000Y-70190366D01*
X140759670Y-69875585D01*
X140273489Y-69550729D01*
X139700000Y-69436655D01*
X139126511Y-69550729D01*
X138640330Y-69875585D01*
X138430000Y-70190366D01*
X138219670Y-69875585D01*
X137733489Y-69550729D01*
X137160000Y-69436655D01*
X136586511Y-69550729D01*
X136100330Y-69875585D01*
X135890000Y-70190366D01*
X135679670Y-69875585D01*
X135193489Y-69550729D01*
X134620000Y-69436655D01*
X134135000Y-69533127D01*
X134135000Y-68209086D01*
X135826269Y-68209086D01*
X136028854Y-68699380D01*
X136403647Y-69074827D01*
X136893587Y-69278268D01*
X137424086Y-69278731D01*
X137914380Y-69076146D01*
X138111681Y-68879188D01*
X138945417Y-68879188D01*
X139007071Y-69114800D01*
X139507480Y-69290927D01*
X140037199Y-69262148D01*
X140392929Y-69114800D01*
X140454583Y-68879188D01*
X139700000Y-68124605D01*
X138945417Y-68879188D01*
X138111681Y-68879188D01*
X138289827Y-68701353D01*
X138423314Y-68379882D01*
X138530200Y-68637929D01*
X138765812Y-68699583D01*
X139520395Y-67945000D01*
X139879605Y-67945000D01*
X140634188Y-68699583D01*
X140869800Y-68637929D01*
X141045927Y-68137520D01*
X141035094Y-67938121D01*
X143061484Y-67938121D01*
X143286154Y-68312168D01*
X144269388Y-68710880D01*
X145330357Y-68702975D01*
X146273846Y-68312168D01*
X146498516Y-67938121D01*
X144780000Y-66219605D01*
X143061484Y-67938121D01*
X141035094Y-67938121D01*
X141017148Y-67607801D01*
X140869800Y-67252071D01*
X140634188Y-67190417D01*
X139879605Y-67945000D01*
X139520395Y-67945000D01*
X138765812Y-67190417D01*
X138530200Y-67252071D01*
X138431917Y-67531312D01*
X138291146Y-67190620D01*
X138111652Y-67010812D01*
X138945417Y-67010812D01*
X139700000Y-67765395D01*
X140454583Y-67010812D01*
X140392929Y-66775200D01*
X139892520Y-66599073D01*
X139362801Y-66627852D01*
X139007071Y-66775200D01*
X138945417Y-67010812D01*
X138111652Y-67010812D01*
X137916353Y-66815173D01*
X137426413Y-66611732D01*
X136895914Y-66611269D01*
X136405620Y-66813854D01*
X136030173Y-67188647D01*
X135826732Y-67678587D01*
X135826269Y-68209086D01*
X134135000Y-68209086D01*
X134135000Y-67945000D01*
X134075245Y-67644594D01*
X133905079Y-67389921D01*
X132044546Y-65529388D01*
X142109120Y-65529388D01*
X142117025Y-66590357D01*
X142507832Y-67533846D01*
X142881879Y-67758516D01*
X144600395Y-66040000D01*
X144959605Y-66040000D01*
X146678121Y-67758516D01*
X147052168Y-67533846D01*
X147450880Y-66550612D01*
X147442975Y-65489643D01*
X147052168Y-64546154D01*
X146678121Y-64321484D01*
X144959605Y-66040000D01*
X144600395Y-66040000D01*
X142881879Y-64321484D01*
X142507832Y-64546154D01*
X142109120Y-65529388D01*
X132044546Y-65529388D01*
X132000079Y-65484921D01*
X131745407Y-65314755D01*
X131445000Y-65255000D01*
X129230158Y-65255000D01*
X128117037Y-64141879D01*
X143061484Y-64141879D01*
X144780000Y-65860395D01*
X146498516Y-64141879D01*
X146273846Y-63767832D01*
X145290612Y-63369120D01*
X144229643Y-63377025D01*
X143286154Y-63767832D01*
X143061484Y-64141879D01*
X128117037Y-64141879D01*
X127785000Y-63809842D01*
X127785000Y-60310022D01*
X129754584Y-60310022D01*
X129975353Y-60680743D01*
X130947012Y-61074119D01*
X131995247Y-61065713D01*
X132924647Y-60680743D01*
X133145416Y-60310022D01*
X138554584Y-60310022D01*
X138775353Y-60680743D01*
X139747012Y-61074119D01*
X140795247Y-61065713D01*
X141724647Y-60680743D01*
X141945416Y-60310022D01*
X140250000Y-58614605D01*
X138554584Y-60310022D01*
X133145416Y-60310022D01*
X131450000Y-58614605D01*
X129754584Y-60310022D01*
X127785000Y-60310022D01*
X127785000Y-57932012D01*
X128810881Y-57932012D01*
X128819287Y-58980247D01*
X129204257Y-59909647D01*
X129574978Y-60130416D01*
X131270395Y-58435000D01*
X131629605Y-58435000D01*
X133325022Y-60130416D01*
X133695743Y-59909647D01*
X134089119Y-58937988D01*
X134081052Y-57932012D01*
X137610881Y-57932012D01*
X137619287Y-58980247D01*
X138004257Y-59909647D01*
X138374978Y-60130416D01*
X140070395Y-58435000D01*
X140429605Y-58435000D01*
X142125022Y-60130416D01*
X142495743Y-59909647D01*
X142889119Y-58937988D01*
X142880713Y-57889753D01*
X142495743Y-56960353D01*
X142125022Y-56739584D01*
X140429605Y-58435000D01*
X140070395Y-58435000D01*
X138374978Y-56739584D01*
X138004257Y-56960353D01*
X137610881Y-57932012D01*
X134081052Y-57932012D01*
X134080713Y-57889753D01*
X133695743Y-56960353D01*
X133325022Y-56739584D01*
X131629605Y-58435000D01*
X131270395Y-58435000D01*
X129574978Y-56739584D01*
X129204257Y-56960353D01*
X128810881Y-57932012D01*
X127785000Y-57932012D01*
X127785000Y-56559978D01*
X129754584Y-56559978D01*
X131450000Y-58255395D01*
X133145416Y-56559978D01*
X138554584Y-56559978D01*
X140250000Y-58255395D01*
X141945416Y-56559978D01*
X141724647Y-56189257D01*
X140752988Y-55795881D01*
X139704753Y-55804287D01*
X138775353Y-56189257D01*
X138554584Y-56559978D01*
X133145416Y-56559978D01*
X132924647Y-56189257D01*
X131952988Y-55795881D01*
X130904753Y-55804287D01*
X129975353Y-56189257D01*
X129754584Y-56559978D01*
X127785000Y-56559978D01*
X127785000Y-54786014D01*
X128083201Y-54909838D01*
X128455167Y-54910162D01*
X128798943Y-54768117D01*
X128807074Y-54760000D01*
X133985000Y-54760000D01*
X134285407Y-54700245D01*
X134540079Y-54530079D01*
X136099940Y-52970218D01*
X136153991Y-52970265D01*
X136718371Y-52737068D01*
X136940668Y-52515159D01*
X137449446Y-52515159D01*
X137535852Y-52771643D01*
X138109336Y-52981458D01*
X138719460Y-52955839D01*
X139164148Y-52771643D01*
X139250554Y-52515159D01*
X138350000Y-51614605D01*
X137449446Y-52515159D01*
X136940668Y-52515159D01*
X137150551Y-52305643D01*
X137154294Y-52296628D01*
X137269841Y-52335554D01*
X138170395Y-51435000D01*
X138156253Y-51420858D01*
X138335858Y-51241253D01*
X138350000Y-51255395D01*
X138364143Y-51241253D01*
X138543748Y-51420858D01*
X138529605Y-51435000D01*
X139430159Y-52335554D01*
X139686643Y-52249148D01*
X139896458Y-51675664D01*
X139870839Y-51065540D01*
X139791915Y-50875000D01*
X149150000Y-50875000D01*
X149150000Y-70027312D01*
X149150000Y-70027312D01*
G37*
X149150000Y-70027312D02*
X148713234Y-69735474D01*
X148139745Y-69621400D01*
X147770255Y-69621400D01*
X147196766Y-69735474D01*
X146710585Y-70060330D01*
X146385729Y-70546511D01*
X146278600Y-71085085D01*
X146278600Y-70935255D01*
X146164526Y-70361766D01*
X145839670Y-69875585D01*
X145353489Y-69550729D01*
X144780000Y-69436655D01*
X144206511Y-69550729D01*
X143720330Y-69875585D01*
X143510000Y-70190366D01*
X143299670Y-69875585D01*
X142813489Y-69550729D01*
X142240000Y-69436655D01*
X141666511Y-69550729D01*
X141180330Y-69875585D01*
X140970000Y-70190366D01*
X140759670Y-69875585D01*
X140273489Y-69550729D01*
X139700000Y-69436655D01*
X139126511Y-69550729D01*
X138640330Y-69875585D01*
X138430000Y-70190366D01*
X138219670Y-69875585D01*
X137733489Y-69550729D01*
X137160000Y-69436655D01*
X136586511Y-69550729D01*
X136100330Y-69875585D01*
X135890000Y-70190366D01*
X135679670Y-69875585D01*
X135193489Y-69550729D01*
X134620000Y-69436655D01*
X134135000Y-69533127D01*
X134135000Y-68209086D01*
X135826269Y-68209086D01*
X136028854Y-68699380D01*
X136403647Y-69074827D01*
X136893587Y-69278268D01*
X137424086Y-69278731D01*
X137914380Y-69076146D01*
X138111681Y-68879188D01*
X138945417Y-68879188D01*
X139007071Y-69114800D01*
X139507480Y-69290927D01*
X140037199Y-69262148D01*
X140392929Y-69114800D01*
X140454583Y-68879188D01*
X139700000Y-68124605D01*
X138945417Y-68879188D01*
X138111681Y-68879188D01*
X138289827Y-68701353D01*
X138423314Y-68379882D01*
X138530200Y-68637929D01*
X138765812Y-68699583D01*
X139520395Y-67945000D01*
X139879605Y-67945000D01*
X140634188Y-68699583D01*
X140869800Y-68637929D01*
X141045927Y-68137520D01*
X141035094Y-67938121D01*
X143061484Y-67938121D01*
X143286154Y-68312168D01*
X144269388Y-68710880D01*
X145330357Y-68702975D01*
X146273846Y-68312168D01*
X146498516Y-67938121D01*
X144780000Y-66219605D01*
X143061484Y-67938121D01*
X141035094Y-67938121D01*
X141017148Y-67607801D01*
X140869800Y-67252071D01*
X140634188Y-67190417D01*
X139879605Y-67945000D01*
X139520395Y-67945000D01*
X138765812Y-67190417D01*
X138530200Y-67252071D01*
X138431917Y-67531312D01*
X138291146Y-67190620D01*
X138111652Y-67010812D01*
X138945417Y-67010812D01*
X139700000Y-67765395D01*
X140454583Y-67010812D01*
X140392929Y-66775200D01*
X139892520Y-66599073D01*
X139362801Y-66627852D01*
X139007071Y-66775200D01*
X138945417Y-67010812D01*
X138111652Y-67010812D01*
X137916353Y-66815173D01*
X137426413Y-66611732D01*
X136895914Y-66611269D01*
X136405620Y-66813854D01*
X136030173Y-67188647D01*
X135826732Y-67678587D01*
X135826269Y-68209086D01*
X134135000Y-68209086D01*
X134135000Y-67945000D01*
X134075245Y-67644594D01*
X133905079Y-67389921D01*
X132044546Y-65529388D01*
X142109120Y-65529388D01*
X142117025Y-66590357D01*
X142507832Y-67533846D01*
X142881879Y-67758516D01*
X144600395Y-66040000D01*
X144959605Y-66040000D01*
X146678121Y-67758516D01*
X147052168Y-67533846D01*
X147450880Y-66550612D01*
X147442975Y-65489643D01*
X147052168Y-64546154D01*
X146678121Y-64321484D01*
X144959605Y-66040000D01*
X144600395Y-66040000D01*
X142881879Y-64321484D01*
X142507832Y-64546154D01*
X142109120Y-65529388D01*
X132044546Y-65529388D01*
X132000079Y-65484921D01*
X131745407Y-65314755D01*
X131445000Y-65255000D01*
X129230158Y-65255000D01*
X128117037Y-64141879D01*
X143061484Y-64141879D01*
X144780000Y-65860395D01*
X146498516Y-64141879D01*
X146273846Y-63767832D01*
X145290612Y-63369120D01*
X144229643Y-63377025D01*
X143286154Y-63767832D01*
X143061484Y-64141879D01*
X128117037Y-64141879D01*
X127785000Y-63809842D01*
X127785000Y-60310022D01*
X129754584Y-60310022D01*
X129975353Y-60680743D01*
X130947012Y-61074119D01*
X131995247Y-61065713D01*
X132924647Y-60680743D01*
X133145416Y-60310022D01*
X138554584Y-60310022D01*
X138775353Y-60680743D01*
X139747012Y-61074119D01*
X140795247Y-61065713D01*
X141724647Y-60680743D01*
X141945416Y-60310022D01*
X140250000Y-58614605D01*
X138554584Y-60310022D01*
X133145416Y-60310022D01*
X131450000Y-58614605D01*
X129754584Y-60310022D01*
X127785000Y-60310022D01*
X127785000Y-57932012D01*
X128810881Y-57932012D01*
X128819287Y-58980247D01*
X129204257Y-59909647D01*
X129574978Y-60130416D01*
X131270395Y-58435000D01*
X131629605Y-58435000D01*
X133325022Y-60130416D01*
X133695743Y-59909647D01*
X134089119Y-58937988D01*
X134081052Y-57932012D01*
X137610881Y-57932012D01*
X137619287Y-58980247D01*
X138004257Y-59909647D01*
X138374978Y-60130416D01*
X140070395Y-58435000D01*
X140429605Y-58435000D01*
X142125022Y-60130416D01*
X142495743Y-59909647D01*
X142889119Y-58937988D01*
X142880713Y-57889753D01*
X142495743Y-56960353D01*
X142125022Y-56739584D01*
X140429605Y-58435000D01*
X140070395Y-58435000D01*
X138374978Y-56739584D01*
X138004257Y-56960353D01*
X137610881Y-57932012D01*
X134081052Y-57932012D01*
X134080713Y-57889753D01*
X133695743Y-56960353D01*
X133325022Y-56739584D01*
X131629605Y-58435000D01*
X131270395Y-58435000D01*
X129574978Y-56739584D01*
X129204257Y-56960353D01*
X128810881Y-57932012D01*
X127785000Y-57932012D01*
X127785000Y-56559978D01*
X129754584Y-56559978D01*
X131450000Y-58255395D01*
X133145416Y-56559978D01*
X138554584Y-56559978D01*
X140250000Y-58255395D01*
X141945416Y-56559978D01*
X141724647Y-56189257D01*
X140752988Y-55795881D01*
X139704753Y-55804287D01*
X138775353Y-56189257D01*
X138554584Y-56559978D01*
X133145416Y-56559978D01*
X132924647Y-56189257D01*
X131952988Y-55795881D01*
X130904753Y-55804287D01*
X129975353Y-56189257D01*
X129754584Y-56559978D01*
X127785000Y-56559978D01*
X127785000Y-54786014D01*
X128083201Y-54909838D01*
X128455167Y-54910162D01*
X128798943Y-54768117D01*
X128807074Y-54760000D01*
X133985000Y-54760000D01*
X134285407Y-54700245D01*
X134540079Y-54530079D01*
X136099940Y-52970218D01*
X136153991Y-52970265D01*
X136718371Y-52737068D01*
X136940668Y-52515159D01*
X137449446Y-52515159D01*
X137535852Y-52771643D01*
X138109336Y-52981458D01*
X138719460Y-52955839D01*
X139164148Y-52771643D01*
X139250554Y-52515159D01*
X138350000Y-51614605D01*
X137449446Y-52515159D01*
X136940668Y-52515159D01*
X137150551Y-52305643D01*
X137154294Y-52296628D01*
X137269841Y-52335554D01*
X138170395Y-51435000D01*
X138156253Y-51420858D01*
X138335858Y-51241253D01*
X138350000Y-51255395D01*
X138364143Y-51241253D01*
X138543748Y-51420858D01*
X138529605Y-51435000D01*
X139430159Y-52335554D01*
X139686643Y-52249148D01*
X139896458Y-51675664D01*
X139870839Y-51065540D01*
X139791915Y-50875000D01*
X149150000Y-50875000D01*
X149150000Y-70027312D01*
M02*
