G04 #@! TF.FileFunction,Soldermask,Bot*
%FSLAX46Y46*%
G04 Gerber Fmt 4.6, Leading zero omitted, Abs format (unit mm)*
G04 Created by KiCad (PCBNEW 4.0.6+dfsg1-1) date Tue Oct 24 13:55:29 2017*
%MOMM*%
%LPD*%
G01*
G04 APERTURE LIST*
%ADD10C,0.050000*%
%ADD11R,2.127200X2.432000*%
%ADD12O,2.127200X2.432000*%
%ADD13C,2.200000*%
%ADD14C,4.400000*%
%ADD15R,2.432000X2.127200*%
%ADD16O,2.432000X2.127200*%
%ADD17R,2.432000X2.432000*%
%ADD18O,2.432000X2.432000*%
%ADD19C,4.464000*%
%ADD20C,1.797000*%
G04 APERTURE END LIST*
D10*
D11*
X127000000Y-71120000D03*
D12*
X129540000Y-71120000D03*
X132080000Y-71120000D03*
X134620000Y-71120000D03*
X137160000Y-71120000D03*
X139700000Y-71120000D03*
X142240000Y-71120000D03*
X144780000Y-71120000D03*
D13*
X138350000Y-51435000D03*
X135850000Y-51435000D03*
X133350000Y-51435000D03*
D14*
X140250000Y-58435000D03*
X131450000Y-58435000D03*
D15*
X147320000Y-99060000D03*
D16*
X147320000Y-101600000D03*
X147320000Y-104140000D03*
X147320000Y-106680000D03*
X147320000Y-109220000D03*
X147320000Y-111760000D03*
X147320000Y-114300000D03*
X147320000Y-116840000D03*
D11*
X129540000Y-138430000D03*
D12*
X132080000Y-138430000D03*
X134620000Y-138430000D03*
X137160000Y-138430000D03*
X139700000Y-138430000D03*
X142240000Y-138430000D03*
X144780000Y-138430000D03*
X147320000Y-138430000D03*
D15*
X144780000Y-99060000D03*
D16*
X144780000Y-101600000D03*
X144780000Y-104140000D03*
X144780000Y-106680000D03*
X144780000Y-109220000D03*
X144780000Y-111760000D03*
X144780000Y-114300000D03*
X144780000Y-116840000D03*
D11*
X127000000Y-133350000D03*
D12*
X129540000Y-133350000D03*
X132080000Y-133350000D03*
X134620000Y-133350000D03*
X137160000Y-133350000D03*
X139700000Y-133350000D03*
X142240000Y-133350000D03*
X144780000Y-133350000D03*
D17*
X144780000Y-90170000D03*
D18*
X144780000Y-92710000D03*
D15*
X147955000Y-78740000D03*
D16*
X147955000Y-76200000D03*
X147955000Y-73660000D03*
X147955000Y-71120000D03*
D17*
X147320000Y-90170000D03*
D18*
X147320000Y-92710000D03*
D19*
X144780000Y-66040000D03*
X125730000Y-138430000D03*
D20*
X145415000Y-84455000D03*
X147955000Y-84455000D03*
X145415000Y-81915000D03*
X147955000Y-81915000D03*
X144780000Y-74295000D03*
X144780000Y-76835000D03*
X137160000Y-67945000D03*
X139700000Y-67945000D03*
D13*
X138350000Y-73660000D03*
X135850000Y-73660000D03*
X133350000Y-73660000D03*
D14*
X140250000Y-80660000D03*
X131450000Y-80660000D03*
D13*
X138350000Y-95885000D03*
X135850000Y-95885000D03*
X133350000Y-95885000D03*
D14*
X140250000Y-102885000D03*
X131450000Y-102885000D03*
D13*
X138350000Y-118110000D03*
X135850000Y-118110000D03*
X133350000Y-118110000D03*
D14*
X140250000Y-125110000D03*
X131450000Y-125110000D03*
M02*
