M48
;DRILL file {KiCad 4.0.6+dfsg1-1} date Tue Oct 24 13:55:38 2017
;FORMAT={-:-/ absolute / inch / decimal}
FMAT,2
INCH,TZ
T1C0.016
T2C0.032
T3C0.039
T4C0.040
T5C0.120
%
G90
G05
M72
T1
X5.05Y-2.125
X5.25Y-3.65
X5.65Y-3.075
T2
X5.4Y-2.675
X5.5Y-2.675
X5.7Y-2.925
X5.7Y-3.025
X5.725Y-3.225
X5.725Y-3.325
X5.825Y-3.225
X5.825Y-3.325
T3
X5.25Y-2.025
X5.25Y-2.9
X5.25Y-3.775
X5.25Y-4.65
X5.3484Y-2.025
X5.3484Y-2.9
X5.3484Y-3.775
X5.3484Y-4.65
X5.4469Y-2.025
X5.4469Y-2.9
X5.4469Y-3.775
X5.4469Y-4.65
T4
X5.Y-2.8
X5.Y-5.25
X5.1Y-2.8
X5.1Y-5.25
X5.1Y-5.45
X5.2Y-2.8
X5.2Y-5.25
X5.2Y-5.45
X5.3Y-2.8
X5.3Y-5.25
X5.3Y-5.45
X5.4Y-2.8
X5.4Y-5.25
X5.4Y-5.45
X5.5Y-2.8
X5.5Y-5.25
X5.5Y-5.45
X5.6Y-2.8
X5.6Y-5.25
X5.6Y-5.45
X5.7Y-2.8
X5.7Y-3.55
X5.7Y-3.65
X5.7Y-3.9
X5.7Y-4.
X5.7Y-4.1
X5.7Y-4.2
X5.7Y-4.3
X5.7Y-4.4
X5.7Y-4.5
X5.7Y-4.6
X5.7Y-5.25
X5.7Y-5.45
X5.8Y-3.55
X5.8Y-3.65
X5.8Y-3.9
X5.8Y-4.
X5.8Y-4.1
X5.8Y-4.2
X5.8Y-4.3
X5.8Y-4.4
X5.8Y-4.5
X5.8Y-4.6
X5.8Y-5.45
X5.825Y-2.8
X5.825Y-2.9
X5.825Y-3.
X5.825Y-3.1
T5
X4.95Y-5.45
X5.7Y-2.6
T0
M30
