G04 #@! TF.FileFunction,Legend,Top*
%FSLAX46Y46*%
G04 Gerber Fmt 4.6, Leading zero omitted, Abs format (unit mm)*
G04 Created by KiCad (PCBNEW 4.0.2+dfsg1-2~bpo8+1-stable) date Fri 14 Jul 2017 01:13:30 AM EEST*
%MOMM*%
G01*
G04 APERTURE LIST*
%ADD10C,0.050000*%
%ADD11C,0.150000*%
G04 APERTURE END LIST*
D10*
D11*
X143490000Y-116590000D02*
X143490000Y-119590000D01*
X140990000Y-119590000D02*
X140990000Y-116590000D01*
X148570000Y-114050000D02*
X148570000Y-117050000D01*
X146070000Y-117050000D02*
X146070000Y-114050000D01*
X148610000Y-112010000D02*
X148610000Y-109010000D01*
X151110000Y-109010000D02*
X151110000Y-112010000D01*
X133350000Y-93980000D02*
X151130000Y-93980000D01*
X151130000Y-93980000D02*
X151130000Y-96520000D01*
X151130000Y-96520000D02*
X133350000Y-96520000D01*
X130530000Y-93700000D02*
X132080000Y-93700000D01*
X133350000Y-93980000D02*
X133350000Y-96520000D01*
X132080000Y-96800000D02*
X130530000Y-96800000D01*
X130530000Y-96800000D02*
X130530000Y-93700000D01*
X133350000Y-156210000D02*
X151130000Y-156210000D01*
X151130000Y-156210000D02*
X151130000Y-158750000D01*
X151130000Y-158750000D02*
X133350000Y-158750000D01*
X130530000Y-155930000D02*
X132080000Y-155930000D01*
X133350000Y-156210000D02*
X133350000Y-158750000D01*
X132080000Y-159030000D02*
X130530000Y-159030000D01*
X130530000Y-159030000D02*
X130530000Y-155930000D01*
X137420000Y-116250000D02*
X132920000Y-116250000D01*
X132920000Y-116250000D02*
X132920000Y-108350000D01*
X132920000Y-108350000D02*
X137420000Y-108350000D01*
X137420000Y-108350000D02*
X137420000Y-116250000D01*
X132920000Y-113800000D02*
X133420000Y-113800000D01*
X133420000Y-113800000D02*
X133420000Y-115750000D01*
X133420000Y-115750000D02*
X136920000Y-115750000D01*
X136920000Y-115750000D02*
X136920000Y-108850000D01*
X136920000Y-108850000D02*
X133420000Y-108850000D01*
X133420000Y-108850000D02*
X133420000Y-110800000D01*
X133420000Y-110800000D02*
X132920000Y-110800000D01*
X134120000Y-116250000D02*
X134120000Y-115750000D01*
X135420000Y-116250000D02*
X135420000Y-115750000D01*
X134120000Y-108850000D02*
X134120000Y-108350000D01*
X135420000Y-108850000D02*
X135420000Y-108350000D01*
X132920000Y-114600000D02*
X132720000Y-114600000D01*
X132720000Y-114600000D02*
X132720000Y-114900000D01*
X132720000Y-114900000D02*
X132920000Y-114900000D01*
X132820000Y-114600000D02*
X132820000Y-114900000D01*
X136920000Y-113400000D02*
X136420000Y-113400000D01*
X136420000Y-113400000D02*
X136420000Y-113200000D01*
X136420000Y-113200000D02*
X136920000Y-113200000D01*
X136920000Y-113300000D02*
X136420000Y-113300000D01*
X136920000Y-111400000D02*
X136420000Y-111400000D01*
X136420000Y-111400000D02*
X136420000Y-111200000D01*
X136420000Y-111200000D02*
X136920000Y-111200000D01*
X136920000Y-111300000D02*
X136420000Y-111300000D01*
X151130000Y-124460000D02*
X151130000Y-142240000D01*
X151130000Y-142240000D02*
X148590000Y-142240000D01*
X148590000Y-142240000D02*
X148590000Y-124460000D01*
X151410000Y-121640000D02*
X151410000Y-123190000D01*
X151130000Y-124460000D02*
X148590000Y-124460000D01*
X148310000Y-123190000D02*
X148310000Y-121640000D01*
X148310000Y-121640000D02*
X151410000Y-121640000D01*
X151130000Y-115570000D02*
X151130000Y-118110000D01*
X151410000Y-112750000D02*
X151410000Y-114300000D01*
X151130000Y-115570000D02*
X148590000Y-115570000D01*
X148310000Y-114300000D02*
X148310000Y-112750000D01*
X148310000Y-112750000D02*
X151410000Y-112750000D01*
X148590000Y-115570000D02*
X148590000Y-118110000D01*
X148590000Y-118110000D02*
X151130000Y-118110000D01*
X132080000Y-120650000D02*
X132080000Y-146050000D01*
X132080000Y-146050000D02*
X129540000Y-146050000D01*
X129540000Y-146050000D02*
X129540000Y-120650000D01*
X132360000Y-117830000D02*
X132360000Y-119380000D01*
X132080000Y-120650000D02*
X129540000Y-120650000D01*
X129260000Y-119380000D02*
X129260000Y-117830000D01*
X129260000Y-117830000D02*
X132360000Y-117830000D01*
X146050000Y-121920000D02*
X148590000Y-121920000D01*
X148590000Y-121920000D02*
X148590000Y-144780000D01*
X148590000Y-144780000D02*
X146050000Y-144780000D01*
X146050000Y-121920000D02*
X146050000Y-144780000D01*
X146050000Y-142240000D02*
X148590000Y-142240000D01*
X147320000Y-120650000D02*
X149860000Y-120650000D01*
X148739903Y-120650000D02*
G75*
G03X148739903Y-120650000I-1419903J0D01*
G01*
X152146000Y-90170000D02*
G75*
G03X152146000Y-90170000I-2286000J0D01*
G01*
X133096000Y-162560000D02*
G75*
G03X133096000Y-162560000I-2286000J0D01*
G01*
X152155000Y-99195000D02*
X150885000Y-99195000D01*
X152155000Y-106545000D02*
X150885000Y-106545000D01*
X129785000Y-106545000D02*
X131055000Y-106545000D01*
X129785000Y-99195000D02*
X131055000Y-99195000D01*
X152155000Y-99195000D02*
X152155000Y-106545000D01*
X129785000Y-99195000D02*
X129785000Y-106545000D01*
X150885000Y-99195000D02*
X150885000Y-97910000D01*
X129785000Y-154805000D02*
X131055000Y-154805000D01*
X129785000Y-147455000D02*
X131055000Y-147455000D01*
X152155000Y-147455000D02*
X150885000Y-147455000D01*
X152155000Y-154805000D02*
X150885000Y-154805000D01*
X129785000Y-154805000D02*
X129785000Y-147455000D01*
X152155000Y-154805000D02*
X152155000Y-147455000D01*
X131055000Y-154805000D02*
X131055000Y-156090000D01*
X134755000Y-120895000D02*
X134755000Y-122165000D01*
X142105000Y-120895000D02*
X142105000Y-122165000D01*
X142105000Y-143265000D02*
X142105000Y-141995000D01*
X134755000Y-143265000D02*
X134755000Y-141995000D01*
X134755000Y-120895000D02*
X142105000Y-120895000D01*
X134755000Y-143265000D02*
X142105000Y-143265000D01*
X134755000Y-122165000D02*
X133470000Y-122165000D01*
X145097143Y-118256666D02*
X145144762Y-118304285D01*
X145192381Y-118447142D01*
X145192381Y-118542380D01*
X145144762Y-118685238D01*
X145049524Y-118780476D01*
X144954286Y-118828095D01*
X144763810Y-118875714D01*
X144620952Y-118875714D01*
X144430476Y-118828095D01*
X144335238Y-118780476D01*
X144240000Y-118685238D01*
X144192381Y-118542380D01*
X144192381Y-118447142D01*
X144240000Y-118304285D01*
X144287619Y-118256666D01*
X145192381Y-117304285D02*
X145192381Y-117875714D01*
X145192381Y-117590000D02*
X144192381Y-117590000D01*
X144335238Y-117685238D01*
X144430476Y-117780476D01*
X144478095Y-117875714D01*
X150177143Y-115716666D02*
X150224762Y-115764285D01*
X150272381Y-115907142D01*
X150272381Y-116002380D01*
X150224762Y-116145238D01*
X150129524Y-116240476D01*
X150034286Y-116288095D01*
X149843810Y-116335714D01*
X149700952Y-116335714D01*
X149510476Y-116288095D01*
X149415238Y-116240476D01*
X149320000Y-116145238D01*
X149272381Y-116002380D01*
X149272381Y-115907142D01*
X149320000Y-115764285D01*
X149367619Y-115716666D01*
X149367619Y-115335714D02*
X149320000Y-115288095D01*
X149272381Y-115192857D01*
X149272381Y-114954761D01*
X149320000Y-114859523D01*
X149367619Y-114811904D01*
X149462857Y-114764285D01*
X149558095Y-114764285D01*
X149700952Y-114811904D01*
X150272381Y-115383333D01*
X150272381Y-114764285D01*
X147717143Y-110676666D02*
X147764762Y-110724285D01*
X147812381Y-110867142D01*
X147812381Y-110962380D01*
X147764762Y-111105238D01*
X147669524Y-111200476D01*
X147574286Y-111248095D01*
X147383810Y-111295714D01*
X147240952Y-111295714D01*
X147050476Y-111248095D01*
X146955238Y-111200476D01*
X146860000Y-111105238D01*
X146812381Y-110962380D01*
X146812381Y-110867142D01*
X146860000Y-110724285D01*
X146907619Y-110676666D01*
X146812381Y-110343333D02*
X146812381Y-109724285D01*
X147193333Y-110057619D01*
X147193333Y-109914761D01*
X147240952Y-109819523D01*
X147288571Y-109771904D01*
X147383810Y-109724285D01*
X147621905Y-109724285D01*
X147717143Y-109771904D01*
X147764762Y-109819523D01*
X147812381Y-109914761D01*
X147812381Y-110200476D01*
X147764762Y-110295714D01*
X147717143Y-110343333D01*
X127432381Y-95988095D02*
X126432381Y-95988095D01*
X126432381Y-95607142D01*
X126480000Y-95511904D01*
X126527619Y-95464285D01*
X126622857Y-95416666D01*
X126765714Y-95416666D01*
X126860952Y-95464285D01*
X126908571Y-95511904D01*
X126956190Y-95607142D01*
X126956190Y-95988095D01*
X127432381Y-94464285D02*
X127432381Y-95035714D01*
X127432381Y-94750000D02*
X126432381Y-94750000D01*
X126575238Y-94845238D01*
X126670476Y-94940476D01*
X126718095Y-95035714D01*
X127432381Y-158218095D02*
X126432381Y-158218095D01*
X126432381Y-157837142D01*
X126480000Y-157741904D01*
X126527619Y-157694285D01*
X126622857Y-157646666D01*
X126765714Y-157646666D01*
X126860952Y-157694285D01*
X126908571Y-157741904D01*
X126956190Y-157837142D01*
X126956190Y-158218095D01*
X126527619Y-157265714D02*
X126480000Y-157218095D01*
X126432381Y-157122857D01*
X126432381Y-156884761D01*
X126480000Y-156789523D01*
X126527619Y-156741904D01*
X126622857Y-156694285D01*
X126718095Y-156694285D01*
X126860952Y-156741904D01*
X127432381Y-157313333D01*
X127432381Y-156694285D01*
X132072381Y-115038095D02*
X131072381Y-115038095D01*
X131072381Y-114657142D01*
X131120000Y-114561904D01*
X131167619Y-114514285D01*
X131262857Y-114466666D01*
X131405714Y-114466666D01*
X131500952Y-114514285D01*
X131548571Y-114561904D01*
X131596190Y-114657142D01*
X131596190Y-115038095D01*
X131072381Y-114133333D02*
X131072381Y-113514285D01*
X131453333Y-113847619D01*
X131453333Y-113704761D01*
X131500952Y-113609523D01*
X131548571Y-113561904D01*
X131643810Y-113514285D01*
X131881905Y-113514285D01*
X131977143Y-113561904D01*
X132024762Y-113609523D01*
X132072381Y-113704761D01*
X132072381Y-113990476D01*
X132024762Y-114085714D01*
X131977143Y-114133333D01*
X149121905Y-118542381D02*
X149121905Y-117542381D01*
X149502858Y-117542381D01*
X149598096Y-117590000D01*
X149645715Y-117637619D01*
X149693334Y-117732857D01*
X149693334Y-117875714D01*
X149645715Y-117970952D01*
X149598096Y-118018571D01*
X149502858Y-118066190D01*
X149121905Y-118066190D01*
X150550477Y-117875714D02*
X150550477Y-118542381D01*
X150312381Y-117494762D02*
X150074286Y-118209048D01*
X150693334Y-118209048D01*
X149121905Y-109652381D02*
X149121905Y-108652381D01*
X149502858Y-108652381D01*
X149598096Y-108700000D01*
X149645715Y-108747619D01*
X149693334Y-108842857D01*
X149693334Y-108985714D01*
X149645715Y-109080952D01*
X149598096Y-109128571D01*
X149502858Y-109176190D01*
X149121905Y-109176190D01*
X150598096Y-108652381D02*
X150121905Y-108652381D01*
X150074286Y-109128571D01*
X150121905Y-109080952D01*
X150217143Y-109033333D01*
X150455239Y-109033333D01*
X150550477Y-109080952D01*
X150598096Y-109128571D01*
X150645715Y-109223810D01*
X150645715Y-109461905D01*
X150598096Y-109557143D01*
X150550477Y-109604762D01*
X150455239Y-109652381D01*
X150217143Y-109652381D01*
X150121905Y-109604762D01*
X150074286Y-109557143D01*
X130071905Y-114732381D02*
X130071905Y-113732381D01*
X130452858Y-113732381D01*
X130548096Y-113780000D01*
X130595715Y-113827619D01*
X130643334Y-113922857D01*
X130643334Y-114065714D01*
X130595715Y-114160952D01*
X130548096Y-114208571D01*
X130452858Y-114256190D01*
X130071905Y-114256190D01*
X131500477Y-113732381D02*
X131310000Y-113732381D01*
X131214762Y-113780000D01*
X131167143Y-113827619D01*
X131071905Y-113970476D01*
X131024286Y-114160952D01*
X131024286Y-114541905D01*
X131071905Y-114637143D01*
X131119524Y-114684762D01*
X131214762Y-114732381D01*
X131405239Y-114732381D01*
X131500477Y-114684762D01*
X131548096Y-114637143D01*
X131595715Y-114541905D01*
X131595715Y-114303810D01*
X131548096Y-114208571D01*
X131500477Y-114160952D01*
X131405239Y-114113333D01*
X131214762Y-114113333D01*
X131119524Y-114160952D01*
X131071905Y-114208571D01*
X131024286Y-114303810D01*
X144978381Y-135286666D02*
X144502190Y-135620000D01*
X144978381Y-135858095D02*
X143978381Y-135858095D01*
X143978381Y-135477142D01*
X144026000Y-135381904D01*
X144073619Y-135334285D01*
X144168857Y-135286666D01*
X144311714Y-135286666D01*
X144406952Y-135334285D01*
X144454571Y-135381904D01*
X144502190Y-135477142D01*
X144502190Y-135858095D01*
X144978381Y-134286666D02*
X144502190Y-134620000D01*
X144978381Y-134858095D02*
X143978381Y-134858095D01*
X143978381Y-134477142D01*
X144026000Y-134381904D01*
X144073619Y-134334285D01*
X144168857Y-134286666D01*
X144311714Y-134286666D01*
X144406952Y-134334285D01*
X144454571Y-134381904D01*
X144502190Y-134477142D01*
X144502190Y-134858095D01*
X144978381Y-133334285D02*
X144978381Y-133905714D01*
X144978381Y-133620000D02*
X143978381Y-133620000D01*
X144121238Y-133715238D01*
X144216476Y-133810476D01*
X144264095Y-133905714D01*
X147407334Y-123642381D02*
X147074000Y-123166190D01*
X146835905Y-123642381D02*
X146835905Y-122642381D01*
X147216858Y-122642381D01*
X147312096Y-122690000D01*
X147359715Y-122737619D01*
X147407334Y-122832857D01*
X147407334Y-122975714D01*
X147359715Y-123070952D01*
X147312096Y-123118571D01*
X147216858Y-123166190D01*
X146835905Y-123166190D01*
X148359715Y-123642381D02*
X147788286Y-123642381D01*
X148074000Y-123642381D02*
X148074000Y-122642381D01*
X147978762Y-122785238D01*
X147883524Y-122880476D01*
X147788286Y-122928095D01*
X154532381Y-99821905D02*
X155341905Y-99821905D01*
X155437143Y-99774286D01*
X155484762Y-99726667D01*
X155532381Y-99631429D01*
X155532381Y-99440952D01*
X155484762Y-99345714D01*
X155437143Y-99298095D01*
X155341905Y-99250476D01*
X154532381Y-99250476D01*
X155532381Y-98250476D02*
X155532381Y-98821905D01*
X155532381Y-98536191D02*
X154532381Y-98536191D01*
X154675238Y-98631429D01*
X154770476Y-98726667D01*
X154818095Y-98821905D01*
X126312381Y-155701905D02*
X127121905Y-155701905D01*
X127217143Y-155654286D01*
X127264762Y-155606667D01*
X127312381Y-155511429D01*
X127312381Y-155320952D01*
X127264762Y-155225714D01*
X127217143Y-155178095D01*
X127121905Y-155130476D01*
X126312381Y-155130476D01*
X126407619Y-154701905D02*
X126360000Y-154654286D01*
X126312381Y-154559048D01*
X126312381Y-154320952D01*
X126360000Y-154225714D01*
X126407619Y-154178095D01*
X126502857Y-154130476D01*
X126598095Y-154130476D01*
X126740952Y-154178095D01*
X127312381Y-154749524D01*
X127312381Y-154130476D01*
X133858095Y-117422381D02*
X133858095Y-118231905D01*
X133905714Y-118327143D01*
X133953333Y-118374762D01*
X134048571Y-118422381D01*
X134239048Y-118422381D01*
X134334286Y-118374762D01*
X134381905Y-118327143D01*
X134429524Y-118231905D01*
X134429524Y-117422381D01*
X134810476Y-117422381D02*
X135429524Y-117422381D01*
X135096190Y-117803333D01*
X135239048Y-117803333D01*
X135334286Y-117850952D01*
X135381905Y-117898571D01*
X135429524Y-117993810D01*
X135429524Y-118231905D01*
X135381905Y-118327143D01*
X135334286Y-118374762D01*
X135239048Y-118422381D01*
X134953333Y-118422381D01*
X134858095Y-118374762D01*
X134810476Y-118327143D01*
M02*
