G04 #@! TF.FileFunction,Copper,L2,Bot,Signal*
%FSLAX46Y46*%
G04 Gerber Fmt 4.6, Leading zero omitted, Abs format (unit mm)*
G04 Created by KiCad (PCBNEW 4.0.2+dfsg1-2~bpo8+1-stable) date Fri 14 Jul 2017 01:13:30 AM EEST*
%MOMM*%
G01*
G04 APERTURE LIST*
%ADD10C,0.050000*%
%ADD11R,1.300000X1.300000*%
%ADD12C,1.300000*%
%ADD13R,1.727200X2.032000*%
%ADD14O,1.727200X2.032000*%
%ADD15R,1.700000X1.200000*%
%ADD16O,1.700000X1.200000*%
%ADD17R,2.032000X1.727200*%
%ADD18O,2.032000X1.727200*%
%ADD19R,2.032000X2.032000*%
%ADD20O,2.032000X2.032000*%
%ADD21R,1.397000X1.397000*%
%ADD22C,1.397000*%
%ADD23C,4.064000*%
%ADD24O,1.600000X2.300000*%
%ADD25O,2.300000X1.600000*%
%ADD26C,0.600000*%
%ADD27C,0.300000*%
%ADD28C,0.254000*%
G04 APERTURE END LIST*
D10*
D11*
X142240000Y-116840000D03*
D12*
X142240000Y-119340000D03*
D11*
X147320000Y-114300000D03*
D12*
X147320000Y-116800000D03*
D11*
X149860000Y-111760000D03*
D12*
X149860000Y-109260000D03*
D13*
X132080000Y-95250000D03*
D14*
X134620000Y-95250000D03*
X137160000Y-95250000D03*
X139700000Y-95250000D03*
X142240000Y-95250000D03*
X144780000Y-95250000D03*
X147320000Y-95250000D03*
X149860000Y-95250000D03*
D13*
X132080000Y-157480000D03*
D14*
X134620000Y-157480000D03*
X137160000Y-157480000D03*
X139700000Y-157480000D03*
X142240000Y-157480000D03*
X144780000Y-157480000D03*
X147320000Y-157480000D03*
X149860000Y-157480000D03*
D15*
X134620000Y-114300000D03*
D16*
X134620000Y-112300000D03*
X134620000Y-110300000D03*
D17*
X149860000Y-123190000D03*
D18*
X149860000Y-125730000D03*
X149860000Y-128270000D03*
X149860000Y-130810000D03*
X149860000Y-133350000D03*
X149860000Y-135890000D03*
X149860000Y-138430000D03*
X149860000Y-140970000D03*
D19*
X149860000Y-114300000D03*
D20*
X149860000Y-116840000D03*
D17*
X130810000Y-119380000D03*
D18*
X130810000Y-121920000D03*
X130810000Y-124460000D03*
X130810000Y-127000000D03*
X130810000Y-129540000D03*
X130810000Y-132080000D03*
X130810000Y-134620000D03*
X130810000Y-137160000D03*
X130810000Y-139700000D03*
X130810000Y-142240000D03*
X130810000Y-144780000D03*
D21*
X147320000Y-143510000D03*
D22*
X147320000Y-140970000D03*
X147320000Y-138430000D03*
X147320000Y-135890000D03*
X147320000Y-133350000D03*
X147320000Y-130810000D03*
X147320000Y-128270000D03*
X147320000Y-125730000D03*
X147320000Y-123190000D03*
X147320000Y-120650000D03*
X149860000Y-120650000D03*
D23*
X149860000Y-90170000D03*
X130810000Y-162560000D03*
D24*
X149860000Y-99060000D03*
X147320000Y-99060000D03*
X144780000Y-99060000D03*
X142240000Y-99060000D03*
X139700000Y-99060000D03*
X137160000Y-99060000D03*
X134620000Y-99060000D03*
X132080000Y-99060000D03*
X132080000Y-106680000D03*
X134620000Y-106680000D03*
X137160000Y-106680000D03*
X139700000Y-106680000D03*
X142240000Y-106680000D03*
X144780000Y-106680000D03*
X147320000Y-106680000D03*
X149860000Y-106680000D03*
X132080000Y-154940000D03*
X134620000Y-154940000D03*
X137160000Y-154940000D03*
X139700000Y-154940000D03*
X142240000Y-154940000D03*
X144780000Y-154940000D03*
X147320000Y-154940000D03*
X149860000Y-154940000D03*
X149860000Y-147320000D03*
X147320000Y-147320000D03*
X144780000Y-147320000D03*
X142240000Y-147320000D03*
X139700000Y-147320000D03*
X137160000Y-147320000D03*
X134620000Y-147320000D03*
X132080000Y-147320000D03*
D25*
X134620000Y-123190000D03*
X134620000Y-125730000D03*
X134620000Y-128270000D03*
X134620000Y-130810000D03*
X134620000Y-133350000D03*
X134620000Y-135890000D03*
X134620000Y-138430000D03*
X134620000Y-140970000D03*
X142240000Y-140970000D03*
X142240000Y-138430000D03*
X142240000Y-135890000D03*
X142240000Y-133350000D03*
X142240000Y-130810000D03*
X142240000Y-128270000D03*
X142240000Y-125730000D03*
X142240000Y-123190000D03*
D26*
X138430000Y-128270000D03*
X144780000Y-127000000D03*
X144780000Y-120650000D03*
X138430000Y-102870000D03*
X139700000Y-104140000D03*
X142875000Y-97155000D03*
X132080000Y-101600000D03*
D27*
X130810000Y-162560000D02*
X132715000Y-162560000D01*
X132715000Y-162560000D02*
X133985000Y-163830000D01*
X133985000Y-163830000D02*
X151765000Y-163830000D01*
X151765000Y-163830000D02*
X151765000Y-154940000D01*
X149860000Y-154940000D02*
X151765000Y-154940000D01*
X151765000Y-154940000D02*
X151765000Y-153035000D01*
X149860000Y-90170000D02*
X149860000Y-92710000D01*
X151765000Y-153035000D02*
X151765000Y-150495000D01*
X151765000Y-150495000D02*
X141605000Y-150495000D01*
X141605000Y-150495000D02*
X139700000Y-148590000D01*
X139700000Y-148590000D02*
X139700000Y-147320000D01*
X139700000Y-147320000D02*
X139700000Y-148590000D01*
X141605000Y-150495000D02*
X151765000Y-150495000D01*
X139700000Y-148590000D02*
X141605000Y-150495000D01*
X151765000Y-143510000D02*
X151765000Y-150495000D01*
X151765000Y-150495000D02*
X151765000Y-153035000D01*
X147320000Y-143510000D02*
X137160000Y-143510000D01*
X137160000Y-143510000D02*
X134620000Y-140970000D01*
X149860000Y-120650000D02*
X151130000Y-120650000D01*
X151130000Y-120650000D02*
X151765000Y-121285000D01*
X151765000Y-143510000D02*
X147320000Y-143510000D01*
X151765000Y-142875000D02*
X151765000Y-143510000D01*
X151765000Y-121285000D02*
X151765000Y-142875000D01*
X142240000Y-116840000D02*
X143510000Y-116840000D01*
X147320000Y-118110000D02*
X149860000Y-120650000D01*
X144780000Y-118110000D02*
X147320000Y-118110000D01*
X143510000Y-116840000D02*
X144780000Y-118110000D01*
X149860000Y-114300000D02*
X151130000Y-114300000D01*
X151765000Y-120015000D02*
X151130000Y-120650000D01*
X151765000Y-114935000D02*
X151765000Y-120015000D01*
X151130000Y-114300000D02*
X151765000Y-114935000D01*
X147320000Y-114300000D02*
X149860000Y-114300000D01*
X149860000Y-111760000D02*
X149860000Y-114300000D01*
X147360000Y-114300000D02*
X147320000Y-114340000D01*
X129540000Y-99060000D02*
X129540000Y-92710000D01*
X151130000Y-110490000D02*
X149860000Y-111760000D01*
X151130000Y-92710000D02*
X151130000Y-110490000D01*
X146050000Y-92710000D02*
X149860000Y-92710000D01*
X149860000Y-92710000D02*
X151130000Y-92710000D01*
X144780000Y-91440000D02*
X146050000Y-92710000D01*
X130810000Y-91440000D02*
X144780000Y-91440000D01*
X129540000Y-92710000D02*
X130810000Y-91440000D01*
X134620000Y-112300000D02*
X131350000Y-112300000D01*
X130810000Y-99060000D02*
X132080000Y-99060000D01*
X129540000Y-99060000D02*
X130810000Y-99060000D01*
X129540000Y-110490000D02*
X129540000Y-99060000D01*
X131350000Y-112300000D02*
X129540000Y-110490000D01*
X132715000Y-144780000D02*
X134620000Y-144780000D01*
X134620000Y-144780000D02*
X144780000Y-144780000D01*
X144780000Y-144780000D02*
X147320000Y-147320000D01*
X132080000Y-147320000D02*
X132080000Y-146050000D01*
X134620000Y-118110000D02*
X132715000Y-120015000D01*
X134620000Y-118110000D02*
X134620000Y-114300000D01*
X132715000Y-120015000D02*
X132715000Y-144780000D01*
X132715000Y-144780000D02*
X132715000Y-145415000D01*
X132080000Y-146050000D02*
X132715000Y-145415000D01*
X147320000Y-116800000D02*
X149820000Y-116800000D01*
X149820000Y-116800000D02*
X149860000Y-116840000D01*
X147320000Y-116800000D02*
X146010000Y-116800000D01*
X144780000Y-115570000D02*
X140970000Y-115570000D01*
X146010000Y-116800000D02*
X144780000Y-115570000D01*
X149860000Y-106680000D02*
X149860000Y-109260000D01*
X149860000Y-109260000D02*
X146010000Y-109260000D01*
X146010000Y-109260000D02*
X140970000Y-114300000D01*
X140970000Y-114300000D02*
X134620000Y-114300000D01*
X142240000Y-119340000D02*
X142200000Y-119340000D01*
X142200000Y-119340000D02*
X140970000Y-118110000D01*
X140970000Y-118110000D02*
X140970000Y-115570000D01*
X140970000Y-115570000D02*
X140970000Y-114300000D01*
X142240000Y-123190000D02*
X142240000Y-119340000D01*
X147320000Y-133350000D02*
X149860000Y-133350000D01*
X134620000Y-128270000D02*
X137160000Y-128270000D01*
X144780000Y-133350000D02*
X147320000Y-133350000D01*
X143510000Y-132080000D02*
X144780000Y-133350000D01*
X140970000Y-132080000D02*
X143510000Y-132080000D01*
X137160000Y-128270000D02*
X140970000Y-132080000D01*
X147320000Y-135890000D02*
X149860000Y-135890000D01*
X134620000Y-130810000D02*
X137160000Y-130810000D01*
X144780000Y-135890000D02*
X147320000Y-135890000D01*
X143510000Y-134620000D02*
X144780000Y-135890000D01*
X140970000Y-134620000D02*
X143510000Y-134620000D01*
X137160000Y-130810000D02*
X140970000Y-134620000D01*
X147320000Y-138430000D02*
X149860000Y-138430000D01*
X134620000Y-133350000D02*
X137160000Y-133350000D01*
X144780000Y-138430000D02*
X147320000Y-138430000D01*
X143510000Y-137160000D02*
X144780000Y-138430000D01*
X140970000Y-137160000D02*
X143510000Y-137160000D01*
X137160000Y-133350000D02*
X140970000Y-137160000D01*
X147320000Y-140970000D02*
X149860000Y-140970000D01*
X144780000Y-140970000D02*
X147320000Y-140970000D01*
X143510000Y-139700000D02*
X144780000Y-140970000D01*
X140970000Y-139700000D02*
X143510000Y-139700000D01*
X134620000Y-135890000D02*
X137160000Y-135890000D01*
X137160000Y-135890000D02*
X140970000Y-139700000D01*
X147320000Y-123190000D02*
X149860000Y-123190000D01*
X144780000Y-123190000D02*
X147320000Y-123190000D01*
X143510000Y-124460000D02*
X144780000Y-123190000D01*
X139700000Y-124460000D02*
X143510000Y-124460000D01*
X138430000Y-125730000D02*
X139700000Y-124460000D01*
X138430000Y-128270000D02*
X138430000Y-125730000D01*
X147320000Y-125730000D02*
X149860000Y-125730000D01*
X146050000Y-125730000D02*
X147320000Y-125730000D01*
X144780000Y-127000000D02*
X146050000Y-125730000D01*
X147320000Y-128270000D02*
X149860000Y-128270000D01*
X142240000Y-130810000D02*
X140970000Y-130810000D01*
X144780000Y-128270000D02*
X147320000Y-128270000D01*
X143510000Y-127000000D02*
X144780000Y-128270000D01*
X140970000Y-127000000D02*
X143510000Y-127000000D01*
X139700000Y-128270000D02*
X140970000Y-127000000D01*
X139700000Y-129540000D02*
X139700000Y-128270000D01*
X140970000Y-130810000D02*
X139700000Y-129540000D01*
X147320000Y-130810000D02*
X149860000Y-130810000D01*
X142240000Y-128270000D02*
X144780000Y-130810000D01*
X144780000Y-130810000D02*
X147320000Y-130810000D01*
X144780000Y-120650000D02*
X147320000Y-120650000D01*
X132080000Y-95250000D02*
X133350000Y-96520000D01*
X142240000Y-107950000D02*
X142240000Y-106680000D01*
X140970000Y-109220000D02*
X142240000Y-107950000D01*
X137160000Y-109220000D02*
X140970000Y-109220000D01*
X135890000Y-107950000D02*
X137160000Y-109220000D01*
X135890000Y-105410000D02*
X135890000Y-107950000D01*
X133350000Y-102870000D02*
X135890000Y-105410000D01*
X133350000Y-96520000D02*
X133350000Y-102870000D01*
X134620000Y-95250000D02*
X135890000Y-96520000D01*
X135890000Y-100330000D02*
X138430000Y-102870000D01*
X135890000Y-96520000D02*
X135890000Y-100330000D01*
X137160000Y-95250000D02*
X137160000Y-96520000D01*
X139700000Y-101600000D02*
X139700000Y-104140000D01*
X138430000Y-100330000D02*
X139700000Y-101600000D01*
X138430000Y-97790000D02*
X138430000Y-100330000D01*
X137160000Y-96520000D02*
X138430000Y-97790000D01*
X139700000Y-95250000D02*
X140970000Y-96520000D01*
X140970000Y-105410000D02*
X139700000Y-106680000D01*
X140970000Y-96520000D02*
X140970000Y-105410000D01*
X142240000Y-96520000D02*
X142240000Y-95250000D01*
X142875000Y-97155000D02*
X142240000Y-96520000D01*
X144780000Y-95250000D02*
X144780000Y-93980000D01*
X139700000Y-97790000D02*
X139700000Y-99060000D01*
X138430000Y-96520000D02*
X139700000Y-97790000D01*
X138430000Y-93980000D02*
X138430000Y-96520000D01*
X139700000Y-92710000D02*
X138430000Y-93980000D01*
X143510000Y-92710000D02*
X139700000Y-92710000D01*
X144780000Y-93980000D02*
X143510000Y-92710000D01*
X147320000Y-99060000D02*
X147320000Y-95250000D01*
X142240000Y-99060000D02*
X142240000Y-100330000D01*
X149860000Y-96520000D02*
X149860000Y-95250000D01*
X148590000Y-97790000D02*
X149860000Y-96520000D01*
X148590000Y-100330000D02*
X148590000Y-97790000D01*
X147320000Y-101600000D02*
X148590000Y-100330000D01*
X143510000Y-101600000D02*
X147320000Y-101600000D01*
X142240000Y-100330000D02*
X143510000Y-101600000D01*
X134620000Y-147320000D02*
X134620000Y-148590000D01*
X130810000Y-156210000D02*
X132080000Y-157480000D01*
X130810000Y-152400000D02*
X130810000Y-156210000D01*
X134620000Y-148590000D02*
X130810000Y-152400000D01*
X132080000Y-154940000D02*
X134620000Y-157480000D01*
X134620000Y-154940000D02*
X137160000Y-157480000D01*
X137160000Y-154940000D02*
X139700000Y-157480000D01*
X139700000Y-154940000D02*
X142240000Y-157480000D01*
X142240000Y-154940000D02*
X144780000Y-157480000D01*
X144780000Y-154940000D02*
X147320000Y-157480000D01*
X147320000Y-154940000D02*
X149860000Y-157480000D01*
X134620000Y-110300000D02*
X131890000Y-110300000D01*
X130810000Y-102870000D02*
X132080000Y-101600000D01*
X130810000Y-109220000D02*
X130810000Y-102870000D01*
X131890000Y-110300000D02*
X130810000Y-109220000D01*
D28*
G36*
X147961877Y-88451485D02*
X147587832Y-88676154D01*
X147189120Y-89659388D01*
X147197025Y-90720357D01*
X147587832Y-91663846D01*
X147961879Y-91888516D01*
X149680395Y-90170000D01*
X149666253Y-90155858D01*
X149845858Y-89976253D01*
X149860000Y-89990395D01*
X149874143Y-89976253D01*
X150053748Y-90155858D01*
X150039605Y-90170000D01*
X150053748Y-90184143D01*
X149874143Y-90363748D01*
X149860000Y-90349605D01*
X148141484Y-92068121D01*
X148366154Y-92442168D01*
X149349388Y-92840880D01*
X150410357Y-92832975D01*
X151353846Y-92442168D01*
X151578515Y-92068123D01*
X151690000Y-92179608D01*
X151690000Y-164390000D01*
X132819608Y-164390000D01*
X132708123Y-164278515D01*
X133082168Y-164053846D01*
X133480880Y-163070612D01*
X133472975Y-162009643D01*
X133082168Y-161066154D01*
X132708121Y-160841484D01*
X130989605Y-162560000D01*
X131003748Y-162574143D01*
X130824143Y-162753748D01*
X130810000Y-162739605D01*
X130795858Y-162753748D01*
X130616253Y-162574143D01*
X130630395Y-162560000D01*
X130616253Y-162545858D01*
X130795858Y-162366253D01*
X130810000Y-162380395D01*
X132528516Y-160661879D01*
X132303846Y-160287832D01*
X131320612Y-159889120D01*
X130259643Y-159897025D01*
X129316154Y-160287832D01*
X129091485Y-160661877D01*
X128980000Y-160550392D01*
X128980000Y-121920000D01*
X129126655Y-121920000D01*
X129240729Y-122493489D01*
X129565585Y-122979670D01*
X129880366Y-123190000D01*
X129565585Y-123400330D01*
X129240729Y-123886511D01*
X129126655Y-124460000D01*
X129240729Y-125033489D01*
X129565585Y-125519670D01*
X129880366Y-125730000D01*
X129565585Y-125940330D01*
X129240729Y-126426511D01*
X129126655Y-127000000D01*
X129240729Y-127573489D01*
X129565585Y-128059670D01*
X129880366Y-128270000D01*
X129565585Y-128480330D01*
X129240729Y-128966511D01*
X129126655Y-129540000D01*
X129240729Y-130113489D01*
X129565585Y-130599670D01*
X129880366Y-130810000D01*
X129565585Y-131020330D01*
X129240729Y-131506511D01*
X129126655Y-132080000D01*
X129240729Y-132653489D01*
X129565585Y-133139670D01*
X129880366Y-133350000D01*
X129565585Y-133560330D01*
X129240729Y-134046511D01*
X129126655Y-134620000D01*
X129240729Y-135193489D01*
X129565585Y-135679670D01*
X129880366Y-135890000D01*
X129565585Y-136100330D01*
X129240729Y-136586511D01*
X129126655Y-137160000D01*
X129240729Y-137733489D01*
X129565585Y-138219670D01*
X129880366Y-138430000D01*
X129565585Y-138640330D01*
X129240729Y-139126511D01*
X129126655Y-139700000D01*
X129240729Y-140273489D01*
X129565585Y-140759670D01*
X129880366Y-140970000D01*
X129565585Y-141180330D01*
X129240729Y-141666511D01*
X129126655Y-142240000D01*
X129240729Y-142813489D01*
X129565585Y-143299670D01*
X129880366Y-143510000D01*
X129565585Y-143720330D01*
X129240729Y-144206511D01*
X129126655Y-144780000D01*
X129240729Y-145353489D01*
X129565585Y-145839670D01*
X130051766Y-146164526D01*
X130625255Y-146278600D01*
X130825915Y-146278600D01*
X130754233Y-146385879D01*
X130645000Y-146935030D01*
X130645000Y-147704970D01*
X130754233Y-148254121D01*
X131065302Y-148719668D01*
X131530849Y-149030737D01*
X132080000Y-149139970D01*
X132629151Y-149030737D01*
X133094698Y-148719668D01*
X133350000Y-148337582D01*
X133515128Y-148584714D01*
X130254921Y-151844921D01*
X130084755Y-152099593D01*
X130084755Y-152099594D01*
X130025000Y-152400000D01*
X130025000Y-156210000D01*
X130084755Y-156510407D01*
X130254921Y-156765079D01*
X130568960Y-157079118D01*
X130568960Y-158496000D01*
X130613238Y-158731317D01*
X130752310Y-158947441D01*
X130964510Y-159092431D01*
X131216400Y-159143440D01*
X132943600Y-159143440D01*
X133178917Y-159099162D01*
X133395041Y-158960090D01*
X133540031Y-158747890D01*
X133548400Y-158706561D01*
X133560330Y-158724415D01*
X134046511Y-159049271D01*
X134620000Y-159163345D01*
X135193489Y-159049271D01*
X135679670Y-158724415D01*
X135890000Y-158409634D01*
X136100330Y-158724415D01*
X136586511Y-159049271D01*
X137160000Y-159163345D01*
X137733489Y-159049271D01*
X138219670Y-158724415D01*
X138430000Y-158409634D01*
X138640330Y-158724415D01*
X139126511Y-159049271D01*
X139700000Y-159163345D01*
X140273489Y-159049271D01*
X140759670Y-158724415D01*
X140970000Y-158409634D01*
X141180330Y-158724415D01*
X141666511Y-159049271D01*
X142240000Y-159163345D01*
X142813489Y-159049271D01*
X143299670Y-158724415D01*
X143510000Y-158409634D01*
X143720330Y-158724415D01*
X144206511Y-159049271D01*
X144780000Y-159163345D01*
X145353489Y-159049271D01*
X145839670Y-158724415D01*
X146050000Y-158409634D01*
X146260330Y-158724415D01*
X146746511Y-159049271D01*
X147320000Y-159163345D01*
X147893489Y-159049271D01*
X148379670Y-158724415D01*
X148590000Y-158409634D01*
X148800330Y-158724415D01*
X149286511Y-159049271D01*
X149860000Y-159163345D01*
X150433489Y-159049271D01*
X150919670Y-158724415D01*
X151244526Y-158238234D01*
X151358600Y-157664745D01*
X151358600Y-157295255D01*
X151244526Y-156721766D01*
X150919670Y-156235585D01*
X150915137Y-156232556D01*
X151137166Y-155956483D01*
X151295000Y-155417000D01*
X151295000Y-155067000D01*
X149987000Y-155067000D01*
X149987000Y-155087000D01*
X149733000Y-155087000D01*
X149733000Y-155067000D01*
X149713000Y-155067000D01*
X149713000Y-154813000D01*
X149733000Y-154813000D01*
X149733000Y-153320085D01*
X149987000Y-153320085D01*
X149987000Y-154813000D01*
X151295000Y-154813000D01*
X151295000Y-154463000D01*
X151137166Y-153923517D01*
X150784896Y-153485500D01*
X150291819Y-153215633D01*
X150209039Y-153198096D01*
X149987000Y-153320085D01*
X149733000Y-153320085D01*
X149510961Y-153198096D01*
X149428181Y-153215633D01*
X148935104Y-153485500D01*
X148587149Y-153918151D01*
X148334698Y-153540332D01*
X147869151Y-153229263D01*
X147320000Y-153120030D01*
X146770849Y-153229263D01*
X146305302Y-153540332D01*
X146050000Y-153922418D01*
X145794698Y-153540332D01*
X145329151Y-153229263D01*
X144780000Y-153120030D01*
X144230849Y-153229263D01*
X143765302Y-153540332D01*
X143510000Y-153922418D01*
X143254698Y-153540332D01*
X142789151Y-153229263D01*
X142240000Y-153120030D01*
X141690849Y-153229263D01*
X141225302Y-153540332D01*
X140970000Y-153922418D01*
X140714698Y-153540332D01*
X140249151Y-153229263D01*
X139700000Y-153120030D01*
X139150849Y-153229263D01*
X138685302Y-153540332D01*
X138430000Y-153922418D01*
X138174698Y-153540332D01*
X137709151Y-153229263D01*
X137160000Y-153120030D01*
X136610849Y-153229263D01*
X136145302Y-153540332D01*
X135890000Y-153922418D01*
X135634698Y-153540332D01*
X135169151Y-153229263D01*
X134620000Y-153120030D01*
X134070849Y-153229263D01*
X133605302Y-153540332D01*
X133350000Y-153922418D01*
X133094698Y-153540332D01*
X132629151Y-153229263D01*
X132080000Y-153120030D01*
X131595000Y-153216503D01*
X131595000Y-152725158D01*
X135175079Y-149145079D01*
X135317882Y-148931358D01*
X135634698Y-148719668D01*
X135890000Y-148337582D01*
X136145302Y-148719668D01*
X136610849Y-149030737D01*
X137160000Y-149139970D01*
X137709151Y-149030737D01*
X138174698Y-148719668D01*
X138427149Y-148341849D01*
X138775104Y-148774500D01*
X139268181Y-149044367D01*
X139350961Y-149061904D01*
X139573000Y-148939915D01*
X139573000Y-147447000D01*
X139553000Y-147447000D01*
X139553000Y-147193000D01*
X139573000Y-147193000D01*
X139573000Y-147173000D01*
X139827000Y-147173000D01*
X139827000Y-147193000D01*
X139847000Y-147193000D01*
X139847000Y-147447000D01*
X139827000Y-147447000D01*
X139827000Y-148939915D01*
X140049039Y-149061904D01*
X140131819Y-149044367D01*
X140624896Y-148774500D01*
X140972851Y-148341849D01*
X141225302Y-148719668D01*
X141690849Y-149030737D01*
X142240000Y-149139970D01*
X142789151Y-149030737D01*
X143254698Y-148719668D01*
X143510000Y-148337582D01*
X143765302Y-148719668D01*
X144230849Y-149030737D01*
X144780000Y-149139970D01*
X145329151Y-149030737D01*
X145794698Y-148719668D01*
X146050000Y-148337582D01*
X146305302Y-148719668D01*
X146770849Y-149030737D01*
X147320000Y-149139970D01*
X147869151Y-149030737D01*
X148334698Y-148719668D01*
X148590000Y-148337582D01*
X148845302Y-148719668D01*
X149310849Y-149030737D01*
X149860000Y-149139970D01*
X150409151Y-149030737D01*
X150874698Y-148719668D01*
X151185767Y-148254121D01*
X151295000Y-147704970D01*
X151295000Y-146935030D01*
X151185767Y-146385879D01*
X150874698Y-145920332D01*
X150409151Y-145609263D01*
X149860000Y-145500030D01*
X149310849Y-145609263D01*
X148845302Y-145920332D01*
X148590000Y-146302418D01*
X148334698Y-145920332D01*
X147869151Y-145609263D01*
X147320000Y-145500030D01*
X146770849Y-145609263D01*
X146740020Y-145629862D01*
X145335079Y-144224921D01*
X145080407Y-144054755D01*
X144780000Y-143995000D01*
X133500000Y-143995000D01*
X133500000Y-143795750D01*
X145986500Y-143795750D01*
X145986500Y-144334809D01*
X146083173Y-144568198D01*
X146261801Y-144746827D01*
X146495190Y-144843500D01*
X147034250Y-144843500D01*
X147193000Y-144684750D01*
X147193000Y-143637000D01*
X147447000Y-143637000D01*
X147447000Y-144684750D01*
X147605750Y-144843500D01*
X148144810Y-144843500D01*
X148378199Y-144746827D01*
X148556827Y-144568198D01*
X148653500Y-144334809D01*
X148653500Y-143795750D01*
X148494750Y-143637000D01*
X147447000Y-143637000D01*
X147193000Y-143637000D01*
X146145250Y-143637000D01*
X145986500Y-143795750D01*
X133500000Y-143795750D01*
X133500000Y-142163914D01*
X133603517Y-142247166D01*
X134143000Y-142405000D01*
X134493000Y-142405000D01*
X134493000Y-141097000D01*
X134747000Y-141097000D01*
X134747000Y-142405000D01*
X135097000Y-142405000D01*
X135636483Y-142247166D01*
X136074500Y-141894896D01*
X136344367Y-141401819D01*
X136361904Y-141319039D01*
X136239915Y-141097000D01*
X134747000Y-141097000D01*
X134493000Y-141097000D01*
X134473000Y-141097000D01*
X134473000Y-140843000D01*
X134493000Y-140843000D01*
X134493000Y-140823000D01*
X134747000Y-140823000D01*
X134747000Y-140843000D01*
X136239915Y-140843000D01*
X136361904Y-140620961D01*
X136344367Y-140538181D01*
X136074500Y-140045104D01*
X135641849Y-139697149D01*
X136019668Y-139444698D01*
X136330737Y-138979151D01*
X136439970Y-138430000D01*
X136330737Y-137880849D01*
X136019668Y-137415302D01*
X135637582Y-137160000D01*
X136019668Y-136904698D01*
X136173148Y-136675000D01*
X136834842Y-136675000D01*
X140414921Y-140255079D01*
X140570546Y-140359064D01*
X140529263Y-140420849D01*
X140420030Y-140970000D01*
X140529263Y-141519151D01*
X140840332Y-141984698D01*
X141305879Y-142295767D01*
X141855030Y-142405000D01*
X142624970Y-142405000D01*
X143174121Y-142295767D01*
X143639668Y-141984698D01*
X143950737Y-141519151D01*
X143995244Y-141295402D01*
X144224921Y-141525079D01*
X144479593Y-141695245D01*
X144780000Y-141755000D01*
X146219421Y-141755000D01*
X146563647Y-142099827D01*
X146748296Y-142176500D01*
X146495190Y-142176500D01*
X146261801Y-142273173D01*
X146083173Y-142451802D01*
X145986500Y-142685191D01*
X145986500Y-143224250D01*
X146145250Y-143383000D01*
X147193000Y-143383000D01*
X147193000Y-143363000D01*
X147447000Y-143363000D01*
X147447000Y-143383000D01*
X148494750Y-143383000D01*
X148653500Y-143224250D01*
X148653500Y-142685191D01*
X148556827Y-142451802D01*
X148378199Y-142273173D01*
X148144810Y-142176500D01*
X147892009Y-142176500D01*
X148074380Y-142101146D01*
X148421130Y-141755000D01*
X148432056Y-141755000D01*
X148615585Y-142029670D01*
X149101766Y-142354526D01*
X149675255Y-142468600D01*
X150044745Y-142468600D01*
X150618234Y-142354526D01*
X151104415Y-142029670D01*
X151429271Y-141543489D01*
X151543345Y-140970000D01*
X151429271Y-140396511D01*
X151104415Y-139910330D01*
X150789634Y-139700000D01*
X151104415Y-139489670D01*
X151429271Y-139003489D01*
X151543345Y-138430000D01*
X151429271Y-137856511D01*
X151104415Y-137370330D01*
X150789634Y-137160000D01*
X151104415Y-136949670D01*
X151429271Y-136463489D01*
X151543345Y-135890000D01*
X151429271Y-135316511D01*
X151104415Y-134830330D01*
X150789634Y-134620000D01*
X151104415Y-134409670D01*
X151429271Y-133923489D01*
X151543345Y-133350000D01*
X151429271Y-132776511D01*
X151104415Y-132290330D01*
X150789634Y-132080000D01*
X151104415Y-131869670D01*
X151429271Y-131383489D01*
X151543345Y-130810000D01*
X151429271Y-130236511D01*
X151104415Y-129750330D01*
X150789634Y-129540000D01*
X151104415Y-129329670D01*
X151429271Y-128843489D01*
X151543345Y-128270000D01*
X151429271Y-127696511D01*
X151104415Y-127210330D01*
X150789634Y-127000000D01*
X151104415Y-126789670D01*
X151429271Y-126303489D01*
X151543345Y-125730000D01*
X151429271Y-125156511D01*
X151104415Y-124670330D01*
X151090087Y-124660757D01*
X151111317Y-124656762D01*
X151327441Y-124517690D01*
X151472431Y-124305490D01*
X151523440Y-124053600D01*
X151523440Y-122326400D01*
X151479162Y-122091083D01*
X151340090Y-121874959D01*
X151127890Y-121729969D01*
X150876000Y-121678960D01*
X150589783Y-121678960D01*
X150614583Y-121584188D01*
X149860000Y-120829605D01*
X149105417Y-121584188D01*
X149130217Y-121678960D01*
X148844000Y-121678960D01*
X148608683Y-121723238D01*
X148392559Y-121862310D01*
X148247569Y-122074510D01*
X148221108Y-122205180D01*
X148076353Y-122060173D01*
X147738554Y-121919906D01*
X148074380Y-121781146D01*
X148449827Y-121406353D01*
X148583314Y-121084882D01*
X148690200Y-121342929D01*
X148925812Y-121404583D01*
X149680395Y-120650000D01*
X150039605Y-120650000D01*
X150794188Y-121404583D01*
X151029800Y-121342929D01*
X151205927Y-120842520D01*
X151177148Y-120312801D01*
X151029800Y-119957071D01*
X150794188Y-119895417D01*
X150039605Y-120650000D01*
X149680395Y-120650000D01*
X148925812Y-119895417D01*
X148690200Y-119957071D01*
X148591917Y-120236312D01*
X148451146Y-119895620D01*
X148271652Y-119715812D01*
X149105417Y-119715812D01*
X149860000Y-120470395D01*
X150614583Y-119715812D01*
X150552929Y-119480200D01*
X150052520Y-119304073D01*
X149522801Y-119332852D01*
X149167071Y-119480200D01*
X149105417Y-119715812D01*
X148271652Y-119715812D01*
X148076353Y-119520173D01*
X147586413Y-119316732D01*
X147055914Y-119316269D01*
X146565620Y-119518854D01*
X146218870Y-119865000D01*
X145317506Y-119865000D01*
X145310327Y-119857808D01*
X144966799Y-119715162D01*
X144594833Y-119714838D01*
X144251057Y-119856883D01*
X143987808Y-120119673D01*
X143845162Y-120463201D01*
X143844838Y-120835167D01*
X143986883Y-121178943D01*
X144249673Y-121442192D01*
X144593201Y-121584838D01*
X144965167Y-121585162D01*
X145308943Y-121443117D01*
X145317074Y-121435000D01*
X146219421Y-121435000D01*
X146563647Y-121779827D01*
X146901446Y-121920094D01*
X146565620Y-122058854D01*
X146218870Y-122405000D01*
X144780000Y-122405000D01*
X144479593Y-122464755D01*
X144224921Y-122634921D01*
X143995244Y-122864598D01*
X143950737Y-122640849D01*
X143639668Y-122175302D01*
X143174121Y-121864233D01*
X143025000Y-121834571D01*
X143025000Y-120372049D01*
X143328735Y-120068845D01*
X143524777Y-119596724D01*
X143525223Y-119085519D01*
X143330005Y-118613057D01*
X142968845Y-118251265D01*
X142664765Y-118125000D01*
X143016310Y-118125000D01*
X143249699Y-118028327D01*
X143428327Y-117849698D01*
X143525000Y-117616309D01*
X143525000Y-117125750D01*
X143366250Y-116967000D01*
X142367000Y-116967000D01*
X142367000Y-116987000D01*
X142113000Y-116987000D01*
X142113000Y-116967000D01*
X142093000Y-116967000D01*
X142093000Y-116713000D01*
X142113000Y-116713000D01*
X142113000Y-116693000D01*
X142367000Y-116693000D01*
X142367000Y-116713000D01*
X143366250Y-116713000D01*
X143525000Y-116554250D01*
X143525000Y-116355000D01*
X144454842Y-116355000D01*
X145454921Y-117355079D01*
X145709594Y-117525245D01*
X146010000Y-117585000D01*
X146287951Y-117585000D01*
X146591155Y-117888735D01*
X147063276Y-118084777D01*
X147574481Y-118085223D01*
X148046943Y-117890005D01*
X148352482Y-117585000D01*
X148377961Y-117585000D01*
X148660222Y-118007433D01*
X149195845Y-118365325D01*
X149827655Y-118491000D01*
X149892345Y-118491000D01*
X150524155Y-118365325D01*
X151059778Y-118007433D01*
X151417670Y-117471810D01*
X151543345Y-116840000D01*
X151417670Y-116208190D01*
X151193034Y-115871999D01*
X151235698Y-115854327D01*
X151414327Y-115675699D01*
X151511000Y-115442310D01*
X151511000Y-114585750D01*
X151352250Y-114427000D01*
X149987000Y-114427000D01*
X149987000Y-114447000D01*
X149733000Y-114447000D01*
X149733000Y-114427000D01*
X147447000Y-114427000D01*
X147447000Y-114447000D01*
X147193000Y-114447000D01*
X147193000Y-114427000D01*
X146193750Y-114427000D01*
X146035000Y-114585750D01*
X146035000Y-115076309D01*
X146131673Y-115309698D01*
X146310301Y-115488327D01*
X146543690Y-115585000D01*
X146895567Y-115585000D01*
X146593057Y-115709995D01*
X146311359Y-115991201D01*
X145335079Y-115014921D01*
X145080407Y-114844755D01*
X144780000Y-114785000D01*
X141755000Y-114785000D01*
X141755000Y-114625158D01*
X142856467Y-113523691D01*
X146035000Y-113523691D01*
X146035000Y-114014250D01*
X146193750Y-114173000D01*
X147193000Y-114173000D01*
X147193000Y-113173750D01*
X147447000Y-113173750D01*
X147447000Y-114173000D01*
X149733000Y-114173000D01*
X149733000Y-111887000D01*
X149987000Y-111887000D01*
X149987000Y-114173000D01*
X151352250Y-114173000D01*
X151511000Y-114014250D01*
X151511000Y-113157690D01*
X151414327Y-112924301D01*
X151235698Y-112745673D01*
X151084261Y-112682946D01*
X151145000Y-112536309D01*
X151145000Y-112045750D01*
X150986250Y-111887000D01*
X149987000Y-111887000D01*
X149733000Y-111887000D01*
X148733750Y-111887000D01*
X148575000Y-112045750D01*
X148575000Y-112536309D01*
X148635739Y-112682946D01*
X148484302Y-112745673D01*
X148305673Y-112924301D01*
X148242945Y-113075738D01*
X148096310Y-113015000D01*
X147605750Y-113015000D01*
X147447000Y-113173750D01*
X147193000Y-113173750D01*
X147034250Y-113015000D01*
X146543690Y-113015000D01*
X146310301Y-113111673D01*
X146131673Y-113290302D01*
X146035000Y-113523691D01*
X142856467Y-113523691D01*
X146335158Y-110045000D01*
X148827951Y-110045000D01*
X149131155Y-110348735D01*
X149435235Y-110475000D01*
X149083690Y-110475000D01*
X148850301Y-110571673D01*
X148671673Y-110750302D01*
X148575000Y-110983691D01*
X148575000Y-111474250D01*
X148733750Y-111633000D01*
X149733000Y-111633000D01*
X149733000Y-111613000D01*
X149987000Y-111613000D01*
X149987000Y-111633000D01*
X150986250Y-111633000D01*
X151145000Y-111474250D01*
X151145000Y-110983691D01*
X151048327Y-110750302D01*
X150869699Y-110571673D01*
X150636310Y-110475000D01*
X150284433Y-110475000D01*
X150586943Y-110350005D01*
X150948735Y-109988845D01*
X151144777Y-109516724D01*
X151145223Y-109005519D01*
X150950005Y-108533057D01*
X150648371Y-108230895D01*
X150874698Y-108079668D01*
X151185767Y-107614121D01*
X151295000Y-107064970D01*
X151295000Y-106295030D01*
X151185767Y-105745879D01*
X150874698Y-105280332D01*
X150409151Y-104969263D01*
X149860000Y-104860030D01*
X149310849Y-104969263D01*
X148845302Y-105280332D01*
X148590000Y-105662418D01*
X148334698Y-105280332D01*
X147869151Y-104969263D01*
X147320000Y-104860030D01*
X146770849Y-104969263D01*
X146305302Y-105280332D01*
X146050000Y-105662418D01*
X145794698Y-105280332D01*
X145329151Y-104969263D01*
X144780000Y-104860030D01*
X144230849Y-104969263D01*
X143765302Y-105280332D01*
X143510000Y-105662418D01*
X143254698Y-105280332D01*
X142789151Y-104969263D01*
X142240000Y-104860030D01*
X141755000Y-104956503D01*
X141755000Y-100955158D01*
X142954921Y-102155079D01*
X143209593Y-102325245D01*
X143510000Y-102385000D01*
X147320000Y-102385000D01*
X147620407Y-102325245D01*
X147875079Y-102155079D01*
X149145079Y-100885079D01*
X149249064Y-100729454D01*
X149310849Y-100770737D01*
X149860000Y-100879970D01*
X150409151Y-100770737D01*
X150874698Y-100459668D01*
X151185767Y-99994121D01*
X151295000Y-99444970D01*
X151295000Y-98675030D01*
X151185767Y-98125879D01*
X150874698Y-97660332D01*
X150409151Y-97349263D01*
X150185402Y-97304756D01*
X150415079Y-97075079D01*
X150585245Y-96820407D01*
X150608767Y-96702154D01*
X150919670Y-96494415D01*
X151244526Y-96008234D01*
X151358600Y-95434745D01*
X151358600Y-95065255D01*
X151244526Y-94491766D01*
X150919670Y-94005585D01*
X150433489Y-93680729D01*
X149860000Y-93566655D01*
X149286511Y-93680729D01*
X148800330Y-94005585D01*
X148590000Y-94320366D01*
X148379670Y-94005585D01*
X147893489Y-93680729D01*
X147320000Y-93566655D01*
X146746511Y-93680729D01*
X146260330Y-94005585D01*
X146050000Y-94320366D01*
X145839670Y-94005585D01*
X145528767Y-93797846D01*
X145505245Y-93679594D01*
X145505245Y-93679593D01*
X145335079Y-93424921D01*
X144065079Y-92154921D01*
X143810407Y-91984755D01*
X143510000Y-91925000D01*
X139700000Y-91925000D01*
X139399593Y-91984755D01*
X139144921Y-92154921D01*
X137874921Y-93424921D01*
X137707456Y-93675551D01*
X137160000Y-93566655D01*
X136586511Y-93680729D01*
X136100330Y-94005585D01*
X135890000Y-94320366D01*
X135679670Y-94005585D01*
X135193489Y-93680729D01*
X134620000Y-93566655D01*
X134046511Y-93680729D01*
X133560330Y-94005585D01*
X133550757Y-94019913D01*
X133546762Y-93998683D01*
X133407690Y-93782559D01*
X133195490Y-93637569D01*
X132943600Y-93586560D01*
X131216400Y-93586560D01*
X130981083Y-93630838D01*
X130764959Y-93769910D01*
X130619969Y-93982110D01*
X130568960Y-94234000D01*
X130568960Y-96266000D01*
X130613238Y-96501317D01*
X130752310Y-96717441D01*
X130964510Y-96862431D01*
X131216400Y-96913440D01*
X132565000Y-96913440D01*
X132565000Y-97364740D01*
X132511819Y-97335633D01*
X132429039Y-97318096D01*
X132207000Y-97440085D01*
X132207000Y-98933000D01*
X132227000Y-98933000D01*
X132227000Y-99187000D01*
X132207000Y-99187000D01*
X132207000Y-99207000D01*
X131953000Y-99207000D01*
X131953000Y-99187000D01*
X130645000Y-99187000D01*
X130645000Y-99537000D01*
X130802834Y-100076483D01*
X131155104Y-100514500D01*
X131629842Y-100774330D01*
X131551057Y-100806883D01*
X131287808Y-101069673D01*
X131145162Y-101413201D01*
X131145152Y-101424690D01*
X130254921Y-102314921D01*
X130084755Y-102569593D01*
X130084755Y-102569594D01*
X130025000Y-102870000D01*
X130025000Y-109220000D01*
X130084755Y-109520407D01*
X130254921Y-109775079D01*
X131334921Y-110855079D01*
X131589594Y-111025245D01*
X131890000Y-111085000D01*
X133408645Y-111085000D01*
X133467630Y-111173277D01*
X133660891Y-111302410D01*
X133438067Y-111470875D01*
X133191714Y-111890624D01*
X133176538Y-111982391D01*
X133301269Y-112173000D01*
X134493000Y-112173000D01*
X134493000Y-112153000D01*
X134747000Y-112153000D01*
X134747000Y-112173000D01*
X135938731Y-112173000D01*
X136063462Y-111982391D01*
X136048286Y-111890624D01*
X135801933Y-111470875D01*
X135579109Y-111302410D01*
X135772370Y-111173277D01*
X136040084Y-110772614D01*
X136134093Y-110300000D01*
X136040084Y-109827386D01*
X135772370Y-109426723D01*
X135371707Y-109159009D01*
X134899093Y-109065000D01*
X134340907Y-109065000D01*
X133868293Y-109159009D01*
X133467630Y-109426723D01*
X133408645Y-109515000D01*
X132215158Y-109515000D01*
X131595000Y-108894842D01*
X131595000Y-108403497D01*
X132080000Y-108499970D01*
X132629151Y-108390737D01*
X133094698Y-108079668D01*
X133350000Y-107697582D01*
X133605302Y-108079668D01*
X134070849Y-108390737D01*
X134620000Y-108499970D01*
X135169151Y-108390737D01*
X135230936Y-108349454D01*
X135334921Y-108505079D01*
X136604921Y-109775079D01*
X136859593Y-109945245D01*
X137160000Y-110005000D01*
X140970000Y-110005000D01*
X141270407Y-109945245D01*
X141525079Y-109775079D01*
X142795079Y-108505079D01*
X142937883Y-108291357D01*
X143254698Y-108079668D01*
X143510000Y-107697582D01*
X143765302Y-108079668D01*
X144230849Y-108390737D01*
X144780000Y-108499970D01*
X145329151Y-108390737D01*
X145794698Y-108079668D01*
X146050000Y-107697582D01*
X146305302Y-108079668D01*
X146770849Y-108390737D01*
X147194467Y-108475000D01*
X146010000Y-108475000D01*
X145709593Y-108534755D01*
X145454921Y-108704921D01*
X140644842Y-113515000D01*
X136082630Y-113515000D01*
X136073162Y-113464683D01*
X135934090Y-113248559D01*
X135781691Y-113144429D01*
X135801933Y-113129125D01*
X136048286Y-112709376D01*
X136063462Y-112617609D01*
X135938731Y-112427000D01*
X134747000Y-112427000D01*
X134747000Y-112447000D01*
X134493000Y-112447000D01*
X134493000Y-112427000D01*
X133301269Y-112427000D01*
X133176538Y-112617609D01*
X133191714Y-112709376D01*
X133438067Y-113129125D01*
X133459420Y-113145269D01*
X133318559Y-113235910D01*
X133173569Y-113448110D01*
X133122560Y-113700000D01*
X133122560Y-114900000D01*
X133166838Y-115135317D01*
X133305910Y-115351441D01*
X133518110Y-115496431D01*
X133770000Y-115547440D01*
X133835000Y-115547440D01*
X133835000Y-117784842D01*
X132473440Y-119146402D01*
X132473440Y-118516400D01*
X132429162Y-118281083D01*
X132290090Y-118064959D01*
X132077890Y-117919969D01*
X131826000Y-117868960D01*
X129794000Y-117868960D01*
X129558683Y-117913238D01*
X129342559Y-118052310D01*
X129197569Y-118264510D01*
X129146560Y-118516400D01*
X129146560Y-120243600D01*
X129190838Y-120478917D01*
X129329910Y-120695041D01*
X129542110Y-120840031D01*
X129583439Y-120848400D01*
X129565585Y-120860330D01*
X129240729Y-121346511D01*
X129126655Y-121920000D01*
X128980000Y-121920000D01*
X128980000Y-98583000D01*
X130645000Y-98583000D01*
X130645000Y-98933000D01*
X131953000Y-98933000D01*
X131953000Y-97440085D01*
X131730961Y-97318096D01*
X131648181Y-97335633D01*
X131155104Y-97605500D01*
X130802834Y-98043517D01*
X130645000Y-98583000D01*
X128980000Y-98583000D01*
X128980000Y-88340000D01*
X147850392Y-88340000D01*
X147961877Y-88451485D01*
X147961877Y-88451485D01*
G37*
X147961877Y-88451485D02*
X147587832Y-88676154D01*
X147189120Y-89659388D01*
X147197025Y-90720357D01*
X147587832Y-91663846D01*
X147961879Y-91888516D01*
X149680395Y-90170000D01*
X149666253Y-90155858D01*
X149845858Y-89976253D01*
X149860000Y-89990395D01*
X149874143Y-89976253D01*
X150053748Y-90155858D01*
X150039605Y-90170000D01*
X150053748Y-90184143D01*
X149874143Y-90363748D01*
X149860000Y-90349605D01*
X148141484Y-92068121D01*
X148366154Y-92442168D01*
X149349388Y-92840880D01*
X150410357Y-92832975D01*
X151353846Y-92442168D01*
X151578515Y-92068123D01*
X151690000Y-92179608D01*
X151690000Y-164390000D01*
X132819608Y-164390000D01*
X132708123Y-164278515D01*
X133082168Y-164053846D01*
X133480880Y-163070612D01*
X133472975Y-162009643D01*
X133082168Y-161066154D01*
X132708121Y-160841484D01*
X130989605Y-162560000D01*
X131003748Y-162574143D01*
X130824143Y-162753748D01*
X130810000Y-162739605D01*
X130795858Y-162753748D01*
X130616253Y-162574143D01*
X130630395Y-162560000D01*
X130616253Y-162545858D01*
X130795858Y-162366253D01*
X130810000Y-162380395D01*
X132528516Y-160661879D01*
X132303846Y-160287832D01*
X131320612Y-159889120D01*
X130259643Y-159897025D01*
X129316154Y-160287832D01*
X129091485Y-160661877D01*
X128980000Y-160550392D01*
X128980000Y-121920000D01*
X129126655Y-121920000D01*
X129240729Y-122493489D01*
X129565585Y-122979670D01*
X129880366Y-123190000D01*
X129565585Y-123400330D01*
X129240729Y-123886511D01*
X129126655Y-124460000D01*
X129240729Y-125033489D01*
X129565585Y-125519670D01*
X129880366Y-125730000D01*
X129565585Y-125940330D01*
X129240729Y-126426511D01*
X129126655Y-127000000D01*
X129240729Y-127573489D01*
X129565585Y-128059670D01*
X129880366Y-128270000D01*
X129565585Y-128480330D01*
X129240729Y-128966511D01*
X129126655Y-129540000D01*
X129240729Y-130113489D01*
X129565585Y-130599670D01*
X129880366Y-130810000D01*
X129565585Y-131020330D01*
X129240729Y-131506511D01*
X129126655Y-132080000D01*
X129240729Y-132653489D01*
X129565585Y-133139670D01*
X129880366Y-133350000D01*
X129565585Y-133560330D01*
X129240729Y-134046511D01*
X129126655Y-134620000D01*
X129240729Y-135193489D01*
X129565585Y-135679670D01*
X129880366Y-135890000D01*
X129565585Y-136100330D01*
X129240729Y-136586511D01*
X129126655Y-137160000D01*
X129240729Y-137733489D01*
X129565585Y-138219670D01*
X129880366Y-138430000D01*
X129565585Y-138640330D01*
X129240729Y-139126511D01*
X129126655Y-139700000D01*
X129240729Y-140273489D01*
X129565585Y-140759670D01*
X129880366Y-140970000D01*
X129565585Y-141180330D01*
X129240729Y-141666511D01*
X129126655Y-142240000D01*
X129240729Y-142813489D01*
X129565585Y-143299670D01*
X129880366Y-143510000D01*
X129565585Y-143720330D01*
X129240729Y-144206511D01*
X129126655Y-144780000D01*
X129240729Y-145353489D01*
X129565585Y-145839670D01*
X130051766Y-146164526D01*
X130625255Y-146278600D01*
X130825915Y-146278600D01*
X130754233Y-146385879D01*
X130645000Y-146935030D01*
X130645000Y-147704970D01*
X130754233Y-148254121D01*
X131065302Y-148719668D01*
X131530849Y-149030737D01*
X132080000Y-149139970D01*
X132629151Y-149030737D01*
X133094698Y-148719668D01*
X133350000Y-148337582D01*
X133515128Y-148584714D01*
X130254921Y-151844921D01*
X130084755Y-152099593D01*
X130084755Y-152099594D01*
X130025000Y-152400000D01*
X130025000Y-156210000D01*
X130084755Y-156510407D01*
X130254921Y-156765079D01*
X130568960Y-157079118D01*
X130568960Y-158496000D01*
X130613238Y-158731317D01*
X130752310Y-158947441D01*
X130964510Y-159092431D01*
X131216400Y-159143440D01*
X132943600Y-159143440D01*
X133178917Y-159099162D01*
X133395041Y-158960090D01*
X133540031Y-158747890D01*
X133548400Y-158706561D01*
X133560330Y-158724415D01*
X134046511Y-159049271D01*
X134620000Y-159163345D01*
X135193489Y-159049271D01*
X135679670Y-158724415D01*
X135890000Y-158409634D01*
X136100330Y-158724415D01*
X136586511Y-159049271D01*
X137160000Y-159163345D01*
X137733489Y-159049271D01*
X138219670Y-158724415D01*
X138430000Y-158409634D01*
X138640330Y-158724415D01*
X139126511Y-159049271D01*
X139700000Y-159163345D01*
X140273489Y-159049271D01*
X140759670Y-158724415D01*
X140970000Y-158409634D01*
X141180330Y-158724415D01*
X141666511Y-159049271D01*
X142240000Y-159163345D01*
X142813489Y-159049271D01*
X143299670Y-158724415D01*
X143510000Y-158409634D01*
X143720330Y-158724415D01*
X144206511Y-159049271D01*
X144780000Y-159163345D01*
X145353489Y-159049271D01*
X145839670Y-158724415D01*
X146050000Y-158409634D01*
X146260330Y-158724415D01*
X146746511Y-159049271D01*
X147320000Y-159163345D01*
X147893489Y-159049271D01*
X148379670Y-158724415D01*
X148590000Y-158409634D01*
X148800330Y-158724415D01*
X149286511Y-159049271D01*
X149860000Y-159163345D01*
X150433489Y-159049271D01*
X150919670Y-158724415D01*
X151244526Y-158238234D01*
X151358600Y-157664745D01*
X151358600Y-157295255D01*
X151244526Y-156721766D01*
X150919670Y-156235585D01*
X150915137Y-156232556D01*
X151137166Y-155956483D01*
X151295000Y-155417000D01*
X151295000Y-155067000D01*
X149987000Y-155067000D01*
X149987000Y-155087000D01*
X149733000Y-155087000D01*
X149733000Y-155067000D01*
X149713000Y-155067000D01*
X149713000Y-154813000D01*
X149733000Y-154813000D01*
X149733000Y-153320085D01*
X149987000Y-153320085D01*
X149987000Y-154813000D01*
X151295000Y-154813000D01*
X151295000Y-154463000D01*
X151137166Y-153923517D01*
X150784896Y-153485500D01*
X150291819Y-153215633D01*
X150209039Y-153198096D01*
X149987000Y-153320085D01*
X149733000Y-153320085D01*
X149510961Y-153198096D01*
X149428181Y-153215633D01*
X148935104Y-153485500D01*
X148587149Y-153918151D01*
X148334698Y-153540332D01*
X147869151Y-153229263D01*
X147320000Y-153120030D01*
X146770849Y-153229263D01*
X146305302Y-153540332D01*
X146050000Y-153922418D01*
X145794698Y-153540332D01*
X145329151Y-153229263D01*
X144780000Y-153120030D01*
X144230849Y-153229263D01*
X143765302Y-153540332D01*
X143510000Y-153922418D01*
X143254698Y-153540332D01*
X142789151Y-153229263D01*
X142240000Y-153120030D01*
X141690849Y-153229263D01*
X141225302Y-153540332D01*
X140970000Y-153922418D01*
X140714698Y-153540332D01*
X140249151Y-153229263D01*
X139700000Y-153120030D01*
X139150849Y-153229263D01*
X138685302Y-153540332D01*
X138430000Y-153922418D01*
X138174698Y-153540332D01*
X137709151Y-153229263D01*
X137160000Y-153120030D01*
X136610849Y-153229263D01*
X136145302Y-153540332D01*
X135890000Y-153922418D01*
X135634698Y-153540332D01*
X135169151Y-153229263D01*
X134620000Y-153120030D01*
X134070849Y-153229263D01*
X133605302Y-153540332D01*
X133350000Y-153922418D01*
X133094698Y-153540332D01*
X132629151Y-153229263D01*
X132080000Y-153120030D01*
X131595000Y-153216503D01*
X131595000Y-152725158D01*
X135175079Y-149145079D01*
X135317882Y-148931358D01*
X135634698Y-148719668D01*
X135890000Y-148337582D01*
X136145302Y-148719668D01*
X136610849Y-149030737D01*
X137160000Y-149139970D01*
X137709151Y-149030737D01*
X138174698Y-148719668D01*
X138427149Y-148341849D01*
X138775104Y-148774500D01*
X139268181Y-149044367D01*
X139350961Y-149061904D01*
X139573000Y-148939915D01*
X139573000Y-147447000D01*
X139553000Y-147447000D01*
X139553000Y-147193000D01*
X139573000Y-147193000D01*
X139573000Y-147173000D01*
X139827000Y-147173000D01*
X139827000Y-147193000D01*
X139847000Y-147193000D01*
X139847000Y-147447000D01*
X139827000Y-147447000D01*
X139827000Y-148939915D01*
X140049039Y-149061904D01*
X140131819Y-149044367D01*
X140624896Y-148774500D01*
X140972851Y-148341849D01*
X141225302Y-148719668D01*
X141690849Y-149030737D01*
X142240000Y-149139970D01*
X142789151Y-149030737D01*
X143254698Y-148719668D01*
X143510000Y-148337582D01*
X143765302Y-148719668D01*
X144230849Y-149030737D01*
X144780000Y-149139970D01*
X145329151Y-149030737D01*
X145794698Y-148719668D01*
X146050000Y-148337582D01*
X146305302Y-148719668D01*
X146770849Y-149030737D01*
X147320000Y-149139970D01*
X147869151Y-149030737D01*
X148334698Y-148719668D01*
X148590000Y-148337582D01*
X148845302Y-148719668D01*
X149310849Y-149030737D01*
X149860000Y-149139970D01*
X150409151Y-149030737D01*
X150874698Y-148719668D01*
X151185767Y-148254121D01*
X151295000Y-147704970D01*
X151295000Y-146935030D01*
X151185767Y-146385879D01*
X150874698Y-145920332D01*
X150409151Y-145609263D01*
X149860000Y-145500030D01*
X149310849Y-145609263D01*
X148845302Y-145920332D01*
X148590000Y-146302418D01*
X148334698Y-145920332D01*
X147869151Y-145609263D01*
X147320000Y-145500030D01*
X146770849Y-145609263D01*
X146740020Y-145629862D01*
X145335079Y-144224921D01*
X145080407Y-144054755D01*
X144780000Y-143995000D01*
X133500000Y-143995000D01*
X133500000Y-143795750D01*
X145986500Y-143795750D01*
X145986500Y-144334809D01*
X146083173Y-144568198D01*
X146261801Y-144746827D01*
X146495190Y-144843500D01*
X147034250Y-144843500D01*
X147193000Y-144684750D01*
X147193000Y-143637000D01*
X147447000Y-143637000D01*
X147447000Y-144684750D01*
X147605750Y-144843500D01*
X148144810Y-144843500D01*
X148378199Y-144746827D01*
X148556827Y-144568198D01*
X148653500Y-144334809D01*
X148653500Y-143795750D01*
X148494750Y-143637000D01*
X147447000Y-143637000D01*
X147193000Y-143637000D01*
X146145250Y-143637000D01*
X145986500Y-143795750D01*
X133500000Y-143795750D01*
X133500000Y-142163914D01*
X133603517Y-142247166D01*
X134143000Y-142405000D01*
X134493000Y-142405000D01*
X134493000Y-141097000D01*
X134747000Y-141097000D01*
X134747000Y-142405000D01*
X135097000Y-142405000D01*
X135636483Y-142247166D01*
X136074500Y-141894896D01*
X136344367Y-141401819D01*
X136361904Y-141319039D01*
X136239915Y-141097000D01*
X134747000Y-141097000D01*
X134493000Y-141097000D01*
X134473000Y-141097000D01*
X134473000Y-140843000D01*
X134493000Y-140843000D01*
X134493000Y-140823000D01*
X134747000Y-140823000D01*
X134747000Y-140843000D01*
X136239915Y-140843000D01*
X136361904Y-140620961D01*
X136344367Y-140538181D01*
X136074500Y-140045104D01*
X135641849Y-139697149D01*
X136019668Y-139444698D01*
X136330737Y-138979151D01*
X136439970Y-138430000D01*
X136330737Y-137880849D01*
X136019668Y-137415302D01*
X135637582Y-137160000D01*
X136019668Y-136904698D01*
X136173148Y-136675000D01*
X136834842Y-136675000D01*
X140414921Y-140255079D01*
X140570546Y-140359064D01*
X140529263Y-140420849D01*
X140420030Y-140970000D01*
X140529263Y-141519151D01*
X140840332Y-141984698D01*
X141305879Y-142295767D01*
X141855030Y-142405000D01*
X142624970Y-142405000D01*
X143174121Y-142295767D01*
X143639668Y-141984698D01*
X143950737Y-141519151D01*
X143995244Y-141295402D01*
X144224921Y-141525079D01*
X144479593Y-141695245D01*
X144780000Y-141755000D01*
X146219421Y-141755000D01*
X146563647Y-142099827D01*
X146748296Y-142176500D01*
X146495190Y-142176500D01*
X146261801Y-142273173D01*
X146083173Y-142451802D01*
X145986500Y-142685191D01*
X145986500Y-143224250D01*
X146145250Y-143383000D01*
X147193000Y-143383000D01*
X147193000Y-143363000D01*
X147447000Y-143363000D01*
X147447000Y-143383000D01*
X148494750Y-143383000D01*
X148653500Y-143224250D01*
X148653500Y-142685191D01*
X148556827Y-142451802D01*
X148378199Y-142273173D01*
X148144810Y-142176500D01*
X147892009Y-142176500D01*
X148074380Y-142101146D01*
X148421130Y-141755000D01*
X148432056Y-141755000D01*
X148615585Y-142029670D01*
X149101766Y-142354526D01*
X149675255Y-142468600D01*
X150044745Y-142468600D01*
X150618234Y-142354526D01*
X151104415Y-142029670D01*
X151429271Y-141543489D01*
X151543345Y-140970000D01*
X151429271Y-140396511D01*
X151104415Y-139910330D01*
X150789634Y-139700000D01*
X151104415Y-139489670D01*
X151429271Y-139003489D01*
X151543345Y-138430000D01*
X151429271Y-137856511D01*
X151104415Y-137370330D01*
X150789634Y-137160000D01*
X151104415Y-136949670D01*
X151429271Y-136463489D01*
X151543345Y-135890000D01*
X151429271Y-135316511D01*
X151104415Y-134830330D01*
X150789634Y-134620000D01*
X151104415Y-134409670D01*
X151429271Y-133923489D01*
X151543345Y-133350000D01*
X151429271Y-132776511D01*
X151104415Y-132290330D01*
X150789634Y-132080000D01*
X151104415Y-131869670D01*
X151429271Y-131383489D01*
X151543345Y-130810000D01*
X151429271Y-130236511D01*
X151104415Y-129750330D01*
X150789634Y-129540000D01*
X151104415Y-129329670D01*
X151429271Y-128843489D01*
X151543345Y-128270000D01*
X151429271Y-127696511D01*
X151104415Y-127210330D01*
X150789634Y-127000000D01*
X151104415Y-126789670D01*
X151429271Y-126303489D01*
X151543345Y-125730000D01*
X151429271Y-125156511D01*
X151104415Y-124670330D01*
X151090087Y-124660757D01*
X151111317Y-124656762D01*
X151327441Y-124517690D01*
X151472431Y-124305490D01*
X151523440Y-124053600D01*
X151523440Y-122326400D01*
X151479162Y-122091083D01*
X151340090Y-121874959D01*
X151127890Y-121729969D01*
X150876000Y-121678960D01*
X150589783Y-121678960D01*
X150614583Y-121584188D01*
X149860000Y-120829605D01*
X149105417Y-121584188D01*
X149130217Y-121678960D01*
X148844000Y-121678960D01*
X148608683Y-121723238D01*
X148392559Y-121862310D01*
X148247569Y-122074510D01*
X148221108Y-122205180D01*
X148076353Y-122060173D01*
X147738554Y-121919906D01*
X148074380Y-121781146D01*
X148449827Y-121406353D01*
X148583314Y-121084882D01*
X148690200Y-121342929D01*
X148925812Y-121404583D01*
X149680395Y-120650000D01*
X150039605Y-120650000D01*
X150794188Y-121404583D01*
X151029800Y-121342929D01*
X151205927Y-120842520D01*
X151177148Y-120312801D01*
X151029800Y-119957071D01*
X150794188Y-119895417D01*
X150039605Y-120650000D01*
X149680395Y-120650000D01*
X148925812Y-119895417D01*
X148690200Y-119957071D01*
X148591917Y-120236312D01*
X148451146Y-119895620D01*
X148271652Y-119715812D01*
X149105417Y-119715812D01*
X149860000Y-120470395D01*
X150614583Y-119715812D01*
X150552929Y-119480200D01*
X150052520Y-119304073D01*
X149522801Y-119332852D01*
X149167071Y-119480200D01*
X149105417Y-119715812D01*
X148271652Y-119715812D01*
X148076353Y-119520173D01*
X147586413Y-119316732D01*
X147055914Y-119316269D01*
X146565620Y-119518854D01*
X146218870Y-119865000D01*
X145317506Y-119865000D01*
X145310327Y-119857808D01*
X144966799Y-119715162D01*
X144594833Y-119714838D01*
X144251057Y-119856883D01*
X143987808Y-120119673D01*
X143845162Y-120463201D01*
X143844838Y-120835167D01*
X143986883Y-121178943D01*
X144249673Y-121442192D01*
X144593201Y-121584838D01*
X144965167Y-121585162D01*
X145308943Y-121443117D01*
X145317074Y-121435000D01*
X146219421Y-121435000D01*
X146563647Y-121779827D01*
X146901446Y-121920094D01*
X146565620Y-122058854D01*
X146218870Y-122405000D01*
X144780000Y-122405000D01*
X144479593Y-122464755D01*
X144224921Y-122634921D01*
X143995244Y-122864598D01*
X143950737Y-122640849D01*
X143639668Y-122175302D01*
X143174121Y-121864233D01*
X143025000Y-121834571D01*
X143025000Y-120372049D01*
X143328735Y-120068845D01*
X143524777Y-119596724D01*
X143525223Y-119085519D01*
X143330005Y-118613057D01*
X142968845Y-118251265D01*
X142664765Y-118125000D01*
X143016310Y-118125000D01*
X143249699Y-118028327D01*
X143428327Y-117849698D01*
X143525000Y-117616309D01*
X143525000Y-117125750D01*
X143366250Y-116967000D01*
X142367000Y-116967000D01*
X142367000Y-116987000D01*
X142113000Y-116987000D01*
X142113000Y-116967000D01*
X142093000Y-116967000D01*
X142093000Y-116713000D01*
X142113000Y-116713000D01*
X142113000Y-116693000D01*
X142367000Y-116693000D01*
X142367000Y-116713000D01*
X143366250Y-116713000D01*
X143525000Y-116554250D01*
X143525000Y-116355000D01*
X144454842Y-116355000D01*
X145454921Y-117355079D01*
X145709594Y-117525245D01*
X146010000Y-117585000D01*
X146287951Y-117585000D01*
X146591155Y-117888735D01*
X147063276Y-118084777D01*
X147574481Y-118085223D01*
X148046943Y-117890005D01*
X148352482Y-117585000D01*
X148377961Y-117585000D01*
X148660222Y-118007433D01*
X149195845Y-118365325D01*
X149827655Y-118491000D01*
X149892345Y-118491000D01*
X150524155Y-118365325D01*
X151059778Y-118007433D01*
X151417670Y-117471810D01*
X151543345Y-116840000D01*
X151417670Y-116208190D01*
X151193034Y-115871999D01*
X151235698Y-115854327D01*
X151414327Y-115675699D01*
X151511000Y-115442310D01*
X151511000Y-114585750D01*
X151352250Y-114427000D01*
X149987000Y-114427000D01*
X149987000Y-114447000D01*
X149733000Y-114447000D01*
X149733000Y-114427000D01*
X147447000Y-114427000D01*
X147447000Y-114447000D01*
X147193000Y-114447000D01*
X147193000Y-114427000D01*
X146193750Y-114427000D01*
X146035000Y-114585750D01*
X146035000Y-115076309D01*
X146131673Y-115309698D01*
X146310301Y-115488327D01*
X146543690Y-115585000D01*
X146895567Y-115585000D01*
X146593057Y-115709995D01*
X146311359Y-115991201D01*
X145335079Y-115014921D01*
X145080407Y-114844755D01*
X144780000Y-114785000D01*
X141755000Y-114785000D01*
X141755000Y-114625158D01*
X142856467Y-113523691D01*
X146035000Y-113523691D01*
X146035000Y-114014250D01*
X146193750Y-114173000D01*
X147193000Y-114173000D01*
X147193000Y-113173750D01*
X147447000Y-113173750D01*
X147447000Y-114173000D01*
X149733000Y-114173000D01*
X149733000Y-111887000D01*
X149987000Y-111887000D01*
X149987000Y-114173000D01*
X151352250Y-114173000D01*
X151511000Y-114014250D01*
X151511000Y-113157690D01*
X151414327Y-112924301D01*
X151235698Y-112745673D01*
X151084261Y-112682946D01*
X151145000Y-112536309D01*
X151145000Y-112045750D01*
X150986250Y-111887000D01*
X149987000Y-111887000D01*
X149733000Y-111887000D01*
X148733750Y-111887000D01*
X148575000Y-112045750D01*
X148575000Y-112536309D01*
X148635739Y-112682946D01*
X148484302Y-112745673D01*
X148305673Y-112924301D01*
X148242945Y-113075738D01*
X148096310Y-113015000D01*
X147605750Y-113015000D01*
X147447000Y-113173750D01*
X147193000Y-113173750D01*
X147034250Y-113015000D01*
X146543690Y-113015000D01*
X146310301Y-113111673D01*
X146131673Y-113290302D01*
X146035000Y-113523691D01*
X142856467Y-113523691D01*
X146335158Y-110045000D01*
X148827951Y-110045000D01*
X149131155Y-110348735D01*
X149435235Y-110475000D01*
X149083690Y-110475000D01*
X148850301Y-110571673D01*
X148671673Y-110750302D01*
X148575000Y-110983691D01*
X148575000Y-111474250D01*
X148733750Y-111633000D01*
X149733000Y-111633000D01*
X149733000Y-111613000D01*
X149987000Y-111613000D01*
X149987000Y-111633000D01*
X150986250Y-111633000D01*
X151145000Y-111474250D01*
X151145000Y-110983691D01*
X151048327Y-110750302D01*
X150869699Y-110571673D01*
X150636310Y-110475000D01*
X150284433Y-110475000D01*
X150586943Y-110350005D01*
X150948735Y-109988845D01*
X151144777Y-109516724D01*
X151145223Y-109005519D01*
X150950005Y-108533057D01*
X150648371Y-108230895D01*
X150874698Y-108079668D01*
X151185767Y-107614121D01*
X151295000Y-107064970D01*
X151295000Y-106295030D01*
X151185767Y-105745879D01*
X150874698Y-105280332D01*
X150409151Y-104969263D01*
X149860000Y-104860030D01*
X149310849Y-104969263D01*
X148845302Y-105280332D01*
X148590000Y-105662418D01*
X148334698Y-105280332D01*
X147869151Y-104969263D01*
X147320000Y-104860030D01*
X146770849Y-104969263D01*
X146305302Y-105280332D01*
X146050000Y-105662418D01*
X145794698Y-105280332D01*
X145329151Y-104969263D01*
X144780000Y-104860030D01*
X144230849Y-104969263D01*
X143765302Y-105280332D01*
X143510000Y-105662418D01*
X143254698Y-105280332D01*
X142789151Y-104969263D01*
X142240000Y-104860030D01*
X141755000Y-104956503D01*
X141755000Y-100955158D01*
X142954921Y-102155079D01*
X143209593Y-102325245D01*
X143510000Y-102385000D01*
X147320000Y-102385000D01*
X147620407Y-102325245D01*
X147875079Y-102155079D01*
X149145079Y-100885079D01*
X149249064Y-100729454D01*
X149310849Y-100770737D01*
X149860000Y-100879970D01*
X150409151Y-100770737D01*
X150874698Y-100459668D01*
X151185767Y-99994121D01*
X151295000Y-99444970D01*
X151295000Y-98675030D01*
X151185767Y-98125879D01*
X150874698Y-97660332D01*
X150409151Y-97349263D01*
X150185402Y-97304756D01*
X150415079Y-97075079D01*
X150585245Y-96820407D01*
X150608767Y-96702154D01*
X150919670Y-96494415D01*
X151244526Y-96008234D01*
X151358600Y-95434745D01*
X151358600Y-95065255D01*
X151244526Y-94491766D01*
X150919670Y-94005585D01*
X150433489Y-93680729D01*
X149860000Y-93566655D01*
X149286511Y-93680729D01*
X148800330Y-94005585D01*
X148590000Y-94320366D01*
X148379670Y-94005585D01*
X147893489Y-93680729D01*
X147320000Y-93566655D01*
X146746511Y-93680729D01*
X146260330Y-94005585D01*
X146050000Y-94320366D01*
X145839670Y-94005585D01*
X145528767Y-93797846D01*
X145505245Y-93679594D01*
X145505245Y-93679593D01*
X145335079Y-93424921D01*
X144065079Y-92154921D01*
X143810407Y-91984755D01*
X143510000Y-91925000D01*
X139700000Y-91925000D01*
X139399593Y-91984755D01*
X139144921Y-92154921D01*
X137874921Y-93424921D01*
X137707456Y-93675551D01*
X137160000Y-93566655D01*
X136586511Y-93680729D01*
X136100330Y-94005585D01*
X135890000Y-94320366D01*
X135679670Y-94005585D01*
X135193489Y-93680729D01*
X134620000Y-93566655D01*
X134046511Y-93680729D01*
X133560330Y-94005585D01*
X133550757Y-94019913D01*
X133546762Y-93998683D01*
X133407690Y-93782559D01*
X133195490Y-93637569D01*
X132943600Y-93586560D01*
X131216400Y-93586560D01*
X130981083Y-93630838D01*
X130764959Y-93769910D01*
X130619969Y-93982110D01*
X130568960Y-94234000D01*
X130568960Y-96266000D01*
X130613238Y-96501317D01*
X130752310Y-96717441D01*
X130964510Y-96862431D01*
X131216400Y-96913440D01*
X132565000Y-96913440D01*
X132565000Y-97364740D01*
X132511819Y-97335633D01*
X132429039Y-97318096D01*
X132207000Y-97440085D01*
X132207000Y-98933000D01*
X132227000Y-98933000D01*
X132227000Y-99187000D01*
X132207000Y-99187000D01*
X132207000Y-99207000D01*
X131953000Y-99207000D01*
X131953000Y-99187000D01*
X130645000Y-99187000D01*
X130645000Y-99537000D01*
X130802834Y-100076483D01*
X131155104Y-100514500D01*
X131629842Y-100774330D01*
X131551057Y-100806883D01*
X131287808Y-101069673D01*
X131145162Y-101413201D01*
X131145152Y-101424690D01*
X130254921Y-102314921D01*
X130084755Y-102569593D01*
X130084755Y-102569594D01*
X130025000Y-102870000D01*
X130025000Y-109220000D01*
X130084755Y-109520407D01*
X130254921Y-109775079D01*
X131334921Y-110855079D01*
X131589594Y-111025245D01*
X131890000Y-111085000D01*
X133408645Y-111085000D01*
X133467630Y-111173277D01*
X133660891Y-111302410D01*
X133438067Y-111470875D01*
X133191714Y-111890624D01*
X133176538Y-111982391D01*
X133301269Y-112173000D01*
X134493000Y-112173000D01*
X134493000Y-112153000D01*
X134747000Y-112153000D01*
X134747000Y-112173000D01*
X135938731Y-112173000D01*
X136063462Y-111982391D01*
X136048286Y-111890624D01*
X135801933Y-111470875D01*
X135579109Y-111302410D01*
X135772370Y-111173277D01*
X136040084Y-110772614D01*
X136134093Y-110300000D01*
X136040084Y-109827386D01*
X135772370Y-109426723D01*
X135371707Y-109159009D01*
X134899093Y-109065000D01*
X134340907Y-109065000D01*
X133868293Y-109159009D01*
X133467630Y-109426723D01*
X133408645Y-109515000D01*
X132215158Y-109515000D01*
X131595000Y-108894842D01*
X131595000Y-108403497D01*
X132080000Y-108499970D01*
X132629151Y-108390737D01*
X133094698Y-108079668D01*
X133350000Y-107697582D01*
X133605302Y-108079668D01*
X134070849Y-108390737D01*
X134620000Y-108499970D01*
X135169151Y-108390737D01*
X135230936Y-108349454D01*
X135334921Y-108505079D01*
X136604921Y-109775079D01*
X136859593Y-109945245D01*
X137160000Y-110005000D01*
X140970000Y-110005000D01*
X141270407Y-109945245D01*
X141525079Y-109775079D01*
X142795079Y-108505079D01*
X142937883Y-108291357D01*
X143254698Y-108079668D01*
X143510000Y-107697582D01*
X143765302Y-108079668D01*
X144230849Y-108390737D01*
X144780000Y-108499970D01*
X145329151Y-108390737D01*
X145794698Y-108079668D01*
X146050000Y-107697582D01*
X146305302Y-108079668D01*
X146770849Y-108390737D01*
X147194467Y-108475000D01*
X146010000Y-108475000D01*
X145709593Y-108534755D01*
X145454921Y-108704921D01*
X140644842Y-113515000D01*
X136082630Y-113515000D01*
X136073162Y-113464683D01*
X135934090Y-113248559D01*
X135781691Y-113144429D01*
X135801933Y-113129125D01*
X136048286Y-112709376D01*
X136063462Y-112617609D01*
X135938731Y-112427000D01*
X134747000Y-112427000D01*
X134747000Y-112447000D01*
X134493000Y-112447000D01*
X134493000Y-112427000D01*
X133301269Y-112427000D01*
X133176538Y-112617609D01*
X133191714Y-112709376D01*
X133438067Y-113129125D01*
X133459420Y-113145269D01*
X133318559Y-113235910D01*
X133173569Y-113448110D01*
X133122560Y-113700000D01*
X133122560Y-114900000D01*
X133166838Y-115135317D01*
X133305910Y-115351441D01*
X133518110Y-115496431D01*
X133770000Y-115547440D01*
X133835000Y-115547440D01*
X133835000Y-117784842D01*
X132473440Y-119146402D01*
X132473440Y-118516400D01*
X132429162Y-118281083D01*
X132290090Y-118064959D01*
X132077890Y-117919969D01*
X131826000Y-117868960D01*
X129794000Y-117868960D01*
X129558683Y-117913238D01*
X129342559Y-118052310D01*
X129197569Y-118264510D01*
X129146560Y-118516400D01*
X129146560Y-120243600D01*
X129190838Y-120478917D01*
X129329910Y-120695041D01*
X129542110Y-120840031D01*
X129583439Y-120848400D01*
X129565585Y-120860330D01*
X129240729Y-121346511D01*
X129126655Y-121920000D01*
X128980000Y-121920000D01*
X128980000Y-98583000D01*
X130645000Y-98583000D01*
X130645000Y-98933000D01*
X131953000Y-98933000D01*
X131953000Y-97440085D01*
X131730961Y-97318096D01*
X131648181Y-97335633D01*
X131155104Y-97605500D01*
X130802834Y-98043517D01*
X130645000Y-98583000D01*
X128980000Y-98583000D01*
X128980000Y-88340000D01*
X147850392Y-88340000D01*
X147961877Y-88451485D01*
G36*
X134620000Y-96933345D02*
X135098089Y-96838247D01*
X135105000Y-96845158D01*
X135105000Y-97364740D01*
X135051819Y-97335633D01*
X134969039Y-97318096D01*
X134747000Y-97440085D01*
X134747000Y-98933000D01*
X134767000Y-98933000D01*
X134767000Y-99187000D01*
X134747000Y-99187000D01*
X134747000Y-100679915D01*
X134969039Y-100801904D01*
X135051819Y-100784367D01*
X135209839Y-100697881D01*
X135334921Y-100885079D01*
X137494847Y-103045005D01*
X137494838Y-103055167D01*
X137636883Y-103398943D01*
X137899673Y-103662192D01*
X138243201Y-103804838D01*
X138615167Y-103805162D01*
X138870430Y-103699690D01*
X138765162Y-103953201D01*
X138764838Y-104325167D01*
X138906883Y-104668943D01*
X139169673Y-104932192D01*
X139223938Y-104954725D01*
X139150849Y-104969263D01*
X138685302Y-105280332D01*
X138430000Y-105662418D01*
X138174698Y-105280332D01*
X137709151Y-104969263D01*
X137160000Y-104860030D01*
X136610849Y-104969263D01*
X136549064Y-105010546D01*
X136445079Y-104854921D01*
X134135000Y-102544842D01*
X134135000Y-100755260D01*
X134188181Y-100784367D01*
X134270961Y-100801904D01*
X134493000Y-100679915D01*
X134493000Y-99187000D01*
X134473000Y-99187000D01*
X134473000Y-98933000D01*
X134493000Y-98933000D01*
X134493000Y-97440085D01*
X134270961Y-97318096D01*
X134188181Y-97335633D01*
X134135000Y-97364740D01*
X134135000Y-96836873D01*
X134620000Y-96933345D01*
X134620000Y-96933345D01*
G37*
X134620000Y-96933345D02*
X135098089Y-96838247D01*
X135105000Y-96845158D01*
X135105000Y-97364740D01*
X135051819Y-97335633D01*
X134969039Y-97318096D01*
X134747000Y-97440085D01*
X134747000Y-98933000D01*
X134767000Y-98933000D01*
X134767000Y-99187000D01*
X134747000Y-99187000D01*
X134747000Y-100679915D01*
X134969039Y-100801904D01*
X135051819Y-100784367D01*
X135209839Y-100697881D01*
X135334921Y-100885079D01*
X137494847Y-103045005D01*
X137494838Y-103055167D01*
X137636883Y-103398943D01*
X137899673Y-103662192D01*
X138243201Y-103804838D01*
X138615167Y-103805162D01*
X138870430Y-103699690D01*
X138765162Y-103953201D01*
X138764838Y-104325167D01*
X138906883Y-104668943D01*
X139169673Y-104932192D01*
X139223938Y-104954725D01*
X139150849Y-104969263D01*
X138685302Y-105280332D01*
X138430000Y-105662418D01*
X138174698Y-105280332D01*
X137709151Y-104969263D01*
X137160000Y-104860030D01*
X136610849Y-104969263D01*
X136549064Y-105010546D01*
X136445079Y-104854921D01*
X134135000Y-102544842D01*
X134135000Y-100755260D01*
X134188181Y-100784367D01*
X134270961Y-100801904D01*
X134493000Y-100679915D01*
X134493000Y-99187000D01*
X134473000Y-99187000D01*
X134473000Y-98933000D01*
X134493000Y-98933000D01*
X134493000Y-97440085D01*
X134270961Y-97318096D01*
X134188181Y-97335633D01*
X134135000Y-97364740D01*
X134135000Y-96836873D01*
X134620000Y-96933345D01*
G36*
X137287000Y-98933000D02*
X137307000Y-98933000D01*
X137307000Y-99187000D01*
X137287000Y-99187000D01*
X137287000Y-99207000D01*
X137033000Y-99207000D01*
X137033000Y-99187000D01*
X137013000Y-99187000D01*
X137013000Y-98933000D01*
X137033000Y-98933000D01*
X137033000Y-98913000D01*
X137287000Y-98913000D01*
X137287000Y-98933000D01*
X137287000Y-98933000D01*
G37*
X137287000Y-98933000D02*
X137307000Y-98933000D01*
X137307000Y-99187000D01*
X137287000Y-99187000D01*
X137287000Y-99207000D01*
X137033000Y-99207000D01*
X137033000Y-99187000D01*
X137013000Y-99187000D01*
X137013000Y-98933000D01*
X137033000Y-98933000D01*
X137033000Y-98913000D01*
X137287000Y-98913000D01*
X137287000Y-98933000D01*
M02*
