G04 #@! TF.FileFunction,Soldermask,Top*
%FSLAX46Y46*%
G04 Gerber Fmt 4.6, Leading zero omitted, Abs format (unit mm)*
G04 Created by KiCad (PCBNEW 4.0.2+dfsg1-2~bpo8+1-stable) date Fri 14 Jul 2017 01:13:30 AM EEST*
%MOMM*%
G01*
G04 APERTURE LIST*
%ADD10C,0.050000*%
%ADD11R,1.700000X1.700000*%
%ADD12C,1.700000*%
%ADD13R,2.127200X2.432000*%
%ADD14O,2.127200X2.432000*%
%ADD15R,2.100000X1.600000*%
%ADD16O,2.100000X1.600000*%
%ADD17R,2.432000X2.127200*%
%ADD18O,2.432000X2.127200*%
%ADD19R,2.432000X2.432000*%
%ADD20O,2.432000X2.432000*%
%ADD21R,1.797000X1.797000*%
%ADD22C,1.797000*%
%ADD23C,4.464000*%
%ADD24O,2.000000X2.700000*%
%ADD25O,2.700000X2.000000*%
G04 APERTURE END LIST*
D10*
D11*
X142240000Y-116840000D03*
D12*
X142240000Y-119340000D03*
D11*
X147320000Y-114300000D03*
D12*
X147320000Y-116800000D03*
D11*
X149860000Y-111760000D03*
D12*
X149860000Y-109260000D03*
D13*
X132080000Y-95250000D03*
D14*
X134620000Y-95250000D03*
X137160000Y-95250000D03*
X139700000Y-95250000D03*
X142240000Y-95250000D03*
X144780000Y-95250000D03*
X147320000Y-95250000D03*
X149860000Y-95250000D03*
D13*
X132080000Y-157480000D03*
D14*
X134620000Y-157480000D03*
X137160000Y-157480000D03*
X139700000Y-157480000D03*
X142240000Y-157480000D03*
X144780000Y-157480000D03*
X147320000Y-157480000D03*
X149860000Y-157480000D03*
D15*
X134620000Y-114300000D03*
D16*
X134620000Y-112300000D03*
X134620000Y-110300000D03*
D17*
X149860000Y-123190000D03*
D18*
X149860000Y-125730000D03*
X149860000Y-128270000D03*
X149860000Y-130810000D03*
X149860000Y-133350000D03*
X149860000Y-135890000D03*
X149860000Y-138430000D03*
X149860000Y-140970000D03*
D19*
X149860000Y-114300000D03*
D20*
X149860000Y-116840000D03*
D17*
X130810000Y-119380000D03*
D18*
X130810000Y-121920000D03*
X130810000Y-124460000D03*
X130810000Y-127000000D03*
X130810000Y-129540000D03*
X130810000Y-132080000D03*
X130810000Y-134620000D03*
X130810000Y-137160000D03*
X130810000Y-139700000D03*
X130810000Y-142240000D03*
X130810000Y-144780000D03*
D21*
X147320000Y-143510000D03*
D22*
X147320000Y-140970000D03*
X147320000Y-138430000D03*
X147320000Y-135890000D03*
X147320000Y-133350000D03*
X147320000Y-130810000D03*
X147320000Y-128270000D03*
X147320000Y-125730000D03*
X147320000Y-123190000D03*
X147320000Y-120650000D03*
X149860000Y-120650000D03*
D23*
X149860000Y-90170000D03*
X130810000Y-162560000D03*
D24*
X149860000Y-99060000D03*
X147320000Y-99060000D03*
X144780000Y-99060000D03*
X142240000Y-99060000D03*
X139700000Y-99060000D03*
X137160000Y-99060000D03*
X134620000Y-99060000D03*
X132080000Y-99060000D03*
X132080000Y-106680000D03*
X134620000Y-106680000D03*
X137160000Y-106680000D03*
X139700000Y-106680000D03*
X142240000Y-106680000D03*
X144780000Y-106680000D03*
X147320000Y-106680000D03*
X149860000Y-106680000D03*
X132080000Y-154940000D03*
X134620000Y-154940000D03*
X137160000Y-154940000D03*
X139700000Y-154940000D03*
X142240000Y-154940000D03*
X144780000Y-154940000D03*
X147320000Y-154940000D03*
X149860000Y-154940000D03*
X149860000Y-147320000D03*
X147320000Y-147320000D03*
X144780000Y-147320000D03*
X142240000Y-147320000D03*
X139700000Y-147320000D03*
X137160000Y-147320000D03*
X134620000Y-147320000D03*
X132080000Y-147320000D03*
D25*
X134620000Y-123190000D03*
X134620000Y-125730000D03*
X134620000Y-128270000D03*
X134620000Y-130810000D03*
X134620000Y-133350000D03*
X134620000Y-135890000D03*
X134620000Y-138430000D03*
X134620000Y-140970000D03*
X142240000Y-140970000D03*
X142240000Y-138430000D03*
X142240000Y-135890000D03*
X142240000Y-133350000D03*
X142240000Y-130810000D03*
X142240000Y-128270000D03*
X142240000Y-125730000D03*
X142240000Y-123190000D03*
M02*
