M48
;DRILL file {KiCad 4.0.2+dfsg1-2~bpo8+1-stable} date Fri 14 Jul 2017 01:13:36 AM EEST
;FORMAT={-:-/ absolute / inch / decimal}
FMAT,2
INCH,TZ
T1C0.016
T2C0.028
T3C0.031
T4C0.032
T5C0.032
T6C0.040
T7C0.120
%
G90
G05
M72
T1
X5.2Y-4.
X5.45Y-4.05
X5.45Y-5.05
X5.5Y-4.1
X5.625Y-3.825
X5.7Y-4.75
X5.7Y-5.
T2
X5.3Y-4.3425
X5.3Y-4.4213
X5.3Y-4.5
T3
X5.2Y-3.9
X5.2Y-4.2
X5.2Y-5.8
X5.2Y-6.1
X5.3Y-3.9
X5.3Y-4.2
X5.3Y-4.85
X5.3Y-4.95
X5.3Y-5.05
X5.3Y-5.15
X5.3Y-5.25
X5.3Y-5.35
X5.3Y-5.45
X5.3Y-5.55
X5.3Y-5.8
X5.3Y-6.1
X5.4Y-3.9
X5.4Y-4.2
X5.4Y-5.8
X5.4Y-6.1
X5.5Y-3.9
X5.5Y-4.2
X5.5Y-5.8
X5.5Y-6.1
X5.6Y-3.9
X5.6Y-4.2
X5.6Y-4.6
X5.6Y-4.85
X5.6Y-4.95
X5.6Y-5.05
X5.6Y-5.15
X5.6Y-5.25
X5.6Y-5.35
X5.6Y-5.45
X5.6Y-5.55
X5.6Y-5.8
X5.6Y-6.1
X5.7Y-3.9
X5.7Y-4.2
X5.7Y-5.8
X5.7Y-6.1
X5.8Y-3.9
X5.8Y-4.2
X5.8Y-4.5
X5.8Y-5.8
X5.8Y-6.1
X5.9Y-3.9
X5.9Y-4.2
X5.9Y-4.4
X5.9Y-5.8
X5.9Y-6.1
T4
X5.6Y-4.6984
X5.8Y-4.5984
X5.9Y-4.3016
T5
X5.8Y-4.75
X5.8Y-4.85
X5.8Y-4.95
X5.8Y-5.05
X5.8Y-5.15
X5.8Y-5.25
X5.8Y-5.35
X5.8Y-5.45
X5.8Y-5.55
X5.8Y-5.65
X5.9Y-4.75
T6
X5.15Y-4.7
X5.15Y-4.8
X5.15Y-4.9
X5.15Y-5.
X5.15Y-5.1
X5.15Y-5.2
X5.15Y-5.3
X5.15Y-5.4
X5.15Y-5.5
X5.15Y-5.6
X5.15Y-5.7
X5.2Y-3.75
X5.2Y-6.2
X5.3Y-3.75
X5.3Y-6.2
X5.4Y-3.75
X5.4Y-6.2
X5.5Y-3.75
X5.5Y-6.2
X5.6Y-3.75
X5.6Y-6.2
X5.7Y-3.75
X5.7Y-6.2
X5.8Y-3.75
X5.8Y-6.2
X5.9Y-3.75
X5.9Y-4.5
X5.9Y-4.6
X5.9Y-4.85
X5.9Y-4.95
X5.9Y-5.05
X5.9Y-5.15
X5.9Y-5.25
X5.9Y-5.35
X5.9Y-5.45
X5.9Y-5.55
X5.9Y-6.2
T7
X5.15Y-6.4
X5.9Y-3.55
T0
M30
