M48
;DRILL file {KiCad 4.0.2+dfsg1-2~bpo8+1-stable} date Wed 12 Jul 2017 11:56:06 PM EEST
;FORMAT={-:-/ absolute / inch / decimal}
FMAT,2
INCH,TZ
T1C0.016
T2C0.028
T3C0.040
T4C0.060
T5C0.120
%
G90
G05
M72
T1
X4.7Y-3.95
X5.Y-4.05
X5.3Y-3.95
X5.5Y-4.05
X5.85Y-4.8
X5.85Y-5.2
T2
X3.9Y-4.6213
X3.9Y-4.7
X4.15Y-4.6213
X4.15Y-4.7
X5.9Y-3.75
X5.9787Y-3.75
T3
X4.45Y-4.3
X4.45Y-4.9
X4.55Y-4.3
X4.55Y-4.9
X4.65Y-4.3
X4.65Y-4.9
X4.75Y-3.75
X4.75Y-3.85
X4.75Y-4.3
X4.75Y-4.9
X4.85Y-3.75
X4.85Y-3.85
X4.85Y-4.3
X4.85Y-4.9
X4.95Y-3.75
X4.95Y-3.85
X4.95Y-4.3
X4.95Y-4.9
X5.05Y-4.3
X5.05Y-4.9
X5.15Y-4.3
X5.15Y-4.9
X5.25Y-4.3
X5.25Y-4.9
X5.3Y-3.75
X5.3Y-3.85
X5.35Y-4.3
X5.35Y-4.9
X5.4Y-3.75
X5.4Y-3.85
X5.45Y-4.3
X5.45Y-4.9
X5.5Y-3.75
X5.5Y-3.85
X5.55Y-4.3
X5.55Y-4.9
X5.65Y-4.3
X5.65Y-4.9
X5.75Y-4.3
X5.75Y-4.9
X5.95Y-4.4
X5.95Y-4.5
X5.95Y-4.6
X5.95Y-4.7
X5.95Y-4.8
X6.05Y-4.4
X6.05Y-4.5
X6.05Y-4.6
X6.05Y-4.7
X6.05Y-4.8
T4
X3.95Y-4.15
X3.95Y-4.35
T5
X3.9Y-3.6
X3.9Y-5.2
X6.25Y-3.6
X6.25Y-5.2
T0
M30
