G04 #@! TF.FileFunction,Copper,L1,Top,Signal*
%FSLAX46Y46*%
G04 Gerber Fmt 4.6, Leading zero omitted, Abs format (unit mm)*
G04 Created by KiCad (PCBNEW 4.0.2+dfsg1-2~bpo8+1-stable) date Sun 16 Jul 2017 12:08:05 PM EEST*
%MOMM*%
G01*
G04 APERTURE LIST*
%ADD10C,0.050000*%
%ADD11R,1.727200X1.727200*%
%ADD12O,1.727200X1.727200*%
%ADD13R,1.727200X2.032000*%
%ADD14O,1.727200X2.032000*%
%ADD15R,1.200000X1.700000*%
%ADD16O,1.200000X1.700000*%
%ADD17R,1.700000X1.200000*%
%ADD18O,1.700000X1.200000*%
%ADD19C,4.064000*%
%ADD20R,2.540000X2.540000*%
%ADD21C,2.540000*%
%ADD22C,0.600000*%
%ADD23C,0.300000*%
G04 APERTURE END LIST*
D10*
D11*
X134620000Y-97790000D03*
D12*
X134620000Y-95250000D03*
X137160000Y-97790000D03*
X137160000Y-95250000D03*
X139700000Y-97790000D03*
X139700000Y-95250000D03*
D11*
X120650000Y-97790000D03*
D12*
X120650000Y-95250000D03*
X123190000Y-97790000D03*
X123190000Y-95250000D03*
X125730000Y-97790000D03*
X125730000Y-95250000D03*
D13*
X113030000Y-124460000D03*
D14*
X115570000Y-124460000D03*
X118110000Y-124460000D03*
X120650000Y-124460000D03*
X123190000Y-124460000D03*
X125730000Y-124460000D03*
X128270000Y-124460000D03*
X130810000Y-124460000D03*
X133350000Y-124460000D03*
X135890000Y-124460000D03*
X138430000Y-124460000D03*
X140970000Y-124460000D03*
X143510000Y-124460000D03*
X146050000Y-124460000D03*
D13*
X113030000Y-109220000D03*
D14*
X115570000Y-109220000D03*
X118110000Y-109220000D03*
X120650000Y-109220000D03*
X123190000Y-109220000D03*
X125730000Y-109220000D03*
X128270000Y-109220000D03*
X130810000Y-109220000D03*
X133350000Y-109220000D03*
X135890000Y-109220000D03*
X138430000Y-109220000D03*
X140970000Y-109220000D03*
X143510000Y-109220000D03*
X146050000Y-109220000D03*
D15*
X149860000Y-95250000D03*
D16*
X151860000Y-95250000D03*
D17*
X99060000Y-119380000D03*
D18*
X99060000Y-117380000D03*
D17*
X105410000Y-119380000D03*
D18*
X105410000Y-117380000D03*
D19*
X158750000Y-91440000D03*
X99060000Y-91440000D03*
X158750000Y-132080000D03*
X99060000Y-132080000D03*
D20*
X100330000Y-110490000D03*
D21*
X100330000Y-105410000D03*
D11*
X151130000Y-111760000D03*
D12*
X153670000Y-111760000D03*
X151130000Y-114300000D03*
X153670000Y-114300000D03*
X151130000Y-116840000D03*
X153670000Y-116840000D03*
X151130000Y-119380000D03*
X153670000Y-119380000D03*
X151130000Y-121920000D03*
X153670000Y-121920000D03*
D22*
X148590000Y-132080000D03*
X148590000Y-121920000D03*
X119380000Y-100330000D03*
X134620000Y-100330000D03*
X127000000Y-102870000D03*
X139700000Y-102870000D03*
D23*
X148590000Y-121920000D02*
X148590000Y-132080000D01*
X134620000Y-100330000D02*
X119380000Y-100330000D01*
X139700000Y-102870000D02*
X127000000Y-102870000D01*
M02*
