G04 #@! TF.FileFunction,Legend,Top*
%FSLAX46Y46*%
G04 Gerber Fmt 4.6, Leading zero omitted, Abs format (unit mm)*
G04 Created by KiCad (PCBNEW 4.0.2+dfsg1-2~bpo8+1-stable) date Sun 16 Jul 2017 12:08:05 PM EEST*
%MOMM*%
G01*
G04 APERTURE LIST*
%ADD10C,0.050000*%
%ADD11C,0.150000*%
G04 APERTURE END LIST*
D10*
D11*
X135890000Y-99060000D02*
X140970000Y-99060000D01*
X133070000Y-99340000D02*
X133070000Y-97790000D01*
X133350000Y-96520000D02*
X135890000Y-96520000D01*
X135890000Y-96520000D02*
X135890000Y-99060000D01*
X140970000Y-99060000D02*
X140970000Y-93980000D01*
X140970000Y-93980000D02*
X135890000Y-93980000D01*
X133070000Y-99340000D02*
X134620000Y-99340000D01*
X133350000Y-93980000D02*
X133350000Y-96520000D01*
X135890000Y-93980000D02*
X133350000Y-93980000D01*
X121920000Y-99060000D02*
X127000000Y-99060000D01*
X119100000Y-99340000D02*
X119100000Y-97790000D01*
X119380000Y-96520000D02*
X121920000Y-96520000D01*
X121920000Y-96520000D02*
X121920000Y-99060000D01*
X127000000Y-99060000D02*
X127000000Y-93980000D01*
X127000000Y-93980000D02*
X121920000Y-93980000D01*
X119100000Y-99340000D02*
X120650000Y-99340000D01*
X119380000Y-93980000D02*
X119380000Y-96520000D01*
X121920000Y-93980000D02*
X119380000Y-93980000D01*
X114300000Y-125730000D02*
X147320000Y-125730000D01*
X147320000Y-125730000D02*
X147320000Y-123190000D01*
X147320000Y-123190000D02*
X114300000Y-123190000D01*
X111480000Y-122910000D02*
X113030000Y-122910000D01*
X114300000Y-123190000D02*
X114300000Y-125730000D01*
X113030000Y-126010000D02*
X111480000Y-126010000D01*
X111480000Y-126010000D02*
X111480000Y-122910000D01*
X114300000Y-110490000D02*
X147320000Y-110490000D01*
X147320000Y-110490000D02*
X147320000Y-107950000D01*
X147320000Y-107950000D02*
X114300000Y-107950000D01*
X111480000Y-107670000D02*
X113030000Y-107670000D01*
X114300000Y-107950000D02*
X114300000Y-110490000D01*
X113030000Y-110770000D02*
X111480000Y-110770000D01*
X111480000Y-110770000D02*
X111480000Y-107670000D01*
X147910000Y-98050000D02*
X147910000Y-93550000D01*
X147910000Y-93550000D02*
X153810000Y-93550000D01*
X153810000Y-93550000D02*
X153810000Y-98050000D01*
X153810000Y-98050000D02*
X147910000Y-98050000D01*
X150360000Y-93550000D02*
X150360000Y-94050000D01*
X150360000Y-94050000D02*
X148410000Y-94050000D01*
X148410000Y-94050000D02*
X148410000Y-97550000D01*
X148410000Y-97550000D02*
X153310000Y-97550000D01*
X153310000Y-97550000D02*
X153310000Y-94050000D01*
X153310000Y-94050000D02*
X151360000Y-94050000D01*
X151360000Y-94050000D02*
X151360000Y-93550000D01*
X147910000Y-94750000D02*
X148410000Y-94750000D01*
X147910000Y-96050000D02*
X148410000Y-96050000D01*
X153310000Y-94750000D02*
X153810000Y-94750000D01*
X153310000Y-96050000D02*
X153810000Y-96050000D01*
X149560000Y-93550000D02*
X149560000Y-93350000D01*
X149560000Y-93350000D02*
X149260000Y-93350000D01*
X149260000Y-93350000D02*
X149260000Y-93550000D01*
X149560000Y-93450000D02*
X149260000Y-93450000D01*
X150760000Y-97550000D02*
X150760000Y-97050000D01*
X150760000Y-97050000D02*
X150960000Y-97050000D01*
X150960000Y-97050000D02*
X150960000Y-97550000D01*
X150860000Y-97550000D02*
X150860000Y-97050000D01*
X101860000Y-121330000D02*
X97360000Y-121330000D01*
X97360000Y-121330000D02*
X97360000Y-115430000D01*
X97360000Y-115430000D02*
X101860000Y-115430000D01*
X101860000Y-115430000D02*
X101860000Y-121330000D01*
X97360000Y-118880000D02*
X97860000Y-118880000D01*
X97860000Y-118880000D02*
X97860000Y-120830000D01*
X97860000Y-120830000D02*
X101360000Y-120830000D01*
X101360000Y-120830000D02*
X101360000Y-115930000D01*
X101360000Y-115930000D02*
X97860000Y-115930000D01*
X97860000Y-115930000D02*
X97860000Y-117880000D01*
X97860000Y-117880000D02*
X97360000Y-117880000D01*
X98560000Y-121330000D02*
X98560000Y-120830000D01*
X99860000Y-121330000D02*
X99860000Y-120830000D01*
X98560000Y-115930000D02*
X98560000Y-115430000D01*
X99860000Y-115930000D02*
X99860000Y-115430000D01*
X97360000Y-119680000D02*
X97160000Y-119680000D01*
X97160000Y-119680000D02*
X97160000Y-119980000D01*
X97160000Y-119980000D02*
X97360000Y-119980000D01*
X97260000Y-119680000D02*
X97260000Y-119980000D01*
X101360000Y-118480000D02*
X100860000Y-118480000D01*
X100860000Y-118480000D02*
X100860000Y-118280000D01*
X100860000Y-118280000D02*
X101360000Y-118280000D01*
X101360000Y-118380000D02*
X100860000Y-118380000D01*
X108210000Y-121330000D02*
X103710000Y-121330000D01*
X103710000Y-121330000D02*
X103710000Y-115430000D01*
X103710000Y-115430000D02*
X108210000Y-115430000D01*
X108210000Y-115430000D02*
X108210000Y-121330000D01*
X103710000Y-118880000D02*
X104210000Y-118880000D01*
X104210000Y-118880000D02*
X104210000Y-120830000D01*
X104210000Y-120830000D02*
X107710000Y-120830000D01*
X107710000Y-120830000D02*
X107710000Y-115930000D01*
X107710000Y-115930000D02*
X104210000Y-115930000D01*
X104210000Y-115930000D02*
X104210000Y-117880000D01*
X104210000Y-117880000D02*
X103710000Y-117880000D01*
X104910000Y-121330000D02*
X104910000Y-120830000D01*
X106210000Y-121330000D02*
X106210000Y-120830000D01*
X104910000Y-115930000D02*
X104910000Y-115430000D01*
X106210000Y-115930000D02*
X106210000Y-115430000D01*
X103710000Y-119680000D02*
X103510000Y-119680000D01*
X103510000Y-119680000D02*
X103510000Y-119980000D01*
X103510000Y-119980000D02*
X103710000Y-119980000D01*
X103610000Y-119680000D02*
X103610000Y-119980000D01*
X107710000Y-118480000D02*
X107210000Y-118480000D01*
X107210000Y-118480000D02*
X107210000Y-118280000D01*
X107210000Y-118280000D02*
X107710000Y-118280000D01*
X107710000Y-118380000D02*
X107210000Y-118380000D01*
X161036000Y-91440000D02*
G75*
G03X161036000Y-91440000I-2286000J0D01*
G01*
X101346000Y-91440000D02*
G75*
G03X101346000Y-91440000I-2286000J0D01*
G01*
X161036000Y-132080000D02*
G75*
G03X161036000Y-132080000I-2286000J0D01*
G01*
X101346000Y-132080000D02*
G75*
G03X101346000Y-132080000I-2286000J0D01*
G01*
X102870000Y-102870000D02*
X102870000Y-113030000D01*
X104140000Y-102870000D02*
X96520000Y-102870000D01*
X96520000Y-102870000D02*
X96520000Y-113030000D01*
X96520000Y-113030000D02*
X104140000Y-113030000D01*
X104140000Y-113030000D02*
X104140000Y-102870000D01*
X156950000Y-106680000D02*
X156950000Y-127000000D01*
X156400000Y-107220000D02*
X156400000Y-126440000D01*
X147850000Y-106680000D02*
X147850000Y-127000000D01*
X148400000Y-107220000D02*
X148400000Y-114590000D01*
X148400000Y-119090000D02*
X148400000Y-126440000D01*
X148400000Y-114590000D02*
X147850000Y-114590000D01*
X148400000Y-119090000D02*
X147850000Y-119090000D01*
X156950000Y-106680000D02*
X147850000Y-106680000D01*
X156400000Y-107220000D02*
X148400000Y-107220000D01*
X156950000Y-127000000D02*
X147850000Y-127000000D01*
X156400000Y-126440000D02*
X148400000Y-126440000D01*
X156950000Y-106680000D02*
X156400000Y-107220000D01*
X156950000Y-127000000D02*
X156400000Y-126440000D01*
X147850000Y-106680000D02*
X148400000Y-107220000D01*
X147850000Y-127000000D02*
X148400000Y-126440000D01*
X129972381Y-98528095D02*
X128972381Y-98528095D01*
X128972381Y-98147142D01*
X129020000Y-98051904D01*
X129067619Y-98004285D01*
X129162857Y-97956666D01*
X129305714Y-97956666D01*
X129400952Y-98004285D01*
X129448571Y-98051904D01*
X129496190Y-98147142D01*
X129496190Y-98528095D01*
X128972381Y-97099523D02*
X128972381Y-97290000D01*
X129020000Y-97385238D01*
X129067619Y-97432857D01*
X129210476Y-97528095D01*
X129400952Y-97575714D01*
X129781905Y-97575714D01*
X129877143Y-97528095D01*
X129924762Y-97480476D01*
X129972381Y-97385238D01*
X129972381Y-97194761D01*
X129924762Y-97099523D01*
X129877143Y-97051904D01*
X129781905Y-97004285D01*
X129543810Y-97004285D01*
X129448571Y-97051904D01*
X129400952Y-97099523D01*
X129353333Y-97194761D01*
X129353333Y-97385238D01*
X129400952Y-97480476D01*
X129448571Y-97528095D01*
X129543810Y-97575714D01*
X116002381Y-98528095D02*
X115002381Y-98528095D01*
X115002381Y-98147142D01*
X115050000Y-98051904D01*
X115097619Y-98004285D01*
X115192857Y-97956666D01*
X115335714Y-97956666D01*
X115430952Y-98004285D01*
X115478571Y-98051904D01*
X115526190Y-98147142D01*
X115526190Y-98528095D01*
X115002381Y-97623333D02*
X115002381Y-96956666D01*
X116002381Y-97385238D01*
X108382381Y-125198095D02*
X107382381Y-125198095D01*
X107382381Y-124817142D01*
X107430000Y-124721904D01*
X107477619Y-124674285D01*
X107572857Y-124626666D01*
X107715714Y-124626666D01*
X107810952Y-124674285D01*
X107858571Y-124721904D01*
X107906190Y-124817142D01*
X107906190Y-125198095D01*
X107810952Y-124055238D02*
X107763333Y-124150476D01*
X107715714Y-124198095D01*
X107620476Y-124245714D01*
X107572857Y-124245714D01*
X107477619Y-124198095D01*
X107430000Y-124150476D01*
X107382381Y-124055238D01*
X107382381Y-123864761D01*
X107430000Y-123769523D01*
X107477619Y-123721904D01*
X107572857Y-123674285D01*
X107620476Y-123674285D01*
X107715714Y-123721904D01*
X107763333Y-123769523D01*
X107810952Y-123864761D01*
X107810952Y-124055238D01*
X107858571Y-124150476D01*
X107906190Y-124198095D01*
X108001429Y-124245714D01*
X108191905Y-124245714D01*
X108287143Y-124198095D01*
X108334762Y-124150476D01*
X108382381Y-124055238D01*
X108382381Y-123864761D01*
X108334762Y-123769523D01*
X108287143Y-123721904D01*
X108191905Y-123674285D01*
X108001429Y-123674285D01*
X107906190Y-123721904D01*
X107858571Y-123769523D01*
X107810952Y-123864761D01*
X108382381Y-109958095D02*
X107382381Y-109958095D01*
X107382381Y-109577142D01*
X107430000Y-109481904D01*
X107477619Y-109434285D01*
X107572857Y-109386666D01*
X107715714Y-109386666D01*
X107810952Y-109434285D01*
X107858571Y-109481904D01*
X107906190Y-109577142D01*
X107906190Y-109958095D01*
X108382381Y-108910476D02*
X108382381Y-108720000D01*
X108334762Y-108624761D01*
X108287143Y-108577142D01*
X108144286Y-108481904D01*
X107953810Y-108434285D01*
X107572857Y-108434285D01*
X107477619Y-108481904D01*
X107430000Y-108529523D01*
X107382381Y-108624761D01*
X107382381Y-108815238D01*
X107430000Y-108910476D01*
X107477619Y-108958095D01*
X107572857Y-109005714D01*
X107810952Y-109005714D01*
X107906190Y-108958095D01*
X107953810Y-108910476D01*
X108001429Y-108815238D01*
X108001429Y-108624761D01*
X107953810Y-108529523D01*
X107906190Y-108481904D01*
X107810952Y-108434285D01*
X148645714Y-92702381D02*
X148645714Y-91702381D01*
X149026667Y-91702381D01*
X149121905Y-91750000D01*
X149169524Y-91797619D01*
X149217143Y-91892857D01*
X149217143Y-92035714D01*
X149169524Y-92130952D01*
X149121905Y-92178571D01*
X149026667Y-92226190D01*
X148645714Y-92226190D01*
X150169524Y-92702381D02*
X149598095Y-92702381D01*
X149883809Y-92702381D02*
X149883809Y-91702381D01*
X149788571Y-91845238D01*
X149693333Y-91940476D01*
X149598095Y-91988095D01*
X151121905Y-92702381D02*
X150550476Y-92702381D01*
X150836190Y-92702381D02*
X150836190Y-91702381D01*
X150740952Y-91845238D01*
X150645714Y-91940476D01*
X150550476Y-91988095D01*
X96512381Y-120594286D02*
X95512381Y-120594286D01*
X95512381Y-120213333D01*
X95560000Y-120118095D01*
X95607619Y-120070476D01*
X95702857Y-120022857D01*
X95845714Y-120022857D01*
X95940952Y-120070476D01*
X95988571Y-120118095D01*
X96036190Y-120213333D01*
X96036190Y-120594286D01*
X96512381Y-119070476D02*
X96512381Y-119641905D01*
X96512381Y-119356191D02*
X95512381Y-119356191D01*
X95655238Y-119451429D01*
X95750476Y-119546667D01*
X95798095Y-119641905D01*
X95607619Y-118689524D02*
X95560000Y-118641905D01*
X95512381Y-118546667D01*
X95512381Y-118308571D01*
X95560000Y-118213333D01*
X95607619Y-118165714D01*
X95702857Y-118118095D01*
X95798095Y-118118095D01*
X95940952Y-118165714D01*
X96512381Y-118737143D01*
X96512381Y-118118095D01*
X102862381Y-120594286D02*
X101862381Y-120594286D01*
X101862381Y-120213333D01*
X101910000Y-120118095D01*
X101957619Y-120070476D01*
X102052857Y-120022857D01*
X102195714Y-120022857D01*
X102290952Y-120070476D01*
X102338571Y-120118095D01*
X102386190Y-120213333D01*
X102386190Y-120594286D01*
X102862381Y-119070476D02*
X102862381Y-119641905D01*
X102862381Y-119356191D02*
X101862381Y-119356191D01*
X102005238Y-119451429D01*
X102100476Y-119546667D01*
X102148095Y-119641905D01*
X101862381Y-118737143D02*
X101862381Y-118118095D01*
X102243333Y-118451429D01*
X102243333Y-118308571D01*
X102290952Y-118213333D01*
X102338571Y-118165714D01*
X102433810Y-118118095D01*
X102671905Y-118118095D01*
X102767143Y-118165714D01*
X102814762Y-118213333D01*
X102862381Y-118308571D01*
X102862381Y-118594286D01*
X102814762Y-118689524D01*
X102767143Y-118737143D01*
X95702381Y-109164286D02*
X94702381Y-109164286D01*
X94702381Y-108783333D01*
X94750000Y-108688095D01*
X94797619Y-108640476D01*
X94892857Y-108592857D01*
X95035714Y-108592857D01*
X95130952Y-108640476D01*
X95178571Y-108688095D01*
X95226190Y-108783333D01*
X95226190Y-109164286D01*
X95702381Y-107640476D02*
X95702381Y-108211905D01*
X95702381Y-107926191D02*
X94702381Y-107926191D01*
X94845238Y-108021429D01*
X94940476Y-108116667D01*
X94988095Y-108211905D01*
X94702381Y-107021429D02*
X94702381Y-106926190D01*
X94750000Y-106830952D01*
X94797619Y-106783333D01*
X94892857Y-106735714D01*
X95083333Y-106688095D01*
X95321429Y-106688095D01*
X95511905Y-106735714D01*
X95607143Y-106783333D01*
X95654762Y-106830952D01*
X95702381Y-106926190D01*
X95702381Y-107021429D01*
X95654762Y-107116667D01*
X95607143Y-107164286D01*
X95511905Y-107211905D01*
X95321429Y-107259524D01*
X95083333Y-107259524D01*
X94892857Y-107211905D01*
X94797619Y-107164286D01*
X94750000Y-107116667D01*
X94702381Y-107021429D01*
X159202381Y-117578095D02*
X158202381Y-117578095D01*
X158202381Y-117197142D01*
X158250000Y-117101904D01*
X158297619Y-117054285D01*
X158392857Y-117006666D01*
X158535714Y-117006666D01*
X158630952Y-117054285D01*
X158678571Y-117101904D01*
X158726190Y-117197142D01*
X158726190Y-117578095D01*
X158202381Y-116101904D02*
X158202381Y-116578095D01*
X158678571Y-116625714D01*
X158630952Y-116578095D01*
X158583333Y-116482857D01*
X158583333Y-116244761D01*
X158630952Y-116149523D01*
X158678571Y-116101904D01*
X158773810Y-116054285D01*
X159011905Y-116054285D01*
X159107143Y-116101904D01*
X159154762Y-116149523D01*
X159202381Y-116244761D01*
X159202381Y-116482857D01*
X159154762Y-116578095D01*
X159107143Y-116625714D01*
M02*
