G04 #@! TF.FileFunction,Copper,L2,Bot,Signal*
%FSLAX46Y46*%
G04 Gerber Fmt 4.6, Leading zero omitted, Abs format (unit mm)*
G04 Created by KiCad (PCBNEW 4.0.2+dfsg1-2~bpo8+1-stable) date Sun 16 Jul 2017 12:08:05 PM EEST*
%MOMM*%
G01*
G04 APERTURE LIST*
%ADD10C,0.050000*%
%ADD11C,0.190500*%
%ADD12R,1.727200X1.727200*%
%ADD13O,1.727200X1.727200*%
%ADD14R,1.727200X2.032000*%
%ADD15O,1.727200X2.032000*%
%ADD16R,1.200000X1.700000*%
%ADD17O,1.200000X1.700000*%
%ADD18R,1.700000X1.200000*%
%ADD19O,1.700000X1.200000*%
%ADD20C,4.064000*%
%ADD21R,2.540000X2.540000*%
%ADD22C,2.540000*%
%ADD23C,0.600000*%
%ADD24C,0.300000*%
%ADD25C,0.254000*%
G04 APERTURE END LIST*
D10*
D11*
X115733286Y-91839143D02*
X115805858Y-91802857D01*
X115951001Y-91802857D01*
X116023572Y-91839143D01*
X116096143Y-91911714D01*
X116132429Y-91984286D01*
X116132429Y-92129429D01*
X116096143Y-92202000D01*
X116023572Y-92274571D01*
X115951001Y-92310857D01*
X115805858Y-92310857D01*
X115733286Y-92274571D01*
X115878429Y-91548857D02*
X116059858Y-91585143D01*
X116241286Y-91694000D01*
X116350143Y-91875429D01*
X116386429Y-92056857D01*
X116350143Y-92238286D01*
X116241286Y-92419714D01*
X116059858Y-92528571D01*
X115878429Y-92564857D01*
X115697001Y-92528571D01*
X115515572Y-92419714D01*
X115406715Y-92238286D01*
X115370429Y-92056857D01*
X115406715Y-91875429D01*
X115515572Y-91694000D01*
X115697001Y-91585143D01*
X115878429Y-91548857D01*
X114499572Y-92202000D02*
X114136715Y-92202000D01*
X114572144Y-92419714D02*
X114318144Y-91657714D01*
X114064144Y-92419714D01*
X113701286Y-92419714D02*
X113773858Y-92383429D01*
X113810143Y-92310857D01*
X113810143Y-91657714D01*
X113120715Y-92383429D02*
X113193286Y-92419714D01*
X113338429Y-92419714D01*
X113411000Y-92383429D01*
X113447286Y-92310857D01*
X113447286Y-92020571D01*
X113411000Y-91948000D01*
X113338429Y-91911714D01*
X113193286Y-91911714D01*
X113120715Y-91948000D01*
X113084429Y-92020571D01*
X113084429Y-92093143D01*
X113447286Y-92165714D01*
X112830429Y-92419714D02*
X112431286Y-91911714D01*
X112830429Y-91911714D02*
X112431286Y-92419714D01*
X111814429Y-92419714D02*
X111814429Y-92020571D01*
X111850715Y-91948000D01*
X111923286Y-91911714D01*
X112068429Y-91911714D01*
X112141000Y-91948000D01*
X111814429Y-92383429D02*
X111887000Y-92419714D01*
X112068429Y-92419714D01*
X112141000Y-92383429D01*
X112177286Y-92310857D01*
X112177286Y-92238286D01*
X112141000Y-92165714D01*
X112068429Y-92129429D01*
X111887000Y-92129429D01*
X111814429Y-92093143D01*
X111451571Y-91911714D02*
X111451571Y-92419714D01*
X111451571Y-91984286D02*
X111415286Y-91948000D01*
X111342714Y-91911714D01*
X111233857Y-91911714D01*
X111161286Y-91948000D01*
X111125000Y-92020571D01*
X111125000Y-92419714D01*
X110435571Y-92419714D02*
X110435571Y-91657714D01*
X110435571Y-92383429D02*
X110508142Y-92419714D01*
X110653285Y-92419714D01*
X110725857Y-92383429D01*
X110762142Y-92347143D01*
X110798428Y-92274571D01*
X110798428Y-92056857D01*
X110762142Y-91984286D01*
X110725857Y-91948000D01*
X110653285Y-91911714D01*
X110508142Y-91911714D01*
X110435571Y-91948000D01*
X110072713Y-92419714D02*
X110072713Y-91911714D01*
X110072713Y-92056857D02*
X110036428Y-91984286D01*
X110000142Y-91948000D01*
X109927571Y-91911714D01*
X109854999Y-91911714D01*
X109492142Y-92419714D02*
X109564714Y-92383429D01*
X109600999Y-92347143D01*
X109637285Y-92274571D01*
X109637285Y-92056857D01*
X109600999Y-91984286D01*
X109564714Y-91948000D01*
X109492142Y-91911714D01*
X109383285Y-91911714D01*
X109310714Y-91948000D01*
X109274428Y-91984286D01*
X109238142Y-92056857D01*
X109238142Y-92274571D01*
X109274428Y-92347143D01*
X109310714Y-92383429D01*
X109383285Y-92419714D01*
X109492142Y-92419714D01*
X108947856Y-92383429D02*
X108875285Y-92419714D01*
X108730142Y-92419714D01*
X108657570Y-92383429D01*
X108621285Y-92310857D01*
X108621285Y-92274571D01*
X108657570Y-92202000D01*
X108730142Y-92165714D01*
X108838999Y-92165714D01*
X108911570Y-92129429D01*
X108947856Y-92056857D01*
X108947856Y-92020571D01*
X108911570Y-91948000D01*
X108838999Y-91911714D01*
X108730142Y-91911714D01*
X108657570Y-91948000D01*
X107714142Y-92419714D02*
X107714142Y-91657714D01*
X107532714Y-91657714D01*
X107423857Y-91694000D01*
X107351285Y-91766571D01*
X107315000Y-91839143D01*
X107278714Y-91984286D01*
X107278714Y-92093143D01*
X107315000Y-92238286D01*
X107351285Y-92310857D01*
X107423857Y-92383429D01*
X107532714Y-92419714D01*
X107714142Y-92419714D01*
X106952142Y-92419714D02*
X106952142Y-91911714D01*
X106952142Y-92056857D02*
X106915857Y-91984286D01*
X106879571Y-91948000D01*
X106807000Y-91911714D01*
X106734428Y-91911714D01*
X106553000Y-91911714D02*
X106371571Y-92419714D01*
X106190143Y-91911714D02*
X106371571Y-92419714D01*
X106444143Y-92601143D01*
X106480428Y-92637429D01*
X106553000Y-92673714D01*
X105899857Y-92419714D02*
X105899857Y-91911714D01*
X105899857Y-91984286D02*
X105863572Y-91948000D01*
X105791000Y-91911714D01*
X105682143Y-91911714D01*
X105609572Y-91948000D01*
X105573286Y-92020571D01*
X105573286Y-92419714D01*
X105573286Y-92020571D02*
X105537000Y-91948000D01*
X105464429Y-91911714D01*
X105355572Y-91911714D01*
X105283000Y-91948000D01*
X105246715Y-92020571D01*
X105246715Y-92419714D01*
X104775000Y-92419714D02*
X104847572Y-92383429D01*
X104883857Y-92347143D01*
X104920143Y-92274571D01*
X104920143Y-92056857D01*
X104883857Y-91984286D01*
X104847572Y-91948000D01*
X104775000Y-91911714D01*
X104666143Y-91911714D01*
X104593572Y-91948000D01*
X104557286Y-91984286D01*
X104521000Y-92056857D01*
X104521000Y-92274571D01*
X104557286Y-92347143D01*
X104593572Y-92383429D01*
X104666143Y-92419714D01*
X104775000Y-92419714D01*
X104194428Y-91911714D02*
X104194428Y-92419714D01*
X104194428Y-91984286D02*
X104158143Y-91948000D01*
X104085571Y-91911714D01*
X103976714Y-91911714D01*
X103904143Y-91948000D01*
X103867857Y-92020571D01*
X103867857Y-92419714D01*
X103504999Y-92419714D02*
X103504999Y-91911714D01*
X103504999Y-91657714D02*
X103541285Y-91694000D01*
X103504999Y-91730286D01*
X103468714Y-91694000D01*
X103504999Y-91657714D01*
X103504999Y-91730286D01*
X103251000Y-91911714D02*
X102960714Y-91911714D01*
X103142142Y-91657714D02*
X103142142Y-92310857D01*
X103105857Y-92383429D01*
X103033285Y-92419714D01*
X102960714Y-92419714D01*
X102706713Y-92419714D02*
X102706713Y-91911714D01*
X102706713Y-91657714D02*
X102742999Y-91694000D01*
X102706713Y-91730286D01*
X102670428Y-91694000D01*
X102706713Y-91657714D01*
X102706713Y-91730286D01*
X102380142Y-92383429D02*
X102307571Y-92419714D01*
X102162428Y-92419714D01*
X102089856Y-92383429D01*
X102053571Y-92310857D01*
X102053571Y-92274571D01*
X102089856Y-92202000D01*
X102162428Y-92165714D01*
X102271285Y-92165714D01*
X102343856Y-92129429D01*
X102380142Y-92056857D01*
X102380142Y-92020571D01*
X102343856Y-91948000D01*
X102271285Y-91911714D01*
X102162428Y-91911714D01*
X102089856Y-91948000D01*
D12*
X134620000Y-97790000D03*
D13*
X134620000Y-95250000D03*
X137160000Y-97790000D03*
X137160000Y-95250000D03*
X139700000Y-97790000D03*
X139700000Y-95250000D03*
D12*
X120650000Y-97790000D03*
D13*
X120650000Y-95250000D03*
X123190000Y-97790000D03*
X123190000Y-95250000D03*
X125730000Y-97790000D03*
X125730000Y-95250000D03*
D14*
X113030000Y-124460000D03*
D15*
X115570000Y-124460000D03*
X118110000Y-124460000D03*
X120650000Y-124460000D03*
X123190000Y-124460000D03*
X125730000Y-124460000D03*
X128270000Y-124460000D03*
X130810000Y-124460000D03*
X133350000Y-124460000D03*
X135890000Y-124460000D03*
X138430000Y-124460000D03*
X140970000Y-124460000D03*
X143510000Y-124460000D03*
X146050000Y-124460000D03*
D14*
X113030000Y-109220000D03*
D15*
X115570000Y-109220000D03*
X118110000Y-109220000D03*
X120650000Y-109220000D03*
X123190000Y-109220000D03*
X125730000Y-109220000D03*
X128270000Y-109220000D03*
X130810000Y-109220000D03*
X133350000Y-109220000D03*
X135890000Y-109220000D03*
X138430000Y-109220000D03*
X140970000Y-109220000D03*
X143510000Y-109220000D03*
X146050000Y-109220000D03*
D16*
X149860000Y-95250000D03*
D17*
X151860000Y-95250000D03*
D18*
X99060000Y-119380000D03*
D19*
X99060000Y-117380000D03*
D18*
X105410000Y-119380000D03*
D19*
X105410000Y-117380000D03*
D20*
X158750000Y-91440000D03*
X99060000Y-91440000D03*
X158750000Y-132080000D03*
X99060000Y-132080000D03*
D21*
X100330000Y-110490000D03*
D22*
X100330000Y-105410000D03*
D12*
X151130000Y-111760000D03*
D13*
X153670000Y-111760000D03*
X151130000Y-114300000D03*
X153670000Y-114300000D03*
X151130000Y-116840000D03*
X153670000Y-116840000D03*
X151130000Y-119380000D03*
X153670000Y-119380000D03*
X151130000Y-121920000D03*
X153670000Y-121920000D03*
D23*
X148590000Y-132080000D03*
X148590000Y-121920000D03*
X119380000Y-100330000D03*
X134620000Y-100330000D03*
X127000000Y-102870000D03*
X139700000Y-102870000D03*
D24*
X100330000Y-110490000D02*
X106680000Y-110490000D01*
X106680000Y-110490000D02*
X113030000Y-116840000D01*
X113030000Y-116840000D02*
X113030000Y-124460000D01*
X100330000Y-110490000D02*
X98425000Y-110490000D01*
X158750000Y-91440000D02*
X158750000Y-108585000D01*
X160020000Y-109855000D02*
X160020000Y-130810000D01*
X160020000Y-130810000D02*
X158750000Y-132080000D01*
X137160000Y-97790000D02*
X137160000Y-100330000D01*
X121920000Y-96520000D02*
X123190000Y-97790000D01*
X121920000Y-93345000D02*
X121920000Y-96520000D01*
X123190000Y-92075000D02*
X121920000Y-93345000D01*
X130810000Y-92075000D02*
X123190000Y-92075000D01*
X132080000Y-93345000D02*
X130810000Y-92075000D01*
X132080000Y-100330000D02*
X132080000Y-93345000D01*
X133350000Y-101600000D02*
X132080000Y-100330000D01*
X135890000Y-101600000D02*
X133350000Y-101600000D01*
X137160000Y-100330000D02*
X135890000Y-101600000D01*
X123190000Y-97790000D02*
X123190000Y-102235000D01*
X124460000Y-103505000D02*
X124460000Y-132080000D01*
X123190000Y-102235000D02*
X124460000Y-103505000D01*
X99060000Y-91440000D02*
X100330000Y-90170000D01*
X100330000Y-90170000D02*
X156845000Y-90170000D01*
X156845000Y-90170000D02*
X158115000Y-91440000D01*
X158115000Y-91440000D02*
X158750000Y-91440000D01*
X99060000Y-110490000D02*
X98425000Y-110490000D01*
X98425000Y-110490000D02*
X97790000Y-110490000D01*
X97155000Y-93345000D02*
X99060000Y-91440000D01*
X97155000Y-109855000D02*
X97155000Y-93345000D01*
X97790000Y-110490000D02*
X97155000Y-109855000D01*
X158750000Y-132080000D02*
X148590000Y-132080000D01*
X99060000Y-132080000D02*
X113030000Y-132080000D01*
X151130000Y-121920000D02*
X148590000Y-121920000D01*
X113030000Y-132080000D02*
X113030000Y-124460000D01*
X148590000Y-132080000D02*
X124460000Y-132080000D01*
X124460000Y-132080000D02*
X113030000Y-132080000D01*
X158750000Y-108585000D02*
X160020000Y-109855000D01*
X151130000Y-111760000D02*
X151130000Y-110490000D01*
X149860000Y-109220000D02*
X146050000Y-109220000D01*
X151130000Y-110490000D02*
X149860000Y-109220000D01*
X130810000Y-128270000D02*
X130810000Y-124460000D01*
X133350000Y-130810000D02*
X130810000Y-128270000D01*
X156210000Y-130810000D02*
X133350000Y-130810000D01*
X158750000Y-128270000D02*
X156210000Y-130810000D01*
X158750000Y-114300000D02*
X158750000Y-128270000D01*
X153670000Y-111760000D02*
X156210000Y-111760000D01*
X156210000Y-111760000D02*
X158750000Y-114300000D01*
X151130000Y-114300000D02*
X142240000Y-114300000D01*
X142240000Y-114300000D02*
X140970000Y-115570000D01*
X140970000Y-115570000D02*
X140970000Y-124460000D01*
X153670000Y-114300000D02*
X156210000Y-114300000D01*
X133350000Y-128270000D02*
X133350000Y-124460000D01*
X134620000Y-129540000D02*
X133350000Y-128270000D01*
X154940000Y-129540000D02*
X134620000Y-129540000D01*
X157480000Y-127000000D02*
X154940000Y-129540000D01*
X157480000Y-115570000D02*
X157480000Y-127000000D01*
X156210000Y-114300000D02*
X157480000Y-115570000D01*
X151130000Y-116840000D02*
X143510000Y-116840000D01*
X138430000Y-125730000D02*
X138430000Y-124460000D01*
X139700000Y-127000000D02*
X138430000Y-125730000D01*
X140970000Y-127000000D02*
X139700000Y-127000000D01*
X142240000Y-125730000D02*
X140970000Y-127000000D01*
X142240000Y-118110000D02*
X142240000Y-125730000D01*
X143510000Y-116840000D02*
X142240000Y-118110000D01*
X153670000Y-116840000D02*
X154940000Y-116840000D01*
X135890000Y-127000000D02*
X135890000Y-124460000D01*
X137160000Y-128270000D02*
X135890000Y-127000000D01*
X153670000Y-128270000D02*
X137160000Y-128270000D01*
X156210000Y-125730000D02*
X153670000Y-128270000D01*
X156210000Y-118110000D02*
X156210000Y-125730000D01*
X154940000Y-116840000D02*
X156210000Y-118110000D01*
X153670000Y-119380000D02*
X152400000Y-120650000D01*
X151130000Y-124460000D02*
X146050000Y-124460000D01*
X152400000Y-123190000D02*
X151130000Y-124460000D01*
X152400000Y-120650000D02*
X152400000Y-123190000D01*
X153670000Y-121920000D02*
X153670000Y-125730000D01*
X143510000Y-125730000D02*
X143510000Y-124460000D01*
X144780000Y-127000000D02*
X143510000Y-125730000D01*
X152400000Y-127000000D02*
X144780000Y-127000000D01*
X153670000Y-125730000D02*
X152400000Y-127000000D01*
X134620000Y-97790000D02*
X134620000Y-100330000D01*
X119380000Y-100330000D02*
X119380000Y-99060000D01*
X119380000Y-99060000D02*
X120650000Y-97790000D01*
X123190000Y-124460000D02*
X123190000Y-119380000D01*
X119380000Y-99060000D02*
X120650000Y-97790000D01*
X119380000Y-115570000D02*
X119380000Y-99060000D01*
X123190000Y-119380000D02*
X119380000Y-115570000D01*
X120650000Y-95250000D02*
X120650000Y-92710000D01*
X134620000Y-92710000D02*
X134620000Y-95250000D01*
X133350000Y-91440000D02*
X134620000Y-92710000D01*
X121920000Y-91440000D02*
X133350000Y-91440000D01*
X120650000Y-92710000D02*
X121920000Y-91440000D01*
X120650000Y-124460000D02*
X120650000Y-120650000D01*
X118110000Y-95250000D02*
X120650000Y-95250000D01*
X116840000Y-96520000D02*
X118110000Y-95250000D01*
X116840000Y-116840000D02*
X116840000Y-96520000D01*
X120650000Y-120650000D02*
X116840000Y-116840000D01*
X156210000Y-105410000D02*
X156210000Y-93345000D01*
X137160000Y-95250000D02*
X137160000Y-92075000D01*
X137795000Y-91440000D02*
X137160000Y-92075000D01*
X154305000Y-107315000D02*
X156210000Y-105410000D01*
X144780000Y-107315000D02*
X154305000Y-107315000D01*
X144780000Y-107315000D02*
X143510000Y-108585000D01*
X154305000Y-91440000D02*
X137795000Y-91440000D01*
X156210000Y-93345000D02*
X154305000Y-91440000D01*
X143510000Y-109220000D02*
X143510000Y-108585000D01*
X139700000Y-97790000D02*
X139700000Y-102870000D01*
X127000000Y-102870000D02*
X127000000Y-114300000D01*
X127000000Y-114300000D02*
X125730000Y-115570000D01*
X125730000Y-115570000D02*
X125730000Y-124460000D01*
X125730000Y-124460000D02*
X125730000Y-115570000D01*
X127000000Y-99060000D02*
X125730000Y-97790000D01*
X127000000Y-114300000D02*
X127000000Y-99060000D01*
X125730000Y-115570000D02*
X127000000Y-114300000D01*
X139700000Y-95250000D02*
X139700000Y-93980000D01*
X142240000Y-111760000D02*
X140970000Y-113030000D01*
X140970000Y-113030000D02*
X129540000Y-113030000D01*
X129540000Y-113030000D02*
X129540000Y-115570000D01*
X142240000Y-106680000D02*
X142240000Y-111760000D01*
X143510000Y-105410000D02*
X142240000Y-106680000D01*
X152400000Y-105410000D02*
X143510000Y-105410000D01*
X154305000Y-103505000D02*
X152400000Y-105410000D01*
X154305000Y-93345000D02*
X154305000Y-103505000D01*
X153670000Y-92710000D02*
X154305000Y-93345000D01*
X140970000Y-92710000D02*
X153670000Y-92710000D01*
X139700000Y-93980000D02*
X140970000Y-92710000D01*
X129540000Y-115570000D02*
X128270000Y-116840000D01*
X128270000Y-116840000D02*
X128270000Y-124460000D01*
X128270000Y-124460000D02*
X128270000Y-116840000D01*
X128270000Y-95250000D02*
X125730000Y-95250000D01*
X129540000Y-96520000D02*
X128270000Y-95250000D01*
X129540000Y-115570000D02*
X129540000Y-96520000D01*
X128270000Y-116840000D02*
X129540000Y-115570000D01*
X140335000Y-111760000D02*
X140970000Y-111125000D01*
X133350000Y-111760000D02*
X140335000Y-111760000D01*
X132080000Y-110490000D02*
X133350000Y-111760000D01*
X132080000Y-104140000D02*
X132080000Y-110490000D01*
X123190000Y-93980000D02*
X124460000Y-92710000D01*
X124460000Y-92710000D02*
X129540000Y-92710000D01*
X129540000Y-92710000D02*
X130810000Y-93980000D01*
X130810000Y-93980000D02*
X130810000Y-102870000D01*
X130810000Y-102870000D02*
X132080000Y-104140000D01*
X123190000Y-95250000D02*
X123190000Y-93980000D01*
X140970000Y-111125000D02*
X140970000Y-109220000D01*
X100330000Y-105410000D02*
X111760000Y-105410000D01*
X113030000Y-106680000D02*
X113030000Y-109220000D01*
X111760000Y-105410000D02*
X113030000Y-106680000D01*
X142875000Y-101600000D02*
X148590000Y-101600000D01*
X148590000Y-101600000D02*
X149860000Y-100330000D01*
X135890000Y-109220000D02*
X135890000Y-108585000D01*
X135890000Y-108585000D02*
X142875000Y-101600000D01*
X149860000Y-100330000D02*
X149860000Y-95250000D01*
X151860000Y-101505000D02*
X151860000Y-95250000D01*
X150495000Y-102870000D02*
X151860000Y-101505000D01*
X143510000Y-102870000D02*
X150495000Y-102870000D01*
X138430000Y-109220000D02*
X138430000Y-107950000D01*
X138430000Y-107950000D02*
X143510000Y-102870000D01*
X99060000Y-119380000D02*
X105410000Y-119380000D01*
X99060000Y-117380000D02*
X105410000Y-117380000D01*
D25*
G36*
X156851877Y-89721485D02*
X156477832Y-89946154D01*
X156079120Y-90929388D01*
X156087025Y-91990357D01*
X156172946Y-92197788D01*
X154860079Y-90884921D01*
X154605407Y-90714755D01*
X154305000Y-90655000D01*
X137795005Y-90655000D01*
X137795000Y-90654999D01*
X137494594Y-90714755D01*
X137239921Y-90884921D01*
X136604921Y-91519921D01*
X136434755Y-91774593D01*
X136392951Y-91984755D01*
X136375000Y-92075000D01*
X136375000Y-93977442D01*
X136100330Y-94160971D01*
X135890000Y-94475752D01*
X135679670Y-94160971D01*
X135405000Y-93977442D01*
X135405000Y-92710000D01*
X135345245Y-92409594D01*
X135345245Y-92409593D01*
X135175079Y-92154921D01*
X133905079Y-90884921D01*
X133650407Y-90714755D01*
X133350000Y-90655000D01*
X121920000Y-90655000D01*
X121619593Y-90714755D01*
X121364921Y-90884921D01*
X120094921Y-92154921D01*
X119924755Y-92409593D01*
X119924755Y-92409594D01*
X119865000Y-92710000D01*
X119865000Y-93977442D01*
X119590330Y-94160971D01*
X119387184Y-94465000D01*
X118110000Y-94465000D01*
X117809593Y-94524755D01*
X117554921Y-94694921D01*
X116284921Y-95964921D01*
X116114755Y-96219593D01*
X116114755Y-96219594D01*
X116055000Y-96520000D01*
X116055000Y-107633127D01*
X115570000Y-107536655D01*
X114996511Y-107650729D01*
X114510330Y-107975585D01*
X114500757Y-107989913D01*
X114496762Y-107968683D01*
X114357690Y-107752559D01*
X114145490Y-107607569D01*
X113893600Y-107556560D01*
X113815000Y-107556560D01*
X113815000Y-106680000D01*
X113755245Y-106379594D01*
X113755245Y-106379593D01*
X113585079Y-106124921D01*
X112315079Y-104854921D01*
X112060407Y-104684755D01*
X111760000Y-104625000D01*
X102066857Y-104625000D01*
X101945922Y-104332314D01*
X101410505Y-103795961D01*
X100710590Y-103505332D01*
X99952735Y-103504670D01*
X99252314Y-103794078D01*
X98715961Y-104329495D01*
X98425332Y-105029410D01*
X98424670Y-105787265D01*
X98714078Y-106487686D01*
X99249495Y-107024039D01*
X99949410Y-107314668D01*
X100707265Y-107315330D01*
X101407686Y-107025922D01*
X101944039Y-106490505D01*
X102066743Y-106195000D01*
X111434842Y-106195000D01*
X112245000Y-107005158D01*
X112245000Y-107556560D01*
X112166400Y-107556560D01*
X111931083Y-107600838D01*
X111714959Y-107739910D01*
X111569969Y-107952110D01*
X111518960Y-108204000D01*
X111518960Y-110236000D01*
X111563238Y-110471317D01*
X111702310Y-110687441D01*
X111914510Y-110832431D01*
X112166400Y-110883440D01*
X113893600Y-110883440D01*
X114128917Y-110839162D01*
X114345041Y-110700090D01*
X114490031Y-110487890D01*
X114498400Y-110446561D01*
X114510330Y-110464415D01*
X114996511Y-110789271D01*
X115570000Y-110903345D01*
X116055000Y-110806873D01*
X116055000Y-116840000D01*
X116114755Y-117140407D01*
X116284921Y-117395079D01*
X119865000Y-120975158D01*
X119865000Y-123032056D01*
X119590330Y-123215585D01*
X119380000Y-123530366D01*
X119169670Y-123215585D01*
X118683489Y-122890729D01*
X118110000Y-122776655D01*
X117536511Y-122890729D01*
X117050330Y-123215585D01*
X116840000Y-123530366D01*
X116629670Y-123215585D01*
X116143489Y-122890729D01*
X115570000Y-122776655D01*
X114996511Y-122890729D01*
X114510330Y-123215585D01*
X114495500Y-123237780D01*
X114431927Y-123084302D01*
X114253299Y-122905673D01*
X114019910Y-122809000D01*
X113315750Y-122809000D01*
X113157000Y-122967750D01*
X113157000Y-124333000D01*
X113177000Y-124333000D01*
X113177000Y-124587000D01*
X113157000Y-124587000D01*
X113157000Y-125952250D01*
X113315750Y-126111000D01*
X114019910Y-126111000D01*
X114253299Y-126014327D01*
X114431927Y-125835698D01*
X114495500Y-125682220D01*
X114510330Y-125704415D01*
X114996511Y-126029271D01*
X115570000Y-126143345D01*
X116143489Y-126029271D01*
X116629670Y-125704415D01*
X116840000Y-125389634D01*
X117050330Y-125704415D01*
X117536511Y-126029271D01*
X118110000Y-126143345D01*
X118683489Y-126029271D01*
X119169670Y-125704415D01*
X119380000Y-125389634D01*
X119590330Y-125704415D01*
X120076511Y-126029271D01*
X120650000Y-126143345D01*
X121223489Y-126029271D01*
X121709670Y-125704415D01*
X121920000Y-125389634D01*
X122130330Y-125704415D01*
X122616511Y-126029271D01*
X123190000Y-126143345D01*
X123763489Y-126029271D01*
X124249670Y-125704415D01*
X124460000Y-125389634D01*
X124670330Y-125704415D01*
X125156511Y-126029271D01*
X125730000Y-126143345D01*
X126303489Y-126029271D01*
X126789670Y-125704415D01*
X127000000Y-125389634D01*
X127210330Y-125704415D01*
X127696511Y-126029271D01*
X128270000Y-126143345D01*
X128843489Y-126029271D01*
X129329670Y-125704415D01*
X129540000Y-125389634D01*
X129750330Y-125704415D01*
X130025000Y-125887944D01*
X130025000Y-128270000D01*
X130084755Y-128570407D01*
X130254921Y-128825079D01*
X132794921Y-131365079D01*
X133049594Y-131535245D01*
X133350000Y-131595000D01*
X156079311Y-131595000D01*
X156087025Y-132630357D01*
X156477832Y-133573846D01*
X156851877Y-133798515D01*
X156740392Y-133910000D01*
X101069608Y-133910000D01*
X100958123Y-133798515D01*
X101332168Y-133573846D01*
X101730880Y-132590612D01*
X101722975Y-131529643D01*
X101332168Y-130586154D01*
X100958121Y-130361484D01*
X99239605Y-132080000D01*
X99253748Y-132094143D01*
X99074143Y-132273748D01*
X99060000Y-132259605D01*
X99045858Y-132273748D01*
X98866253Y-132094143D01*
X98880395Y-132080000D01*
X98866253Y-132065858D01*
X99045858Y-131886253D01*
X99060000Y-131900395D01*
X100778516Y-130181879D01*
X100553846Y-129807832D01*
X99570612Y-129409120D01*
X98509643Y-129417025D01*
X97566154Y-129807832D01*
X97341485Y-130181877D01*
X97230000Y-130070392D01*
X97230000Y-124745750D01*
X111531400Y-124745750D01*
X111531400Y-125602309D01*
X111628073Y-125835698D01*
X111806701Y-126014327D01*
X112040090Y-126111000D01*
X112744250Y-126111000D01*
X112903000Y-125952250D01*
X112903000Y-124587000D01*
X111690150Y-124587000D01*
X111531400Y-124745750D01*
X97230000Y-124745750D01*
X97230000Y-123317691D01*
X111531400Y-123317691D01*
X111531400Y-124174250D01*
X111690150Y-124333000D01*
X112903000Y-124333000D01*
X112903000Y-122967750D01*
X112744250Y-122809000D01*
X112040090Y-122809000D01*
X111806701Y-122905673D01*
X111628073Y-123084302D01*
X111531400Y-123317691D01*
X97230000Y-123317691D01*
X97230000Y-117380000D01*
X97545907Y-117380000D01*
X97639916Y-117852614D01*
X97892074Y-118229996D01*
X97758559Y-118315910D01*
X97613569Y-118528110D01*
X97562560Y-118780000D01*
X97562560Y-119980000D01*
X97606838Y-120215317D01*
X97745910Y-120431441D01*
X97958110Y-120576431D01*
X98210000Y-120627440D01*
X99910000Y-120627440D01*
X100145317Y-120583162D01*
X100361441Y-120444090D01*
X100506431Y-120231890D01*
X100519977Y-120165000D01*
X103947370Y-120165000D01*
X103956838Y-120215317D01*
X104095910Y-120431441D01*
X104308110Y-120576431D01*
X104560000Y-120627440D01*
X106260000Y-120627440D01*
X106495317Y-120583162D01*
X106711441Y-120444090D01*
X106856431Y-120231890D01*
X106907440Y-119980000D01*
X106907440Y-118780000D01*
X106863162Y-118544683D01*
X106724090Y-118328559D01*
X106578525Y-118229099D01*
X106830084Y-117852614D01*
X106924093Y-117380000D01*
X106830084Y-116907386D01*
X106562370Y-116506723D01*
X106161707Y-116239009D01*
X105689093Y-116145000D01*
X105130907Y-116145000D01*
X104658293Y-116239009D01*
X104257630Y-116506723D01*
X104198645Y-116595000D01*
X100271355Y-116595000D01*
X100212370Y-116506723D01*
X99811707Y-116239009D01*
X99339093Y-116145000D01*
X98780907Y-116145000D01*
X98308293Y-116239009D01*
X97907630Y-116506723D01*
X97639916Y-116907386D01*
X97545907Y-117380000D01*
X97230000Y-117380000D01*
X97230000Y-110775750D01*
X98425000Y-110775750D01*
X98425000Y-111886309D01*
X98521673Y-112119698D01*
X98700301Y-112298327D01*
X98933690Y-112395000D01*
X100044250Y-112395000D01*
X100203000Y-112236250D01*
X100203000Y-110617000D01*
X100457000Y-110617000D01*
X100457000Y-112236250D01*
X100615750Y-112395000D01*
X101726310Y-112395000D01*
X101959699Y-112298327D01*
X102138327Y-112119698D01*
X102235000Y-111886309D01*
X102235000Y-110775750D01*
X102076250Y-110617000D01*
X100457000Y-110617000D01*
X100203000Y-110617000D01*
X98583750Y-110617000D01*
X98425000Y-110775750D01*
X97230000Y-110775750D01*
X97230000Y-109093691D01*
X98425000Y-109093691D01*
X98425000Y-110204250D01*
X98583750Y-110363000D01*
X100203000Y-110363000D01*
X100203000Y-108743750D01*
X100457000Y-108743750D01*
X100457000Y-110363000D01*
X102076250Y-110363000D01*
X102235000Y-110204250D01*
X102235000Y-109093691D01*
X102138327Y-108860302D01*
X101959699Y-108681673D01*
X101726310Y-108585000D01*
X100615750Y-108585000D01*
X100457000Y-108743750D01*
X100203000Y-108743750D01*
X100044250Y-108585000D01*
X98933690Y-108585000D01*
X98700301Y-108681673D01*
X98521673Y-108860302D01*
X98425000Y-109093691D01*
X97230000Y-109093691D01*
X97230000Y-93449608D01*
X97341485Y-93338123D01*
X97566154Y-93712168D01*
X98549388Y-94110880D01*
X99610357Y-94102975D01*
X100553846Y-93712168D01*
X100778516Y-93338121D01*
X99060000Y-91619605D01*
X99045858Y-91633748D01*
X98866253Y-91454143D01*
X98880395Y-91440000D01*
X98866253Y-91425858D01*
X99045858Y-91246253D01*
X99060000Y-91260395D01*
X99074143Y-91246253D01*
X99253748Y-91425858D01*
X99239605Y-91440000D01*
X100958121Y-93158516D01*
X101178178Y-93026340D01*
X101178178Y-93338650D01*
X117261822Y-93338650D01*
X117261822Y-90620850D01*
X101611637Y-90620850D01*
X101332168Y-89946154D01*
X100958123Y-89721485D01*
X101069608Y-89610000D01*
X156740392Y-89610000D01*
X156851877Y-89721485D01*
X156851877Y-89721485D01*
G37*
X156851877Y-89721485D02*
X156477832Y-89946154D01*
X156079120Y-90929388D01*
X156087025Y-91990357D01*
X156172946Y-92197788D01*
X154860079Y-90884921D01*
X154605407Y-90714755D01*
X154305000Y-90655000D01*
X137795005Y-90655000D01*
X137795000Y-90654999D01*
X137494594Y-90714755D01*
X137239921Y-90884921D01*
X136604921Y-91519921D01*
X136434755Y-91774593D01*
X136392951Y-91984755D01*
X136375000Y-92075000D01*
X136375000Y-93977442D01*
X136100330Y-94160971D01*
X135890000Y-94475752D01*
X135679670Y-94160971D01*
X135405000Y-93977442D01*
X135405000Y-92710000D01*
X135345245Y-92409594D01*
X135345245Y-92409593D01*
X135175079Y-92154921D01*
X133905079Y-90884921D01*
X133650407Y-90714755D01*
X133350000Y-90655000D01*
X121920000Y-90655000D01*
X121619593Y-90714755D01*
X121364921Y-90884921D01*
X120094921Y-92154921D01*
X119924755Y-92409593D01*
X119924755Y-92409594D01*
X119865000Y-92710000D01*
X119865000Y-93977442D01*
X119590330Y-94160971D01*
X119387184Y-94465000D01*
X118110000Y-94465000D01*
X117809593Y-94524755D01*
X117554921Y-94694921D01*
X116284921Y-95964921D01*
X116114755Y-96219593D01*
X116114755Y-96219594D01*
X116055000Y-96520000D01*
X116055000Y-107633127D01*
X115570000Y-107536655D01*
X114996511Y-107650729D01*
X114510330Y-107975585D01*
X114500757Y-107989913D01*
X114496762Y-107968683D01*
X114357690Y-107752559D01*
X114145490Y-107607569D01*
X113893600Y-107556560D01*
X113815000Y-107556560D01*
X113815000Y-106680000D01*
X113755245Y-106379594D01*
X113755245Y-106379593D01*
X113585079Y-106124921D01*
X112315079Y-104854921D01*
X112060407Y-104684755D01*
X111760000Y-104625000D01*
X102066857Y-104625000D01*
X101945922Y-104332314D01*
X101410505Y-103795961D01*
X100710590Y-103505332D01*
X99952735Y-103504670D01*
X99252314Y-103794078D01*
X98715961Y-104329495D01*
X98425332Y-105029410D01*
X98424670Y-105787265D01*
X98714078Y-106487686D01*
X99249495Y-107024039D01*
X99949410Y-107314668D01*
X100707265Y-107315330D01*
X101407686Y-107025922D01*
X101944039Y-106490505D01*
X102066743Y-106195000D01*
X111434842Y-106195000D01*
X112245000Y-107005158D01*
X112245000Y-107556560D01*
X112166400Y-107556560D01*
X111931083Y-107600838D01*
X111714959Y-107739910D01*
X111569969Y-107952110D01*
X111518960Y-108204000D01*
X111518960Y-110236000D01*
X111563238Y-110471317D01*
X111702310Y-110687441D01*
X111914510Y-110832431D01*
X112166400Y-110883440D01*
X113893600Y-110883440D01*
X114128917Y-110839162D01*
X114345041Y-110700090D01*
X114490031Y-110487890D01*
X114498400Y-110446561D01*
X114510330Y-110464415D01*
X114996511Y-110789271D01*
X115570000Y-110903345D01*
X116055000Y-110806873D01*
X116055000Y-116840000D01*
X116114755Y-117140407D01*
X116284921Y-117395079D01*
X119865000Y-120975158D01*
X119865000Y-123032056D01*
X119590330Y-123215585D01*
X119380000Y-123530366D01*
X119169670Y-123215585D01*
X118683489Y-122890729D01*
X118110000Y-122776655D01*
X117536511Y-122890729D01*
X117050330Y-123215585D01*
X116840000Y-123530366D01*
X116629670Y-123215585D01*
X116143489Y-122890729D01*
X115570000Y-122776655D01*
X114996511Y-122890729D01*
X114510330Y-123215585D01*
X114495500Y-123237780D01*
X114431927Y-123084302D01*
X114253299Y-122905673D01*
X114019910Y-122809000D01*
X113315750Y-122809000D01*
X113157000Y-122967750D01*
X113157000Y-124333000D01*
X113177000Y-124333000D01*
X113177000Y-124587000D01*
X113157000Y-124587000D01*
X113157000Y-125952250D01*
X113315750Y-126111000D01*
X114019910Y-126111000D01*
X114253299Y-126014327D01*
X114431927Y-125835698D01*
X114495500Y-125682220D01*
X114510330Y-125704415D01*
X114996511Y-126029271D01*
X115570000Y-126143345D01*
X116143489Y-126029271D01*
X116629670Y-125704415D01*
X116840000Y-125389634D01*
X117050330Y-125704415D01*
X117536511Y-126029271D01*
X118110000Y-126143345D01*
X118683489Y-126029271D01*
X119169670Y-125704415D01*
X119380000Y-125389634D01*
X119590330Y-125704415D01*
X120076511Y-126029271D01*
X120650000Y-126143345D01*
X121223489Y-126029271D01*
X121709670Y-125704415D01*
X121920000Y-125389634D01*
X122130330Y-125704415D01*
X122616511Y-126029271D01*
X123190000Y-126143345D01*
X123763489Y-126029271D01*
X124249670Y-125704415D01*
X124460000Y-125389634D01*
X124670330Y-125704415D01*
X125156511Y-126029271D01*
X125730000Y-126143345D01*
X126303489Y-126029271D01*
X126789670Y-125704415D01*
X127000000Y-125389634D01*
X127210330Y-125704415D01*
X127696511Y-126029271D01*
X128270000Y-126143345D01*
X128843489Y-126029271D01*
X129329670Y-125704415D01*
X129540000Y-125389634D01*
X129750330Y-125704415D01*
X130025000Y-125887944D01*
X130025000Y-128270000D01*
X130084755Y-128570407D01*
X130254921Y-128825079D01*
X132794921Y-131365079D01*
X133049594Y-131535245D01*
X133350000Y-131595000D01*
X156079311Y-131595000D01*
X156087025Y-132630357D01*
X156477832Y-133573846D01*
X156851877Y-133798515D01*
X156740392Y-133910000D01*
X101069608Y-133910000D01*
X100958123Y-133798515D01*
X101332168Y-133573846D01*
X101730880Y-132590612D01*
X101722975Y-131529643D01*
X101332168Y-130586154D01*
X100958121Y-130361484D01*
X99239605Y-132080000D01*
X99253748Y-132094143D01*
X99074143Y-132273748D01*
X99060000Y-132259605D01*
X99045858Y-132273748D01*
X98866253Y-132094143D01*
X98880395Y-132080000D01*
X98866253Y-132065858D01*
X99045858Y-131886253D01*
X99060000Y-131900395D01*
X100778516Y-130181879D01*
X100553846Y-129807832D01*
X99570612Y-129409120D01*
X98509643Y-129417025D01*
X97566154Y-129807832D01*
X97341485Y-130181877D01*
X97230000Y-130070392D01*
X97230000Y-124745750D01*
X111531400Y-124745750D01*
X111531400Y-125602309D01*
X111628073Y-125835698D01*
X111806701Y-126014327D01*
X112040090Y-126111000D01*
X112744250Y-126111000D01*
X112903000Y-125952250D01*
X112903000Y-124587000D01*
X111690150Y-124587000D01*
X111531400Y-124745750D01*
X97230000Y-124745750D01*
X97230000Y-123317691D01*
X111531400Y-123317691D01*
X111531400Y-124174250D01*
X111690150Y-124333000D01*
X112903000Y-124333000D01*
X112903000Y-122967750D01*
X112744250Y-122809000D01*
X112040090Y-122809000D01*
X111806701Y-122905673D01*
X111628073Y-123084302D01*
X111531400Y-123317691D01*
X97230000Y-123317691D01*
X97230000Y-117380000D01*
X97545907Y-117380000D01*
X97639916Y-117852614D01*
X97892074Y-118229996D01*
X97758559Y-118315910D01*
X97613569Y-118528110D01*
X97562560Y-118780000D01*
X97562560Y-119980000D01*
X97606838Y-120215317D01*
X97745910Y-120431441D01*
X97958110Y-120576431D01*
X98210000Y-120627440D01*
X99910000Y-120627440D01*
X100145317Y-120583162D01*
X100361441Y-120444090D01*
X100506431Y-120231890D01*
X100519977Y-120165000D01*
X103947370Y-120165000D01*
X103956838Y-120215317D01*
X104095910Y-120431441D01*
X104308110Y-120576431D01*
X104560000Y-120627440D01*
X106260000Y-120627440D01*
X106495317Y-120583162D01*
X106711441Y-120444090D01*
X106856431Y-120231890D01*
X106907440Y-119980000D01*
X106907440Y-118780000D01*
X106863162Y-118544683D01*
X106724090Y-118328559D01*
X106578525Y-118229099D01*
X106830084Y-117852614D01*
X106924093Y-117380000D01*
X106830084Y-116907386D01*
X106562370Y-116506723D01*
X106161707Y-116239009D01*
X105689093Y-116145000D01*
X105130907Y-116145000D01*
X104658293Y-116239009D01*
X104257630Y-116506723D01*
X104198645Y-116595000D01*
X100271355Y-116595000D01*
X100212370Y-116506723D01*
X99811707Y-116239009D01*
X99339093Y-116145000D01*
X98780907Y-116145000D01*
X98308293Y-116239009D01*
X97907630Y-116506723D01*
X97639916Y-116907386D01*
X97545907Y-117380000D01*
X97230000Y-117380000D01*
X97230000Y-110775750D01*
X98425000Y-110775750D01*
X98425000Y-111886309D01*
X98521673Y-112119698D01*
X98700301Y-112298327D01*
X98933690Y-112395000D01*
X100044250Y-112395000D01*
X100203000Y-112236250D01*
X100203000Y-110617000D01*
X100457000Y-110617000D01*
X100457000Y-112236250D01*
X100615750Y-112395000D01*
X101726310Y-112395000D01*
X101959699Y-112298327D01*
X102138327Y-112119698D01*
X102235000Y-111886309D01*
X102235000Y-110775750D01*
X102076250Y-110617000D01*
X100457000Y-110617000D01*
X100203000Y-110617000D01*
X98583750Y-110617000D01*
X98425000Y-110775750D01*
X97230000Y-110775750D01*
X97230000Y-109093691D01*
X98425000Y-109093691D01*
X98425000Y-110204250D01*
X98583750Y-110363000D01*
X100203000Y-110363000D01*
X100203000Y-108743750D01*
X100457000Y-108743750D01*
X100457000Y-110363000D01*
X102076250Y-110363000D01*
X102235000Y-110204250D01*
X102235000Y-109093691D01*
X102138327Y-108860302D01*
X101959699Y-108681673D01*
X101726310Y-108585000D01*
X100615750Y-108585000D01*
X100457000Y-108743750D01*
X100203000Y-108743750D01*
X100044250Y-108585000D01*
X98933690Y-108585000D01*
X98700301Y-108681673D01*
X98521673Y-108860302D01*
X98425000Y-109093691D01*
X97230000Y-109093691D01*
X97230000Y-93449608D01*
X97341485Y-93338123D01*
X97566154Y-93712168D01*
X98549388Y-94110880D01*
X99610357Y-94102975D01*
X100553846Y-93712168D01*
X100778516Y-93338121D01*
X99060000Y-91619605D01*
X99045858Y-91633748D01*
X98866253Y-91454143D01*
X98880395Y-91440000D01*
X98866253Y-91425858D01*
X99045858Y-91246253D01*
X99060000Y-91260395D01*
X99074143Y-91246253D01*
X99253748Y-91425858D01*
X99239605Y-91440000D01*
X100958121Y-93158516D01*
X101178178Y-93026340D01*
X101178178Y-93338650D01*
X117261822Y-93338650D01*
X117261822Y-90620850D01*
X101611637Y-90620850D01*
X101332168Y-89946154D01*
X100958123Y-89721485D01*
X101069608Y-89610000D01*
X156740392Y-89610000D01*
X156851877Y-89721485D01*
G36*
X158943748Y-132065858D02*
X158929605Y-132080000D01*
X158943748Y-132094143D01*
X158764143Y-132273748D01*
X158750000Y-132259605D01*
X158735858Y-132273748D01*
X158556253Y-132094143D01*
X158570395Y-132080000D01*
X158556253Y-132065858D01*
X158735858Y-131886253D01*
X158750000Y-131900395D01*
X158764143Y-131886253D01*
X158943748Y-132065858D01*
X158943748Y-132065858D01*
G37*
X158943748Y-132065858D02*
X158929605Y-132080000D01*
X158943748Y-132094143D01*
X158764143Y-132273748D01*
X158750000Y-132259605D01*
X158735858Y-132273748D01*
X158556253Y-132094143D01*
X158570395Y-132080000D01*
X158556253Y-132065858D01*
X158735858Y-131886253D01*
X158750000Y-131900395D01*
X158764143Y-131886253D01*
X158943748Y-132065858D01*
G36*
X160580000Y-93449608D02*
X160580000Y-130070392D01*
X160468515Y-130181877D01*
X160243846Y-129807832D01*
X159260612Y-129409120D01*
X158716988Y-129413170D01*
X159305079Y-128825079D01*
X159475244Y-128570407D01*
X159475245Y-128570406D01*
X159535000Y-128270000D01*
X159535000Y-114300000D01*
X159475245Y-113999594D01*
X159305079Y-113744921D01*
X156765079Y-111204921D01*
X156510407Y-111034755D01*
X156210000Y-110975000D01*
X154932816Y-110975000D01*
X154729670Y-110670971D01*
X154243489Y-110346115D01*
X153670000Y-110232041D01*
X153096511Y-110346115D01*
X152610330Y-110670971D01*
X152601195Y-110684642D01*
X152596762Y-110661083D01*
X152457690Y-110444959D01*
X152245490Y-110299969D01*
X151993600Y-110248960D01*
X151867054Y-110248960D01*
X151855245Y-110189594D01*
X151855245Y-110189593D01*
X151685079Y-109934921D01*
X150415079Y-108664921D01*
X150160407Y-108494755D01*
X149860000Y-108435000D01*
X147416642Y-108435000D01*
X147192802Y-108100000D01*
X154305000Y-108100000D01*
X154605407Y-108040245D01*
X154860079Y-107870079D01*
X156765079Y-105965079D01*
X156935245Y-105710406D01*
X156995000Y-105410000D01*
X156995000Y-93374608D01*
X157031485Y-93338123D01*
X157256154Y-93712168D01*
X158239388Y-94110880D01*
X159300357Y-94102975D01*
X160243846Y-93712168D01*
X160468515Y-93338123D01*
X160580000Y-93449608D01*
X160580000Y-93449608D01*
G37*
X160580000Y-93449608D02*
X160580000Y-130070392D01*
X160468515Y-130181877D01*
X160243846Y-129807832D01*
X159260612Y-129409120D01*
X158716988Y-129413170D01*
X159305079Y-128825079D01*
X159475244Y-128570407D01*
X159475245Y-128570406D01*
X159535000Y-128270000D01*
X159535000Y-114300000D01*
X159475245Y-113999594D01*
X159305079Y-113744921D01*
X156765079Y-111204921D01*
X156510407Y-111034755D01*
X156210000Y-110975000D01*
X154932816Y-110975000D01*
X154729670Y-110670971D01*
X154243489Y-110346115D01*
X153670000Y-110232041D01*
X153096511Y-110346115D01*
X152610330Y-110670971D01*
X152601195Y-110684642D01*
X152596762Y-110661083D01*
X152457690Y-110444959D01*
X152245490Y-110299969D01*
X151993600Y-110248960D01*
X151867054Y-110248960D01*
X151855245Y-110189594D01*
X151855245Y-110189593D01*
X151685079Y-109934921D01*
X150415079Y-108664921D01*
X150160407Y-108494755D01*
X149860000Y-108435000D01*
X147416642Y-108435000D01*
X147192802Y-108100000D01*
X154305000Y-108100000D01*
X154605407Y-108040245D01*
X154860079Y-107870079D01*
X156765079Y-105965079D01*
X156935245Y-105710406D01*
X156995000Y-105410000D01*
X156995000Y-93374608D01*
X157031485Y-93338123D01*
X157256154Y-93712168D01*
X158239388Y-94110880D01*
X159300357Y-94102975D01*
X160243846Y-93712168D01*
X160468515Y-93338123D01*
X160580000Y-93449608D01*
G36*
X150070330Y-117929029D02*
X150341172Y-118110000D01*
X150070330Y-118290971D01*
X149745474Y-118777152D01*
X149631400Y-119350641D01*
X149631400Y-119409359D01*
X149745474Y-119982848D01*
X150070330Y-120469029D01*
X150341161Y-120649992D01*
X149923179Y-121031510D01*
X149675032Y-121560973D01*
X149795531Y-121793000D01*
X151003000Y-121793000D01*
X151003000Y-121773000D01*
X151257000Y-121773000D01*
X151257000Y-121793000D01*
X151277000Y-121793000D01*
X151277000Y-122047000D01*
X151257000Y-122047000D01*
X151257000Y-122067000D01*
X151003000Y-122067000D01*
X151003000Y-122047000D01*
X149795531Y-122047000D01*
X149675032Y-122279027D01*
X149923179Y-122808490D01*
X150355053Y-123202688D01*
X150770974Y-123374958D01*
X151002998Y-123253818D01*
X151002998Y-123418600D01*
X151061242Y-123418600D01*
X150804842Y-123675000D01*
X147416642Y-123675000D01*
X147109670Y-123215585D01*
X146623489Y-122890729D01*
X146050000Y-122776655D01*
X145476511Y-122890729D01*
X144990330Y-123215585D01*
X144780000Y-123530366D01*
X144569670Y-123215585D01*
X144083489Y-122890729D01*
X143510000Y-122776655D01*
X143025000Y-122873127D01*
X143025000Y-118435158D01*
X143835158Y-117625000D01*
X149867184Y-117625000D01*
X150070330Y-117929029D01*
X150070330Y-117929029D01*
G37*
X150070330Y-117929029D02*
X150341172Y-118110000D01*
X150070330Y-118290971D01*
X149745474Y-118777152D01*
X149631400Y-119350641D01*
X149631400Y-119409359D01*
X149745474Y-119982848D01*
X150070330Y-120469029D01*
X150341161Y-120649992D01*
X149923179Y-121031510D01*
X149675032Y-121560973D01*
X149795531Y-121793000D01*
X151003000Y-121793000D01*
X151003000Y-121773000D01*
X151257000Y-121773000D01*
X151257000Y-121793000D01*
X151277000Y-121793000D01*
X151277000Y-122047000D01*
X151257000Y-122047000D01*
X151257000Y-122067000D01*
X151003000Y-122067000D01*
X151003000Y-122047000D01*
X149795531Y-122047000D01*
X149675032Y-122279027D01*
X149923179Y-122808490D01*
X150355053Y-123202688D01*
X150770974Y-123374958D01*
X151002998Y-123253818D01*
X151002998Y-123418600D01*
X151061242Y-123418600D01*
X150804842Y-123675000D01*
X147416642Y-123675000D01*
X147109670Y-123215585D01*
X146623489Y-122890729D01*
X146050000Y-122776655D01*
X145476511Y-122890729D01*
X144990330Y-123215585D01*
X144780000Y-123530366D01*
X144569670Y-123215585D01*
X144083489Y-122890729D01*
X143510000Y-122776655D01*
X143025000Y-122873127D01*
X143025000Y-118435158D01*
X143835158Y-117625000D01*
X149867184Y-117625000D01*
X150070330Y-117929029D01*
G36*
X123317000Y-97663000D02*
X123337000Y-97663000D01*
X123337000Y-97917000D01*
X123317000Y-97917000D01*
X123317000Y-99123817D01*
X123549026Y-99244958D01*
X123964947Y-99072688D01*
X124396821Y-98678490D01*
X124454336Y-98555772D01*
X124670330Y-98879029D01*
X125156511Y-99203885D01*
X125730000Y-99317959D01*
X126078483Y-99248641D01*
X126215000Y-99385158D01*
X126215000Y-102332494D01*
X126207808Y-102339673D01*
X126065162Y-102683201D01*
X126064838Y-103055167D01*
X126206883Y-103398943D01*
X126215000Y-103407074D01*
X126215000Y-107633127D01*
X125730000Y-107536655D01*
X125156511Y-107650729D01*
X124670330Y-107975585D01*
X124460000Y-108290366D01*
X124249670Y-107975585D01*
X123763489Y-107650729D01*
X123190000Y-107536655D01*
X122616511Y-107650729D01*
X122130330Y-107975585D01*
X121920000Y-108290366D01*
X121709670Y-107975585D01*
X121223489Y-107650729D01*
X120650000Y-107536655D01*
X120165000Y-107633127D01*
X120165000Y-100867506D01*
X120172192Y-100860327D01*
X120314838Y-100516799D01*
X120315162Y-100144833D01*
X120173117Y-99801057D01*
X120165000Y-99792926D01*
X120165000Y-99385158D01*
X120249118Y-99301040D01*
X121513600Y-99301040D01*
X121748917Y-99256762D01*
X121965041Y-99117690D01*
X122110031Y-98905490D01*
X122129039Y-98811625D01*
X122415053Y-99072688D01*
X122830974Y-99244958D01*
X123063000Y-99123817D01*
X123063000Y-97917000D01*
X123043000Y-97917000D01*
X123043000Y-97663000D01*
X123063000Y-97663000D01*
X123063000Y-97643000D01*
X123317000Y-97643000D01*
X123317000Y-97663000D01*
X123317000Y-97663000D01*
G37*
X123317000Y-97663000D02*
X123337000Y-97663000D01*
X123337000Y-97917000D01*
X123317000Y-97917000D01*
X123317000Y-99123817D01*
X123549026Y-99244958D01*
X123964947Y-99072688D01*
X124396821Y-98678490D01*
X124454336Y-98555772D01*
X124670330Y-98879029D01*
X125156511Y-99203885D01*
X125730000Y-99317959D01*
X126078483Y-99248641D01*
X126215000Y-99385158D01*
X126215000Y-102332494D01*
X126207808Y-102339673D01*
X126065162Y-102683201D01*
X126064838Y-103055167D01*
X126206883Y-103398943D01*
X126215000Y-103407074D01*
X126215000Y-107633127D01*
X125730000Y-107536655D01*
X125156511Y-107650729D01*
X124670330Y-107975585D01*
X124460000Y-108290366D01*
X124249670Y-107975585D01*
X123763489Y-107650729D01*
X123190000Y-107536655D01*
X122616511Y-107650729D01*
X122130330Y-107975585D01*
X121920000Y-108290366D01*
X121709670Y-107975585D01*
X121223489Y-107650729D01*
X120650000Y-107536655D01*
X120165000Y-107633127D01*
X120165000Y-100867506D01*
X120172192Y-100860327D01*
X120314838Y-100516799D01*
X120315162Y-100144833D01*
X120173117Y-99801057D01*
X120165000Y-99792926D01*
X120165000Y-99385158D01*
X120249118Y-99301040D01*
X121513600Y-99301040D01*
X121748917Y-99256762D01*
X121965041Y-99117690D01*
X122110031Y-98905490D01*
X122129039Y-98811625D01*
X122415053Y-99072688D01*
X122830974Y-99244958D01*
X123063000Y-99123817D01*
X123063000Y-97917000D01*
X123043000Y-97917000D01*
X123043000Y-97663000D01*
X123063000Y-97663000D01*
X123063000Y-97643000D01*
X123317000Y-97643000D01*
X123317000Y-97663000D01*
G36*
X133835000Y-93035158D02*
X133835000Y-93977442D01*
X133560330Y-94160971D01*
X133235474Y-94647152D01*
X133121400Y-95220641D01*
X133121400Y-95279359D01*
X133235474Y-95852848D01*
X133546574Y-96318442D01*
X133521083Y-96323238D01*
X133304959Y-96462310D01*
X133159969Y-96674510D01*
X133108960Y-96926400D01*
X133108960Y-98653600D01*
X133153238Y-98888917D01*
X133292310Y-99105041D01*
X133504510Y-99250031D01*
X133756400Y-99301040D01*
X133835000Y-99301040D01*
X133835000Y-99792494D01*
X133827808Y-99799673D01*
X133685162Y-100143201D01*
X133684838Y-100515167D01*
X133826883Y-100858943D01*
X134089673Y-101122192D01*
X134433201Y-101264838D01*
X134805167Y-101265162D01*
X135148943Y-101123117D01*
X135412192Y-100860327D01*
X135554838Y-100516799D01*
X135555162Y-100144833D01*
X135413117Y-99801057D01*
X135405000Y-99792926D01*
X135405000Y-99301040D01*
X135483600Y-99301040D01*
X135718917Y-99256762D01*
X135935041Y-99117690D01*
X136080031Y-98905490D01*
X136099039Y-98811625D01*
X136385053Y-99072688D01*
X136800974Y-99244958D01*
X137033000Y-99123817D01*
X137033000Y-97917000D01*
X137013000Y-97917000D01*
X137013000Y-97663000D01*
X137033000Y-97663000D01*
X137033000Y-97643000D01*
X137287000Y-97643000D01*
X137287000Y-97663000D01*
X137307000Y-97663000D01*
X137307000Y-97917000D01*
X137287000Y-97917000D01*
X137287000Y-99123817D01*
X137519026Y-99244958D01*
X137934947Y-99072688D01*
X138366821Y-98678490D01*
X138424336Y-98555772D01*
X138640330Y-98879029D01*
X138915000Y-99062558D01*
X138915000Y-102332494D01*
X138907808Y-102339673D01*
X138765162Y-102683201D01*
X138764838Y-103055167D01*
X138906883Y-103398943D01*
X139169673Y-103662192D01*
X139513201Y-103804838D01*
X139559963Y-103804879D01*
X135812839Y-107552003D01*
X135316511Y-107650729D01*
X134830330Y-107975585D01*
X134620000Y-108290366D01*
X134409670Y-107975585D01*
X133923489Y-107650729D01*
X133350000Y-107536655D01*
X132865000Y-107633127D01*
X132865000Y-104140000D01*
X132805245Y-103839594D01*
X132805245Y-103839593D01*
X132635079Y-103584921D01*
X131595000Y-102544842D01*
X131595000Y-93980000D01*
X131559905Y-93803569D01*
X131535245Y-93679593D01*
X131365079Y-93424921D01*
X130165158Y-92225000D01*
X133024842Y-92225000D01*
X133835000Y-93035158D01*
X133835000Y-93035158D01*
G37*
X133835000Y-93035158D02*
X133835000Y-93977442D01*
X133560330Y-94160971D01*
X133235474Y-94647152D01*
X133121400Y-95220641D01*
X133121400Y-95279359D01*
X133235474Y-95852848D01*
X133546574Y-96318442D01*
X133521083Y-96323238D01*
X133304959Y-96462310D01*
X133159969Y-96674510D01*
X133108960Y-96926400D01*
X133108960Y-98653600D01*
X133153238Y-98888917D01*
X133292310Y-99105041D01*
X133504510Y-99250031D01*
X133756400Y-99301040D01*
X133835000Y-99301040D01*
X133835000Y-99792494D01*
X133827808Y-99799673D01*
X133685162Y-100143201D01*
X133684838Y-100515167D01*
X133826883Y-100858943D01*
X134089673Y-101122192D01*
X134433201Y-101264838D01*
X134805167Y-101265162D01*
X135148943Y-101123117D01*
X135412192Y-100860327D01*
X135554838Y-100516799D01*
X135555162Y-100144833D01*
X135413117Y-99801057D01*
X135405000Y-99792926D01*
X135405000Y-99301040D01*
X135483600Y-99301040D01*
X135718917Y-99256762D01*
X135935041Y-99117690D01*
X136080031Y-98905490D01*
X136099039Y-98811625D01*
X136385053Y-99072688D01*
X136800974Y-99244958D01*
X137033000Y-99123817D01*
X137033000Y-97917000D01*
X137013000Y-97917000D01*
X137013000Y-97663000D01*
X137033000Y-97663000D01*
X137033000Y-97643000D01*
X137287000Y-97643000D01*
X137287000Y-97663000D01*
X137307000Y-97663000D01*
X137307000Y-97917000D01*
X137287000Y-97917000D01*
X137287000Y-99123817D01*
X137519026Y-99244958D01*
X137934947Y-99072688D01*
X138366821Y-98678490D01*
X138424336Y-98555772D01*
X138640330Y-98879029D01*
X138915000Y-99062558D01*
X138915000Y-102332494D01*
X138907808Y-102339673D01*
X138765162Y-102683201D01*
X138764838Y-103055167D01*
X138906883Y-103398943D01*
X139169673Y-103662192D01*
X139513201Y-103804838D01*
X139559963Y-103804879D01*
X135812839Y-107552003D01*
X135316511Y-107650729D01*
X134830330Y-107975585D01*
X134620000Y-108290366D01*
X134409670Y-107975585D01*
X133923489Y-107650729D01*
X133350000Y-107536655D01*
X132865000Y-107633127D01*
X132865000Y-104140000D01*
X132805245Y-103839594D01*
X132805245Y-103839593D01*
X132635079Y-103584921D01*
X131595000Y-102544842D01*
X131595000Y-93980000D01*
X131559905Y-93803569D01*
X131535245Y-93679593D01*
X131365079Y-93424921D01*
X130165158Y-92225000D01*
X133024842Y-92225000D01*
X133835000Y-93035158D01*
G36*
X122634921Y-93424921D02*
X122464755Y-93679593D01*
X122440095Y-93803569D01*
X122405587Y-93977050D01*
X122130330Y-94160971D01*
X121920000Y-94475752D01*
X121709670Y-94160971D01*
X121435000Y-93977442D01*
X121435000Y-93035158D01*
X122245158Y-92225000D01*
X123834842Y-92225000D01*
X122634921Y-93424921D01*
X122634921Y-93424921D01*
G37*
X122634921Y-93424921D02*
X122464755Y-93679593D01*
X122440095Y-93803569D01*
X122405587Y-93977050D01*
X122130330Y-94160971D01*
X121920000Y-94475752D01*
X121709670Y-94160971D01*
X121435000Y-93977442D01*
X121435000Y-93035158D01*
X122245158Y-92225000D01*
X123834842Y-92225000D01*
X122634921Y-93424921D01*
G36*
X158943748Y-91425858D02*
X158929605Y-91440000D01*
X158943748Y-91454143D01*
X158764143Y-91633748D01*
X158750000Y-91619605D01*
X158735858Y-91633748D01*
X158556253Y-91454143D01*
X158570395Y-91440000D01*
X158556253Y-91425858D01*
X158735858Y-91246253D01*
X158750000Y-91260395D01*
X158764143Y-91246253D01*
X158943748Y-91425858D01*
X158943748Y-91425858D01*
G37*
X158943748Y-91425858D02*
X158929605Y-91440000D01*
X158943748Y-91454143D01*
X158764143Y-91633748D01*
X158750000Y-91619605D01*
X158735858Y-91633748D01*
X158556253Y-91454143D01*
X158570395Y-91440000D01*
X158556253Y-91425858D01*
X158735858Y-91246253D01*
X158750000Y-91260395D01*
X158764143Y-91246253D01*
X158943748Y-91425858D01*
M02*
