G04 #@! TF.FileFunction,Copper,L1,Top,Signal*
%FSLAX46Y46*%
G04 Gerber Fmt 4.6, Leading zero omitted, Abs format (unit mm)*
G04 Created by KiCad (PCBNEW 4.0.2+dfsg1-2~bpo8+1-stable) date Mon 04 Sep 2017 02:15:41 PM EEST*
%MOMM*%
G01*
G04 APERTURE LIST*
%ADD10C,0.050000*%
%ADD11C,0.190500*%
%ADD12R,1.727200X1.727200*%
%ADD13O,1.727200X1.727200*%
%ADD14R,2.032000X1.727200*%
%ADD15O,2.032000X1.727200*%
%ADD16O,2.300000X1.600000*%
%ADD17C,4.064000*%
%ADD18C,0.600000*%
%ADD19C,0.300000*%
%ADD20C,0.254000*%
G04 APERTURE END LIST*
D10*
D11*
X142076714Y-157244143D02*
X142004142Y-157207857D01*
X141858999Y-157207857D01*
X141786428Y-157244143D01*
X141713857Y-157316714D01*
X141677571Y-157389286D01*
X141677571Y-157534429D01*
X141713857Y-157607000D01*
X141786428Y-157679571D01*
X141858999Y-157715857D01*
X142004142Y-157715857D01*
X142076714Y-157679571D01*
X141931571Y-156953857D02*
X141750142Y-156990143D01*
X141568714Y-157099000D01*
X141459857Y-157280429D01*
X141423571Y-157461857D01*
X141459857Y-157643286D01*
X141568714Y-157824714D01*
X141750142Y-157933571D01*
X141931571Y-157969857D01*
X142112999Y-157933571D01*
X142294428Y-157824714D01*
X142403285Y-157643286D01*
X142439571Y-157461857D01*
X142403285Y-157280429D01*
X142294428Y-157099000D01*
X142112999Y-156990143D01*
X141931571Y-156953857D01*
X143310428Y-157607000D02*
X143673285Y-157607000D01*
X143237856Y-157824714D02*
X143491856Y-157062714D01*
X143745856Y-157824714D01*
X144108714Y-157824714D02*
X144036142Y-157788429D01*
X143999857Y-157715857D01*
X143999857Y-157062714D01*
X144689285Y-157788429D02*
X144616714Y-157824714D01*
X144471571Y-157824714D01*
X144399000Y-157788429D01*
X144362714Y-157715857D01*
X144362714Y-157425571D01*
X144399000Y-157353000D01*
X144471571Y-157316714D01*
X144616714Y-157316714D01*
X144689285Y-157353000D01*
X144725571Y-157425571D01*
X144725571Y-157498143D01*
X144362714Y-157570714D01*
X144979571Y-157824714D02*
X145378714Y-157316714D01*
X144979571Y-157316714D02*
X145378714Y-157824714D01*
X145995571Y-157824714D02*
X145995571Y-157425571D01*
X145959285Y-157353000D01*
X145886714Y-157316714D01*
X145741571Y-157316714D01*
X145669000Y-157353000D01*
X145995571Y-157788429D02*
X145923000Y-157824714D01*
X145741571Y-157824714D01*
X145669000Y-157788429D01*
X145632714Y-157715857D01*
X145632714Y-157643286D01*
X145669000Y-157570714D01*
X145741571Y-157534429D01*
X145923000Y-157534429D01*
X145995571Y-157498143D01*
X146358429Y-157316714D02*
X146358429Y-157824714D01*
X146358429Y-157389286D02*
X146394714Y-157353000D01*
X146467286Y-157316714D01*
X146576143Y-157316714D01*
X146648714Y-157353000D01*
X146685000Y-157425571D01*
X146685000Y-157824714D01*
X147374429Y-157824714D02*
X147374429Y-157062714D01*
X147374429Y-157788429D02*
X147301858Y-157824714D01*
X147156715Y-157824714D01*
X147084143Y-157788429D01*
X147047858Y-157752143D01*
X147011572Y-157679571D01*
X147011572Y-157461857D01*
X147047858Y-157389286D01*
X147084143Y-157353000D01*
X147156715Y-157316714D01*
X147301858Y-157316714D01*
X147374429Y-157353000D01*
X147737287Y-157824714D02*
X147737287Y-157316714D01*
X147737287Y-157461857D02*
X147773572Y-157389286D01*
X147809858Y-157353000D01*
X147882429Y-157316714D01*
X147955001Y-157316714D01*
X148317858Y-157824714D02*
X148245286Y-157788429D01*
X148209001Y-157752143D01*
X148172715Y-157679571D01*
X148172715Y-157461857D01*
X148209001Y-157389286D01*
X148245286Y-157353000D01*
X148317858Y-157316714D01*
X148426715Y-157316714D01*
X148499286Y-157353000D01*
X148535572Y-157389286D01*
X148571858Y-157461857D01*
X148571858Y-157679571D01*
X148535572Y-157752143D01*
X148499286Y-157788429D01*
X148426715Y-157824714D01*
X148317858Y-157824714D01*
X148862144Y-157788429D02*
X148934715Y-157824714D01*
X149079858Y-157824714D01*
X149152430Y-157788429D01*
X149188715Y-157715857D01*
X149188715Y-157679571D01*
X149152430Y-157607000D01*
X149079858Y-157570714D01*
X148971001Y-157570714D01*
X148898430Y-157534429D01*
X148862144Y-157461857D01*
X148862144Y-157425571D01*
X148898430Y-157353000D01*
X148971001Y-157316714D01*
X149079858Y-157316714D01*
X149152430Y-157353000D01*
X150095858Y-157824714D02*
X150095858Y-157062714D01*
X150277286Y-157062714D01*
X150386143Y-157099000D01*
X150458715Y-157171571D01*
X150495000Y-157244143D01*
X150531286Y-157389286D01*
X150531286Y-157498143D01*
X150495000Y-157643286D01*
X150458715Y-157715857D01*
X150386143Y-157788429D01*
X150277286Y-157824714D01*
X150095858Y-157824714D01*
X150857858Y-157824714D02*
X150857858Y-157316714D01*
X150857858Y-157461857D02*
X150894143Y-157389286D01*
X150930429Y-157353000D01*
X151003000Y-157316714D01*
X151075572Y-157316714D01*
X151257000Y-157316714D02*
X151438429Y-157824714D01*
X151619857Y-157316714D02*
X151438429Y-157824714D01*
X151365857Y-158006143D01*
X151329572Y-158042429D01*
X151257000Y-158078714D01*
X151910143Y-157824714D02*
X151910143Y-157316714D01*
X151910143Y-157389286D02*
X151946428Y-157353000D01*
X152019000Y-157316714D01*
X152127857Y-157316714D01*
X152200428Y-157353000D01*
X152236714Y-157425571D01*
X152236714Y-157824714D01*
X152236714Y-157425571D02*
X152273000Y-157353000D01*
X152345571Y-157316714D01*
X152454428Y-157316714D01*
X152527000Y-157353000D01*
X152563285Y-157425571D01*
X152563285Y-157824714D01*
X153035000Y-157824714D02*
X152962428Y-157788429D01*
X152926143Y-157752143D01*
X152889857Y-157679571D01*
X152889857Y-157461857D01*
X152926143Y-157389286D01*
X152962428Y-157353000D01*
X153035000Y-157316714D01*
X153143857Y-157316714D01*
X153216428Y-157353000D01*
X153252714Y-157389286D01*
X153289000Y-157461857D01*
X153289000Y-157679571D01*
X153252714Y-157752143D01*
X153216428Y-157788429D01*
X153143857Y-157824714D01*
X153035000Y-157824714D01*
X153615572Y-157316714D02*
X153615572Y-157824714D01*
X153615572Y-157389286D02*
X153651857Y-157353000D01*
X153724429Y-157316714D01*
X153833286Y-157316714D01*
X153905857Y-157353000D01*
X153942143Y-157425571D01*
X153942143Y-157824714D01*
X154305001Y-157824714D02*
X154305001Y-157316714D01*
X154305001Y-157062714D02*
X154268715Y-157099000D01*
X154305001Y-157135286D01*
X154341286Y-157099000D01*
X154305001Y-157062714D01*
X154305001Y-157135286D01*
X154559000Y-157316714D02*
X154849286Y-157316714D01*
X154667858Y-157062714D02*
X154667858Y-157715857D01*
X154704143Y-157788429D01*
X154776715Y-157824714D01*
X154849286Y-157824714D01*
X155103287Y-157824714D02*
X155103287Y-157316714D01*
X155103287Y-157062714D02*
X155067001Y-157099000D01*
X155103287Y-157135286D01*
X155139572Y-157099000D01*
X155103287Y-157062714D01*
X155103287Y-157135286D01*
X155429858Y-157788429D02*
X155502429Y-157824714D01*
X155647572Y-157824714D01*
X155720144Y-157788429D01*
X155756429Y-157715857D01*
X155756429Y-157679571D01*
X155720144Y-157607000D01*
X155647572Y-157570714D01*
X155538715Y-157570714D01*
X155466144Y-157534429D01*
X155429858Y-157461857D01*
X155429858Y-157425571D01*
X155466144Y-157353000D01*
X155538715Y-157316714D01*
X155647572Y-157316714D01*
X155720144Y-157353000D01*
D12*
X137160000Y-142240000D03*
D13*
X139700000Y-142240000D03*
X137160000Y-144780000D03*
X139700000Y-144780000D03*
X137160000Y-147320000D03*
X139700000Y-147320000D03*
X137160000Y-149860000D03*
X139700000Y-149860000D03*
X137160000Y-152400000D03*
X139700000Y-152400000D03*
D12*
X156210000Y-100330000D03*
D13*
X153670000Y-100330000D03*
X156210000Y-97790000D03*
X153670000Y-97790000D03*
X156210000Y-95250000D03*
X153670000Y-95250000D03*
X156210000Y-92710000D03*
X153670000Y-92710000D03*
X156210000Y-90170000D03*
X153670000Y-90170000D03*
D14*
X137160000Y-114300000D03*
D15*
X137160000Y-116840000D03*
X137160000Y-119380000D03*
X137160000Y-121920000D03*
X137160000Y-124460000D03*
X137160000Y-127000000D03*
X137160000Y-129540000D03*
X137160000Y-132080000D03*
X137160000Y-134620000D03*
X137160000Y-137160000D03*
X137160000Y-139700000D03*
D16*
X154940000Y-132080000D03*
X154940000Y-129540000D03*
X154940000Y-127000000D03*
X154940000Y-124460000D03*
X147320000Y-124460000D03*
X147320000Y-127000000D03*
X147320000Y-129540000D03*
X147320000Y-132080000D03*
X154940000Y-119380000D03*
X154940000Y-116840000D03*
X154940000Y-114300000D03*
X154940000Y-111760000D03*
X147320000Y-111760000D03*
X147320000Y-114300000D03*
X147320000Y-116840000D03*
X147320000Y-119380000D03*
D17*
X156210000Y-85090000D03*
X137160000Y-157480000D03*
D18*
X140335000Y-120015000D03*
X140335000Y-123190000D03*
X142240000Y-142240000D03*
X146050000Y-109220000D03*
X151130000Y-148590000D03*
X143510000Y-124460000D03*
X144780000Y-127000000D03*
D19*
X137160000Y-142240000D02*
X137795000Y-142240000D01*
X137795000Y-142240000D02*
X139065000Y-140970000D01*
X139065000Y-140970000D02*
X139065000Y-136525000D01*
X139065000Y-136525000D02*
X137160000Y-134620000D01*
X137795000Y-134620000D02*
X137160000Y-134620000D01*
X139700000Y-142240000D02*
X140335000Y-141605000D01*
X139065000Y-114300000D02*
X137160000Y-114300000D01*
X140335000Y-115570000D02*
X139065000Y-114300000D01*
X140335000Y-120015000D02*
X140335000Y-115570000D01*
X140335000Y-141605000D02*
X140335000Y-123190000D01*
X137160000Y-137160000D02*
X135255000Y-137160000D01*
X135255000Y-137160000D02*
X135255000Y-135255000D01*
X135255000Y-135255000D02*
X135255000Y-93980000D01*
X135255000Y-93980000D02*
X137795000Y-91440000D01*
X137795000Y-91440000D02*
X147320000Y-91440000D01*
X147320000Y-91440000D02*
X148590000Y-92710000D01*
X148590000Y-92710000D02*
X153670000Y-92710000D01*
X137160000Y-144780000D02*
X135890000Y-144780000D01*
X135255000Y-137160000D02*
X137160000Y-137160000D01*
X135255000Y-144145000D02*
X135255000Y-137160000D01*
X135890000Y-144780000D02*
X135255000Y-144145000D01*
X139700000Y-144780000D02*
X144145000Y-144780000D01*
X158115000Y-93980000D02*
X156845000Y-92710000D01*
X158115000Y-149225000D02*
X158115000Y-93980000D01*
X156845000Y-150495000D02*
X158115000Y-149225000D01*
X146685000Y-150495000D02*
X156845000Y-150495000D01*
X145415000Y-149225000D02*
X146685000Y-150495000D01*
X145415000Y-146050000D02*
X145415000Y-149225000D01*
X144145000Y-144780000D02*
X145415000Y-146050000D01*
X156845000Y-92710000D02*
X156210000Y-92710000D01*
X142240000Y-142240000D02*
X142240000Y-121920000D01*
X153670000Y-95250000D02*
X146050000Y-95250000D01*
X143510000Y-121920000D02*
X142240000Y-121920000D01*
X144780000Y-120650000D02*
X143510000Y-121920000D01*
X144780000Y-96520000D02*
X144780000Y-120650000D01*
X146050000Y-95250000D02*
X144780000Y-96520000D01*
X137160000Y-121920000D02*
X142240000Y-121920000D01*
X146050000Y-107315000D02*
X146050000Y-109220000D01*
X152400000Y-146685000D02*
X152400000Y-108585000D01*
X152400000Y-108585000D02*
X151130000Y-107315000D01*
X151130000Y-107315000D02*
X146050000Y-107315000D01*
X152400000Y-147320000D02*
X152400000Y-146685000D01*
X151130000Y-148590000D02*
X152400000Y-147320000D01*
X153670000Y-97790000D02*
X151130000Y-97790000D01*
X147955000Y-97790000D02*
X151130000Y-97790000D01*
X151130000Y-97790000D02*
X151765000Y-97790000D01*
X146050000Y-99695000D02*
X147955000Y-97790000D01*
X146050000Y-107315000D02*
X146050000Y-99695000D01*
X156210000Y-85090000D02*
X156210000Y-86360000D01*
X156210000Y-86360000D02*
X154940000Y-87630000D01*
X154940000Y-87630000D02*
X154940000Y-100330000D01*
X154940000Y-100330000D02*
X153670000Y-100330000D01*
X154940000Y-116840000D02*
X154305000Y-116840000D01*
X154305000Y-116840000D02*
X153035000Y-115570000D01*
X156210000Y-102870000D02*
X156210000Y-100330000D01*
X153035000Y-106045000D02*
X156210000Y-102870000D01*
X153035000Y-115570000D02*
X153035000Y-106045000D01*
X143510000Y-124460000D02*
X147320000Y-124460000D01*
X144780000Y-127000000D02*
X147320000Y-127000000D01*
X147320000Y-129540000D02*
X148590000Y-129540000D01*
X148590000Y-116840000D02*
X147320000Y-116840000D01*
X149860000Y-118110000D02*
X148590000Y-116840000D01*
X149860000Y-128270000D02*
X149860000Y-118110000D01*
X148590000Y-129540000D02*
X149860000Y-128270000D01*
D20*
G36*
X135334921Y-145335079D02*
X135589594Y-145505245D01*
X135887051Y-145564414D01*
X136070971Y-145839670D01*
X136385752Y-146050000D01*
X136070971Y-146260330D01*
X135746115Y-146746511D01*
X135632041Y-147320000D01*
X135746115Y-147893489D01*
X136070971Y-148379670D01*
X136385752Y-148590000D01*
X136070971Y-148800330D01*
X135746115Y-149286511D01*
X135632041Y-149860000D01*
X135746115Y-150433489D01*
X136070971Y-150919670D01*
X136394228Y-151135664D01*
X136271510Y-151193179D01*
X135877312Y-151625053D01*
X135705042Y-152040974D01*
X135826183Y-152273000D01*
X137033000Y-152273000D01*
X137033000Y-152253000D01*
X137287000Y-152253000D01*
X137287000Y-152273000D01*
X137307000Y-152273000D01*
X137307000Y-152527000D01*
X137287000Y-152527000D01*
X137287000Y-153734469D01*
X137519027Y-153854968D01*
X138048490Y-153606821D01*
X138430008Y-153188839D01*
X138610971Y-153459670D01*
X139097152Y-153784526D01*
X139670641Y-153898600D01*
X139729359Y-153898600D01*
X140302848Y-153784526D01*
X140789029Y-153459670D01*
X141113885Y-152973489D01*
X141227959Y-152400000D01*
X141113885Y-151826511D01*
X140789029Y-151340330D01*
X140474248Y-151130000D01*
X140789029Y-150919670D01*
X141113885Y-150433489D01*
X141227959Y-149860000D01*
X141113885Y-149286511D01*
X140789029Y-148800330D01*
X140474248Y-148590000D01*
X140789029Y-148379670D01*
X141113885Y-147893489D01*
X141227959Y-147320000D01*
X141113885Y-146746511D01*
X140789029Y-146260330D01*
X140474248Y-146050000D01*
X140789029Y-145839670D01*
X140972558Y-145565000D01*
X143819842Y-145565000D01*
X144630000Y-146375158D01*
X144630000Y-149225000D01*
X144689755Y-149525407D01*
X144859921Y-149780079D01*
X146129921Y-151050079D01*
X146384593Y-151220245D01*
X146685000Y-151280000D01*
X156845000Y-151280000D01*
X157145407Y-151220245D01*
X157400079Y-151050079D01*
X158040000Y-150410158D01*
X158040000Y-159310000D01*
X139169608Y-159310000D01*
X139058123Y-159198515D01*
X139432168Y-158973846D01*
X139830880Y-157990612D01*
X139822975Y-156929643D01*
X139448611Y-156025850D01*
X140548178Y-156025850D01*
X140548178Y-158743650D01*
X156631822Y-158743650D01*
X156631822Y-156025850D01*
X140548178Y-156025850D01*
X139448611Y-156025850D01*
X139432168Y-155986154D01*
X139058121Y-155761484D01*
X137339605Y-157480000D01*
X137353748Y-157494143D01*
X137174143Y-157673748D01*
X137160000Y-157659605D01*
X137145858Y-157673748D01*
X136966253Y-157494143D01*
X136980395Y-157480000D01*
X136966253Y-157465858D01*
X137145858Y-157286253D01*
X137160000Y-157300395D01*
X138878516Y-155581879D01*
X138653846Y-155207832D01*
X137670612Y-154809120D01*
X136609643Y-154817025D01*
X135666154Y-155207832D01*
X135441485Y-155581877D01*
X135330000Y-155470392D01*
X135330000Y-152759026D01*
X135705042Y-152759026D01*
X135877312Y-153174947D01*
X136271510Y-153606821D01*
X136800973Y-153854968D01*
X137033000Y-153734469D01*
X137033000Y-152527000D01*
X135826183Y-152527000D01*
X135705042Y-152759026D01*
X135330000Y-152759026D01*
X135330000Y-145330158D01*
X135334921Y-145335079D01*
X135334921Y-145335079D01*
G37*
X135334921Y-145335079D02*
X135589594Y-145505245D01*
X135887051Y-145564414D01*
X136070971Y-145839670D01*
X136385752Y-146050000D01*
X136070971Y-146260330D01*
X135746115Y-146746511D01*
X135632041Y-147320000D01*
X135746115Y-147893489D01*
X136070971Y-148379670D01*
X136385752Y-148590000D01*
X136070971Y-148800330D01*
X135746115Y-149286511D01*
X135632041Y-149860000D01*
X135746115Y-150433489D01*
X136070971Y-150919670D01*
X136394228Y-151135664D01*
X136271510Y-151193179D01*
X135877312Y-151625053D01*
X135705042Y-152040974D01*
X135826183Y-152273000D01*
X137033000Y-152273000D01*
X137033000Y-152253000D01*
X137287000Y-152253000D01*
X137287000Y-152273000D01*
X137307000Y-152273000D01*
X137307000Y-152527000D01*
X137287000Y-152527000D01*
X137287000Y-153734469D01*
X137519027Y-153854968D01*
X138048490Y-153606821D01*
X138430008Y-153188839D01*
X138610971Y-153459670D01*
X139097152Y-153784526D01*
X139670641Y-153898600D01*
X139729359Y-153898600D01*
X140302848Y-153784526D01*
X140789029Y-153459670D01*
X141113885Y-152973489D01*
X141227959Y-152400000D01*
X141113885Y-151826511D01*
X140789029Y-151340330D01*
X140474248Y-151130000D01*
X140789029Y-150919670D01*
X141113885Y-150433489D01*
X141227959Y-149860000D01*
X141113885Y-149286511D01*
X140789029Y-148800330D01*
X140474248Y-148590000D01*
X140789029Y-148379670D01*
X141113885Y-147893489D01*
X141227959Y-147320000D01*
X141113885Y-146746511D01*
X140789029Y-146260330D01*
X140474248Y-146050000D01*
X140789029Y-145839670D01*
X140972558Y-145565000D01*
X143819842Y-145565000D01*
X144630000Y-146375158D01*
X144630000Y-149225000D01*
X144689755Y-149525407D01*
X144859921Y-149780079D01*
X146129921Y-151050079D01*
X146384593Y-151220245D01*
X146685000Y-151280000D01*
X156845000Y-151280000D01*
X157145407Y-151220245D01*
X157400079Y-151050079D01*
X158040000Y-150410158D01*
X158040000Y-159310000D01*
X139169608Y-159310000D01*
X139058123Y-159198515D01*
X139432168Y-158973846D01*
X139830880Y-157990612D01*
X139822975Y-156929643D01*
X139448611Y-156025850D01*
X140548178Y-156025850D01*
X140548178Y-158743650D01*
X156631822Y-158743650D01*
X156631822Y-156025850D01*
X140548178Y-156025850D01*
X139448611Y-156025850D01*
X139432168Y-155986154D01*
X139058121Y-155761484D01*
X137339605Y-157480000D01*
X137353748Y-157494143D01*
X137174143Y-157673748D01*
X137160000Y-157659605D01*
X137145858Y-157673748D01*
X136966253Y-157494143D01*
X136980395Y-157480000D01*
X136966253Y-157465858D01*
X137145858Y-157286253D01*
X137160000Y-157300395D01*
X138878516Y-155581879D01*
X138653846Y-155207832D01*
X137670612Y-154809120D01*
X136609643Y-154817025D01*
X135666154Y-155207832D01*
X135441485Y-155581877D01*
X135330000Y-155470392D01*
X135330000Y-152759026D01*
X135705042Y-152759026D01*
X135877312Y-153174947D01*
X136271510Y-153606821D01*
X136800973Y-153854968D01*
X137033000Y-153734469D01*
X137033000Y-152527000D01*
X135826183Y-152527000D01*
X135705042Y-152759026D01*
X135330000Y-152759026D01*
X135330000Y-145330158D01*
X135334921Y-145335079D01*
G36*
X152580971Y-98849670D02*
X152904228Y-99065664D01*
X152781510Y-99123179D01*
X152387312Y-99555053D01*
X152215042Y-99970974D01*
X152336183Y-100203000D01*
X153543000Y-100203000D01*
X153543000Y-100183000D01*
X153797000Y-100183000D01*
X153797000Y-100203000D01*
X153817000Y-100203000D01*
X153817000Y-100457000D01*
X153797000Y-100457000D01*
X153797000Y-101664469D01*
X154029027Y-101784968D01*
X154558490Y-101536821D01*
X154728495Y-101350567D01*
X154743238Y-101428917D01*
X154882310Y-101645041D01*
X155094510Y-101790031D01*
X155346400Y-101841040D01*
X155425000Y-101841040D01*
X155425000Y-102544842D01*
X152479921Y-105489921D01*
X152309755Y-105744593D01*
X152309755Y-105744594D01*
X152250000Y-106045000D01*
X152250000Y-107324842D01*
X151685079Y-106759921D01*
X151430407Y-106589755D01*
X151130000Y-106530000D01*
X146835000Y-106530000D01*
X146835000Y-100689026D01*
X152215042Y-100689026D01*
X152387312Y-101104947D01*
X152781510Y-101536821D01*
X153310973Y-101784968D01*
X153543000Y-101664469D01*
X153543000Y-100457000D01*
X152336183Y-100457000D01*
X152215042Y-100689026D01*
X146835000Y-100689026D01*
X146835000Y-100020158D01*
X148280158Y-98575000D01*
X152397442Y-98575000D01*
X152580971Y-98849670D01*
X152580971Y-98849670D01*
G37*
X152580971Y-98849670D02*
X152904228Y-99065664D01*
X152781510Y-99123179D01*
X152387312Y-99555053D01*
X152215042Y-99970974D01*
X152336183Y-100203000D01*
X153543000Y-100203000D01*
X153543000Y-100183000D01*
X153797000Y-100183000D01*
X153797000Y-100203000D01*
X153817000Y-100203000D01*
X153817000Y-100457000D01*
X153797000Y-100457000D01*
X153797000Y-101664469D01*
X154029027Y-101784968D01*
X154558490Y-101536821D01*
X154728495Y-101350567D01*
X154743238Y-101428917D01*
X154882310Y-101645041D01*
X155094510Y-101790031D01*
X155346400Y-101841040D01*
X155425000Y-101841040D01*
X155425000Y-102544842D01*
X152479921Y-105489921D01*
X152309755Y-105744593D01*
X152309755Y-105744594D01*
X152250000Y-106045000D01*
X152250000Y-107324842D01*
X151685079Y-106759921D01*
X151430407Y-106589755D01*
X151130000Y-106530000D01*
X146835000Y-106530000D01*
X146835000Y-100689026D01*
X152215042Y-100689026D01*
X152387312Y-101104947D01*
X152781510Y-101536821D01*
X153310973Y-101784968D01*
X153543000Y-101664469D01*
X153543000Y-100457000D01*
X152336183Y-100457000D01*
X152215042Y-100689026D01*
X146835000Y-100689026D01*
X146835000Y-100020158D01*
X148280158Y-98575000D01*
X152397442Y-98575000D01*
X152580971Y-98849670D01*
G36*
X154311877Y-83371485D02*
X153937832Y-83596154D01*
X153539120Y-84579388D01*
X153547025Y-85640357D01*
X153937832Y-86583846D01*
X154311879Y-86808516D01*
X156030395Y-85090000D01*
X156016253Y-85075858D01*
X156195858Y-84896253D01*
X156210000Y-84910395D01*
X156224143Y-84896253D01*
X156403748Y-85075858D01*
X156389605Y-85090000D01*
X156403748Y-85104143D01*
X156224143Y-85283748D01*
X156210000Y-85269605D01*
X154491484Y-86988121D01*
X154716154Y-87362168D01*
X155699388Y-87760880D01*
X156760357Y-87752975D01*
X157703846Y-87362168D01*
X157928515Y-86988123D01*
X158040000Y-87099608D01*
X158040000Y-92794842D01*
X157684028Y-92438870D01*
X157623885Y-92136511D01*
X157299029Y-91650330D01*
X156984248Y-91440000D01*
X157299029Y-91229670D01*
X157623885Y-90743489D01*
X157737959Y-90170000D01*
X157623885Y-89596511D01*
X157299029Y-89110330D01*
X156812848Y-88785474D01*
X156239359Y-88671400D01*
X156180641Y-88671400D01*
X155607152Y-88785474D01*
X155120971Y-89110330D01*
X154940000Y-89381172D01*
X154759029Y-89110330D01*
X154272848Y-88785474D01*
X153699359Y-88671400D01*
X153640641Y-88671400D01*
X153067152Y-88785474D01*
X152580971Y-89110330D01*
X152256115Y-89596511D01*
X152142041Y-90170000D01*
X152256115Y-90743489D01*
X152580971Y-91229670D01*
X152895752Y-91440000D01*
X152580971Y-91650330D01*
X152397442Y-91925000D01*
X148915158Y-91925000D01*
X147875079Y-90884921D01*
X147620407Y-90714755D01*
X147320000Y-90655000D01*
X137795000Y-90655000D01*
X137494594Y-90714755D01*
X137239921Y-90884921D01*
X135330000Y-92794842D01*
X135330000Y-83260000D01*
X154200392Y-83260000D01*
X154311877Y-83371485D01*
X154311877Y-83371485D01*
G37*
X154311877Y-83371485D02*
X153937832Y-83596154D01*
X153539120Y-84579388D01*
X153547025Y-85640357D01*
X153937832Y-86583846D01*
X154311879Y-86808516D01*
X156030395Y-85090000D01*
X156016253Y-85075858D01*
X156195858Y-84896253D01*
X156210000Y-84910395D01*
X156224143Y-84896253D01*
X156403748Y-85075858D01*
X156389605Y-85090000D01*
X156403748Y-85104143D01*
X156224143Y-85283748D01*
X156210000Y-85269605D01*
X154491484Y-86988121D01*
X154716154Y-87362168D01*
X155699388Y-87760880D01*
X156760357Y-87752975D01*
X157703846Y-87362168D01*
X157928515Y-86988123D01*
X158040000Y-87099608D01*
X158040000Y-92794842D01*
X157684028Y-92438870D01*
X157623885Y-92136511D01*
X157299029Y-91650330D01*
X156984248Y-91440000D01*
X157299029Y-91229670D01*
X157623885Y-90743489D01*
X157737959Y-90170000D01*
X157623885Y-89596511D01*
X157299029Y-89110330D01*
X156812848Y-88785474D01*
X156239359Y-88671400D01*
X156180641Y-88671400D01*
X155607152Y-88785474D01*
X155120971Y-89110330D01*
X154940000Y-89381172D01*
X154759029Y-89110330D01*
X154272848Y-88785474D01*
X153699359Y-88671400D01*
X153640641Y-88671400D01*
X153067152Y-88785474D01*
X152580971Y-89110330D01*
X152256115Y-89596511D01*
X152142041Y-90170000D01*
X152256115Y-90743489D01*
X152580971Y-91229670D01*
X152895752Y-91440000D01*
X152580971Y-91650330D01*
X152397442Y-91925000D01*
X148915158Y-91925000D01*
X147875079Y-90884921D01*
X147620407Y-90714755D01*
X147320000Y-90655000D01*
X137795000Y-90655000D01*
X137494594Y-90714755D01*
X137239921Y-90884921D01*
X135330000Y-92794842D01*
X135330000Y-83260000D01*
X154200392Y-83260000D01*
X154311877Y-83371485D01*
M02*
