M48
;DRILL file {KiCad 4.0.6+dfsg1-1} date Tue Oct 24 11:56:50 2017
;FORMAT={-:-/ absolute / inch / decimal}
FMAT,2
INCH,TZ
T1C0.016
T2C0.031
T3C0.040
T4C0.120
%
G90
G05
M72
T1
X5.525Y-4.725
X5.525Y-4.85
X5.6Y-5.6
X5.65Y-4.9
X5.7Y-5.
X5.75Y-4.3
X5.95Y-5.85
T2
X5.8Y-4.4
X5.8Y-4.5
X5.8Y-4.6
X5.8Y-4.7
X5.8Y-4.9
X5.8Y-5.
X5.8Y-5.1
X5.8Y-5.2
X6.1Y-4.4
X6.1Y-4.5
X6.1Y-4.6
X6.1Y-4.7
X6.1Y-4.9
X6.1Y-5.
X6.1Y-5.1
X6.1Y-5.2
T3
X5.4Y-4.5
X5.4Y-4.6
X5.4Y-4.7
X5.4Y-4.8
X5.4Y-4.9
X5.4Y-5.
X5.4Y-5.1
X5.4Y-5.2
X5.4Y-5.3
X5.4Y-5.4
X5.4Y-5.5
X5.4Y-5.6
X5.4Y-5.7
X5.4Y-5.8
X5.4Y-5.9
X5.4Y-6.
X5.5Y-5.6
X5.5Y-5.7
X5.5Y-5.8
X5.5Y-5.9
X5.5Y-6.
X6.05Y-3.55
X6.05Y-3.65
X6.05Y-3.75
X6.05Y-3.85
X6.05Y-3.95
X6.15Y-3.55
X6.15Y-3.65
X6.15Y-3.75
X6.15Y-3.85
X6.15Y-3.95
T4
X5.4Y-6.2
X6.15Y-3.35
T0
M30
