G04 #@! TF.FileFunction,Copper,L2,Bot,Signal*
%FSLAX46Y46*%
G04 Gerber Fmt 4.6, Leading zero omitted, Abs format (unit mm)*
G04 Created by KiCad (PCBNEW 4.0.6+dfsg1-1) date Tue Oct 24 11:56:29 2017*
%MOMM*%
%LPD*%
G01*
G04 APERTURE LIST*
%ADD10C,0.050000*%
%ADD11R,1.727200X1.727200*%
%ADD12O,1.727200X1.727200*%
%ADD13R,2.032000X1.727200*%
%ADD14O,2.032000X1.727200*%
%ADD15C,4.064000*%
%ADD16R,1.600000X1.600000*%
%ADD17O,1.600000X1.600000*%
%ADD18C,0.600000*%
%ADD19C,0.300000*%
%ADD20C,0.254000*%
G04 APERTURE END LIST*
D10*
D11*
X137160000Y-142240000D03*
D12*
X139700000Y-142240000D03*
X137160000Y-144780000D03*
X139700000Y-144780000D03*
X137160000Y-147320000D03*
X139700000Y-147320000D03*
X137160000Y-149860000D03*
X139700000Y-149860000D03*
X137160000Y-152400000D03*
X139700000Y-152400000D03*
D11*
X156210000Y-100330000D03*
D12*
X153670000Y-100330000D03*
X156210000Y-97790000D03*
X153670000Y-97790000D03*
X156210000Y-95250000D03*
X153670000Y-95250000D03*
X156210000Y-92710000D03*
X153670000Y-92710000D03*
X156210000Y-90170000D03*
X153670000Y-90170000D03*
D13*
X137160000Y-114300000D03*
D14*
X137160000Y-116840000D03*
X137160000Y-119380000D03*
X137160000Y-121920000D03*
X137160000Y-124460000D03*
X137160000Y-127000000D03*
X137160000Y-129540000D03*
X137160000Y-132080000D03*
X137160000Y-134620000D03*
X137160000Y-137160000D03*
X137160000Y-139700000D03*
D15*
X156210000Y-85090000D03*
X137160000Y-157480000D03*
D16*
X154940000Y-132080000D03*
D17*
X147320000Y-124460000D03*
X154940000Y-129540000D03*
X147320000Y-127000000D03*
X154940000Y-127000000D03*
X147320000Y-129540000D03*
X154940000Y-124460000D03*
X147320000Y-132080000D03*
D16*
X154940000Y-119380000D03*
D17*
X147320000Y-111760000D03*
X154940000Y-116840000D03*
X147320000Y-114300000D03*
X154940000Y-114300000D03*
X147320000Y-116840000D03*
X154940000Y-111760000D03*
X147320000Y-119380000D03*
D18*
X140335000Y-120015000D03*
X140335000Y-123190000D03*
X142240000Y-142240000D03*
X146050000Y-109220000D03*
X151130000Y-148590000D03*
X143510000Y-124460000D03*
X144780000Y-127000000D03*
D19*
X153670000Y-90170000D02*
X136525000Y-90170000D01*
X135255000Y-132715000D02*
X137160000Y-134620000D01*
X135255000Y-91440000D02*
X135255000Y-132715000D01*
X136525000Y-90170000D02*
X135255000Y-91440000D01*
X140335000Y-123190000D02*
X140335000Y-120015000D01*
X137160000Y-114300000D02*
X137160000Y-93980000D01*
X154940000Y-91440000D02*
X156210000Y-90170000D01*
X144780000Y-91440000D02*
X154940000Y-91440000D01*
X143510000Y-92710000D02*
X144780000Y-91440000D01*
X138430000Y-92710000D02*
X143510000Y-92710000D01*
X137160000Y-93980000D02*
X138430000Y-92710000D01*
X137160000Y-116840000D02*
X138430000Y-116840000D01*
X154940000Y-93980000D02*
X156210000Y-92710000D01*
X141605000Y-93980000D02*
X154940000Y-93980000D01*
X139065000Y-96520000D02*
X141605000Y-93980000D01*
X139065000Y-116205000D02*
X139065000Y-96520000D01*
X138430000Y-116840000D02*
X139065000Y-116205000D01*
X137160000Y-147320000D02*
X138430000Y-146050000D01*
X142240000Y-145415000D02*
X142240000Y-142240000D01*
X141605000Y-146050000D02*
X142240000Y-145415000D01*
X138430000Y-146050000D02*
X141605000Y-146050000D01*
X139700000Y-147320000D02*
X148590000Y-147320000D01*
X149860000Y-107950000D02*
X140970000Y-107950000D01*
X151130000Y-109220000D02*
X149860000Y-107950000D01*
X151130000Y-144780000D02*
X151130000Y-109220000D01*
X148590000Y-147320000D02*
X151130000Y-144780000D01*
X137160000Y-119380000D02*
X138430000Y-119380000D01*
X154940000Y-96520000D02*
X156210000Y-95250000D01*
X142240000Y-96520000D02*
X154940000Y-96520000D01*
X140970000Y-97790000D02*
X142240000Y-96520000D01*
X140970000Y-116840000D02*
X140970000Y-107950000D01*
X140970000Y-107950000D02*
X140970000Y-97790000D01*
X138430000Y-119380000D02*
X140970000Y-116840000D01*
X146050000Y-109220000D02*
X146050000Y-109855000D01*
X140335000Y-124460000D02*
X142240000Y-122555000D01*
X140335000Y-124460000D02*
X137160000Y-124460000D01*
X142240000Y-111760000D02*
X142240000Y-122555000D01*
X143510000Y-110490000D02*
X142240000Y-111760000D01*
X145415000Y-110490000D02*
X143510000Y-110490000D01*
X146050000Y-109855000D02*
X145415000Y-110490000D01*
X137160000Y-149860000D02*
X138430000Y-148590000D01*
X138430000Y-148590000D02*
X151130000Y-148590000D01*
X139700000Y-149860000D02*
X151130000Y-149860000D01*
X151130000Y-149860000D02*
X152400000Y-148590000D01*
X152400000Y-148590000D02*
X152400000Y-128270000D01*
X152400000Y-128270000D02*
X153670000Y-127000000D01*
X153670000Y-127000000D02*
X154940000Y-127000000D01*
X154940000Y-127000000D02*
X154940000Y-124460000D01*
X154940000Y-127000000D02*
X154940000Y-127000000D01*
X153670000Y-100330000D02*
X153670000Y-104775000D01*
X137160000Y-154940000D02*
X155575000Y-154940000D01*
X155575000Y-154940000D02*
X156845000Y-153670000D01*
X156845000Y-153670000D02*
X156845000Y-115570000D01*
X156845000Y-115570000D02*
X153670000Y-115570000D01*
X137160000Y-154940000D02*
X137160000Y-152400000D01*
X153035000Y-115570000D02*
X153670000Y-115570000D01*
X153035000Y-105410000D02*
X153035000Y-115570000D01*
X153670000Y-104775000D02*
X153035000Y-105410000D01*
X137160000Y-152400000D02*
X137160000Y-157480000D01*
X153670000Y-152400000D02*
X154940000Y-151130000D01*
X139700000Y-152400000D02*
X153670000Y-152400000D01*
X154940000Y-151130000D02*
X154940000Y-132080000D01*
X154940000Y-132080000D02*
X154940000Y-129540000D01*
X154940000Y-119380000D02*
X154940000Y-116840000D01*
X154940000Y-111760000D02*
X157480000Y-109220000D01*
X157480000Y-107950000D02*
X157480000Y-98425000D01*
X157480000Y-109220000D02*
X157480000Y-107950000D01*
X154940000Y-114300000D02*
X154940000Y-111760000D01*
X157480000Y-98425000D02*
X156210000Y-97790000D01*
X137160000Y-127000000D02*
X140970000Y-127000000D01*
X140970000Y-127000000D02*
X143510000Y-124460000D01*
X144780000Y-111760000D02*
X147320000Y-111760000D01*
X143510000Y-113030000D02*
X144780000Y-111760000D01*
X143510000Y-124460000D02*
X143510000Y-113030000D01*
X140970000Y-127000000D02*
X143510000Y-124460000D01*
X147320000Y-114300000D02*
X146050000Y-114300000D01*
X144780000Y-115570000D02*
X144780000Y-127000000D01*
X146050000Y-114300000D02*
X144780000Y-115570000D01*
X144780000Y-127000000D02*
X142240000Y-129540000D01*
X142240000Y-129540000D02*
X137160000Y-129540000D01*
X137160000Y-129540000D02*
X142240000Y-129540000D01*
X142240000Y-129540000D02*
X144780000Y-127000000D01*
X137160000Y-132080000D02*
X142240000Y-132080000D01*
X144780000Y-129540000D02*
X147320000Y-129540000D01*
X142240000Y-132080000D02*
X144780000Y-129540000D01*
X147320000Y-132080000D02*
X148590000Y-132080000D01*
X148590000Y-119380000D02*
X147320000Y-119380000D01*
X149860000Y-120650000D02*
X148590000Y-119380000D01*
X149860000Y-130810000D02*
X149860000Y-120650000D01*
X148590000Y-132080000D02*
X149860000Y-130810000D01*
X137160000Y-139700000D02*
X146050000Y-139700000D01*
X147320000Y-138430000D02*
X147320000Y-132080000D01*
X146050000Y-139700000D02*
X147320000Y-138430000D01*
D20*
G36*
X152142041Y-97790000D02*
X152256115Y-98363489D01*
X152580971Y-98849670D01*
X152904228Y-99065664D01*
X152781510Y-99123179D01*
X152387312Y-99555053D01*
X152215042Y-99970974D01*
X152336183Y-100203000D01*
X153543000Y-100203000D01*
X153543000Y-100183000D01*
X153797000Y-100183000D01*
X153797000Y-100203000D01*
X153817000Y-100203000D01*
X153817000Y-100457000D01*
X153797000Y-100457000D01*
X153797000Y-101664469D01*
X154029027Y-101784968D01*
X154558490Y-101536821D01*
X154728495Y-101350567D01*
X154743238Y-101428917D01*
X154882310Y-101645041D01*
X155094510Y-101790031D01*
X155346400Y-101841040D01*
X156695000Y-101841040D01*
X156695000Y-108894842D01*
X155215611Y-110374231D01*
X154968113Y-110325000D01*
X154911887Y-110325000D01*
X154362736Y-110434233D01*
X153897189Y-110745302D01*
X153586120Y-111210849D01*
X153476887Y-111760000D01*
X153586120Y-112309151D01*
X153897189Y-112774698D01*
X154155000Y-112946962D01*
X154155000Y-113113038D01*
X153897189Y-113285302D01*
X153586120Y-113750849D01*
X153476887Y-114300000D01*
X153586120Y-114849151D01*
X153897189Y-115314698D01*
X154279275Y-115570000D01*
X153897189Y-115825302D01*
X153586120Y-116290849D01*
X153476887Y-116840000D01*
X153586120Y-117389151D01*
X153897189Y-117854698D01*
X154041465Y-117951101D01*
X153904683Y-117976838D01*
X153688559Y-118115910D01*
X153543569Y-118328110D01*
X153492560Y-118580000D01*
X153492560Y-120180000D01*
X153536838Y-120415317D01*
X153675910Y-120631441D01*
X153888110Y-120776431D01*
X154140000Y-120827440D01*
X155740000Y-120827440D01*
X155975317Y-120783162D01*
X156191441Y-120644090D01*
X156336431Y-120431890D01*
X156387440Y-120180000D01*
X156387440Y-118580000D01*
X156343162Y-118344683D01*
X156204090Y-118128559D01*
X155991890Y-117983569D01*
X155836911Y-117952185D01*
X155982811Y-117854698D01*
X156293880Y-117389151D01*
X156403113Y-116840000D01*
X156293880Y-116290849D01*
X155982811Y-115825302D01*
X155600725Y-115570000D01*
X155982811Y-115314698D01*
X156293880Y-114849151D01*
X156403113Y-114300000D01*
X156293880Y-113750849D01*
X155982811Y-113285302D01*
X155725000Y-113113038D01*
X155725000Y-112946962D01*
X155982811Y-112774698D01*
X156293880Y-112309151D01*
X156403113Y-111760000D01*
X156344554Y-111465604D01*
X158035079Y-109775079D01*
X158040000Y-109767714D01*
X158040000Y-159310000D01*
X139169608Y-159310000D01*
X139058123Y-159198515D01*
X139432168Y-158973846D01*
X139830880Y-157990612D01*
X139822975Y-156929643D01*
X139432168Y-155986154D01*
X139058121Y-155761484D01*
X137339605Y-157480000D01*
X137353748Y-157494143D01*
X137174143Y-157673748D01*
X137160000Y-157659605D01*
X137145858Y-157673748D01*
X136966253Y-157494143D01*
X136980395Y-157480000D01*
X136966253Y-157465858D01*
X137145858Y-157286253D01*
X137160000Y-157300395D01*
X138878516Y-155581879D01*
X138653846Y-155207832D01*
X137670612Y-154809120D01*
X136609643Y-154817025D01*
X135666154Y-155207832D01*
X135441485Y-155581877D01*
X135330000Y-155470392D01*
X135330000Y-152759026D01*
X135705042Y-152759026D01*
X135877312Y-153174947D01*
X136271510Y-153606821D01*
X136800973Y-153854968D01*
X137033000Y-153734469D01*
X137033000Y-152527000D01*
X135826183Y-152527000D01*
X135705042Y-152759026D01*
X135330000Y-152759026D01*
X135330000Y-133900158D01*
X135571753Y-134141911D01*
X135476655Y-134620000D01*
X135590729Y-135193489D01*
X135915585Y-135679670D01*
X136230366Y-135890000D01*
X135915585Y-136100330D01*
X135590729Y-136586511D01*
X135476655Y-137160000D01*
X135590729Y-137733489D01*
X135915585Y-138219670D01*
X136230366Y-138430000D01*
X135915585Y-138640330D01*
X135590729Y-139126511D01*
X135476655Y-139700000D01*
X135590729Y-140273489D01*
X135915585Y-140759670D01*
X135997308Y-140814276D01*
X135844959Y-140912310D01*
X135699969Y-141124510D01*
X135648960Y-141376400D01*
X135648960Y-143103600D01*
X135693238Y-143338917D01*
X135832310Y-143555041D01*
X136044510Y-143700031D01*
X136088131Y-143708864D01*
X136070971Y-143720330D01*
X135746115Y-144206511D01*
X135632041Y-144780000D01*
X135746115Y-145353489D01*
X136070971Y-145839670D01*
X136385752Y-146050000D01*
X136070971Y-146260330D01*
X135746115Y-146746511D01*
X135632041Y-147320000D01*
X135746115Y-147893489D01*
X136070971Y-148379670D01*
X136385752Y-148590000D01*
X136070971Y-148800330D01*
X135746115Y-149286511D01*
X135632041Y-149860000D01*
X135746115Y-150433489D01*
X136070971Y-150919670D01*
X136394228Y-151135664D01*
X136271510Y-151193179D01*
X135877312Y-151625053D01*
X135705042Y-152040974D01*
X135826183Y-152273000D01*
X137033000Y-152273000D01*
X137033000Y-152253000D01*
X137287000Y-152253000D01*
X137287000Y-152273000D01*
X137307000Y-152273000D01*
X137307000Y-152527000D01*
X137287000Y-152527000D01*
X137287000Y-153734469D01*
X137519027Y-153854968D01*
X138048490Y-153606821D01*
X138430008Y-153188839D01*
X138610971Y-153459670D01*
X139097152Y-153784526D01*
X139670641Y-153898600D01*
X139729359Y-153898600D01*
X140302848Y-153784526D01*
X140789029Y-153459670D01*
X140972558Y-153185000D01*
X153670000Y-153185000D01*
X153970407Y-153125245D01*
X154225079Y-152955079D01*
X155495079Y-151685079D01*
X155665245Y-151430407D01*
X155725000Y-151130000D01*
X155725000Y-133527440D01*
X155740000Y-133527440D01*
X155975317Y-133483162D01*
X156191441Y-133344090D01*
X156336431Y-133131890D01*
X156387440Y-132880000D01*
X156387440Y-131280000D01*
X156343162Y-131044683D01*
X156204090Y-130828559D01*
X155991890Y-130683569D01*
X155836911Y-130652185D01*
X155982811Y-130554698D01*
X156293880Y-130089151D01*
X156403113Y-129540000D01*
X156293880Y-128990849D01*
X155982811Y-128525302D01*
X155600725Y-128270000D01*
X155982811Y-128014698D01*
X156293880Y-127549151D01*
X156403113Y-127000000D01*
X156293880Y-126450849D01*
X155982811Y-125985302D01*
X155725000Y-125813038D01*
X155725000Y-125646962D01*
X155982811Y-125474698D01*
X156293880Y-125009151D01*
X156403113Y-124460000D01*
X156293880Y-123910849D01*
X155982811Y-123445302D01*
X155517264Y-123134233D01*
X154968113Y-123025000D01*
X154911887Y-123025000D01*
X154362736Y-123134233D01*
X153897189Y-123445302D01*
X153586120Y-123910849D01*
X153476887Y-124460000D01*
X153586120Y-125009151D01*
X153897189Y-125474698D01*
X154155000Y-125646962D01*
X154155000Y-125813038D01*
X153897189Y-125985302D01*
X153743709Y-126215000D01*
X153670000Y-126215000D01*
X153369593Y-126274755D01*
X153114921Y-126444921D01*
X151915000Y-127644842D01*
X151915000Y-109220000D01*
X151855245Y-108919594D01*
X151855245Y-108919593D01*
X151685079Y-108664921D01*
X150415079Y-107394921D01*
X150160407Y-107224755D01*
X149860000Y-107165000D01*
X141755000Y-107165000D01*
X141755000Y-100689026D01*
X152215042Y-100689026D01*
X152387312Y-101104947D01*
X152781510Y-101536821D01*
X153310973Y-101784968D01*
X153543000Y-101664469D01*
X153543000Y-100457000D01*
X152336183Y-100457000D01*
X152215042Y-100689026D01*
X141755000Y-100689026D01*
X141755000Y-98115158D01*
X142565158Y-97305000D01*
X152238513Y-97305000D01*
X152142041Y-97790000D01*
X152142041Y-97790000D01*
G37*
X152142041Y-97790000D02*
X152256115Y-98363489D01*
X152580971Y-98849670D01*
X152904228Y-99065664D01*
X152781510Y-99123179D01*
X152387312Y-99555053D01*
X152215042Y-99970974D01*
X152336183Y-100203000D01*
X153543000Y-100203000D01*
X153543000Y-100183000D01*
X153797000Y-100183000D01*
X153797000Y-100203000D01*
X153817000Y-100203000D01*
X153817000Y-100457000D01*
X153797000Y-100457000D01*
X153797000Y-101664469D01*
X154029027Y-101784968D01*
X154558490Y-101536821D01*
X154728495Y-101350567D01*
X154743238Y-101428917D01*
X154882310Y-101645041D01*
X155094510Y-101790031D01*
X155346400Y-101841040D01*
X156695000Y-101841040D01*
X156695000Y-108894842D01*
X155215611Y-110374231D01*
X154968113Y-110325000D01*
X154911887Y-110325000D01*
X154362736Y-110434233D01*
X153897189Y-110745302D01*
X153586120Y-111210849D01*
X153476887Y-111760000D01*
X153586120Y-112309151D01*
X153897189Y-112774698D01*
X154155000Y-112946962D01*
X154155000Y-113113038D01*
X153897189Y-113285302D01*
X153586120Y-113750849D01*
X153476887Y-114300000D01*
X153586120Y-114849151D01*
X153897189Y-115314698D01*
X154279275Y-115570000D01*
X153897189Y-115825302D01*
X153586120Y-116290849D01*
X153476887Y-116840000D01*
X153586120Y-117389151D01*
X153897189Y-117854698D01*
X154041465Y-117951101D01*
X153904683Y-117976838D01*
X153688559Y-118115910D01*
X153543569Y-118328110D01*
X153492560Y-118580000D01*
X153492560Y-120180000D01*
X153536838Y-120415317D01*
X153675910Y-120631441D01*
X153888110Y-120776431D01*
X154140000Y-120827440D01*
X155740000Y-120827440D01*
X155975317Y-120783162D01*
X156191441Y-120644090D01*
X156336431Y-120431890D01*
X156387440Y-120180000D01*
X156387440Y-118580000D01*
X156343162Y-118344683D01*
X156204090Y-118128559D01*
X155991890Y-117983569D01*
X155836911Y-117952185D01*
X155982811Y-117854698D01*
X156293880Y-117389151D01*
X156403113Y-116840000D01*
X156293880Y-116290849D01*
X155982811Y-115825302D01*
X155600725Y-115570000D01*
X155982811Y-115314698D01*
X156293880Y-114849151D01*
X156403113Y-114300000D01*
X156293880Y-113750849D01*
X155982811Y-113285302D01*
X155725000Y-113113038D01*
X155725000Y-112946962D01*
X155982811Y-112774698D01*
X156293880Y-112309151D01*
X156403113Y-111760000D01*
X156344554Y-111465604D01*
X158035079Y-109775079D01*
X158040000Y-109767714D01*
X158040000Y-159310000D01*
X139169608Y-159310000D01*
X139058123Y-159198515D01*
X139432168Y-158973846D01*
X139830880Y-157990612D01*
X139822975Y-156929643D01*
X139432168Y-155986154D01*
X139058121Y-155761484D01*
X137339605Y-157480000D01*
X137353748Y-157494143D01*
X137174143Y-157673748D01*
X137160000Y-157659605D01*
X137145858Y-157673748D01*
X136966253Y-157494143D01*
X136980395Y-157480000D01*
X136966253Y-157465858D01*
X137145858Y-157286253D01*
X137160000Y-157300395D01*
X138878516Y-155581879D01*
X138653846Y-155207832D01*
X137670612Y-154809120D01*
X136609643Y-154817025D01*
X135666154Y-155207832D01*
X135441485Y-155581877D01*
X135330000Y-155470392D01*
X135330000Y-152759026D01*
X135705042Y-152759026D01*
X135877312Y-153174947D01*
X136271510Y-153606821D01*
X136800973Y-153854968D01*
X137033000Y-153734469D01*
X137033000Y-152527000D01*
X135826183Y-152527000D01*
X135705042Y-152759026D01*
X135330000Y-152759026D01*
X135330000Y-133900158D01*
X135571753Y-134141911D01*
X135476655Y-134620000D01*
X135590729Y-135193489D01*
X135915585Y-135679670D01*
X136230366Y-135890000D01*
X135915585Y-136100330D01*
X135590729Y-136586511D01*
X135476655Y-137160000D01*
X135590729Y-137733489D01*
X135915585Y-138219670D01*
X136230366Y-138430000D01*
X135915585Y-138640330D01*
X135590729Y-139126511D01*
X135476655Y-139700000D01*
X135590729Y-140273489D01*
X135915585Y-140759670D01*
X135997308Y-140814276D01*
X135844959Y-140912310D01*
X135699969Y-141124510D01*
X135648960Y-141376400D01*
X135648960Y-143103600D01*
X135693238Y-143338917D01*
X135832310Y-143555041D01*
X136044510Y-143700031D01*
X136088131Y-143708864D01*
X136070971Y-143720330D01*
X135746115Y-144206511D01*
X135632041Y-144780000D01*
X135746115Y-145353489D01*
X136070971Y-145839670D01*
X136385752Y-146050000D01*
X136070971Y-146260330D01*
X135746115Y-146746511D01*
X135632041Y-147320000D01*
X135746115Y-147893489D01*
X136070971Y-148379670D01*
X136385752Y-148590000D01*
X136070971Y-148800330D01*
X135746115Y-149286511D01*
X135632041Y-149860000D01*
X135746115Y-150433489D01*
X136070971Y-150919670D01*
X136394228Y-151135664D01*
X136271510Y-151193179D01*
X135877312Y-151625053D01*
X135705042Y-152040974D01*
X135826183Y-152273000D01*
X137033000Y-152273000D01*
X137033000Y-152253000D01*
X137287000Y-152253000D01*
X137287000Y-152273000D01*
X137307000Y-152273000D01*
X137307000Y-152527000D01*
X137287000Y-152527000D01*
X137287000Y-153734469D01*
X137519027Y-153854968D01*
X138048490Y-153606821D01*
X138430008Y-153188839D01*
X138610971Y-153459670D01*
X139097152Y-153784526D01*
X139670641Y-153898600D01*
X139729359Y-153898600D01*
X140302848Y-153784526D01*
X140789029Y-153459670D01*
X140972558Y-153185000D01*
X153670000Y-153185000D01*
X153970407Y-153125245D01*
X154225079Y-152955079D01*
X155495079Y-151685079D01*
X155665245Y-151430407D01*
X155725000Y-151130000D01*
X155725000Y-133527440D01*
X155740000Y-133527440D01*
X155975317Y-133483162D01*
X156191441Y-133344090D01*
X156336431Y-133131890D01*
X156387440Y-132880000D01*
X156387440Y-131280000D01*
X156343162Y-131044683D01*
X156204090Y-130828559D01*
X155991890Y-130683569D01*
X155836911Y-130652185D01*
X155982811Y-130554698D01*
X156293880Y-130089151D01*
X156403113Y-129540000D01*
X156293880Y-128990849D01*
X155982811Y-128525302D01*
X155600725Y-128270000D01*
X155982811Y-128014698D01*
X156293880Y-127549151D01*
X156403113Y-127000000D01*
X156293880Y-126450849D01*
X155982811Y-125985302D01*
X155725000Y-125813038D01*
X155725000Y-125646962D01*
X155982811Y-125474698D01*
X156293880Y-125009151D01*
X156403113Y-124460000D01*
X156293880Y-123910849D01*
X155982811Y-123445302D01*
X155517264Y-123134233D01*
X154968113Y-123025000D01*
X154911887Y-123025000D01*
X154362736Y-123134233D01*
X153897189Y-123445302D01*
X153586120Y-123910849D01*
X153476887Y-124460000D01*
X153586120Y-125009151D01*
X153897189Y-125474698D01*
X154155000Y-125646962D01*
X154155000Y-125813038D01*
X153897189Y-125985302D01*
X153743709Y-126215000D01*
X153670000Y-126215000D01*
X153369593Y-126274755D01*
X153114921Y-126444921D01*
X151915000Y-127644842D01*
X151915000Y-109220000D01*
X151855245Y-108919594D01*
X151855245Y-108919593D01*
X151685079Y-108664921D01*
X150415079Y-107394921D01*
X150160407Y-107224755D01*
X149860000Y-107165000D01*
X141755000Y-107165000D01*
X141755000Y-100689026D01*
X152215042Y-100689026D01*
X152387312Y-101104947D01*
X152781510Y-101536821D01*
X153310973Y-101784968D01*
X153543000Y-101664469D01*
X153543000Y-100457000D01*
X152336183Y-100457000D01*
X152215042Y-100689026D01*
X141755000Y-100689026D01*
X141755000Y-98115158D01*
X142565158Y-97305000D01*
X152238513Y-97305000D01*
X152142041Y-97790000D01*
G36*
X154311877Y-83371485D02*
X153937832Y-83596154D01*
X153539120Y-84579388D01*
X153547025Y-85640357D01*
X153937832Y-86583846D01*
X154311879Y-86808516D01*
X156030395Y-85090000D01*
X156016253Y-85075858D01*
X156195858Y-84896253D01*
X156210000Y-84910395D01*
X156224143Y-84896253D01*
X156403748Y-85075858D01*
X156389605Y-85090000D01*
X156403748Y-85104143D01*
X156224143Y-85283748D01*
X156210000Y-85269605D01*
X154491484Y-86988121D01*
X154716154Y-87362168D01*
X155699388Y-87760880D01*
X156760357Y-87752975D01*
X157703846Y-87362168D01*
X157928515Y-86988123D01*
X158040000Y-87099608D01*
X158040000Y-97877286D01*
X158035079Y-97869921D01*
X157930460Y-97800017D01*
X157831063Y-97722875D01*
X157712850Y-97663769D01*
X157623885Y-97216511D01*
X157299029Y-96730330D01*
X156984248Y-96520000D01*
X157299029Y-96309670D01*
X157623885Y-95823489D01*
X157737959Y-95250000D01*
X157623885Y-94676511D01*
X157299029Y-94190330D01*
X156984248Y-93980000D01*
X157299029Y-93769670D01*
X157623885Y-93283489D01*
X157737959Y-92710000D01*
X157623885Y-92136511D01*
X157299029Y-91650330D01*
X156984248Y-91440000D01*
X157299029Y-91229670D01*
X157623885Y-90743489D01*
X157737959Y-90170000D01*
X157623885Y-89596511D01*
X157299029Y-89110330D01*
X156812848Y-88785474D01*
X156239359Y-88671400D01*
X156180641Y-88671400D01*
X155607152Y-88785474D01*
X155120971Y-89110330D01*
X154940000Y-89381172D01*
X154759029Y-89110330D01*
X154272848Y-88785474D01*
X153699359Y-88671400D01*
X153640641Y-88671400D01*
X153067152Y-88785474D01*
X152580971Y-89110330D01*
X152397442Y-89385000D01*
X136525000Y-89385000D01*
X136224593Y-89444755D01*
X135969921Y-89614921D01*
X135330000Y-90254842D01*
X135330000Y-83260000D01*
X154200392Y-83260000D01*
X154311877Y-83371485D01*
X154311877Y-83371485D01*
G37*
X154311877Y-83371485D02*
X153937832Y-83596154D01*
X153539120Y-84579388D01*
X153547025Y-85640357D01*
X153937832Y-86583846D01*
X154311879Y-86808516D01*
X156030395Y-85090000D01*
X156016253Y-85075858D01*
X156195858Y-84896253D01*
X156210000Y-84910395D01*
X156224143Y-84896253D01*
X156403748Y-85075858D01*
X156389605Y-85090000D01*
X156403748Y-85104143D01*
X156224143Y-85283748D01*
X156210000Y-85269605D01*
X154491484Y-86988121D01*
X154716154Y-87362168D01*
X155699388Y-87760880D01*
X156760357Y-87752975D01*
X157703846Y-87362168D01*
X157928515Y-86988123D01*
X158040000Y-87099608D01*
X158040000Y-97877286D01*
X158035079Y-97869921D01*
X157930460Y-97800017D01*
X157831063Y-97722875D01*
X157712850Y-97663769D01*
X157623885Y-97216511D01*
X157299029Y-96730330D01*
X156984248Y-96520000D01*
X157299029Y-96309670D01*
X157623885Y-95823489D01*
X157737959Y-95250000D01*
X157623885Y-94676511D01*
X157299029Y-94190330D01*
X156984248Y-93980000D01*
X157299029Y-93769670D01*
X157623885Y-93283489D01*
X157737959Y-92710000D01*
X157623885Y-92136511D01*
X157299029Y-91650330D01*
X156984248Y-91440000D01*
X157299029Y-91229670D01*
X157623885Y-90743489D01*
X157737959Y-90170000D01*
X157623885Y-89596511D01*
X157299029Y-89110330D01*
X156812848Y-88785474D01*
X156239359Y-88671400D01*
X156180641Y-88671400D01*
X155607152Y-88785474D01*
X155120971Y-89110330D01*
X154940000Y-89381172D01*
X154759029Y-89110330D01*
X154272848Y-88785474D01*
X153699359Y-88671400D01*
X153640641Y-88671400D01*
X153067152Y-88785474D01*
X152580971Y-89110330D01*
X152397442Y-89385000D01*
X136525000Y-89385000D01*
X136224593Y-89444755D01*
X135969921Y-89614921D01*
X135330000Y-90254842D01*
X135330000Y-83260000D01*
X154200392Y-83260000D01*
X154311877Y-83371485D01*
M02*
