G04 #@! TF.FileFunction,Soldermask,Bot*
%FSLAX46Y46*%
G04 Gerber Fmt 4.6, Leading zero omitted, Abs format (unit mm)*
G04 Created by KiCad (PCBNEW 4.0.2+dfsg1-2~bpo8+1-stable) date Mon 04 Sep 2017 02:15:41 PM EEST*
%MOMM*%
G01*
G04 APERTURE LIST*
%ADD10C,0.050000*%
%ADD11R,2.127200X2.127200*%
%ADD12O,2.127200X2.127200*%
%ADD13R,2.432000X2.127200*%
%ADD14O,2.432000X2.127200*%
%ADD15O,2.700000X2.000000*%
%ADD16C,4.464000*%
G04 APERTURE END LIST*
D10*
D11*
X137160000Y-142240000D03*
D12*
X139700000Y-142240000D03*
X137160000Y-144780000D03*
X139700000Y-144780000D03*
X137160000Y-147320000D03*
X139700000Y-147320000D03*
X137160000Y-149860000D03*
X139700000Y-149860000D03*
X137160000Y-152400000D03*
X139700000Y-152400000D03*
D11*
X156210000Y-100330000D03*
D12*
X153670000Y-100330000D03*
X156210000Y-97790000D03*
X153670000Y-97790000D03*
X156210000Y-95250000D03*
X153670000Y-95250000D03*
X156210000Y-92710000D03*
X153670000Y-92710000D03*
X156210000Y-90170000D03*
X153670000Y-90170000D03*
D13*
X137160000Y-114300000D03*
D14*
X137160000Y-116840000D03*
X137160000Y-119380000D03*
X137160000Y-121920000D03*
X137160000Y-124460000D03*
X137160000Y-127000000D03*
X137160000Y-129540000D03*
X137160000Y-132080000D03*
X137160000Y-134620000D03*
X137160000Y-137160000D03*
X137160000Y-139700000D03*
D15*
X154940000Y-132080000D03*
X154940000Y-129540000D03*
X154940000Y-127000000D03*
X154940000Y-124460000D03*
X147320000Y-124460000D03*
X147320000Y-127000000D03*
X147320000Y-129540000D03*
X147320000Y-132080000D03*
X154940000Y-119380000D03*
X154940000Y-116840000D03*
X154940000Y-114300000D03*
X154940000Y-111760000D03*
X147320000Y-111760000D03*
X147320000Y-114300000D03*
X147320000Y-116840000D03*
X147320000Y-119380000D03*
D16*
X156210000Y-85090000D03*
X137160000Y-157480000D03*
M02*
